<svg id="Capa_1" enable-background="new 0 0 512.044 512.044" height="512" viewBox="0 0 512.044 512.044" width="512" xmlns="http://www.w3.org/2000/svg"><path d="m224.224 98.475-35.171-7.623c-29.538-6.402-59.685 7.88-73.44 34.792l-83.993 164.334 106.002-26.99" fill="#d82e3d"/><path d="m412.748 291.416 7.623 35.171c6.402 29.538-7.88 59.685-34.792 73.44l-164.334 83.993 26.99-106.002" fill="#dd636e"/><path d="m414.965 289.207c-48.368 48.368-107.182 77.661-164.522 86.607l-112.821-112.821c8.937-57.349 38.239-116.154 86.607-164.522 29.223-29.223 62.269-51.482 96.491-66.497 58.506-25.688 120.486-30.187 172.783-12.059 18.137 52.306 13.647 114.294-12.042 172.801-15.014 34.222-37.274 67.269-66.496 96.491z" fill="#dfeaef"/><path d="m283.689 157.932c-48.368 48.368-86.87 97.973-110.9 140.228l-35.169-35.169c8.937-57.349 38.239-116.154 86.607-164.522 29.223-29.223 62.269-51.482 96.491-66.497 58.506-25.688 120.486-30.187 172.783-12.059-30.337 3.833-74.398 26.249-122.679 62.164-28.232 21.005-57.91 46.632-87.133 75.855z" fill="#b4d0d5"/><path d="m481.461 192.716-160.742-160.742c58.507-25.688 120.487-30.187 172.784-12.059 18.137 52.306 13.647 114.295-12.042 172.801z" fill="#dd636e"/><path d="m320.719 31.974 50.103 50.103c48.279-35.913 92.34-58.33 122.676-62.163-52.296-18.127-114.274-13.627-172.779 12.06z" fill="#d82e3d"/><path d="m12.96 497.627c44.558 0 118.943-37.193 118.943-37.193v42.652c53.316-28.435 104.854-101.299 40.875-165.278s-136.843-12.44-165.278 40.876h42.652s-37.192 74.385-37.192 118.943z" fill="#f6e266"/><path d="m172.771 337.807c-28.879-28.89-100.207 63.289-100.207 63.289s-47.386 64.193-59.61 96.527c0-44.556 37.197-118.939 37.197-118.939h-42.651c28.427-53.316 101.293-104.855 165.271-40.877z" fill="#ecc32e"/><circle cx="312.416" cy="202.837" fill="#dd636e" r="87.115"/><circle cx="312.415" cy="202.838" fill="#b1e4f9" r="53.944"/><path d="m327.211 164.694c-7.543-7.543-16.775-12.395-26.469-14.537 17.388-3.83 36.293 1.012 49.818 14.537 21.068 21.068 21.068 55.219 0 76.287-13.525 13.525-32.43 18.367-49.818 14.537 9.695-2.141 18.927-6.994 26.469-14.537 21.068-21.068 21.068-55.219 0-76.287z" fill="#e4f6ff"/><path d="m179.649 380.183c15.938-31.416-17.192-64.546-48.608-48.608-6.019 3.054-11.666 7.097-16.698 12.129-18.532 18.532-23.646 45.395-15.353 68.531 23.135 8.293 49.999 3.178 68.531-15.353 5.031-5.033 9.074-10.679 12.128-16.699z" fill="#dd636e"/><path d="m500.586 17.46c-.753-2.171-2.459-3.877-4.63-4.63-34.249-11.869-73.258-14.509-112.81-7.633-4.081.709-6.814 4.593-6.104 8.674.709 4.081 4.588 6.815 8.674 6.104 35.717-6.209 70.845-4.176 101.863 5.866 12.646 38.968 12.627 83.16-.094 128.071-2.443 8.625-5.333 17.162-8.64 25.583l-144.901-144.9c7.804-3.065 15.705-5.775 23.683-8.098 3.977-1.158 6.262-5.321 5.104-9.298s-5.32-6.26-9.298-5.104c-48.083 14-93.495 41.003-131.585 78.191l-31.206-6.764c-32.821-7.114-66.421 8.803-81.707 38.708l-83.993 164.335c-1.341 2.624-1.021 5.791.817 8.093 1.443 1.808 3.613 2.821 5.861 2.821.615 0 1.237-.076 1.851-.232l101.866-25.937 105.469 105.469-26.824 105.387c-.727 2.856.286 5.873 2.588 7.711 1.356 1.083 3.013 1.639 4.681 1.639 1.164 0 2.334-.271 3.412-.822l90.57-46.29c3.688-1.885 5.15-6.403 3.265-10.091s-6.403-5.15-10.091-3.265l-75.796 38.739 22.17-87.103c54.942-9.259 108.768-36.245 153.444-76.733l4.815 22.223c5.673 26.187-7.022 52.987-30.873 65.174l-47.1 24.07c-3.688 1.885-5.15 6.403-3.266 10.091 1.327 2.596 3.957 4.088 6.685 4.088 1.148 0 2.314-.265 3.407-.823l47.1-24.07c29.903-15.279 45.82-48.878 38.708-81.707l-6.756-31.18c38.879-39.099 66.873-86.041 80.971-135.817 13.941-49.22 13.481-97.818-1.33-140.54zm-378.294 111.597c12.192-23.854 38.994-36.548 65.173-30.875l22.058 4.781c-41.201 44.64-68.802 98.694-78.493 153.965l-85.179 21.688zm107.231-25.277c26.601-26.601 57.046-47.911 89.539-62.852l153.444 153.444c-14.934 32.482-36.228 62.91-62.849 89.531-44.483 44.473-99.967 74.159-156.633 83.88l-107.381-107.381c9.722-56.669 39.408-112.15 83.88-156.622z"/><path d="m95.254 301.596c-44.208 6.579-78.467 43.737-94.372 73.559-1.24 2.324-1.169 5.129.187 7.388 1.355 2.259 3.797 3.641 6.431 3.641h30.779c-10.42 22.653-32.819 75.528-32.819 111.443 0 4.142 3.358 7.5 7.5 7.5 35.914 0 88.79-22.399 111.443-32.819v30.779c0 2.634 1.382 5.076 3.641 6.431 1.186.711 2.521 1.069 3.859 1.069 1.211 0 2.425-.293 3.529-.882 29.822-15.905 66.98-50.164 73.559-94.372 4.399-29.566-6.289-58.207-30.909-82.827-24.621-24.621-53.263-35.308-82.828-30.91zm72.045 42.328c7.084 7.084 12.16 19.569 5.161 33.366-2.763 5.447-6.378 10.422-10.744 14.788-14.958 14.959-37.094 20.542-57.274 14.703-5.838-20.18-.255-42.316 14.703-57.274 4.366-4.366 9.341-7.98 14.788-10.744 13.797-6.998 26.281-1.922 33.366 5.161zm26.855 69.2c-4.706 31.628-29.357 59.846-54.751 76.738v-29.428c0-2.599-1.346-5.013-3.557-6.38-1.205-.745-2.572-1.12-3.943-1.12-1.146 0-2.295.263-3.354.792-.685.342-64.891 32.229-107.719 36.031 3.805-42.8 35.688-107.035 36.031-107.72 1.162-2.325 1.038-5.086-.329-7.297-1.367-2.21-3.78-3.557-6.379-3.557h-29.428c16.892-25.394 45.109-50.045 76.737-54.751 13.697-2.04 26.951-.266 39.657 5.262-3.378.816-6.722 2.043-9.972 3.692-6.861 3.48-13.122 8.027-18.608 13.514-19.893 19.892-26.609 49.867-17.11 76.365.757 2.111 2.418 3.772 4.529 4.529 7.988 2.863 16.289 4.253 24.537 4.253 19.113 0 37.932-7.467 51.828-21.363 5.487-5.487 10.034-11.748 13.514-18.608 1.563-3.082 2.741-6.249 3.556-9.448 5.137 12.352 6.737 25.217 4.761 38.496z"/><path d="m379.319 269.739c17.871-17.87 27.712-41.63 27.712-66.903s-9.842-49.032-27.712-66.902c-36.89-36.89-96.915-36.891-133.805 0-17.871 17.87-27.712 41.63-27.712 66.902s9.841 49.033 27.712 66.903c18.445 18.445 42.674 27.667 66.902 27.667 24.229.001 48.458-9.222 66.903-27.667zm-146.517-66.902c0-21.266 8.281-41.259 23.318-56.296 15.038-15.037 35.03-23.318 56.296-23.318s41.259 8.281 56.296 23.318 23.319 35.03 23.319 56.296-8.282 41.259-23.319 56.296c-31.042 31.041-81.55 31.041-112.592 0-15.037-15.037-23.318-35.03-23.318-56.296z"/><path d="m355.864 159.389c-23.958-23.958-62.938-23.957-86.895 0-23.958 23.957-23.958 62.938 0 86.896 11.979 11.979 27.713 17.968 43.448 17.968 15.734 0 31.469-5.989 43.447-17.968 23.957-23.958 23.957-62.939 0-86.896zm-76.289 76.289c-18.109-18.109-18.109-47.574 0-65.683 9.054-9.054 20.948-13.582 32.841-13.582 11.894 0 23.787 4.527 32.841 13.582 18.108 18.109 18.108 47.574 0 65.683-18.108 18.107-47.573 18.108-65.682 0z"/></svg>