<svg id="Layer_1" enable-background="new 0 0 508.357 508.357" height="512" viewBox="0 0 508.357 508.357" width="512" xmlns="http://www.w3.org/2000/svg"><g><g><path d="m254.178 8.127-225.389 141.553c-1.79 3.71-3.491 7.47-5.101 11.279-12.637 29.904-19.625 62.778-19.625 97.283 0 77.854 35.571 147.399 91.347 193.271l166.343 56.731c134.63-4.005 242.539-114.402 242.539-250.002.001-138.134-111.979-250.115-250.114-250.115z" fill="#ecca34"/><path d="m318.891 46.11h-197.276c-39.895 24.983-72.232 60.91-92.819 103.573h217.75l-3.249 4.406-147.883 297.421c10.582 8.703 21.891 16.552 33.823 23.443l220.573-312.048v-98.098c-9.809-6.944-20.138-13.2-30.919-18.697z" fill="#dc6920"/></g><path d="m417.904 0h-327.451c-10.883 0-19.706 8.823-19.706 19.706v105.95h232.185l-173.684 349.307c3.904 2.255 7.875 4.408 11.908 6.455l111.576 26.935c.482.003.964.004 1.447.004 2.535 0 5.058-.049 7.575-.124l175.856-380.553v-107.974c0-10.883-8.823-19.706-19.706-19.706z" fill="#5339d3"/><g><g><g><g><path d="m322.695 116.313-166.557 358.939 92.729 28.597 175.206-379.146-12.222-100.614-327.567-10.552v98.582h238.411z" fill="#3b3896"/></g></g></g><g><g><g><path d="m115.358 44.611h277.641v73.26l31.074 6.832v-111.165h-339.789z" fill="#6b66fa"/></g></g><path d="m322.695 116.313-181.537 365.101c33.543 17.021 71.438 26.697 111.574 26.924l-23.32-36.465h-48.808l169.915-341.726 3.25-6.536v-42.566l-31.074 31.074z" fill="#6b66fa"/></g></g><g><g><g><path d="m88.541 282.944 3.62 9.489c1.813 4.754 5.568 8.508 10.322 10.322l9.489 3.62-9.489 3.62c-4.754 1.813-8.508 5.568-10.322 10.322l-3.62 9.489-3.62-9.489c-1.813-4.754-5.568-8.508-10.322-10.322l-9.489-3.62 9.489-3.62c4.754-1.813 8.508-5.568 10.322-10.322z" fill="#fff"/></g></g></g><g><g><g><path d="m99.899 162.063 4.897 12.838c2.453 6.432 7.533 11.512 13.965 13.965l12.838 4.897-12.838 4.897c-6.432 2.453-11.512 7.533-13.965 13.965l-4.897 12.838-4.897-12.838c-2.453-6.432-7.533-11.512-13.965-13.965l-12.838-4.897 12.838-4.897c6.432-2.453 11.512-7.533 13.965-13.965z" fill="#fff"/></g></g></g><g><g><g><path d="m415.215 278.859 5.535 14.51c2.773 7.269 8.514 13.01 15.783 15.783l14.51 5.535-14.51 5.535c-7.269 2.773-13.01 8.514-15.783 15.783l-5.535 14.51-5.535-14.51c-2.773-7.269-8.514-13.01-15.783-15.783l-14.51-5.535 14.51-5.535c7.269-2.773 13.01-8.514 15.783-15.783z" fill="#fff"/></g></g></g><g><g><path d="m210.013 476.489-7.781-3.808 163.258-333.649v-65.58h-251.966v-8.664h260.63v76.25z" fill="#6b66fa"/></g></g></g></svg>