<svg clip-rule="evenodd" fill-rule="evenodd" height="512" image-rendering="optimizeQuality" shape-rendering="geometricPrecision" text-rendering="geometricPrecision" viewBox="0 0 512 512" width="512" xmlns="http://www.w3.org/2000/svg"><g id="Layer_x0020_1"><path d="m256 512c-141 0-256-115-256-256s115-256 256-256 256 115 256 256-115 256-256 256zm0-40c-119 0-216-97-216-216s97-216 216-216 216 97 216 216-97 216-216 216zm0-417c-111 0-201 90-201 201 0 112 90 202 201 202s201-90 201-202c0-111-90-201-201-201zm6 249c-1 0-4-1-5-2l-43-43c-7-7 4-17 10-10l38 37 64-63h-34c-4 0-6-2-7-5l-29-88-28 88c-1 3-4 5-7 5h-93l75 54c3 2 4 5 3 9l-29 88 75-55c2-2 6-2 8 0l75 55-29-88c0-3 0-7 3-9l75-54h-37l-79 79c-2 1-4 2-6 2zm78-96 36-35c7-7 17 3 10 10l-25 25h46c7 0 10 9 5 13l-90 65 34 104c2 7-5 13-11 9l-89-65-89 65c-7 4-13-2-11-8l34-105-89-65c-5-3-3-13 5-13l109 1 34-105c2-7 12-7 14 0l34 105zm-84-193c-133 0-241 108-241 241s108 241 241 241 241-108 241-241-108-241-241-241z" fill="#4d4d4d"/><path d="m224 249 38 37 64-63h-34c-4 0-6-2-7-5l-29-88-28 88c-1 3-4 5-7 5h-93l75 54c3 2 4 5 3 9l-29 88 75-55c2-2 6-2 8 0l75 55-29-88c0-3 0-7 3-9l75-54h-37l-79 79c-2 1-4 2-6 2-1 0-4-1-5-2l-43-43c-7-7 4-17 10-10z" fill="#ffe600"/><path d="m263 104 34 105 43-1 36-35c7-7 17 3 10 10l-25 25h46c7 0 10 9 5 13l-90 65 34 104c2 7-5 13-11 9l-89-65-89 65c-7 4-13-2-11-8l34-105-89-65c-5-3-3-13 5-13l109 1 34-105c2-7 12-7 14 0zm-208 152c0 112 90 202 201 202s201-90 201-202c0-111-90-201-201-201s-201 90-201 201z" fill="#7ed63f"/><path d="m256 40c119 0 216 97 216 216s-97 216-216 216-216-97-216-216 97-216 216-216zm-241 216c0 133 108 241 241 241s241-108 241-241-108-241-241-241-241 108-241 241z" fill="#ffe600"/></g></svg>