<svg viewBox="0 0 512 512" xmlns="http://www.w3.org/2000/svg" xmlns:xlink="http://www.w3.org/1999/xlink"><linearGradient id="linear-gradient" gradientUnits="userSpaceOnUse" x2="512" y1="256" y2="256"><stop offset="0" stop-color="#0094ff"/><stop offset="1" stop-color="#0021ff"/></linearGradient><g id="Layer_2" data-name="Layer 2"><g id="Layer_1-2" data-name="Layer 1"><g id="_100" data-name="100"><path id="Base" d="m.91 235.09a18.55 18.55 0 0 0 6.53 9.06 18.13 18.13 0 0 0 8.89 3.49 19.23 19.23 0 0 0 2 .11h66.84a18.38 18.38 0 0 0 18.14-15.59 153.53 153.53 0 0 1 27.76-67c.35-.49.67-1 1-1.49a18.39 18.39 0 0 0 -2.64-22.59l-47.26-47.24h-.25a18.36 18.36 0 0 0 -27.12 1.5q-4.16 5.2-8 10.6l-.53.75-2 2.82c-.43.62-.84 1.24-1.26 1.86s-.81 1.17-1.2 1.76c-.57.86-1.13 1.72-1.69 2.58-.24.37-.48.72-.71 1.09-.68 1-1.35 2.11-2 3.17l-.34.54c-.73 1.19-1.46 2.39-2.18 3.59l-.1.16c-.73 1.23-1.45 2.46-2.16 3.71l-.06.09c-.71 1.24-1.41 2.49-2.1 3.74l-.05.1c-.63 1.15-1.26 2.31-1.87 3.47-.07.14-.15.27-.23.41-.56 1.08-1.12 2.15-1.67 3.24-.11.23-.24.45-.35.69-.44.86-.87 1.74-1.3 2.61l-.67 1.35c-.29.6-.57 1.21-.86 1.82s-.69 1.45-1 2.18c-.14.29-.27.59-.41.89-.61 1.32-1.2 2.65-1.79 4-.47 1.07-.94 2.14-1.39 3.22q-3.64 8.59-6.63 17.39a254.4 254.4 0 0 0 -12 54.13 19.84 19.84 0 0 0 -.11 2 18.82 18.82 0 0 0 .41 3.92c0 .64.16 1.26.36 1.87zm131.09 113.2c-.29-.47-.6-.94-.93-1.4a153.66 153.66 0 0 1 -27.79-67 18.37 18.37 0 0 0 -18.14-15.57h-66.77a18.2 18.2 0 0 0 -10.92 3.68 18.44 18.44 0 0 0 -7.34 12.81 19.21 19.21 0 0 0 0 4q1 9.23 2.7 18.31c.56 3 1.18 6 1.85 9.05.33 1.5.68 3 1 4.5a256.52 256.52 0 0 0 13.07 39.55c.32.76.65 1.51 1 2.26 1.44 3.29 2.93 6.56 4.49 9.78v.05c.51 1.05 1 2.08 1.55 3.12l.42.85c.44.87.9 1.74 1.35 2.61.23.44.45.88.68 1.31.39.75.8 1.49 1.2 2.23l.89 1.66 1 1.81 1.14 2 .79 1.34c.48.83.95 1.65 1.44 2.47l.56.91c.57 1 1.15 1.92 1.74 2.87.11.19.24.38.36.57.66 1.06 1.32 2.11 2 3.16l.12.2a258 258 0 0 0 15.28 21.18v.06l.07.09a18.36 18.36 0 0 0 27.32 1.5l47.33-47.25a18.4 18.4 0 0 0 2.54-22.71zm248-184.62c.3.51.62 1 1 1.49a153.53 153.53 0 0 1 27.76 67 18.38 18.38 0 0 0 18.14 15.59h66.82a18.39 18.39 0 0 0 18.24-20.46q-.76-6.93-1.91-13.78-1.51-9.13-3.68-18.13c-.37-1.5-.74-3-1.13-4.48q-1.17-4.49-2.5-8.91t-2.83-8.83q-3-8.79-6.63-17.39c-.45-1.08-.92-2.15-1.39-3.22-.59-1.33-1.18-2.66-1.79-4-.14-.3-.27-.6-.41-.89-.34-.73-.69-1.46-1-2.18s-.57-1.22-.86-1.82-.49-1-.74-1.48c-.4-.83-.81-1.66-1.23-2.48-.15-.31-.31-.61-.47-.92-.51-1-1-2-1.55-3-.08-.15-.17-.29-.24-.44-.61-1.15-1.23-2.3-1.86-3.44l-.17-.31c-.65-1.18-1.31-2.36-2-3.53l-.17-.28c-.67-1.18-1.36-2.35-2.05-3.52-.07-.11-.14-.22-.2-.33-.69-1.15-1.38-2.29-2.08-3.42-.14-.22-.28-.43-.41-.65-.64-1-1.28-2.05-1.94-3.07l-.64-1c-.58-.9-1.16-1.8-1.76-2.69-.39-.59-.8-1.17-1.2-1.76s-.83-1.24-1.26-1.86l-2-2.82-.53-.75q-3.87-5.4-8-10.6a18.36 18.36 0 0 0 -27.12-1.5h-.25l-47.36 47.27a18.39 18.39 0 0 0 -2.6 22.59zm-100.22-60.38h.14.08a153.69 153.69 0 0 1 67 27.87 18.41 18.41 0 0 0 24-1.7l47.29-47.28a18.36 18.36 0 0 0 -1.51-27.31l-.17-.14a255.38 255.38 0 0 0 -40.16-26.33l-.21-.11c-1-.55-2.08-1.09-3.13-1.62l-.8-.42-2.56-1.25c-.47-.23-.94-.47-1.41-.69-.69-.34-1.39-.66-2.08-1l-1.92-.91-1.62-.74-2.42-1.09-.93-.41-3.14-1.36-.2-.08a254.75 254.75 0 0 0 -57-16.59l-.43-.07c-1.14-.19-2.29-.37-3.43-.54l-1.17-.2-2.67-.32-1.95-.32-1.89-.23-2.59-.31h-.21a18.39 18.39 0 0 0 -20.46 18.24v66.8a18.38 18.38 0 0 0 15.55 18.11zm-47.56 305.41h-.14-.08a153.38 153.38 0 0 1 -31.25-8.34l-.13-.06c-1.37-.52-2.74-1.07-4.09-1.64l-.58-.25c-1.2-.51-2.39-1-3.58-1.56-.36-.16-.71-.34-1.07-.51-1-.46-2-.93-3-1.42-.53-.26-1.05-.54-1.57-.8-.82-.42-1.64-.82-2.45-1.25s-1.41-.77-2.12-1.15-1.23-.66-1.84-1c-.93-.52-1.84-1.06-2.75-1.6l-1.14-.67c-1.13-.68-2.24-1.38-3.35-2.08l-.46-.3q-3.79-2.43-7.44-5.09l-.11-.07a18.41 18.41 0 0 0 -23.93 1.74l-47.34 47.21a18.37 18.37 0 0 0 1.51 27.32l.13.1 2 1.56 1.38 1.08a255.76 255.76 0 0 0 44.39 27.55l.45.23 2.69 1.27 1.32.63 1.7.77c2.12 1 4.25 1.91 6.4 2.82l.22.09a255.8 255.8 0 0 0 56.86 16.56l.53.09c1.12.19 2.24.36 3.35.53l1.26.2 2.57.35 2.07.29c.59.08 1.18.14 1.78.21.89.11 1.79.23 2.69.33h.05.21a18.39 18.39 0 0 0 20.46-18.24v-66.76a18.38 18.38 0 0 0 -15.6-18.14zm261.41-144.34h-66.81a18.37 18.37 0 0 0 -18.14 15.57 153.66 153.66 0 0 1 -27.79 67c-.33.46-.65.93-.93 1.41a18.4 18.4 0 0 0 2.58 22.66l47.28 47.28a18.36 18.36 0 0 0 27.32-1.5l.07-.09.05-.06a255 255 0 0 0 15.25-21.21.83.83 0 0 0 .08-.12c.7-1.08 1.38-2.16 2.06-3.25l.3-.48c.6-1 1.18-1.92 1.76-2.89l.54-.89c.5-.84 1-1.7 1.49-2.55l.73-1.26c.42-.72.82-1.46 1.23-2.19.31-.55.63-1.1.94-1.66s.63-1.18.95-1.76.77-1.42 1.14-2.13c.25-.46.48-.93.72-1.39.44-.84.88-1.68 1.31-2.53l.57-1.15c.47-.94.94-1.87 1.39-2.81l.3-.62c.54-1.12 1.07-2.25 1.6-3.38l.39-.87c.49-1 1-2.1 1.44-3.16.6-1.35 1.19-2.7 1.76-4.07a256.52 256.52 0 0 0 13.07-39.55c.36-1.5.71-3 1-4.5.67-3 1.29-6 1.85-9.05q1.68-9.09 2.7-18.31a18.38 18.38 0 0 0 -18.2-20.49zm-122.72 118.22a18.41 18.41 0 0 0 -23.91-1.74l-.11.07q-3.64 2.65-7.44 5.09l-.46.3c-1.11.7-2.22 1.4-3.35 2.08l-1.14.67c-.91.54-1.82 1.08-2.75 1.6-.6.34-1.22.67-1.83 1s-1.41.78-2.13 1.16-1.63.83-2.45 1.25c-.52.26-1 .54-1.57.8-1 .49-2 1-3 1.42-.36.17-.71.35-1.07.51-1.19.54-2.38 1.05-3.58 1.56l-.58.25c-1.35.57-2.72 1.12-4.09 1.64l-.13.06a153.38 153.38 0 0 1 -31.32 8.36h-.08-.14a18.38 18.38 0 0 0 -15.6 18.14v66.81a18.39 18.39 0 0 0 20.46 18.24h.21c.9-.1 1.8-.22 2.69-.33.6-.07 1.19-.13 1.78-.21l2.07-.29 2.57-.35 1.26-.2c1.11-.17 2.23-.34 3.35-.53l.53-.09a256 256 0 0 0 56.9-16.54l.24-.1c2.15-.91 4.28-1.86 6.4-2.82l1.7-.77 1.32-.63 2.69-1.27.45-.23a256.22 256.22 0 0 0 44.4-27.55l1.3-1 2.06-1.61.13-.1a18.37 18.37 0 0 0 1.51-27.32zm-143.55-382.47h-.21-.05l-2.59.31-1.89.23-2 .27-2.62.4-1.18.19c-1.14.17-2.29.35-3.43.54l-.44.07a255.72 255.72 0 0 0 -57 16.59l-.2.08c-2.27 1-4.52 2-6.75 3l-1.36.62-2 .95c-.67.31-1.33.62-2 .95l-1.41.69-2.56 1.27-.8.42c-1 .53-2.1 1.07-3.13 1.62l-.22.11a256.47 256.47 0 0 0 -40.1 26.29l-.17.14a18.36 18.36 0 0 0 -1.51 27.31l47.26 47.3a18.41 18.41 0 0 0 24 1.74 153.69 153.69 0 0 1 67-27.87h.08.14a18.38 18.38 0 0 0 15.6-18.14v-66.84a18.39 18.39 0 0 0 -20.46-18.24z" fill="url(#linear-gradient)"/><g id="_100-2" fill="#0021ff" data-name="100"><path d="m181.1 318.31h-24.85v-79.31l.56-12.24a112.34 112.34 0 0 1 -8.71 8.16l-13.54 10.75-11.86-15 37.82-30h20.58z"/><path d="m295.3 259.35q0 31.53-10 46.08t-31.3 14.57q-41 0-41-60.63 0-31.32 9.92-46t31.08-14.64q41.3 0 41.3 60.62zm-57.84 0q0 21.69 3.8 31.06t12.7 9.36q8.71 0 12.61-9.46t3.89-31q0-21.69-4-31.14t-12.46-9.42q-9.09 0-12.79 9.46t-3.75 31.14z"/><path d="m389.3 259.35q0 31.53-10 46.08t-31.3 14.57q-41 0-41-60.63 0-31.32 9.91-46t31.09-14.64q41.3 0 41.3 60.62zm-57.84 0q0 21.69 3.8 31.06t12.7 9.36q8.71 0 12.61-9.46t3.89-31q0-21.69-4-31.14t-12.46-9.42q-9.09 0-12.79 9.46t-3.75 31.14z"/></g></g></g></g></svg>