<svg id="Capa_1" enable-background="new 0 0 511.998 511.998" height="512" viewBox="0 0 511.998 511.998" width="512" xmlns="http://www.w3.org/2000/svg"><g><path d="m480.289 328.889c11.14 56.32-28.26 111.1-85.7 117.88-24.08 52.1-88.1 73.33-138.57 45.01-.01 0-.01.01-.02.01-50.09 28-114.37 7.56-138.56-45.01-57.02-6.75-96.99-61.15-85.72-117.89-42.12-39-42.46-106.48-.01-145.76-11.14-56.33 28.28-111.11 85.73-117.88 24.26-52.48 88.06-73.21 138.54-45.01.01 0 .01-.01.02-.01 50.13-28.02 114.35-7.5 138.59 45.02 57.42 6.88 96.86 61.14 85.69 117.88 42.12 39 42.46 106.49.01 145.76z" fill="#25d9f8"/><path d="m480.289 328.889c11.14 56.32-28.26 111.1-85.7 117.88-24.08 52.1-88.1 73.33-138.57 45.01-.01 0-.01.01-.02.01v-471.56c50.13-28.02 114.35-7.5 138.59 45.02 57.42 6.88 96.86 61.14 85.69 117.88 42.12 39 42.46 106.49.01 145.76z" fill="#00bff1"/><circle cx="255.999" cy="255.999" fill="#ffc648" r="172.04"/><path d="m428.039 255.999c0 95.01-77.03 172.04-172.04 172.04v-344.08c95.01 0 172.04 77.03 172.04 172.04z" fill="#fc9d56"/><path d="m255.999 68.959c-103.13 0-187.04 83.91-187.04 187.04s83.91 187.04 187.04 187.04 187.04-83.91 187.04-187.04-83.91-187.04-187.04-187.04zm0 344.08c-86.59 0-157.04-70.45-157.04-157.04s70.45-157.04 157.04-157.04 157.04 70.45 157.04 157.04-70.45 157.04-157.04 157.04z" fill="#fff066"/><path d="m443.039 255.999c0 103.13-83.91 187.04-187.04 187.04v-30c86.59 0 157.04-70.45 157.04-157.04s-70.45-157.04-157.04-157.04v-30c103.13 0 187.04 83.91 187.04 187.04z" fill="#ffc648"/><path d="m378.189 238.599-8.53-26.27-69-10.02-30.85-62.52h-27.62l-30.85 62.52-69 10.02-8.53 26.27 49.92 48.66-11.78 68.72 22.34 16.23 61.71-32.44 61.71 32.44 22.34-16.23-11.78-68.72z" fill="#fff066"/><path d="m328.269 287.259 11.78 68.72-22.34 16.23-61.71-32.44v-199.98h13.81l30.85 62.52 69 10.02 8.53 26.27z" fill="#ffc648"/></g></svg>