<svg clip-rule="evenodd" fill-rule="evenodd" height="1.707in" image-rendering="optimizeQuality" shape-rendering="geometricPrecision" text-rendering="geometricPrecision" viewBox="0 0 1707 1707" width="1.707in" xmlns="http://www.w3.org/2000/svg"><g id="Layer_x0020_1"><g id="_603859016" fill="#a11e30"><path d="m1091 680h-98c-32 0-59-26-59-59s27-59 59-59h98c52 0 93-42 93-94 0-51-41-93-93-93h-39c-24 0-46-15-55-37-9-23-3-48 15-65l99-95h-127c-33 0-60-26-60-59s27-59 60-59h276c25 0 46 14 55 37 10 23 4 48-14 65l-121 114c74 35 123 110 123 192 0 117-95 212-212 212z"/><path d="m748 613c-16 0-32-6-43-18l-138-138-139 138c-11 12-27 18-43 18-17 0-32-6-44-18-11-11-17-27-17-43 0-17 6-32 17-44l139-138-139-138c-24-24-24-63 0-87s64-24 88 0l138 138 138-138c24-24 63-24 87 0s24 63 0 87l-138 138 138 138c11 12 18 27 18 44 0 16-7 32-18 43-12 12-27 18-44 18z"/><path d="m1185 1496h159v-622h-159zm-338 0h159v-622h-159zm-338 0h159v-622h-159zm-330 0h159v-622h-159z"/></g><path d="m159 834h199c11 0 20 9 20 20v662c0 11-9 20-20 20h-199c-11 0-20-9-20-20v-662c0-11 9-20 20-20zm-159 5v693c0 63 52 115 115 115h1343c64 0 116-52 116-115v-68h50c46 0 83-37 83-83v-392c0-45-37-83-83-83h-50v-67c0-64-52-116-116-116h-1343c-63 0-115 52-115 116zm469 677v-662c0-11 9-20 20-20h199c11 0 20 9 20 20v662c0 11-9 20-20 20h-199c-11 0-20-9-20-20zm338 0v-662c0-11 9-20 20-20h199c11 0 20 9 20 20v662c0 11-9 20-20 20h-199c-11 0-20-9-20-20zm338 0v-662c0-11 9-20 20-20h199c11 0 20 9 20 20v662c1 11-9 20-19 20h-200c-11 0-20-9-20-20z" fill="#231f20"/></g></svg>