<svg id="Capa_1" enable-background="new 0 0 512 512" height="512" viewBox="0 0 512 512" width="512" xmlns="http://www.w3.org/2000/svg"><g><g><g><path d="m313.46 420.577h-140.293l-10-102.293 10-108.672h140.293l10 193.235z" fill="#f3f7f8"/><path d="m313.46 209.612v210.965h25.373l10-79.144-10-131.821z" fill="#e6eef2"/><path d="m147.793 420.577h-130.293c-5.523 0-10-4.477-10-10v-190.965c0-5.523 4.477-10 10-10h130.293l10 138.565z" fill="#f3f7f8"/><path d="m484.5 420.577h-145.667v-210.965h145.667c5.523 0 10 4.477 10 10v190.965c0 5.523-4.477 10-10 10z" fill="#f3f7f8"/><path d="m147.793 209.612h25.373v210.965h-25.373z" fill="#e6eef2"/><path d="m494.5 209.612h-25.373c5.523 0 10 4.477 10 10v190.965c0 5.523-4.477 10-10 10h25.373c5.523 0 10-4.477 10-10v-190.965c0-5.523-4.477-10-10-10z" fill="#e6eef2"/><g><g><path d="m77.043 393.282c-2.228 0-4.491-.451-6.662-1.405-8.381-3.684-12.188-13.465-8.504-21.845l43.947-99.973h-39.829c-.523 8.684-7.731 15.565-16.546 15.565-9.155 0-16.576-7.421-16.576-16.576v-15.565c0-9.155 7.421-16.576 16.576-16.576h81.768c5.599 0 10.82 2.827 13.881 7.515 3.06 4.689 3.547 10.605 1.294 15.731l-54.166 123.219c-2.73 6.211-8.808 9.91-15.183 9.91z" fill="#feaee1"/></g></g><g><g><path d="m242.709 393.282c-2.228 0-4.491-.451-6.662-1.405-8.381-3.684-12.188-13.465-8.504-21.845l43.947-99.973h-39.829c-.523 8.684-7.731 15.565-16.545 15.565-9.155 0-16.576-7.421-16.576-16.576v-15.565c0-9.155 7.421-16.576 16.576-16.576h81.768c5.599 0 10.82 2.827 13.881 7.515 3.06 4.689 3.547 10.605 1.294 15.731l-54.166 123.219c-2.73 6.211-8.809 9.91-15.184 9.91z" fill="#feaee1"/></g></g><g><g><path d="m408.376 393.282c-2.228 0-4.491-.451-6.662-1.405-8.381-3.684-12.188-13.465-8.504-21.845l43.947-99.973h-39.829c-.523 8.684-7.731 15.565-16.546 15.565-9.155 0-16.576-7.421-16.576-16.576v-15.565c0-9.155 7.421-16.576 16.576-16.576h81.768c5.599 0 10.82 2.827 13.881 7.515 3.06 4.689 3.547 10.605 1.294 15.731l-54.165 123.219c-2.731 6.211-8.809 9.91-15.184 9.91z" fill="#feaee1"/></g></g><path d="m127.384 168.514-19.886 10.455c-4.031 2.119-8.743-1.304-7.973-5.793l3.798-22.144c.306-1.783-.285-3.601-1.58-4.864l-16.088-15.682c-3.261-3.179-1.462-8.718 3.045-9.373l22.234-3.231c1.79-.26 3.337-1.384 4.137-3.006l9.943-20.147c2.016-4.084 7.839-4.084 9.855 0l9.943 20.147c.8 1.622 2.348 2.746 4.137 3.006l22.234 3.231c4.507.655 6.307 6.194 3.045 9.373l-16.088 15.682c-1.295 1.262-1.886 3.081-1.58 4.864l3.798 22.144c.77 4.489-3.942 7.912-7.973 5.793l-19.886-10.455c-1.602-.842-3.514-.842-5.115 0z" fill="#ffea6e"/><path d="m379.502 168.514-19.886 10.455c-4.031 2.119-8.743-1.304-7.973-5.793l3.798-22.144c.306-1.783-.285-3.601-1.58-4.864l-16.088-15.682c-3.261-3.179-1.462-8.718 3.045-9.373l22.234-3.231c1.79-.26 3.337-1.384 4.137-3.006l9.943-20.147c2.016-4.084 7.839-4.084 9.855 0l9.943 20.147c.8 1.622 2.348 2.746 4.137 3.006l22.234 3.231c4.507.655 6.307 6.194 3.045 9.373l-16.089 15.682c-1.295 1.262-1.886 3.081-1.58 4.864l3.798 22.144c.77 4.489-3.942 7.912-7.973 5.793l-19.886-10.455c-1.601-.842-3.513-.842-5.114 0z" fill="#ffde3b"/><path d="m252.077 132.583-30.512 16.041c-6.185 3.252-13.414-2-12.233-8.888l5.827-33.976c.469-2.735-.438-5.526-2.425-7.463l-24.684-24.06c-5.004-4.878-2.243-13.376 4.673-14.381l34.113-4.957c2.746-.399 5.12-2.124 6.348-4.612l7.816-15.837c3.093-6.266 18.134-18.346 21.227-12.08l15.59 28.918c1.228 2.488 3.602 4.213 6.348 4.612l25.114 3.957c6.915 1.005 9.677 9.503 4.672 14.381l-24.685 24.062c-1.987 1.937-2.894 4.728-2.425 7.463l4.965 22.023c1.181 6.887-13.038 14.706-19.223 11.454l-12.659-6.655c-2.457-1.293-5.391-1.293-7.847-.002z" fill="#ffea6e"/><g><path d="m323.95 74.237c5.004-4.878 2.243-13.376-4.672-14.381l-34.114-4.956c-2.746-.399-5.12-2.124-6.348-4.612l-15.256-30.913c-3.092-6.266-12.028-6.266-15.121 0l-7.439 15.075 7.816 15.838c1.228 2.488 3.602 4.213 6.348 4.612l34.113 4.957c6.915 1.005 9.677 9.503 4.673 14.381l-24.685 24.062c-1.987 1.937-2.894 4.728-2.425 7.463l5.742 33.478 17.853 9.386c6.185 3.252 13.414-2 12.233-8.888l-5.827-33.976c-.469-2.735.438-5.525 2.425-7.463z" fill="#ffde3b"/></g></g></g><g><path d="m296.884 229.406h-81.768c-13.276 0-24.076 10.801-24.076 24.076v15.564c0 13.275 10.8 24.076 24.076 24.076 10.234 0 19.071-6.438 22.525-15.564h22.359l-39.323 89.454c-2.588 5.888-2.729 12.431-.396 18.423 2.333 5.993 6.86 10.719 12.748 13.307 3.08 1.354 6.336 2.04 9.68 2.04 9.551 0 18.207-5.649 22.049-14.392l54.166-123.22c3.284-7.473 2.582-16.015-1.88-22.849-4.461-6.834-11.998-10.915-20.16-10.915zm8.308 27.729-54.166 123.22c-1.449 3.297-4.714 5.428-8.317 5.428-1.252 0-2.478-.26-3.644-.772-2.219-.976-3.926-2.757-4.805-5.016s-.827-4.726.149-6.944l43.947-99.973c1.02-2.319.799-4.997-.586-7.118s-3.747-3.4-6.28-3.4h-39.829c-3.967 0-7.248 3.089-7.486 7.049-.288 4.775-4.267 8.516-9.059 8.516-5.004 0-9.076-4.071-9.076-9.076v-15.564c0-5.005 4.072-9.076 9.076-9.076h81.768c3.077 0 5.918 1.538 7.601 4.115 1.681 2.574 1.946 5.794.707 8.611z"/><path d="m398.696 398.742c3.08 1.354 6.337 2.04 9.68 2.04 9.551 0 18.206-5.649 22.05-14.392l54.164-123.219c3.286-7.473 2.584-16.015-1.879-22.851-4.463-6.835-11.999-10.915-20.16-10.915h-81.769c-13.275 0-24.075 10.801-24.075 24.076v15.564c0 13.275 10.8 24.076 24.075 24.076 10.234 0 19.071-6.438 22.526-15.564h22.359l-39.324 89.455c-5.341 12.155.2 26.388 12.353 31.73zm1.38-25.692 43.947-99.973c1.02-2.319.799-4.997-.586-7.118s-3.747-3.4-6.28-3.4h-39.829c-3.967 0-7.248 3.09-7.486 7.05-.287 4.774-4.267 8.515-9.06 8.515-5.004 0-9.075-4.071-9.075-9.076v-15.564c0-5.005 4.071-9.076 9.075-9.076h81.769c3.076 0 5.918 1.539 7.601 4.115 1.682 2.576 1.946 5.796.707 8.613l-54.165 123.219c-1.449 3.298-4.714 5.429-8.317 5.429-1.252 0-2.479-.26-3.644-.772-4.582-2.016-6.671-7.381-4.657-11.962z"/><path d="m95.752 150.803-3.62 21.105c-.842 4.911 1.139 9.781 5.169 12.71s9.274 3.307 13.686.989l18.954-9.965 18.954 9.965c1.918 1.009 3.994 1.507 6.059 1.507 2.683-.001 5.348-.842 7.626-2.496 4.031-2.929 6.012-7.799 5.169-12.71l-3.62-21.105 15.333-14.946c3.568-3.479 4.828-8.583 3.288-13.322-1.54-4.738-5.56-8.127-10.49-8.843l-21.19-3.079-9.477-19.202c-2.205-4.468-6.67-7.244-11.653-7.244-4.982 0-9.448 2.776-11.653 7.244l-9.477 19.202-21.189 3.079c-4.931.716-8.951 4.104-10.491 8.843s-.28 9.844 3.288 13.322zm16.263-25.498c4.232-.617 7.889-3.275 9.781-7.109l8.145-16.504 8.145 16.503c1.893 3.835 5.549 6.493 9.785 7.11l18.213 2.646-13.18 12.847c-3.062 2.986-4.459 7.286-3.736 11.502l3.111 18.14-16.29-8.563c-1.894-.996-3.971-1.494-6.048-1.494-2.078 0-4.155.498-6.048 1.494l-16.29 8.563 3.111-18.14c.723-4.216-.674-8.516-3.737-11.503l-13.179-12.846z"/><path d="m329.249 122.534c-1.541 4.738-.281 9.843 3.287 13.322l15.334 14.946-3.62 21.105c-.842 4.911 1.14 9.781 5.171 12.71 4.03 2.93 9.275 3.306 13.685.989l18.953-9.965 18.953 9.965c1.919 1.008 3.994 1.507 6.06 1.506 2.683 0 5.349-.841 7.626-2.495 4.031-2.929 6.013-7.799 5.17-12.711l-3.62-21.104 15.333-14.947c3.569-3.478 4.829-8.582 3.289-13.321s-5.56-8.128-10.49-8.844l-21.189-3.079-9.478-19.202c-2.205-4.468-6.671-7.244-11.653-7.244s-9.448 2.776-11.653 7.244l-9.477 19.202-21.188 3.079c-4.933.717-8.953 4.105-10.493 8.844zm34.883 2.771c4.232-.616 7.889-3.274 9.782-7.109l8.145-16.504 8.146 16.505c1.894 3.834 5.55 6.492 9.785 7.108l18.212 2.646-13.178 12.845c-3.063 2.986-4.462 7.286-3.738 11.505l3.111 18.14-16.291-8.565c-1.894-.995-3.97-1.493-6.047-1.493s-4.154.498-6.048 1.494l-16.289 8.563 3.111-18.14c.723-4.216-.675-8.516-3.737-11.503l-13.18-12.846z"/><path d="m207.5 103.67c.219.214.319.521.268.824l-5.828 33.976c-1.032 6.02 1.396 11.99 6.337 15.58 4.941 3.591 11.37 4.057 16.778 1.214l30.514-16.042c.271-.143.594-.142.864.001l30.514 16.041c2.351 1.236 4.896 1.847 7.427 1.847 3.29 0 6.558-1.031 9.351-3.061 4.941-3.591 7.369-9.561 6.336-15.58l-5.826-33.975c-.053-.303.048-.611.268-.825l24.685-24.062c4.374-4.264 5.919-10.521 4.031-16.331s-6.815-9.964-12.861-10.842l-34.114-4.957c-.303-.044-.563-.234-.699-.51l-15.256-30.912c-2.704-5.478-8.178-8.88-14.286-8.88s-11.583 3.402-14.286 8.88l-15.256 30.912c-.136.275-.397.466-.7.51-4.099.595-6.94 4.399-6.345 8.499s4.398 6.943 8.5 6.345c5.19-.753 9.675-4.011 11.997-8.715l15.255-30.912c.077-.155.256-.519.835-.519s.759.363.835.519l15.256 30.911c2.32 4.704 6.806 7.963 11.995 8.716l34.113 4.957c.171.025.573.083.752.634s-.112.834-.236.954l-24.684 24.062c-3.756 3.659-5.469 8.931-4.582 14.102l5.827 33.977c.029.17.098.569-.37.909-.471.342-.828.152-.98.071l-30.512-16.04c-4.643-2.443-10.186-2.442-14.828-.001l-30.511 16.041c-.154.079-.513.268-.981-.071-.468-.34-.399-.739-.37-.91l5.828-33.975c.887-5.17-.826-10.441-4.582-14.103l-24.684-24.061c-.124-.121-.415-.404-.236-.955s.58-.608.751-.634c4.099-.596 6.939-4.401 6.343-8.5-.596-4.101-4.399-6.939-8.5-6.344-6.045.878-10.972 5.033-12.86 10.842-1.888 5.81-.343 12.067 4.031 16.332z"/><path d="m256 457.852c-4.142 0-7.5 3.357-7.5 7.5v31.973c0 4.143 3.358 7.5 7.5 7.5 4.143 0 7.5-3.357 7.5-7.5v-31.973c0-4.143-3.357-7.5-7.5-7.5z"/><path d="m154.135 460.303-20 21.973c-2.788 3.063-2.565 7.807.498 10.596 1.437 1.308 3.245 1.953 5.046 1.953 2.038 0 4.068-.825 5.548-2.451l20-21.973c2.788-3.063 2.565-7.807-.498-10.596-3.061-2.785-7.804-2.566-10.594.498z"/><path d="m357.865 460.303c-2.789-3.063-7.532-3.285-10.596-.498-3.062 2.789-3.286 7.532-.498 10.596l20 21.973c1.48 1.626 3.511 2.451 5.549 2.451 1.802 0 3.609-.646 5.047-1.953 3.062-2.789 3.286-7.532.498-10.596z"/><path d="m151.378 240.321c-4.462-6.835-11.999-10.915-20.161-10.915h-81.768c-13.276 0-24.076 10.801-24.076 24.076v15.564c0 13.275 10.8 24.076 24.076 24.076 10.234 0 19.071-6.438 22.526-15.564h22.359l-9.98 22.704c-1.667 3.792.056 8.218 3.848 9.885s8.218-.056 9.884-3.848l14.604-33.223c1.02-2.319.799-4.997-.585-7.118s-3.747-3.4-6.28-3.4h-39.83c-3.967 0-7.248 3.09-7.486 7.05-.288 4.774-4.267 8.515-9.059 8.515-5.004 0-9.076-4.071-9.076-9.076v-15.564c0-5.005 4.072-9.076 9.076-9.076h81.768c3.077 0 5.918 1.539 7.601 4.115 1.682 2.576 1.946 5.796.708 8.613l-54.167 123.219c-1.449 3.297-4.714 5.428-8.317 5.428-1.252 0-2.478-.26-3.644-.772-2.219-.976-3.925-2.757-4.805-5.016s-.827-4.726.149-6.944l16.188-36.826c1.667-3.792-.056-8.218-3.848-9.885-3.79-1.665-8.217.056-9.884 3.848l-16.188 36.826c-2.588 5.888-2.729 12.431-.396 18.423 2.333 5.993 6.86 10.719 12.748 13.307 3.08 1.354 6.336 2.04 9.68 2.04 9.552 0 18.207-5.649 22.049-14.392l54.166-123.219c3.284-7.473 2.582-16.015-1.88-22.851z"/><path d="m17.5 202.111c-9.649 0-17.5 7.851-17.5 17.5v190.966c0 9.649 7.851 17.5 17.5 17.5h384.968c4.143 0 7.5-3.357 7.5-7.5s-3.357-7.5-7.5-7.5h-56.135v-195.966h148.167c1.379 0 2.5 1.121 2.5 2.5v190.966c0 1.379-1.121 2.5-2.5 2.5h-59.347c-4.143 0-7.5 3.357-7.5 7.5s3.357 7.5 7.5 7.5h59.347c9.649 0 17.5-7.851 17.5-17.5v-190.966c0-9.649-7.851-17.5-17.5-17.5zm-2.5 208.466v-190.966c0-1.379 1.122-2.5 2.5-2.5h148.167v195.966h-148.167c-1.378 0-2.5-1.121-2.5-2.5zm165.667-193.466h150.667v195.966h-150.667z"/></g></g></svg>