<svg id="Capa_1" enable-background="new 0 0 512 512" height="512" viewBox="0 0 512 512" width="512" xmlns="http://www.w3.org/2000/svg"><g><g><g><g><path d="m486.106 448.666h-460.216c-14.299 0-25.89-11.591-25.89-25.89v-333.55c0-14.299 11.591-25.89 25.89-25.89h460.215c14.299 0 25.89 11.591 25.89 25.89v333.55c.001 14.298-11.59 25.89-25.889 25.89z" fill="#fe255f"/><path d="m512 89.229v333.543c0 14.306-11.59 25.896-25.896 25.896h-460.219c-14.295 0-25.885-11.591-25.885-25.897v-40.774c25.919 5.666 52.825 8.651 80.438 8.651 190.923 0 348.51-142.732 371.871-327.316h33.795c14.306 0 25.896 11.591 25.896 25.897z" fill="#e01152"/><path d="m511.996 89.231v333.545c0 14.304-11.586 25.89-25.89 25.89h-286.866c156.352-26.525 275.421-162.617 275.421-326.529 0-20.065-1.786-39.716-5.204-58.797h16.647c14.306 0 25.892 11.586 25.892 25.891z" fill="#c40047"/><g><path d="m310.419 122.419h-175.768c-16.315 0-29.542-13.226-29.542-29.542 0-16.315 13.226-29.542 29.542-29.542h175.768c16.315 0 29.542 13.226 29.542 29.542-.001 16.315-13.227 29.542-29.542 29.542z" fill="#fc709b"/><path d="m203.88 63.335h-30.128c-16.315 0-29.542 13.226-29.542 29.542 0 16.315 13.226 29.542 29.542 29.542h30.128c16.315 0 29.542-13.226 29.542-29.542-.001-16.316-13.227-29.542-29.542-29.542z" fill="#f7a6c1"/></g></g></g><g><g><path d="m219.099 334.374 90.325-57.259c15.486-9.817 15.486-32.413 0-42.23l-90.325-57.259c-16.645-10.552-38.385 1.407-38.385 21.115v114.518c-.001 19.708 21.74 31.666 38.385 21.115z" fill="#f1eee0"/></g></g></g><g><g><g><path d="m93.127 160.301h-45.518c-5.523 0-10-4.477-10-10v-27.462c0-5.523 4.477-10 10-10h45.519c5.523 0 10 4.477 10 10v27.462c-.001 5.523-4.478 10-10.001 10z" fill="#595751"/><path d="m103.131 122.841v27.46c0 5.52-4.48 10-10 10h-38.54c14.72-9.3 24.49-25.72 24.49-44.42 0-1.02-.03-2.04-.09-3.04h14.14c5.52 0 10 4.47 10 10z" fill="#44433f"/></g><g><path d="m93.127 239.882h-45.518c-5.523 0-10-4.477-10-10v-27.462c0-5.523 4.477-10 10-10h45.519c5.523 0 10 4.477 10 10v27.462c-.001 5.523-4.478 10-10.001 10z" fill="#595751"/><path d="m103.131 202.422v27.46c0 5.52-4.48 10-10 10h-38.54c14.72-9.3 24.49-25.72 24.49-44.42 0-1.02-.03-2.04-.09-3.04h14.14c5.52 0 10 4.47 10 10z" fill="#44433f"/></g><g><path d="m93.127 319.463h-45.518c-5.523 0-10-4.477-10-10v-27.463c0-5.523 4.477-10 10-10h45.519c5.523 0 10 4.477 10 10v27.462c-.001 5.523-4.478 10.001-10.001 10.001z" fill="#595751"/><path d="m103.131 282.003v27.46c0 5.52-4.48 10-10 10h-38.54c14.72-9.3 24.49-25.72 24.49-44.42 0-1.02-.03-2.04-.09-3.04h14.14c5.52 0 10 4.47 10 10z" fill="#44433f"/></g><g><path d="m93.127 399.043h-45.518c-5.523 0-10-4.477-10-10v-27.462c0-5.523 4.477-10 10-10h45.519c5.523 0 10 4.477 10 10v27.462c-.001 5.523-4.478 10-10.001 10z" fill="#595751"/><path d="m103.131 361.583v27.46c0 5.52-4.48 10-10 10h-38.54c14.72-9.3 24.49-25.72 24.49-44.42 0-1.02-.03-2.04-.09-3.04h14.14c5.52 0 10 4.47 10 10z" fill="#44433f"/></g></g><g><g><path d="m464.38 160.301h-45.519c-5.523 0-10-4.477-10-10v-27.462c0-5.523 4.477-10 10-10h45.519c5.523 0 10 4.477 10 10v27.462c0 5.523-4.477 10-10 10z" fill="#595751"/><path d="m474.384 122.841v27.46c0 5.52-4.48 10-10 10h-38.54c14.72-9.3 24.49-25.72 24.49-44.42 0-1.02-.03-2.04-.09-3.04h14.14c5.52 0 10 4.47 10 10z" fill="#44433f"/></g><g><path d="m464.38 239.882h-45.519c-5.523 0-10-4.477-10-10v-27.462c0-5.523 4.477-10 10-10h45.519c5.523 0 10 4.477 10 10v27.462c0 5.523-4.477 10-10 10z" fill="#595751"/><path d="m474.384 202.422v27.46c0 5.52-4.48 10-10 10h-38.54c14.72-9.3 24.49-25.72 24.49-44.42 0-1.02-.03-2.04-.09-3.04h14.14c5.52 0 10 4.47 10 10z" fill="#44433f"/></g><g><path d="m464.38 319.463h-45.519c-5.523 0-10-4.477-10-10v-27.463c0-5.523 4.477-10 10-10h45.519c5.523 0 10 4.477 10 10v27.462c0 5.523-4.477 10.001-10 10.001z" fill="#595751"/><path d="m474.384 282.003v27.46c0 5.52-4.48 10-10 10h-38.54c14.72-9.3 24.49-25.72 24.49-44.42 0-1.02-.03-2.04-.09-3.04h14.14c5.52 0 10 4.47 10 10z" fill="#44433f"/></g><g><path d="m464.38 399.043h-45.519c-5.523 0-10-4.477-10-10v-27.462c0-5.523 4.477-10 10-10h45.519c5.523 0 10 4.477 10 10v27.462c0 5.523-4.477 10-10 10z" fill="#595751"/><path d="m474.384 361.583v27.46c0 5.52-4.48 10-10 10h-38.54c14.72-9.3 24.49-25.72 24.49-44.42 0-1.02-.03-2.04-.09-3.04h14.14c5.52 0 10 4.47 10 10z" fill="#44433f"/></g></g></g><g><g><path d="m309.426 277.111-90.33 57.26c-16.64 10.55-38.38-1.4-38.38-21.11v-11.31c49.3-2.09 88.82-41.91 90.45-91.32l38.26 24.25c15.48 9.82 15.48 32.42 0 42.23z" fill="#d8d4c9"/></g></g></g></svg>