<svg height="512" viewBox="0 0 512 512" width="512" xmlns="http://www.w3.org/2000/svg"><g id="Filled_outline" data-name="Filled outline"><path d="m336 272 104 176-56-8-32 48-104-176z" fill="#de5540"/><path d="m176 272-104 176 56-8 32 48 104-176z" fill="#de5540"/><path d="m286.426 65.406a53.913 53.913 0 0 0 34.521 9.25 53.913 53.913 0 0 1 52.7 30.426 53.908 53.908 0 0 0 25.271 25.271 53.913 53.913 0 0 1 30.426 52.7 53.913 53.913 0 0 0 9.25 34.521 53.914 53.914 0 0 1 0 60.852 53.913 53.913 0 0 0 -9.25 34.521 53.913 53.913 0 0 1 -30.426 52.7 53.908 53.908 0 0 0 -25.271 25.271 53.913 53.913 0 0 1 -52.7 30.426 53.913 53.913 0 0 0 -34.521 9.25 53.914 53.914 0 0 1 -60.852 0 53.913 53.913 0 0 0 -34.521-9.25 53.913 53.913 0 0 1 -52.7-30.426 53.908 53.908 0 0 0 -25.271-25.271 53.913 53.913 0 0 1 -30.426-52.7 53.913 53.913 0 0 0 -9.25-34.521 53.914 53.914 0 0 1 0-60.852 53.913 53.913 0 0 0 9.25-34.521 53.913 53.913 0 0 1 30.426-52.7 53.908 53.908 0 0 0 25.271-25.271 53.913 53.913 0 0 1 52.7-30.426 53.913 53.913 0 0 0 34.521-9.25 53.914 53.914 0 0 1 60.852 0z" fill="#ffb431"/><circle cx="256" cy="248" fill="#f99e0c" r="144"/><path d="m160 199.677h72.259v112.323h-72.259z" fill="#426887"/><path d="m288.533 200.242 9.717-30.308a17.642 17.642 0 0 0 -12.521-22.5 17.642 17.642 0 0 0 -20.058 9.226l-9.671 19.34-23.741 24v112h87.741a24 24 0 0 0 24-24v-48l5.956-11.913a19.354 19.354 0 0 0 2.044-8.656 19.356 19.356 0 0 0 -19.43-19.357z" fill="#fdc8a2"/><path d="m196 264a12 12 0 1 0 12 12 12.013 12.013 0 0 0 -12-12z" fill="#2d475c"/><g fill="#fade8d"><path d="m16 248h24v16h-24z"/><path d="m66 31.574h16v84.853h-16z" transform="matrix(.707 -.707 .707 .707 -30.652 74)"/><path d="m16 12.686h16v22.627h-16z" transform="matrix(.707 -.707 .707 .707 -9.941 24)"/><path d="m32 136.243h16v52.313h-16z" transform="matrix(.398 -.918 .918 .398 -124.915 134.531)"/><path d="m13.515 340.8h52.969v16h-52.969z" transform="matrix(.906 -.423 .423 .906 -143.74 49.633)"/><path d="m7.716 468h56.569v16h-56.569z" transform="matrix(.707 -.707 .707 .707 -326.052 164.889)"/><path d="m248 464h16v32h-16z"/><path d="m248 16h16v16h-16z"/><path d="m152 14.341h16.001v40.24h-16.001z" transform="matrix(.918 -.398 .398 .918 -.511 66.459)"/><path d="m472 248h24v16h-24z"/><path d="m395.574 66h84.853v16h-84.853z" transform="matrix(.707 -.707 .707 .707 75.961 331.387)"/><path d="m476.686 16h22.627v16h-22.627z" transform="matrix(.707 -.707 .707 .707 125.975 352.113)"/><path d="m445.844 154.4h52.313v16h-52.313z" transform="matrix(.918 -.398 .398 .918 -25.658 201.058)"/><path d="m464 322.315h16v52.969h-16z" transform="matrix(.423 -.906 .906 .423 -43.678 629.017)"/><path d="m468 447.716h16v56.569h-16z" transform="matrix(.707 -.707 .707 .707 -197.166 476)"/><path d="m331.88 26.461h40.24v16.001h-40.24z" transform="matrix(.398 -.918 .918 .398 180.435 343.746)"/></g><path d="m74.68 183.66a46.089 46.089 0 0 1 -7.878 29.4 61.53 61.53 0 0 0 0 69.881 46.093 46.093 0 0 1 7.878 29.4 61.5 61.5 0 0 0 33.011 59.547l-42.578 72.042a8 8 0 0 0 8.019 11.989l51.009-7.286 29.2 43.805a8 8 0 0 0 6.659 3.562h.218a8 8 0 0 0 6.67-3.927l36.692-62.086a46.048 46.048 0 0 1 17.48 7.213 61.534 61.534 0 0 0 69.88 0 46.038 46.038 0 0 1 17.48-7.216l36.693 62.087a8 8 0 0 0 6.67 3.927h.218a8 8 0 0 0 6.655-3.562l29.2-43.805 51.009 7.286a8 8 0 0 0 8.019-11.989l-37.825-64-13.773 8.14 29.345 49.654-39.5-5.643a8.008 8.008 0 0 0 -7.788 3.481l-24.936 37.4-25.7-43.488a61.48 61.48 0 0 0 54.152-35.1 46.083 46.083 0 0 1 21.522-21.522 61.528 61.528 0 0 0 34.94-60.518 46.089 46.089 0 0 1 7.878-29.4 61.53 61.53 0 0 0 0-69.881 46.093 46.093 0 0 1 -7.878-29.4 61.528 61.528 0 0 0 -34.94-60.518 46.081 46.081 0 0 1 -21.522-21.523 61.528 61.528 0 0 0 -60.519-34.94 46.068 46.068 0 0 1 -29.4-7.878 61.535 61.535 0 0 0 -69.88 0 46.066 46.066 0 0 1 -29.4 7.878 61.54 61.54 0 0 0 -60.518 34.941 46.083 46.083 0 0 1 -21.522 21.522 61.528 61.528 0 0 0 -34.94 60.527zm84.912 289.306-24.936-37.4a8 8 0 0 0 -7.788-3.481l-39.5 5.643 33.7-57.026a45.975 45.975 0 0 1 10.073 13.683 61.456 61.456 0 0 0 54.153 35.1zm-14.027-364.422a45.627 45.627 0 0 1 44.879-25.911 62.153 62.153 0 0 0 39.645-10.623 45.632 45.632 0 0 1 51.822 0 62.133 62.133 0 0 0 39.644 10.623 45.627 45.627 0 0 1 44.88 25.911 62.136 62.136 0 0 0 29.021 29.021 45.632 45.632 0 0 1 25.911 44.88 62.14 62.14 0 0 0 10.622 39.644 45.627 45.627 0 0 1 0 51.823 62.138 62.138 0 0 0 -10.622 39.644 45.632 45.632 0 0 1 -25.911 44.879 62.136 62.136 0 0 0 -29.021 29.021 45.62 45.62 0 0 1 -44.879 25.911 62.156 62.156 0 0 0 -39.645 10.623 45.632 45.632 0 0 1 -51.822 0 62.163 62.163 0 0 0 -34.985-10.8q-2.328 0-4.659.177a45.622 45.622 0 0 1 -44.88-25.911 62.136 62.136 0 0 0 -29.021-29.021 45.632 45.632 0 0 1 -25.911-44.88 62.14 62.14 0 0 0 -10.622-39.644 45.627 45.627 0 0 1 0-51.823 62.138 62.138 0 0 0 10.622-39.644 45.632 45.632 0 0 1 25.911-44.879 62.136 62.136 0 0 0 29.021-29.021zm-41.565 139.456a150.549 150.549 0 0 1 31.677-92.889l12.658 9.786a134.69 134.69 0 0 0 -28.335 83.103c0 74.991 61.01 136 136 136s136-61.009 136-136-61.01-136-136-136a134.845 134.845 0 0 0 -98.223 41.935l-11.554-11.068a150.7 150.7 0 0 1 109.777-46.867c83.813 0 152 68.187 152 152s-68.187 152-152 152-152-68.187-152-152zm199.857-95.92a25.641 25.641 0 0 0 -45.341 1l-9.1 18.2-20.175 20.4h-69.241a8 8 0 0 0 -8 8v112.32a8 8 0 0 0 8 8h120v-16h-39.741v-100.711l21.429-21.663a8.024 8.024 0 0 0 1.467-2.048l9.671-19.342a9.642 9.642 0 0 1 17.806 7.255l-9.717 30.309a8 8 0 0 0 1.164 7.169 8.138 8.138 0 0 0 6.484 3.273l44.037-.168h.045a11.357 11.357 0 0 1 11.355 11.357 11.4 11.4 0 0 1 -1.2 5.078l-5.956 11.913a7.994 7.994 0 0 0 -.844 3.578v48a16.019 16.019 0 0 1 -16 16h-24v16h24a32.036 32.036 0 0 0 32-32v-46.112l5.11-10.221a27.475 27.475 0 0 0 2.89-12.236 27.356 27.356 0 0 0 -27.354-27.357h-.107l-33.026.126 6.355-19.824a25.733 25.733 0 0 0 -2.011-20.296zm-79.598 151.92h-56.259v-96.323h56.259zm-40.259-28a12 12 0 1 1 12 12 12.013 12.013 0 0 1 -12-12zm-168-12v-16h24v16zm82.343-154.343-60-60 11.314-11.314 60 60zm-72-72-16-16 11.314-11.314 16 16zm34.476 142.483-48-20.8 6.362-14.68 48 20.8zm-48.2 172.61 48-22.4 6.766 14.5-48 22.4zm9.04 148.907-11.316-11.314 40-40 11.314 11.314zm242.341-37.657v32h-16v-32zm0-432h-16v-16h16zm-103.341 24.1-16-36.923 14.682-6.362 16 36.923zm335.341 207.9h-24v-16h24zm-82.343-154.343-11.314-11.314 60-60 11.314 11.314zm72-72-11.314-11.314 16-16 11.314 11.314zm13.524 121.683-48 20.8-6.362-14.681 48-20.8zm-47.8 171.011 48 22.4-6.766 14.5-48-22.4zm50.274 159.992-11.314 11.314-40-40 11.314-11.314zm-150.314-434.243-14.682-6.362 16-36.923 14.682 6.362z"/></g></svg>