<svg id="Layer_1" viewBox="0 0 512 512" xmlns="http://www.w3.org/2000/svg" xmlns:xlink="http://www.w3.org/1999/xlink" data-name="Layer 1"><linearGradient id="linear-gradient" gradientUnits="userSpaceOnUse" x1="163.128" x2="334.516" y1="206.747" y2="206.747"><stop offset="0" stop-color="#fff"/><stop offset="1" stop-color="#fff"/></linearGradient><g><path id="_271218640" d="m374.5284 181.0337s13.3183 15.0107 15.3232 39.0693c2.0088 24.0606-53.8779 97.9908-117.0322 167.1582-63.1553 69.1695-86.7139 84.2071-103.0029 84.959-16.2901.7525-29.7764-31.8027-29.7764-31.8027s31.2803-53.6582 43.3096-70.9502c12.0312-17.292 25.0625-69.4175 25.0625-69.4175s-42.6045.502-63.1543-1.0019c-20.5508-1.5044-29.8008-29.1084-26.4288-42.1236 3.3721-13.0127 82.5665-63.6362 82.5665-63.6362l67.4433-4.7725c-.0898-4.5146.3067-9.6264 1.2236-15.2773 6.7647-41.8506-12.5332-35.336 18.5459-60.1465 31.0762-24.811 95.0977-69.0786 95.2383-68.8823 0 0 9.3887 9.8637 10.5176 33.6723 1.1279 23.8086-25.0586 62.0245-67.416 105.8833l-.669.6841 48.2491-3.4136z" fill="#fd7d00" data-name=" 271218640"/><path id="_271218400" d="m280.2041 41.4243s68.4141-2.2563 92.2247-1.5044c23.8066.752 10.5214 22.0523-10.7764 50.1216-21.3067 28.0689-64.9111 88.9673-64.9111 88.9673s36.3437-1.252 65.663-1.7539c29.3233-.5 12.0293 29.8232-56.1337 114.0283-68.167 84.207-135.3301 141.3472-151.8721 148.8638-16.542 7.519-28.0674.0019.5019-63.6548 28.5694-63.6568 50.1231-116.2847 50.1231-116.2847s-52.1289 1.7544-69.6709 1.7544c-17.544 0-22.8067-5.5146-12.5313-26.063 10.2744-20.5522 78.4424-157.3847 89.4688-171.1704 11.0254-13.7832 16.29-21.5522 67.914-23.3042z" fill="#fbcc00" data-name=" 271218400"/></g><path id="_271218184" d="m165.1387 178.0542s41.8916-86.6411 55.5381-105.3667c13.6475-18.7236 44.1133-20.3105 85.6885-22.8501 41.5752-2.5391 33.6416 8.5689-1.2686 18.0898-34.9101 9.523-66.3281 6.6651-77.7539 25.3912-11.4258 18.7236-40.9414 73.312-50.7783 88.228-9.8398 14.9155-17.1397 16.5024-11.4258-3.4922zm47.9229 174.2329s61.2539-88.2261 94.5761-120.2808c33.3243-32.0546 39.667-16.8227-13.6484 53.9522-53.3154 70.7729-97.1143 94.8911-80.9277 66.3286z" fill="url(#linear-gradient)" opacity=".5" data-name=" 271218184"/></svg>