<svg id="OBJECT" height="512" viewBox="0 0 32 32" width="512" xmlns="http://www.w3.org/2000/svg" xmlns:xlink="http://www.w3.org/1999/xlink"><linearGradient id="New_Gradient_Swatch" gradientUnits="userSpaceOnUse" x1=".15" x2="29.43" y1="16" y2="16"><stop offset="0" stop-color="#7738c8"/><stop offset="1" stop-color="#461d93"/></linearGradient><linearGradient id="New_Gradient_Swatch-3" x1=".15" x2="29.43" xlink:href="#New_Gradient_Swatch"/><path d="m16 1a15 15 0 1 0 15 15 15 15 0 0 0 -15-15zm0 28a13 13 0 1 1 13-13 13 13 0 0 1 -13 13z" fill="url(#New_Gradient_Swatch)"/><path d="m16 4.5a11.5 11.5 0 1 0 11.5 11.5 11.51 11.51 0 0 0 -11.5-11.5zm0 21a9.5 9.5 0 1 1 9.5-9.5 9.51 9.51 0 0 1 -9.5 9.5z" fill="url(#New_Gradient_Swatch)"/><path d="m22.9 14.26a2 2 0 0 0 -1.9-1.38h-2.37l-.73-2.25a2 2 0 0 0 -3.8 0l-.73 2.25h-2.37a2 2 0 0 0 -1.17 3.61l1.91 1.39-.74 2.25a2 2 0 0 0 3.07 2.24l1.93-1.37 1.92 1.4a2.06 2.06 0 0 0 1.17.38 2 2 0 0 0 1.18-.39 2 2 0 0 0 .73-2.26l-.73-2.25 1.91-1.39a2 2 0 0 0 .72-2.23zm-4.4 2.43a1 1 0 0 0 -.37 1.12l1 2.94-2.51-1.82a1 1 0 0 0 -1.18 0l-2.5 1.82 1-2.94a1 1 0 0 0 -.37-1.12l-2.57-1.81h3.09a1 1 0 0 0 1-.69l.91-2.95 1 2.95a1 1 0 0 0 1 .69h3z" fill="url(#New_Gradient_Swatch-3)"/></svg>