<svg height="512" viewBox="0 0 152 152" width="512" xmlns="http://www.w3.org/2000/svg" xmlns:xlink="http://www.w3.org/1999/xlink"><linearGradient id="linear-gradient" gradientUnits="userSpaceOnUse" x1="62.86" x2="127.46" y1="62.87" y2="127.46"><stop offset="0" stop-color="#800000"/><stop offset=".97" stop-color="#800000" stop-opacity="0"/></linearGradient><g id="Layer_2" data-name="Layer 2"><g id="_04.youtube" data-name="04.youtube"><circle id="background" cx="76" cy="76" fill="#f20000" r="76"/><path id="shadow" d="m149.88 93.9a76.09 76.09 0 0 1 -56 56l-51.19-51.21c-5.17-47.94 66.7-45.28 66.7-45.28z" fill="url(#linear-gradient)"/><path id="icon" d="m112.22 57.72c-1.52-4.72-6.55-7.51-11.22-8.16a236.82 236.82 0 0 0 -50.08 0c-4.63.65-9.66 3.48-11.18 8.16a94.94 94.94 0 0 0 0 36.57c1.56 4.71 6.59 7.51 11.26 8.16a238.16 238.16 0 0 0 50.08 0c4.63-.65 9.66-3.49 11.18-8.16a94.94 94.94 0 0 0 -.04-36.57zm-45.31 32.84v-29.12l23.71 14.56c-7.99 4.91-15.75 9.69-23.71 14.56z" fill="#fff"/></g></g></svg>