<svg id="Layer_1" viewBox="0 0 512 512" xmlns="http://www.w3.org/2000/svg" data-name="Layer 1"><path d="m411.68 164-29.68-29.71-27.8 27.8-63.44 63.44-34.76 34.72-246.41 246.4 86.41-.87 2-2.15 9.73-10.53 66.18-71.65 13.38-14.45 10-10.8 51.48-55.74a34 34 0 0 1 -16.49-8.87l-4.61-4.48a25.93 25.93 0 0 1 -7.85-18.59 16.49 16.49 0 0 1 16.45-16.52h39.44a16.46 16.46 0 0 1 12.47 5.71l2.53-2.74 23.41-25.34a36.69 36.69 0 0 1 -26-35.07 11.56 11.56 0 0 1 11.53-11.51h29a28.1 28.1 0 0 1 20.4 8.73l37.35-40.46z" fill="#b0c1d1"/><path d="m382 134.29-29.73-29.73-25.47 23.49-23.95 22.12-9 8.36-29.85 27.57h7a4 4 0 0 1 3.2 6.32l-7.83 10.58-7.17 9.76a4 4 0 0 1 -6.4 0l-7.17-9.76-24.34 22.49-.88.82a11.45 11.45 0 0 1 3.45 8.2 36.68 36.68 0 0 1 -26 35.08 36.29 36.29 0 0 1 -10.69 1.59h-15.32l-34.15 31.59-15 13.81-75.94 70.18-36.25 33.5-.88 86.39 246.37-246.4 34.72-34.72 63.44-63.44z" fill="#d2e7f7"/><path d="m342.58 39.19h44.08v93.14h-44.08z" fill="#ffcc29" transform="matrix(.707 -.707 .707 .707 46.15 282.94)"/><path d="m408.44 105.06h44.08v93.14h-44.08z" fill="#f99300" transform="matrix(.707 -.707 .707 .707 18.87 348.81)"/><path d="m492.79 23.46-19.2-19.21-85.08 74.24 24.63 24.63z" fill="#f7a12f"/><path d="m492.79 23.46 19.21 19.2-74.23 85.09-24.63-24.63z" fill="#cc6a11"/><path d="m502.41 506.65-61.47-61.46-75.06-75.06-13.41-13.41-96.47-96.47-34.72-34.72-63.44-63.44-27.84-27.8-29.69 29.71 25.22 27.3 37.35 40.45a28.16 28.16 0 0 1 20.4-8.72h29a11.54 11.54 0 0 1 11.53 11.51 36.67 36.67 0 0 1 -26 35.08l23.46 25.38 2.53 2.74a16.46 16.46 0 0 1 12.47-5.74h39.44a16.49 16.49 0 0 1 16.48 16.48 25.89 25.89 0 0 1 -7.85 18.59l-4.61 4.48a33.83 33.83 0 0 1 -16.49 8.87l51.47 55.74 10.14 11 13.23 14.31 66.18 71.65 9.74 10.51 2 2.15z" fill="#b0c1d1"/><path d="m502.41 506.65-.88-86.39-36.26-33.5-75.7-69.93-15.2-14.05-34.15-31.55h-15.37a36.65 36.65 0 0 1 -36.66-36.66 11.48 11.48 0 0 1 3.44-8.2l-.88-.82-24.34-22.55-7.16 9.76a4 4 0 0 1 -6.41 0l-7.16-9.76-7.79-10.62a4 4 0 0 1 3.2-6.32h7l-29.83-27.54-9.05-8.36-23.95-22.12-25.43-23.49-29.75 29.75 27.81 27.81 63.44 63.44 34.67 34.7 96.48 96.49 13.41 13.4 75.11 75.06z" fill="#d2e7f7"/><path d="m100.82 63.73h93.14v44.08h-93.14z" fill="#ffcc29" transform="matrix(.707 -.707 .707 .707 -17.48 129.34)"/><path d="m34.96 129.59h93.14v44.08h-93.14z" fill="#f99300" transform="matrix(.707 -.707 .707 .707 -83.34 102.06)"/><path d="m19.21 23.46 19.2-19.21 85.08 74.24-24.63 24.63z" fill="#f7a12f"/><path d="m19.21 23.46-19.21 19.2 74.23 85.09 24.63-24.63z" fill="#cc6a11"/><path d="m256 103.88v403.87l-152.21-135.71-23.81-232.12z" fill="#cc6a11"/><path d="m432.02 139.92-23.82 232.12-152.2 135.71v-49.38l125.88-101.6 19.7-182.38-145.58-41.61v-28.9z" fill="#8e3306"/><path d="m256 90.09v389.78l-152.21-121.62-23.81-218.33z" fill="#ffcc29"/><path d="m401.58 160.6-13.1 121.19h-132.48v-162.81z" fill="#8e3306"/><path d="m388.48 281.79-6.6 61.19-125.88 101.6v-162.79z" fill="#cc6a11"/><path d="m256 281.79v162.79l-125.88-101.6-6.62-61.19z" fill="#f7a12f"/><path d="m256 118.98v162.81h-132.5l-13.09-121.19z" fill="#cc6a11"/><path d="m432.02 139.92-23.82 218.33-152.2 121.62v-35.29l125.88-101.6 19.7-182.38-145.58-41.62v-28.89z" fill="#f99300"/><path d="m111.73 172.77 144.27-41.61v-12.18l-145.59 41.62z" fill="#8e3306"/><path d="m400.26 172.77-144.26-41.61v-12.18l145.58 41.62z" fill="#cc6a11"/><path d="m287.32 256.35-29.55-42.79a2.15 2.15 0 0 0 -3.54 0l-29.55 42.79a2.16 2.16 0 0 1 -2.65.74l-41.94-18.63a2.15 2.15 0 0 0 -2.94 2.56l24.32 83.29a2.16 2.16 0 0 0 2.07 1.54h104.93a2.17 2.17 0 0 0 2.07-1.54l24.32-83.31a2.15 2.15 0 0 0 -2.94-2.56l-41.92 18.65a2.19 2.19 0 0 1 -2.68-.74z" fill="#ffc952"/></svg>