<svg id="Capa_1" enable-background="new 0 0 512 512" height="512" viewBox="0 0 512 512" width="512" xmlns="http://www.w3.org/2000/svg"><g><g><path d="m256 182c-24.814 0-45-20.186-45-45s20.186-45 45-45 45 20.186 45 45-20.186 45-45 45zm0-60c-8.262 0-15 6.724-15 15s6.738 15 15 15 15-6.724 15-15-6.738-15-15-15z" fill="#fabe2c"/></g><path d="m271 137c0 8.276-6.738 15-15 15v30c24.814 0 45-20.186 45-45s-20.186-45-45-45v30c8.262 0 15 6.724 15 15z" fill="#ff9100"/><g><path d="m256 512c-4.57 0-8.877-2.065-11.719-5.625l-39.873-49.849-63.398 7.061c-4.6.425-9.023-1.084-12.275-4.307-3.223-3.223-4.805-7.734-4.307-12.261l7.031-63.442-49.835-39.858c-3.544-2.857-5.624-7.163-5.624-11.719s2.08-8.862 5.624-11.719l49.835-39.858-7.031-63.442c-.498-4.526 1.084-9.038 4.307-12.261 3.252-3.223 7.676-4.746 12.275-4.307l63.398 7.046 39.873-49.834c5.684-7.119 17.754-7.119 23.438 0l39.873 49.834 63.398-7.046c4.541-.454 9.023 1.084 12.275 4.307 3.223 3.223 4.805 7.734 4.307 12.261l-7.031 63.442 49.834 39.858c3.545 2.857 5.625 7.163 5.625 11.719s-2.08 8.862-5.625 11.719l-49.834 39.858 7.031 63.442c.498 4.526-1.084 9.038-4.307 12.261-3.252 3.223-7.734 4.746-12.275 4.307l-63.398-7.061-39.873 49.849c-2.842 3.56-7.149 5.625-11.719 5.625z" fill="#fed843"/></g><path d="m267.719 506.375 39.873-49.849 63.398 7.061c4.541.439 9.023-1.084 12.275-4.307 3.223-3.223 4.805-7.734 4.307-12.261l-7.031-63.442 49.834-39.858c3.545-2.857 5.625-7.163 5.625-11.719s-2.08-8.862-5.625-11.719l-49.834-39.858 7.031-63.442c.498-4.526-1.084-9.038-4.307-12.261-3.252-3.223-7.734-4.761-12.275-4.307l-63.398 7.046-39.873-49.834c-2.842-3.56-7.28-5.339-11.719-5.339v359.714c4.57 0 8.877-2.065 11.719-5.625z" fill="#fabe2c"/><path d="m376 0h-45l-15 30-15-30h-90l-15 30-15-30h-45c-8.401 0-15 6.599-15 15v92c0 8.399 6.599 15 15 15h45l15-30 15 30h90l15-30 15 30h45c8.401 0 15-6.601 15-15v-92c0-8.401-6.599-15-15-15z" fill="#ff6c6c"/><path d="m376 0h-45l-15 30-15-30h-45v122h45l15-30 15 30h45c8.401 0 15-6.601 15-15v-92c0-8.401-6.599-15-15-15z" fill="#e63950"/><g id="Medal_1_"><g><path d="m279.936 387.796-23.936-12.437-23.936 12.437c-5.01 2.593-11.133 2.153-15.732-1.172-4.6-3.34-6.914-8.994-5.977-14.59l4.395-26.646c-7.901-11.037-27.781-19.454-22.939-34.263 1.758-5.391 6.416-9.346 12.041-10.195l26.66-4.014 12.07-24.126c5.098-10.166 21.738-10.166 26.836 0l12.07 24.126 26.66 4.014c5.625.85 10.283 4.805 12.041 10.195 1.758 5.405.322 11.338-3.75 15.322l-19.189 18.94 4.395 26.646c.938 5.596-1.377 11.25-5.977 14.59-4.569 3.312-10.681 3.801-15.732 1.173z" fill="#fabe2c"/></g><g><path d="m181 0h30v122h-30z" fill="#f0f7ff"/></g><g><path d="m301 0h30v122h-30z" fill="#dfe7f4"/></g></g><path d="m279.936 387.796c5.052 2.628 11.164 2.139 15.732-1.172 4.6-3.34 6.914-8.994 5.977-14.59l-4.395-26.646 19.189-18.94c4.072-3.984 5.508-9.917 3.75-15.322-1.758-5.391-6.416-9.346-12.041-10.195l-26.66-4.014-12.07-24.126c-2.549-5.083-7.983-7.625-13.418-7.625v110.193z" fill="#ff9100"/></g></svg>