<svg id="Capa_1" enable-background="new 0 0 512 512" height="512" viewBox="0 0 512 512" width="512" xmlns="http://www.w3.org/2000/svg"><g><g><path d="m44.5 186h423c8.688 0 16.622 3.28 22.639 8.661-30.86-99.997-124.011-172.661-234.139-172.661s-203.279 72.664-234.139 172.661c6.017-5.381 13.951-8.661 22.639-8.661z" fill="#01d0fb"/></g><path d="m378.126 106h-48.012c-10.94 30.255-40.028 51.947-74.114 51.947s-63.174-21.692-74.114-51.947h-48.012c-26.44 0-47.874 21.434-47.874 47.874v32.126h340v-32.126c0-26.44-21.434-47.874-47.874-47.874z" fill="#fd4755"/><path d="m378.126 106h-46.938c-.196.552-.399 1.1-.607 1.646 20.399 5.484 35.419 24.098 35.419 46.228v32.126h60v-32.126c0-26.44-21.434-47.874-47.874-47.874z" fill="#fb2b3a"/><path d="m74.013 431c44.841 49.727 109.756 81 181.987 81s137.146-31.273 181.987-81z" fill="#fb2b3a"/><g><g><g><circle cx="166" cy="458.307" fill="#fff" r="16.307"/><path d="m166 442c-1.933 0-3.779.354-5.5.971 6.296 2.259 10.807 8.263 10.807 15.336s-4.512 13.077-10.807 15.336c1.721.617 3.567.971 5.5.971 9.006 0 16.307-7.301 16.307-16.307s-7.301-16.307-16.307-16.307z" fill="#f9f7f8"/></g></g><g><g><circle cx="226" cy="458.307" fill="#fff" r="16.307"/><path d="m226 442c-1.933 0-3.779.354-5.5.971 6.296 2.259 10.807 8.263 10.807 15.336s-4.512 13.077-10.807 15.336c1.721.617 3.567.971 5.5.971 9.006 0 16.307-7.301 16.307-16.307s-7.301-16.307-16.307-16.307z" fill="#f9f7f8"/></g></g><g><g><circle cx="286" cy="458.307" fill="#fff" r="16.307"/><path d="m286 442c-1.933 0-3.779.354-5.5.971 6.296 2.259 10.807 8.263 10.807 15.336s-4.512 13.077-10.807 15.336c1.721.617 3.567.971 5.5.971 9.006 0 16.307-7.301 16.307-16.307s-7.301-16.307-16.307-16.307z" fill="#f9f7f8"/></g></g><g><g><circle cx="346" cy="458.307" fill="#fff" r="16.307"/><path d="m346 442c-1.933 0-3.779.354-5.5.971 6.296 2.259 10.807 8.263 10.807 15.336s-4.512 13.077-10.807 15.336c1.721.617 3.567.971 5.5.971 9.006 0 16.307-7.301 16.307-16.307s-7.301-16.307-16.307-16.307z" fill="#f9f7f8"/></g></g></g><g><path d="m467.5 432h-423c-19.33 0-35-15.67-35-35v-177c0-19.33 15.67-35 35-35h423c19.33 0 35 15.67 35 35v177c0 19.33-15.67 35-35 35z" fill="#fe646f"/><path d="m467.5 185h-70.5c19.33 0 35 15.67 35 35v2.185h2.244c16.71 0 30.256 13.546 30.256 30.256v112.117c0 16.71-13.546 30.256-30.256 30.256h-2.244v2.186c0 19.33-15.67 35-35 35h70.5c19.33 0 35-15.67 35-35v-177c0-19.33-15.67-35-35-35z" fill="#fd4755"/><path d="m434.244 222.185h-78.488c-16.71 0-30.256 13.546-30.256 30.256 0-16.71-13.546-30.256-30.256-30.256h-78.488c-16.71 0-30.256 13.546-30.256 30.256 0-16.71-13.546-30.256-30.256-30.256h-78.488c-16.71 0-30.256 13.546-30.256 30.256v112.117c0 16.71 13.546 30.256 30.256 30.256h78.488c16.71 0 30.256-13.546 30.256-30.256 0 16.71 13.546 30.256 30.256 30.256h78.488c16.71 0 30.256-13.546 30.256-30.256 0 16.71 13.546 30.256 30.256 30.256h78.488c16.71 0 30.256-13.546 30.256-30.256v-112.117c0-16.709-13.546-30.256-30.256-30.256z" fill="#fee97d"/><path d="m295.244 222.185h-40.5c14.963 0 27.381 10.864 29.815 25.133h10.16c.637 0 1.231.321 1.579.854l13.667 20.905c.365.558.408 1.266.114 1.865l-25.079 51.027v42.589c0 16.71-13.546 30.256-30.256 30.256h40.5c16.71 0 30.256-13.546 30.256-30.256v-112.117c0-16.709-13.546-30.256-30.256-30.256z" fill="#fedf30"/><g><path d="m156.244 222.185h-40.5c14.963 0 27.381 10.864 29.815 25.133h10.16c.637 0 1.231.321 1.579.854l13.667 20.905c.365.558.408 1.266.114 1.865l-25.079 51.027v42.589c0 16.71-13.546 30.256-30.256 30.256h40.5c16.71 0 30.256-13.546 30.256-30.256v-112.117c0-16.709-13.546-30.256-30.256-30.256z" fill="#fedf30"/><path d="m155.72 247.319h-62.247c-1.042 0-1.887-.845-1.887-1.887 0-1.042-.845-1.887-1.887-1.887h-18.327c-1.042 0-1.887.845-1.887 1.887v49.053c0 1.042.845 1.887 1.887 1.887h16.84c.742 0 1.414-.434 1.719-1.11l6.544-14.49c.305-.676.978-1.11 1.719-1.11h30.764c1.401 0 2.313 1.472 1.689 2.726l-43.907 88.34c-.623 1.254.289 2.726 1.689 2.726h31.089c.719 0 1.376-.409 1.693-1.054l49.866-101.458c.294-.598.251-1.307-.114-1.865l-13.667-20.905c-.346-.532-.939-.853-1.576-.853z" fill="#fe646f"/></g><g><path d="m294.72 247.319h-62.247c-1.042 0-1.887-.845-1.887-1.887 0-1.042-.845-1.887-1.887-1.887h-18.328c-1.042 0-1.887.845-1.887 1.887v49.053c0 1.042.845 1.887 1.887 1.887h16.84c.742 0 1.414-.434 1.719-1.11l6.544-14.49c.305-.676.978-1.11 1.719-1.11h30.764c1.401 0 2.313 1.472 1.689 2.726l-43.907 88.34c-.623 1.254.289 2.726 1.689 2.726h31.089c.719 0 1.376-.409 1.693-1.054l49.866-101.458c.294-.598.251-1.307-.114-1.865l-13.667-20.905c-.345-.532-.938-.853-1.575-.853z" fill="#fe646f"/></g><g><path d="m434.244 222.185h-40.5c14.963 0 27.381 10.864 29.815 25.133h10.16c.637 0 1.231.321 1.579.854l13.667 20.905c.365.558.408 1.266.114 1.865l-25.079 51.027v42.589c0 16.71-13.546 30.256-30.256 30.256h40.5c16.71 0 30.256-13.546 30.256-30.256v-112.117c0-16.709-13.546-30.256-30.256-30.256z" fill="#fedf30"/><g><path d="m433.72 247.319h-62.247c-1.042 0-1.887-.845-1.887-1.887 0-1.042-.845-1.887-1.887-1.887h-18.328c-1.042 0-1.887.845-1.887 1.887v49.053c0 1.042.845 1.887 1.887 1.887h16.84c.742 0 1.414-.434 1.719-1.11l6.544-14.49c.305-.676.978-1.11 1.719-1.11h30.764c1.401 0 2.313 1.472 1.689 2.726l-43.907 88.34c-.623 1.254.289 2.726 1.689 2.726h31.089c.719 0 1.376-.409 1.693-1.054l49.866-101.458c.294-.598.251-1.307-.114-1.865l-13.667-20.905c-.345-.532-.938-.853-1.575-.853z" fill="#fe646f"/></g><g><path d="m448.966 269.078-13.667-20.905c-.348-.533-.942-.854-1.579-.854h-20.486c.637 0 1.231.321 1.579.854l13.667 20.905c.365.558.408 1.266.114 1.865l-49.866 101.457c-.317.646-.974 1.054-1.693 1.054h20.486c.719 0 1.376-.409 1.693-1.054l49.866-101.458c.294-.598.25-1.306-.114-1.864z" fill="#fd4755"/></g><g><path d="m309.966 269.078-13.667-20.905c-.348-.533-.942-.854-1.579-.854h-20.486c.637 0 1.231.321 1.579.854l13.667 20.905c.365.558.408 1.266.114 1.865l-49.866 101.457c-.317.646-.974 1.054-1.693 1.054h20.486c.719 0 1.376-.409 1.693-1.054l49.866-101.458c.294-.598.25-1.306-.114-1.864z" fill="#fd4755"/></g><g><path d="m170.966 269.078-13.667-20.905c-.348-.533-.942-.854-1.579-.854h-20.486c.637 0 1.231.321 1.579.854l13.667 20.905c.365.558.408 1.266.114 1.865l-49.866 101.457c-.317.646-.974 1.054-1.693 1.054h20.486c.719 0 1.376-.409 1.693-1.054l49.866-101.458c.294-.598.25-1.306-.114-1.864z" fill="#fd4755"/></g></g></g><g><g><ellipse cx="256" cy="79.474" fill="#fedf30" rx="79.755" ry="79.474"/></g><g><ellipse cx="256" cy="79.474" fill="#fed402" rx="57.167" ry="56.964"/></g><g><path d="m256 22.509c-5.128 0-10.095.683-14.824 1.945 24.384 6.508 42.343 28.67 42.343 55.019 0 26.35-17.96 48.511-42.343 55.019 4.729 1.262 9.695 1.945 14.824 1.945 31.572 0 57.167-25.504 57.167-56.964 0-31.459-25.595-56.964-57.167-56.964z" fill="#fac600"/></g><path d="m266.308 70.114h-20.616c-2.217 0-4.021-1.786-4.021-3.98v-2.418c0-2.193 1.804-3.978 4.021-3.978h30.807c1.657 0 3-1.343 3-3v-9c0-1.657-1.343-3-3-3h-12.999v-10.295c0-1.657-1.343-3-3-3h-9c-1.657 0-3 1.343-3 3v10.294h-2.809c-10.488 0-19.021 8.513-19.021 18.978v2.418c0 10.187 8.09 18.542 18.192 18.98h21.445c2.217 0 4.021 1.786 4.021 3.98v2.417c0 2.194-1.804 3.98-4.021 3.98h-33c-1.657 0-3 1.343-3 3v9c0 1.657 1.343 3 3 3h15.193v10.896c0 1.657 1.343 3 3 3h9c1.657 0 3-1.343 3-3v-10.896h2.808c10.488 0 19.021-8.514 19.021-18.98v-2.417c0-10.465-8.533-18.979-19.021-18.979z" fill="#fee97d"/></g><g><g><g><circle cx="76.769" cy="187.693" fill="#fff" r="16.307"/><path d="m76.769 171.385c-1.933 0-3.779.354-5.5.971 6.296 2.259 10.807 8.263 10.807 15.336s-4.512 13.077-10.807 15.336c1.721.617 3.567.971 5.5.971 9.006 0 16.307-7.301 16.307-16.307s-7.301-16.307-16.307-16.307z" fill="#f9f7f8"/></g></g><g><g><circle cx="148.461" cy="187.693" fill="#fff" r="16.307"/><path d="m148.461 171.385c-1.933 0-3.779.354-5.5.971 6.296 2.259 10.807 8.263 10.807 15.336s-4.512 13.077-10.807 15.336c1.721.617 3.567.971 5.5.971 9.006 0 16.307-7.301 16.307-16.307s-7.3-16.307-16.307-16.307z" fill="#f9f7f8"/></g></g><g><g><circle cx="220.154" cy="187.693" fill="#fff" r="16.307"/><path d="m220.154 171.385c-1.933 0-3.779.354-5.5.971 6.296 2.259 10.807 8.263 10.807 15.336s-4.512 13.077-10.807 15.336c1.721.617 3.567.971 5.5.971 9.006 0 16.307-7.301 16.307-16.307s-7.301-16.307-16.307-16.307z" fill="#f9f7f8"/></g></g><g><g><circle cx="291.846" cy="187.693" fill="#fff" r="16.307"/><path d="m291.846 171.385c-1.933 0-3.779.354-5.5.971 6.296 2.259 10.807 8.263 10.807 15.336s-4.512 13.077-10.807 15.336c1.721.617 3.567.971 5.5.971 9.006 0 16.307-7.301 16.307-16.307s-7.3-16.307-16.307-16.307z" fill="#f9f7f8"/></g></g><g><g><circle cx="363.539" cy="187.693" fill="#fff" r="16.307"/><path d="m363.539 171.385c-1.933 0-3.779.354-5.5.971 6.296 2.259 10.807 8.263 10.807 15.336s-4.512 13.077-10.807 15.336c1.721.617 3.567.971 5.5.971 9.006 0 16.307-7.301 16.307-16.307s-7.301-16.307-16.307-16.307z" fill="#f9f7f8"/></g></g><g><g><circle cx="435.231" cy="187.693" fill="#fff" r="16.307"/><path d="m435.231 171.385c-1.933 0-3.779.354-5.5.971 6.296 2.259 10.807 8.263 10.807 15.336s-4.512 13.077-10.807 15.336c1.721.617 3.567.971 5.5.971 9.006 0 16.307-7.301 16.307-16.307s-7.3-16.307-16.307-16.307z" fill="#f9f7f8"/></g></g></g></g></svg>