<svg id="Capa_1" enable-background="new 0 0 512 512" height="512" viewBox="0 0 512 512" width="512" xmlns="http://www.w3.org/2000/svg"><g><g><circle cx="256" cy="267" fill="#ffb332" r="245"/></g><g><circle cx="256" cy="312" fill="#ffdd40" r="180"/></g><g><g><path d="m386 0h-260c-44.183 0-80 35.817-80 80v191.169c0 44.183 35.817 80 80 80h42.559c13.765 0 26.563 7.078 33.88 18.737l19.681 31.358c15.679 24.982 52.081 24.982 67.76 0l19.681-31.358c7.317-11.659 20.115-18.737 33.88-18.737h42.559c44.183 0 80-35.817 80-80v-191.169c0-44.183-35.817-80-80-80z" fill="#ff4155"/></g><g><path d="m206.404 271.169v-191.169c0-44.183 35.817-80 80-80h-159.882c-44.183 0-80 35.817-80 80v191.169c0 44.183 35.817 80 80 80h42.559c13.765 0 26.563 7.078 33.88 18.737l19.681 31.358c15.679 24.982 52.081 24.982 67.76 0l19.681-31.358c7.317-11.659 20.115-18.737 33.88-18.737h-57.559c-44.183 0-80-35.818-80-80z" fill="#e80054"/></g></g><g><g><g><g><path d="m379.605 255.584c-11.046 0-20-8.954-20-20v-100h-9.1c-11.046 0-20-8.954-20-20s8.954-20 20-20h29.1c11.046 0 20 8.954 20 20v120c0 11.046-8.954 20-20 20z" fill="#fff"/></g></g></g><g><path d="m379.605 215.584c-11.046 0-20-8.954-20-20v40c0 11.046 8.954 20 20 20s20-8.954 20-20v-40c0 11.046-8.954 20-20 20z" fill="#e9efff"/></g><g><g><g><path d="m272.57 100.072c-36.54-16.24-66.12 16.82-66.12 16.82s-29.58-33.06-66.12-16.82-36.54 70.18-4.06 106.14c22.476 24.884 47.452 40.048 60.705 47.028 5.935 3.126 13.014 3.126 18.95 0 13.253-6.98 38.229-22.143 60.705-47.028 32.48-35.96 32.48-89.9-4.06-106.14z" fill="#fff"/></g></g><g><path d="m206.45 116.892s-29.58-33.06-66.12-16.82-36.54 70.18-4.06 106.14c22.476 24.884 47.453 40.048 60.705 47.028 5.935 3.126 13.014 3.126 18.949 0 2.651-1.396 5.777-3.126 9.253-5.189-47.486-34.268-42.566-109.016-18.727-131.159z" fill="#e9efff"/></g></g></g></g></svg>