<svg id="Layer_2_00000068635029502023956510000000150619669149793700_" enable-background="new 0 0 512 512" viewBox="0 0 512 512" xmlns="http://www.w3.org/2000/svg" xmlns:xlink="http://www.w3.org/1999/xlink"><linearGradient id="SVGID_1_" gradientTransform="matrix(1 0 0 -1 0 513.64)" gradientUnits="userSpaceOnUse" x1="256" x2="256" y1="202.63" y2="140.17"><stop offset="0" stop-color="#de3909"/><stop offset=".8" stop-color="#fd8533"/></linearGradient><linearGradient id="SVGID_00000021095198031037521070000014880224311308185222_" gradientTransform="matrix(1 0 0 -1 0 513.64)" gradientUnits="userSpaceOnUse" x1="256.005" x2="256.005" y1="87.32" y2="140.17"><stop offset="0" stop-color="#994311"/><stop offset="1" stop-color="#cc6c35"/></linearGradient><linearGradient id="SVGID_00000022532695379330626170000003628749148908684724_" gradientTransform="matrix(1 0 0 -1 0 513.64)" gradientUnits="userSpaceOnUse" x1="256" x2="256" y1="34.47" y2="87.32"><stop offset="0" stop-color="#ff7100"/><stop offset="1" stop-color="#fca543"/></linearGradient><linearGradient id="lg1"><stop offset="0" stop-color="#da2f09"/><stop offset=".18" stop-color="#e04110"/><stop offset=".54" stop-color="#f07123"/><stop offset=".8" stop-color="#fd9833"/></linearGradient><linearGradient id="SVGID_00000115492063576569659840000015456311237455252926_" gradientTransform="matrix(1 0 0 -1 0 513.64)" gradientUnits="userSpaceOnUse" x1="269.112" x2="482.378" xlink:href="#lg1" y1="290.02" y2="319.99"/><linearGradient id="SVGID_00000014628813974422561100000015814467013669467051_" gradientTransform="matrix(-1 0 0 -1 461.78 513.64)" gradientUnits="userSpaceOnUse" x1="218.902" x2="432.167" xlink:href="#lg1" y1="290.03" y2="320"/><linearGradient id="SVGID_00000176019038313797778760000007668080268428495493_" gradientTransform="matrix(1 0 0 -1 0 513.64)" gradientUnits="userSpaceOnUse" x1="256" x2="256" y1="418.35" y2="175.72"><stop offset="0" stop-color="#ff6300"/><stop offset=".09" stop-color="#ff7100"/><stop offset=".29" stop-color="#f80"/><stop offset=".49" stop-color="#f90"/><stop offset=".72" stop-color="#ffa300"/><stop offset="1" stop-color="#ffa700"/></linearGradient><linearGradient id="SVGID_00000058576399627231412600000005805415926762157484_" gradientTransform="matrix(1 0 0 -1 0 513.64)" gradientUnits="userSpaceOnUse" x1="256" x2="256" y1="418.36" y2="480.82"><stop offset="0" stop-color="#ff8100"/><stop offset="1" stop-color="#ffc13d"/></linearGradient><linearGradient id="SVGID_00000177484175537822668850000009744918753747146126_" gradientTransform="matrix(1 0 0 -1 0 513.64)" gradientUnits="userSpaceOnUse" x1="255.995" x2="255.995" y1="248.99" y2="383.53"><stop offset="0" stop-color="#ffc68f"/><stop offset="1" stop-color="#fff8e0"/></linearGradient><linearGradient id="SVGID_00000060734709910848603970000014202971441728675259_" gradientTransform="matrix(1 0 0 -1 0 513.64)" gradientUnits="userSpaceOnUse" x1="256.001" x2="256.001" y1="270.57" y2="361.95"><stop offset="0" stop-color="#fd6800"/><stop offset=".71" stop-color="#fd8f30"/></linearGradient><g id="Icon"><g id="_13"><g><path d="m195.9 383.5c-3.2 0-6.2-1.5-8-4.1s-2.4-5.9-1.5-8.9l19.2-62.5c1.3-4.2 5.2-7.1 9.6-7.1h81.7c4.4 0 8.3 2.9 9.6 7.1l19.2 62.5c.9 3 .4 6.3-1.5 8.9s-4.9 4.1-8 4.1z"/><path d="m316.1 373.5h-120.2l19.3-62.5h81.6z" fill="url(#SVGID_1_)"/><path d="m376.5 392.7v33.6c0 5.5-4.5 10-10 10h-221c-5.5 0-10-4.5-10-10v-33.6c0-16.1 13.1-29.2 29.2-29.2h182.6c16.1 0 29.2 13.1 29.2 29.2z"/><path d="m164.7 373.5h182.6c10.6 0 19.2 8.6 19.2 19.2v33.6h-221v-33.6c0-10.6 8.6-19.2 19.2-19.2z" fill="url(#SVGID_00000021095198031037521070000014880224311308185222_)"/><path d="m133.5 489.2c-20.1 0-36.4-16.3-36.4-36.4s16.3-36.4 36.4-36.4h245c20.1 0 36.4 16.3 36.4 36.4s-16.3 36.4-36.4 36.4z"/><path d="m133.5 426.3h245c14.6 0 26.4 11.8 26.4 26.4 0 14.6-11.8 26.4-26.4 26.4h-245c-14.6 0-26.4-11.8-26.4-26.4 0-14.5 11.8-26.4 26.4-26.4z" fill="url(#SVGID_00000022532695379330626170000003628749148908684724_)"/></g><g><path d="m335.4 321c-20.2 0-38-7.1-51.4-20.6-18.4-18.4-24.8-44.8-17.8-74.1 6.3-26.7 23.3-54.9 47.8-79.4 32.1-32.1 69.4-50.6 102.1-50.6 20.2 0 38 7.1 51.4 20.6 18.4 18.4 24.8 44.8 17.8 74.1-6.3 26.7-23.3 54.9-47.8 79.4-32.1 32.2-69.3 50.6-102.1 50.6zm79.8-151.8c-8.5.4-27.5 6.9-49.7 29.2-14.7 14.6-25.3 31.3-28.4 44.6-.5 2.2-.7 3.9-.8 5.1 8.5-.4 27.5-6.9 49.7-29.2 14.6-14.6 25.3-31.3 28.4-44.6.6-2.3.8-3.9.8-5.1z"/><path d="m416.1 159.1c4.8 0 6.1 1.3 7 2.2 1 1 1.5 1.9 1.8 3.4.4 1.7.8 5.5-.7 11.9-3.6 15.2-14.9 33.2-31.1 49.4-23.7 23.7-45.9 32.1-57.7 32.1-4.8 0-6.1-1.3-7-2.2-1-1-1.5-1.9-1.8-3.4-.4-1.7-.8-5.5.7-11.9 3.6-15.2 14.9-33.2 31.1-49.4 23.7-23.6 45.9-32.1 57.7-32.1m0-52.8c-30.1 0-65.1 17.7-95.1 47.6-46.8 46.8-63.6 105.8-30 139.4 12.1 12.1 27.5 17.6 44.3 17.6 30.1 0 65.1-17.7 95.1-47.6 46.8-46.8 63.6-105.8 30-139.4-12-12-27.4-17.6-44.3-17.6z" fill="url(#SVGID_00000115492063576569659840000015456311237455252926_)"/><path d="m176.6 321c-32.8 0-70-18.4-102.1-50.6-24.6-24.5-41.5-52.7-47.8-79.4-6.9-29.4-.6-55.7 17.8-74.1 13.5-13.5 31.2-20.6 51.4-20.6 32.8 0 70 18.4 102.1 50.6 24.5 24.5 41.5 52.7 47.8 79.4 6.9 29.4.6 55.7-17.8 74.1-13.4 13.5-31.2 20.6-51.4 20.6zm-79.8-151.8c.1 1.2.3 2.9.8 5.1 3.1 13.3 13.8 30 28.4 44.6 22.3 22.3 41.3 28.8 49.7 29.2-.1-1.2-.3-2.9-.8-5.1-3.1-13.3-13.8-30-28.4-44.6-22.2-22.3-41.3-28.8-49.7-29.2z"/><path d="m95.9 159.1c11.8 0 34 8.4 57.7 32.1 16.1 16.1 27.5 34.2 31.1 49.4 1.5 6.4 1.1 10.2.7 11.9-.3 1.5-.8 2.4-1.8 3.4-.9.9-2.2 2.2-7 2.2-11.8 0-34-8.4-57.7-32.1-16.2-16.1-27.5-34.2-31.1-49.4-1.5-6.4-1.1-10.2-.7-11.9.3-1.5.8-2.4 1.8-3.4.9-.8 2.2-2.2 7-2.2m0-52.8c-16.9 0-32.3 5.6-44.3 17.7-33.6 33.6-16.8 92.6 30 139.4 30 30 64.9 47.6 95.1 47.6 16.9 0 32.3-5.6 44.3-17.6 33.6-33.6 16.8-92.6-30-139.4-30-30-65-47.7-95.1-47.7z" fill="url(#SVGID_00000014628813974422561100000015814467013669467051_)"/></g><g><path d="m256 347.9c-64.9 0-117.8-52.8-117.8-117.8v-25.7c0-22-3.6-43-10.8-62.2-5.6-15-8.4-30.8-8.4-47 0-5.5 4.5-10 10-10h253.9c2.7 0 5.2 1.1 7.1 2.9 1.9 1.9 2.9 4.4 2.9 7.1 0 16.2-2.8 31.9-8.4 47-7.2 19.3-10.8 40.2-10.8 62.2v25.7c0 65-52.8 117.8-117.7 117.8z"/><path d="m148.3 230.2v-25.7c0-22.4-3.6-44.7-11.4-65.7-5-13.5-7.8-28.2-7.8-43.5h253.9c0 15.3-2.8 29.9-7.8 43.5-7.8 21-11.4 43.3-11.4 65.7v25.7c0 59.5-48.2 107.8-107.7 107.8-59.6-.1-107.9-48.3-107.8-107.8z" fill="url(#SVGID_00000176019038313797778760000007668080268428495493_)"/></g><path d="m128.7 105.3c-22.7 0-41.2-18.5-41.2-41.2s18.5-41.2 41.2-41.2h254.7c22.7 0 41.2 18.5 41.2 41.2s-18.5 41.2-41.2 41.2z"/><path d="m128.7 32.8h254.6c17.2 0 31.2 14 31.2 31.2 0 17.2-14 31.2-31.2 31.2h-254.6c-17.2 0-31.2-14-31.2-31.2-.1-17.2 13.9-31.2 31.2-31.2z" fill="url(#SVGID_00000058576399627231412600000005805415926762157484_)"/><g><circle cx="256" cy="197.4" r="77.3"/><circle cx="256" cy="197.4" fill="url(#SVGID_00000177484175537822668850000009744918753747146126_)" r="67.3"/><path d="m255.5 253.1c-7.1 0-13.8-1.3-19.9-3.8-6.6-2.7-11.9-6.8-15.9-12.2-4.2-5.7-6.3-12.6-6.1-20.5 0-.5.1-.9.1-1.4l.1-.4c.8-4.8 5-8.4 9.9-8.4h11.3c-.1-.7-.2-1.4-.2-2.1v-15.8c0-.7.1-1.3.2-2h-9.8c-4.3 0-8.1-2.8-9.5-6.8l-.1-.4c-.3-.9-.5-1.9-.5-2.8-.2-7.1 1.6-13.4 5.4-18.9 3.6-5.2 8.7-9.3 15-12.1 5.9-2.6 12.6-3.9 19.9-3.9 11.7 0 21.4 2.9 29 8.6 8.3 6.3 12.7 15.4 12.7 26.5 0 6.6-1.8 12.4-5.5 17.3-.4.6-.9 1.1-1.3 1.7.7.7 1.3 1.4 1.9 2.2 4.2 5.3 6.3 11.7 6.3 18.9s-2.1 14.2-6.2 19.9c-3.9 5.4-9.2 9.6-15.8 12.4-6.3 2.6-13.3 3.9-21 4zm-.8-36.4c.1 0 .3.1.9.1 1 0 1.3-.2 1.3-.2s.1-.2.1-.8c0-.7-.1-.8-.3-1s-.6-.4-2.3-.4c.1.7.2 1.4.2 2.1 0 .1 0 .1.1.2-.1-.1-.1 0 0 0z"/><path d="m255.5 243.1c-5.8 0-11.2-1-16.1-3s-8.8-5-11.7-8.9-4.3-8.7-4.1-14.3l.1-.4h20.9c0 1.9.4 3.6 1.3 5.1.9 1.6 2.2 2.8 3.8 3.8 1.6.9 3.6 1.4 5.8 1.4 3.5 0 6.3-1 8.3-3.1 2.1-2 3.1-4.7 3.1-7.9s-1.1-6.1-3.4-8.2c-2.2-2.1-5.5-3.2-9.8-3.2h-9.1v-15.8h9.7c2.4 0 4.4-.4 6.1-1.3 1.6-.9 2.9-2.1 3.8-3.7s1.3-3.4 1.3-5.5c0-2.9-.9-5.4-2.6-7.3s-4.2-2.9-7.4-2.9c-1.8 0-3.5.4-4.9 1.1s-2.6 1.7-3.4 3-1.2 2.8-1.2 4.5h-20.8l-.1-.4c-.2-4.9 1.1-9.2 3.6-12.9s6.2-6.6 10.8-8.6 9.9-3.1 15.8-3.1c9.5 0 17.2 2.2 23 6.6s8.7 10.5 8.7 18.5c0 4.4-1.2 8.2-3.5 11.4-2.3 3.1-5.8 5.9-10.5 8.1 4.7 1.8 8.4 4.4 11.2 7.9s4.2 7.8 4.2 12.7c0 5.4-1.4 10.1-4.3 14-2.8 3.9-6.7 6.9-11.7 9.1-4.9 2.2-10.5 3.3-16.9 3.3z" fill="url(#SVGID_00000060734709910848603970000014202971441728675259_)"/></g></g></g></svg>