<svg id="Layer_1" enable-background="new 0 0 66 66" height="512" viewBox="0 0 66 66" width="512" xmlns="http://www.w3.org/2000/svg" xmlns:xlink="http://www.w3.org/1999/xlink"><linearGradient id="SVGID_1_" gradientUnits="userSpaceOnUse" x1="33" x2="33" y1="1.343" y2="64.956"><stop offset=".00000021135" stop-color="#19dfa1"/><stop offset="1" stop-color="#04b1bf"/></linearGradient><linearGradient id="lg1"><stop offset=".00000010825" stop-color="#fecc2b"/><stop offset="1" stop-color="#fc9a13"/></linearGradient><linearGradient id="SVGID_2_" gradientUnits="userSpaceOnUse" x1="33" x2="33" xlink:href="#lg1" y1="18.246" y2="56.602"/><linearGradient id="SVGID_3_" gradientUnits="userSpaceOnUse" x1="33.002" x2="33.002" xlink:href="#lg1" y1="56.646" y2="15.656"/><linearGradient id="lg2"><stop offset="0" stop-color="#0bd3e3"/><stop offset="1" stop-color="#017ccc"/></linearGradient><linearGradient id="SVGID_4_" gradientUnits="userSpaceOnUse" x1="33" x2="33" xlink:href="#lg2" y1="28.232" y2="36.189"/><linearGradient id="SVGID_5_" gradientUnits="userSpaceOnUse" x1="33" x2="33" xlink:href="#lg2" y1="36.53" y2="48.244"/><linearGradient id="SVGID_6_" gradientUnits="userSpaceOnUse" x1="33" x2="33" xlink:href="#lg2" y1="32.974" y2="23.998"/><linearGradient id="SVGID_7_" gradientUnits="userSpaceOnUse" x1="33" x2="33" xlink:href="#lg2" y1="44.897" y2="36.164"/><g><circle cx="33" cy="33" fill="url(#SVGID_1_)" r="32"/><circle cx="33" cy="33" fill="#073c5c" r="27.2"/><path d="m41.4 29h-12.8l-11.6-23.7c2.4-1.4 5-2.5 7.7-3.2 1.1-.3 2.2-.5 3.3-.7z" opacity=".1"/><path d="m37.8 29h-12.9l-10.6-22c.9-.6 1.8-1.2 2.8-1.8 2.4-1.4 5-2.5 7.7-3.2z" opacity=".1"/><g><path d="m39.5 29h-4.3c-.5-1-2.3-4.7-2.2-4.5l-2.1-4.4-8.4-17.3c.7-.3 1.5-.5 2.3-.7.5-.1 1-.3 1.5-.4l5.7 11.9 1 2 2.2 4.4c0 .2 4.5 9.5 4.3 9z" fill="#8cc3ea"/><path d="m35.2 29h-4.3c-.5-1-2.3-4.7-2.2-4.5l-9.8-20.2c1.1-.6 2.3-1.1 3.6-1.5l8.4 17.3 2.1 4.4c0 .1 2.3 4.8 2.2 4.5z" fill="#edf1f4"/><path d="m30.9 29h-4.3c-16.9-34.9-8.7-18-11.1-22.8.5-.3 1-.6 1.5-.9.6-.4 1.2-.7 1.8-1 .1.1 12.1 24.8 12.1 24.7z" fill="#f7324d"/></g><path d="m51.7 7-10.6 22h-12.9l13.1-26.9c3.8 1 7.3 2.7 10.4 4.9z" opacity=".1"/><path d="m38.5 26.9-1 2.1h-12.9c0-.1 3.4-6.9 3.2-6.5 0-.1 4.6-9.4 4.3-8.8z" opacity=".1"/><g><path d="m43.5 2.8-8.4 17.3-2.1 4.4c0 .1-2.3 4.8-2.2 4.5h-4.3c.5-1 2.3-4.7 2.2-4.5l2.1-4.4 2.1-4.4 6.8-13.9c.5.1 1 .2 1.5.4.8.1 1.6.3 2.3.6z" fill="#8cc3ea"/><path d="m47.1 4.3c0 .1-12 24.8-12 24.7h-4.3c.5-1 2.3-4.7 2.2-4.5l2.2-4.4 8.4-17.3c1.2.4 2.4.9 3.5 1.5z" fill="#edf1f4"/><path d="m50.5 6.2c-2.4 4.8 5.8-12.1-11.1 22.8h-4.3c.5-1 2.3-4.7 2.2-4.5l9.8-20.2c1.2.5 2.3 1.2 3.4 1.9z" fill="#f7324d"/></g><path d="m48.8 36.3 1.8-10.2-9.7-3.5-7.9-6.7-7.9 6.7-9.7 3.5 1.8 10.2-1.8 10.2 9.7 3.5 7.9 6.6 7.9-6.6 9.7-3.5z" fill="url(#SVGID_2_)"/><path d="m50.6 46.2c-5-2.5-11.5-6.1-16.5-9 2.2 3.9 4.9 8.8 6.8 12.8-2.3-3.4-5.3-8.3-7.4-11.8 0 5.8-.2 13.2-.5 18.5-.3-5.3-.5-13.3-.5-18.5-2.1 3.6-5.1 8.5-7.4 11.9 1.1-2.4 2.4-4.7 3.6-7 1-1.9 2.1-3.8 3.2-5.7-4.9 2.8-11.4 6.4-16.5 9 4.4-2.9 10.8-6.8 15.3-9.4-1.9 0-3.7 0-5.6-.1-2.6-.1-5.3-.2-7.9-.4 2.6-.2 5.3-.3 7.9-.4 2.2-.1 4.3-.1 6.5-.1-4.2-2.4-12.2-7.2-16.3-10 4 2 11.3 6 16.1 8.7-2.6-4.5-5.5-10.1-6.3-11.9 1.7 2.4 5.3 8.2 7.4 11.9 0-2.9 0-5.7.1-8.6 0-1.3.2-7.1.4-10.2.2 3.6.3 9.2.4 10.2.1 2.9.1 5.7.1 8.5 1.9-3.1 5.3-8.9 7.4-11.8-.7 1.6-3.4 6.7-6.3 11.9 4.1-2.3 11.8-6.6 16.1-8.7-3.8 2.6-11.8 7.3-16.3 10 6.4 0 12.3.3 14.4.5-3.2.3-9.9.5-13.5.5 4.9 2.6 11.3 6.5 15.3 9.2z" fill="url(#SVGID_3_)"/><g><path d="m22.5 36.3 10.5-12.3 10.5 12.3z" fill="url(#SVGID_4_)"/><path d="m43.5 36.3-10.5 12.2-10.5-12.2z" fill="url(#SVGID_5_)"/><path d="m29.3 36.3 3.7-12.3 3.7 12.3z" fill="url(#SVGID_6_)"/><path d="m36.7 36.3-3.7 12.2-3.7-12.2z" fill="url(#SVGID_7_)"/></g></g></svg>