<svg id="Capa_1" enable-background="new 0 0 512 512" viewBox="0 0 512 512" xmlns="http://www.w3.org/2000/svg"><g><g><g><path d="m123.235 261.524c64.185-.446 117.125 51.885 117.389 116.07.073 17.621-3.767 34.336-10.698 49.331-1.38 2.986-1.683 6.355-.832 9.533l14.787 55.186c1.306 4.875-3.155 9.337-8.03 8.03l-56.558-15.155c-3.051-.817-6.282-.574-9.183.675-14.855 6.395-31.305 9.792-48.589 9.424-63.363-1.347-114.413-53.896-114.018-117.274.396-63.76 51.984-115.377 115.732-115.82z" fill="#ffa4d1"/></g><g><path d="m243.883 491.645-14.787-55.187c-.852-3.178-.549-6.547.832-9.533 6.93-14.995 10.77-31.71 10.698-49.331-.177-43.096-24.102-80.846-59.232-100.867 17.514 21.675 28.009 49.257 28.009 79.294 0 69.736-56.532 126.269-126.268 126.269-4.156 0-8.263-.207-12.317-.599 15.262 7.906 32.472 12.541 50.706 12.929 17.284.368 33.734-3.029 48.589-9.424 2.901-1.249 6.133-1.492 9.183-.675l56.558 15.155c4.874 1.306 9.335-3.155 8.029-8.031z" fill="#ff7bba"/></g><g><path d="m127.04 38.407c51.751-.36 94.436 41.833 94.648 93.585.058 14.207-3.038 27.685-8.625 39.775-1.113 2.408-1.357 5.124-.67 7.686l11.923 44.496c1.053 3.931-2.544 7.528-6.475 6.475l-45.601-12.219c-2.46-.659-5.065-.463-7.404.544-11.977 5.156-25.241 7.895-39.176 7.598-51.09-1.087-92.25-43.457-91.932-94.557.319-51.408 41.913-93.026 93.312-93.383z" fill="#00d1fd"/></g><g><path d="m224.315 223.949-11.923-44.496c-.686-2.562-.442-5.278.671-7.686 5.588-12.09 8.684-25.567 8.625-39.775-.153-37.303-22.376-69.638-54.153-84.651 16.447 17.871 26.494 41.723 26.494 67.925 0 55.416-44.923 100.339-100.339 100.339-3.566 0-7.087-.189-10.557-.552 12.707 6.905 27.167 10.967 42.526 11.294 13.936.296 27.199-2.442 39.176-7.599 2.339-1.007 4.945-1.203 7.404-.544l45.601 12.219c3.931 1.053 7.528-2.543 6.475-6.474z" fill="#00c1fc"/></g><g><path d="m354.538 12.09c-47.051-.327-85.859 38.034-86.052 85.086-.053 12.917 2.762 25.17 7.842 36.162 1.012 2.189 1.234 4.659.61 6.988l-10.84 40.454c-.958 3.574 2.313 6.844 5.887 5.887l41.46-11.109c2.236-.599 4.605-.421 6.732.495 10.89 4.688 22.949 7.178 35.618 6.908 46.45-.989 83.872-39.51 83.583-85.969-.292-46.739-38.109-84.577-84.84-84.902z" fill="#00d8a2"/></g><g><path d="m406.583 30.236c6.205 11.837 9.72 25.305 9.723 39.597.008 46.722-36.913 84.471-83.625 85.443-8.488.177-16.701-.885-24.472-3.016-11.069-3.036-22.745-3.073-33.832-.102l-.657.176-7.623 28.448c-.958 3.574 2.313 6.844 5.887 5.887l41.46-11.109c2.236-.599 4.605-.421 6.732.495 10.889 4.688 22.946 7.178 35.615 6.908 46.668-.991 83.552-38.682 83.588-85.36.02-27.357-12.815-51.714-32.796-67.367z" fill="#00c4a4"/></g><g><path d="m97.822 358.018s9.184 0 19.965-17.569c4.388-7.15 7.651-12.515 9.978-16.363 2.559-4.231 8.25-5.247 12.12-2.169l2.764 2.199c4.727 3.76 7.481 9.47 7.481 15.51v10.942c0 3.012 2.442 5.454 5.454 5.454h20.999c11.567 0 19.928 11.058 16.776 22.187l-9.689 34.207c-2.126 7.504-8.976 12.684-16.776 12.684h-69.072z" fill="#f7ebeb"/></g><g><path d="m88.352 433.649h-17.387c-5.23 0-9.47-4.24-9.47-9.47v-68.993c0-5.23 4.24-9.47 9.47-9.47h17.388c5.23 0 9.47 4.24 9.47 9.47v68.993c-.001 5.231-4.241 9.47-9.471 9.47z" fill="#00a8ff"/></g><g><path d="m176.583 356.022h-13.567c5.074 4.466 7.658 11.873 5.673 19.312l-9.689 36.305c-2.126 7.965-8.976 13.462-16.776 13.462h24.67c7.799 0 14.65-5.18 16.776-12.684l9.689-34.207c3.152-11.13-5.208-22.188-16.776-22.188z" fill="#f2e1e1"/></g><g><path d="m150.634 97.197c-8.904 0-16.855 4.07-22.102 10.449-.752.914-2.146.914-2.898 0-5.247-6.379-13.198-10.449-22.102-10.449-15.803 0-28.613 12.811-28.613 28.613 0 15.808 13.161 24.928 24.75 33.137 8.205 5.813 16.626 11.341 25.168 16.651 1.37.852 3.102.853 4.476.007 8.398-5.172 37.767-23.589 43.399-31.59 3.692-5.245 6.537-11.289 6.537-18.205-.001-15.802-12.812-28.613-28.615-28.613z" fill="#ff7bba"/></g><g><path d="m393.841 214.503c-61.37-.427-111.989 49.609-112.241 110.98-.069 16.848 3.602 32.831 10.229 47.168 1.32 2.855 1.609 6.077.795 9.115l-14.139 52.766c-1.249 4.662 3.017 8.927 7.678 7.678l54.077-14.49c2.917-.782 6.007-.549 8.78.645 14.204 6.115 29.933 9.363 46.458 9.011 60.586-1.29 109.397-51.534 109.02-112.133-.379-60.963-49.705-110.316-110.657-110.74z" fill="#ffd250"/></g><g><path d="m461.724 238.171c8.093 15.439 12.679 33.007 12.682 51.647.01 60.942-48.146 110.178-109.075 111.446-11.071.231-21.784-1.154-31.92-3.934-14.438-3.96-29.667-4.008-44.128-.133l-.857.23-9.943 37.105c-1.249 4.661 3.017 8.927 7.678 7.678l54.077-14.49c2.917-.782 6.007-.549 8.78.645 14.203 6.114 29.93 9.362 46.454 9.011 60.87-1.293 108.979-50.454 109.026-111.338.03-35.68-16.712-67.449-42.774-87.867z" fill="#ffc433"/></g><g><path d="m436.834 350.59c.905-10.822-.921-21.694-3.944-31.803-7.09-23.708-24.094-43.481-46.876-53.391-.036-.016-.072-.031-.108-.047-2.895-1.256-5.599 2.058-3.835 4.674 14.989 22.238 6.045 48.263-7.065 49.873-8.012.984-10.734-5.112-11.546-10.914-.403-2.883-4.205-3.686-5.777-1.236-15.975 24.911-11.369 47.929-11.369 47.929 2.924 22.387 22.069 36.182 45.254 36.182 17.351 0 32.558-6.733 40.194-22.215 2.945-5.972 4.519-12.437 5.072-19.052z" fill="#ff7bba"/></g></g><g><path d="m236.34 434.518c-.393-1.466-.252-3.044.395-4.445 7.634-16.514 11.466-34.181 11.391-52.508-.136-33.042-13.253-64.138-36.937-87.56-23.691-23.432-54.979-36.191-88.005-35.98-32.817.229-63.671 13.143-86.876 36.365-23.208 23.222-36.101 54.087-36.306 86.908-.419 67.393 54.023 123.387 121.361 124.821 17.96.375 35.362-2.995 51.715-10.034 1.353-.582 2.872-.696 4.275-.319l56.558 15.155c1.232.33 2.475.492 3.702.492 3.661 0 7.185-1.439 9.876-4.13 3.594-3.594 4.953-8.669 3.638-13.577zm-55.104 42.758c-1.812-.485-3.677-.726-5.541-.726-2.921 0-5.841.59-8.549 1.756-14.366 6.185-29.639 9.158-45.465 8.814-59.191-1.26-107.048-50.485-106.679-109.73.179-28.852 11.514-55.984 31.915-76.399 20.4-20.414 47.522-31.767 76.37-31.968.258-.002.513-.003.77-.003 28.76 0 55.931 11.222 76.584 31.647 20.829 20.6 32.365 47.93 32.484 76.957.066 16.117-3.301 31.646-10.007 46.154-2.116 4.58-2.566 9.772-1.267 14.62l14.364 53.608z"/><path d="m315.384 182.803c.599-.161 1.247-.11 1.826.139 12.254 5.274 25.306 7.805 38.743 7.518 50.449-1.074 91.236-43.024 90.924-93.514-.153-24.589-9.812-47.712-27.199-65.111-17.386-17.399-40.501-27.074-65.088-27.245-.219-.001-.438-.002-.656-.002-24.526 0-47.686 9.557-65.276 26.954-17.742 17.547-27.569 40.845-27.672 65.603-.056 13.731 2.815 26.967 8.535 39.34.278.603.34 1.277.173 1.9l-10.84 40.454c-1.135 4.233.085 8.788 3.184 11.887 2.334 2.334 5.493 3.603 8.719 3.603 1.059 0 2.124-.137 3.17-.417zm-32.248-52.612c-4.792-10.367-7.197-21.464-7.15-32.985.086-20.743 8.332-40.275 23.22-54.999 14.763-14.6 34.179-22.62 54.731-22.62.182 0 .367 0 .55.002 20.617.143 40.001 8.257 54.581 22.847 14.581 14.59 22.682 33.981 22.81 54.601.263 42.343-33.939 77.524-76.242 78.424-11.314.242-22.228-1.879-32.494-6.299-3.663-1.577-7.795-1.879-11.639-.851l-36.952 9.902 9.632-35.948c1.072-4.004.701-8.292-1.047-12.074z"/><path d="m125.5 233.846c14.688.306 28.925-2.449 42.301-8.208.791-.34 1.677-.408 2.497-.188l45.602 12.219c1.121.3 2.251.447 3.367.447 3.33 0 6.535-1.309 8.983-3.756 3.269-3.269 4.506-7.885 3.31-12.352l-11.923-44.496c-.229-.854-.146-1.776.235-2.599 6.243-13.512 9.378-27.963 9.316-42.952-.111-27.03-10.841-52.467-30.213-71.625-19.208-18.997-44.491-29.431-71.271-29.431-.237 0-.479.001-.717.002-13.979.097-27.505 2.987-40.204 8.589-3.79 1.672-5.506 6.099-3.834 9.889 1.671 3.79 6.1 5.508 9.889 3.834 10.812-4.77 22.337-7.23 34.253-7.312 22.999-.186 44.812 8.751 61.336 25.094 16.518 16.336 25.666 38.007 25.761 61.022.053 12.779-2.616 25.092-7.933 36.597-1.85 4-2.243 8.538-1.107 12.775l10.931 40.792-41.897-11.226c-4.061-1.089-8.434-.77-12.312.899-11.39 4.904-23.503 7.247-36.051 6.989-46.936-.999-84.884-40.033-84.591-87.013.142-22.877 9.129-44.392 25.307-60.581 2.928-2.93 2.926-7.679-.004-10.606-2.93-2.928-7.679-2.928-10.606.004-18.983 18.996-29.529 44.243-29.696 71.09-.345 55.127 44.188 100.93 99.271 102.103z"/><path d="m176.583 348.522h-18.953v-8.896c0-8.374-3.758-16.166-10.312-21.38l-2.764-2.198c-3.532-2.811-8.105-3.966-12.548-3.169-4.439.796-8.324 3.466-10.657 7.324-2.322 3.839-5.577 9.19-9.954 16.322-3.111 5.07-5.941 8.312-8.239 10.388-2.908-5.182-8.449-8.697-14.803-8.697h-17.388c-9.357 0-16.97 7.613-16.97 16.97v68.993c0 9.357 7.613 16.97 16.97 16.97h17.388c6.291 0 11.782-3.449 14.712-8.548h63.83c11.102 0 20.967-7.46 23.991-18.141l9.689-34.207c2.149-7.586.654-15.545-4.102-21.834s-12.005-9.897-19.89-9.897zm-88.23 77.627h-17.388c-1.086 0-1.97-.884-1.97-1.97v-68.993c0-1.086.884-1.97 1.97-1.97h17.388c1.086 0 1.97.884 1.97 1.97v68.993c-.001 1.087-.885 1.97-1.97 1.97zm97.791-49.984-9.689 34.208c-1.205 4.256-5.137 7.228-9.56 7.228h-61.572v-54.105c5.001-2.415 11.836-7.682 18.857-19.124 4.398-7.167 7.669-12.546 10.004-16.405.04-.066.162-.268.47-.323.313-.057.5.093.563.144l2.764 2.198c2.955 2.351 4.649 5.865 4.649 9.641v10.942c0 7.143 5.812 12.954 12.954 12.954h20.999c3.142 0 6.031 1.438 7.926 3.944 1.894 2.505 2.49 5.676 1.635 8.698z"/><path d="m94.895 164.758.438.31c7.928 5.616 16.283 11.144 25.544 16.901 1.91 1.187 4.055 1.781 6.2 1.781 2.131 0 4.263-.586 6.168-1.758 17.643-10.867 39.875-25.528 45.598-33.659 5.319-7.557 7.905-14.924 7.905-22.522 0-19.913-16.201-36.113-36.114-36.113-8.741 0-17.048 3.127-23.551 8.737-6.503-5.609-14.81-8.737-23.552-8.737-19.913 0-36.113 16.2-36.113 36.113 0 19.488 15.236 30.278 27.477 38.947zm8.636-60.061c6.333 0 12.278 2.812 16.311 7.713 1.788 2.174 4.428 3.421 7.241 3.421s5.453-1.247 7.241-3.421c4.032-4.902 9.978-7.713 16.31-7.713 11.643 0 21.114 9.471 21.114 21.113 0 4.402-1.691 8.945-5.171 13.888-2.999 4.26-18.767 15.615-39.49 28.465-8.324-5.213-15.893-10.242-23.084-15.336l-.438-.311c-10.875-7.701-21.146-14.976-21.146-26.707-.001-11.641 9.471-21.112 21.112-21.112z"/><path d="m316.267 100.977c3.573 9.039 17.713 3.18 13.85-5.741-3.574-9.042-17.734-3.179-13.85 5.741z"/><path d="m356.457 105.607c9.713.134 9.723-15.141-.001-15-9.739-.145-9.728 15.141.001 15z"/><path d="m385.547 104.337c8.007 5.532 16.503-7.197 8.329-12.47-7.997-5.512-16.49 7.19-8.329 12.47z"/><path d="m477.189 241.87c-22.25-22.265-51.832-34.647-83.297-34.866-.28-.002-.561-.003-.84-.003-31.387 0-61.024 12.232-83.539 34.5-22.707 22.457-35.284 52.272-35.414 83.953-.072 17.571 3.602 34.509 10.92 50.345.587 1.271.715 2.7.359 4.028l-14.139 52.766c-1.289 4.808.044 9.78 3.563 13.3 2.637 2.636 6.087 4.045 9.674 4.045 1.201 0 2.419-.158 3.626-.481l54.078-14.49c1.268-.341 2.646-.239 3.873.29 15.679 6.75 32.377 9.98 49.583 9.621 37.12-.79 71.126-18.559 93.299-48.75 2.452-3.338 1.733-8.033-1.605-10.484-3.341-2.453-8.033-1.733-10.484 1.605-19.392 26.403-49.106 41.942-81.527 42.632-15.071.324-29.641-2.506-43.333-8.401-4.312-1.856-9.172-2.21-13.688-1.001l-52.019 13.938 13.587-50.706c1.263-4.709.825-9.753-1.23-14.203-6.392-13.83-9.601-28.63-9.537-43.991.113-27.666 11.109-53.715 30.962-73.349 19.687-19.473 45.582-30.168 72.995-30.168.243 0 .489.001.733.003 27.495.191 53.347 11.012 72.79 30.469 19.445 19.459 30.248 45.319 30.419 72.818.056 8.841-1.019 17.642-3.192 26.159-1.023 4.014 1.399 8.097 5.413 9.122 4.011 1.025 8.097-1.399 9.122-5.413 2.49-9.759 3.721-19.839 3.657-29.961-.195-31.468-12.558-61.061-34.809-83.327z"/><path d="m374.092 312.453c-1.359.166-2.529.31-3.204-4.509-.622-4.445-3.862-7.939-8.255-8.901-4.405-.966-8.829.862-11.263 4.655-16.609 25.899-13.017 50.061-12.467 53.151 3.374 25.039 24.999 42.508 52.664 42.508 21.861 0 38.525-9.375 46.921-26.397 3.196-6.48 5.154-13.796 5.819-21.744.886-10.59-.538-22.223-4.232-34.577-7.844-26.23-26.458-47.414-51.085-58.126l-.099-.043c-4.375-1.899-9.357-.712-12.401 2.95-3.061 3.681-3.317 8.823-.639 12.796 8.296 12.309 7.468 24.951 4.237 32.038-1.603 3.514-3.956 5.948-5.996 6.199zm19.645.022c3.662-8.034 5.398-20.639.92-33.861 14.747 9.82 25.779 24.707 31.047 42.322 3.155 10.549 4.385 20.316 3.656 29.029-.508 6.067-1.963 11.571-4.325 16.359-7.351 14.904-22.257 18.033-33.468 18.033-20.303 0-35.501-11.917-37.817-29.653-.019-.141-.048-.322-.074-.461-.138-.727-2.85-15.92 5.816-34.317 3.157 4.996 8.457 8.395 16.428 7.415 7.432-.913 13.926-6.331 17.817-14.866z"/></g></g><g/><g/><g/><g/><g/><g/><g/><g/><g/><g/><g/><g/><g/><g/><g/></svg>