<svg id="Layer_1" enable-background="new 0 0 120 120" height="512" viewBox="0 0 120 120" width="512" xmlns="http://www.w3.org/2000/svg"><g><path d="m98.5 17h-77c-6.8 0-12.4 5.5-12.4 12.4v47.2c0 6.8 5.5 12.4 12.4 12.4h27.7l7.5 12.9c.8 1.4 2.9 1.4 3.7 0l7.5-12.9h30.6c6.8 0 12.4-5.5 12.4-12.4v-47.2c0-6.9-5.5-12.4-12.4-12.4z" fill="#e85b6c"/><g fill="#fff"><g><path d="m49.9 46.6h4.5v18.3h4v-21.6h-8.5z"/><path d="m76.4 44.3c-1.4-.9-2.9-1.3-4.7-1.3-1.7 0-3.2.4-4.6 1.3s-2.4 2.1-3.2 3.8-1.2 3.7-1.2 6c0 2.4.4 4.4 1.2 6 .8 1.7 1.9 2.9 3.2 3.8 1.4.9 2.9 1.3 4.6 1.3s3.3-.4 4.6-1.3c1.4-.9 2.4-2.1 3.2-3.8s1.2-3.7 1.2-6c0-2.4-.4-4.4-1.2-6s-1.8-3-3.1-3.8zm-.3 14.1c-.4 1.1-1 2-1.7 2.5s-1.6.8-2.6.8-1.8-.3-2.6-.8-1.3-1.4-1.8-2.5c-.4-1.1-.6-2.6-.6-4.3s.2-3.2.6-4.3 1-2 1.8-2.5 1.6-.8 2.6-.8 1.9.3 2.6.8 1.3 1.4 1.7 2.5.6 2.6.6 4.3-.2 3.1-.6 4.3z"/><path d="m100.4 48c-.8-1.7-1.9-2.9-3.2-3.8-1.4-.9-2.9-1.3-4.6-1.3s-3.2.4-4.6 1.3-2.4 2.1-3.2 3.8-1.2 3.7-1.2 6c0 2.4.4 4.4 1.2 6 .8 1.7 1.9 2.9 3.2 3.8 1.4.9 2.9 1.3 4.6 1.3s3.3-.4 4.6-1.3c1.4-.9 2.4-2.1 3.2-3.8s1.2-3.7 1.2-6-.4-4.3-1.2-6zm-3.5 10.4c-.4 1.1-1 2-1.7 2.5s-1.6.8-2.6.8-1.8-.3-2.6-.8-1.3-1.4-1.8-2.5c-.4-1.1-.6-2.6-.6-4.3s.2-3.2.6-4.3 1-2 1.8-2.5 1.6-.8 2.6-.8 1.9.3 2.6.8 1.3 1.4 1.7 2.5.6 2.6.6 4.3-.2 3.1-.6 4.3z"/></g><path d="m43 43.7c-2.2-2.4-5.7-2.9-8.5-1.3l-2.3 1.4c-.4.2-.9.2-1.3 0l-2.3-1.4c-2.8-1.7-6.3-1.1-8.5 1.3-2.3 2.5-2.3 6.3-.1 8.9l9.4 11c1.1 1.3 3.2 1.3 4.3 0l9.4-11c2.2-2.6 2.2-6.4-.1-8.9z"/></g></g></svg>