<svg id="Layer_1" enable-background="new 0 0 512 512" height="512" viewBox="0 0 512 512" width="512" xmlns="http://www.w3.org/2000/svg"><g clip-rule="evenodd" fill-rule="evenodd"><path d="m66.927 203.134h68.5c16.664 0 30.298 13.635 30.298 30.299v203.646c0 16.664-13.634 30.299-30.298 30.299h-68.5c-16.665 0-30.299-13.634-30.299-30.299v-203.646c0-16.664 13.634-30.299 30.299-30.299z" fill="#60b7ff"/><path d="m419.118 212.145h-86.837c62.716-81.783 68.98-167.524-2.985-167.524-26.164 63.464-99.547 158.526-163.57 209.505v153.349c0 32.941 24.97 59.902 55.488 59.902h172.481c30.519 0 49.427-27.612 55.489-59.902l25.422-135.428c6.063-32.289-24.971-59.902-55.488-59.902z" fill="#f6dccd"/><path d="m458.881 269.094-25.418 135.428c-4.255 22.652-16.931 46.854-39.771 46.854h-172.48c-21.774 0-39.485-19.693-39.485-43.9h-.005v-145.741c60.314-50.066 127.857-136.058 157.681-200.327 15.898 2.691 20.266 11.549 21.877 14.799 10.38 21.05 1.771 69.525-41.702 126.199-3.696 4.838-4.34 11.356-1.649 16.819 2.701 5.462 8.261 8.919 14.353 8.919h86.837c11.803 0 24.549 6.181 32.482 15.743 4.471 5.383 9.36 14.128 7.28 25.207zm-309.158 167.986c0 7.881-6.416 14.297-14.296 14.297h-68.501c-7.886 0-14.301-6.416-14.301-14.297v-203.648c0-7.885 6.416-14.296 14.301-14.296h68.501c7.881 0 14.296 6.411 14.296 14.296zm326.508-213.628c-13.982-16.842-35.859-27.306-57.112-27.306h-56.219c12.648-20.163 22.168-40.452 27.969-59.77 8.862-29.486 8.553-55.186-.888-74.325-10.643-21.558-32.191-33.431-60.69-33.431-6.481 0-12.319 3.912-14.79 9.905-22.187 53.815-80.059 131.165-134.588 182.123-5.565-19.331-23.394-33.515-44.487-33.515h-68.5c-25.531 0-46.3 20.769-46.3 46.299v203.648c0 25.527 20.769 46.3 46.3 46.3h68.501c15.616 0 29.443-7.782 37.831-19.665 12.691 12.211 29.519 19.665 47.953 19.665h172.48c19.068 0 36.047-8.12 49.108-23.478 10.76-12.667 18.411-29.772 22.112-49.475l25.418-135.428c3.411-18.172-1.596-36.475-14.098-51.547z"/></g></svg>