<svg id="Capa_1" enable-background="new 0 0 512 512" viewBox="0 0 512 512" xmlns="http://www.w3.org/2000/svg"><g><g><g><path d="m457.5 496.239h-403c-6.6 0-12-5.4-12-12v-120.439c0-6.6 5.4-12 12-12h403c6.6 0 12 5.4 12 12v120.439c0 6.6-5.4 12-12 12z" fill="#ffa4d1"/></g><g><path d="m457.5 351.8h-18v102.439c0 6.6-5.4 12-12 12h-385v18c0 6.6 5.4 12 12 12h403c6.6 0 12-5.4 12-12v-120.439c0-6.6-5.4-12-12-12z" fill="#ff7bba"/></g><g><circle cx="390.556" cy="129.705" fill="#00a8ff" r="113.944"/></g><g><path d="m390.556 15.761c-5.085 0-10.091.338-15 .983 55.839 7.344 98.944 55.116 98.944 112.96s-43.104 105.616-98.944 112.96c4.909.646 9.915.983 15 .983 62.929 0 113.944-51.014 113.944-113.943s-51.015-113.943-113.944-113.943z" fill="#0094ff"/></g><g><path d="m390.556 243.649c28.625 0 54.763-10.579 74.777-28.01-11.347-30.276-40.54-51.832-74.777-51.832-34.238 0-63.431 21.556-74.777 51.832 20.014 17.43 46.152 28.01 74.777 28.01z" fill="#00d8a2"/></g><g><path d="m453.898 195.064c-17.892 25.503-45.971 43.34-78.328 47.6.099.013.198.025.297.038 1.035.133 2.073.253 3.116.358.137.014.273.029.409.043 1.165.114 2.335.21 3.51.289.116.008.232.013.348.02 1.012.064 2.029.113 3.049.151.278.01.557.021.836.029 1.137.034 2.276.057 3.421.057h.005c28.623-.001 54.759-10.581 74.772-28.01-2.792-7.452-6.671-14.372-11.435-20.575z" fill="#00c4a4"/></g><g><circle cx="121.444" cy="129.705" fill="#00dcfc" r="113.944"/></g><g><path d="m121.443 15.761c-5.085 0-10.091.338-15 .983 55.839 7.344 98.944 55.116 98.944 112.96s-43.104 105.616-98.944 112.96c4.909.646 9.915.983 15 .983 62.929 0 113.944-51.014 113.944-113.943s-51.014-113.943-113.944-113.943z" fill="#00d1fd"/></g><g><path d="m158.862 165.264c20.196 0 36.146-17.143 34.692-37.286-1.207-20.339-10.751-38.296-25.187-50.637l.002-.003c-25.949-22.921-67.902-22.92-93.851 0l.002.003c-14.436 12.341-23.98 30.298-25.187 50.637-1.454 20.143 14.496 37.286 34.692 37.286z" fill="#518e9a"/></g><g><path d="m121.444 243.649c28.625 0 54.763-10.579 74.777-28.01-11.347-30.276-40.54-51.832-74.777-51.832-34.238 0-63.431 21.556-74.777 51.832 20.014 17.43 46.152 28.01 74.777 28.01z" fill="#ffd250"/></g><g><path d="m74.42 131.172v10.669c0 26.175 21.219 47.394 47.394 47.394 26.175 0 47.394-21.219 47.394-47.394v-11.283l-47.394-17.136z" fill="#ca6e59"/></g><g><path d="m343.533 131.172v10.669c0 26.175 21.219 47.394 47.394 47.394 26.175 0 47.394-21.219 47.394-47.394v-11.283l-47.394-17.136z" fill="#ffdcbd"/></g><g><path d="m390.927 67.654c-26.175 0-47.394 21.219-47.394 47.394v15.51l14.957-4.289c11.845-3.397 22.879-9.157 32.437-16.934 7.912 7.462 17.521 12.888 27.997 15.811l19.397 5.412v-15.51c0-26.175-21.22-47.394-47.394-47.394z" fill="#518e9a"/></g><g><circle cx="250.87" cy="273.342" fill="#fff5f5" r="93.05"/></g><g><path d="m277.626 235.765c-10.116 0-19.149 4.624-25.11 11.871-.854 1.038-2.438 1.038-3.292 0-5.961-7.247-14.994-11.871-25.11-11.871-17.953 0-32.507 14.554-32.507 32.507 0 17.959 14.952 28.32 28.117 37.646 9.322 6.604 18.888 12.885 28.593 18.917 1.557.968 3.524.969 5.085.008 9.54-5.876 42.906-26.799 49.304-35.888 4.195-5.959 7.427-12.825 7.427-20.682 0-17.954-14.554-32.508-32.507-32.508z" fill="#ffa4d1"/></g><g><g><path d="m277.626 235.765c-3.939 0-7.711.709-11.204 1.994 8.294 5.89 13.711 15.566 13.711 26.514 0 7.856-3.232 14.723-7.427 20.682-4.961 7.048-26.135 21.209-39.844 29.955 5.103 3.385 10.257 6.695 15.455 9.926 1.557.967 3.524.969 5.085.008 9.54-5.876 42.906-26.799 49.304-35.889 4.195-5.959 7.427-12.825 7.427-20.682 0-17.954-14.553-32.508-32.507-32.508z" fill="#ff7bba"/></g></g></g><g><path d="m200.679 398.636c-1.353-3.285-4.52-5.405-8.071-5.405-.003 0-.007 0-.011 0-3.556.004-6.723 2.133-8.069 5.424-.023.056-.045.113-.067.17l-20.357 53.45c-1.474 3.871.468 8.204 4.339 9.678.879.335 1.781.493 2.668.493 3.022 0 5.871-1.84 7.01-4.833l3.23-8.481h22.354l3.193 8.46c1.462 3.875 5.789 5.831 9.665 4.369 3.875-1.462 5.832-5.79 4.369-9.665l-20.172-53.452c-.026-.07-.053-.139-.081-.208zm-13.614 35.496 5.515-14.481 5.465 14.481z"/><path d="m135.336 393.245c-3.958-.221-7.568 2.253-8.789 6.02-.028.085-.054.171-.078.257l-9.028 31.668-9.365-31.743c-.026-.089-.054-.178-.084-.266-1.262-3.754-4.898-6.193-8.855-5.927-3.952.265-7.234 3.167-7.999 7.141l-9.529 52.794c-.736 4.076 1.973 7.977 6.049 8.713 4.076.732 7.977-1.972 8.713-6.049l4.823-26.723 7.996 27.102c.026.089.054.178.084.267 1.196 3.562 4.516 5.946 8.27 5.946h.046c3.772-.02 7.089-2.443 8.253-6.031.028-.086.054-.172.079-.259l7.718-27.076 5.131 26.851c.778 4.069 4.708 6.74 8.774 5.959 4.069-.777 6.736-4.706 5.959-8.774l-10.11-52.9c-.79-3.882-4.104-6.748-8.058-6.97z"/><path d="m347.115 393.231c-4.142 0-7.5 3.358-7.5 7.5v54.213c0 4.142 3.358 7.5 7.5 7.5s7.5-3.358 7.5-7.5v-20.537h22.517v20.537c0 4.142 3.358 7.5 7.5 7.5s7.5-3.358 7.5-7.5v-54.213c0-4.142-3.358-7.5-7.5-7.5s-7.5 3.358-7.5 7.5v18.677h-22.517v-18.677c0-4.142-3.358-7.5-7.5-7.5z"/><path d="m301.247 462.444c7.646 0 14.516-2.518 19.867-7.283 1.049-.935 2.044-1.961 2.958-3.051 2.661-3.174 2.245-7.905-.93-10.565-3.175-2.661-7.905-2.245-10.565.93-.449.535-.934 1.036-1.44 1.487-2.596 2.312-5.923 3.483-9.889 3.483-10.812 0-19.607-8.795-19.607-19.607 0-10.811 8.795-19.606 19.607-19.606 3.93 0 7.719 1.156 10.957 3.344 3.432 2.32 8.094 1.417 10.413-2.016 2.319-3.432 1.417-8.094-2.016-10.413-5.728-3.87-12.42-5.915-19.354-5.915-19.083 0-34.607 15.524-34.607 34.606-.001 19.082 15.524 34.606 34.606 34.606z"/><path d="m244.12 462.444c4.142 0 7.5-3.358 7.5-7.5v-46.713h7.53c4.142 0 7.5-3.358 7.5-7.5s-3.358-7.5-7.5-7.5h-29.94c-4.142 0-7.5 3.358-7.5 7.5s3.358 7.5 7.5 7.5h7.409v46.713c.001 4.142 3.359 7.5 7.501 7.5z"/><path d="m430.509 435.033v-32.571c0-4.142-3.358-7.5-7.5-7.5s-7.5 3.358-7.5 7.5v32.571c0 4.142 3.358 7.5 7.5 7.5s7.5-3.358 7.5-7.5z"/><path d="m417.707 464.61c1.39 1.4 3.33 2.2 5.3 2.2.49 0 .98-.05 1.47-.15.47-.1.95-.24 1.4-.43.45-.18.89-.42 1.29-.69.41-.27.8-.58 1.14-.93 1.4-1.4 2.2-3.33 2.2-5.3 0-1.98-.8-3.91-2.2-5.3-.34-.35-.73-.66-1.14-.94-.4-.27-.84-.5-1.29-.69-.45-.18-.93-.33-1.4-.42-.97-.2-1.97-.2-2.94 0-.47.09-.95.24-1.4.42-.45.19-.89.42-1.29.69-.41.28-.8.59-1.14.94-1.4 1.39-2.2 3.32-2.2 5.3-.001 1.97.799 3.9 2.2 5.3z"/><path d="m457.524 344.3-110.033-.359c-.009 0-.017 0-.025 0-4.13 0-7.486 3.342-7.5 7.476-.014 4.142 3.333 7.511 7.476 7.524l110.058.359c2.439 0 4.5 2.061 4.5 4.5v120.439c0 2.439-2.061 4.5-4.5 4.5h-403c-2.439 0-4.5-2.061-4.5-4.5v-120.439c0-2.439 2.061-4.5 4.519-4.5l143.662-.354c15.332 9.472 33.383 14.946 52.69 14.946 55.443 0 100.55-45.106 100.55-100.55 0-10.583-1.648-20.787-4.693-30.374 13.908 5.373 28.785 8.18 43.829 8.18 66.964 0 121.444-54.479 121.444-121.443-.001-66.964-54.48-121.444-121.445-121.444s-121.444 54.48-121.444 121.444c0 16.226 3.242 32.175 9.443 46.965-8.798-2.523-18.086-3.877-27.684-3.877-5.58 0-11.052.464-16.387 1.342 5.521-14.082 8.404-29.2 8.404-44.43 0-66.964-54.479-121.444-121.444-121.444-17.395 0-34.192 3.602-49.927 10.707-3.775 1.705-5.454 6.146-3.749 9.922 1.705 3.775 6.147 5.455 9.922 3.749 13.781-6.222 28.502-9.377 43.754-9.377 58.693 0 106.444 47.75 106.444 106.444 0 17.228-4.209 34.284-12.162 49.43-8.572 3.208-16.591 7.555-23.876 12.855-5.963-8.117-13.278-15.156-21.614-20.783 19.142-5.337 32.248-23.705 30.805-43.675-1.291-21.741-11.094-41.523-27.61-55.73-.032-.029-.064-.058-.097-.087-13.922-12.297-32.351-19.07-51.891-19.069-19.541 0-37.969 6.772-51.891 19.069-.032.029-.064.058-.096.087-16.517 14.207-26.319 33.988-27.604 55.634-1.467 20.321 11.552 38.458 30.781 43.778-11.952 8.066-21.712 18.958-28.425 31.659-18.093-19.088-29.208-44.854-29.208-73.169 0-29.807 12.623-58.445 34.633-78.573 3.057-2.795 3.269-7.54.473-10.596-2.796-3.057-7.54-3.269-10.596-.473-25.109 22.962-39.51 55.635-39.51 89.642 0 66.964 54.479 121.443 121.443 121.443 11.07 0 21.938-1.479 32.451-4.391-2.325 8.472-3.574 17.384-3.574 26.584 0 27.513 11.111 52.477 29.077 70.65l-124.897.309c-10.752 0-19.5 8.748-19.5 19.5v120.439c0 10.752 8.748 19.5 19.5 19.5h403c10.752 0 19.5-8.748 19.5-19.5v-120.439c0-10.753-8.748-19.5-19.476-19.5zm-119.732-122.127c-.187-.107-.378-.199-.569-.289-2.879-4.813-6.149-9.365-9.765-13.615 6.151-10.958 15-20.083 25.768-26.584 9.842 9.318 23.111 15.051 37.701 15.051 14.445 0 27.597-5.618 37.408-14.771 12.232 7.504 21.938 18.438 27.924 31.433-18.106 14.245-40.93 22.752-65.702 22.752-18.534-.002-36.78-4.834-52.765-13.977zm13.241-80.331v-6.617c21.405-1.347 33.365-8.39 39.894-14.793 6.529 6.403 18.489 13.446 39.894 14.793v6.617c0 21.998-17.896 39.894-39.894 39.894s-39.894-17.897-39.894-39.894zm79.787-21.649c-21.63-1.572-29.492-9.81-31.973-13.562-1.765-2.668-4.726-4.262-7.92-4.262-3.195 0-6.156 1.593-7.92 4.261-2.481 3.752-10.345 11.99-31.974 13.562v-5.145c0-21.998 17.896-39.894 39.894-39.894s39.894 17.896 39.894 39.894v5.146zm-131.046 65.12c-10.246-16.688-15.662-35.917-15.662-55.608 0-58.693 47.75-106.444 106.444-106.444s106.444 47.751 106.444 106.444c0 28.325-11.123 54.099-29.228 73.189-6.988-13.241-17.252-24.5-29.884-32.657 5.031-8.29 7.931-18.01 7.931-28.396v-11.284-15.51c0-30.269-24.625-54.894-54.894-54.894s-54.894 24.625-54.894 54.894v15.51c0 .104.011.205.016.307-.004.103-.016.204-.016.307v10.669c0 10.247 2.83 19.842 7.738 28.06-11.026 7.003-20.298 16.332-27.216 27.37-5.117-4.424-10.685-8.336-16.622-11.669-.052-.095-.099-.193-.157-.288zm-217.854-43.471v-6.175c21.376-1.938 33.348-9.326 39.894-15.936 6.546 6.61 18.518 13.999 39.894 15.936v6.175c0 21.998-17.896 39.894-39.894 39.894s-39.894-17.897-39.894-39.894zm-25.1-13.421c1.052-17.719 9.069-33.835 22.574-45.381.089-.076.176-.154.261-.233 23.094-20.238 60.482-20.239 83.578 0 .084.079.171.157.261.233 13.505 11.545 21.522 27.662 22.581 45.477.666 9.222-3.43 17.889-10.301 23.358.604-3.255.935-16.779.935-16.779 2.194-1.309 3.669-3.699 3.669-6.439 0-4.142-3.358-7.5-7.5-7.5-29.776 0-40-10.599-43.014-15.156-1.793-2.711-4.802-4.33-8.048-4.331 0 0 0 0-.001 0-3.246 0-6.255 1.618-8.05 4.331-3.014 4.557-13.238 15.156-43.013 15.156-4.142 0-7.5 3.358-7.5 7.5 0 2.74 1.475 5.131 3.669 6.439 0 0 .37 14.014 1.063 17.49-7.419-5.377-11.872-14.357-11.164-24.165zm103.559 100.384c-12.392 4.873-25.492 7.344-38.936 7.344-24.773 0-47.596-8.507-65.702-22.752 6.055-13.135 15.932-24.203 28.37-31.713 9.842 9.319 23.112 15.053 37.703 15.053 14.448 0 27.602-5.62 37.415-14.777 8.296 5.095 15.5 11.819 21.154 19.753-7.924 7.799-14.562 16.897-19.569 26.947-.146.046-.291.088-.435.145zm90.492-41.013c47.172 0 85.55 38.377 85.55 85.55s-38.377 85.55-85.55 85.55-85.55-38.378-85.55-85.55 38.377-85.55 85.55-85.55z"/><path d="m214.894 311.687.496.352c8.991 6.369 18.467 12.639 28.97 19.167 2.004 1.246 4.254 1.869 6.505 1.869 2.236 0 4.474-.615 6.471-1.845 16.342-10.065 44.763-28.38 51.504-37.957 5.917-8.406 8.794-16.583 8.794-24.999 0-22.06-17.947-40.007-40.007-40.007-9.984 0-19.458 3.684-26.756 10.266-7.299-6.583-16.771-10.266-26.756-10.266-22.06 0-40.007 17.947-40.007 40.007-.001 21.611 17.069 33.7 30.786 43.413zm9.22-68.422c7.501 0 14.542 3.33 19.318 9.136 1.837 2.233 4.548 3.514 7.438 3.514s5.601-1.28 7.438-3.514c4.776-5.806 11.817-9.136 19.318-9.136 13.789 0 25.007 11.218 25.007 25.007 0 5.219-1.982 10.572-6.06 16.365-3.505 4.979-21.786 18.151-45.701 32.953-9.686-6.053-18.471-11.883-26.812-17.792l-.498-.352c-14.772-10.462-24.455-18.284-24.455-31.174 0-13.789 11.218-25.007 25.007-25.007z"/></g></g><g/><g/><g/><g/><g/><g/><g/><g/><g/><g/><g/><g/><g/><g/><g/></svg>