<svg height="512" viewBox="0 0 60 56" width="512" xmlns="http://www.w3.org/2000/svg"><g id="Page-1" fill="none" fill-rule="evenodd"><g id="004---Like-Notification"><g id="Icons_copy" transform="translate(1 1)"><path id="Path" d="m58 8v28c0 4.418278-3.581722 8-8 8h-14l-5.31 8.35c-.3696438.5750858-1.0063625.9227307-1.69.9227307s-1.3203562-.3476449-1.69-.9227307l-5.31-8.35h-14c-4.418278 0-8-3.581722-8-8v-28c0-4.418278 3.581722-8 8-8h42c4.418278 0 8 3.581722 8 8z" fill="#02a9f4"/><g fill="#0377bc"><path id="Path" d="m27.69 52.35c-.0576526.079932-.1211605.155473-.19.226.412366.4748723 1.0240863.7281139 1.6514411.6836681.6273547-.0444458 1.1972617-.3814015 1.5385589-.9096681l5.31-8.35h-3z"/><path id="Path" d="m50 0h-3c4.418278 0 8 3.581722 8 8v28c0 4.418278-3.581722 8-8 8h3c4.418278 0 8-3.581722 8-8v-28c0-4.418278-3.581722-8-8-8z"/><rect id="Rectangle" height="14" rx="1" width="6" x="14" y="17"/></g><path id="Path" d="m35.56 22.18-.77 3.86c-.4544997 2.4602671-2.0038385 4.5800274-4.21 5.76-5.31 2.71-10.58-1.8-10.58-1.8v-12l2.44-.43 1.12-6.13c.2753055-1.51372209 1.6597019-2.56756647 3.1920853-2.42991169s2.7067967 1.42135839 2.7079147 2.95991169c.0015984.1675258-.0117882.334859-.04.5l-.66 3.98 1.03-.18c1.6273856-.286929 3.2914325.2487403 4.4458283 1.4311456 1.1543958 1.1824054 1.6500253 2.8588138 1.3241717 4.4788544z" fill="#f5f5f5"/><path id="Path" d="m29.79 16.27-.733.128c2.4899029.7276148 4.0098441 3.2385577 3.5 5.782l-.77 3.86c-.4544997 2.4602671-2.0038385 4.5800274-4.21 5.76-.6723943.3426468-1.3908418.5861712-2.133.723 1.7448353.3340594 3.5511982.0797758 5.136-.723 2.2061615-1.1799726 3.7555003-3.2997329 4.21-5.76l.77-3.86c.3258536-1.6200406-.1697759-3.296449-1.3241717-4.4788544-1.1543958-1.1824053-2.8184427-1.7180746-4.4458283-1.4311456z" fill="#cfd8dc"/></g><g id="Icons" fill="#000"><path id="Shape" d="m51 0h-42c-4.96805005.00606096-8.99393904 4.03194995-9 9v28c.00606096 4.9680501 4.03194995 8.993939 9 9h13.451l5.018 7.891c.5537441.8620234 1.507943 1.3831799 2.5325 1.3831799s1.9787559-.5211565 2.5325-1.3831799l5.015-7.891h13.451c4.9680501-.006061 8.993939-4.0319499 9-9v-28c-.006061-4.96805005-4.0319499-8.99393904-9-9zm7 37c-.0044086 3.8641657-3.1358343 6.9955914-7 7h-14c-.3419963-.0001429-.660348.1744979-.844.463l-5.307 8.347c-.1942803.2771838-.5115096.4422282-.85.4422282s-.6557197-.1650444-.85-.4422282l-5.31-8.35c-.1834033-.2858622-.4993632-.4590941-.839-.46h-14c-3.86416566-.0044086-6.99559136-3.1358343-7-7v-28c.00440864-3.86416566 3.13583434-6.99559136 7-7h42c3.8641657.00440864 6.9955914 3.13583434 7 7z" fill-rule="nonzero"/><path id="Path" d="m9 4c-2.76005315.00330612-4.99669388 2.23994685-5 5 .00000001.55228474.44771526.99999998 1 .99999998s.99999999-.44771524 1-.99999998c0-1.65685425 1.34314575-3 3-3 .55228475 0 1-.44771525 1-1s-.44771525-1-1-1z"/><path id="Path" d="m55 36c-.5522847 0-1 .4477153-1 1 0 1.6568542-1.3431458 3-3 3-.5522847 0-1 .4477153-1 1s.4477153 1 1 1c2.7600532-.0033061 4.9966939-2.2399468 5-5 0-.5522847-.4477153-1-1-1z"/><path id="Path" d="m45.383 16.076c-.3737776-.1548179-.8040145-.0691653-1.09.217l-3 3c-.3789722.3923789-.3735524 1.0160848.0121814 1.4018186s1.0094397.3911536 1.4018186.0121814l1.293-1.293v11.586c0 .5522847.4477153 1 1 1s1-.4477153 1-1v-14c.0001018-.4044291-.2434093-.7691037-.617-.924z"/><path id="Shape" d="m30.975 16.233.429-2.588c.0390277-.2228452.0577711-.44877.056-.675-.0001734-2.056527-1.5693226-3.7731919-3.6175607-3.95764764-2.048238-.18445574-3.8988441 1.22424034-4.2664393 3.24764764l-1 5.446-.933.164c-.3714083-.5423908-.9856368-.8676365-1.643-.87h-4c-1.1045695 0-2 .8954305-2 2v12c0 1.1045695.8954305 2 2 2h4c.491782-.0015751.9654341-.1858325 1.329-.517 1.9529896 1.3506345 4.2528604 2.1118202 6.626 2.193 1.4200156.0021503 2.8198351-.3363166 4.082-.987 2.4832226-1.3122143 4.2278662-3.6903691 4.734-6.453l.77-3.86c.3780381-1.881256-.1665249-3.8298466-1.4651082-5.2425454-1.2985833-1.4126989-3.194523-2.1190748-5.1008918-1.9004546zm-14.975 14.767v-12h4v12zm19.58-8.016-.77 3.86c-.3883365 2.163365-1.7461647 4.0296879-3.685 5.065-3.912 2-7.934-.536-9.125-1.4v-10.67l1.614-.284c.4102598-.0719519.7329574-.3906656.81-.8l1.121-6.135c.1856121-1.0024026 1.1039927-1.698586 2.1192697-1.6065238 1.015277.0920621 1.7934526.9420839 1.7957303 1.9615238.0013719.1125513-.0073295.2249996-.026.336l-.661 3.981c-.0529881.3199886.0525096.6458014.283.874.2297373.2289013.5567761.3311943.876.274l1.031-.18c1.3022729-.2300321 2.6340719.1984498 3.557901 1.1446894.9238292.9462395 1.3202727 2.2879241 1.059099 3.5843106z" fill-rule="nonzero"/></g></g></g></svg>