<svg id="Layer_2_00000038387580388784496280000018245248036526339771_" enable-background="new 0 0 512 512" viewBox="0 0 512 512" xmlns="http://www.w3.org/2000/svg" xmlns:xlink="http://www.w3.org/1999/xlink"><linearGradient id="_67_00000056391946922362538380000017582476838191913652_" gradientTransform="matrix(1 0 0 -1 0 514.32)" gradientUnits="userSpaceOnUse" x1="70.189" x2="441.781" y1="463.059" y2="91.466"><stop offset="0" stop-color="#ffde00"/><stop offset="1" stop-color="#fd5c00"/></linearGradient><g id="Icon"><path id="_67" d="m256 41.9c-58.2 0-105.4 47.2-105.4 105.4s47.2 105.3 105.4 105.3 105.4-47.2 105.4-105.4-47.2-105.3-105.4-105.3zm60.1 170.8c0 5.6-4.6 10.2-10.2 10.2h-97.8c-5.6 0-10.2-4.6-10.2-10.2v-21.5c0-2.6 1-5.1 2.8-7l44.7-47.1c3.6-4.2 6.6-7.9 8.6-10.9 1.9-2.8 3.2-5.3 4-7.4.6-1.8 1-3.5 1-5.1 0-3-.9-4.4-1.5-5.3-.1-.2-.6-.7-2.8-.7-2.6 0-3 .7-3.3 1.1-1.3 2-2 5.2-2 9.3 0 5.6-4.6 10.2-10.2 10.2h-32.8c-4.4 0-8.3-2.8-9.7-7l-.2-.6c-.3-1-.5-2-.5-3-.2-10.4 2.1-20 6.9-28.5 4.8-8.6 11.9-15.5 20.9-20.4 8.9-4.9 19.3-7.4 31-7.4s21.7 2.1 30.2 6.2c8.9 4.3 15.9 10.5 20.8 18.5 4.8 7.9 7.3 17.1 7.3 27.4 0 7-1.2 13.6-3.6 19.6-2.3 5.7-6 11.8-11.1 18-3.4 4.2-7.6 9-12.6 14.4h20.3c5.6 0 10.2 4.6 10.2 10.2v37zm-36.7-25.4h-27.6l-.2-.5 21-22.2c7.4-7.8 13.3-14.4 17.7-19.9s7.6-10.6 9.5-15.4c2-4.8 2.9-10.1 2.9-15.8 0-8.4-1.9-15.8-5.8-22-3.9-6.3-9.4-11.2-16.5-14.6-7.2-3.5-15.8-5.2-25.8-5.2s-18.7 2-26.1 6.1-13 9.6-17 16.5c-3.9 6.9-5.8 14.7-5.6 23.3l.2.6h32.8c0-6.3 1.3-11.3 3.8-15s6.5-5.6 11.8-5.6c4.8 0 8.5 1.6 10.9 4.7 2.4 3.2 3.6 7 3.6 11.5 0 2.7-.5 5.6-1.6 8.5s-2.8 6.1-5.1 9.6c-2.4 3.5-5.5 7.6-9.6 12.1l-44.8 47.2v21.5h97.8v-37h-25.1zm-23.4-145.4c-58.2 0-105.4 47.2-105.4 105.4s47.2 105.3 105.4 105.3 105.4-47.2 105.4-105.4-47.2-105.3-105.4-105.3zm60.1 170.8c0 5.6-4.6 10.2-10.2 10.2h-97.8c-5.6 0-10.2-4.6-10.2-10.2v-21.5c0-2.6 1-5.1 2.8-7l44.7-47.1c3.6-4.2 6.6-7.9 8.6-10.9 1.9-2.8 3.2-5.3 4-7.4.6-1.8 1-3.5 1-5.1 0-3-.9-4.4-1.5-5.3-.1-.2-.6-.7-2.8-.7-2.6 0-3 .7-3.3 1.1-1.3 2-2 5.2-2 9.3 0 5.6-4.6 10.2-10.2 10.2h-32.8c-4.4 0-8.3-2.8-9.7-7l-.2-.6c-.3-1-.5-2-.5-3-.2-10.4 2.1-20 6.9-28.5 4.8-8.6 11.9-15.5 20.9-20.4 8.9-4.9 19.3-7.4 31-7.4s21.7 2.1 30.2 6.2c8.9 4.3 15.9 10.5 20.8 18.5 4.8 7.9 7.3 17.1 7.3 27.4 0 7-1.2 13.6-3.6 19.6-2.3 5.7-6 11.8-11.1 18-3.4 4.2-7.6 9-12.6 14.4h20.3c5.6 0 10.2 4.6 10.2 10.2v37zm-36.8-25.4h-27.6l-.2-.5 21-22.2c7.4-7.8 13.3-14.4 17.7-19.9s7.6-10.6 9.5-15.4c2-4.8 2.9-10.1 2.9-15.8 0-8.4-1.9-15.8-5.8-22-3.9-6.3-9.4-11.2-16.5-14.6-7.2-3.5-15.8-5.2-25.8-5.2s-18.7 2-26.1 6.1-13 9.6-17 16.5c-3.9 6.9-5.8 14.7-5.6 23.3l.2.6h32.8c0-6.3 1.3-11.3 3.8-15s6.5-5.6 11.8-5.6c4.8 0 8.5 1.6 10.9 4.7 2.4 3.2 3.6 7 3.6 11.5 0 2.7-.5 5.6-1.6 8.5s-2.8 6.2-5.1 9.7c-2.4 3.5-5.5 7.5-9.6 12.1l-44.8 47.2v21.5h97.8v-37h-25.1zm227.6 24.2s-41.1 51.2-67.5 62.5c1.2-.7 91-55.4 57.1-168 0 0-29.1 131.7-137.8 179.4-16.5 7.2-30 20-38.3 36.1l-23.4 45.6c4.9 6.3 8.4 13.7 10 21.8h7.8c15.9 0 28.9 12.5 29.8 28.2 20.1-3.5 40.6-14.5 54.8-41 0 0-23.6 2.4-33.7-.8 0 0 97.4.6 120.1-80.6 0 0-23.7 16.8-35.5 17.3 0-.1 54.4-28.9 56.6-100.5zm-192.1 187.5h-117.6c-10.8 0-19.6 8.8-19.6 19.6v24.1h156.8v-24.1c0-10.8-8.8-19.6-19.6-19.6zm31.8 53.9h-181.3c-14.9 0-26.9 12.1-26.9 27s12.1 27 26.9 27h181.3c14.9 0 27-12.1 27-27s-12.1-27-27-27zm-155.1-131.4c-8.2-16.1-21.7-28.8-38.3-36.1-108.6-47.7-137.7-179.4-137.7-179.4-33.9 112.6 55.9 167.3 57.1 168-26.3-11.2-67.5-62.5-67.5-62.5 2.2 71.6 56.6 100.4 56.6 100.4-11.8-.5-35.5-17.3-35.5-17.3 22.8 81.2 120.1 80.6 120.1 80.6-10 3.1-33.7.8-33.7.8 14.2 26.5 34.6 37.6 54.8 41 .8-15.7 13.9-28.2 29.8-28.2h7.8c1.6-8.1 5.1-15.5 10-21.8zm64.5 35.7c-19.6 0-36.1 13.5-40.6 31.7h81.2c-4.6-18.3-21-31.7-40.6-31.7zm0-57.6c-6.3 0-12.4-.4-18.5-1.1v51.9c5.8-2.2 12-3.4 18.5-3.4s12.8 1.2 18.5 3.4v-51.9c-6.1.7-12.3 1.1-18.5 1.1zm0-294.4c-78.5 0-142.1 63.6-142.1 142.1s63.6 142.1 142.1 142.1 142.1-63.6 142.1-142.1-63.6-142.1-142.1-142.1zm0 257.6c-63.7 0-115.6-51.8-115.6-115.6s51.9-115.5 115.6-115.5 115.6 51.8 115.6 115.6-51.9 115.5-115.6 115.5zm0-220.9c-58.2 0-105.4 47.2-105.4 105.4s47.2 105.3 105.4 105.3 105.4-47.2 105.4-105.4-47.2-105.3-105.4-105.3zm60.1 170.8c0 5.6-4.6 10.2-10.2 10.2h-97.8c-5.6 0-10.2-4.6-10.2-10.2v-21.5c0-2.6 1-5.1 2.8-7l44.7-47.1c3.6-4.2 6.6-7.9 8.6-10.9 1.9-2.8 3.2-5.3 4-7.4.6-1.8 1-3.5 1-5.1 0-3-.9-4.4-1.5-5.3-.1-.2-.6-.7-2.8-.7-2.6 0-3 .7-3.3 1.1-1.3 2-2 5.2-2 9.3 0 5.6-4.6 10.2-10.2 10.2h-32.8c-4.4 0-8.3-2.8-9.7-7l-.2-.6c-.3-1-.5-2-.5-3-.2-10.4 2.1-20 6.9-28.5 4.8-8.6 11.9-15.5 20.9-20.4 8.9-4.9 19.3-7.4 31-7.4s21.7 2.1 30.2 6.2c8.9 4.3 15.9 10.5 20.8 18.5 4.8 7.9 7.3 17.1 7.3 27.4 0 7-1.2 13.6-3.6 19.6-2.3 5.7-6 11.8-11.1 18-3.4 4.2-7.6 9-12.6 14.4h20.3c5.6 0 10.2 4.6 10.2 10.2v37zm-36.7-25.4h-27.6l-.2-.5 21-22.2c7.4-7.8 13.3-14.4 17.7-19.9s7.6-10.6 9.5-15.4c2-4.8 2.9-10.1 2.9-15.8 0-8.4-1.9-15.8-5.8-22-3.9-6.3-9.4-11.2-16.5-14.6-7.2-3.5-15.8-5.2-25.8-5.2s-18.7 2-26.1 6.1-13 9.6-17 16.5c-3.9 6.9-5.8 14.7-5.6 23.3l.2.6h32.8c0-6.3 1.3-11.3 3.8-15s6.5-5.6 11.8-5.6c4.8 0 8.5 1.6 10.9 4.7 2.4 3.2 3.6 7 3.6 11.5 0 2.7-.5 5.6-1.6 8.5s-2.8 6.2-5.1 9.7c-2.4 3.5-5.5 7.5-9.6 12.1l-44.8 47.2v21.5h97.8v-37h-25.1zm1.4-11.5-1.4 11.6h-27.6l-.2-.5 21-22.2c7.4-7.8 13.3-14.4 17.7-19.9s7.6-10.6 9.5-15.4c2-4.8 2.9-10.1 2.9-15.8 0-8.4-1.9-15.8-5.8-22-3.9-6.3-9.4-11.2-16.5-14.6-7.2-3.5-15.8-5.2-25.8-5.2s-18.7 2-26.1 6.1-13 9.6-17 16.5c-3.9 6.9-5.8 14.7-5.6 23.3l.2.6h32.8c0-6.3 1.3-11.3 3.8-15s6.5-5.6 11.8-5.6c4.8 0 8.5 1.6 10.9 4.7 2.4 3.2 3.6 7 3.6 11.5 0 2.7-.5 5.6-1.6 8.5s-2.8 6.2-5.1 9.7c-2.4 3.5-5.5 7.5-9.6 12.1l-44.8 47.2v21.5h97.8v-37zm0 0-1.4 11.6h-27.6l-.2-.5 21-22.2c7.4-7.8 13.3-14.4 17.7-19.9s7.6-10.6 9.5-15.4c2-4.8 2.9-10.1 2.9-15.8 0-8.4-1.9-15.8-5.8-22-3.9-6.3-9.4-11.2-16.5-14.6-7.2-3.5-15.8-5.2-25.8-5.2s-18.7 2-26.1 6.1-13 9.6-17 16.5c-3.9 6.9-5.8 14.7-5.6 23.3l.2.6h32.8c0-6.3 1.3-11.3 3.8-15s6.5-5.6 11.8-5.6c4.8 0 8.5 1.6 10.9 4.7 2.4 3.2 3.6 7 3.6 11.5 0 2.7-.5 5.6-1.6 8.5s-2.8 6.2-5.1 9.7c-2.4 3.5-5.5 7.5-9.6 12.1l-44.8 47.2v21.5h97.8v-37z" fill="url(#_67_00000056391946922362538380000017582476838191913652_)"/></g></svg>