<svg id="Layer_1" enable-background="new 0 0 512 512" height="512" viewBox="0 0 512 512" width="512" xmlns="http://www.w3.org/2000/svg"><g><path d="m256 512c-11.311 0-22.53-2.438-32.772-7.086-11.095 1.84-22.562 1.289-33.488-1.637-10.926-2.929-21.131-8.187-29.82-15.326-11.193-1.095-22.127-4.594-31.92-10.248-9.796-5.658-18.293-13.377-24.837-22.521-10.532-3.956-20.189-10.167-28.183-18.164-7.989-7.986-14.2-17.643-18.161-28.179-9.146-6.546-16.867-15.044-22.522-24.838-5.657-9.796-9.155-20.729-10.247-31.922-7.143-8.688-12.401-18.894-15.329-29.822-2.926-10.924-3.476-22.391-1.638-33.486-4.647-10.243-7.083-21.461-7.083-32.771s2.436-22.528 7.083-32.771c-1.838-11.096-1.288-22.562 1.638-33.486 2.927-10.929 8.186-21.135 15.329-29.822 1.092-11.192 4.59-22.126 10.247-31.922 5.656-9.794 13.376-18.292 22.522-24.838 3.961-10.536 10.173-20.193 18.166-28.183 7.99-7.994 17.646-14.204 28.179-18.16 6.544-9.145 15.041-16.863 24.834-22.521 9.795-5.655 20.729-9.154 31.923-10.249 8.688-7.14 18.894-12.397 29.817-15.325 10.93-2.929 22.397-3.479 33.491-1.638 10.241-4.647 21.46-7.085 32.771-7.085s22.529 2.438 32.771 7.086c11.095-1.841 22.562-1.29 33.488 1.637 10.926 2.929 21.131 8.186 29.82 15.326 11.192 1.095 22.127 4.594 31.92 10.248 9.796 5.657 18.293 13.378 24.837 22.521 10.533 3.956 20.189 10.167 28.184 18.164 7.988 7.986 14.199 17.643 18.161 28.179 9.146 6.546 16.867 15.044 22.522 24.838 5.656 9.795 9.154 20.729 10.246 31.922 7.144 8.688 12.402 18.894 15.329 29.822 2.926 10.924 3.476 22.391 1.638 33.486 4.648 10.244 7.084 21.462 7.084 32.771s-2.436 22.527-7.083 32.771c1.838 11.096 1.288 22.562-1.638 33.486-2.927 10.929-8.186 21.135-15.329 29.822-1.092 11.193-4.59 22.127-10.247 31.923-5.654 9.793-13.375 18.291-22.521 24.837-3.962 10.537-10.173 20.193-18.166 28.183-7.99 7.994-17.646 14.204-28.179 18.16-6.544 9.144-15.041 16.863-24.835 22.521-9.795 5.655-20.729 9.154-31.922 10.249-8.689 7.141-18.894 12.397-29.817 15.325-10.93 2.929-22.396 3.478-33.491 1.638-10.243 4.647-21.461 7.085-32.772 7.085z" fill="#ffc800"/><path d="m256 0c11.311 0 22.529 2.438 32.771 7.086 11.095-1.841 22.562-1.29 33.488 1.637 10.926 2.929 21.131 8.186 29.82 15.326 11.192 1.095 22.127 4.594 31.92 10.248 9.796 5.657 18.293 13.378 24.837 22.521 10.533 3.956 20.189 10.167 28.184 18.164 7.988 7.986 14.199 17.643 18.161 28.179 9.146 6.546 16.867 15.044 22.522 24.838 5.656 9.795 9.154 20.729 10.246 31.922 7.144 8.688 12.402 18.894 15.329 29.822 2.926 10.924 3.476 22.391 1.638 33.486 4.648 10.244 7.084 21.462 7.084 32.771s-2.436 22.527-7.083 32.771c1.838 11.096 1.288 22.562-1.638 33.486-2.927 10.929-8.186 21.135-15.329 29.822-1.092 11.193-4.59 22.127-10.247 31.923-5.654 9.793-13.375 18.291-22.521 24.837-3.962 10.537-10.173 20.193-18.166 28.183-7.99 7.994-17.646 14.204-28.179 18.16-6.544 9.144-15.041 16.863-24.835 22.521-9.795 5.655-20.729 9.154-31.922 10.249-8.689 7.141-18.894 12.397-29.817 15.325-10.93 2.929-22.396 3.478-33.491 1.638-10.243 4.647-21.461 7.085-32.772 7.085z" fill="#ffa400"/><circle cx="256" cy="256" fill="#194e57" r="191.733"/><path d="m256 64.267c105.722 0 191.733 86.012 191.733 191.733s-86.011 191.733-191.733 191.733z" fill="#003540"/><path d="m336.333 351.333h-160.666c-6.883 0-12.883-4.685-14.552-11.362l-32.133-128.533c-1.42-5.683.597-11.673 5.167-15.338 4.569-3.667 10.854-4.335 16.094-1.716l51.842 25.921 41.054-68.423c2.711-4.518 7.593-7.282 12.862-7.282s10.151 2.765 12.862 7.282l41.054 68.423 51.843-25.921c5.236-2.62 11.522-1.951 16.094 1.716 4.569 3.665 6.587 9.655 5.166 15.338l-32.134 128.533c-1.67 6.677-7.67 11.362-14.553 11.362z" fill="#ffe66f"/><path d="m336.333 351.333c6.883 0 12.883-4.685 14.552-11.362l32.134-128.533c1.421-5.683-.597-11.673-5.166-15.338-4.571-3.667-10.857-4.336-16.094-1.716l-51.843 25.921-41.054-68.423c-2.711-4.518-7.594-7.282-12.862-7.282v206.733z" fill="#ffc800"/></g></svg>