<svg id="Capa_1" enable-background="new 0 0 512 512" height="512" viewBox="0 0 512 512" width="512" xmlns="http://www.w3.org/2000/svg"><g><g><g><g><g><g fill="#fbd307"><path d="m452.755 84.711h-87.655v21.783c0 3.921-.13 7.836-.358 11.743h84.362c1.494 0 2.717 1.23 2.665 2.724-.791 22.891-9.015 45.162-23.355 63.074-15.103 18.862-36.404 32.161-59.982 37.447l-46.585 10.443c-13.413 17.135-29.531 32.087-47.703 44.164.556.057 1.115.094 1.681.094 1.215 0 2.448-.132 3.682-.409l96.259-21.579c30.983-6.945 58.974-24.421 78.819-49.207 19.799-24.73 30.724-55.78 30.774-87.456.028-18.052-14.552-32.821-32.604-32.821z"/><path d="m190.153 231.923-46.585-10.443c-23.578-5.285-44.88-18.584-59.982-37.447-14.34-17.912-22.564-40.183-23.355-63.074-.052-1.493 1.171-2.724 2.665-2.724h84.362c-.227-3.907-.358-7.822-.358-11.743v-21.781h-87.655c-18.051 0-32.632 14.769-32.603 32.82.05 31.676 10.975 62.726 30.774 87.456 19.845 24.786 47.836 42.262 78.819 49.207l96.259 21.579c1.234.277 2.467.409 3.682.409.565 0 1.125-.037 1.68-.094-18.172-12.078-34.29-27.03-47.703-44.165z"/></g><path d="m292.114 308.159v-69.007h-72.228v69.007c0 52.567-28.535 100.991-74.52 126.459v30.006h221.268v-30.006c-45.985-25.468-74.52-73.892-74.52-126.459z" fill="#fce25c"/><path d="m366.634 434.618c-45.985-25.469-74.52-73.892-74.52-126.459v-69.007h-30.536v74.381c0 56.66 28.535 108.854 74.52 136.306v14.785h30.536z" fill="#fcdd2e"/><g><path d="m281.114 301.322c-15.407 9.46-34.822 9.46-50.228 0-67.725-41.585-108.996-115.356-108.996-194.828v-92.205h268.22v92.204c0 79.473-41.271 153.244-108.996 194.829z" fill="#fce25c"/><path d="m349.505 14.289v92.204c0 79.473-41.271 153.244-108.995 194.828-1.562.959-3.175 1.795-4.812 2.56 14.501 6.776 31.572 5.94 45.416-2.56 67.725-41.584 108.995-115.356 108.995-194.828v-92.204z" fill="#fcdd2e"/><path d="m414.115 51.665h-316.23c-7.311 0-13.238-5.927-13.238-13.238v-17.69c0-7.311 5.927-13.238 13.238-13.238h316.23c7.311 0 13.238 5.927 13.238 13.238v17.69c0 7.311-5.927 13.238-13.238 13.238z" fill="#fbd307"/><path d="m414.115 7.5h-27.367v30.928c0 7.311-5.927 13.238-13.238 13.238h40.605c7.311 0 13.238-5.927 13.238-13.238v-17.69c0-7.311-5.927-13.238-13.238-13.238z" fill="#f9c301"/></g><path d="m380.937 504.5h-249.874c-8.965 0-16.233-7.268-16.233-16.233v-67.119c0-8.965 7.268-16.233 16.233-16.233h249.875c8.965 0 16.233 7.268 16.233 16.233v67.119c-.001 8.965-7.269 16.233-16.234 16.233z" fill="#fbd307"/><path d="m380.937 404.916h-38.055c7.557 0 13.683 6.126 13.683 13.683v72.218c0 7.557-6.126 13.683-13.683 13.683h38.055c8.965 0 16.233-7.268 16.233-16.233v-67.119c0-8.965-7.268-16.232-16.233-16.232z" fill="#f9c301"/></g><g><g><path d="m395.475 374.323-25.158-14.823c-.937-.552-2.099-.552-3.036 0l-25.158 14.823c-1.994 1.175-4.509-.263-4.509-2.577v-67.753h62.369v67.753c0 2.314-2.515 3.751-4.508 2.577z" fill="#fb76a7"/><g><path d="m359.379 303.993v60.163l7.902-4.656c.937-.552 2.099-.552 3.036 0l25.158 14.823c1.994 1.175 4.509-.263 4.509-2.576v-67.753h-40.605z" fill="#fc5692"/></g><g><path d="m379.232 181.634c3.456 5.378 10.434 7.248 16.116 4.318 8.025-4.138 17.641 1.414 18.07 10.433.304 6.386 5.412 11.494 11.798 11.798 9.019.429 14.571 10.045 10.433 18.07-2.93 5.682-1.06 12.66 4.318 16.116 7.596 4.881 7.596 15.985 0 20.866-5.378 3.456-7.248 10.434-4.318 16.116 4.138 8.025-1.414 17.641-10.433 18.07-6.386.304-11.494 5.412-11.798 11.798-.429 9.019-10.045 14.571-18.07 10.433-5.682-2.93-12.66-1.06-16.116 4.318-4.881 7.596-15.985 7.596-20.866 0-3.456-5.378-10.434-7.248-16.116-4.318-8.025 4.138-17.641-1.414-18.07-10.433-.304-6.386-5.412-11.494-11.798-11.798-9.019-.429-14.571-10.045-10.433-18.07 2.93-5.682 1.06-12.66-4.318-16.116-7.596-4.881-7.596-15.985 0-20.866 5.378-3.456 7.248-10.434 4.318-16.116-4.138-8.025 1.414-17.641 10.433-18.07 6.386-.304 11.494-5.412 11.798-11.798.429-9.019 10.045-14.571 18.07-10.433 5.682 2.93 12.66 1.06 16.116-4.318 4.881-7.596 15.985-7.596 20.866 0z" fill="#80b4fb"/></g></g></g></g><path d="m349.435 437.324h-187.226c-3.938 0-7.131 3.193-7.131 7.131v20.507c0 3.938 3.193 7.131 7.131 7.131h187.226c3.938 0 7.131-3.193 7.131-7.131v-20.507c0-3.939-3.193-7.131-7.131-7.131z" fill="#f4f8f8"/><path d="m349.435 437.324h-33.474v34.768h33.474c3.938 0 7.131-3.193 7.131-7.131v-20.507c0-3.938-3.193-7.13-7.131-7.13z" fill="#e5ecf1"/></g><path d="m439.968 242.369c-5.378-3.456-7.248-10.434-4.318-16.116 4.138-8.026-1.414-17.641-10.433-18.07-6.385-.304-11.494-5.412-11.798-11.798-.429-9.019-10.045-14.571-18.07-10.433-5.682 2.93-12.66 1.06-16.116-4.318-4.881-7.596-15.985-7.596-20.866 0-.071.111-.152.211-.227.318 27.621 11.654 47.009 38.987 47.009 70.85s-19.388 59.196-47.009 70.85c.074.108.156.208.227.318 4.881 7.596 15.985 7.596 20.866 0 3.456-5.378 10.434-7.248 16.116-4.318 8.025 4.138 17.641-1.414 18.07-10.433.304-6.386 5.412-11.494 11.798-11.798 9.019-.429 14.571-10.045 10.433-18.07-2.93-5.682-1.06-12.66 4.318-16.116 7.596-4.881 7.596-15.984 0-20.866z" fill="#61a2f9"/><g><circle cx="368.799" cy="252.803" fill="#f4f8f8" r="36.257"/></g></g><g><g><path d="m147.578 444.455v20.507c0 8.067 6.563 14.63 14.631 14.63h112.366c4.143 0 7.5-3.357 7.5-7.5s-3.357-7.5-7.5-7.5h-111.997v-19.768h186.487v19.768h-39.413c-4.143 0-7.5 3.357-7.5 7.5s3.357 7.5 7.5 7.5h39.782c8.067 0 14.631-6.563 14.631-14.63v-20.507c0-8.067-6.563-14.631-14.631-14.631h-187.225c-8.067 0-14.631 6.564-14.631 14.631z"/><path d="m443.156 227.813c32.318-28.63 49.638-69.305 49.703-110.27.034-22.252-17.922-40.332-40.104-40.332h-55.146v-18.046h16.506c11.435 0 20.737-9.303 20.737-20.737v-17.69c.001-11.435-9.302-20.738-20.737-20.738h-316.23c-11.435 0-20.738 9.303-20.738 20.737v17.69c0 11.435 9.303 20.737 20.737 20.737h16.506v18.046h-55.145c-22.162 0-40.138 18.062-40.104 40.332.109 68.961 48.055 128.862 115.452 143.969l47.798 10.715c9.252 9.387 19.284 18.004 29.994 25.737v10.195c0 32.83-11.715 64.394-33.054 89.257h-48.269c-13.086 0-23.732 10.646-23.732 23.732v67.119c0 13.086 10.646 23.732 23.732 23.732h249.875c13.086 0 23.732-10.646 23.732-23.732v-67.119c0-13.086-10.646-23.732-23.732-23.732h-48.269c-21.34-24.863-33.054-56.427-33.054-89.257v-8.362c3.366 3.055 7.72 4.893 12.411 5.116 2.537.121 4.542 2.126 4.663 4.663.395 8.331 5.826 15.262 13.426 17.884v44.286c0 3.755 2.025 7.245 5.286 9.108 3.229 1.845 7.265 1.855 10.529-.07l22.869-13.474 22.869 13.474c3.235 1.907 7.271 1.934 10.53.07 3.26-1.863 5.285-5.354 5.285-9.108v-44.285c7.606-2.621 13.031-9.559 13.427-17.884.121-2.537 2.125-4.542 4.663-4.663 6.797-.323 12.886-4.034 16.288-9.927 3.403-5.894 3.572-13.023.454-19.072-1.164-2.258-.431-4.996 1.707-6.369 5.724-3.679 9.142-9.937 9.143-16.741 0-6.806-3.418-13.064-9.143-16.744-2.137-1.373-2.871-4.111-1.707-6.369.318-.615.592-1.244.842-1.878zm9.599-135.602c13.969 0 25.125 11.456 25.104 25.309-.052 33.548-13.01 66.765-36.925 91.655-6.375-9.145-15.161-7.958-17.268-8.976 22.446-21.198 34.604-50.156 35.599-78.978.2-5.742-4.442-10.483-10.16-10.483h-51.538c.075-4.237.029-4.661.043-18.525h55.145zm-55.928 33.525h47.142c-1.875 21.685-10.981 43.063-26.735 59.673-1.626-2.275-3.739-4.219-6.253-5.67-5.891-3.401-13.021-3.571-19.069-.453-1.882.968-4.084.605-5.564-.771 5.508-17.183 9.017-34.855 10.479-52.779zm-257.184 86.984c-39.982-11.459-68.087-46.221-71.612-86.984h47.153c2.485 30.241 10.802 59.853 24.459 86.984zm-1.768 34.155c-60.463-13.553-103.636-67.294-103.733-129.355-.022-13.866 11.146-25.309 25.104-25.309h55.146c.013 14.123-.029 14.619.042 18.525h-51.538c-5.731 0-10.359 4.757-10.16 10.482 1.782 51.576 38.116 96.131 89.192 107.58l7.695 1.725c4.826 7.812 10.078 15.341 15.765 22.52zm19.662-32.421c-18.414-32.914-28.146-70.246-28.146-107.961v-47.328h32.06c4.143 0 7.5-3.357 7.5-7.5s-3.357-7.5-7.5-7.5h-63.566c-3.164 0-5.737-2.574-5.737-5.737v-17.69c0-3.164 2.573-5.737 5.737-5.737h316.23c3.164 0 5.737 2.573 5.737 5.737v17.69c0 3.163-2.573 5.737-5.737 5.737h-217.589c-4.143 0-7.5 3.357-7.5 7.5s3.357 7.5 7.5 7.5h186.083v47.328c0 21.231-3.034 42.222-9.026 62.526-1.545-.38-3.149-.582-4.785-.582-6.805.001-13.063 3.419-16.741 9.143-1.373 2.138-4.113 2.869-6.37 1.707-6.049-3.12-13.177-2.951-19.071.454-5.893 3.402-9.604 9.491-9.927 16.288-.121 2.538-2.126 4.542-4.663 4.663-6.798.323-12.888 4.035-16.29 9.93-3.402 5.893-3.571 13.022-.452 19.069 1.163 2.258.43 4.996-1.707 6.369-5.726 3.68-9.144 9.938-9.143 16.744 0 6.805 3.418 13.063 9.143 16.741 2.137 1.373 2.871 4.112 1.707 6.369-1.347 2.613-2.078 5.427-2.203 8.257-5.163 3.823-10.486 7.441-15.891 10.76-13.07 8.027-29.309 8.026-42.379-.001-32.14-19.734-58.861-47.562-77.274-80.476zm232.133 206.694v67.119c0 4.815-3.917 8.732-8.732 8.732h-249.875c-4.815 0-8.732-3.917-8.732-8.732v-67.119c0-4.815 3.917-8.732 8.732-8.732h249.875c4.815 0 8.732 3.917 8.732 8.732zm-76.091-23.732h-115.158c18.768-25.861 28.964-57.006 28.964-89.257v-.195c8.849 5.328 18.73 7.998 28.614 7.997 9.884 0 19.766-2.67 28.614-7.999v.196c.001 32.252 10.198 63.397 28.966 89.258zm60.545-44.378c-3.284-1.937-7.367-1.936-10.649 0l-18.36 10.817v-37.263c.191-.091.384-.176.573-.273 2.258-1.165 4.996-.431 6.369 1.707 3.679 5.724 9.937 9.142 16.741 9.143h.001c6.805 0 13.063-3.418 16.743-9.144 1.374-2.136 4.114-2.868 6.37-1.706.188.097.381.182.571.272v37.263zm61.789-96.112c-8.678 5.577-11.657 16.695-6.93 25.862 1.106 2.147.29 4.001-.112 4.697-.402.697-1.599 2.33-4.011 2.445-10.304.489-18.443 8.629-18.933 18.933-.115 2.413-1.749 3.609-2.446 4.013-.696.401-2.548 1.218-4.696.111-9.167-4.726-20.286-1.749-25.862 6.93-1.306 2.032-3.319 2.252-4.124 2.252-.805-.001-2.817-.22-4.123-2.251-3.791-5.901-10.145-9.167-16.706-9.167-3.088 0-6.223.724-9.156 2.236-2.149 1.105-4.002.29-4.697-.112-.697-.402-2.33-1.599-2.445-4.012-.489-10.304-8.629-18.443-18.933-18.933-2.413-.115-3.609-1.748-4.012-2.445-.767-1.327-.946-3.079-.111-4.697 4.727-9.168 1.747-20.286-6.931-25.862-2.031-1.306-2.251-3.318-2.251-4.123s.219-2.817 2.252-4.124c8.677-5.576 11.655-16.693 6.93-25.862-1.107-2.146-.291-4 .111-4.696.402-.697 1.599-2.331 4.012-2.446 10.304-.489 18.443-8.629 18.933-18.933.115-2.412 1.748-3.608 2.445-4.011.696-.402 2.55-1.218 4.696-.112 9.169 4.727 20.286 1.748 25.863-6.93 1.306-2.032 3.318-2.251 4.123-2.252 1.581 0 3.172.771 4.124 2.252 5.577 8.678 16.695 11.656 25.862 6.93 2.147-1.106 3.999-.29 4.697.111 3.138 1.818 1.965 4.039 3.156 8.383.006.021.011.041.018.062 2.252 8.117 9.435 14.083 18.204 14.5 2.412.115 3.608 1.749 4.011 2.446.402.696 1.219 2.55.112 4.696-4.727 9.168-1.748 20.286 6.93 25.862 2.032 1.306 2.252 3.319 2.252 4.124-.001.804-.22 2.817-2.252 4.123z"/><path d="m368.799 209.045c-24.128 0-43.757 19.63-43.757 43.758s19.629 43.758 43.757 43.758 43.758-19.63 43.758-43.758-19.63-43.758-43.758-43.758zm0 72.516c-15.856 0-28.757-12.9-28.757-28.758s12.9-28.758 28.757-28.758 28.758 12.9 28.758 28.758-12.901 28.758-28.758 28.758z"/></g></g></g></svg>