<svg height="511pt" viewBox="0 -9 511.99932 511" width="511pt" xmlns="http://www.w3.org/2000/svg"><path d="m423.351562.671875c-31.867187-.03125-59.648437 17.40625-74.339843 43.261719l-.011719-.003906c-6.261719 7.734374-15.898438 7.753906-22.179688-.023438l-.003906.007812c-14.640625-25.890624-42.386718-43.382812-74.25-43.414062-47.167968-.046875-85.441406 38.144531-85.488281 85.304688-.015625 14.679687 1.902344 31.71875 5.328125 44.933593h129.464844c18.097656 0 32.902344 14.808594 32.902344 32.90625v129.777344l38.0625-62.0625c4.296874-7.121094 12.921874-10.359375 20.84375-7.824219 13.890624 4.441406 19.324218 16.367188 14.527343 30.132813l-.214843.617187c46.601562-35.402344 100.582031-91.933594 100.660156-168.136718.050781-47.15625-38.140625-85.429688-85.300782-85.476563zm0 0" fill="#ff6b6b"/><path d="m262.835938 1.132812c-3.367188-.40625-6.792969-.628906-10.269532-.632812-47.167968-.046875-85.441406 38.144531-85.488281 85.304688-.015625 14.679687 1.902344 31.71875 5.328125 44.933593h20.605469c-3.425781-13.214843-5.34375-30.253906-5.328125-44.933593.042968-43.660157 32.859375-79.609376 75.152344-84.671876zm0 0" fill="#ee5253"/><path d="m355.378906 259.824219v-96.179688c0-18.097656-14.808594-32.90625-32.902344-32.90625h-20.605468c18.097656 0 32.902344 14.808594 32.902344 32.90625v129.777344zm0 0" fill="#ee5253"/><path d="m304.960938 127.648438h-272.058594c-18.097656 0-32.902344 14.804687-32.902344 32.902343v163.261719c0 18.097656 14.804688 32.902344 32.902344 32.902344h29.363281c4.34375 0 8.339844 2.359375 10.441406 6.15625l27.828125 50.277344c2.417969 4.363281 8.691406 4.363281 11.105469 0l28.46875-51.433594c1.707031-3.085938 4.953125-5 8.476563-5h24.140624v-34.636719c0-6.171875 5-11.171875 11.167969-11.171875h73.839844c5.445313 0 9.855469 4.414062 9.855469 9.851562v10.433594h19.015625c15.753906-.160156 25.03125-6.863281 25.03125-8.019531 8.589843-8.660156 16.136719-18.292969 22.488281-28.707031l3.738281-6.195313v-127.71875c0-18.097656-14.804687-32.902343-32.902343-32.902343zm0 0" fill="#54a0ff"/><g fill="#338def"><path d="m20.605469 323.8125v-163.261719c0-18.097656 14.804687-32.902343 32.902343-32.902343h-20.605468c-18.097656 0-32.902344 14.804687-32.902344 32.902343v163.265625c0 18.09375 14.804688 32.902344 32.902344 32.902344h20.605468c-18.097656 0-32.902343-14.808594-32.902343-32.90625zm0 0"/><path d="m93.3125 362.871094c-2.101562-3.796875-6.097656-6.15625-10.441406-6.15625h-20.605469c4.34375 0 8.339844 2.359375 10.441406 6.15625l27.828125 50.277344c2.414063 4.363281 8.691406 4.363281 11.105469 0l4.75-8.582032zm0 0"/><path d="m288.195312 320.761719c0-5.441407-4.410156-9.851563-9.851562-9.851563h-20.605469c5.441407 0 9.851563 4.410156 9.851563 9.851563v10.429687h19.015625c.546875-.003906 1.0625-.035156 1.589843-.054687zm0 0"/><path d="m94.046875 258.632812c-9.347656 0-16.984375-7.621093-16.984375-16.984374 0-10.734376 9.882812-18.753907 20.3125-16.644532 7.578125 1.433594 13.65625 8.289063 13.65625 16.644532 0 9.335937-7.574219 16.984374-16.984375 16.984374zm0 0"/><path d="m165.359375 258.632812c-9.347656 0-16.984375-7.621093-16.984375-16.984374 0-10.734376 9.886719-18.753907 20.3125-16.644532 7.578125 1.433594 13.65625 8.289063 13.65625 16.644532.003906 9.335937-7.574219 16.984374-16.984375 16.984374zm0 0"/><path d="m236.675781 258.632812c-9.347656 0-16.984375-7.621093-16.984375-16.984374 0-10.734376 9.882813-18.753907 20.3125-16.644532 7.578125 1.433594 13.65625 8.289063 13.65625 16.644532 0 9.335937-7.574218 16.984374-16.984375 16.984374zm0 0"/></g><path d="m97.839844 241.648438c0-5.53125 2.628906-10.335938 6.597656-13.410157-2.058594-1.605469-4.46875-2.742187-7.0625-3.234375-10.429688-2.109375-20.3125 5.910156-20.3125 16.644532 0 9.363281 7.636719 16.984374 16.984375 16.984374 3.929687 0 7.523437-1.347656 10.398437-3.578124-4.007812-3.109376-6.605468-7.957032-6.605468-13.40625zm0 0" fill="#1c78d3"/><path d="m169.15625 241.648438c0-5.53125 2.628906-10.335938 6.597656-13.410157-2.058594-1.605469-4.46875-2.742187-7.0625-3.234375-10.429687-2.109375-20.3125 5.910156-20.3125 16.644532 0 9.363281 7.636719 16.984374 16.980469 16.984374 3.929687 0 7.527344-1.347656 10.398437-3.578124-4.003906-3.109376-6.601562-7.957032-6.601562-13.40625zm0 0" fill="#1c78d3"/><path d="m240.46875 241.648438c0-5.53125 2.628906-10.335938 6.597656-13.410157-2.058594-1.605469-4.46875-2.742187-7.0625-3.234375-10.429687-2.109375-20.3125 5.910156-20.3125 16.644532 0 9.363281 7.636719 16.984374 16.984375 16.984374 3.929688 0 7.527344-1.347656 10.398438-3.578124-4.007813-3.109376-6.605469-7.957032-6.605469-13.40625zm0 0" fill="#1c78d3"/><path d="m409.148438 329.132812h81.851562c11.121094 0 20.589844 8.644532 20.984375 19.757813.417969 11.667969-8.917969 21.253906-20.492187 21.253906h-12.355469c11.582031 0 20.910156 9.59375 20.496093 21.261719-.398437 11.109375-9.867187 19.753906-20.984374 19.753906h-12.351563c11.574219 0 20.90625 9.589844 20.488281 21.257813-.398437 11.113281-9.867187 19.753906-20.984375 19.753906h-8.546875c11.578125 0 20.910156 9.59375 20.492188 21.257813-.398438 11.113281-9.871094 19.753906-20.988282 19.753906h-102.777343c-36.9375 0-34.21875-29.414063-63.910157-29.414063-8.914062 0-13.742187 0-22.480468 0v-134.636719h19.015625c15.757812-.164062 25.03125-6.863281 25.03125-8.019531 8.589843-8.660156 16.136719-18.296875 22.492187-28.710937l38.707032-64.132813c4.296874-7.121093 12.921874-10.359375 20.84375-7.824219 13.890624 4.4375 21.386718 19.453126 16.585937 33.222657l-18.085937 51.902343c-3.871094 11.585938 4.753906 23.5625 16.96875 23.5625zm0 0" fill="#ffcdbf"/><path d="m456.757812 477.902344h-102.777343c-36.9375 0-34.21875-29.417969-63.910157-29.417969-8.914062 0-13.742187 0-22.480468 0v15.285156h22.480468c29.691407 0 26.972657 29.414063 63.910157 29.414063h102.777343c11.121094 0 20.589844-8.640625 20.988282-19.753906.109375-3-.4375-5.859376-1.492188-8.457032-3.125 7.628906-10.796875 12.929688-19.496094 12.929688zm0 0" fill="#ffbeab"/><path d="m412.523438 354.695312c-4.265626 0-7.726563 3.457032-7.726563 7.726563s3.457031 7.726563 7.726563 7.726563h66.675781c-.019531 0-.039063-.003907-.058594-.003907h12.351563c9.578124 0 17.605468-6.570312 19.859374-15.449219zm0 0" fill="#ffbeab"/><path d="m412.523438 395.710938c-4.265626 0-7.726563 3.457031-7.726563 7.726562 0 4.265625 3.457031 7.726562 7.726563 7.726562h53.832031c-.019531 0-.039063-.003906-.058594-.003906h12.351563c9.632812 0 18.015624-6.492187 20.34375-15.449218zm0 0" fill="#ffbeab"/><path d="m412.523438 436.722656c-4.265626 0-7.726563 3.460938-7.726563 7.726563 0 4.269531 3.457031 7.726562 7.726563 7.726562h44.789062c-.019531 0-.039062 0-.058594 0h8.546875c9.632813 0 18.015625-6.492187 20.347657-15.453125zm0 0" fill="#ffbeab"/><path d="m259.796875 308.847656h-39.410156v174.121094h39.410156c5.441406 0 9.855469-4.410156 9.855469-9.851562v-154.417969c-.003906-5.4375-4.414063-9.851563-9.855469-9.851563zm0 0" fill="#e4eaf8"/><path d="m259.796875 462.363281h-39.410156v20.605469h39.410156c5.441406 0 9.855469-4.410156 9.855469-9.851562v-20.605469c0 5.441406-4.414063 9.851562-9.855469 9.851562zm0 0" fill="#ccd2db"/><path d="m181.835938 308.847656c-6.171876 0-11.167969 5-11.167969 11.167969v151.78125c0 6.171875 5 11.171875 11.167969 11.171875h38.550781v-174.121094c-2.152344 0-36.390625 0-38.550781 0zm0 0" fill="#576574"/><path d="m170.664062 451.195312v20.601563c0 6.171875 5 11.171875 11.171876 11.171875h38.550781v-20.605469c-2.148438 0-36.390625 0-38.550781 0-6.171876 0-11.171876-5-11.171876-11.167969zm0 0" fill="#3e4b5a"/></svg>