<?xml version="1.0" encoding="iso-8859-1"?>
<!-- Generator: Adobe Illustrator 19.0.0, SVG Export Plug-In . SVG Version: 6.00 Build 0)  -->
<svg version="1.1" id="Capa_1" xmlns="http://www.w3.org/2000/svg" xmlns:xlink="http://www.w3.org/1999/xlink" x="0px" y="0px"
	 viewBox="0 0 512 512" style="enable-background:new 0 0 512 512;" xml:space="preserve">
<path style="fill:#689F38;" d="M9.045,156.243v182.284c0,47.741,39.061,86.802,86.802,86.802h52.081c12.152,0,21.7,9.548,21.7,21.7
	v52.081c0,7.812,9.548,11.284,14.756,6.076l67.705-67.705c7.812-7.812,19.096-13.02,30.381-13.02h133.675
	c47.741,0,86.802-39.061,86.802-86.802V155.375c0-47.741-39.061-86.802-86.802-86.802H94.978
	C48.106,69.441,9.045,107.634,9.045,156.243z"/>
<path style="fill:#37474F;" d="M178.36,512c-1.719,0-3.455-0.339-5.121-1.024c-4.904-2.031-7.951-6.58-7.951-11.866v-52.081
	c0-9.73-7.621-17.36-17.36-17.36H95.846c-50.258,0-91.142-40.884-91.142-91.142V156.243c0-49.816,40.458-91.09,90.196-92.01h321.253
	c50.258,0,91.142,40.884,91.142,91.142v182.284c0,50.258-40.884,91.142-91.142,91.142H282.479c-9.748,0-19.956,4.392-27.308,11.753
	l-67.705,67.705C185.001,510.707,181.728,512,178.36,512z M94.978,72.913c-44.955,0.833-81.594,38.219-81.594,83.33v182.284
	c0,45.467,36.995,82.462,82.462,82.462h52.081c14.6,0,26.041,11.432,26.041,26.041v52.081c0,2.5,1.805,3.524,2.587,3.845
	c1.328,0.547,3.281,0.625,4.757-0.842l67.705-67.705c8.949-8.949,21.457-14.288,33.453-14.288h133.675
	c45.467,0,82.462-36.995,82.462-82.462V155.375c0-45.467-36.995-82.462-82.462-82.462L94.978,72.913L94.978,72.913z"/>
<path style="fill:#9CCC65;" d="M9.045,121.522v182.284c0,47.741,39.061,86.802,86.802,86.802h52.081c12.152,0,21.7,9.548,21.7,21.7
	v52.081c0,7.812,9.548,11.284,14.756,6.076l67.705-67.705c7.812-7.812,19.096-13.02,30.381-13.02h133.675
	c47.741,0,86.802-39.061,86.802-86.802V120.654c0-47.741-39.061-86.802-86.802-86.802H94.978
	C48.106,34.721,9.045,72.913,9.045,121.522z"/>
<path style="fill:#37474F;" d="M178.36,477.279c-1.719,0-3.455-0.339-5.121-1.024c-4.904-2.031-7.951-6.58-7.951-11.866v-52.081
	c0-9.73-7.621-17.36-17.36-17.36H95.846c-50.258,0-91.142-40.884-91.142-91.142V121.522c0-49.816,40.458-91.09,90.196-92.01h321.253
	c50.258,0,91.142,40.884,91.142,91.142v182.284c0,50.258-40.884,91.142-91.142,91.142H282.479c-9.748,0-19.956,4.392-27.308,11.753
	l-67.705,67.705C185.001,475.986,181.728,477.279,178.36,477.279z M94.978,38.193c-44.955,0.833-81.594,38.219-81.594,83.33v182.284
	c0,45.467,36.995,82.462,82.462,82.462h52.081c14.6,0,26.041,11.432,26.041,26.041v52.081c0,2.5,1.805,3.524,2.587,3.845
	c1.328,0.547,3.281,0.625,4.757-0.842l67.705-67.705c8.949-8.949,21.457-14.288,33.453-14.288h133.675
	c45.467,0,82.462-36.995,82.462-82.462V120.654c0-45.467-36.995-82.462-82.462-82.462L94.978,38.193L94.978,38.193z"/>
<path style="fill:#689F38;" d="M234.729,39.061l-0.868,1.736c-12.152,23.436-32.117,42.533-56.421,52.949l-2.604,0.868
	c-6.944-7.812-17.36-13.02-28.645-13.02h-43.401c-21.7,0-39.061,17.36-39.061,39.061v34.721v78.122v34.721
	c0,21.7,17.36,39.061,39.061,39.061h43.401c11.284,0,21.7-5.208,28.645-12.152l22.568,9.548
	c18.228,7.812,38.193,12.152,58.157,12.152h155.375c21.7,0,39.061-17.36,39.061-39.061c0-6.076-1.736-12.152-4.34-17.36
	c2.604-5.208,4.34-11.284,4.34-17.36c0-7.812-2.604-15.624-6.944-21.7c4.34-6.076,6.944-13.888,6.944-21.7
	c0-7.812-2.604-15.624-6.944-21.7c4.34-6.076,6.944-13.888,6.944-21.7c0-7.812-2.604-15.624-6.944-21.7
	c4.34-6.076,6.944-13.888,6.944-21.7c0-21.7-17.36-39.061-39.061-39.061h-78.122V39.061H234.729z"/>
<path style="fill:#455A64;" d="M101.923,289.918h43.401c12.152,0,21.7-9.548,21.7-21.7V155.375c0-12.152-9.548-21.7-21.7-21.7
	h-43.401c-12.152,0-21.7,9.548-21.7,21.7v112.842C81.09,280.37,90.638,289.918,101.923,289.918z"/>
<path style="fill:#37474F;" d="M145.332,294.258h-43.401c-13.567,0-24.999-11.302-26.032-25.737l-0.009-113.146
	c0-14.6,11.44-26.041,26.041-26.041h43.401c14.6,0,26.041,11.44,26.041,26.041v112.842
	C171.373,282.826,159.932,294.258,145.332,294.258z M101.931,138.015c-9.739,0-17.36,7.621-17.36,17.36v112.842
	c0.694,9.592,8.324,17.36,17.36,17.36h43.401c9.739,0,17.36-7.63,17.36-17.36V155.375c0-9.739-7.621-17.36-17.36-17.36
	L101.931,138.015L101.931,138.015z"/>
<path style="fill:#ECEFF1;" d="M431.769,156.243c0-12.152-9.548-21.7-21.7-21.7c12.152,0,21.7-9.548,21.7-21.7
	s-9.548-21.7-21.7-21.7h-95.482V26.041c0-12.152-9.548-21.7-21.7-21.7h-8.68c-7.812,0-15.624,4.34-19.096,12.152l-15.624,31.249
	c-13.888,27.777-36.457,49.477-65.101,61.629l-16.492,7.812v121.522l36.457,15.624c16.492,6.944,33.853,10.416,51.213,10.416
	h155.375c12.152,0,21.7-9.548,21.7-21.7s-9.548-21.7-21.7-21.7c12.152,0,21.7-9.548,21.7-21.7s-9.548-21.7-21.7-21.7
	C422.221,177.944,431.769,167.527,431.769,156.243z"/>
<path style="fill:#37474F;" d="M410.937,269.085H255.562c-18.142,0-35.936-3.62-52.897-10.755l-36.483-15.633
	c-1.597-0.686-2.63-2.248-2.63-3.984V117.191c0-1.675,0.964-3.203,2.483-3.923l16.492-7.812
	c27.672-11.744,49.425-32.342,63.079-59.65l15.624-31.249C265.127,5.781,274.181,0,284.215,0h8.68
	c14.609,0,26.041,11.44,26.041,26.041v60.761h91.142c14.609,0,26.041,11.44,26.041,26.041c0,9.158-4.505,17.074-11.458,21.7
	c6.961,4.627,11.458,12.543,11.458,21.7c0,8.602-4.522,16.544-11.145,21.336c7.274,4.566,12.013,12.656,12.013,22.065
	c0,9.158-4.505,17.074-11.458,21.7c6.961,4.627,11.458,12.543,11.458,21.7C436.977,257.654,425.546,269.085,410.937,269.085z
	 M172.232,235.84l33.827,14.496c15.859,6.675,32.525,10.069,49.503,10.069h155.375c9.73,0,17.36-7.63,17.36-17.36
	c0-9.739-7.63-17.36-17.36-17.36c-2.396,0-4.34-1.944-4.34-4.34s1.944-4.34,4.34-4.34c9.73,0,17.36-7.621,17.36-17.36
	s-7.63-17.36-17.36-17.36c-2.396,0-4.34-1.944-4.34-4.34s1.944-4.34,4.34-4.34c8.628,0,16.492-8.272,16.492-17.36
	c0-9.739-7.63-17.36-17.36-17.36c-2.396,0-4.34-1.944-4.34-4.34c0-2.396,1.944-4.34,4.34-4.34c9.73,0,17.36-7.621,17.36-17.36
	s-7.63-17.36-17.36-17.36h-95.482c-2.396,0-4.34-1.944-4.34-4.34V26.041c0-9.739-7.63-17.36-17.36-17.36h-8.68
	c-6.597,0-12.543,3.759-15.121,9.574l-15.711,31.431c-14.591,29.174-37.854,51.196-67.289,63.686l-13.854,6.562V235.84z"/>
<path style="fill:#FFFFFF;" d="M191.337,130.203c-1.684,0-3.281-0.981-3.984-2.621c-0.946-2.196,0.061-4.748,2.266-5.703
	c31.205-13.498,56.638-37.429,71.62-67.402l16.518-32.16c1.094-2.135,3.724-2.96,5.842-1.875c2.127,1.094,2.977,3.715,1.875,5.842
	L268.981,58.4c-15.867,31.752-42.845,57.142-75.917,71.438C192.492,130.09,191.91,130.203,191.337,130.203z"/>
<path style="fill:#B0BEC5;" d="M423.089,260.405c-3.472,2.604-7.812,4.34-13.02,4.34H254.694c-17.36,0-34.721-3.472-51.213-10.416
	l-35.589-15.624v34.721l36.457,15.624c16.492,6.944,33.853,10.416,51.213,10.416h155.375c12.152,0,21.7-9.548,21.7-21.7
	C431.769,269.953,428.297,263.877,423.089,260.405z"/>
<path style="fill:#37474F;" d="M410.937,303.806H255.562c-18.142,0-35.936-3.62-52.897-10.755l-36.483-15.633
	c-1.597-0.686-2.63-2.257-2.63-3.993v-34.721c0-1.467,0.738-2.83,1.97-3.628c1.224-0.816,2.778-0.929,4.123-0.347l35.589,15.624
	c15.815,6.658,32.481,10.052,49.46,10.052h155.375c3.828,0,7.343-1.172,10.416-3.472c1.484-1.102,3.489-1.146,5.008-0.139
	c6.389,4.271,10.46,11.545,11.449,20.494C436.977,292.374,425.546,303.806,410.937,303.806z M172.232,270.561l33.827,14.496
	c15.859,6.684,32.525,10.069,49.503,10.069h155.375c9.73,0,17.36-7.63,17.36-17.36c-0.547-4.818-2.474-9.071-5.469-12.005
	c-3.889,2.205-8.159,3.324-12.751,3.324H254.702c-18.142,0-35.936-3.62-52.897-10.755l-29.565-12.977v25.207H172.232z"/>
<path style="fill:#78909C;" d="M101.923,255.197h43.401c12.152,0,21.7-9.548,21.7-21.7V120.654c0-12.152-9.548-21.7-21.7-21.7
	h-43.401c-12.152,0-21.7,9.548-21.7,21.7v112.842C81.09,245.649,90.638,255.197,101.923,255.197z"/>
<g>
	<path style="fill:#37474F;" d="M145.332,259.537h-43.401c-13.567,0-24.999-11.302-26.032-25.737l-0.009-113.146
		c0-14.6,11.44-26.041,26.041-26.041h43.401c14.6,0,26.041,11.44,26.041,26.041v112.842
		C171.373,248.105,159.932,259.537,145.332,259.537z M101.931,103.294c-9.739,0-17.36,7.621-17.36,17.36v112.842
		c0.694,9.6,8.324,17.36,17.36,17.36h43.401c9.739,0,17.36-7.63,17.36-17.36V120.654c0-9.739-7.621-17.36-17.36-17.36H101.931z"/>
	<path style="fill:#37474F;" d="M410.937,138.883h-26.041c-2.396,0-4.34-1.944-4.34-4.34c0-2.396,1.944-4.34,4.34-4.34h26.041
		c2.396,0,4.34,1.944,4.34,4.34C415.277,136.938,413.341,138.883,410.937,138.883z"/>
	<path style="fill:#37474F;" d="M410.937,182.284h-26.041c-2.396,0-4.34-1.944-4.34-4.34s1.944-4.34,4.34-4.34h26.041
		c2.396,0,4.34,1.944,4.34,4.34S413.341,182.284,410.937,182.284z"/>
	<path style="fill:#37474F;" d="M410.937,225.684h-26.041c-2.396,0-4.34-1.944-4.34-4.34s1.944-4.34,4.34-4.34h26.041
		c2.396,0,4.34,1.944,4.34,4.34S413.341,225.684,410.937,225.684z"/>
</g>
<circle style="fill:#ECEFF1;" cx="124.491" cy="134.543" r="17.36"/>
<path style="fill:#37474F;" d="M124.491,156.243c-11.961,0-21.7-9.739-21.7-21.7s9.739-21.7,21.7-21.7s21.7,9.739,21.7,21.7
	S136.461,156.243,124.491,156.243z M124.491,121.522c-7.179,0-13.02,5.842-13.02,13.02s5.842,13.02,13.02,13.02
	c7.178,0,13.02-5.842,13.02-13.02S131.67,121.522,124.491,121.522z"/>
<g>
</g>
<g>
</g>
<g>
</g>
<g>
</g>
<g>
</g>
<g>
</g>
<g>
</g>
<g>
</g>
<g>
</g>
<g>
</g>
<g>
</g>
<g>
</g>
<g>
</g>
<g>
</g>
<g>
</g>
</svg>
