<svg clip-rule="evenodd" fill-rule="evenodd" stroke-linejoin="round" stroke-miterlimit="2" viewBox="0 0 32 32" xmlns="http://www.w3.org/2000/svg"><g id="Flat-Color"><path d="m6 25v2.546c0 1.182.693 2.253 1.771 2.737s2.339.29 3.222-.494c0 0 5.103-4.536 5.103-4.536.183-.163.419-.253.664-.253h11.24c.796 0 1.559-.316 2.121-.879.563-.562.879-1.325.879-2.121 0-4.184 0-13.816 0-18 0-.796-.316-1.559-.879-2.121-.562-.563-1.325-.879-2.121-.879h-24c-.796 0-1.559.316-2.121.879-.563.562-.879 1.325-.879 2.121v18c0 .796.316 1.559.879 2.121.562.563 1.325.879 2.121.879z" fill="#ee4036"/><g fill="#f7fff7"><circle cx="8" cy="13" r="3"/><circle cx="16" cy="13" r="3"/><circle cx="24" cy="13" r="3"/></g></g></svg>