<svg id="Layer_1" enable-background="new 0 0 64 64" viewBox="0 0 64 64" xmlns="http://www.w3.org/2000/svg"><g id="Military_Medal_1_"><path clip-rule="evenodd" d="m29 27c.6 0 1 .4 1 1v2c0 1.1.9 2 2 2s2-.9 2-2v-2c0-.6.4-1 1-1s1 .4 1 1v2c0 2.2-1.8 4-4 4s-4-1.8-4-4v-2c0-.6.4-1 1-1z" fill="#f39c12" fill-rule="evenodd"/><path d="m16 3c0-1.7 1.3-3 3-3h5l8 1 8-1h5c1.7 0 3 1.3 3 3v14.5c0 1.3-.6 2.5-1.7 3.3l-6.3 4.4h-16l-6.3-4.5c-1.1-.8-1.7-2-1.7-3.3z" fill="#2980b9"/><path d="m28 0-1 12 1 16.1 1.6 1.2c.7.5 1.5.7 2.3.7h.1c.8 0 1.6-.3 2.3-.7l1.6-1.2 1.1-16.1-1-12z" fill="#e74c3c"/><path d="m24 25.2v-25.2h4v28 .1zm16-25.2h-4v28 .1l4-2.9z" fill="#ecf0f1"/><path d="m32 30c-.4 0-.8.3-.9.7l-3.8 11.3h-12.3c-.4 0-.8.3-.9.7l10.9 6.8-.7 1.7-3.8 11.5c-.1.4 0 .9.4 1.1s2.1-.8 2.1-.8l26-19s1.1-.9 1-1.3c-.2-.4-.6-.7-1-.7h-14z" fill="#f1c40f"/><path d="m32.9 30.7c-.1-.4-.5-.7-.9-.7v18.5l-17.9-5.8c-.1.4 0 .9.4 1.1l9.9 7.3 7.7-2.7-1.1 7.6 1 .7 9.9 7.1c.4.3.8.3 1.2 0 .3-.3.5-.7.4-1.1l-3.8-11.5-.7-1.7-7-1 4.7-6.5z" fill="#f39c12"/><path d="m32 48.5-11.1 15.3c.3.3.8.3 1.2 0l9.9-7.1v-8.2l7.7 2.7 9.9-7.3c.3-.3.5-.7.4-1.1z" fill="#e67e22"/></g></svg>