<svg id="Layer_2" height="512" viewBox="0 0 512 512" width="512" xmlns="http://www.w3.org/2000/svg" data-name="Layer 2"><g id="Social_Icon" data-name="Social Icon"><g id="Comment"><rect id="Background" fill="#1e88e5" height="512" rx="150" width="512"/><path d="m256 93.58c-104.93 0-190 68.87-190 153.82 0 35.84 15.14 68.81 40.52 94.96l-20.52 61.39c-2.91 8.69 5.35 16.98 14.05 14.1l84.46-27.91c22.07 7.26 46.2 11.27 71.49 11.27 104.93 0 190-68.87 190-153.82s-85.07-153.82-190-153.82zm-83.13 184.9c-17.16 0-31.08-13.91-31.08-31.08s13.91-31.08 31.08-31.08 31.08 13.91 31.08 31.08-13.91 31.08-31.08 31.08zm83.13 0c-17.16 0-31.08-13.91-31.08-31.08s13.91-31.08 31.08-31.08 31.08 13.91 31.08 31.08-13.91 31.08-31.08 31.08zm83.13 0c-17.16 0-31.08-13.91-31.08-31.08s13.91-31.08 31.08-31.08 31.08 13.91 31.08 31.08-13.91 31.08-31.08 31.08z" fill="#fff"/></g></g></svg>