<svg id="Capa_1" enable-background="new 0 0 512 512" height="512" viewBox="0 0 512 512" width="512" xmlns="http://www.w3.org/2000/svg"><g><g><g><g><g><g><g><g><g><g><circle cx="256" cy="256" fill="#2864f0" r="256"/></g></g></g></g></g></g></g></g></g><path d="m511.991 258.067-67.78-67.78-31.12 20.348-157.091-157.092-35.048 194.153-153.164-57.409 137.729 137.729-65.838 83.528 99.941 99.941c5.416.341 10.878.515 16.38.515 140.695 0 254.881-113.5 255.991-253.933z" fill="#27488f"/><g><path d="m256 53.543 58.161 117.846 130.051 18.898-94.106 91.73 22.215 129.526-116.321-61.154-116.321 61.154 22.215-129.526-94.106-91.73 130.051-18.898z" fill="#ffce00"/></g><g><path d="m256 350.426v-.037l116.321 61.154-22.215-129.526 94.106-91.73-130.051-18.898-58.161-117.846z" fill="#ffbc00"/></g><g><path d="m256 53.543v185.643l188.212-48.899-130.051-18.898z" fill="#ff9500"/></g><g><path d="m372.321 411.543-116.321-172.357-116.321 172.357 116.321-61.154z" fill="#fa0"/></g><g><path d="m372.321 411.543-116.321-172.357v.104 111.136-.037z" fill="#ff9500"/></g><g><path d="m197.839 171.389-130.051 18.898 188.212 48.899v-185.643" fill="#ffdc4a"/></g></g></svg>