<svg id="Layer_2_00000178920694706129856400000016718234533800867766_" enable-background="new 0 0 512 512" viewBox="0 0 512 512" xmlns="http://www.w3.org/2000/svg" xmlns:xlink="http://www.w3.org/1999/xlink"><linearGradient id="lg1"><stop offset=".5" stop-color="#f27a00"/><stop offset="1" stop-color="#fcd34f"/></linearGradient><linearGradient id="SVGID_1_" gradientTransform="matrix(-.587 -.587 -.707 .707 2637.659 -464.31)" gradientUnits="userSpaceOnUse" x1="1347.996" x2="1347.996" xlink:href="#lg1" y1="2130.461" y2="1963.156"/><linearGradient id="SVGID_00000018939933449393003380000008729647889433335450_" gradientTransform="matrix(-.414 -.72 -.867 .498 2585.771 58.623)" gradientUnits="userSpaceOnUse" x1="1082.215" x2="1132.075" xlink:href="#lg1" y1="2054.614" y2="1901.672"/><linearGradient id="SVGID_00000023278377567395491380000003123846029404121764_" gradientTransform="matrix(-.129 -.82 -.988 .155 2334.391 738.798)" gradientUnits="userSpaceOnUse" x1="864.205" x2="919.605" xlink:href="#lg1" y1="1898.536" y2="1739.156"/><linearGradient id="SVGID_00000000210249308416390520000012273455918905589945_" gradientTransform="matrix(.277 -.783 -.943 -.334 1733.797 1305.293)" gradientUnits="userSpaceOnUse" x1="572.376" x2="536.468" xlink:href="#lg1" y1="1694.371" y2="1534.219"/><linearGradient id="SVGID_00000093165510957642915820000000665240907376859020_" gradientTransform="matrix(.587 -.587 .707 .707 -2163.659 -464.31)" gradientUnits="userSpaceOnUse" x1="1380.369" x2="1380.369" xlink:href="#lg1" y1="2157.331" y2="1990.026"/><linearGradient id="SVGID_00000163070351722710351870000014445107528727157680_" gradientTransform="matrix(.414 -.72 .867 .498 -2111.771 58.622)" gradientUnits="userSpaceOnUse" x1="1105.024" x2="1154.884" xlink:href="#lg1" y1="2087.563" y2="1934.621"/><linearGradient id="SVGID_00000053539644228499260130000005418103081036590011_" gradientTransform="matrix(.129 -.82 .988 .155 -1860.391 738.798)" gradientUnits="userSpaceOnUse" x1="871.311" x2="926.711" xlink:href="#lg1" y1="1936.075" y2="1776.695"/><linearGradient id="SVGID_00000144324368294074174670000007369407008347551914_" gradientTransform="matrix(-.277 -.783 .943 -.334 -1259.797 1305.293)" gradientUnits="userSpaceOnUse" x1="557.108" x2="521.2" xlink:href="#lg1" y1="1730.196" y2="1570.044"/><linearGradient id="SVGID_00000115476533738990494550000005786140155911295116_" gradientTransform="matrix(1 0 0 -1 0 513.17)" gradientUnits="userSpaceOnUse" x1="255.99" x2="255.99" y1="75.74" y2="438.59"><stop offset="0" stop-color="#ffbf00"/><stop offset="1" stop-color="#ffdf3d"/></linearGradient><linearGradient id="SVGID_00000147931187403683884720000018129045638833203093_" gradientTransform="matrix(1 0 0 -1 0 513.17)" gradientUnits="userSpaceOnUse" x1="256" x2="256" y1="100.745" y2="413.585"><stop offset="0" stop-color="#ff8c00"/><stop offset="1" stop-color="#fcc000"/></linearGradient><linearGradient id="SVGID_00000101782469880433309910000006270962785262588331_" gradientTransform="matrix(1 0 0 -1 0 513.17)" gradientUnits="userSpaceOnUse" x1="256" x2="256" y1="162.165" y2="352.165"><stop offset="0" stop-color="#ffe187"/><stop offset="1" stop-color="#fff8e0"/></linearGradient><linearGradient id="SVGID_00000024723494214646913740000005781620492034361499_" gradientTransform="matrix(1 0 0 -1 0 513.17)" gradientUnits="userSpaceOnUse" x1="256.005" x2="256.005" y1="194.455" y2="319.895"><stop offset="0" stop-color="#fd7600"/><stop offset=".71" stop-color="#fdbf30"/></linearGradient><g id="Icon"><g id="_107"><g><g><path d="m365.2 157.9c24.5-24.5 62.8-28.7 83.1-29 8.1-.1 14 5.8 13.9 13.9-.4 20.2-4.5 58.5-29 83.1s-62.8 28.7-83.1 29c-8.1.1-14-5.8-13.9-13.9.4-20.2 4.5-58.6 29-83.1z" fill="url(#SVGID_1_)"/><path d="m388.4 206.1c30.1-17.3 68.1-11.3 87.8-6.4 7.9 2 12 9.2 9.8 17-5.6 19.4-19.6 55.3-49.7 72.6s-68.1 11.3-87.8 6.4c-7.9-2-12-9.2-9.8-17 5.6-19.4 19.7-55.3 49.7-72.6z" fill="url(#SVGID_00000018939933449393003380000008729647889433335450_)"/><path d="m401.8 248.7c34.3-5.4 67.7 13.8 84.2 25.4 6.7 4.7 8 12.9 3 19.4-12.2 16.1-38.1 44.6-72.4 50s-67.7-13.8-84.2-25.4c-6.7-4.7-8-12.9-3-19.4 12.2-16.1 38.1-44.6 72.4-50z" fill="url(#SVGID_00000023278377567395491380000003123846029404121764_)"/><path d="m381.6 288c32.7 11.6 53 44.3 62 62.4 3.6 7.3.9 15.1-6.5 18.5-18.4 8.4-54.8 21.2-87.5 9.6s-53-44.4-62-62.4c-3.6-7.3-.9-15.2 6.5-18.5 18.4-8.5 54.8-21.2 87.5-9.6z" fill="url(#SVGID_00000000210249308416390520000012273455918905589945_)"/></g><g><path d="m146.8 157.9c-24.5-24.5-62.8-28.7-83.1-29-8.1-.1-14 5.8-13.9 13.9.4 20.2 4.5 58.5 29 83.1s62.8 28.7 83.1 29c8.1.1 14-5.8 13.9-13.9-.4-20.2-4.5-58.6-29-83.1z" fill="url(#SVGID_00000093165510957642915820000000665240907376859020_)"/><path d="m123.6 206.1c-30.1-17.3-68.2-11.3-87.8-6.4-7.9 2-12 9.2-9.8 17 5.6 19.4 19.6 55.3 49.7 72.6s68.2 11.3 87.8 6.4c7.9-2 12.1-9.2 9.8-17-5.7-19.4-19.7-55.3-49.7-72.6z" fill="url(#SVGID_00000163070351722710351870000014445107528727157680_)"/><path d="m110.2 248.7c-34.2-5.4-67.6 13.8-84.2 25.4-6.7 4.7-8 12.9-3 19.4 12.2 16.1 38.1 44.6 72.4 50s67.7-13.8 84.2-25.4c6.7-4.7 7.9-12.9 3.1-19.4-12.3-16.1-38.2-44.6-72.5-50z" fill="url(#SVGID_00000053539644228499260130000005418103081036590011_)"/><path d="m130.4 288c-32.7 11.6-53 44.3-62 62.4-3.6 7.3-.8 15.1 6.6 18.5 18.4 8.4 54.8 21.2 87.5 9.6s53-44.4 62-62.4c3.6-7.3.9-15.2-6.6-18.5-18.4-8.5-54.8-21.2-87.5-9.6z" fill="url(#SVGID_00000144324368294074174670000007369407008347551914_)"/></g></g><g><path d="m237 78.3-92.2 37.8c-18.8 7.7-31 26-31 46.3v121.2c0 109 95.1 143.4 129.8 152.3 8.2 2.1 16.7 2.1 24.9 0 34.7-8.9 129.8-43.3 129.8-152.3v-121.2c0-20.3-12.3-38.6-31-46.3l-92.3-37.8c-12.2-5-25.8-5-38 0z" fill="url(#SVGID_00000115476533738990494550000005786140155911295116_)"/><path d="m256 412.4c-2.1 0-4.2-.3-6.2-.8-14.9-3.8-43.7-13.3-68.2-33.6-28.4-23.6-42.9-55.4-42.9-94.4v-121.2c0-10.2 6.1-19.3 15.5-23.1l92.2-37.8c3-1.2 6.2-1.9 9.5-1.9s6.5.6 9.5 1.9l92.2 37.8c9.4 3.9 15.5 12.9 15.5 23.1v121.2c0 39.1-14.4 70.8-42.9 94.4-24.5 20.3-53.2 29.8-68.2 33.6-1.8.6-3.9.8-6 .8z" fill="url(#SVGID_00000147931187403683884720000018129045638833203093_)"/></g><g><circle cx="256" cy="256" fill="url(#SVGID_00000101782469880433309910000006270962785262588331_)" r="95"/><path d="m218.7 318.7v-17.7l22.3-2.8v-79.2l-22.5-.3v-16.7l52.6-8.8v105l22.3 2.8v17.7z" fill="url(#SVGID_00000024723494214646913740000005781620492034361499_)"/></g></g></g></svg>