<svg id="svg8" height="512" viewBox="0 0 48 48" width="512" xmlns="http://www.w3.org/2000/svg" xmlns:xlink="http://www.w3.org/1999/xlink" xmlns:svg="http://www.w3.org/2000/svg"><linearGradient id="linearGradient4476" gradientUnits="userSpaceOnUse" x1="2" x2="46" xlink:href="#linearGradient4474" y1="2" y2="46"/><linearGradient id="lg1"><stop id="stop4470" offset="0" stop-color="#0ff"/><stop id="stop4472" offset="1" stop-color="#00f"/></linearGradient><linearGradient id="linearGradient4474" xlink:href="#lg1"/><linearGradient id="linearGradient4524" gradientUnits="userSpaceOnUse" x1="2.003" x2="46.003" xlink:href="#linearGradient4474" y1="2.001" y2="46.001"/><linearGradient id="linearGradient4540" gradientUnits="userSpaceOnUse" x1="2.464" x2="46.464" xlink:href="#linearGradient4474" y1="2" y2="46"/><linearGradient id="linearGradient1381" gradientTransform="scale(.998 1.002)" gradientUnits="userSpaceOnUse" x1="2.004" x2="38.073" xlink:href="#lg1" y1="2.996" y2="2.996"/><linearGradient id="linearGradient4550" gradientUnits="userSpaceOnUse" x1="2.045" x2="46.045" xlink:href="#linearGradient4474" y1="4.433" y2="48.433"/><linearGradient id="linearGradient1369" gradientUnits="userSpaceOnUse" x1="2" x2="46" xlink:href="#linearGradient4474" y1="1.976" y2="45.976"/><linearGradient id="linearGradient1351" gradientUnits="userSpaceOnUse" x1="2" x2="46" xlink:href="#linearGradient4474" y1="2" y2="44"/><linearGradient id="linearGradient1339" gradientUnits="userSpaceOnUse" x1="2" x2="46" xlink:href="#linearGradient4474" y1="4" y2="48"/><linearGradient id="linearGradient1293" gradientUnits="userSpaceOnUse" x1="2" x2="46" xlink:href="#linearGradient4474" y1="2.083" y2="46.083"/><linearGradient id="linearGradient1283" gradientUnits="userSpaceOnUse" x1="1.937" x2="45.937" xlink:href="#linearGradient4474" y1="3.144" y2="47.144"/><linearGradient id="linearGradient8102" gradientUnits="userSpaceOnUse" x1="2" x2="46" xlink:href="#linearGradient4474" y1="3" y2="46"/><linearGradient id="linearGradient8068" gradientUnits="userSpaceOnUse" x1="2" x2="46" xlink:href="#linearGradient4474" y1="2.289" y2="46.289"/><linearGradient id="linearGradient4668" gradientUnits="userSpaceOnUse" x1="242" x2="286" xlink:href="#linearGradient4474" y1="122" y2="166"/><linearGradient id="linearGradient4638" gradientUnits="userSpaceOnUse" x1="5" x2="49" xlink:href="#linearGradient4474" y1="2" y2="46"/><linearGradient id="linearGradient4630" gradientUnits="userSpaceOnUse" x1="2" x2="46" xlink:href="#linearGradient4474" y1="1.998" y2="45.998"/><linearGradient id="linearGradient4602" gradientUnits="userSpaceOnUse" x1="2" x2="46" xlink:href="#linearGradient4474" y1="1" y2="45"/><g id="g1244" fill="url(#linearGradient8068)" transform="translate(0 -.288)"><path id="rect1183" d="m36.259766 3.58172c-3.814 0-7.11597 2.21398-8.712891 5.41797h-21.546875c-1.223955 0-2.288004.44284-2.986328 1.20117-.698325.75833-1.013672 1.76944-1.013672 2.79883v21.77148c0 2.1987 1.800365 4.00171 4 4h3v4.58985c0 .66766.425217 1.2482.962891 1.49218.537673.24398 1.255344.18185 1.757812-.25781l6.654297-5.82422h17.625c2.198703 0 4-1.8013 4-4v-12.45898c3.518581-1.4705 6-4.94717 6-8.99024 0-5.36726-4.372974-9.74023-9.740234-9.74023zm0 2c4.28638 0 7.740234 3.45385 7.740234 7.74023s-3.453854 7.74024-7.740234 7.74024-7.738282-3.45386-7.738282-7.74024c.000001-4.28638 3.451902-7.74023 7.738282-7.74023zm-27.259766 11.61133h14a1 1 0 0 1 1 1 1 1 0 0 1 -1 1h-14a1 1 0 0 1 -1-1 1 1 0 0 1 1-1zm0 6h19a1 1 0 0 1 1 1 1 1 0 0 1 -1 1h-19a1 1 0 0 1 -1-1 1 1 0 0 1 1-1zm0 6h14a1 1 0 0 1 1 1 1 1 0 0 1 -1 1h-14a1 1 0 0 1 -1-1 1 1 0 0 1 1-1z" font-variant-ligatures="normal" font-variant-position="normal" font-variant-caps="normal" font-variant-numeric="normal" font-variant-alternates="normal" font-variant-east-asian="normal" font-feature-settings="normal" font-variation-settings="normal" text-indent="0" text-align="start" text-decoration-line="none" text-decoration-style="solid" text-decoration-color="#000000" text-transform="none" text-orientation="mixed" white-space="normal" shape-padding="0" shape-margin="0" inline-size="0" isolation="auto" mix-blend-mode="normal" solid-color="#000000" solid-opacity="1" vector-effect="none"/><path id="path1197" d="m36.259766 8.57586a1 1 0 0 0 -1 1v2.74609h-2.746094a1 1 0 0 0 -1 1 1 1 0 0 0 1 1h2.746094v2.7461a1 1 0 0 0 1 1 1 1 0 0 0 1-1v-2.7461h2.746093a1 1 0 0 0 1-1 1 1 0 0 0 -1-1h-2.746093v-2.74609a1 1 0 0 0 -1-1z" font-variant-ligatures="normal" font-variant-position="normal" font-variant-caps="normal" font-variant-numeric="normal" font-variant-alternates="normal" font-variant-east-asian="normal" font-feature-settings="normal" font-variation-settings="normal" text-indent="0" text-align="start" text-decoration-line="none" text-decoration-style="solid" text-decoration-color="#000000" text-transform="none" text-orientation="mixed" white-space="normal" shape-padding="0" shape-margin="0" inline-size="0" isolation="auto" mix-blend-mode="normal" solid-color="#000000" solid-opacity="1" vector-effect="none"/></g></svg>