<svg clip-rule="evenodd" fill-rule="evenodd" height="512" image-rendering="optimizeQuality" shape-rendering="geometricPrecision" text-rendering="geometricPrecision" viewBox="0 0 1707 1707" width="512" xmlns="http://www.w3.org/2000/svg"><g id="Layer_x0020_1"><path d="m738 1613c-5 0-9-2-12-5l-241-240h-417c-38 0-68-31-68-68v-888c0-38 31-68 68-68h1340c38 0 68 30 68 68v888c0 37-30 68-68 68h-418l-240 240c-3 3-7 5-12 5z" fill="#ffb332"/><path d="m1408 1273h-418l-240 240c-6 7-17 7-24 0l-241-240h-417c-38 0-68-31-68-68v95c0 37 30 68 68 68h417l241 240c7 7 18 7 24 0l240-240h418c38 0 68-31 68-68v-95c0 38-30 68-68 68z" fill="#fb9630"/><path d="m1051 344h357c38 0 68 30 68 68v333c-245 61-472-153-425-401z" fill="#fb9630"/><path d="m1393 722c-173 0-314-141-314-314s141-314 314-314 314 141 314 314-141 314-314 314z" fill="#d4034f"/><g fill="#fefefe"><path d="m1398 564c-11 0-20-9-20-21v-222c-21 21-41 50-60 32-8-8-8-21 0-29l66-66c12-13 34-4 34 14v271c1 12-9 21-20 21z"/><path d="m1453 564h-110c-27 0-27-41 0-41h110c27 0 27 41 0 41z"/><path d="m963 624h-516c-26 0-26-41 0-41h516c27 0 27 41 0 41z"/><path d="m1146 873h-816c-26 0-26-41 0-41h816c27 0 27 41 0 41z"/><path d="m1029 1122h-582c-26 0-26-41 0-41h582c27 0 27 41 0 41z"/></g></g></svg>