<svg enable-background="new 0 0 64 64" viewBox="0 0 64 64" xmlns="http://www.w3.org/2000/svg" xmlns:xlink="http://www.w3.org/1999/xlink"><linearGradient id="lg1"><stop offset="0" stop-color="#fef156"/><stop offset=".1578" stop-color="#feeb53"/><stop offset=".3666" stop-color="#feda4c"/><stop offset=".5808" stop-color="#ffc242"/><stop offset=".7496" stop-color="#fea241"/><stop offset="1" stop-color="#fc753f"/></linearGradient><linearGradient id="SVGID_1_" gradientUnits="userSpaceOnUse" x1="18.207" x2="23.655" xlink:href="#lg1" y1="54.04" y2="40.197"/><linearGradient id="SVGID_00000084492225558595120920000015243020978477984444_" gradientTransform="matrix(-1 0 0 1 64 0)" gradientUnits="userSpaceOnUse" x1="18.207" x2="23.655" xlink:href="#lg1" y1="54.04" y2="40.197"/><linearGradient id="SVGID_00000165202602170018434360000017854503937179988391_" gradientUnits="userSpaceOnUse" x1="32" x2="32" y1="3" y2="45"><stop offset="0" stop-color="#a4eeff"/><stop offset=".8359" stop-color="#02c0fc"/><stop offset="1" stop-color="#27a6ff"/></linearGradient><linearGradient id="lg2"><stop offset="0" stop-color="#a4eeff"/><stop offset=".7319" stop-color="#02c0fc"/><stop offset="1" stop-color="#27a6ff"/></linearGradient><linearGradient id="SVGID_00000155847797151002426590000017762095794232671880_" gradientUnits="userSpaceOnUse" x1="9" x2="55" xlink:href="#lg2" y1="24" y2="24"/><linearGradient id="SVGID_00000088836394938238596430000006213477402908257956_" gradientUnits="userSpaceOnUse" x1="16" x2="48" xlink:href="#lg2" y1="24" y2="24"/><linearGradient id="SVGID_00000137832621135420949170000000493355909863700140_" gradientUnits="userSpaceOnUse" x1="45.401" x2="27.636" y1="38.321" y2="20.556"><stop offset=".2058" stop-color="#27a6ff" stop-opacity="0"/><stop offset=".395" stop-color="#2793ff" stop-opacity=".104"/><stop offset=".7491" stop-color="#2767ff" stop-opacity=".3"/></linearGradient><g id="Layer_1"/><g id="Badge"/><g id="Basketball_Trophy"/><g id="Certificate_00000155142465879896954940000007463677100507110064_"/><g id="Star_Badge"/><g id="Police_Badge"/><g id="Flag"/><g id="Medal_00000057864904577975597920000015771584254612611517_"/><g id="Tophy_Award"/><g id="Medal_00000142146757898845982370000005096811746825199502_"/><g id="Certificate"/><g id="Star_Trophy"/><g id="Award"/><g id="Third_Position"/><g id="Second_Position"><g><g clip-rule="evenodd" fill-rule="evenodd"><path d="m33.813 45.845-7.461 16c-.312.669-.966 1.111-1.703 1.152-.736.041-1.435-.327-1.819-.958l-4.928-8.102-9.374 1.433c-.729.111-1.461-.188-1.903-.778s-.524-1.376-.212-2.044l7.342-15.745c.461-.99 1.632-1.426 2.629-.98l16.433 7.351c.489.219.87.625 1.057 1.127s.165 1.059-.061 1.544z" fill="url(#SVGID_1_)"/><path d="m30.187 45.845 7.461 16c.312.669.966 1.111 1.703 1.152.736.041 1.435-.327 1.819-.958l4.928-8.102 9.374 1.433c.729.111 1.461-.188 1.903-.778s.524-1.376.212-2.044l-7.342-15.745c-.461-.99-1.632-1.426-2.629-.98l-16.433 7.351c-.489.219-.87.625-1.057 1.127-.187.502-.165 1.059.061 1.544z" fill="url(#SVGID_00000084492225558595120920000015243020978477984444_)"/><path d="m32 3c11.59 0 21 9.41 21 21s-9.41 21-21 21-21-9.41-21-21 9.41-21 21-21z" fill="url(#SVGID_00000165202602170018434360000017854503937179988391_)"/><path d="m32 1c12.694 0 23 10.306 23 23s-10.306 23-23 23-23-10.306-23-23 10.306-23 23-23zm0 4c-10.486 0-19 8.514-19 19s8.514 19 19 19 19-8.514 19-19-8.514-19-19-19z" fill="url(#SVGID_00000155847797151002426590000017762095794232671880_)"/></g><path d="m48 24c0 1.45-.2 2.86-.57 4.2-1.61 5.95-6.58 10.52-12.74 11.56-.87.16-1.77.24-2.69.24-8.82 0-16-7.18-16-16s7.18-16 16-16 16 7.18 16 16z" fill="url(#SVGID_00000088836394938238596430000006213477402908257956_)"/><path clip-rule="evenodd" d="m47.43 28.2c-1.61 5.95-6.58 10.52-12.74 11.56l-8.41-8.41 7.53-1.47-7.48-7.48 3.67-4.36 6-1.27z" fill="url(#SVGID_00000137832621135420949170000000493355909863700140_)" fill-rule="evenodd"/><path d="m36.25 32h-8.5c-.892 0-1.675-.591-1.922-1.448-.246-.857.105-1.774.861-2.248 2.96-1.855 7.061-5.425 7.061-7.305 0-1.103-.897-2-2-2s-2 .897-2 2c0 1.104-.896 2-2 2s-2-.896-2-2c0-3.309 2.691-6 6-6s6 2.691 6 6c0 2.506-1.978 5.022-4.1 7h2.6c1.104 0 2 .896 2 2s-.896 2.001-2 2.001z" fill="#e8f8fc"/></g></g><g id="Winner"/><g id="Diploma"/><g id="Trophy"/><g id="Medal_00000005238149921129290700000016698065652002176917_"/><g id="Medal_00000142871562636648070520000015215049010245528497_"/><g id="Medal"/><g id="Layer_22" display="none"/></svg>