<svg id="Layer_1" enable-background="new 0 0 68 68" viewBox="0 0 68 68" xmlns="http://www.w3.org/2000/svg"><g><g><g><g><path d="m52.8363495 17.1650391v39.6699219c0 5.0097656-4.0700684 9.0800781-9.0800781 9.0800781h-32.709961c-5.0100093 0-9.0800781-4.0703125-9.0800781-9.0800781v-39.6699219c0-5.0102539 4.0700684-9.0800781 9.0800781-9.0800781h32.7099609c5.0100098-.0000001 9.0800782 4.0698242 9.0800782 9.0800781z" fill="#454545"/><path d="m43.7562714 8.0849609h-16.7531739v57.8300781h16.7531738c5.0100098 0 9.0800781-4.0703125 9.0800781-9.0800781v-39.6699218c.0000001-5.0102539-4.0700683-9.0800782-9.080078-9.0800782z" fill="#2c2c2c"/><path d="m46.8363495 17.1650391v39.6699219c0 1.7001953-1.3798828 3.0800781-3.0800781 3.0800781h-32.709961c-1.6999512 0-3.0800776-1.3798828-3.0800776-3.0800781v-39.6699219c0-1.7001953 1.3801265-3.0800781 3.0800776-3.0800781h32.7099609c1.7001954-.0000001 3.0800782 1.3798828 3.0800782 3.0800781z" fill="#fff"/><path d="m46.8363495 17.1650391v39.6699219c0 1.7001953-1.3798828 3.0800781-3.0800781 3.0800781h-16.75v-45.8300782h16.75c1.7001953 0 3.0800781 1.3798829 3.0800781 3.0800782z" fill="#e8edf2"/><path d="m39.5262909 12.8349609v1.3798828c0 1.3100586-1.0698242 2.3701172-2.3798828 2.3701172h-19.5c-1.3100586 0-2.3701172-1.0600586-2.3701172-2.3701172v-1.3798828c0-2.9101563 2.1801758-5.2998047 5-5.6298828v-.040039c0-2.7998047 3.1899414-5.0800781 7.1201172-5.0800781 3.9399414 0 7.1298828 2.2802734 7.1298828 5.0800781v.0400391c2.8200684.3300781 5 2.7299804 5 5.6298827z" fill="#108be1"/><path d="m34.5262909 7.2050781v-.040039c0-2.7543945-3.0888672-5.0009766-6.9399414-5.0732422v14.4931641h9.5600586c1.3100586 0 2.3798828-1.0600586 2.3798828-2.3701172v-1.3798828c0-2.8999024-2.1799316-5.2998047-5-5.6298829z" fill="#0c6bc3"/><path d="m33.7162323 11.375c0 .8798828-.7099609 1.5898438-1.579834 1.5898438h-9.4699707c-.8701172 0-1.5800781-.7099609-1.5800781-1.5898438 0-.8701172.7099609-1.5800781 1.5800781-1.5800781h9.4699707c.8698731 0 1.579834.7099609 1.579834 1.5800781z" fill="#fff"/><path d="m33.7162323 11.375c0 .8798828-.7099609 1.5898438-1.579834 1.5898438h-4.5500488v-3.1699219h4.5500488c.8698731 0 1.579834.7099609 1.579834 1.5800781z" fill="#e8edf2"/><path d="m6.5588365 27.6130466v12.4389477c0 .9132767-.7487273 1.6530838-1.6620045 1.6530838s-1.6530857-.7398071-1.6530857-1.6530838v-12.4389477c0-.9132767.7398081-1.6530857 1.6530857-1.6530857s1.6620045.7398091 1.6620045 1.6530857z" fill="#7d7d7d"/></g></g><g><g><path d="m21.8985596 35.7133675v5.1853333c0 1.254715-1.0179138 2.2728195-2.2728214 2.2728195h-5.1851416c-1.254715 0-2.2728224-1.0181046-2.2728224-2.2728195v-5.1853333c0-1.2547188 1.0181074-2.2728233 2.2728224-2.2728233h5.1851416c1.2549076-.0000001 2.2728214 1.0181045 2.2728214 2.2728233z" fill="#fabb53"/></g><path d="m21.8985596 37.9784813v2.9202194c0 1.254715-1.0179138 2.2728195-2.2728214 2.2728195h-5.1851416c-1.254715 0-2.2728224-1.0181046-2.2728224-2.2728195v-2.9202194z" fill="#f99944"/><path d="m21.8985596 22.3625565v5.1853352c0 1.254715-1.0179138 2.2728214-2.2728214 2.2728214h-5.1851416c-1.254715 0-2.2728224-1.0181065-2.2728224-2.2728214v-5.1853352c0-1.254715 1.0181074-2.2728214 2.2728224-2.2728214h5.1851416c1.2549076-.0000001 2.2728214 1.0181064 2.2728214 2.2728214z" fill="#fabb53"/><g><path d="m19.5537491 37.8313217-2.3597202 2.3518219c-.1815033.1815033-.434103.2843933-.694603.2843933-.2603073 0-.512907-.10289-.6944084-.2843933l-1.2865067-1.2863159c-.3867044-.3865089-.3867044-1.0100136 0-1.3969078.3867035-.3865128 1.0102072-.3865128 1.3969107 0l.5840044.5919037 1.6574116-1.6574097c.3867035-.3865128 1.0102081-.3865128 1.3969116 0 .3788032.3868942.3788032 1.0103989 0 1.3969078z" fill="#fff"/></g><path d="m21.8985596 24.6276722v2.9202194c0 1.254715-1.0179138 2.2728214-2.2728214 2.2728214h-5.1851416c-1.254715 0-2.2728224-1.0181065-2.2728224-2.2728214v-2.9202194z" fill="#f99944"/></g><g><g><path d="m21.8985596 49.0641747v5.1853333c0 1.254715-1.0179138 2.2728233-2.2728214 2.2728233h-5.1851416c-1.254715 0-2.2728224-1.0181084-2.2728224-2.2728233v-5.1853333c0-1.254715 1.0181074-2.2728233 2.2728224-2.2728233h5.1851416c1.2549076-.0000001 2.2728214 1.0181083 2.2728214 2.2728233z" fill="#fabb53"/></g><path d="m21.8985596 51.3292885v2.9202194c0 1.254715-1.0179138 2.2728233-2.2728214 2.2728233h-5.1851416c-1.254715 0-2.2728224-1.0181084-2.2728224-2.2728233v-2.9202194z" fill="#f99944"/><g><path d="m19.5537491 51.1821327-2.3597202 2.3518181c-.1815033.1815033-.434103.2843933-.694603.2843933-.2603073 0-.512907-.10289-.6944084-.2843933l-1.2865067-1.2863121c-.3867044-.3865128-.3867044-1.0100174 0-1.3969116.3867035-.3865128 1.0102072-.3865128 1.3969107 0l.5840044.5919037 1.6574116-1.6574097c.3867035-.3865128 1.0102081-.3865128 1.3969116 0 .3788032.386898.3788032 1.0103989 0 1.3969116z" fill="#fff"/></g></g><g><g><g><path d="m41.4510002 36.8603745h-15.6044903c-.6539459 0-1.1838093-.530056-1.1838093-1.1838112s.5298634-1.1838074 1.1838093-1.1838074h15.6044903c.6539459 0 1.1838074.5300522 1.1838074 1.1838074s-.5298615 1.1838112-1.1838074 1.1838112z" fill="#c4d3e4"/></g><g><path d="m35.6984978 42.1193123h-9.8519878c-.6539459 0-1.1838093-.530056-1.1838093-1.1838112s.5298634-1.1838112 1.1838093-1.1838112h9.8519878c.6539497 0 1.1838112.530056 1.1838112 1.1838112s-.5298615 1.1838112-1.1838112 1.1838112z" fill="#c4d3e4"/></g></g><g><g><path d="m41.4510002 23.5095654h-15.6044903c-.6539459 0-1.1838093-.530056-1.1838093-1.1838093 0-.6537552.5298634-1.1838112 1.1838093-1.1838112h15.6044903c.6539459 0 1.1838074.530056 1.1838074 1.1838112 0 .6537533-.5298615 1.1838093-1.1838074 1.1838093z" fill="#c4d3e4"/></g><g><path d="m35.6984978 28.7685013h-9.8519878c-.6539459 0-1.1838093-.5300541-1.1838093-1.1838093 0-.6537533.5298634-1.1838093 1.1838093-1.1838093h9.8519878c.6539497 0 1.1838112.530056 1.1838112 1.1838093 0 .6537552-.5298615 1.1838093-1.1838112 1.1838093z" fill="#c4d3e4"/></g></g><g><g><path d="m41.4510002 50.2111816h-15.6044903c-.6539459 0-1.1838093-.530056-1.1838093-1.1838074 0-.6537552.5298634-1.1838112 1.1838093-1.1838112h15.6044903c.6539459 0 1.1838074.530056 1.1838074 1.1838112 0 .6537514-.5298615 1.1838074-1.1838074 1.1838074z" fill="#c4d3e4"/></g><g><path d="m35.6984978 55.4701195h-9.8519878c-.6539459 0-1.1838093-.530056-1.1838093-1.1838112s.5298634-1.1838074 1.1838093-1.1838074h9.8519878c.6539497 0 1.1838112.5300522 1.1838112 1.1838074s-.5298615 1.1838112-1.1838112 1.1838112z" fill="#c4d3e4"/></g></g></g><g><g><g><path d="m59.8694839 43.1456566 4.741478 10.8489761c1.0132904 2.3185158-.0443115 5.0177536-2.3626022 6.0309486-2.3182945 1.013195-5.0176582-.0440865-6.0309486-2.3626022l-4.741478-10.8489761z" fill="#fabb53"/><path d="m55.6635361 44.9838371 6.5752602 15.044857c.0031319-.0013695.0064316-.0017433.0095634-.0031128 2.3182907-1.013195 3.3758926-3.7124329 2.3626022-6.0309486l-4.741478-10.8489761z" fill="#f99944"/><path d="m59.8694839 43.1456566 1.60989 3.6835861c-1.1444054 1.0021248-2.4464951 1.8440285-3.9124603 2.4847183-1.4659615.6406898-2.9682846 1.024437-4.4810905 1.1836281l-1.60989-3.6835861z" fill="#d8642a"/><circle cx="50.95" cy="34.177" fill="#e9293a" r="15.08"/><path d="m44.9107513 20.3590336c-.0026817.0011749-.0049477.002697-.0076332.00387l12.0777779 27.6351852c.0026855-.0011749.0053406-.0018005.0080261-.0029755 7.6315994-3.3353424 11.114296-12.2255249 7.7789536-19.8571243-3.3353386-7.6315975-12.2255249-11.1142959-19.8571244-7.7789554z" fill="#d42032"/><path d="m60.7719841 35.3434525c-.5958557 5.0145264-4.8514519 8.7081108-9.7779922 8.7270279-.4030457.0027542-.8027573-.0245781-1.2098045-.0729485l-.0099411-.0011787c-1.3503647-.1604614-2.5995293-.5808105-3.7124634-1.2165756-.8388519-.4822311-1.6041336-1.076683-2.2669334-1.7700882-.5991592-.6351929-1.1195297-1.3416672-1.5410538-2.1165466-.9419708-1.7331161-1.3747368-3.7686157-1.1234169-5.8836212.5958519-5.0145264 4.8515053-8.7085934 9.7780495-8.7275124.3930435-.0034523.7927551.0238838 1.1998062.0722523l.0099373.0011806c.4766273.0566349.939743.1421528 1.3882523.2657623.9469032.2536392 1.8273849.6400166 2.6340523 1.1385841 1.4729691.9101429 2.6901932 2.1931038 3.496994 3.7085571.9518546 1.734787 1.3846777 3.7698021 1.1345137 5.8751069z" fill="#fff"/><g fill="#e8edf2"><path d="m53.506424 24.6212044-9.7115746 16.388485c-.5991592-.6351929-1.1195297-1.3416672-1.5410538-2.1165466l8.6546326-14.6111336c.3930435-.0034523.7927551.0238838 1.1998062.0722523l.0099373.0011806c.4766273.0566349.939743.1421527 1.3882523.2657623z"/><path d="m59.6374702 29.4683456-8.6434784 14.6021347c-.4030457.0027542-.8027573-.0245781-1.2098045-.0729485l-.0099411-.0011787c-1.3503647-.1604614-2.5995293-.5808105-3.7124634-1.2165756l10.0786934-17.019989c1.4729691.9101429 2.6901932 2.1931038 3.496994 3.7085571z"/></g></g><path d="m57.4901772 53.1396103.4375114 1.1080894c.1174049.2973557.1098442.6268425-.0116577.9068947-.1215057.2800484-.3510742.5255508-.6633148.6488342-.617218.2436981-1.3150406-.0653801-1.5557289-.6749725l-.4375114-1.1080894c-.2436981-.617218.0577545-1.312027.6749725-1.5557251.6170387-.2436295 1.3120307.0577507 1.5557289.6749687z" fill="#ffd77f"/></g></g></g><g><path d="m19.5537491 24.1529636-2.3597202 2.35182c-.1815033.1815014-.434103.2843914-.694603.2843914-.2603073 0-.512907-.10289-.6944084-.2843914l-1.2865067-1.286314c-.3867044-.3865108-.3867044-1.0100155 0-1.3969116.3867035-.3865108 1.0102072-.3865108 1.3969107 0l.5840044.5919056 1.6574116-1.6574116c.3867035-.3865108 1.0102081-.3865108 1.3969116 0 .3788032.3868962.3788032 1.0104008 0 1.3969116z" fill="#fff"/></g></g></svg>