<svg clip-rule="evenodd" fill-rule="evenodd" height="512" image-rendering="optimizeQuality" shape-rendering="geometricPrecision" text-rendering="geometricPrecision" viewBox="0 0 512 512" width="512" xmlns="http://www.w3.org/2000/svg"><g id="Layer_x0020_1"><g id="_385554680"><path d="m365 512c-1 0-3-1-4-2l-79-79 8-129 139 140c2 2 3 5 2 7-2 2-4 3-7 3l-61-9 8 62c1 3-1 5-3 6-1 1-2 1-3 1z" fill="#cf3a45"/><path d="m286 493c-2 0-4-1-5-3l-37-49-38 49c-2 2-4 3-7 2-2 0-4-3-4-5v-203c0-3 3-6 6-6h85c3 0 6 3 6 6v203c0 2-2 5-4 5-1 1-2 1-2 1z" fill="#ff4755"/><path d="m244 326c-2 0-4-1-5-3l-29-36-43 17c-1 1-3 1-5 0-1-1-3-3-3-5l-7-45-45-7c-2 0-4-1-4-3-1-1-2-3-1-5l17-43-36-29c-1-1-2-2-2-4s1-4 2-5l36-29-17-42c-1-2 0-4 1-6 0-1 2-2 4-3l45-6 7-46c0-2 2-3 3-4 2-1 4-1 5-1l43 17 29-36c1-1 3-2 4-2 2 0 4 1 5 2l29 36 43-17c1 0 3 0 5 1 1 1 3 2 3 4l7 46 45 6c2 1 4 2 4 3 1 2 2 4 1 6l-17 42 36 29c1 1 2 3 2 5s-1 3-2 4l-36 29 17 43c1 2 0 4-1 5 0 2-2 3-4 3l-45 7-7 45c0 2-2 4-3 5-2 1-4 1-5 0l-43-17-29 36c-1 2-3 3-4 3z" fill="#ffe471"/><path d="m243 254c-50 0-91-41-91-91s41-91 91-91c51 0 92 41 92 91s-41 91-92 91z" fill="#f7a828"/><path d="m271 210h-52c-2 0-5-1-6-3s0-5 1-7c2-1 4-4 8-8 12-14 34-40 41-52 1-2 1-4 0-6-5-5-18-9-29-5-8 3-12 10-12 20 0 4-3 6-6 6s-6-2-6-6c0-15 7-26 20-31 14-5 33-1 42 8 5 6 5 14 2 20-7 13-29 37-42 52h39c3 0 6 3 6 6s-3 6-6 6z" fill="#ffe27a"/></g></g></svg>