<svg id="Layer_2_00000166663766820746058180000012625409750507168167_" enable-background="new 0 0 512 512" viewBox="0 0 512 512" xmlns="http://www.w3.org/2000/svg" xmlns:xlink="http://www.w3.org/1999/xlink"><linearGradient id="_25_00000096743245893463906610000018392648047266223254_" gradientTransform="matrix(1 0 0 -1 0 514.7)" gradientUnits="userSpaceOnUse" x1="88.47" x2="423.525" y1="385.525" y2="50.46"><stop offset="0" stop-color="#ffde00"/><stop offset="1" stop-color="#fd5c00"/></linearGradient><g id="Icon"><path id="_25" d="m300.1 218h-15.2c3.6-4 6.8-7.6 9.4-10.8 4.6-5.7 7.9-11 10-16.2 2.2-5.4 3.3-11.4 3.3-17.8 0-9.3-2.2-17.6-6.6-24.8s-10.8-12.8-18.9-16.8c-7.7-3.7-16.8-5.6-27.2-5.6-10.3 0-19.9 2.2-28 6.7-8.2 4.5-14.6 10.7-18.9 18.5-4.4 7.7-6.5 16.4-6.2 25.8 0 1 .2 2 .5 3l.2.5c1.4 4.2 5.3 7 9.7 7h29c5.6 0 10.2-4.6 10.2-10.2 0-3.4.6-6 1.6-7.5.1-.2.3-.5 2-.5 1.1 0 1.5.2 1.5.2.5.6 1.1 1.7 1.1 4 0 1.2-.3 2.6-.8 4.1-.6 1.8-1.8 3.9-3.4 6.3-1.8 2.7-4.3 5.9-7.5 9.6l-39.4 41.6c-1.8 1.9-2.8 4.4-2.8 7v19c0 5.6 4.6 10.2 10.2 10.2h86.5c5.6 0 10.2-4.6 10.2-10.2v-32.7c-.2-5.8-4.8-10.4-10.5-10.4zm0 42.9h-86.5v-19l39.6-41.7c3.5-4.1 6.4-7.6 8.4-10.7s3.6-5.9 4.5-8.5 1.4-5.1 1.4-7.5c0-4-1.1-7.4-3.2-10.2s-5.4-4.2-9.6-4.2c-4.7 0-8.1 1.6-10.4 4.9-2.2 3.3-3.4 7.7-3.4 13.3h-29l-.2-.5c-.2-7.6 1.5-14.5 4.9-20.6s8.5-11 15-14.6 14.2-5.4 23.1-5.4c8.8 0 16.4 1.5 22.7 4.6s11.2 7.4 14.6 12.9 5.1 12 5.1 19.5c0 5.1-.9 9.7-2.6 14-1.7 4.2-4.5 8.8-8.4 13.6s-9.1 10.7-15.7 17.6l-18.3 19.6.2.4h24.4l1.3-10.2h22.2zm107.8 207.8c0 14.9-12.1 27-27 27h-249.9c-14.9 0-26.9-12.1-26.9-27s12.1-27 26.9-27h250c14.9 0 26.9 12.1 26.9 27zm-39.2-61.3v24.1h-225.4v-24.1c0-10.8 8.8-19.6 19.6-19.6h186.2c10.8 0 19.6 8.8 19.6 19.6zm-74.6-29.8h-76.3l10.4-30.1 27.8-13.8 27.8 13.8zm76.9-138.7 10.6 72.5c4.9 33.4-29.7 58.5-59.9 43.5l-65.7-32.5-65.7 32.5c-30.2 15-64.8-10.2-59.9-43.5l10.6-72.5-51.3-52.4c-23.6-24.1-10.4-64.8 22.9-70.4l72.3-12.3 34-64.9c15.6-29.9 58.4-29.9 74.1 0l34 64.9 72.3 12.3c33.2 5.7 46.5 46.3 22.9 70.4zm-115-140.6c-57 0-103.3 46.3-103.3 103.3s46.3 103.3 103.3 103.3 103.3-46.3 103.3-103.3-46.3-103.3-103.3-103.3zm0 196.4c-51.4 0-93.1-41.7-93.1-93.1s41.7-93.1 93.1-93.1 93.1 41.7 93.1 93.1-41.7 93.1-93.1 93.1z" fill="url(#_25_00000096743245893463906610000018392648047266223254_)"/></g></svg>