<svg id="Layer_1" enable-background="new 0 0 50 50" height="512" viewBox="0 0 50 50" width="512" xmlns="http://www.w3.org/2000/svg"><g><g><ellipse cx="43.39" cy="28.42" fill="#abb734" rx="2.81" ry="2.81" transform="matrix(1 -.031 .031 1 -.849 1.34)"/></g><g><path d="m47.71 33.41c0 .38-.06.79-.16 1.21-.28 1.2-1.4 2.01-2.63 2.01h-3.05c-1.23 0-2.35-.81-2.64-2.01-.09-.42-.15-.82-.15-1.21 0-1.66.95-2.59 2.33-2.99.51.51 1.21.83 1.99.83s1.48-.32 1.99-.83c1.37.4 2.32 1.33 2.32 2.99z" fill="#9b9b1b"/></g><g><ellipse cx="6.6" cy="28.42" fill="#abb734" rx="2.81" ry="2.81" transform="matrix(1 -.031 .031 1 -.866 .215)"/></g><g><path d="m10.92 33.41c0 .38-.06.79-.16 1.21-.28 1.2-1.4 2.01-2.63 2.01h-3.05c-1.23 0-2.35-.81-2.64-2.01-.09-.42-.15-.82-.15-1.21 0-1.66.95-2.59 2.33-2.99.51.51 1.21.83 1.99.83s1.48-.32 1.99-.83c1.37.4 2.32 1.33 2.32 2.99z" fill="#9b9b1b"/></g><g><path d="m27.48 16.06c.16.34.38.67.65.98-1.67 3.34.59 5.9.59 5.9.17-1.93 1.04-3.08 2.02-3.77 3.98 2.43 10.28 3.97 13.26 2.9 3.25-1.16 5.84-9.73 4.73-12.99-1.42-4.16-12.53-7.87-16.52-6.01-3.13 1.46-6.21 9.88-4.73 12.99z" fill="#6cd8d5"/></g><g><path d="m22.52 16.06c-.16.34-.38.67-.65.98 1.67 3.34-.59 5.9-.59 5.9-.17-1.93-1.04-3.08-2.02-3.77-3.98 2.43-10.28 3.97-13.26 2.9-3.25-1.16-5.84-9.73-4.73-12.99 1.42-4.16 12.53-7.87 16.52-6.01 3.13 1.46 6.21 9.88 4.73 12.99z" fill="#fa4968"/></g><g><path d="m39.22 8.89.43 2.67 2.45 1.16-2.41 1.23-.34 2.68-1.92-1.9-2.67.49 1.23-2.41-1.3-2.37 2.67.41z" fill="#fff"/></g><g><path d="m15.27 9.86c1.1 2.7-1.72 6.77-1.72 6.77s-4.87-.92-5.97-3.63c-.48-1.17.08-2.51 1.26-2.99.71-.29 1.49-.2 2.09.18.16-.69.65-1.3 1.36-1.59 1.16-.47 2.5.09 2.98 1.26z" fill="#f4f4f4"/></g><g><path d="m27.62 34.42h7.49c.9 0 1.2.72 1.2 1.62 0 .45-.08.86-.27 1.15s-.49.47-.94.47h-.59c.9 0 1.2.73 1.2 1.62 0 .45-.08.86-.27 1.15s-.49.47-.94.47h-.59c.9 0 1.2.73 1.2 1.62 0 .45-.08.86-.27 1.15-.19.3-.49.48-.94.48h-.59c.9 0 1.2.73 1.2 1.62 0 .45-.08.86-.27 1.15-.19.3-.49.48-.94.48h-12.37c-.92 0-1.67-.75-1.67-1.67v-9.66c0-.92.75-1.67 1.67-1.67h.99c.72 0 1.39-.37 1.77-.98l.65-1.03c.52-.83.8-1.79.8-2.76v-.83c0-.51.42-.93.93-.93 1.68 0 3.04 1.36 3.04 3.03 0 .78-.22 1.54-.64 2.2z" fill="#d9baa8"/></g><g><path d="m34.53 38.17h-2.43c-.28 0-.5-.22-.5-.5s.22-.5.5-.5h2.43c.28 0 .5.22.5.5s-.23.5-.5.5z" fill="#c9a28f"/></g><g><path d="m34.53 41.41h-3.03c-.28 0-.5-.22-.5-.5s.22-.5.5-.5h3.03c.28 0 .5.22.5.5s-.23.5-.5.5z" fill="#c9a28f"/></g><g><path d="m17.24 34.42h-1.54c-1.12 0-2.02.91-2.02 2.02v8.95c0 1.12.91 2.02 2.02 2.02h1.54c1.12 0 2.02-.91 2.02-2.02v-8.95c0-1.11-.91-2.02-2.02-2.02z" fill="#559aff"/></g><g><path d="m17.41 37.17c0 .52-.42.95-.94.95s-.94-.42-.94-.95c0-.52.42-.95.94-.95.52.01.94.43.94.95z" fill="#fa4968"/></g><g><path d="m33.44 44.66h-2.43c-.28 0-.5-.22-.5-.5s.22-.5.5-.5h2.43c.28 0 .5.22.5.5s-.22.5-.5.5z" fill="#c9a28f"/></g></g></svg>