<svg id="Layer_1" enable-background="new 0 0 512 512" height="512" viewBox="0 0 512 512" width="512" xmlns="http://www.w3.org/2000/svg" xmlns:xlink="http://www.w3.org/1999/xlink"><linearGradient id="SVGID_1_" gradientTransform="matrix(1 0 0 -1 0 513.27)" gradientUnits="userSpaceOnUse" x1="38.363" x2="469.973" y1="437.628" y2="6.018"><stop offset="0" stop-color="#fcf800"/><stop offset="1" stop-color="#fc9700"/></linearGradient><g id="Layer_2_00000132054951007594741180000013308461078538306189_"><g id="laughing_beam"><path clip-rule="evenodd" d="m511 216.4c3.3-14.3-1.6-29.3-12.7-39-17.4-15.1-89.7-28.5-127.6-34.4-9.6-1.3-17.8-7.3-22.1-16-17.4-34.2-52.4-98.9-72.2-110.7-12.6-7.5-28.4-7.5-41 0-19.8 11.9-54.8 76.5-72.1 110.7-4.3 8.7-12.5 14.7-22.1 16-37.8 5.9-110.2 19.3-127.6 34.4-11.1 9.7-16 24.7-12.7 39 5.2 22.5 55.8 75.8 83 102.8 7 6.7 10.1 16.5 8.4 26-6 37.8-15.7 110.7-6.7 132 5.8 13.5 18.5 22.8 33.2 24.1 23 2 89.3-29.7 123.4-47.2 8.5-4.5 18.8-4.5 27.3 0 34.1 17.5 100.5 49.2 123.4 47.2 14.6-1.3 27.4-10.6 33.2-24.1 9-21.2-.7-94.1-6.7-132-1.7-9.5 1.5-19.3 8.4-26 27.3-27 78-80.3 83.2-102.8z" fill="url(#SVGID_1_)" fill-rule="evenodd"/><path d="m179.7 290.2h152.6c7.9 0 14.3 6.4 14.3 14.3 0 44-35.6 79.6-79.6 79.6h-22c-44 0-79.6-35.6-79.6-79.6 0-7.9 6.4-14.3 14.3-14.3z" fill="#6a371a"/><path d="m310.8 371c-13 8.6-28.2 13.2-43.8 13.2h-22c-15.6 0-30.8-4.5-43.8-13.1 0-17.9 16.9-29.9 37.7-29.9h1.6c7.3 0 13.4 4.1 15.5 9.7 2.1-5.6 8.2-9.7 15.5-9.7h1.6c20.8-.1 37.7 11.9 37.7 29.8z" fill="#ff3437"/><path d="m332.2 290.2c-2.7 4.6-5.9 8.8-9.7 12.6-11.5 11.5-27.1 18-43.5 18h-46c-21.9 0-42.2-11.7-53.2-30.6z" fill="#fff"/><g fill="#6a371a"><path d="m355.2 226.5c-4.6 0-8.3-3.7-8.3-8.3 0-9.4-12.9-17.7-27.6-17.7s-27.6 8.2-27.6 17.7c0 4.6-3.7 8.3-8.3 8.3s-8.3-3.7-8.3-8.3c0-9.7 5-18.6 14-25.1 8.2-5.9 18.9-9.2 30.3-9.2s22.1 3.3 30.3 9.2c9 6.5 14 15.4 14 25.1-.1 4.6-3.9 8.3-8.5 8.3z"/><path d="m228.6 226.5c-4.6 0-8.3-3.7-8.3-8.3 0-9.4-12.9-17.7-27.6-17.7s-27.6 8.2-27.6 17.7c0 4.6-3.7 8.3-8.3 8.3s-8.3-3.7-8.3-8.3c0-9.7 5-18.6 14-25.1 8.2-5.9 18.9-9.2 30.3-9.2s22.1 3.3 30.3 9.2c9 6.5 14 15.4 14 25.1-.1 4.6-3.8 8.3-8.5 8.3z"/></g></g></g></svg>