<svg id="Capa_1" enable-background="new 0 0 512 512" height="512" viewBox="0 0 512 512" width="512" xmlns="http://www.w3.org/2000/svg"><g><g><g><g fill="#e9b665"><path d="m339.751 174.991c0-16.404-13.298-29.702-29.702-29.702s-29.702 13.298-29.702 29.702v2.158h59.403v-2.158z"/><path d="m280.348 355.23c0 10.88 5.853 20.387 14.579 25.559 2.996 1.776 5.448 4.339 7.189 7.355l7.933 13.741 7.933-13.741c1.741-3.016 4.193-5.579 7.189-7.355 8.726-5.172 14.579-14.68 14.579-25.559v-2.158h-59.403v2.158z"/></g><g fill="#d8aa5e"><path d="m305.596 174.991c0-11.889 6.987-22.141 17.077-26.887-3.832-1.802-8.109-2.815-12.624-2.815-16.404 0-29.702 13.298-29.702 29.702v2.158h25.249z"/><path d="m305.596 355.23v-2.158h-25.249v2.158c0 10.88 5.853 20.387 14.579 25.559 2.996 1.776 5.448 4.339 7.189 7.355l7.933 13.741 7.933-13.741c1.228-2.127 2.815-4.021 4.691-5.58-.785-.652-1.615-1.252-2.498-1.776-8.725-5.171-14.578-14.678-14.578-25.558z"/></g><g><g><path d="m339.751 177.149h-59.403l-42.33 36.048h144.062z" fill="#9857bd"/></g><g><path d="m339.751 177.149h-59.403l-42.33 36.048h144.062z" fill="#9857bd"/></g><g><path d="m280.348 353.072h59.403l42.329-36.048h-144.062z" fill="#9857bd"/></g></g><g><path d="m238.018 213.197h144.062v103.826h-144.062z" fill="#fff3de"/></g><g><path d="m238.018 213.197h25.919v103.826h-25.919z" fill="#ffe5c2"/></g></g></g><g><path d="m357.739 426.344c-106.316 16.329-205.74-56.621-222.069-162.937-16.384-106.679 56.368-205.768 163.057-222.088 26.489-4.052 52.548-2.562 76.999 3.605 3.426.864 5.313-3.832 2.234-5.564-46.677-26.255-102.147-37.68-159.182-28.967-135.396 20.683-228.861 147.955-208.068 283.335 20.832 135.633 147.671 228.698 283.304 207.866 83.099-12.763 150.21-65.323 184.946-135.314 1.558-3.14-2.643-5.969-4.965-3.343-29.1 32.91-69.44 56.217-116.256 63.407z" fill="#fed402"/></g><g><g><path d="m344.716 468.094c-135.633 20.831-262.473-72.233-283.304-207.866-13.537-88.135 21.363-172.821 84.721-226.911-94.346 46.806-152.235 150.952-135.423 260.411 20.832 135.633 147.671 228.698 283.304 207.866 47.355-7.273 89.514-27.475 123.452-56.456-22.354 11.086-46.771 18.966-72.75 22.956z" fill="#fac600"/></g></g><g><g><path d="m415.403 130.412h38.788v38.788h-38.788z" fill="#fea613" transform="matrix(.707 -.707 .707 .707 21.42 351.325)"/></g><g><path d="m433 149.806 14.612-14.612-12.815-12.815-27.427 27.427 27.427 27.427 12.815-12.815z" fill="#fe9901"/></g></g><g><g><path d="m143.07 308.961h38.788v38.788h-38.788z" fill="#fea613" transform="matrix(.707 -.707 .707 .707 -184.598 211.052)"/></g><g><path d="m160.146 328.355 14.872-14.873-12.555-12.554-27.426 27.427 27.426 27.427 12.555-12.555z" fill="#fe9901"/></g></g><g><path d="m482.888 263.858-17.855 17.855c-.787.787-.787 2.063 0 2.85l17.855 17.855c.787.787 2.063.787 2.85 0l17.855-17.855c.787-.787.787-2.063 0-2.85l-17.855-17.855c-.786-.787-2.063-.787-2.85 0z" fill="#fea613"/></g><g><path d="m225.365 132.7-17.855 17.855c-.787.787-.787 2.063 0 2.85l17.855 17.855c.787.787 2.063.787 2.85 0l17.855-17.855c.787-.787.787-2.063 0-2.85l-17.855-17.855c-.787-.787-2.063-.787-2.85 0z" fill="#fea613"/></g><g><path d="m404.263 142.306h-18.263c-4.142 0-7.5 3.357-7.5 7.5s3.358 7.5 7.5 7.5h18.263l23.034 23.034v18.264c0 4.143 3.358 7.5 7.5 7.5s7.5-3.357 7.5-7.5v-18.264l23.034-23.034h18.263c4.142 0 7.5-3.357 7.5-7.5s-3.358-7.5-7.5-7.5h-18.263l-23.034-23.034v-18.263c0-4.143-3.358-7.5-7.5-7.5s-7.5 3.357-7.5 7.5v18.263zm30.534 24.32-16.82-16.82 16.82-16.82 16.82 16.82z"/><path d="m482.093 356.213c-4.43-2.982-10.209-2.25-13.742 1.744-28.893 32.676-68.584 54.323-111.763 60.955-49.433 7.594-98.865-4.52-139.189-34.106-14.212-10.428-26.69-22.588-37.227-36.127l12.824-12.824h18.264c4.142 0 7.5-3.357 7.5-7.5s-3.358-7.5-7.5-7.5h-18.263l-23.034-23.034v-18.263c0-4.143-3.358-7.5-7.5-7.5s-7.5 3.357-7.5 7.5v18.263l-2.046 2.046c-4.507-12.03-7.827-24.604-9.823-37.599-9.567-62.287 12.456-124.714 58.91-166.992 3.063-2.788 3.287-7.53.499-10.594-2.787-3.064-7.53-3.286-10.594-.499-50.181 45.67-73.972 113.093-63.64 180.361 2.506 16.314 6.922 32.024 13.071 46.897l-9.412 9.412h-18.263c-4.142 0-7.5 3.357-7.5 7.5s3.358 7.5 7.5 7.5h18.263l23.034 23.035v18.263c0 4.143 3.358 7.5 7.5 7.5s7.5-3.357 7.5-7.5v-17.211c11.028 13.795 23.941 26.229 38.563 36.958 43.554 31.957 96.946 45.042 150.338 36.839 35.917-5.517 69.6-20.653 97.444-43.443-15.251 22.674-34.316 42.769-56.186 59.069-31.306 23.334-68.394 38.823-107.254 44.792-63.609 9.767-127.218-5.817-179.106-43.888-51.888-38.072-85.844-94.07-95.614-157.681-9.751-63.487 5.907-127.085 44.09-179.08 38.183-51.994 94.179-85.971 157.675-95.671 43.282-6.612 86.337-1.594 126.151 14.508-16.052-1.418-32.269-.891-48.477 1.589-27.394 4.19-53.098 13.652-76.398 28.124-3.518 2.185-4.599 6.809-2.414 10.327 2.185 3.517 6.808 4.598 10.327 2.414 21.569-13.396 45.374-22.157 70.753-26.038.898-.137 1.796-.254 2.694-.379v90.175c-16.505 3.394-29.052 17.754-29.668 35.103l-39.726 33.831c-1.673 1.425-2.637 3.512-2.637 5.71v103.826c0 2.198.964 4.285 2.637 5.71l39.737 33.84c.462 12.563 7.338 24.224 18.209 30.667 1.823 1.081 3.386 2.69 4.52 4.654l7.934 13.741c1.34 2.32 3.816 3.75 6.495 3.75 2.68 0 5.156-1.43 6.495-3.75l7.933-13.741c1.134-1.964 2.697-3.573 4.519-4.653 10.872-6.444 17.748-18.105 18.21-30.668l39.737-33.84c1.673-1.425 2.637-3.512 2.637-5.71v-33.015c0-4.143-3.358-7.5-7.5-7.5s-7.5 3.357-7.5 7.5v25.515h-27.941v-88.826h27.941v28.312c0 4.143 3.358 7.5 7.5 7.5s7.5-3.357 7.5-7.5v-35.812c0-2.198-.964-4.285-2.637-5.71l-39.726-33.831c-.616-17.348-13.162-31.709-29.667-35.103v-91.659c18.972-1.109 37.851.662 56.329 5.324 5.182 1.309 10.377-1.347 12.356-6.308 1.977-4.954.037-10.447-4.614-13.064-50.206-28.239-106.904-38.557-163.972-29.841-67.458 10.306-126.943 46.394-167.499 101.62-40.555 55.226-57.185 122.785-46.826 190.235 10.378 67.57 46.448 127.055 101.566 167.497 44.383 32.565 96.832 49.643 150.861 49.642 13.068 0 26.235-1 39.395-3.021 41.275-6.339 80.674-22.796 113.94-47.591 32.198-23.999 58.674-55.739 76.563-91.785 2.371-4.777.875-10.408-3.556-13.391zm-319.629-11.037-16.821-16.821 16.821-16.82 16.82 16.82zm120.645-160.527h3.088l-9.981 21.048h-17.823zm0 160.922-24.716-21.048h17.823l9.981 21.048zm38.238 28.767c-4.032 2.391-7.441 5.868-9.859 10.057l-1.438 2.491-1.438-2.49c-2.417-4.188-5.827-7.666-9.861-10.059-5.156-3.056-8.806-8.076-10.233-13.766h43.063c-1.427 5.69-5.077 10.71-10.234 13.767zm-28.53-49.815h34.464l-9.981 21.048h-14.501zm44.173-139.874 24.716 21.048h-17.823l-9.981-21.048zm6.893 139.874h17.823l-24.716 21.048h-3.088zm-12.244-15h-43.179v-29.515c0-4.143-3.358-7.5-7.5-7.5s-7.5 3.357-7.5 7.5v29.515h-27.941v-88.826h27.941v24.312c0 4.143 3.358 7.5 7.5 7.5s7.5-3.357 7.5-7.5v-24.312h43.179zm-38.822-103.826 9.981-21.048h14.502l9.981 21.048zm38.78-36.048h-43.095c2.398-9.67 11.147-16.859 21.548-16.859 10.4 0 19.149 7.19 21.547 16.859z"/><path d="m508.897 276.409-17.855-17.855c-1.797-1.797-4.187-2.786-6.728-2.786-2.542 0-4.931.989-6.729 2.786l-17.855 17.855c-3.71 3.711-3.71 9.747 0 13.457l17.858 17.859c1.854 1.852 4.288 2.777 6.724 2.777s4.874-.927 6.729-2.78l17.855-17.855c3.712-3.711 3.712-9.747.001-13.458zm-24.583 16.828-10.099-10.1 10.099-10.099 10.099 10.099z"/><path d="m251.373 158.709c1.797-1.798 2.787-4.188 2.787-6.729s-.99-4.931-2.787-6.729l-17.854-17.854c-1.797-1.798-4.188-2.788-6.73-2.788s-4.931.989-6.729 2.786l-17.855 17.855c-1.797 1.798-2.787 4.188-2.787 6.729s.99 4.931 2.787 6.728l17.855 17.856c1.797 1.797 4.187 2.786 6.729 2.786s4.933-.99 6.728-2.786zm-34.682-6.729 10.099-10.099 10.099 10.099-10.099 10.099z"/><path d="m414.759 371.509c4.142 0 7.5-3.357 7.5-7.5v-8.548h8.548c4.142 0 7.5-3.357 7.5-7.5s-3.358-7.5-7.5-7.5h-8.548v-8.548c0-4.143-3.358-7.5-7.5-7.5s-7.5 3.357-7.5 7.5v8.548h-8.548c-4.142 0-7.5 3.357-7.5 7.5s3.358 7.5 7.5 7.5h8.548v8.548c0 4.142 3.358 7.5 7.5 7.5z"/></g></g></svg>