<svg id="Capa_1" enable-background="new 0 0 512 512" viewBox="0 0 512 512" xmlns="http://www.w3.org/2000/svg"><g><g><g><circle cx="288.836" cy="235.797" fill="#ffd15b" r="215.665"/><circle cx="288.836" cy="235.797" fill="#ffd15b" r="215.665"/><path d="m420.605 65.073c28.17 36.443 44.941 82.145 44.941 131.77 0 119.108-96.556 215.665-215.665 215.665-18.288 0-36.04-2.285-52.996-6.571-.951-6.21-2.948-12.16-5.928-17.62 4.191-7.686 6.575-16.495 6.575-25.848s-2.384-18.162-6.575-25.847c4.125-7.556 6.397-16.043 6.565-24.875.274-14.49-5.226-28.23-15.491-38.691-10.296-10.492-24.6-16.51-39.246-16.51h-18.718l-1.937-31.527c-1.469-23.9-18.264-43.485-40.43-49.433-5.546 19.111-8.53 39.312-8.53 60.211 0 119.108 96.556 215.665 215.665 215.665s215.665-96.557 215.665-215.665c0-69.484-32.868-131.281-83.895-170.724z" fill="#ffc344"/></g><g><g><circle cx="207.705" cy="209.606" fill="#eaf6ff" r="48.488"/><circle cx="207.705" cy="209.606" fill="#7a6d79" r="17.173"/></g><g><circle cx="369.966" cy="209.606" fill="#eaf6ff" r="48.488"/><circle cx="369.966" cy="209.606" fill="#7a6d79" r="17.173"/></g></g><path d="m363.691 294.967c8.592 0 14.987 7.814 13.439 16.26-7.643 41.814-44.267 73.505-88.295 73.505s-80.652-31.692-88.295-73.505c-1.547-8.447 4.847-16.26 13.439-16.26z" fill="#f37c7c"/><g><g><path d="m36.305 307.272 4.949-80.518c.855-13.911 12.386-24.755 26.323-24.755 13.937 0 25.468 10.844 26.323 24.755l4.949 80.518z" fill="#ffd15b"/><path d="m169.248 362.469c0-14.293-11.587-25.88-25.88-25.88 14.126 0 25.608-11.317 25.875-25.379.275-14.506-11.949-26.38-26.458-26.38h-99.913c-19.536 0-35.372 15.837-35.372 35.372v136.293c0 19.536 15.837 35.372 35.372 35.372h89.13c14.509 0 26.733-11.874 26.458-26.38-.267-14.062-11.749-25.379-25.875-25.379h10.2c14.509 0 26.733-11.874 26.458-26.38-.267-14.062-11.749-25.379-25.875-25.379 14.294 0 25.88-11.587 25.88-25.88z" fill="#ffe177"/></g></g></g><g><path d="m271.865 443.267c-33.85-2.716-66.699-13.837-95.278-32.172-.861-9.115-5.442-17.202-12.194-22.714 7.535-6.125 12.357-15.465 12.357-25.911s-4.822-19.785-12.357-25.911c7.364-6.01 12.159-15.079 12.347-25.205.17-8.863-3.218-17.293-9.54-23.739-6.412-6.536-15.309-10.285-24.409-10.285h-38.271l-3.134-51.047c-.54-8.644-4.306-16.664-10.601-22.583-2.078-1.954-4.37-3.613-6.814-4.967 8.368-46.517 32.553-89.04 68.534-120.25 37.806-32.793 86.224-50.853 136.335-50.853 47.384 0 92.021 15.509 129.085 44.851 3.248 2.571 7.966 2.023 10.536-1.225s2.021-7.965-1.226-10.536c-39.742-31.46-87.598-48.09-138.396-48.09-53.722 0-105.631 19.363-146.164 54.522-38.177 33.115-63.963 78.123-73.186 127.409-.636-.036-1.274-.059-1.915-.059-17.859 0-32.71 13.962-33.811 31.79l-3.243 52.86c-17.636 5.315-30.52 21.702-30.52 41.048v35.65c0 4.142 3.357 7.5 7.5 7.5s7.5-3.358 7.5-7.5v-35.65c0-15.368 12.503-27.87 27.87-27.87h99.92c5.098 0 10.092 2.11 13.7 5.79 3.479 3.546 5.344 8.144 5.251 12.952-.184 9.934-8.423 18.016-18.367 18.018-.002 0-27.443 0-27.443 0-4.143 0-7.5 3.358-7.5 7.5s3.357 7.5 7.5 7.5h27.439c10.135 0 18.38 8.246 18.38 18.38 0 10.13-8.238 18.372-18.366 18.379-.005 0-27.453-.001-27.453-.001-4.143 0-7.5 3.358-7.5 7.5s3.357 7.5 7.5 7.5c0 0 27.43.001 27.439.001 9.946 0 18.188 8.083 18.371 18.024.093 4.8-1.772 9.397-5.253 12.944-3.609 3.68-8.603 5.791-13.698 5.791l-26.859-.001c-4.143 0-7.5 3.358-7.5 7.5s3.357 7.5 7.5 7.5h16.63c.01 0 .019.001.029.001 9.939 0 18.181 8.085 18.371 18.025.093 4.798-1.771 9.394-5.251 12.941-3.611 3.682-8.608 5.794-13.71 5.794h-89.13c-15.367.002-27.87-12.5-27.87-27.868v-65.65c0-4.142-3.357-7.5-7.5-7.5s-7.5 3.358-7.5 7.5v65.65c0 23.639 19.231 42.87 42.87 42.87h89.13c9.104 0 18.005-3.75 24.419-10.291 6.323-6.446 9.711-14.875 9.54-23.733-.155-8.086-3.244-15.496-8.23-21.213 3.495-1.704 6.711-3.999 9.468-6.81 2.947-3.004 5.247-6.443 6.856-10.151 29.316 17.603 62.49 28.308 96.613 31.046.204.016.406.024.607.024 3.87 0 7.153-2.976 7.468-6.901.332-4.128-2.747-7.743-6.876-8.074zm-204.291-233.765c4.825 0 9.419 1.82 12.935 5.126 3.507 3.296 5.604 7.768 5.904 12.582l3.077 50.12h-43.829l3.074-50.117c.614-9.931 8.888-17.711 18.839-17.711z"/><path d="m453.699 85.394c-2.793-3.06-7.536-3.275-10.596-.482-3.059 2.792-3.275 7.537-.482 10.596 35.067 38.412 54.379 88.236 54.379 140.292 0 52.656-19.707 102.907-55.49 141.497-35.593 38.383-83.816 61.818-135.789 65.987-4.129.332-7.208 3.947-6.876 8.076.314 3.925 3.597 6.901 7.468 6.901.2 0 .403-.008.607-.024 55.729-4.471 107.434-29.594 145.588-70.74 38.364-41.373 59.492-95.247 59.492-151.697 0-55.808-20.705-109.223-58.301-150.406z"/><path d="m207.705 234.279c13.604 0 24.672-11.068 24.672-24.673s-11.067-24.673-24.672-24.673-24.673 11.068-24.673 24.673 11.069 24.673 24.673 24.673zm0-34.346c5.333 0 9.672 4.339 9.672 9.673s-4.339 9.673-9.672 9.673c-5.334 0-9.673-4.339-9.673-9.673s4.339-9.673 9.673-9.673z"/><path d="m207.705 265.594c30.871 0 55.987-25.116 55.987-55.988s-25.116-55.988-55.987-55.988c-30.872 0-55.988 25.116-55.988 55.988s25.116 55.988 55.988 55.988zm0-96.976c22.601 0 40.987 18.387 40.987 40.988s-18.387 40.988-40.987 40.988-40.988-18.387-40.988-40.988 18.387-40.988 40.988-40.988z"/><path d="m369.966 234.279c13.604 0 24.673-11.068 24.673-24.673s-11.068-24.673-24.673-24.673-24.672 11.068-24.672 24.673 11.067 24.673 24.672 24.673zm0-34.346c5.334 0 9.673 4.339 9.673 9.673s-4.339 9.673-9.673 9.673c-5.333 0-9.672-4.339-9.672-9.673s4.339-9.673 9.672-9.673z"/><path d="m369.966 265.594c30.872 0 55.988-25.116 55.988-55.988s-25.116-55.988-55.988-55.988c-30.871 0-55.987 25.116-55.987 55.988s25.116 55.988 55.987 55.988zm0-96.976c22.601 0 40.988 18.387 40.988 40.988s-18.388 40.988-40.988 40.988-40.987-18.387-40.987-40.988 18.386-40.988 40.987-40.988z"/><path d="m330.555 140.105c10.526-10.527 24.523-16.325 39.411-16.325 14.889 0 28.886 5.798 39.412 16.325 1.465 1.465 3.384 2.197 5.304 2.197 1.919 0 3.839-.732 5.304-2.197 2.929-2.929 2.929-7.678 0-10.606-13.36-13.361-31.124-20.719-50.02-20.719-18.895 0-36.658 7.358-50.019 20.719-2.929 2.929-2.929 7.678 0 10.606 2.93 2.928 7.678 2.93 10.608 0z"/><path d="m168.293 140.105c10.526-10.527 24.523-16.325 39.411-16.325 14.889 0 28.886 5.798 39.412 16.325 1.465 1.465 3.384 2.197 5.304 2.197 1.919 0 3.839-.732 5.304-2.197 2.929-2.929 2.929-7.678 0-10.606-13.36-13.361-31.124-20.719-50.02-20.719-18.895 0-36.658 7.358-50.019 20.719-2.929 2.929-2.929 7.678 0 10.606s7.677 2.93 10.608 0z"/><path d="m384.508 312.579c1.146-6.258-.524-12.641-4.584-17.511-4.025-4.83-9.942-7.6-16.232-7.6h-149.713c-6.29 0-12.207 2.77-16.232 7.6-4.06 4.871-5.73 11.253-4.585 17.509 8.438 46.156 48.674 79.657 95.674 79.657 46.999-.001 87.235-33.502 95.672-79.655zm-95.672 64.654c-39.753 0-73.784-28.327-80.919-67.356-.342-1.867.151-3.764 1.353-5.205.686-.823 2.21-2.204 4.71-2.204h149.712c2.5 0 4.024 1.381 4.71 2.204 1.201 1.441 1.694 3.338 1.352 5.208-7.135 39.026-41.166 67.353-80.918 67.353z"/></g></g><g/><g/><g/><g/><g/><g/><g/><g/><g/><g/><g/><g/><g/><g/><g/></svg>