<svg id="Layer_2_00000138540306754905832460000015904804953418045342_" enable-background="new 0 0 512 512" viewBox="0 0 512 512" xmlns="http://www.w3.org/2000/svg"><g id="Icon"><g id="_121"><g><path d="m339.3 512c-3.6 0-6.9-1.9-8.7-5l-94-162.8c-1.3-2.3-1.7-5-1-7.6s2.4-4.8 4.7-6.1l140.6-81.1c1.5-.9 3.3-1.3 5-1.3.9 0 1.7.1 2.6.3 2.6.7 4.8 2.4 6.1 4.7l94 162.8c1.9 3.3 1.8 7.3-.3 10.5-1.9 2.8-5 4.5-8.4 4.5-.4 0-.8 0-1.1-.1l-93-10.7-37.3 85.9c-1.5 3.5-4.8 5.8-8.6 6-.2 0-.4 0-.6 0z"/><path d="m479.9 420.9-100.4-11.6-40.2 92.7-94-162.8 140.6-81.2z" fill="#e55c10"/><path d="m266.1 327.2 99-57.2 70.1 121.5-70.6-8.1-28.3 65.3z" fill="#ff8500"/><path d="m172.7 512c-.2 0-.4 0-.6 0-3.8-.2-7.1-2.5-8.6-6l-37.2-85.9-93 10.7c-.4 0-.8.1-1.1.1-3.3 0-6.5-1.7-8.4-4.5-2.1-3.2-2.2-7.2-.3-10.5l94-162.8c1.3-2.3 3.5-4 6.1-4.7.8-.2 1.7-.3 2.6-.3 1.7 0 3.5.4 5 1.3l140.6 81.2c2.3 1.3 4 3.5 4.7 6.1s.3 5.3-1 7.6l-94 162.8c-2 3-5.3 4.9-8.8 4.9z"/><path d="m32.1 420.9 100.4-11.6 40.2 92.7 94-162.8-140.6-81.2z" fill="#e55c10"/><path d="m245.9 327.2-99-57.2-70.1 121.5 70.6-8.1 28.3 65.3z" fill="#ff8500"/><path d="m336.3 453.7c-1.8 0-3.4-1-4.3-2.5l-70.1-121.5c-.7-1.1-.8-2.5-.5-3.8s1.2-2.4 2.3-3l98.9-57.1c1.1-.7 2.5-.8 3.8-.5s2.4 1.2 3 2.3l70.2 121.4c.9 1.6.9 3.7-.1 5.2s-2.9 2.4-4.8 2.2l-67-7.7-26.8 61.8c-.8 1.7-2.4 2.9-4.3 3-.1.1-.2.1-.3.2zm-63.3-124.7 62.7 108.6 24.4-56.1c.9-2 3-3.2 5.2-3l60.8 7-62.7-108.6z"/><path d="m175.7 453.7c-.1 0-.2 0-.3 0-1.9-.1-3.6-1.3-4.3-3l-26.8-61.8-67 7.7c-1.9.2-3.7-.6-4.8-2.2-1-1.6-1.1-3.6-.2-5.2l70.1-121.5c1.4-2.4 4.4-3.2 6.8-1.8l98.9 57.1c1.1.7 2 1.8 2.3 3 .3 1.3.2 2.6-.5 3.8l-69.9 121.4c-.9 1.5-2.5 2.5-4.3 2.5zm-28.3-75.3c2 0 3.8 1.2 4.6 3l24.4 56.1 62.6-108.5-90.3-52.1-62.6 108.5 60.8-7z"/></g><g><path d="m256 356.3c-10.7 0-20.8-4.7-27.7-12.9-3.1-3.7-7.6-5.8-12.4-5.8-2.3 0-4.5.5-6.6 1.4-4.7 2.1-9.7 3.2-14.8 3.2-16.6 0-31-11.2-35.1-27.2-1.8-7-8.1-12-15.3-12.2-10.7-.3-20.7-5.2-27.4-13.6s-9.3-19.2-7.2-29.7c1.4-7.1-2.1-14.3-8.5-17.6-9.5-4.9-16.4-13.7-18.8-24.1s0-21.3 6.4-29.9c4.3-5.8 4.3-13.8 0-19.5-6.5-8.6-8.8-19.4-6.4-29.9 2.4-10.4 9.2-19.2 18.8-24.1 6.4-3.3 9.9-10.5 8.5-17.6-2.1-10.5.5-21.3 7.2-29.7s16.7-13.3 27.4-13.6c7.2-.2 13.5-5.2 15.3-12.2 4.1-16 18.5-27.2 35.1-27.2 5.1 0 10.1 1.1 14.8 3.2 2.1 1 4.3 1.4 6.6 1.4 4.8 0 9.3-2.1 12.4-5.8 6.9-8.2 17-12.9 27.7-12.9s20.8 4.7 27.7 12.9c3.1 3.7 7.6 5.8 12.4 5.8 2.3 0 4.5-.5 6.6-1.4 4.7-2.1 9.7-3.2 14.8-3.2 16.5 0 31 11.2 35.1 27.2 1.8 7 8.1 12 15.3 12.2 10.7.3 20.7 5.2 27.4 13.6s9.3 19.2 7.2 29.7c-1.4 7.1 2.1 14.3 8.5 17.6 9.5 4.9 16.4 13.7 18.8 24.1s0 21.3-6.4 29.9c-4.4 5.8-4.4 13.8 0 19.5 6.5 8.6 8.8 19.4 6.4 29.9s-9.2 19.2-18.8 24.1c-6.4 3.3-9.9 10.5-8.5 17.6 2.1 10.5-.5 21.3-7.2 29.7s-16.6 13.3-27.4 13.6c-7.2.2-13.5 5.2-15.3 12.2-4.1 16-18.5 27.2-35.1 27.2-5.1 0-10.1-1.1-14.9-3.2-2.1-1-4.3-1.4-6.6-1.4-4.8 0-9.3 2.1-12.4 5.8-6.8 8.2-16.9 12.9-27.6 12.9z"/><path d="m276 19.3c7.5 9 20.1 11.8 30.8 7 14.9-6.6 32.2 1.7 36.2 17.5 2.9 11.4 13 19.4 24.7 19.7 16.3.4 28.2 15.4 25 31.3-2.3 11.5 3.3 23.1 13.7 28.5 14.5 7.4 18.7 26.1 8.9 39.1-7.1 9.4-7.1 22.2 0 31.6 9.8 13 5.5 31.7-8.9 39.1-10.4 5.4-16 17-13.7 28.5 3.2 16-8.7 30.9-25 31.4-11.7.3-21.8 8.4-24.7 19.7-4 15.8-21.3 24.1-36.1 17.4-10.7-4.8-23.3-1.9-30.8 7-10.5 12.5-29.6 12.5-40.1 0-7.5-9-20.1-11.8-30.8-7-14.8 6.7-32.1-1.6-36.1-17.4-2.9-11.4-13-19.4-24.7-19.7-16.3-.4-28.2-15.4-25-31.4 2.3-11.5-3.3-23.1-13.7-28.5-14.5-7.4-18.7-26.1-8.9-39.1 7.1-9.4 7.1-22.2 0-31.6-9.8-13-5.6-31.7 8.9-39.1 10.4-5.3 16-17 13.7-28.5-3.2-15.9 8.7-30.9 25-31.3 11.7-.3 21.8-8.3 24.7-19.7 4-15.8 21.3-24.1 36.1-17.4 10.7 4.8 23.3 1.9 30.8-7 10.4-12.5 29.6-12.5 40-.1z" fill="#ffa017"/></g><g><circle cx="256" cy="178.2" r="132.5"/><circle cx="256" cy="178.2" fill="#fff0c5" r="122.5"/><path d="m255.2 271.4c-11.9 0-23-2.1-33.1-6.2-10.6-4.4-19.2-10.9-25.5-19.5-6.6-8.9-9.8-19.8-9.5-32.3 0-.5.1-.9.1-1.4l.1-.7c.8-4.8 5-8.4 9.9-8.4h38c5.5 0 10 4.5 10 10 0 1.7.4 3.1 1.1 4.4s1.8 2.3 3.2 3.1c1.5.8 3.3 1.2 5.7 1.2 4.9 0 7-1.5 8.1-2.7 1.2-1.2 2.6-3.2 2.6-7.3 0-3.3-.9-5.7-3-7.7s-5.8-3.1-10.9-3.1h-16.6c-5.5 0-10-4.5-10-10v-28.8c0-5.5 4.5-10 10-10h17.7c2.7 0 4.8-.4 6.4-1.2 1.3-.7 2.1-1.5 2.8-2.6.8-1.4 1.1-3.1 1.1-5.2 0-3.7-1.2-5.5-2.1-6.5-.5-.5-1.7-1.9-6.1-1.9-1.8 0-3.2.3-4.4.9-1.1.5-1.8 1.2-2.4 2-.3.4-.7 1.2-.7 2.7 0 5.5-4.5 10-10 10h-37.9c-4.3 0-8.1-2.8-9.5-6.8l-.2-.7c-.3-.9-.5-1.9-.5-2.8-.4-11.1 2.5-21 8.4-29.5 5.7-8.2 13.8-14.7 23.9-19.1 9.7-4.3 20.7-6.5 32.8-6.5 19.5 0 35.6 4.7 47.8 14 13.1 9.9 19.8 24 19.8 41.7 0 10.2-2.8 19.2-8.4 26.7-2.2 2.9-4.7 5.6-7.7 8.2 3.3 2.6 6.3 5.6 8.9 8.8 6.5 8.2 9.8 18.1 9.8 29.3 0 12-3.3 22.5-9.7 31.4-6.2 8.6-14.8 15.3-25.4 19.8-10.2 4.4-21.9 6.6-34.6 6.7z"/><path d="m255.2 261.4c-10.6 0-20.4-1.8-29.3-5.5s-16-9.1-21.3-16.2-7.8-15.8-7.6-26.1l.1-.7h38c0 3.4.8 6.5 2.4 9.4s3.9 5.1 6.9 6.8 6.5 2.6 10.6 2.6c6.4 0 11.4-1.9 15.2-5.6 3.7-3.7 5.6-8.5 5.6-14.4s-2-11.1-6.1-14.9-10-5.8-17.8-5.8h-16.6v-28.8h17.7c4.4 0 8.1-.8 11.1-2.4s5.3-3.8 6.8-6.7c1.6-2.9 2.3-6.2 2.3-9.9 0-5.3-1.6-9.7-4.7-13.2s-7.6-5.2-13.5-5.2c-3.3 0-6.3.7-8.9 2s-4.7 3.2-6.2 5.5-2.3 5.1-2.3 8.2h-37.9l-.2-.7c-.3-8.9 1.9-16.7 6.6-23.4s11.3-12 19.7-15.7 18-5.6 28.8-5.6c17.3 0 31.3 4 41.8 11.9 10.5 8 15.8 19.2 15.8 33.7 0 8.1-2.1 15-6.4 20.7s-10.6 10.6-19 14.7c8.5 3.2 15.3 8 20.4 14.4s7.6 14.1 7.6 23.1c0 9.9-2.6 18.4-7.8 25.5s-12.3 12.6-21.3 16.5c-8.8 3.9-19.1 5.8-30.5 5.8z" fill="#ffa017"/></g></g></g></svg>