<svg height="512" viewBox="0 0 42 58" width="512" xmlns="http://www.w3.org/2000/svg"><g id="Page-1" fill="none" fill-rule="evenodd"><g id="036---Star-Ribbon" fill-rule="nonzero" transform="translate(0 -1)"><path id="Shape" d="m32 35.881v21.119c-.0015323.7525535-.425377 1.4405435-1.0968282 1.7803851-.6714512.3398417-1.4768327.2740002-2.0841718-.1703851l-3.819-2.78-2.82-2.05c-.7039691-.5101192-1.6560309-.5101192-2.36 0l-2.82 2.05-3.82 2.78c-.607328.4438008-1.4123071.5093076-2.0833995.1695407s-1.0947944-1.0273418-1.0966005-1.7795407v-21.119z" fill="#e64c3c"/><path id="Shape" d="m25 35.88v19.95l-2.82-2.05c-.7039691-.5101192-1.6560309-.5101192-2.36 0l-2.82 2.05v-19.95z" fill="#c03a2b"/><path id="Shape" d="m38.09 35.88h-8.72c-.3915059-.006091-.7583596.1905728-.97.52-4.5 7.021-3.7 5.773-4.51 7.04-.6390756.973586-1.7254025 1.5599631-2.89 1.5599631s-2.2509244-.5863771-2.89-1.5599631c-.854-1.325-3.658-5.709-4.51-7.04-.2116404-.3294272-.5784941-.526091-.97-.52h-8.72c-1.21981048.0263613-2.35590904-.6180694-2.95922137-1.678563-.60331232-1.0604937-.57673699-2.3663668.06922137-3.401437l4.6-7.24c.22881907-.3600548.22881907-.8199452 0-1.18l-4.55-7.07c-.65331289-1.0335413-.68525601-2.3426348-.08312939-3.4068099.60212662-1.0641752 1.74073239-1.7109542 2.96312939-1.6831901h8.68c.3909008.0036167.7566338-.1924464.97-.52l4.5-7.12c.6351588-.98562588 1.7274451-1.58117684 2.9-1.58117684s2.2648412.59555096 2.9 1.58117684l4.5 7.12c.2133662.3275536.5790992.5236167.97.52h8.68c1.222397-.0277641 2.3610028.6190149 2.9631294 1.6831901.6021266 1.0641751.5701835 2.3732686-.0831294 3.4068099l-4.55 7.07c-.2288191.3600548-.2288191.8199452 0 1.18l4.6 7.24c.6459584 1.0350702.6725337 2.3409433.0692214 3.401437-.6033124 1.0604936-1.7394109 1.7049243-2.9592214 1.678563z" fill="#f0c419"/><path id="Shape" d="m35.11 31.88h-5.74c-1.7574618-.0068944-3.3957394.8877411-4.34 2.37l-3.19 4.97c-.1811653.2894154-.4985587.4651854-.84.4651854s-.6588347-.17577-.84-.4651854l-.66-1.03-2.53-3.95c-.9484863-1.4764488-2.5851536-2.3664337-4.34-2.36h-5.74c-.36534729-.000608-.70128388-.2004093-.87623144-.5211465-.17494757-.3207372-.16105687-.7113534.03623144-1.0188535l2.95-4.63c1.0518894-1.6762776 1.0480002-3.8075725-.01-5.48l-2.87-4.47c-.19728831-.3075001-.21117901-.6981163-.03623144-1.0188535.17494756-.3207372.51088415-.5205385.87623144-.5211465h5.67c1.7585194.0110825 3.3986911-.8845873 4.34-2.37l3.18-5.03c.1908117-.28226118.5092942-.45139057.85-.45139057s.6591883.16912939.85.45139057l3.17 5.02c.9428307 1.4901028 2.5866946 2.3895042 4.35 2.38h5.67c.3653473.000608.7012839.2004093.8762314.5211465.1749476.3207372.1610569.7113534-.0362314 1.0188535l-2.86 4.46c-1.0680866 1.6731009-1.0719845 3.8130192-.01 5.49l2.94 4.63c.1972883.3075001.211179.6981163.0362314 1.0188535-.1749475.3207372-.5108841.5205385-.8762314.5211465z" fill="#f3d55b"/><path id="Shape" d="m38.09 35.88h-8.72c-.3915059-.006091-.7583596.1905728-.97.52l-3.9 6.09-.61.95c-.6390756.973586-1.7254025 1.5599631-2.89 1.5599631s-2.2509244-.5863771-2.89-1.5599631l-1.45-2.25c1.0250548-.9227664 1.9747431-1.9259583 2.84-3l.66 1.03c.1811653.2894154.4985587.4651854.84.4651854s.6588347-.17577.84-.4651854l3.19-4.97c.9442606-1.4822589 2.5825382-2.3768944 4.34-2.37h5.74c.3653473-.000608.7012839-.2004093.8762314-.5211465.1749476-.3207372.1610569-.7113534-.0362314-1.0188535l-2.94-4.63c-1.0619845-1.6769808-1.0580866-3.8168991.01-5.49l2.86-4.46c.1972883-.3075001.211179-.6981163.0362314-1.0188535-.1749475-.3207372-.5108841-.5205385-.8762314-.5211465h-5.67c-1.7633054.0095042-3.4071693-.8898972-4.35-2.38l-3.17-5.02c-.1950014-.30871852-.546296-.48243566-.91-.45.4248834-1.70334469.9798458-3.37157506 1.66-4.99.5362051.27174137.9862989.68721263 1.3 1.2l4.5 7.12c.2133662.3275536.5790992.5236167.97.52h8.68c1.222397-.0277641 2.3610028.6190149 2.9631294 1.6831901.6021266 1.0641751.5701835 2.3732686-.0831294 3.4068099l-4.55 7.07c-.2288191.3600548-.2288191.8199452 0 1.18l4.6 7.24c.6459584 1.0350702.6725337 2.3409433.0692214 3.401437-.6033124 1.0604936-1.7394109 1.7049243-2.9592214 1.678563z" fill="#f29c1f"/><path id="Shape" d="m35.11 31.88h-5.74c-1.7574618-.0068944-3.3957394.8877411-4.34 2.37l-3.19 4.97c-.1811653.2894154-.4985587.4651854-.84.4651854s-.6588347-.17577-.84-.4651854l-.66-1.03c3.12-3.89 5.58-9.51 2.5-16.19-2.1438087-4.9322087-2.5182536-10.4535056-1.06-15.63.363704-.03243566.7149986.14128148.91.45l3.17 5.02c.9428307 1.4901028 2.5866946 2.3895042 4.35 2.38h5.67c.3653473.000608.7012839.2004093.8762314.5211465.1749476.3207372.1610569.7113534-.0362314 1.0188535l-2.86 4.46c-1.0680866 1.6731009-1.0719845 3.8130192-.01 5.49l2.94 4.63c.1972883.3075001.211179.6981163.0362314 1.0188535-.1749475.3207372-.5108841.5205385-.8762314.5211465z" fill="#f0c419"/><path id="Shape" d="m27 23c-.0018692 3.0904975-2.3509615 5.6740206-5.4273516 5.9689815-3.0763902.2949609-5.8735846-1.795142-6.4626484-4.8289815-.0722208-.3757261-.1090486-.757397-.11-1.14 0-3.3137085 2.6862915-6 6-6 .382603.0009514.7642739.0377792 1.14.11 2.8215386.5460389 4.8596625 3.0161109 4.86 5.89z" fill="#c03a2b"/><path id="Shape" d="m24 21c-.0005599 2.118997-1.336762 4.0075237-3.3347897 4.7132388-1.9980277.705715-4.2239202.075341-5.5552103-1.5732388-.0722208-.3757261-.1090486-.757397-.11-1.14 0-3.3137085 2.6862915-6 6-6 .382603.0009514.7642739.0377792 1.14.11 1.1748097.9498953 1.8582369 2.3792135 1.86 3.89z" fill="#e64c3c"/></g></g></svg>