<svg id="Layer_1" enable-background="new 0 0 512 512" height="512" viewBox="0 0 512 512" width="512" xmlns="http://www.w3.org/2000/svg"><g clip-rule="evenodd" fill-rule="evenodd"><path d="m256 511.997c140.995 0 255.997-115.002 255.997-255.997s-115.002-255.997-255.997-255.997-255.997 115.002-255.997 255.997 115.002 255.997 255.997 255.997z" fill="#f34235"/><path d="m192.277 210.844h-20.636-35.291c-10.942 0-19.899 8.986-19.899 19.928v131.357c0 10.942 8.958 19.899 19.899 19.899h36.34c9.751 0 17.943-7.115 19.587-16.413l39.685 16.413h96.775c25.342 0 39.912-21.487 46.091-46.063l19.814-79.03c6.18-24.576-20.721-46.091-46.063-46.091h-77.074l9.751-34.923c10.488-37.559-6.038-47.991-33.704-59.754-3.628-1.559-7.285-1.587-10.942-.085-3.628 1.474-6.236 4.082-7.767 7.71z" fill="#ffe0cc"/><path d="m192.277 210.844h-20.636-35.291c-10.942 0-19.899 8.986-19.899 19.928v131.357c0 10.942 8.958 19.899 19.899 19.899h36.34c9.751 0 17.943-7.115 19.587-16.413z" fill="#518ef8"/><path d="m230.743 128.356c27.666 11.764 44.192 22.195 33.704 59.754l-9.751 34.951h77.074c25.342 0 52.242 21.487 46.063 46.063l-19.843 79.03c-2.976 11.849-7.88 22.989-15.052 31.351 16.753-6.378 26.957-23.981 31.89-43.54l19.814-79.03c6.18-24.576-20.721-46.091-46.063-46.091h-77.074l9.751-34.923c10.488-37.559-6.038-47.991-33.704-59.754-3.628-1.559-7.285-1.587-10.942-.085-3.628 1.474-6.236 4.082-7.767 7.71l-1.474 3.572c1.135.17 2.24.51 3.374.992z" fill="#ffc5a6"/><path d="m159.877 224.734h20.636v154.743c-.057.34-.142.68-.198 1.02 6.151-2.551 10.772-8.164 11.962-14.882v-154.771h-20.636-35.291c-9.383 0-17.32 6.605-19.389 15.42 2.353-.992 4.932-1.531 7.625-1.531h35.291z" fill="#3478ed"/><path d="m129.405 380.781 181.332 125.348c103.181-22.479 183.146-107.178 198.567-212.825l-239.216-165.373c12.926 9.383 18.312 22.394 11.169 47.991l-9.751 34.923h77.074c25.342 0 52.242 21.515 46.063 46.091l-19.814 79.03c-4.932 19.559-15.137 37.162-31.89 43.54-4.28 1.616-9.014 2.523-14.202 2.523h-96.775l-39.685-16.413c-1.191 6.718-5.811 12.331-11.962 14.882-2.353.992-4.932 1.531-7.625 1.531h-36.34c-2.438-.001-4.791-.454-6.945-1.248z" fill="#a70000"/></g></svg>