<svg id="Capa_1" enable-background="new 0 0 510 510" height="512" viewBox="0 0 510 510" width="512" xmlns="http://www.w3.org/2000/svg" xmlns:xlink="http://www.w3.org/1999/xlink"><linearGradient id="lg1"><stop offset="0" stop-color="#fee45a"/><stop offset="1" stop-color="#fea613"/></linearGradient><linearGradient id="SVGID_1_" gradientUnits="userSpaceOnUse" x1="46.547" x2="165.202" xlink:href="#lg1" y1="317.267" y2="435.921"/><linearGradient id="lg2"><stop offset="0" stop-color="#fea613" stop-opacity="0"/><stop offset="1" stop-color="#e94444"/></linearGradient><linearGradient id="SVGID_2_" gradientUnits="userSpaceOnUse" x1="71.156" x2="173.249" xlink:href="#lg2" y1="398.017" y2="335.214"/><linearGradient id="SVGID_3_" gradientUnits="userSpaceOnUse" x1="163.584" x2="32.213" xlink:href="#lg2" y1="370.764" y2="330.317"/><linearGradient id="SVGID_4_" gradientUnits="userSpaceOnUse" x1="79.414" x2="183.627" xlink:href="#lg2" y1="340.875" y2="474.48"/><linearGradient id="SVGID_5_" gradientUnits="userSpaceOnUse" x1="216.606" x2="180.94" xlink:href="#lg2" y1="402.977" y2="340.977"/><linearGradient id="SVGID_6_" gradientUnits="userSpaceOnUse" x1="355.105" x2="473.76" xlink:href="#lg1" y1="317.267" y2="435.921"/><linearGradient id="SVGID_7_" gradientUnits="userSpaceOnUse" x1="396.838" x2="300.838" xlink:href="#lg2" y1="398.168" y2="362.835"/><linearGradient id="SVGID_8_" gradientUnits="userSpaceOnUse" x1="379.714" x2="481.806" xlink:href="#lg2" y1="398.017" y2="335.214"/><linearGradient id="SVGID_9_" gradientUnits="userSpaceOnUse" x1="472.142" x2="340.77" xlink:href="#lg2" y1="370.764" y2="330.317"/><linearGradient id="SVGID_10_" gradientUnits="userSpaceOnUse" x1="387.972" x2="492.184" xlink:href="#lg2" y1="340.875" y2="474.48"/><linearGradient id="SVGID_11_" gradientUnits="userSpaceOnUse" x1="176.461" x2="348.481" xlink:href="#lg1" y1="157.988" y2="330.008"/><linearGradient id="SVGID_12_" gradientUnits="userSpaceOnUse" x1="212.138" x2="360.147" xlink:href="#lg2" y1="275.055" y2="184.006"/><linearGradient id="SVGID_13_" gradientUnits="userSpaceOnUse" x1="346.136" x2="155.679" xlink:href="#lg2" y1="235.545" y2="176.907"/><linearGradient id="SVGID_14_" gradientUnits="userSpaceOnUse" x1="224.11" x2="375.192" xlink:href="#lg2" y1="192.214" y2="385.908"/><linearGradient id="lg3"><stop offset="0" stop-color="#fedbbd"/><stop offset="1" stop-color="#fd3581"/></linearGradient><linearGradient id="SVGID_15_" gradientTransform="matrix(.707 .707 -.707 .707 -3678.477 -9606.206)" gradientUnits="userSpaceOnUse" x1="9778.493" x2="9823.009" xlink:href="#lg3" y1="3959.553" y2="3959.553"/><linearGradient id="SVGID_16_" gradientUnits="userSpaceOnUse" x1="371.845" x2="416.361" xlink:href="#lg3" y1="87.065" y2="87.065"/><linearGradient id="SVGID_17_" gradientTransform="matrix(0 1 -1 0 2590.734 -9620.254)" gradientUnits="userSpaceOnUse" x1="9784.059" x2="9828.574" xlink:href="#lg3" y1="2113.426" y2="2113.426"/><linearGradient id="SVGID_18_" gradientTransform="matrix(-.707 .707 .707 .707 4558.656 -9606.206)" gradientUnits="userSpaceOnUse" x1="10040.252" x2="10084.768" xlink:href="#lg3" y1="3697.795" y2="3697.795"/><linearGradient id="SVGID_19_" gradientTransform="matrix(-1 0 0 1 8981.667 -5163.089)" gradientUnits="userSpaceOnUse" x1="8843.512" x2="8888.027" xlink:href="#lg3" y1="5250.154" y2="5250.154"/><linearGradient id="SVGID_20_" gradientTransform="matrix(0 1 1 0 -1710.555 -9620.254)" gradientUnits="userSpaceOnUse" x1="9784.059" x2="9828.574" xlink:href="#lg3" y1="1743.247" y2="1743.247"/><g><g><g><path d="m123.757 275.844 14.741 29.868c1.54 3.121 4.518 5.284 7.962 5.784l32.961 4.79c21.07 3.062 29.483 28.954 14.237 43.816l-23.851 23.249c-2.492 2.429-3.629 5.929-3.041 9.359l5.63 32.828c3.599 20.985-18.426 36.987-37.272 27.08l-29.481-15.499c-3.081-1.62-6.761-1.62-9.841 0l-29.482 15.499c-18.845 9.908-40.871-6.095-37.272-27.08l5.63-32.828c.588-3.43-.549-6.93-3.041-9.359l-23.851-23.249c-15.246-14.862-6.833-40.754 14.237-43.816l32.961-4.79c3.444-.5 6.421-2.664 7.962-5.784l14.741-29.868c9.422-19.093 36.647-19.093 46.07 0z" fill="url(#SVGID_1_)"/><path d="m135.122 452.619-29.48-15.501c-3.081-1.621-6.76-1.621-9.84 0l-29.48 15.501c-18.845 9.907-40.874-6.094-37.276-27.083l5.634-32.824c.585-3.433-.549-6.934-3.045-9.362l-23.85-23.248c-8.197-7.992-9.554-19.171-5.782-28.275l164.854 56.849c-.286 1.308-.326 2.679-.094 4.036l5.634 32.824c3.599 20.989-18.43 36.99-37.275 27.083z" fill="url(#SVGID_2_)"/><path d="m105.642 437.119 29.481 15.499c18.846 9.908 40.871-6.095 37.272-27.08l-5.631-32.828c-.588-3.43.549-6.93 3.041-9.359l23.851-23.249c15.246-14.862 6.833-40.754-14.237-43.816l-32.961-4.79c-3.444-.5-6.421-2.664-7.962-5.784l-14.741-29.868c-4.711-9.546-13.873-14.319-23.035-14.319v174.38c1.692-.001 3.382.404 4.922 1.214z" fill="url(#SVGID_3_)"/><path d="m66.321 452.619 29.48-15.501c3.081-1.621 6.76-1.621 9.84 0l29.48 15.501c18.845 9.907 40.874-6.094 37.276-27.083l-5.634-32.824c-.585-3.433.549-6.934 3.045-9.362l23.85-23.248c8.197-7.992 9.555-19.171 5.782-28.275l-164.854 56.849c.286 1.308.326 2.679.094 4.036l-5.634 32.824c-3.599 20.989 18.43 36.99 37.275 27.083z" fill="url(#SVGID_4_)"/></g><path d="m183.75 369.759 9.908-9.657c13.341-13.004 8.567-34.454-6.951-41.664l-27.139 27.139z" fill="url(#SVGID_5_)"/><g><path d="m432.314 275.844 14.741 29.868c1.54 3.121 4.518 5.284 7.962 5.784l32.961 4.79c21.07 3.062 29.483 28.954 14.237 43.816l-23.851 23.249c-2.492 2.429-3.629 5.929-3.041 9.359l5.63 32.828c3.599 20.985-18.427 36.987-37.272 27.08l-29.482-15.499c-3.081-1.62-6.761-1.62-9.841 0l-29.482 15.499c-18.845 9.908-40.871-6.095-37.272-27.08l5.63-32.828c.588-3.43-.549-6.93-3.041-9.359l-23.851-23.249c-15.246-14.862-6.833-40.754 14.237-43.816l32.961-4.79c3.444-.5 6.421-2.664 7.962-5.784l14.741-29.868c9.423-19.093 36.648-19.093 46.071 0z" fill="url(#SVGID_6_)"/><path d="m480.851 435.026-122.684-122.684-.16-.042-27.427 3.985c-21.07 3.062-29.483 28.954-14.237 43.816l23.851 23.249c2.492 2.429 3.629 5.929 3.041 9.359l-5.63 32.828c-3.599 20.985 18.427 36.987 37.272 27.08l29.482-15.499c3.08-1.62 6.76-1.62 9.841 0l29.482 15.499c15.867 8.344 33.988-1.686 37.169-17.591z" fill="url(#SVGID_7_)"/><path d="m443.679 452.619-29.48-15.501c-3.081-1.621-6.759-1.621-9.84 0l-29.48 15.501c-18.845 9.907-40.874-6.094-37.276-27.083l5.634-32.824c.585-3.433-.549-6.934-3.045-9.362l-23.85-23.248c-8.197-7.992-9.555-19.171-5.782-28.275l164.854 56.849c-.286 1.308-.326 2.679-.094 4.036l5.634 32.824c3.599 20.989-18.429 36.99-37.275 27.083z" fill="url(#SVGID_8_)"/><path d="m414.199 437.119 29.482 15.499c18.845 9.908 40.871-6.095 37.272-27.08l-5.63-32.828c-.588-3.43.549-6.93 3.041-9.359l23.851-23.249c15.246-14.862 6.833-40.754-14.237-43.816l-32.961-4.79c-3.444-.5-6.421-2.664-7.962-5.784l-14.741-29.868c-4.711-9.546-13.873-14.319-23.035-14.319v174.38c1.69-.001 3.38.404 4.92 1.214z" fill="url(#SVGID_9_)"/><path d="m374.878 452.619 29.48-15.501c3.081-1.621 6.76-1.621 9.84 0l29.48 15.501c18.845 9.907 40.874-6.094 37.276-27.083l-5.634-32.824c-.585-3.433.549-6.934 3.045-9.362l23.85-23.248c8.197-7.992 9.554-19.171 5.782-28.275l-164.854 56.849c.286 1.308.326 2.679.094 4.036l-5.634 32.824c-3.599 20.989 18.43 36.99 37.275 27.083z" fill="url(#SVGID_10_)"/></g><g><path d="m288.396 97.935 21.37 43.301c2.233 4.525 6.549 7.661 11.542 8.386l47.786 6.944c30.546 4.439 42.743 41.977 20.64 63.522l-34.578 33.705c-3.613 3.522-5.262 8.596-4.409 13.569l8.163 47.593c5.218 30.423-26.714 53.622-54.035 39.259l-42.741-22.47c-4.466-2.348-9.801-2.348-14.267 0l-42.741 22.47c-27.321 14.364-59.253-8.836-54.035-39.259l8.163-47.593c.853-4.973-.796-10.047-4.409-13.569l-34.578-33.705c-22.103-21.545-9.906-59.084 20.64-63.522l47.786-6.944c4.993-.725 9.309-3.861 11.542-8.386l21.37-43.301c13.66-27.679 53.13-27.679 66.791 0z" fill="url(#SVGID_11_)"/><path d="m304.872 354.215-42.739-22.473c-4.466-2.35-9.8-2.35-14.266 0l-42.739 22.473c-27.321 14.363-59.257-8.835-54.04-39.263l8.169-47.587c.848-4.977-.796-10.052-4.414-13.573l-34.577-33.703c-11.884-11.586-13.851-27.794-8.382-40.992l238.997 82.417c-.414 1.896-.473 3.884-.136 5.851l8.169 47.587c5.215 30.428-26.721 53.626-54.042 39.263z" fill="url(#SVGID_12_)"/><path d="m262.134 331.744 42.741 22.47c27.321 14.364 59.253-8.836 54.035-39.259l-8.163-47.593c-.853-4.973.796-10.047 4.409-13.569l34.578-33.705c22.103-21.545 9.906-59.084-20.64-63.522l-47.786-6.944c-4.993-.725-9.309-3.861-11.542-8.386l-21.37-43.301c-6.83-13.84-20.113-20.76-33.396-20.76v252.807c2.45.001 4.901.588 7.134 1.762z" fill="url(#SVGID_13_)"/><path d="m205.128 354.215 42.739-22.473c4.466-2.35 9.8-2.35 14.266 0l42.739 22.473c27.321 14.363 59.257-8.835 54.04-39.263l-8.169-47.587c-.848-4.977.796-10.052 4.414-13.573l34.577-33.703c11.884-11.586 13.852-27.794 8.382-40.992l-238.996 82.417c.414 1.896.473 3.884.136 5.851l-8.169 47.587c-5.217 30.428 26.72 53.626 54.041 39.263z" fill="url(#SVGID_14_)"/></g></g><g><g><g><g><path d="m423.134 141.239c-6.259-6.259-6.259-16.408 0-22.667l23.567-23.567c6.259-6.259 16.407-6.259 22.666 0 6.259 6.259 6.259 16.407 0 22.667l-23.567 23.567c-6.259 6.259-16.407 6.259-22.666 0z" fill="url(#SVGID_15_)"/></g></g></g><g><g><g><g><path d="m386.207 119.757c-8.852 0-16.028-7.176-16.028-16.028v-33.329c0-8.852 7.176-16.028 16.028-16.028 8.852 0 16.028 7.176 16.028 16.028v33.329c-.001 8.852-7.177 16.028-16.028 16.028z" fill="url(#SVGID_16_)"/></g></g></g><g><g><g><path d="m444.616 178.166c0-8.852 7.176-16.028 16.028-16.028h33.329c8.852 0 16.028 7.176 16.028 16.028 0 8.852-7.176 16.028-16.028 16.028h-33.329c-8.852 0-16.028-7.176-16.028-16.028z" fill="url(#SVGID_17_)"/></g></g></g></g></g><g><g><g><g><path d="m86.866 141.239c6.259-6.259 6.259-16.408 0-22.667l-23.567-23.567c-6.259-6.259-16.407-6.259-22.667 0-6.259 6.259-6.259 16.407 0 22.667l23.567 23.567c6.26 6.259 16.408 6.259 22.667 0z" fill="url(#SVGID_18_)"/></g></g></g><g><g><g><g><path d="m123.793 119.757c8.852 0 16.028-7.176 16.028-16.028v-33.329c0-8.852-7.176-16.028-16.028-16.028-8.852 0-16.028 7.176-16.028 16.028v33.329c.001 8.852 7.177 16.028 16.028 16.028z" fill="url(#SVGID_19_)"/></g></g></g><g><g><g><path d="m65.384 178.166c0-8.852-7.176-16.028-16.028-16.028h-33.329c-8.851.001-16.027 7.176-16.027 16.028 0 8.852 7.176 16.028 16.028 16.028h33.329c8.851 0 16.027-7.176 16.027-16.028z" fill="url(#SVGID_20_)"/></g></g></g></g></g></g></svg>