<svg id="Flat" height="512" viewBox="0 0 64 64" width="512" xmlns="http://www.w3.org/2000/svg"><path d="m4 6v22a4 4 0 0 0 4 4h39l8 6v-6h1a4 4 0 0 0 4-4v-22a4 4 0 0 0 -4-4h-48a4 4 0 0 0 -4 4z" fill="#e9eff6"/><path d="m26.143 6.714a6.811 6.811 0 0 0 -5.143 2.365 6.831 6.831 0 0 0 -12 4.492c0 7.169 12 13.715 12 13.715s12-6.546 12-13.715a6.857 6.857 0 0 0 -6.857-6.857z" fill="#f0466e"/><path d="m55 14-7-6v3.5a11 11 0 0 0 -11 11v3.5l.146-.693a11.091 11.091 0 0 1 10.854-8.807v3.5z" fill="#506480"/><path d="m12 42v9a10 10 0 0 0 4 8v3h22v-3a10 10 0 0 0 4-8v-13h-24v4z" fill="#fac194"/><path d="m12 47v-7a4 4 0 0 1 4-4 2 2 0 0 1 2 2v9" fill="#fac194"/><path d="m16 38a2 2 0 0 0 -1.159-1.809 3.935 3.935 0 0 1 1.159-.191 2 2 0 0 1 2 2v8a1 1 0 0 1 -1 1 1 1 0 0 1 -1-1z" fill="#f5af85"/><g fill="#fac194"><path d="m24 40v-9a3 3 0 0 1 3-3 3 3 0 0 1 3 3v9"/><path d="m30 40v-8a3 3 0 0 1 3-3 3 3 0 0 1 3 3v8"/><path d="m36 40v-6a3 3 0 0 1 3-3 3 3 0 0 1 3 3v6"/></g><path d="m39 31a2.962 2.962 0 0 0 -1 .184 2.99 2.99 0 0 1 2 2.816v5a1 1 0 0 0 2 0v-5a3 3 0 0 0 -3-3z" fill="#f5af85"/><path d="m33 29a2.962 2.962 0 0 0 -1 .184 2.99 2.99 0 0 1 2 2.816v7a1 1 0 0 0 2 0v-7a3 3 0 0 0 -3-3z" fill="#f5af85"/><path d="m27 28a2.962 2.962 0 0 0 -1 .184 2.99 2.99 0 0 1 2 2.816v8a1 1 0 0 0 2 0v-8a3 3 0 0 0 -3-3z" fill="#f5af85"/><path d="m18 40v-19a3 3 0 0 1 3-3 3 3 0 0 1 3 3v19" fill="#fac194"/><path d="m21 18a2.962 2.962 0 0 0 -1 .184 2.99 2.99 0 0 1 2 2.816v18a1 1 0 0 0 2 0v-18a3 3 0 0 0 -3-3z" fill="#f5af85"/></svg>