<svg height="512" viewBox="0 0 64 64" width="512" xmlns="http://www.w3.org/2000/svg"><g id="icon"><path d="m33 27v4h-2v-4zm1-1h-4v6h4z" fill="#4c5dff"/><path d="m47.666 22.471-15 5.294a2 2 0 0 1 -1.332 0l-15-5.294a2 2 0 0 1 -1.334-1.886v-13.585h34v13.585a2 2 0 0 1 -1.334 1.886z" fill="#4c5dff"/><g fill="#a6c5ff"><path d="m39 25.53-6.335 2.235a2 2 0 0 1 -1.33 0l-6.335-2.235v-18.53h14z"/><path d="m49 8h-34a2 2 0 0 1 -2-2 2 2 0 0 1 2-2h34a2 2 0 0 1 2 2 2 2 0 0 1 -2 2z"/><path d="m40.946 32 7.214 12.5a2 2 0 0 1 0 2l-7.214 12.5a2 2 0 0 1 -1.732 1h-14.428a2 2 0 0 1 -1.732-1l-7.214-12.5a2 2 0 0 1 0-2l7.214-12.5a2 2 0 0 1 1.732-1h14.428a2 2 0 0 1 1.732 1z"/></g><path d="m32.923 36.807 1.785 4.277a1.142 1.142 0 0 0 .962.7l4.619.377a1 1 0 0 1 .57 1.755l-3.515 3.02a1.144 1.144 0 0 0 -.368 1.13l1.07 4.51a1 1 0 0 1 -1.494 1.084l-3.958-2.41a1.143 1.143 0 0 0 -1.188 0l-3.958 2.41a1 1 0 0 1 -1.494-1.084l1.1-4.636a.93.93 0 0 0 -.3-.919l-3.614-3.1a1 1 0 0 1 .57-1.755l4.619-.377a1.142 1.142 0 0 0 .962-.7l1.785-4.277a1 1 0 0 1 1.847-.005z" fill="#4c5dff"/></g></svg>