<svg viewBox="0 0 512 512" xmlns="http://www.w3.org/2000/svg" xmlns:xlink="http://www.w3.org/1999/xlink"><linearGradient id="linear-gradient" gradientUnits="userSpaceOnUse" x1="13.64" x2="498.36" y1="256" y2="256"><stop offset="0" stop-color="#6298f2"/><stop offset=".21" stop-color="#6982f1"/><stop offset=".51" stop-color="#7069f0"/><stop offset=".78" stop-color="#745aef"/><stop offset="1" stop-color="#7655ef"/></linearGradient><g id="Layer_2" data-name="Layer 2"><g id="Number"><g id="_3" data-name="3"><g id="Star"><path d="m388.65 512a39.64 39.64 0 0 1 -19.24-5l-106.87-58.6a13.5 13.5 0 0 0 -13.08 0l-106.87 58.6a39.65 39.65 0 0 1 -19.25 5 40.76 40.76 0 0 1 -31.7-15.49 44.16 44.16 0 0 1 -9-35l20.36-124.06a15.07 15.07 0 0 0 -4-13l-86.49-87.86a44.14 44.14 0 0 1 -10.46-44.19c4.9-15.72 17.69-27 33.37-29.34l119.49-18.06a14.11 14.11 0 0 0 10.59-8l53.43-113c7.07-14.79 21.22-24 37.07-24s30.05 9.21 37.07 24l53.44 112.9a14.08 14.08 0 0 0 10.58 8l119.49 18.11c15.68 2.38 28.47 13.62 33.37 29.34a44.14 44.14 0 0 1 -10.46 44.19l-86.49 87.93a15.05 15.05 0 0 0 -4 13l20.41 124.09a44.16 44.16 0 0 1 -9 35 40.77 40.77 0 0 1 -31.75 15.44z" fill="#5642ba"/><path d="m280.84 30.32 53.43 112.91a27.85 27.85 0 0 0 20.86 15.77l119.48 18.1c22.72 3.45 31.79 32.56 15.36 49.27l-86.47 87.92a29.67 29.67 0 0 0 -8 25.56l20.5 124.15c3.88 23.59-19.87 41.59-40.19 30.45l-106.92-58.64a26.67 26.67 0 0 0 -25.78 0l-106.87 58.59c-20.32 11.14-44.07-6.86-40.19-30.45l20.41-124.1a29.67 29.67 0 0 0 -8-25.56l-86.46-87.89c-16.43-16.71-7.36-45.82 15.36-49.27l119.51-18.13a27.85 27.85 0 0 0 20.86-15.8l53.43-112.88c10.16-21.46 39.52-21.46 49.68 0z" fill="url(#linear-gradient)"/></g><g id="_3-2" data-name="3"><path d="m268.52 262.22q12.47-4.17 19-13.17t6.56-21.8a37.34 37.34 0 0 0 -14.08-30.06q-14.13-11.73-36.4-11.72-26.65 0-46.05 11.93l7.68 20.26q15.66-10 35.7-10 12.36 0 19.19 6.39a21.8 21.8 0 0 1 3.88 26.74 18 18 0 0 1 -8.64 6.93 51.93 51.93 0 0 1 -12.36 3.28 113.6 113.6 0 0 1 -15.93 1h-6v21.53l3.09.06 3.09.05q8.41.11 14.39.75a60.76 60.76 0 0 1 11.67 2.4 25.68 25.68 0 0 1 9.11 4.63 20.36 20.36 0 0 1 5.49 7.68 28.48 28.48 0 0 1 2.08 11.4q0 10.66-7.51 17.27t-19.78 6.61a72.77 72.77 0 0 1 -21.21-3.14q-10.33-3.15-16.2-8.05l-7.67 20.15q7 6.07 19.13 9.64a90.88 90.88 0 0 0 25.85 3.57 76 76 0 0 0 28.24-4.95 44.83 44.83 0 0 0 20-15.25q7.58-10.27 7.57-24.46 0-14.92-7.84-25.9t-22.05-13.77z" fill="#fff"/></g></g></g></g></svg>