<svg viewBox="0 0 512 512" xmlns="http://www.w3.org/2000/svg" xmlns:xlink="http://www.w3.org/1999/xlink"><linearGradient id="linear-gradient" gradientUnits="userSpaceOnUse" x2="512" y1="256" y2="256"><stop offset="0" stop-color="#164b8b"/><stop offset=".14" stop-color="#1b467e"/><stop offset=".46" stop-color="#243d65"/><stop offset=".76" stop-color="#293856"/><stop offset="1" stop-color="#2b3651"/></linearGradient><g id="Layer_2" data-name="Layer 2"><g id="Number"><g id="_5" data-name="5"><g id="Star"><path d="m282.24 17.05 56.44 119.55a29.4 29.4 0 0 0 22 16.73l126.24 19.17c24 3.64 33.58 34.47 16.21 52.16l-91.32 93a31.44 31.44 0 0 0 -8.42 27.07l21.61 131.45c4.1 25-21 44-42.45 32.24l-112.89-62a28.14 28.14 0 0 0 -27.22 0l-112.89 62c-21.55 11.79-46.55-7.26-42.5-32.24l21.56-131.4a31.44 31.44 0 0 0 -8.42-27.07l-91.32-93c-17.37-17.71-7.79-48.57 16.21-52.21l126.21-19.17a29.4 29.4 0 0 0 22-16.73l56.47-119.55c10.74-22.73 41.74-22.73 52.48 0z" fill="url(#linear-gradient)"/></g><path id="_5-2" d="m250.45 243a41.65 41.65 0 0 0 -19.89 5.06q.1-2 .81-19.56t.7-19.45h59l1.61-22.2h-85.55l-4.09 86 18.82 3.67q10.53-11.64 23.86-11.64 11.19 0 18.22 7.76t7.06 20.62q0 13.59-7.74 22t-22.8 8.41a49.86 49.86 0 0 1 -16.82-3.13 71.65 71.65 0 0 1 -12.7-5.54 66.66 66.66 0 0 1 -6-4l-8.6 20.26a46.48 46.48 0 0 0 7.84 4.91 102.23 102.23 0 0 0 17.2 6.68 74 74 0 0 0 21.94 3.5q26.22 0 40.8-14.39t14.56-38.31q0-22.53-13.27-36.54t-34.96-14.11z" fill="#fff" data-name="5"/></g></g></g></svg>