<svg id="Layer_2_00000147219945823671370460000004689007788861625006_" enable-background="new 0 0 512 512" viewBox="0 0 512 512" xmlns="http://www.w3.org/2000/svg"><g id="Icons"><g id="LIKE"><g><path d="m196.4 476.6c-3.3 0-6.4-1.6-8.3-4.5l-36.9-55.1-62.9 12.9c-.7.1-1.3.2-2 .2-4.2 0-8.1-2.7-9.5-6.9l-76.3-231.6c-.9-2.6-.6-5.4.7-7.8s3.5-4.2 6.1-4.9l492-139.9c.9-.3 1.8-.4 2.7-.4 2.3 0 4.6.8 6.4 2.3 2.5 2.1 3.9 5.4 3.6 8.6l-29.7 310.9c-.4 4.6-3.9 8.2-8.4 8.9l-249.3 38.3-18.6 61.9c-1.1 3.7-4.3 6.4-8.1 7-.5.1-1 .1-1.5.1z"/><path d="m10 188.5 76.3 231.6 69.5-14.3 40.6 60.8 20.4-67.8 255.5-39.3 29.7-310.9z" fill="#24d6ff"/><path d="m472.3 359.5 1.2-273-463.5 102 492-139.9z" fill="#5aecff"/><path d="m472.3 359.5-255.5 39.3-20.4 67.8-40.6-60.8-69.5 14.3-76.3-231.6 89.7 204.8 63.3-6.6 31 50.9 13.1-53.5z" fill="#00b7ff"/><path d="m173.5 287.6c0 4.1-3.4 7.5-7.5 7.5s-7.5-3.4-7.5-7.5 3.4-7.5 7.5-7.5 7.5 3.4 7.5 7.5zm-7.5 22.5c-4.1 0-7.5 3.4-7.5 7.5s3.4 7.5 7.5 7.5 7.5-3.4 7.5-7.5-3.4-7.5-7.5-7.5zm0-60c-4.1 0-7.5 3.4-7.5 7.5s3.4 7.5 7.5 7.5 7.5-3.4 7.5-7.5-3.4-7.5-7.5-7.5zm0 120c-4.1 0-7.5 3.4-7.5 7.5s3.4 7.5 7.5 7.5 7.5-3.4 7.5-7.5-3.4-7.5-7.5-7.5zm0-210c-4.1 0-7.5 3.4-7.5 7.5s3.4 7.5 7.5 7.5 7.5-3.4 7.5-7.5-3.4-7.5-7.5-7.5zm0 60c-4.1 0-7.5 3.4-7.5 7.5s3.4 7.5 7.5 7.5 7.5-3.4 7.5-7.5-3.4-7.5-7.5-7.5zm0 120c-4.1 0-7.5 3.4-7.5 7.5s3.4 7.5 7.5 7.5 7.5-3.4 7.5-7.5-3.4-7.5-7.5-7.5zm0-150c-4.1 0-7.5 3.4-7.5 7.5s3.4 7.5 7.5 7.5 7.5-3.4 7.5-7.5-3.4-7.5-7.5-7.5zm30 30c-4.1 0-7.5 3.4-7.5 7.5s3.4 7.5 7.5 7.5 7.5-3.4 7.5-7.5-3.4-7.5-7.5-7.5zm0 150c-4.1 0-7.5 3.4-7.5 7.5s3.4 7.5 7.5 7.5 7.5-3.4 7.5-7.5-3.4-7.5-7.5-7.5zm0-30c-4.1 0-7.5 3.4-7.5 7.5s3.4 7.5 7.5 7.5 7.5-3.4 7.5-7.5-3.4-7.5-7.5-7.5zm0 90c-4.1 0-7.5 3.4-7.5 7.5s3.4 7.5 7.5 7.5 7.5-3.4 7.5-7.5-3.4-7.5-7.5-7.5zm0-120c-4.1 0-7.5 3.4-7.5 7.5s3.4 7.5 7.5 7.5 7.5-3.4 7.5-7.5-3.4-7.5-7.5-7.5zm0-60c-4.1 0-7.5 3.4-7.5 7.5s3.4 7.5 7.5 7.5 7.5-3.4 7.5-7.5-3.4-7.5-7.5-7.5zm0-60c-4.1 0-7.5 3.4-7.5 7.5s3.4 7.5 7.5 7.5 7.5-3.4 7.5-7.5-3.4-7.5-7.5-7.5zm-24.3-47.6-7.9 2.2c.7.2 1.5.3 2.2.3 2.3.1 4.3-.9 5.7-2.5zm24.3 17.6c-4.1 0-7.5 3.4-7.5 7.5s3.4 7.5 7.5 7.5 7.5-3.4 7.5-7.5-3.4-7.5-7.5-7.5zm0 120c-4.1 0-7.5 3.4-7.5 7.5s3.4 7.5 7.5 7.5 7.5-3.4 7.5-7.5-3.4-7.5-7.5-7.5zm240-30c-4.1 0-7.5 3.4-7.5 7.5s3.4 7.5 7.5 7.5 7.5-3.4 7.5-7.5-3.4-7.5-7.5-7.5zm0-90c-4.1 0-7.5 3.4-7.5 7.5s3.4 7.5 7.5 7.5 7.5-3.4 7.5-7.5-3.4-7.5-7.5-7.5zm0 150c-4.1 0-7.5 3.4-7.5 7.5s3.4 7.5 7.5 7.5 7.5-3.4 7.5-7.5-3.4-7.5-7.5-7.5zm0 30c-4.1 0-7.5 3.4-7.5 7.5s3.4 7.5 7.5 7.5 7.5-3.4 7.5-7.5-3.4-7.5-7.5-7.5zm30-240c-4.1 0-7.5 3.4-7.5 7.5s3.4 7.5 7.5 7.5 7.5-3.4 7.5-7.5-3.4-7.5-7.5-7.5zm0 30c-4.1 0-7.5 3.4-7.5 7.5s3.4 7.5 7.5 7.5 7.5-3.4 7.5-7.5-3.4-7.5-7.5-7.5zm-30 90c-4.1 0-7.5 3.4-7.5 7.5s3.4 7.5 7.5 7.5 7.5-3.4 7.5-7.5-3.4-7.5-7.5-7.5zm0 60c-4.1 0-7.5 3.4-7.5 7.5s3.4 7.5 7.5 7.5 7.5-3.4 7.5-7.5-3.4-7.5-7.5-7.5zm0-90c-4.1 0-7.5 3.4-7.5 7.5s3.4 7.5 7.5 7.5 7.5-3.4 7.5-7.5-3.4-7.5-7.5-7.5zm-240 210c-4.1 0-7.5 3.4-7.5 7.5s3.4 7.5 7.5 7.5 7.5-3.4 7.5-7.5-3.4-7.5-7.5-7.5zm-3.4 60.8 3.8 5.7 1.9-6.2c-.7-.2-1.5-.4-2.3-.4-1.2.1-2.4.4-3.4.9zm273.4-300.8c-4.1 0-7.5 3.4-7.5 7.5s3.4 7.5 7.5 7.5 7.5-3.4 7.5-7.5-3.4-7.5-7.5-7.5zm0 150c-4.1 0-7.5 3.4-7.5 7.5s3.4 7.5 7.5 7.5 7.5-3.4 7.5-7.5-3.4-7.5-7.5-7.5zm0-30c-4.1 0-7.5 3.4-7.5 7.5s3.4 7.5 7.5 7.5 7.5-3.4 7.5-7.5-3.4-7.5-7.5-7.5zm22.5-142.5c0 3 1.8 5.6 4.4 6.8l1.3-14.1c-3.3.8-5.7 3.8-5.7 7.3zm7.5-37.5c-4.1 0-7.5 3.4-7.5 7.5s3.2 7.3 7.2 7.5l1.4-14.9c-.4-.1-.7-.1-1.1-.1zm-30 150c-4.1 0-7.5 3.4-7.5 7.5s3.4 7.5 7.5 7.5 7.5-3.4 7.5-7.5-3.4-7.5-7.5-7.5zm0-60c-4.1 0-7.5 3.4-7.5 7.5s3.4 7.5 7.5 7.5 7.5-3.4 7.5-7.5-3.4-7.5-7.5-7.5zm0 30c-4.1 0-7.5 3.4-7.5 7.5s3.4 7.5 7.5 7.5 7.5-3.4 7.5-7.5-3.4-7.5-7.5-7.5zm0-150c-4.1 0-7.5 3.4-7.5 7.5s3.4 7.5 7.5 7.5 7.5-3.4 7.5-7.5-3.4-7.5-7.5-7.5zm-390 150c-4.1 0-7.5 3.4-7.5 7.5s3.4 7.5 7.5 7.5 7.5-3.4 7.5-7.5-3.4-7.5-7.5-7.5zm-30-30c-4.1 0-7.5 3.4-7.5 7.5s3.4 7.5 7.5 7.5 7.5-3.4 7.5-7.5-3.4-7.5-7.5-7.5zm0 30c-4.1 0-7.5 3.4-7.5 7.5s3.4 7.5 7.5 7.5 7.5-3.4 7.5-7.5-3.4-7.5-7.5-7.5zm30-30c-4.1 0-7.5 3.4-7.5 7.5s3.4 7.5 7.5 7.5 7.5-3.4 7.5-7.5-3.4-7.5-7.5-7.5zm-30 60c-4.1 0-7.5 3.4-7.5 7.5s3.4 7.5 7.5 7.5 7.5-3.4 7.5-7.5-3.4-7.5-7.5-7.5zm4.6 61.6 2.6 8c.2-.6.3-1.3.3-2.1 0-2.4-1.1-4.6-2.9-5.9zm-4.6-16.6c4.1 0 7.5-3.4 7.5-7.5s-3.4-7.5-7.5-7.5c-2 0-3.8.8-5.1 2l4.2 12.9c.3.1.6.1.9.1zm-24.9-73 2.3 6.9c.1-.5.1-.9.1-1.4 0-2.2-.9-4.1-2.4-5.5zm2.4-24.5c0-4.1-3.4-7.5-7.5-7.5-1.9 0-3.6.7-4.9 1.8l4.3 13.2h.5c4.2 0 7.6-3.4 7.6-7.5zm172.5-52.5c4.1 0 7.5-3.4 7.5-7.5 0-1.4-.4-2.7-1.1-3.8l-13.9 4c.1 4 3.4 7.3 7.5 7.3zm-30 270c4.1 0 7.5-3.4 7.5-7.5s-3.4-7.5-7.5-7.5-7.5 3.4-7.5 7.5c0 1.5.4 2.9 1.2 4l.2.2c1.3 2 3.6 3.3 6.1 3.3zm-90-165c-4.1 0-7.5 3.4-7.5 7.5s3.4 7.5 7.5 7.5 7.5-3.4 7.5-7.5-3.4-7.5-7.5-7.5zm0-75c4.1 0 7.5-3.4 7.5-7.5l-13.9 3.9c1.3 2.2 3.7 3.6 6.4 3.6zm420-120c2.2 0 4.2-1 5.6-2.5l.4-4-12 3.4c1.3 1.9 3.5 3.1 6 3.1zm-420 330c4.1 0 7.5-3.4 7.5-7.5s-3.4-7.5-7.5-7.5c-2.1 0-4.1.9-5.4 2.3l4.1 12.6c.4.1.9.1 1.3.1zm0-105c-4.1 0-7.5 3.4-7.5 7.5s3.4 7.5 7.5 7.5 7.5-3.4 7.5-7.5-3.4-7.5-7.5-7.5zm0 60c-4.1 0-7.5 3.4-7.5 7.5s3.4 7.5 7.5 7.5 7.5-3.4 7.5-7.5-3.4-7.5-7.5-7.5zm0-30c-4.1 0-7.5 3.4-7.5 7.5s3.4 7.5 7.5 7.5 7.5-3.4 7.5-7.5-3.4-7.5-7.5-7.5zm60-45c4.1 0 7.5-3.4 7.5-7.5s-3.4-7.5-7.5-7.5-7.5 3.4-7.5 7.5 3.4 7.5 7.5 7.5zm-37.5-97.5c0 4.1 3.4 7.5 7.5 7.5s7.5-3.4 7.5-7.5c0-3.3-2.1-6.1-5.1-7.1l-8.2 2.3c-1.1 1.3-1.7 3-1.7 4.8zm37.5 37.5c4.1 0 7.5-3.4 7.5-7.5s-3.4-7.5-7.5-7.5-7.5 3.4-7.5 7.5 3.4 7.5 7.5 7.5zm0 90c4.1 0 7.5-3.4 7.5-7.5s-3.4-7.5-7.5-7.5-7.5 3.4-7.5 7.5 3.4 7.5 7.5 7.5zm0-60c4.1 0 7.5-3.4 7.5-7.5s-3.4-7.5-7.5-7.5-7.5 3.4-7.5 7.5 3.4 7.5 7.5 7.5zm0-75c-4.1 0-7.5 3.4-7.5 7.5s3.4 7.5 7.5 7.5 7.5-3.4 7.5-7.5-3.4-7.5-7.5-7.5zm0 225c4.1 0 7.5-3.4 7.5-7.5s-3.4-7.5-7.5-7.5-7.5 3.4-7.5 7.5 3.4 7.5 7.5 7.5zm0 15c-4.1 0-7.5 3.4-7.5 7.5 0 1.3.3 2.6.9 3.6l14-2.9c0-.2 0-.5 0-.8.1-4-3.3-7.4-7.4-7.4zm0-75c4.1 0 7.5-3.4 7.5-7.5s-3.4-7.5-7.5-7.5-7.5 3.4-7.5 7.5 3.4 7.5 7.5 7.5zm0 30c4.1 0 7.5-3.4 7.5-7.5s-3.4-7.5-7.5-7.5-7.5 3.4-7.5 7.5 3.4 7.5 7.5 7.5zm-30-45c-4.1 0-7.5 3.4-7.5 7.5s3.4 7.5 7.5 7.5 7.5-3.4 7.5-7.5-3.4-7.5-7.5-7.5zm-25.9 91.2 2.9 8.9c.3-.8.5-1.7.5-2.6 0-2.6-1.3-4.9-3.4-6.3zm25.9-121.2c-4.1 0-7.5 3.4-7.5 7.5s3.4 7.5 7.5 7.5 7.5-3.4 7.5-7.5-3.4-7.5-7.5-7.5zm0 90c-4.1 0-7.5 3.4-7.5 7.5s3.4 7.5 7.5 7.5 7.5-3.4 7.5-7.5-3.4-7.5-7.5-7.5zm0-30c-4.1 0-7.5 3.4-7.5 7.5s3.4 7.5 7.5 7.5 7.5-3.4 7.5-7.5-3.4-7.5-7.5-7.5zm0-150c-4.1 0-7.5 3.4-7.5 7.5s3.4 7.5 7.5 7.5 7.5-3.4 7.5-7.5-3.4-7.5-7.5-7.5zm0 225c4.1 0 7.5-3.4 7.5-7.5s-3.4-7.5-7.5-7.5-7.5 3.4-7.5 7.5 3.4 7.5 7.5 7.5zm0-195c-4.1 0-7.5 3.4-7.5 7.5s3.4 7.5 7.5 7.5 7.5-3.4 7.5-7.5-3.4-7.5-7.5-7.5zm0 30c-4.1 0-7.5 3.4-7.5 7.5s3.4 7.5 7.5 7.5 7.5-3.4 7.5-7.5-3.4-7.5-7.5-7.5zm120 60c-4.1 0-7.5 3.4-7.5 7.5s3.4 7.5 7.5 7.5 7.5-3.4 7.5-7.5-3.4-7.5-7.5-7.5zm60-195c4 0 7.3-3.2 7.5-7.2l-13.7 3.9c1.3 2 3.6 3.3 6.2 3.3zm0 45c-4.1 0-7.5 3.4-7.5 7.5s3.4 7.5 7.5 7.5 7.5-3.4 7.5-7.5-3.4-7.5-7.5-7.5zm0-30c-4.1 0-7.5 3.4-7.5 7.5s3.4 7.5 7.5 7.5 7.5-3.4 7.5-7.5-3.4-7.5-7.5-7.5zm30 90c-4.1 0-7.5 3.4-7.5 7.5s3.4 7.5 7.5 7.5 7.5-3.4 7.5-7.5-3.4-7.5-7.5-7.5zm-30 0c-4.1 0-7.5 3.4-7.5 7.5s3.4 7.5 7.5 7.5 7.5-3.4 7.5-7.5-3.4-7.5-7.5-7.5zm-30 90c-4.1 0-7.5 3.4-7.5 7.5s3.4 7.5 7.5 7.5 7.5-3.4 7.5-7.5-3.4-7.5-7.5-7.5zm0 30c-4.1 0-7.5 3.4-7.5 7.5s3.4 7.5 7.5 7.5 7.5-3.4 7.5-7.5-3.4-7.5-7.5-7.5zm0-60c-4.1 0-7.5 3.4-7.5 7.5s3.4 7.5 7.5 7.5 7.5-3.4 7.5-7.5-3.4-7.5-7.5-7.5zm0 90c-4.1 0-7.5 3.4-7.5 7.5s3.4 7.5 7.5 7.5 7.5-3.4 7.5-7.5-3.4-7.5-7.5-7.5zm30 0c-4.1 0-7.5 3.4-7.5 7.5s3.4 7.5 7.5 7.5 7.5-3.4 7.5-7.5-3.4-7.5-7.5-7.5zm30-240c-4.1 0-7.5 3.4-7.5 7.5s3.4 7.5 7.5 7.5 7.5-3.4 7.5-7.5-3.4-7.5-7.5-7.5zm0 30c-4.1 0-7.5 3.4-7.5 7.5s3.4 7.5 7.5 7.5 7.5-3.4 7.5-7.5-3.4-7.5-7.5-7.5zm-30 180c-4.1 0-7.5 3.4-7.5 7.5s3.4 7.5 7.5 7.5 7.5-3.4 7.5-7.5-3.4-7.5-7.5-7.5zm0-90c-4.1 0-7.5 3.4-7.5 7.5s3.4 7.5 7.5 7.5 7.5-3.4 7.5-7.5-3.4-7.5-7.5-7.5zm30-60c-4.1 0-7.5 3.4-7.5 7.5s3.4 7.5 7.5 7.5 7.5-3.4 7.5-7.5-3.4-7.5-7.5-7.5zm-30 90c-4.1 0-7.5 3.4-7.5 7.5s3.4 7.5 7.5 7.5 7.5-3.4 7.5-7.5-3.4-7.5-7.5-7.5zm0 30c-4.1 0-7.5 3.4-7.5 7.5s3.4 7.5 7.5 7.5 7.5-3.4 7.5-7.5-3.4-7.5-7.5-7.5zm-30-60c-4.1 0-7.5 3.4-7.5 7.5s3.4 7.5 7.5 7.5 7.5-3.4 7.5-7.5-3.4-7.5-7.5-7.5zm30-60c-4.1 0-7.5 3.4-7.5 7.5s3.4 7.5 7.5 7.5 7.5-3.4 7.5-7.5-3.4-7.5-7.5-7.5zm30 180c-4.1 0-7.5 3.4-7.5 7.5 0 2.8 1.5 5.2 3.8 6.5l9.2-1.4c1.2-1.3 2-3.1 2-5.1 0-4.1-3.4-7.5-7.5-7.5zm30 0c-4.1 0-7.5 3.4-7.5 7.5 0 .9.1 1.7.4 2.4l14.6-2.2c0-.1 0-.1 0-.2 0-4.1-3.4-7.5-7.5-7.5zm-120 15c4.1 0 7.5-3.4 7.5-7.5s-3.4-7.5-7.5-7.5-7.5 3.4-7.5 7.5 3.4 7.5 7.5 7.5zm0-255c-4.1 0-7.5 3.4-7.5 7.5s3.4 7.5 7.5 7.5 7.5-3.4 7.5-7.5-3.4-7.5-7.5-7.5zm262.5 37.5c0 1.8.6 3.4 1.7 4.8l1-10.5c-1.7 1.3-2.7 3.4-2.7 5.7zm-232.5 52.5c-4.1 0-7.5 3.4-7.5 7.5s3.4 7.5 7.5 7.5 7.5-3.4 7.5-7.5-3.4-7.5-7.5-7.5zm120 150c-3.4 0-6.2 2.2-7.2 5.3l13.4-2c-1.4-2-3.6-3.3-6.2-3.3zm112.5-292.5c0 4.1 3.4 7.5 7.5 7.5.9 0 1.8-.2 2.6-.5l1.3-13.5c-1.1-.7-2.4-1.1-3.9-1.1-4.1.1-7.5 3.5-7.5 7.6zm-22.5 262.5c-4.1 0-7.5 3.4-7.5 7.5s3.4 7.5 7.5 7.5c3.6 0 6.6-2.5 7.3-5.9l.2-1.8c-.1-4-3.4-7.3-7.5-7.3zm-240-180c-4.1 0-7.5 3.4-7.5 7.5s3.4 7.5 7.5 7.5 7.5-3.4 7.5-7.5-3.4-7.5-7.5-7.5zm0 180c-4.1 0-7.5 3.4-7.5 7.5s3.4 7.5 7.5 7.5 7.5-3.4 7.5-7.5-3.4-7.5-7.5-7.5zm30-210c-4.1 0-7.5 3.4-7.5 7.5s3.4 7.5 7.5 7.5 7.5-3.4 7.5-7.5-3.4-7.5-7.5-7.5zm0 30c-4.1 0-7.5 3.4-7.5 7.5s3.4 7.5 7.5 7.5 7.5-3.4 7.5-7.5-3.4-7.5-7.5-7.5zm0 30c-4.1 0-7.5 3.4-7.5 7.5s3.4 7.5 7.5 7.5 7.5-3.4 7.5-7.5-3.4-7.5-7.5-7.5zm-30 90c-4.1 0-7.5 3.4-7.5 7.5s3.4 7.5 7.5 7.5 7.5-3.4 7.5-7.5-3.4-7.5-7.5-7.5zm0-90c-4.1 0-7.5 3.4-7.5 7.5s3.4 7.5 7.5 7.5 7.5-3.4 7.5-7.5-3.4-7.5-7.5-7.5zm0 30c-4.1 0-7.5 3.4-7.5 7.5s3.4 7.5 7.5 7.5 7.5-3.4 7.5-7.5-3.4-7.5-7.5-7.5zm0 30c-4.1 0-7.5 3.4-7.5 7.5s3.4 7.5 7.5 7.5 7.5-3.4 7.5-7.5-3.4-7.5-7.5-7.5zm180 60c-4.1 0-7.5 3.4-7.5 7.5s3.4 7.5 7.5 7.5 7.5-3.4 7.5-7.5-3.4-7.5-7.5-7.5zm0-180c-4.1 0-7.5 3.4-7.5 7.5s3.4 7.5 7.5 7.5 7.5-3.4 7.5-7.5-3.4-7.5-7.5-7.5zm0-30c-4.1 0-7.5 3.4-7.5 7.5s3.4 7.5 7.5 7.5 7.5-3.4 7.5-7.5-3.4-7.5-7.5-7.5zm0 60c-4.1 0-7.5 3.4-7.5 7.5s3.4 7.5 7.5 7.5 7.5-3.4 7.5-7.5-3.4-7.5-7.5-7.5zm0 30c-4.1 0-7.5 3.4-7.5 7.5s3.4 7.5 7.5 7.5 7.5-3.4 7.5-7.5-3.4-7.5-7.5-7.5zm-30 0c-4.1 0-7.5 3.4-7.5 7.5s3.4 7.5 7.5 7.5 7.5-3.4 7.5-7.5-3.4-7.5-7.5-7.5zm0 150c-4.1 0-7.5 3.4-7.5 7.5s3.4 7.5 7.5 7.5 7.5-3.4 7.5-7.5-3.4-7.5-7.5-7.5zm0-120c-4.1 0-7.5 3.4-7.5 7.5s3.4 7.5 7.5 7.5 7.5-3.4 7.5-7.5-3.4-7.5-7.5-7.5zm0 30c-4.1 0-7.5 3.4-7.5 7.5s3.4 7.5 7.5 7.5 7.5-3.4 7.5-7.5-3.4-7.5-7.5-7.5zm0 30c-4.1 0-7.5 3.4-7.5 7.5s3.4 7.5 7.5 7.5 7.5-3.4 7.5-7.5-3.4-7.5-7.5-7.5zm0 30c-4.1 0-7.5 3.4-7.5 7.5s3.4 7.5 7.5 7.5 7.5-3.4 7.5-7.5-3.4-7.5-7.5-7.5zm-60-60c-4.1 0-7.5 3.4-7.5 7.5s3.4 7.5 7.5 7.5 7.5-3.4 7.5-7.5-3.4-7.5-7.5-7.5zm90-165c4.1 0 7.5-3.4 7.5-7.5 0-1.3-.3-2.5-.9-3.6l-14.1 4c.2 4 3.5 7.1 7.5 7.1zm0 135c-4.1 0-7.5 3.4-7.5 7.5s3.4 7.5 7.5 7.5 7.5-3.4 7.5-7.5-3.4-7.5-7.5-7.5zm30-120c-4.1 0-7.5 3.4-7.5 7.5s3.4 7.5 7.5 7.5 7.5-3.4 7.5-7.5-3.4-7.5-7.5-7.5zm0-30c-4.1 0-7.5 3.4-7.5 7.5s3.4 7.5 7.5 7.5 7.5-3.4 7.5-7.5-3.4-7.5-7.5-7.5zm-30 180c-4.1 0-7.5 3.4-7.5 7.5s3.4 7.5 7.5 7.5 7.5-3.4 7.5-7.5-3.4-7.5-7.5-7.5zm0 90c-4.1 0-7.5 3.4-7.5 7.5s3.4 7.5 7.5 7.5 7.5-3.4 7.5-7.5-3.4-7.5-7.5-7.5zm0-60c-4.1 0-7.5 3.4-7.5 7.5s3.4 7.5 7.5 7.5 7.5-3.4 7.5-7.5-3.4-7.5-7.5-7.5zm30-150c-4.1 0-7.5 3.4-7.5 7.5s3.4 7.5 7.5 7.5 7.5-3.4 7.5-7.5-3.4-7.5-7.5-7.5zm-90 60c-4.1 0-7.5 3.4-7.5 7.5s3.4 7.5 7.5 7.5 7.5-3.4 7.5-7.5-3.4-7.5-7.5-7.5zm0-60c-4.1 0-7.5 3.4-7.5 7.5s3.4 7.5 7.5 7.5 7.5-3.4 7.5-7.5-3.4-7.5-7.5-7.5zm-30-15c4.1 0 7.5-3.4 7.5-7.5 0-3.1-1.9-5.8-4.6-6.9l-8.9 2.5c-.9 1.2-1.4 2.8-1.4 4.4-.1 4.1 3.3 7.5 7.4 7.5zm30 45c-4.1 0-7.5 3.4-7.5 7.5s3.4 7.5 7.5 7.5 7.5-3.4 7.5-7.5-3.4-7.5-7.5-7.5zm0-60c-4.1 0-7.5 3.4-7.5 7.5s3.4 7.5 7.5 7.5 7.5-3.4 7.5-7.5-3.4-7.5-7.5-7.5zm-30 180c-4.1 0-7.5 3.4-7.5 7.5s3.4 7.5 7.5 7.5 7.5-3.4 7.5-7.5-3.4-7.5-7.5-7.5zm0 60c-4.1 0-7.5 3.4-7.5 7.5s3.4 7.5 7.5 7.5 7.5-3.4 7.5-7.5-3.4-7.5-7.5-7.5zm0-30c-4.1 0-7.5 3.4-7.5 7.5s3.4 7.5 7.5 7.5 7.5-3.4 7.5-7.5-3.4-7.5-7.5-7.5zm60-210c-4.1 0-7.5 3.4-7.5 7.5s3.4 7.5 7.5 7.5 7.5-3.4 7.5-7.5-3.4-7.5-7.5-7.5zm5.3-17.2-7 2c.5.1 1.1.2 1.7.2 2.1 0 3.9-.8 5.3-2.2zm-5.3 77.2c-4.1 0-7.5 3.4-7.5 7.5s3.4 7.5 7.5 7.5 7.5-3.4 7.5-7.5-3.4-7.5-7.5-7.5zm0-30c-4.1 0-7.5 3.4-7.5 7.5s3.4 7.5 7.5 7.5 7.5-3.4 7.5-7.5-3.4-7.5-7.5-7.5zm-30 180c-4.1 0-7.5 3.4-7.5 7.5s3.4 7.5 7.5 7.5 7.5-3.4 7.5-7.5-3.4-7.5-7.5-7.5zm0-60c-4.1 0-7.5 3.4-7.5 7.5s3.4 7.5 7.5 7.5 7.5-3.4 7.5-7.5-3.4-7.5-7.5-7.5zm0 90c-4.1 0-7.5 3.4-7.5 7.5s3.4 7.5 7.5 7.5 7.5-3.4 7.5-7.5-3.4-7.5-7.5-7.5zm0-120c-4.1 0-7.5 3.4-7.5 7.5s3.4 7.5 7.5 7.5 7.5-3.4 7.5-7.5-3.4-7.5-7.5-7.5zm0 60c-4.1 0-7.5 3.4-7.5 7.5s3.4 7.5 7.5 7.5 7.5-3.4 7.5-7.5-3.4-7.5-7.5-7.5z" opacity=".1"/><g><path d="m383.9 467.4-23.1 11.9-25.1-80.5z"/><path d="m382.2 441.8 14.5-14.5-48-26.5z"/><path d="m344 14.8 19 5.5-26 58.6z"/><path d="m327.9 36.6-14.7 4 15.7 34.3z"/><path d="m71.3 65.1 17.6-9 30.7 77.7z"/><path d="m66.6 92.3-8 12.9 48 26.5z"/><path d="m79.1 484.5-12.3-15.4 70-34.6z"/><path d="m101.8 487.7 16 9.5 24-50.6z"/></g></g><g><path d="m439.6 146.1c-1.2-1.1-2.6-1.9-4.2-2.3-.4-.7-.9-1.3-1.5-1.9-2.2-2.1-5.3-3.1-8.3-2.6-.5.1-1.1.2-1.6.4-3.7 1.2-8.7 2.7-14.8 4.4-6.2 1.8-13.2 3.9-20.7 6.2-3.2 1-5.7 3.6-6.6 6.8-.1-.1-.2-.2-.3-.3-1.2-1.1-2.6-1.9-4.1-2.3-.5-.7-1-1.4-1.6-1.9-2.2-2.1-5.3-3-8.3-2.6-.3 0-.6.1-.8.2l-51.4 12.2c-.4-.2-.9-.4-1.3-.5-.2-.3-.5-.7-.7-1-2.3-2.7-5.8-4-9.2-3.5-.5.1-1 .2-1.5.4-6.3 2-12.8 3.9-19.1 5.5-6.4 1.6-13 3.2-19.6 4.8-3.1.7-5.7 2.9-7 5.9-.5 1.1-.9 2.2-1.4 3.3-.6-.3-1.1-.5-1.7-.7-.4-.7-.9-1.3-1.5-1.8-2.2-2.1-5.3-3.1-8.4-2.6-1.9.3-3.8.5-5.7.8-1.8.2-3.8.4-5.6.6 0 0-3.7.3-5.4.4l-5.6.4-10.7 1c-.2 0-.4 0-.6.1-1.8.3-3.3 1-4.6 2-1-.2-2-.2-3.1 0-.5.1-1 .2-1.6.4l-30.6 9.7c-4.1 1.3-6.9 5-7 9.2-.3 9.2-.5 18.4-.8 27.4-.3 8.9-.6 17.8-1.1 26.7-.5 9.7-1 19.9-1.5 30.8-.3 7.4-.7 14.6-1.2 21.7-1 .1-2.1.3-3.1.5.1-1.8.1-3.5.2-5.4.3-8.6.8-17.6 1.4-26.8s1.2-18 1.9-26.1l3.6-47c.2-3.3-1.1-6.4-3.6-8.5-1.1-.9-2.3-1.5-3.6-1.9-.6-.9-1.2-1.7-2.1-2.3-2.2-1.8-5-2.6-7.8-2.1-.4.1-.9.2-1.3.3l-34.5 9.9c-4.1 1.2-7 4.8-7.2 9.1-.5 9.3-1 18.8-1.4 28.1-.4 8.9-.8 18.1-1.2 27.3-.4 8.3-.8 17.7-1.1 28s-.5 21.1-.6 32.1c-.1 10.9-.1 21.9.1 32.8 0 3.4 1.8 6.6 4.8 8.4.8.5 1.7.9 2.5 1.1.8 1.2 1.9 2.3 3.2 3.1 2 1.2 4.4 1.7 6.7 1.4 1-.1 2-.5 3-.9 4.2-2.1 9.2-4.1 14.8-5.9 5.8-1.8 11.7-3.5 17.7-4.8 3.9-.9 7.5-1.6 11-2.2.2.1.4.1.6.2 1.1 1.7 2.7 3 4.6 3.8 1.7.7 3.5.9 5.3.6 1.1-.2 2.1-.5 3.1-1 .3-.1 1-.4 2.3-.8 2.3-.7 5.1-1.6 8.6-2.6 3.4-1 6.9-1.9 10.3-2.7 3.3-.8 6-1.4 8.1-1.7.6-.1 1.1-.2 1.6-.4.4.4.8.8 1.2 1.1 2.2 1.7 5 2.5 7.7 2 .5-.1 1-.2 1.4-.3l31.9-9.7c4.1-1.2 6.9-4.9 7.1-9.1 0-.3 0-.6 0-1 .9.7 2 1.2 3.1 1.5 2.1 3.2 5.9 5.1 9.9 4.5.1 0 .2 0 .3-.1 3.8-.7 7.6-1.4 11.1-2 3.6-.6 7.3-1.2 11.1-1.8 2-.3 4.1-.6 6.2-.9.4.2.8.3 1.1.4.6 1 1.4 1.8 2.3 2.5 2.2 1.6 4.9 2.3 7.5 1.9l1.5-.3 58.8-18.3c1.3 1.1 2.8 2.1 4.3 3 1.9 1.8 4 3.3 6.4 4.6 4.8 2.6 10.4 3.4 16.6 2.5 10.9-1.6 19.2-6 24.6-13s7.7-15 6.5-23c-1.1-7.4-5.2-13.8-11.9-18.4-.7-.5-1.4-.9-2.1-1.3-.1-.1-.2-.2-.4-.3 3.9-.9 6.9-4 7.6-7.9 3.3-18 6.7-36.2 10-54.2 3.3-17.6 7.4-35.5 12-53.3.7-3.7-.4-7.4-3-10zm-148.2 114.3c-2.1-4.9-4.2-9.9-6.2-15 1.3-2.9 2.8-6.1 4.5-9.7 1.6-3.3 3.2-6.7 4.9-10.1l-1.3 39.1c-.7-1.5-1.3-2.9-1.9-4.3zm84.3-41.1c-.4-.4-.9-.8-1.4-1.2-.9-.6-2-1.1-3-1.4-.7-1.1-1.6-2-2.7-2.8-2.1-1.5-4.7-2.1-7.2-1.7-.6.1-1.2.2-1.8.4-.1 0-.4.1-1 .2l-6.6 1 .5-10.8c1.4-.2 2.9-.5 4.5-.8 3.3-.6 6.6-1.1 9.8-1.7 3.3-.6 6-1.1 7.9-1.5 1-.2 2-.6 2.8-1.1-.4 4.1-.7 8.1-1 12.1zm-24.3 43.1c1.3-.2 2.6-.5 3.9-.8h.1c1.2-.3 2.4-.5 3.7-.7 1.7-.3 3.4-.6 5-1l3.4-.5c1.7-.2 3.1-.6 4.4-1-.1.9-.2 1.8-.3 2.7-.2 2.3.3 4.6 1.6 6.5-1.6.9-3.1 1.9-4.4 2.9-2.1-1.4-4.6-1.9-7-1.6-.5.1-1 .2-1.5.4l-9.3 2.9z"/><path d="m108.4 350.9c-.1-10.8-.1-21.7-.1-32.7.1-11 .3-21.6.6-31.9.3-10.2.7-19.5 1.1-27.8.4-9 .8-18.1 1.2-27.3s.8-18.6 1.4-28l34.5-9.9-3.6 47c-.7 8.2-1.3 16.9-1.9 26.3s-1.1 18.4-1.4 27c-.3 8.7-.5 16.4-.4 23.1 3.3-.8 6.9-1.5 10.7-2.1s7.2-1.2 10.1-1.6c.6 3.1 1.4 6.3 2.3 9.6.9 3.4 1.8 6.2 2.6 8.6s1.3 3.8 1.3 4l-1.5.2c-.5.1-1 .1-1.5 0l-3.2.5c-5.2.8-11 1.9-17.3 3.3s-12.5 3.1-18.6 5c-6.2 2.2-11.6 4.3-16.3 6.7zm57-9.2c1.1-8.2 2-17.6 2.7-28s1.3-21 1.8-31.8 1-21.1 1.5-30.8c.4-8.8.8-17.8 1.1-26.9s.6-18.2.8-27.5l30.6-9.7c-.4 9.2-.8 18.4-1.2 27.4s-.9 18.1-1.3 27c-.5 9.7-.9 19.9-1.4 30.6-.4 10.8-.9 21.3-1.2 31.7s-.7 20.1-1 29c-2.4.4-5.4 1-9 1.9s-7.1 1.8-10.7 2.8-6.5 1.9-8.9 2.7c-2.4 1-3.7 1.5-3.8 1.6zm42.9-6c.6-9.7 1.2-19.2 1.7-28.6s1-18.6 1.4-27.8c.4-16.4.8-32.6 1.1-48.6s.1-31.2-.9-45.6l10.6-1c1.9-.1 3.8-.3 5.6-.4s3.6-.3 5.4-.4c2-.2 4.1-.4 6.1-.6s4-.5 6.1-.8c-.1 1.1-.2 3.3-.3 6.6s-.2 6.6-.4 10c-.1 3.4-.2 5.7-.3 6.9l-.6 20.4 1.2-.4c3-6.6 6.4-14.3 10.3-22.9s7.5-17 10.9-24.9c6.6-1.5 13.2-3.1 19.8-4.8s13.2-3.6 19.7-5.6c-2.5 4.6-4.9 9.2-7.4 13.9-2.5 4.6-4.9 9.2-7.2 13.8-2.4 4.8-5.1 9.9-7.9 15.6-2.9 5.6-5.6 11.1-8.1 16.5s-4.6 10-6.3 13.8c2.5 6.5 5.1 12.9 7.8 19.2s5.6 12.5 8.5 18.5c3 6 5.9 12.1 8.9 18.2s6 12.3 9.2 18.6c-3.1.3-6.3.7-9.5 1.1s-6.4.9-9.5 1.3c-3.9.6-7.6 1.2-11.2 1.8s-7.4 1.3-11.2 2c-1.2-4.2-2.5-8.6-3.8-13.1-1.4-4.5-2.7-9.1-4.1-13.9-1.4-4.6-2.7-9.1-4.1-13.7-1.4-4.5-2.7-8.9-4-13.1l-3 4.8c-.4 4-.6 9.1-.8 15.3-.1 3-.2 6-.4 9s-.3 5.8-.5 8.6c-.1 3.3-.2 6.6-.4 10s-.3 6.9-.5 10.5zm93.1-13.9 4.9-146.9 62.7-14.9c-.5 3.1-.9 6.2-1.1 9.4-.3 2.6-.5 5.4-.7 8.2s-.3 5.4-.4 7.6c-1.7.4-4.2.9-7.4 1.4-3.2.6-6.5 1.1-9.8 1.7s-6.2 1-8.6 1.4-3.7.6-3.8.6l-1.6 37.1 11.6-2.4c1.5-.4 3-.6 4.5-.9s3-.5 4.5-.7l4-.6c1.2-.2 2.1-.4 2.8-.6 0 1.9.1 3.8.1 5.6.1 1.8.1 3.7.1 5.6l-.1 11.3c-.6.2-1.5.4-2.6.6l-3.8.6c-1.5.4-3 .6-4.6.9-1.6.2-3.1.5-4.6.9-1.7.4-3.5.7-5.4 1s-3.9.6-6 1.1l-1.3 38 28.7-9 1.4 23.2zm87.5-8.6c-4 .6-7.5.1-10.4-1.4s-5.2-3.7-6.9-6.4-2.8-5.5-3.2-8.5c-.8-5.4.3-10.3 3.2-14.8 3-4.5 7.6-7.2 13.9-8.1 7.8-1.2 13.9-.2 18.3 2.9s7 7 7.7 11.7c.8 5.4-.7 10.5-4.5 15.4s-9.8 7.9-18.1 9.2zm-7.3-51.1c.9-8.6 1.7-17.2 2.5-25.7s1.6-17 2.4-25.4c.6-8.4 1.4-17 2.2-25.5.8-8.6 1.7-17.1 2.6-25.6 7.5-2.4 14.3-4.4 20.5-6.1s11.2-3.3 15.1-4.5c-4.7 18-8.8 35.9-12.2 53.9s-6.8 36.1-10.1 54.2c-3.9.6-7.8 1.3-11.6 2.2-3.7.8-7.5 1.6-11.4 2.5z" fill="#ffe000"/><path d="m245.5 224.1c2.8-6.3 6-13.4 9.7-21.4 3.9-8.7 7.5-17 10.9-24.9 6.6-1.5 13.2-3.1 19.8-4.8s13.2-3.6 19.7-5.6c-2.2 4.1-4.4 8.2-6.6 12.3-3.9 1.1-7.8 2.2-11.7 3.2-6.6 1.7-13.2 3.3-19.8 4.8-3.3 7.9-7 16.2-10.9 24.9s-7.4 16.3-10.3 22.9l-1.2.4zm-35.5 83c-.5 9.4-1.1 18.9-1.7 28.6l2.1-.6c.4-6.1.7-12.1 1-18.1.5-9.4 1-18.6 1.4-27.8.4-16.4.8-32.6 1.1-48.6s.1-31.2-.9-45.6l10.6-1c1.9-.1 3.8-.3 5.6-.4s3.6-.3 5.4-.4c2-.2 4.1-.4 6.1-.6 1.4-.2 2.7-.4 4.1-.5 0-1.2.1-2.4.1-3.5.1-3.3.2-5.5.3-6.6-2 .3-4 .6-6.1.8-2 .2-4.1.4-6.1.6-1.8.1-3.6.3-5.4.4s-3.7.3-5.6.4l-10.6 1c.9 14.4 1.2 29.6.9 45.6s-.7 32.2-1.1 48.6c-.3 9.1-.7 18.3-1.2 27.7zm174.2-45.6c.5-5.1 1-10.2 1.5-15.2.8-8.5 1.6-17 2.4-25.4.6-8.4 1.4-17 2.2-25.5.8-8.6 1.7-17.1 2.6-25.6 7.5-2.4 14.3-4.4 20.5-6.1 4.1-1.2 7.7-2.2 10.8-3.2.9-3.8 1.9-7.5 2.9-11.2-3.9 1.3-9 2.8-15.1 4.5s-13 3.8-20.5 6.1c-.9 8.5-1.8 17-2.6 25.6s-1.6 17.1-2.2 25.5c-.8 8.5-1.6 17-2.4 25.4-.8 8.5-1.6 17-2.5 25.7.7-.2 1.5-.4 2.4-.6zm-24.1-38.8-4 .6c-1.5.2-3 .4-4.5.7s-3 .5-4.5.9l-9.6 2-.5 10.3 11.6-2.4c1.5-.4 3-.6 4.5-.9l4.5-.7 4-.6c.6-.1 1.1-.2 1.5-.3 0-1.6 0-3.1-.1-4.6-.1-1.8-.1-3.7-.1-5.6-.6.2-1.6.4-2.8.6zm-53.9-45.2c.3-.1.6-.2.9-.3-.3.6-.6 1.1-.9 1.7l-4.5 133.6c-2.6-5.3-5.2-10.5-7.8-15.8-3-6.1-5.9-12.2-8.9-18.2s-5.8-12.1-8.5-18.5c-1.7-4-3.4-8.1-5.1-12.2-.5 1-.9 2-1.3 2.9 2.5 6.5 5.1 12.9 7.8 19.2s5.6 12.5 8.5 18.5c3 6 5.9 12.1 8.9 18.2 1.5 3 2.9 6 4.4 9 .6-.1 1.2-.1 1.8-.2l-.1 3.5c.4.8.8 1.6 1.2 2.4l.6-.2 4.6-136.4 60.1-14.3c0-.4.1-.8.1-1.1.2-3.2.6-6.3 1.1-9.4l-62.7 14.9zm79.3 96.5c-6.3.9-10.9 3.7-13.9 8.1-3 4.5-4 9.4-3.2 14.8.2 1.6.7 3.2 1.3 4.8.3-3.4 1.4-6.6 3.4-9.6 3-4.5 7.6-7.2 13.9-8.1 7.8-1.2 13.9-.2 18.3 2.9 2.9 2 4.9 4.4 6.2 7 .2-1.7.2-3.5 0-5.2-.7-4.7-3.3-8.6-7.7-11.7s-10.5-4.1-18.3-3zm-49.3 23.7 27.8-8.8-.6-10.2-26.8 8.4zm-170.8 33.7c-.8-2.4-1.7-5.3-2.6-8.6-.9-3.4-1.7-6.6-2.3-9.6-2.9.4-6.3 1-10.1 1.6-3.2.5-6.3 1.1-9.1 1.8-.1 3.6-.1 7-.1 10.2 3.3-.8 6.9-1.5 10.7-2.1s7.2-1.2 10.1-1.6c.6 3.1 1.4 6.3 2.3 9.6.3 1.1.6 2 .9 3h.1l1-.1c-.1.9-.2 1.8-.3 2.7.3 1.1.7 2.1 1 3 .4-.1.8-.3 1.3-.5.5-5.3 1-11 1.4-17 .7-10.4 1.3-21 1.8-31.8s1-21.1 1.5-30.8c.4-8.8.8-17.8 1.1-26.9s.6-18.2.8-27.5l28.7-9.1c.2-3.5.3-7 .5-10.5l-30.6 9.7c-.3 9.2-.5 18.4-.8 27.5s-.6 18.1-1.1 26.9c-.5 9.7-1 19.9-1.5 30.8-.5 10.8-1.1 21.4-1.8 31.8-.5 7.3-1.1 14.1-1.8 20.3-.4-.8-.7-1.7-1.1-2.8zm-55.6-3.3c.1-11 .3-21.6.6-31.9.3-10.2.7-19.5 1.1-27.8.4-9 .8-18.1 1.2-27.3s.8-18.6 1.4-28l32.2-9.2.8-10.6-34.5 9.9c-.5 9.4-1 18.7-1.4 28-.4 9.2-.8 18.4-1.2 27.3-.4 8.3-.8 17.6-1.1 27.8-.3 10.3-.5 20.9-.6 31.9s-.1 21.9.1 32.7c.5-.2.9-.5 1.4-.7 0-7.3 0-14.7 0-22.1z" fill="#fbff66"/></g></g></g></svg>