<?xml version="1.0" encoding="iso-8859-1"?>
<!-- Generator: Adobe Illustrator 19.0.0, SVG Export Plug-In . SVG Version: 6.00 Build 0)  -->
<svg version="1.1" id="Capa_1" xmlns="http://www.w3.org/2000/svg" xmlns:xlink="http://www.w3.org/1999/xlink" x="0px" y="0px"
	 viewBox="0 0 512 512" style="enable-background:new 0 0 512 512;" xml:space="preserve">
<path style="fill:#FECF05;" d="M256,512c-68.263,0-132.439-26.629-180.709-74.98C27.021,388.666,0.439,324.381,0.439,256
	S27.021,123.334,75.291,74.98C123.561,26.629,187.737,0,256,0s132.439,26.629,180.709,74.98
	c48.269,48.354,74.852,112.639,74.852,181.02s-26.583,132.666-74.852,181.02C388.439,485.371,324.263,512,256,512z"/>
<ellipse style="fill:#EE3835;" cx="256" cy="256" rx="213.24" ry="213.6"/>
<g>
	<path style="fill:#C0272D;" d="M465.771,294.529c2.274-12.498,3.468-25.373,3.468-38.529c0-13.155-1.194-26.031-3.467-38.529
		L259.255,256L465.771,294.529z"/>
	<path style="fill:#C0272D;" d="M377.12,80.192L258.302,253.694l173.206-119.021C416.816,113.389,398.368,94.908,377.12,80.192z"/>
	<path style="fill:#C0272D;" d="M256,252.738l38.465-206.869c-12.478-2.276-25.332-3.474-38.465-3.474
		c-13.132,0-25.985,1.196-38.462,3.473L256,252.738z"/>
	<path style="fill:#C0272D;" d="M80.494,134.672l173.204,119.022L134.882,80.19C113.633,94.907,95.186,113.387,80.494,134.672z"/>
	<path style="fill:#C0272D;" d="M46.229,217.469c-2.273,12.499-3.468,25.375-3.468,38.531c0,13.155,1.195,26.031,3.467,38.528
		L252.745,256L46.229,217.469z"/>
	<path style="fill:#C0272D;" d="M134.881,431.809l118.817-173.503L80.492,377.326C95.184,398.611,113.632,417.092,134.881,431.809z"
		/>
	<path style="fill:#C0272D;" d="M256,469.604c13.133,0,25.986-1.196,38.463-3.473L256,259.262l-38.463,206.87
		C230.014,468.408,242.867,469.604,256,469.604z"/>
	<path style="fill:#C0272D;" d="M431.508,377.327L258.302,258.306l118.817,173.503C398.367,417.092,416.815,398.611,431.508,377.327
		z"/>
</g>
<g>
	<path style="fill:#FFFFFF;" d="M257.627,491.715c-0.165-4.264,3.152-7.859,7.417-8.024l0,0c4.265-0.165,7.85,3.152,8.025,7.417l0,0
		c0.165,4.265-3.163,7.86-7.417,8.025l0,0c-0.103,0-0.206,0-0.309,0l0,0C261.213,499.133,257.793,495.877,257.627,491.715z
		 M228.494,497.772c-4.245-0.474-7.294-4.296-6.809-8.54l0,0c0.474-4.244,4.306-7.294,8.54-6.809l0,0
		c4.244,0.474,7.294,4.306,6.81,8.54l0,0c-0.443,3.945-3.791,6.861-7.665,6.861l0,0
		C229.081,497.825,228.782,497.815,228.494,497.772z M293.529,488.738c-0.814-4.193,1.917-8.241,6.109-9.055v-0.011
		c4.193-0.814,8.242,1.927,9.065,6.119l0,0c0.814,4.183-1.926,8.241-6.108,9.056l0,0l0,0l0,0c-0.505,0.092-0.999,0.145-1.494,0.145
		l0,0C297.485,494.992,294.25,492.427,293.529,488.738z M191.964,490.768c-4.121-1.123-6.552-5.367-5.419-9.488l0,0
		c1.123-4.11,5.368-6.541,9.488-5.408l0,0c4.11,1.123,6.541,5.367,5.419,9.488l0,0c-0.938,3.431-4.049,5.688-7.448,5.688l0,0
		C193.323,491.047,192.644,490.953,191.964,490.768z M328.555,480.301c-1.442-4.018,0.629-8.437,4.646-9.89l0,0
		c4.007-1.452,8.437,0.629,9.89,4.636l0,0c1.452,4.018-0.629,8.448-4.636,9.9l0,0c0,0,0,0-0.01-0.011l0,0
		c-0.865,0.32-1.752,0.464-2.617,0.464l0,0C332.666,485.4,329.699,483.442,328.555,480.301z M156.917,478.221L156.917,478.221
		L156.917,478.221c-3.894-1.742-5.635-6.315-3.894-10.21l0,0c1.741-3.894,6.315-5.635,10.209-3.894l0,0
		c3.895,1.741,5.635,6.314,3.895,10.209l0,0c-1.288,2.874-4.111,4.574-7.057,4.574l0,0
		C159.008,478.9,157.937,478.684,156.917,478.221z M361.851,466.58c-2.05-3.741-0.68-8.439,3.059-10.488l0,0
		c3.75-2.05,8.448-0.669,10.487,3.07l0,0c2.05,3.749,0.68,8.436-3.06,10.486l0,0c-1.185,0.65-2.452,0.948-3.708,0.948l0,0
		C365.899,470.597,363.252,469.144,361.851,466.58z M124.229,460.44c-3.585-2.317-4.605-7.108-2.287-10.683l0,0
		c2.318-3.586,7.108-4.606,10.683-2.288l0,0c3.585,2.318,4.605,7.108,2.287,10.694l0,0c-1.483,2.276-3.956,3.522-6.491,3.522l0,0
		C126.98,461.685,125.527,461.283,124.229,460.44z M392.653,447.923c-2.596-3.39-1.957-8.241,1.432-10.839l0,0
		c3.389-2.595,8.242-1.946,10.837,1.434l0,0c2.596,3.389,1.947,8.241-1.432,10.837l0,0c-1.412,1.071-3.06,1.597-4.698,1.597l0,0
		C396.465,450.951,394.178,449.91,392.653,447.923z M94.643,437.889c-3.183-2.844-3.472-7.717-0.628-10.91l0,0
		c2.833-3.183,7.726-3.472,10.909-0.629l0,0c3.184,2.845,3.472,7.717,0.629,10.911l0,0c-1.524,1.709-3.647,2.585-5.769,2.585l0,0
		C97.949,439.846,96.116,439.197,94.643,437.889z M420.272,424.774c-3.08-2.946-3.184-7.84-0.227-10.92l0,0
		c2.946-3.08,7.839-3.184,10.92-0.227l0,0c3.08,2.956,3.183,7.84,0.227,10.919l0,0c-1.515,1.587-3.544,2.381-5.574,2.381l0,0
		C423.693,426.928,421.766,426.217,420.272,424.774z M68.836,411.113c-2.72-3.285-2.256-8.158,1.03-10.878l0,0
		c3.286-2.72,8.159-2.257,10.879,1.03l0,0c2.72,3.287,2.256,8.159-1.03,10.878l0,0c-1.442,1.195-3.183,1.772-4.924,1.772l0,0
		C72.576,413.916,70.361,412.958,68.836,411.113z M444.06,397.711c-3.493-2.451-4.337-7.272-1.886-10.766l0,0
		c2.452-3.492,7.273-4.337,10.766-1.885l0,0c3.493,2.453,4.337,7.274,1.886,10.766l0,0c-1.504,2.143-3.905,3.287-6.336,3.287l0,0
		C446.954,399.113,445.409,398.659,444.06,397.711z M47.398,380.744c-2.194-3.668-0.999-8.406,2.668-10.601l0,0
		c3.657-2.184,8.406-0.988,10.59,2.679l0,0c2.194,3.658,0.999,8.406-2.668,10.59l0,0c-1.236,0.742-2.606,1.093-3.956,1.093l0,0
		C51.406,384.505,48.84,383.165,47.398,380.744z M463.468,367.342c-3.822-1.895-5.398-6.531-3.503-10.353l0,0
		c1.885-3.832,6.521-5.398,10.353-3.502l0,0c3.822,1.885,5.388,6.521,3.492,10.353l0,0c-1.339,2.72-4.08,4.296-6.923,4.296l0,0
		C465.734,368.135,464.57,367.877,463.468,367.342z M30.833,347.459c-1.607-3.956,0.31-8.458,4.255-10.055l0,0
		c3.956-1.606,8.458,0.299,10.064,4.255l0,0c1.607,3.956-0.298,8.458-4.254,10.065l0,0c-0.958,0.381-1.937,0.566-2.905,0.566l0,0
		C34.944,352.291,32.049,350.468,30.833,347.459z M478.004,334.345c-4.069-1.277-6.325-5.614-5.048-9.684l0,0
		c1.288-4.068,5.625-6.335,9.694-5.048l0,0c4.069,1.278,6.326,5.615,5.048,9.684l0,0c-1.041,3.307-4.08,5.408-7.366,5.408l0,0
		C479.56,334.705,478.777,334.593,478.004,334.345z M19.553,312.022c-0.979-4.162,1.597-8.315,5.749-9.293l0,0
		c4.162-0.978,8.313,1.598,9.292,5.748l0,0c0.978,4.152-1.597,8.314-5.748,9.293l0,0c-0.598,0.134-1.195,0.206-1.772,0.206l0,0
		C23.56,317.976,20.387,315.575,19.553,312.022z M487.306,299.545c-4.213-0.648-7.108-4.584-6.469-8.808l0,0
		c0.649-4.213,4.584-7.118,8.808-6.47l0,0c4.213,0.639,7.119,4.584,6.469,8.798l0,0c-0.587,3.822-3.873,6.563-7.633,6.563l0,0
		C488.1,299.628,487.708,299.607,487.306,299.545z M13.835,275.265c-0.34-4.245,2.844-7.964,7.098-8.304l0,0
		c4.254-0.33,7.974,2.854,8.303,7.098l0,0c0.34,4.256-2.843,7.974-7.098,8.314l0,0c-0.206,0.011-0.402,0.021-0.607,0.021l0,0
		C17.534,282.394,14.154,279.313,13.835,275.265z M483.464,256c0-0.217,0.011-0.423,0.021-0.629l0,0
		c-0.01-0.206-0.021-0.411-0.021-0.629l0,0c-0.031-4.265,3.42-7.746,7.685-7.767l0,0c4.265-0.021,7.737,3.42,7.768,7.686l0,0
		c0,0.227-0.01,0.452-0.031,0.679l0,0c0.021,0.217,0.031,0.433,0.031,0.66l0,0c0,4.265-3.461,7.727-7.727,7.727l0,0
		C486.925,263.727,483.464,260.265,483.464,256z M498.917,254.661L498.917,254.661L498.917,254.661L498.917,254.661L498.917,254.661
		L498.917,254.661z M20.882,246.367c-4.265-0.309-7.459-4.018-7.149-8.271l0,0c0.309-4.255,4.007-7.459,8.262-7.14l0,0
		c4.255,0.309,7.458,4.008,7.15,8.263l0,0c-0.299,4.069-3.688,7.17-7.696,7.17l0,0C21.252,246.389,21.067,246.378,20.882,246.367z
		 M480.642,220.016c-0.66-4.214,2.214-8.17,6.428-8.839l0,0c4.213-0.659,8.169,2.215,8.839,6.428l0,0
		c0.67,4.214-2.205,8.17-6.428,8.839l0,0c-0.401,0.063-0.814,0.093-1.215,0.093l0,0
		C484.535,226.536,481.249,223.827,480.642,220.016z M25.044,210.58c-4.152-0.959-6.758-5.1-5.8-9.262l0,0
		c0.948-4.162,5.1-6.759,9.261-5.801l0,0c4.151,0.948,6.758,5.1,5.8,9.251l0,0c-0.824,3.586-4.007,6.006-7.52,6.006l0,0
		C26.208,210.774,25.631,210.713,25.044,210.58z M472.575,186.143c-1.309-4.059,0.937-8.416,4.996-9.714l0,0
		c4.069-1.308,8.417,0.928,9.726,4.996l0,0c1.298,4.06-0.938,8.406-4.997,9.715l0,0c-0.794,0.247-1.586,0.37-2.37,0.37l0,0
		C476.665,191.51,473.626,189.42,472.575,186.143z M34.645,175.821c-3.966-1.577-5.893-6.079-4.316-10.034l0,0l0,0l0,0
		c1.586-3.966,6.078-5.902,10.044-4.316l0,0c3.956,1.576,5.893,6.078,4.306,10.033l0,0c-1.206,3.029-4.11,4.873-7.17,4.873l0,0
		C36.551,176.377,35.583,176.202,34.645,175.821z M459.409,153.908c-1.906-3.822-0.371-8.457,3.451-10.373l0,0
		c3.812-1.916,8.458-0.371,10.363,3.451l0,0c1.916,3.812,0.371,8.447-3.44,10.363l0,0c-1.113,0.556-2.297,0.824-3.451,0.824l0,0
		C463.499,158.174,460.769,156.607,459.409,153.908z M49.459,142.958c-3.678-2.163-4.904-6.902-2.73-10.58l0,0l0,0l0,0
		c2.164-3.678,6.902-4.894,10.58-2.729l0,0c3.677,2.174,4.893,6.912,2.729,10.58l0,0c-1.442,2.441-4.018,3.801-6.665,3.801l0,0
		C52.045,144.029,50.685,143.689,49.459,142.958z M441.474,124.064c-2.462-3.482-1.648-8.303,1.834-10.775l0,0
		c3.482-2.473,8.303-1.648,10.775,1.824l0,0c0,0,0,0-0.01,0l0,0c2.473,3.481,1.659,8.303-1.823,10.775l0,0
		c-1.36,0.968-2.915,1.421-4.471,1.421l0,0C445.368,127.31,442.988,126.188,441.474,124.064z M69.104,112.742
		c-3.296-2.699-3.791-7.561-1.082-10.868l0,0c2.699-3.297,7.562-3.79,10.868-1.081l0,0c3.308,2.699,3.792,7.562,1.092,10.868l0,0
		c-1.535,1.865-3.749,2.833-5.985,2.833l0,0C72.277,114.494,70.547,113.928,69.104,112.742z M419.211,97.279
		c-2.977-3.069-2.895-7.952,0.165-10.93l0,0c3.07-2.967,7.953-2.895,10.93,0.176l0,0c2.967,3.059,2.895,7.952-0.175,10.93l0,0
		c-1.494,1.452-3.441,2.174-5.377,2.174l0,0C422.745,99.629,420.726,98.846,419.211,97.279z M93.118,85.875
		c-2.854-3.173-2.596-8.055,0.567-10.909l0,0c3.173-2.853,8.066-2.596,10.92,0.577l0,0c2.854,3.162,2.596,8.056-0.577,10.91l0,0
		c-1.483,1.328-3.328,1.978-5.172,1.978l0,0C96.744,88.431,94.643,87.575,93.118,85.875z M393.127,74.184L393.127,74.184
		c-3.399-2.586-4.07-7.428-1.483-10.827l0,0c2.575-3.399,7.417-4.069,10.817-1.494l0,0c3.399,2.575,4.069,7.428,1.493,10.827l0,0
		c-1.524,2.009-3.832,3.059-6.17,3.059l0,0C396.167,75.748,394.528,75.233,393.127,74.184z M120.912,62.965
		c-2.339-3.564-1.339-8.365,2.225-10.704l0,0c3.575-2.338,8.365-1.339,10.704,2.226l0,0c2.339,3.574,1.339,8.365-2.225,10.703l0,0
		c-1.309,0.854-2.781,1.268-4.234,1.268l0,0C124.868,66.457,122.396,65.221,120.912,62.965z M363.839,55.31v0.012
		c-3.75-2.03-5.151-6.718-3.121-10.479l0,0c2.019-3.749,6.717-5.15,10.467-3.12l0,0c3.749,2.029,5.151,6.716,3.121,10.467l0,0
		c-1.401,2.585-4.059,4.059-6.799,4.059l0,0C366.26,56.248,365.003,55.949,363.839,55.31z M151.869,44.556
		c-1.772-3.885-0.052-8.47,3.832-10.23l0,0l0,0l0,0c3.884-1.762,8.468-0.052,10.23,3.833l0,0c1.772,3.883,0.051,8.468-3.833,10.229
		v0.01c-1.04,0.464-2.122,0.69-3.193,0.69l0,0C155.969,49.088,153.157,47.408,151.869,44.556z M332.006,41.166v-0.01
		c-4.028-1.423-6.129-5.842-4.698-9.859l0,0c1.433-4.018,5.852-6.12,9.87-4.698l0,0l0,0l0,0c4.018,1.433,6.119,5.842,4.698,9.869
		l0,0c-1.134,3.163-4.111,5.141-7.283,5.141l0,0C333.727,41.608,332.862,41.465,332.006,41.166z M185.288,31.101
		c-1.143-4.109,1.257-8.365,5.367-9.519l0,0l0,0l0,0c4.111-1.144,8.376,1.257,9.52,5.367l0,0c1.153,4.11-1.247,8.376-5.357,9.519
		l0,0c-0.701,0.196-1.401,0.289-2.091,0.289l0,0C189.347,36.757,186.247,34.521,185.288,31.101z M298.392,32.08
		c-4.193-0.793-6.943-4.832-6.16-9.024l0,0c0.793-4.193,4.832-6.954,9.035-6.161l0,0c4.193,0.794,6.943,4.832,6.15,9.025l0,0
		c-0.7,3.708-3.935,6.293-7.582,6.293l0,0C299.36,32.213,298.876,32.172,298.392,32.08z M220.386,22.963
		c-0.504-4.234,2.524-8.088,6.769-8.582l0,0l0,0l0,0c4.234-0.505,8.077,2.524,8.581,6.758l0,0c0.495,4.234-2.534,8.076-6.768,8.582
		l0,0c-0.309,0.041-0.618,0.063-0.917,0.063l0,0C224.188,29.783,220.85,26.888,220.386,22.963z M263.778,28.268
		c-4.265-0.144-7.603-3.719-7.458-7.984l0,0c0.134-4.264,3.708-7.612,7.974-7.469l0,0c0,0,0,0,0,0.012l0,0
		c4.265,0.134,7.613,3.708,7.469,7.973l0,0c-0.145,4.173-3.575,7.469-7.727,7.469l0,0C263.953,28.268,263.86,28.268,263.778,28.268z
		"/>
	<path style="fill:#FFFFFF;" d="M441.567,256c0,33.619-27.207,60.874-60.771,60.874H131.204c-33.563,0-60.77-27.255-60.77-60.874
		l0,0c0-33.619,27.207-60.874,60.77-60.874h249.593C414.359,195.126,441.567,222.381,441.567,256L441.567,256z"/>
</g>
<path style="opacity:0.1;enable-background:new    ;" d="M90.902,256c0-33.619,27.208-60.874,60.771-60.874h-20.469
	c-33.563,0-60.77,27.255-60.77,60.874s27.207,60.874,60.77,60.874h20.469C118.11,316.874,90.902,289.619,90.902,256z"/>
<path style="fill:#FECF05;" d="M380.796,324.374H131.204c-37.644,0-68.27-30.673-68.27-68.374s30.626-68.374,68.27-68.374h249.593
	c37.645,0,68.271,30.673,68.271,68.374S418.441,324.374,380.796,324.374z M131.204,202.626c-29.373,0-53.27,23.943-53.27,53.374
	s23.897,53.374,53.27,53.374h249.593c29.374,0,53.271-23.943,53.271-53.374s-23.897-53.374-53.271-53.374H131.204z"/>
<g>
	<path style="fill:#EE3835;" d="M141.646,217.852h-23.51c-4.142,0-7.5,3.357-7.5,7.5c0,0.186,0,61.299,0,61.299
		c0,4.143,3.358,7.5,7.5,7.5h23.51c12.537,0,22.736-10.268,22.736-22.889c0-5.865-2.207-11.219-5.823-15.273
		c3.61-4.053,5.823-9.39,5.823-15.249C164.382,228.119,154.183,217.852,141.646,217.852z M141.646,279.15h-16.01v-15.779h16.01
		c4.266,0,7.736,3.54,7.736,7.891C149.382,275.611,145.912,279.15,141.646,279.15z M141.646,248.629h-16.01v-15.777h16.01
		c4.266,0,7.736,3.538,7.736,7.888C149.382,245.09,145.912,248.629,141.646,248.629z"/>
	<path style="fill:#EE3835;" d="M196.146,217.848c-14.593,0-26.465,11.921-26.465,26.574v23.158c0,14.651,11.872,26.57,26.465,26.57
		c14.595,0,26.469-11.919,26.469-26.57v-23.158C222.615,229.769,210.741,217.848,196.146,217.848z M207.615,267.58
		c0,6.38-5.145,11.57-11.469,11.57c-6.322,0-11.465-5.19-11.465-11.57v-23.158c0-6.382,5.143-11.574,11.465-11.574
		c6.324,0,11.469,5.192,11.469,11.574V267.58z"/>
	<path style="fill:#EE3835;" d="M381.372,248.5h-11.851c-2.707,0-4.993-2.915-4.993-6.365v-2.92c0-3.451,2.286-6.367,4.993-6.367
		h17.99c4.142,0,7.5-3.357,7.5-7.5s-3.358-7.5-7.5-7.5h-17.99c-11.024,0-19.993,9.585-19.993,21.367v2.92
		c0,11.781,8.969,21.365,19.993,21.365h11.851c2.706,0,4.992,2.915,4.992,6.365v2.92c0,3.45-2.286,6.365-4.992,6.365h-20.531
		c-4.142,0-7.5,3.357-7.5,7.5s3.358,7.5,7.5,7.5h20.531c11.024,0,19.992-9.584,19.992-21.365v-2.92
		C401.364,258.084,392.396,248.5,381.372,248.5z"/>
	<path style="fill:#EE3835;" d="M255.622,217.848c-14.593,0-26.466,11.921-26.466,26.574v42.228c0,4.143,3.358,7.5,7.5,7.5
		s7.5-3.357,7.5-7.5v-42.228c0-6.382,5.144-11.574,11.466-11.574c6.325,0,11.47,5.192,11.47,11.574v42.228
		c0,4.143,3.358,7.5,7.5,7.5s7.5-3.357,7.5-7.5v-42.228C282.092,229.769,270.218,217.848,255.622,217.848z"/>
	<path style="fill:#EE3835;" d="M336.337,217.848c-4.142,0-7.5,3.357-7.5,7.5v42.232c0,6.38-5.143,11.57-11.465,11.57
		c-6.325,0-11.47-5.19-11.47-11.57v-42.232c0-4.143-3.358-7.5-7.5-7.5s-7.5,3.357-7.5,7.5v42.232c0,14.651,11.875,26.57,26.47,26.57
		c14.593,0,26.465-11.919,26.465-26.57v-42.232C343.837,221.205,340.479,217.848,336.337,217.848z"/>
</g>
<g>
	<path style="fill:#FECF05;" d="M191.838,408.19c-0.604,0-1.214-0.108-1.796-0.327l-14.946-5.593l-14.946,5.593
		c-0.582,0.219-1.191,0.326-1.796,0.326c-1.063,0-2.118-0.332-3.004-0.973c-1.389-1.007-2.178-2.64-2.102-4.35l0.717-15.898
		l-9.954-12.44c-1.07-1.339-1.395-3.124-0.864-4.753c0.53-1.626,1.845-2.88,3.5-3.335l15.389-4.231l8.795-13.282
		c0.945-1.429,2.548-2.288,4.265-2.288s3.32,0.859,4.265,2.288l8.794,13.282l15.391,4.231c1.655,0.455,2.971,1.709,3.502,3.335
		c0.531,1.629,0.205,3.414-0.864,4.753l-9.955,12.44l0.717,15.899c0.075,1.709-0.714,3.344-2.102,4.349
		C193.956,407.859,192.902,408.19,191.838,408.19z"/>
	<path style="fill:#FECF05;" d="M272.741,408.19c-0.605,0-1.213-0.108-1.797-0.327l-14.945-5.593l-14.945,5.593
		c-0.583,0.219-1.191,0.326-1.796,0.326c-1.064,0-2.119-0.332-3.005-0.973c-1.389-1.007-2.177-2.64-2.1-4.35l0.717-15.898
		l-9.956-12.44c-1.07-1.339-1.396-3.124-0.864-4.753c0.531-1.626,1.847-2.88,3.501-3.335l15.389-4.231l8.795-13.282
		c0.945-1.429,2.548-2.288,4.265-2.288s3.32,0.859,4.264,2.288l8.795,13.282l15.39,4.231c1.655,0.455,2.971,1.709,3.502,3.335
		c0.531,1.629,0.205,3.414-0.865,4.753l-9.954,12.44l0.717,15.899c0.075,1.709-0.712,3.344-2.102,4.349
		C274.86,407.859,273.805,408.19,272.741,408.19z"/>
	<path style="fill:#FECF05;" d="M353.645,408.19c-0.605,0-1.214-0.108-1.797-0.327l-14.945-5.593l-14.946,5.593
		c-0.584,0.219-1.191,0.326-1.796,0.326c-1.063,0-2.118-0.332-3.005-0.973c-1.388-1.007-2.177-2.64-2.102-4.35l0.718-15.898
		l-9.956-12.44c-1.07-1.339-1.395-3.124-0.864-4.753c0.531-1.626,1.846-2.88,3.501-3.335l15.39-4.231l8.793-13.282
		c0.946-1.429,2.549-2.288,4.267-2.288c1.716,0,3.32,0.859,4.264,2.288l8.796,13.282l15.39,4.231
		c1.654,0.455,2.97,1.709,3.501,3.335c0.532,1.629,0.206,3.414-0.864,4.753l-9.955,12.44l0.716,15.899
		c0.076,1.709-0.713,3.344-2.103,4.349C355.762,407.859,354.708,408.19,353.645,408.19z"/>
	<path style="fill:#FECF05;" d="M189.54,159.933c-0.604,0-1.214-0.107-1.796-0.327l-14.946-5.592l-14.946,5.592
		c-0.582,0.22-1.191,0.326-1.796,0.326c-1.063,0-2.118-0.332-3.004-0.972c-1.389-1.007-2.178-2.64-2.102-4.351l0.717-15.898
		l-9.955-12.439c-1.07-1.339-1.395-3.123-0.864-4.752c0.53-1.626,1.845-2.881,3.5-3.336l15.389-4.23l8.795-13.283
		c0.945-1.429,2.548-2.287,4.265-2.287s3.32,0.858,4.265,2.287l8.794,13.283l15.391,4.23c1.655,0.455,2.971,1.71,3.501,3.336
		c0.531,1.629,0.206,3.413-0.864,4.752l-9.955,12.439l0.717,15.899c0.075,1.71-0.714,3.345-2.102,4.35
		C191.658,159.602,190.605,159.933,189.54,159.933z"/>
	<path style="fill:#FECF05;" d="M355.943,159.933c-0.605,0-1.214-0.107-1.797-0.327l-14.945-5.592l-14.946,5.592
		c-0.584,0.22-1.191,0.326-1.796,0.326c-1.063,0-2.118-0.332-3.005-0.972c-1.388-1.007-2.177-2.64-2.102-4.351l0.718-15.898
		l-9.956-12.439c-1.07-1.339-1.395-3.123-0.864-4.752c0.531-1.626,1.846-2.881,3.501-3.336l15.39-4.23l8.793-13.283
		c0.946-1.429,2.549-2.287,4.267-2.287c1.716,0,3.32,0.858,4.264,2.287l8.796,13.283l15.39,4.23c1.654,0.455,2.97,1.71,3.501,3.336
		c0.532,1.629,0.206,3.413-0.864,4.752l-9.955,12.439l0.716,15.899c0.076,1.71-0.713,3.345-2.103,4.35
		C358.06,159.602,357.007,159.933,355.943,159.933z"/>
	<path style="fill:#FECF05;" d="M284.639,166.374c-1.035,0-2.075-0.183-3.074-0.558l-25.566-9.566l-25.567,9.566
		c-0.997,0.375-2.037,0.557-3.072,0.557c-1.821,0-3.624-0.568-5.141-1.663c-2.375-1.722-3.724-4.515-3.593-7.441l1.226-27.196
		l-17.032-21.279c-1.831-2.292-2.387-5.344-1.478-8.131c0.909-2.781,3.159-4.927,5.989-5.704l26.327-7.239l15.044-22.723
		c1.617-2.443,4.359-3.912,7.296-3.912c2.936,0,5.679,1.469,7.294,3.912l15.046,22.723l26.327,7.239
		c2.832,0.777,5.082,2.923,5.991,5.704c0.909,2.787,0.351,5.839-1.479,8.131l-17.029,21.279l1.226,27.199
		c0.129,2.924-1.218,5.721-3.595,7.439C288.263,165.809,286.46,166.374,284.639,166.374z"/>
</g>
<path style="opacity:0.1;enable-background:new    ;" d="M93.758,437.02C45.488,388.666,18.905,324.381,18.905,256
	S45.488,123.334,93.758,74.98C139.844,28.816,200.434,2.473,265.233,0.182C262.164,0.073,259.087,0,256,0
	C187.737,0,123.561,26.629,75.291,74.98C27.021,123.334,0.439,187.619,0.439,256s26.583,132.666,74.853,181.02
	C123.561,485.371,187.737,512,256,512c3.087,0,6.164-0.073,9.233-0.182C200.434,509.527,139.844,483.184,93.758,437.02z"/>
<g>
</g>
<g>
</g>
<g>
</g>
<g>
</g>
<g>
</g>
<g>
</g>
<g>
</g>
<g>
</g>
<g>
</g>
<g>
</g>
<g>
</g>
<g>
</g>
<g>
</g>
<g>
</g>
<g>
</g>
</svg>
