<svg height="512" viewBox="0 0 64 64" width="512" xmlns="http://www.w3.org/2000/svg"><g id="_21-Like" data-name="21-Like"><circle cx="32" cy="32" fill="#e32c28" r="29"/><path d="m37 52a29 29 0 0 1 -27.448-38.357 29 29 0 1 0 49.9 27.714 28.939 28.939 0 0 1 -22.452 10.643z" fill="#c41a1d"/><path d="m35.623 7.625a2.633 2.633 0 0 0 -.585 1.137c-.267 1.337.919 2.51 2.082 3.257a34.554 34.554 0 0 0 3.294 1.792l4.562 2.272c1.655.825 3.554 2.042 5.449 1.907a3.221 3.221 0 0 0 1.41-.349c1.63-.955 1.279-3.074.574-4.492a9.966 9.966 0 0 0 -3.409-3.597c-3.039-2.093-10.3-5.652-13.377-1.927z" fill="#ffb3c3"/><path d="m52.106 19.422a1.1 1.1 0 0 0 .011.964 2.123 2.123 0 0 0 .461.514 5.809 5.809 0 0 0 .976.758 2.382 2.382 0 0 0 1.255.342 1.117 1.117 0 0 0 .61-.181.946.946 0 0 0 .22-.241 2.414 2.414 0 0 0 -.664-3.208c-1.154-.921-2.441.049-2.869 1.052z" fill="#ffb3c3"/><path d="m47.74 21.19a11.3 11.3 0 0 0 -15.74 0 11.3 11.3 0 0 0 -15.74 0 10.729 10.729 0 0 0 0 15.4l15.74 15.41 15.74-15.4a10.729 10.729 0 0 0 0-15.41z" fill="#fff"/><path d="m47.74 29.6-8.745 8.559a10 10 0 0 1 -13.99 0l-8.745-8.559a10.792 10.792 0 0 1 -2.659-4.2 10.717 10.717 0 0 0 2.659 11.2l15.74 15.4 15.74-15.4a10.717 10.717 0 0 0 2.659-11.2 10.792 10.792 0 0 1 -2.659 4.2z" fill="#ffccd7"/><path d="m16.26 36.6a10.723 10.723 0 0 1 -1.447-13.662 11.169 11.169 0 0 0 -1.553 1.252 10.729 10.729 0 0 0 0 15.4l15.74 15.41 15.74-15.4c.218-.214.418-.438.614-.665l-13.354 13.065z" fill="#b5181b"/></g></svg>