<svg id="Capa_1" enable-background="new 0 0 512 512" height="512" viewBox="0 0 512 512" width="512" xmlns="http://www.w3.org/2000/svg"><g><g><path d="m256 481 15 22.599c25.8-23.099 61.501-33.699 95.398-26.499l-4.631-39.173 30.734 24.173c10.499-33.001 36.299-59.101 69.598-69.6l-24.299-30.733 39.3 4.633c-7.2-33.9 3.398-69.6 26.498-95.4l-22.598-15 22.598-15c-23.101-25.8-33.698-61.5-26.498-95.4l-39.299 4.799 24.299-30.899c-33.3-10.501-59.099-36.901-69.899-69.901l-30.584 24.444 4.781-39.144c-33.896 7.201-69.598-3.623-95.398-26.723l-15 22.824-15-22.824c-25.8 23.1-61.501 33.924-95.398 26.724l4.781 39.144-30.584-24.444c-10.8 32.999-36.599 59.399-69.899 69.9l24.299 30.899-39.299-4.799c7.2 33.9-3.398 69.6-26.498 95.4l22.598 15-22.598 15c23.1 25.8 33.698 61.5 26.498 95.4l39.299-4.633-24.299 30.733c33.3 10.499 59.099 36.599 69.598 69.6l30.734-24.173-4.631 39.173c33.896-7.2 69.598 3.401 95.398 26.499z" fill="#fed843"/></g><g><path d="m256 481 15 22.599c25.8-23.099 61.501-33.699 95.398-26.499l-4.631-39.173 30.734 24.173c10.499-33.001 36.299-59.101 69.598-69.6l-24.299-30.733 39.3 4.633c-7.2-33.9 3.398-69.6 26.498-95.4l-22.598-15 22.598-15c-23.101-25.8-33.698-61.5-26.498-95.4l-39.299 4.799 24.299-30.899c-33.3-10.501-59.099-36.901-69.899-69.901l-30.584 24.444 4.781-39.144c-33.896 7.201-69.598-3.623-95.398-26.723l-15 22.824" fill="#fabe2c"/></g><g><path d="m256 391c-74.443 0-135-60.557-135-135s60.557-135 135-135 135 60.557 135 135-60.557 135-135 135z" fill="#ff6c6c"/></g><path d="m391 256c0-74.443-60.557-135-135-135v270c74.443 0 135-60.557 135-135z" fill="#e63950"/><g id="Medal_13_"><g><path d="m271 8.176v67.824c0 8.399-6.599 15-15 15s-15-6.601-15-15v-67.824c1.501-1.199 2.999-2.399 4.501-3.9 5.402-5.7 15.597-5.7 20.999 0 1.501 1.501 2.999 2.7 4.5 3.9z" fill="#fabe2c"/></g><g><g><path d="m478.297 139.9c-.597 1.8-.897 3.9-1.198 5.7l-57.601 33.3c-6.583 4.115-16.471 2.118-20.698-5.4-4.2-7.2-1.501-16.201 5.698-20.4l57.601-33.301h.3c1.798.901 3.6 1.201 5.402 1.8 7.801 2.1 12.598 10.201 10.496 18.301z" fill="#ff9100"/></g></g><g><path d="m271 436v67.599c-5.901 4.721-7.819 8.401-15 8.401-7.192 0-9.127-3.703-15-8.401v-67.599c0-8.401 6.599-15 15-15s15 6.599 15 15z" fill="#fabe2c"/></g><g><path d="m173.5 113.2c-7.439 3.714-16.534 1.611-20.398-5.7l-33.303-57.9c2.225-4.445 1.265-10.065 8.701-14.399 6.059-3.857 10.503-1.4 17.102-.3l33.296 57.599c4.204 7.199 1.802 16.499-5.398 20.7z" fill="#fabe2c"/></g><g><path d="m113.2 173.5c-4.229 7.52-14.119 9.513-20.698 5.4l-57.602-33.3c-.3-1.8-.601-3.9-1.198-5.7-2.102-8.101 2.695-16.201 10.496-18.301 2.102-.599 3.604-1.2 5.402-2.099h.3l57.601 33.6c7.2 4.199 9.899 13.2 5.699 20.4z" fill="#fabe2c"/></g><g><path d="m392.501 462.1v.3c-3.049 6.092-2.021 10.327-9.001 14.399-6.055 3.854-10.446 1.41-17.102.3l-33.296-57.599c-4.204-7.202-1.802-16.501 5.398-20.7 7.2-4.2 16.201-1.501 20.398 5.7z" fill="#ff9100"/></g><g><path d="m91 256c0 8.399-6.599 15-15 15h-67.598c-1.201-1.5-2.402-3.001-3.9-4.501-6.002-5.7-6.002-15.3 0-21 1.498-1.5 2.699-2.999 3.9-4.499h67.598c8.401 0 15 6.599 15 15z" fill="#fabe2c"/></g><g><path d="m107.501 358.9-57.601 33.6h-.3c-1.798-.901-3.3-1.5-5.402-2.1-7.8-2.1-12.598-10.199-10.496-18.3.597-1.8.897-3.9 1.198-5.7l57.601-33.3c7.2-4.2 16.498-1.8 20.698 5.4s1.502 16.199-5.698 20.4z" fill="#fabe2c"/></g><g><g><path d="m507.498 266.499c-1.498 1.5-2.699 3.001-3.9 4.501h-67.598c-8.401 0-15-6.601-15-15 0-8.401 6.599-15 15-15h67.598c1.201 1.5 2.402 2.999 3.9 4.499 6.003 5.7 6.003 15.3 0 21z" fill="#ff9100"/></g></g><g><path d="m178.898 419.5-33.296 57.6c-6.995 1.166-10.57 3.511-17.102-.3-6.985-4.075-5.986-8.374-9.001-14.399v-.3l33.604-57.599c4.197-7.202 13.198-9.6 20.398-5.7 7.199 4.197 9.601 13.497 5.397 20.698z" fill="#fabe2c"/></g><g><g><path d="m392.201 49.9-33.303 57.6c-3.868 7.318-12.964 9.412-20.398 5.7-7.2-4.2-9.602-13.5-5.398-20.7l33.296-57.6c6.981-1.164 10.557-3.518 17.102.3 6.178 3.602 6.285 7.459 8.701 14.7z" fill="#ff9100"/></g></g><g><g><path d="m467.802 390.399c-2.402.601-4.801 1.5-6.899 2.401l-57.004-33.3c-7.2-4.2-9.598-13.2-5.398-20.402 4.2-7.2 13.499-9.598 20.398-5.4l58.502 33.9v.3c.3 1.5.601 2.701.897 4.2 2.101 8.102-2.696 16.201-10.496 18.301z" fill="#ff9100"/></g></g></g><g><path d="m279.936 311.796-23.936-12.437-23.936 12.437c-5.01 2.593-11.133 2.139-15.732-1.172-4.6-3.34-6.914-8.994-5.977-14.59l4.395-26.646-19.189-18.94c-4.177-4.072-5.454-10.109-3.75-15.322 1.758-5.391 6.416-9.346 12.041-10.195l26.66-4.014 12.07-24.126c5.098-10.166 21.738-10.166 26.836 0l12.07 24.126 26.66 4.014c5.625.85 10.283 4.805 12.041 10.195 1.758 5.405.322 11.338-3.75 15.322l-19.189 18.94 4.395 26.646c.938 5.596-1.377 11.25-5.977 14.59-4.569 3.311-10.681 3.8-15.732 1.172z" fill="#fed843"/></g><path d="m271 503.599v-67.599c0-8.401-6.599-15-15-15v91c7.181 0 9.097-3.68 15-8.401z" fill="#ff9100"/><path d="m271 76v-67.824c-1.501-1.199-2.999-2.399-4.501-3.9-2.699-2.851-6.603-4.276-10.499-4.276v91c8.401 0 15-6.601 15-15z" fill="#ff9100"/><path d="m279.936 311.796c5.054 2.628 11.162 2.139 15.732-1.172 4.6-3.34 6.914-8.994 5.977-14.59l-4.395-26.646 19.189-18.94c4.072-3.984 5.508-9.917 3.75-15.322-1.758-5.391-6.416-9.346-12.041-10.195l-26.66-4.014-12.07-24.126c-2.549-5.083-7.983-7.625-13.418-7.625v110.193z" fill="#fabe2c"/></g></svg>