<?xml version="1.0" encoding="iso-8859-1"?>
<!-- Generator: Adobe Illustrator 19.0.0, SVG Export Plug-In . SVG Version: 6.00 Build 0)  -->
<svg version="1.1" id="Layer_1" xmlns="http://www.w3.org/2000/svg" xmlns:xlink="http://www.w3.org/1999/xlink" x="0px" y="0px"
	 viewBox="0 0 512.001 512.001" style="enable-background:new 0 0 512.001 512.001;" xml:space="preserve">
<polygon style="fill:#F9BE00;" points="312.205,203.522 199.785,203.522 219.785,390.571 292.204,390.571 "/>
<path style="opacity:0.2;enable-background:new    ;" d="M255.995,398.519c-4.39,0-7.947-3.558-7.947-7.947V219.843
	c0-4.389,3.557-7.947,7.947-7.947c4.39,0,7.947,3.558,7.947,7.947v170.728C263.942,394.96,260.384,398.519,255.995,398.519z"/>
<path style="opacity:0.1;enable-background:new    ;" d="M199.785,203.522l3.641,34.044l16.246,10.739
	c6.402,4.233,17.918,7.695,25.593,7.695h21.467c7.675,0,19.191-3.462,25.593-7.694l16.24-10.735l3.641-34.05L199.785,203.522
	L199.785,203.522z"/>
<rect x="176.826" y="409.541" style="fill:#333E48;" width="158.338" height="70.623"/>
<path style="fill:#F9BE00;" d="M335.167,504.053c6.598,0,11.947-5.348,11.947-11.947c0-6.597-5.35-11.946-11.947-11.946H176.829
	c-6.598,0-11.947,5.349-11.947,11.946c0,6.598,5.35,11.947,11.947,11.947H335.167z"/>
<path style="fill:#B88C1D;" d="M335.167,409.539v-8.889c0-10.605-8.597-19.201-19.201-19.201H196.031
	c-10.605,0-19.201,8.597-19.201,19.201v8.889H335.167z"/>
<path style="fill:#F9BE00;" d="M317.908,91.47l-13.374-2.823c-6.417-1.355-16.413-2.496-23.978-2.801
	c6.376-6.321,10.325-15.083,10.325-24.768V42.832c0-19.266-15.618-34.884-34.884-34.884s-34.884,15.618-34.884,34.884v18.247
	c0,9.686,3.949,18.448,10.325,24.768c-7.565,0.304-17.561,1.445-23.978,2.801l-13.374,2.823
	c-7.509,1.585-13.653,9.161-13.653,16.835v75.85c0,7.675,5.238,17.417,11.64,21.648l27.597,18.241
	c6.402,4.233,17.918,7.695,25.593,7.695h21.467c7.675,0,19.191-3.462,25.593-7.694l27.598-18.242
	c6.402-4.231,11.64-13.974,11.64-21.648v-75.85C331.562,100.63,325.418,93.054,317.908,91.47z"/>
<path style="opacity:0.2;enable-background:new    ;" d="M255.995,195.411c-4.39,0-7.947-3.558-7.947-7.947v-37.746
	c0-4.389,3.557-7.947,7.947-7.947c4.39,0,7.947,3.558,7.947,7.947v37.746C263.942,191.853,260.384,195.411,255.995,195.411z"/>
<path style="fill:#B88C1D;" d="M255.998,195.411c-8.285,0-42.831-13.026-42.831-32.634v-31.126c0-4.389,3.557-7.947,7.947-7.947
	s7.947,3.558,7.947,7.947v31.126c0,1.479,2.88,5.518,10.606,10.059c7.462,4.385,14.582,6.518,16.331,6.677
	c1.748-0.159,8.869-2.292,16.331-6.677c7.726-4.542,10.606-8.58,10.606-10.059v-31.126c0-4.389,3.557-7.947,7.947-7.947
	s7.947,3.558,7.947,7.947v31.126C298.829,182.385,264.284,195.411,255.998,195.411z"/>
<g>
	<circle style="fill:#FFFFFF;" cx="268.61" cy="35.889" r="7.92"/>
	<circle style="fill:#FFFFFF;" cx="309.225" cy="111.927" r="7.918"/>
</g>
<path style="fill:#1E252B;" d="M343.115,473.881v-73.232c0-14.969-12.178-27.148-27.148-27.148h-13.942l16.837-157.47l5.444-3.598
	c8.669-5.729,15.205-17.886,15.205-28.278v-75.85c0-11.439-8.766-22.249-19.959-24.611l-13.373-2.823
	c-3.151-0.665-7.118-1.287-11.288-1.795c2.581-5.566,3.941-11.677,3.941-18V42.83C298.829,19.214,279.615,0,255.998,0
	s-42.831,19.214-42.831,42.831v18.247c0,6.323,1.359,12.432,3.941,18c-4.171,0.506-8.138,1.128-11.287,1.794l-13.374,2.823
	c-11.193,2.362-19.959,13.172-19.959,24.611v75.85c0,10.392,6.537,22.549,15.205,28.278l5.437,3.594l16.838,157.474h-13.936
	c-14.97,0-27.148,12.179-27.148,27.148v73.232c-7.023,3.074-11.947,10.082-11.947,18.225c0,10.969,8.925,19.894,19.894,19.894
	H335.17c10.97,0,19.894-8.924,19.894-19.894C355.062,483.963,350.137,476.955,343.115,473.881z M196.457,199.172
	c-4.152-2.743-8.075-10.042-8.075-15.018v-75.85c0-3.93,3.502-8.248,7.347-9.059l13.376-2.824c5.842-1.233,15.37-2.342,22.656-2.635
	c3.159-0.127,5.943-2.116,7.088-5.064c1.144-2.948,0.432-6.294-1.813-8.521c-5.142-5.098-7.973-11.89-7.973-19.125V42.83
	c0-14.852,12.083-26.935,26.936-26.935s26.936,12.084,26.936,26.936v18.247c0,7.236-2.831,14.027-7.973,19.125
	c-2.245,2.227-2.957,5.573-1.813,8.521c1.144,2.948,3.929,4.937,7.088,5.064c7.286,0.292,16.814,1.401,22.657,2.635l13.374,2.823
	c3.845,0.812,7.347,5.13,7.347,9.059v75.85c0,4.976-3.924,12.275-8.075,15.018l-27.598,18.242
	c-5.139,3.397-15.051,6.377-21.211,6.377h-21.467c-6.161,0-16.072-2.98-21.211-6.378L196.457,199.172z M301.66,227.4
	l-15.622,146.101h-60.088l-15.622-146.105l4.959,3.277c7.644,5.054,20.812,9.012,29.976,9.012h21.467
	c9.164,0,22.33-3.958,29.975-9.011L301.66,227.4z M184.776,400.649c0-6.205,5.049-11.254,11.254-11.254h119.936
	c6.205,0,11.254,5.049,11.254,11.254v0.942H184.777L184.776,400.649L184.776,400.649z M184.776,417.486H327.22v54.728H184.776
	V417.486z M335.167,496.106H176.829c-2.206,0-4-1.794-4-4c0-2.205,1.794-3.999,4-3.999h158.338c2.206,0,4,1.794,4,3.999
	C339.167,494.312,337.374,496.106,335.167,496.106z"/>
<g>
</g>
<g>
</g>
<g>
</g>
<g>
</g>
<g>
</g>
<g>
</g>
<g>
</g>
<g>
</g>
<g>
</g>
<g>
</g>
<g>
</g>
<g>
</g>
<g>
</g>
<g>
</g>
<g>
</g>
</svg>
