<svg id="Layer_2" height="512" viewBox="0 0 512 512" width="512" xmlns="http://www.w3.org/2000/svg" xmlns:xlink="http://www.w3.org/1999/xlink" data-name="Layer 2"><linearGradient id="linear-gradient" gradientUnits="userSpaceOnUse" x1="43.93" x2="468.07" y1="43.93" y2="468.07"><stop offset="0" stop-color="#38b9ff"/><stop offset="1" stop-color="#0750e1"/></linearGradient><g id="Icon"><path id="_77" d="m362 0h-212c-82.84 0-150 67.16-150 150v212c0 82.84 67.16 150 150 150h212c82.84 0 150-67.16 150-150v-212c0-82.84-67.16-150-150-150zm100 362c0 55.14-44.86 100-100 100h-212c-55.14 0-100-44.86-100-100v-212c0-55.14 44.86-100 100-100h212c55.14 0 100 44.86 100 100zm-102.13-107.62c3.47 3.47 5.59 8.29 5.5 13.61-.17 10.33-8.89 18.48-19.22 18.48h-9.15c5.2 0 9.89 2.11 13.3 5.5 3.47 3.47 5.59 8.29 5.5 13.61-.17 10.33-8.89 18.48-19.22 18.48h-13.01c5.19 0 9.89 2.11 13.3 5.5 3.47 3.47 5.59 8.29 5.5 13.61-.17 10.33-8.89 18.48-19.22 18.48h-36.88c-5.05 0-10.06-.93-14.77-2.75l-39.83-15.35c-4.71-1.82-9.71-2.75-14.76-2.75-2.93 0-5.3-2.37-5.3-5.3v-103.07c0-2.51 1.76-4.68 4.22-5.19 5.25-1.08 14.12-3.33 19.03-7.01 5.72-4.29 7.78-9.32 9.33-15.19 3.13-11.89 6.63-30.53 6.86-45.41.09-6.15 4.57-11.74 13.65-10.83 13.52 1.35 23.99 15.46 22.04 31.25-.98 7.9-2.08 16.43-2.94 23-.85 6.57-1.47 11.16-1.47 11.16.51-.12 15.72-2.95 24.97-2.95h42.94c10.54 0 19.42 8.63 19.22 19.17-.2 10.21-8.53 18.43-18.8 18.43h-4.1c5.2 0 9.89 2.11 13.3 5.5zm-196.84 108.89h20.51c11.33 0 20.51-9.18 20.51-20.51v-116.21c0-11.33-9.18-20.51-20.51-20.51h-20.51c-11.33 0-20.51 9.18-20.51 20.51v116.21c0 11.33 9.18 20.51 20.51 20.51z" fill="url(#linear-gradient)" data-name="77"/></g></svg>