<svg id="Capa_1" enable-background="new 0 0 512 512" height="512" viewBox="0 0 512 512" width="512" xmlns="http://www.w3.org/2000/svg" xmlns:xlink="http://www.w3.org/1999/xlink"><linearGradient id="SVGID_1_" gradientUnits="userSpaceOnUse" x1="111.09" x2="429.528" y1="415.543" y2="97.105"><stop offset="0" stop-color="#fff" stop-opacity="0"/><stop offset=".2617" stop-color="#ededff" stop-opacity=".416"/><stop offset=".629" stop-color="#d8d8ff"/></linearGradient><g><g><path d="m506.103 220.143c-20.109-48.246-80.277-52.358-122.465-74.819-16.842-8.966-11.403-24.499-3.688-38.467 27.789-50.307-28.943-100.382-80.546-104.73-161.99-13.649-113.292 124.616-183.851 153.743-35.034 14.462-81.702 21.562-102.31 54.784-33.711 54.345.208 133.871 64.778 155.434 65.865 21.996 130.081-28.163 129.202 25.596-.495 30.249-52.151 56.748-30.814 86.7 24.061 33.776 176.137 56.964 172.495-13.44-2.15-41.571-63.449-54.641-18.812-94.91 23.098-20.838 57.78-12.354 86.491-16.149 59.564-7.871 113.687-75.76 89.52-133.742z" fill="url(#SVGID_1_)"/></g><g><g><g><g><path d="m429.729 178.27-63.443 24.353c-5.23 2.008-11.097-.605-13.104-5.834l-37.865-98.643c-2.008-5.23.605-11.097 5.835-13.104l63.443-24.353c5.23-2.008 11.097.605 13.104 5.834l37.865 98.643c2.007 5.229-.606 11.096-5.835 13.104z" fill="#fff"/><path d="m366.258 113.584-7.038 21.231c-.677 2.043.181 4.28 2.052 5.345l19.437 11.069c1.486.846 3.375.121 3.913-1.502l7.038-21.231c.677-2.043-.181-4.28-2.052-5.345l-19.437-11.069c-1.487-.846-3.375-.121-3.913 1.502z" fill="#ff4d4d"/></g></g><g><path d="m477.094 255.677-12.203-30.867c-3.596-9.089-12.235-14.963-22.01-14.963h-100.553c1.104-1.18 2.009-2.117 2.665-2.783 6.565-6.672 8.585-16.605 5.145-25.303l-12.203-30.867c-3.596-9.089-12.235-14.963-22.01-14.963h-100.554c1.104-1.18 2.009-2.117 2.665-2.783 6.565-6.672 8.585-16.605 5.145-25.303l-12.203-30.867c-3.596-9.089-12.235-14.963-22.01-14.963h-132.048c-13.051 0-23.669 10.618-23.669 23.669v53.625c0 13.051 10.618 23.669 23.669 23.669h30.947c5.757 0 11.04-2.066 15.148-5.496-12.725 25.862-23.014 56.547-25.267 90.423-12.415.713-22.298 11.039-22.298 23.63v30.947c0 13.051 10.618 23.669 23.669 23.669h61.345l-20.77 77.515c-1.45 5.411 1.761 10.973 7.172 12.423l65.641 17.589c5.411 1.45 10.973-1.761 12.423-7.172l7.084-26.438h68.974c13.051 0 23.669-10.618 23.669-23.669v-30.947c0-11.417-8.125-20.972-18.896-23.185.807-7.712 2.324-15.526 4.512-23.419 4.081 7.138 11.764 11.963 20.559 11.963h30.947c5.757 0 11.04-2.067 15.148-5.496-12.724 25.862-23.013 56.547-25.267 90.423-12.415.713-22.298 11.039-22.298 23.63v30.947c0 13.051 10.618 23.669 23.669 23.669h74.913c13.051 0 23.669-10.618 23.669-23.669v-30.947c0-11.417-8.125-20.972-18.896-23.185 2.391-22.843 10.861-46.559 25.27-70.686 14.098-23.608 29.558-40.043 33.96-44.516 6.567-6.672 8.587-16.605 5.147-25.304zm-313.776-30.745c4.081 7.138 11.764 11.963 20.559 11.963h30.947c5.757 0 11.04-2.066 15.148-5.496-10.836 22.025-19.887 47.557-23.732 75.57l-28.538-7.647v-27.786c0-11.417-8.125-20.972-18.896-23.185.807-7.712 2.324-15.526 4.512-23.419z" fill="#0000cb" opacity=".1"/><g><g><path d="m333.033 449.984c-13.051 0-23.669-10.618-23.669-23.669v-30.947c0-12.591 9.883-22.917 22.298-23.63 2.254-33.876 12.543-64.562 25.267-90.424-4.108 3.429-9.391 5.496-15.148 5.496h-30.947c-13.051 0-23.669-10.618-23.669-23.669v-53.625c0-13.051 10.618-23.669 23.669-23.669h132.048c9.774 0 18.414 5.873 22.01 14.963l12.203 30.867c3.44 8.699 1.421 18.632-5.144 25.303-4.402 4.473-19.862 20.909-33.96 44.516-14.409 24.127-22.879 47.843-25.27 70.686 10.771 2.214 18.896 11.768 18.896 23.185v30.947c0 13.051-10.618 23.669-23.669 23.669h-74.915z" fill="#ffeded"/><path d="m287.164 209.517v53.625c0 7.477 3.489 14.15 8.919 18.491 3.94-9.923 8.917-19.951 14.949-30.052 14.098-23.608 29.558-40.043 33.96-44.516 5.555-5.646 7.841-13.625 6.332-21.217h-40.491c-13.051 0-23.669 10.618-23.669 23.669z" fill="#ffd8d8"/><path d="m458.75 238.929-12.201-30.862c-.595-1.505-2.05-2.495-3.669-2.495h-132.047c-2.179 0-3.945 1.766-3.945 3.945v53.625c0 2.179 1.766 3.945 3.945 3.945h30.947c2.179 0 3.945-1.766 3.945-3.945v-16.206h55.04c-22.762 31.292-49.839 80.68-49.839 138.584v5.903h-17.893c-2.179 0-3.945 1.766-3.945 3.945v30.947c0 2.179 1.766 3.945 3.945 3.945h74.913c2.179 0 3.945-1.766 3.945-3.945v-30.947c0-2.179-1.766-3.945-3.945-3.945h-15.656v-5.903c0-72.137 54.838-131.435 65.599-142.374 1.095-1.113 1.435-2.765.861-4.217z" fill="#ff4d4d"/><path d="m311.033 251.581c14.098-23.608 29.558-40.043 33.96-44.516.472-.479.911-.981 1.335-1.493h-35.495c-2.178 0-3.945 1.766-3.945 3.945v49.301c1.322-2.408 2.701-4.821 4.145-7.237z" fill="#ff2c2c"/><g><path d="m407.946 434.205h-74.913c-4.35 0-7.89-3.54-7.89-7.89v-30.947c0-4.35 3.54-7.89 7.89-7.89h13.949v-1.959c0-55.231 24.129-102.764 46.151-134.639h-43.463v12.261c0 4.35-3.54 7.89-7.89 7.89h-30.947c-4.35 0-7.89-3.54-7.89-7.89v-53.625c0-4.35 3.54-7.89 7.89-7.89h132.048c3.258 0 6.138 1.958 7.336 4.988l12.201 30.864c1.146 2.899.472 6.209-1.717 8.434-10.764 10.942-64.466 69.095-64.466 139.607v1.959h11.711c4.35 0 7.89 3.54 7.89 7.89v30.947c-.001 4.35-3.54 7.89-7.89 7.89zm-74.913-38.837v30.947h74.913v-30.947h-15.656c-2.179 0-3.945-1.766-3.945-3.945v-5.903c0-73.587 55.589-133.815 66.732-145.141h.004.001l-12.201-30.863-132.048.001v53.625h30.947v-16.206c0-2.179 1.766-3.945 3.945-3.945h55.04c1.484 0 2.842.833 3.516 2.155.673 1.322.547 2.91-.326 4.111-22.392 30.782-49.083 79.409-49.083 136.263v5.903c0 2.179-1.766 3.945-3.945 3.945z" fill="#fa6"/></g><path d="m310.833 209.517h31.806c.963-1.024 1.761-1.85 2.354-2.452 1.611-1.637 2.938-3.475 3.986-5.438h-38.145c-4.35 0-7.89 3.54-7.89 7.89v53.625c0 .85.139 1.668.389 2.436 2.288-4.535 4.783-9.087 7.501-13.654v-42.407z" fill="#ff9c33"/></g><g><path d="m206.076 376.068c-13.051 0-23.669-10.618-23.669-23.669v-30.947c0-12.591 9.883-22.917 22.298-23.63 2.254-33.876 12.543-64.562 25.267-90.423-4.108 3.429-9.391 5.496-15.148 5.496h-30.947c-13.051 0-23.669-10.618-23.669-23.669v-53.625c0-13.051 10.618-23.669 23.669-23.669h132.048c9.774 0 18.414 5.873 22.01 14.963l12.203 30.867c3.44 8.699 1.421 18.632-5.145 25.303-4.402 4.473-19.862 20.909-33.96 44.516-14.409 24.127-22.879 47.843-25.27 70.686 10.771 2.214 18.896 11.768 18.896 23.185v30.947c0 13.051-10.618 23.669-23.669 23.669z" fill="#ffeded"/><path d="m160.208 135.601v53.625c0 7.477 3.489 14.15 8.919 18.491 3.94-9.923 8.917-19.951 14.95-30.052 14.097-23.607 29.558-40.042 33.96-44.516 5.555-5.646 7.841-13.625 6.332-21.217h-40.491c-13.053 0-23.67 10.618-23.67 23.669z" fill="#ffd8d8"/><path d="m331.793 165.013-12.201-30.862c-.595-1.505-2.05-2.495-3.669-2.495h-132.047c-2.179 0-3.945 1.766-3.945 3.945v53.625c0 2.179 1.766 3.945 3.945 3.945h30.947c2.179 0 3.945-1.766 3.945-3.945v-16.206h55.04c-22.762 31.292-49.839 80.68-49.839 138.584v5.903h-17.893c-2.179 0-3.945 1.766-3.945 3.945v30.947c0 2.179 1.766 3.945 3.945 3.945h74.913c2.179 0 3.945-1.766 3.945-3.945v-30.947c0-2.179-1.766-3.945-3.945-3.945h-15.656v-5.903c0-72.137 54.838-131.435 65.599-142.374 1.096-1.113 1.435-2.765.861-4.217z" fill="#ff4d4d"/><path d="m184.076 177.665c14.097-23.607 29.558-40.042 33.96-44.516.472-.479.911-.981 1.335-1.493h-35.495c-2.179 0-3.945 1.766-3.945 3.945v49.301c1.323-2.408 2.702-4.82 4.145-7.237z" fill="#ff2c2c"/><g><path d="m280.989 360.289h-74.913c-4.35 0-7.89-3.54-7.89-7.89v-30.947c0-4.35 3.54-7.89 7.89-7.89h13.949v-1.959c0-55.231 24.129-102.764 46.151-134.639h-43.463v12.261c0 4.35-3.54 7.89-7.89 7.89h-30.947c-4.35 0-7.89-3.54-7.89-7.89v-53.625c0-4.35 3.54-7.89 7.89-7.89h132.048c3.258 0 6.138 1.958 7.337 4.988l12.201 30.864c1.146 2.899.472 6.209-1.717 8.434-10.764 10.942-64.466 69.095-64.466 139.607v1.959h11.711c4.35 0 7.89 3.54 7.89 7.89v30.947c-.001 4.35-3.541 7.89-7.891 7.89zm-74.913-38.837v30.947h74.913v-30.947h-15.655c-2.179 0-3.945-1.766-3.945-3.945v-5.903c0-73.587 55.589-133.815 66.732-145.141h.004.001l-12.202-30.863-132.048.001v53.625h30.947v-16.206c0-2.179 1.766-3.945 3.945-3.945h55.04c1.484 0 2.842.833 3.516 2.155.673 1.322.547 2.91-.326 4.111-22.392 30.782-49.083 79.409-49.083 136.263v5.903c0 2.179-1.766 3.945-3.945 3.945z" fill="#fa6"/></g><path d="m183.876 135.601h31.806c.963-1.024 1.761-1.85 2.354-2.452 1.611-1.637 2.938-3.475 3.986-5.438h-38.146c-4.35 0-7.89 3.54-7.89 7.89v53.625c0 .85.139 1.668.389 2.436 2.287-4.535 4.783-9.087 7.5-13.654v-42.407z" fill="#ff9c33"/></g><g><path d="m79.12 302.152c-13.051 0-23.669-10.618-23.669-23.669v-30.947c0-12.591 9.883-22.917 22.298-23.63 2.254-33.876 12.543-64.562 25.267-90.423-4.108 3.429-9.391 5.496-15.148 5.496h-30.948c-13.051 0-23.669-10.618-23.669-23.669v-53.625c0-13.051 10.618-23.669 23.669-23.669h132.048c9.774 0 18.414 5.873 22.01 14.963l12.203 30.867c3.44 8.699 1.421 18.632-5.144 25.303-4.402 4.473-19.862 20.909-33.96 44.516-14.409 24.127-22.879 47.843-25.27 70.686 10.771 2.214 18.896 11.768 18.896 23.185v30.947c0 13.051-10.618 23.669-23.669 23.669z" fill="#ffeded"/><path d="m204.837 91.097-12.201-30.862c-.595-1.505-2.05-2.495-3.669-2.495h-132.048c-2.179 0-3.945 1.766-3.945 3.945v53.625c0 2.179 1.766 3.945 3.945 3.945h30.947c2.179 0 3.945-1.766 3.945-3.945v-16.206h55.04c-22.762 31.292-49.839 80.68-49.839 138.584v5.903h-17.893c-2.179 0-3.945 1.766-3.945 3.945v30.947c0 2.179 1.766 3.945 3.945 3.945h74.913c2.179 0 3.945-1.766 3.945-3.945v-30.947c0-2.179-1.766-3.945-3.945-3.945h-15.656v-5.903c0-72.137 54.838-131.435 65.599-142.374 1.096-1.113 1.436-2.765.862-4.217z" fill="#ff4d4d"/><g><path d="m154.033 286.373h-74.913c-4.35 0-7.89-3.54-7.89-7.89v-30.947c0-4.35 3.54-7.89 7.89-7.89h13.949v-1.959c0-55.231 24.129-102.764 46.151-134.639h-43.463v12.261c0 4.35-3.54 7.89-7.89 7.89h-30.947c-4.35 0-7.89-3.54-7.89-7.89v-53.624c0-4.35 3.54-7.89 7.89-7.89h132.048c3.258 0 6.138 1.958 7.337 4.988l12.201 30.864c1.146 2.899.472 6.209-1.717 8.434-10.764 10.942-64.466 69.095-64.466 139.607v1.959h11.711c4.35 0 7.89 3.54 7.89 7.89v30.947c-.002 4.349-3.541 7.889-7.891 7.889zm-74.913-38.837v30.947h74.913v-30.947h-15.655c-2.179 0-3.945-1.766-3.945-3.945v-5.903c0-73.587 55.589-133.815 66.732-145.141h.004.001l-12.201-30.863-132.049.001v53.625h30.947v-16.206c0-2.179 1.766-3.945 3.945-3.945h55.04c1.484 0 2.842.833 3.516 2.155.673 1.322.547 2.91-.326 4.111-22.392 30.782-49.083 79.409-49.083 136.263v5.903c0 2.179-1.766 3.945-3.945 3.945z" fill="#fa6"/></g></g></g></g><g><g><g><g><path d="m192.509 409.679-65.641-17.589c-5.411-1.45-8.622-7.012-7.172-12.423l27.347-102.06c1.45-5.411 7.012-8.622 12.423-7.172l65.641 17.589c5.411 1.45 8.622 7.012 7.172 12.423l-27.347 102.06c-1.451 5.411-7.012 8.622-12.423 7.172z" fill="#fff"/></g></g></g><path d="m481.74 229.842-12.202-30.873c-4.358-11.007-14.822-18.119-26.658-18.119h-7.631c5.219-3.971 7.447-11.052 4.979-17.472l-37.861-98.653c-2.998-7.795-11.778-11.695-19.569-8.703l-63.44 24.352c-3.777 1.451-6.762 4.286-8.406 7.983-1.644 3.696-1.749 7.812-.299 11.585l2.682 6.988h-65.985c-2.762 0-5 2.238-5 5s2.238 5 5 5h68.57c7.712 0 14.526 4.631 17.36 11.799l12.21 30.87c2.713 6.86 1.118 14.692-4.067 19.957-4.511 4.594-20.345 21.447-34.686 45.461-14.755 24.708-23.486 49.179-25.95 72.732-.268 2.558 1.448 4.901 3.967 5.418 8.638 1.773 14.906 9.463 14.906 18.283v30.95c0 10.295-8.375 18.67-18.67 18.67h-62.459l18.576-69.33c2.162-8.064-2.642-16.385-10.708-18.547l-14.57-3.904c3.665-23.163 11.266-46.582 22.626-69.682 1.043-2.119.46-4.679-1.396-6.138-1.855-1.459-4.479-1.42-6.294.092-3.344 2.791-7.586 4.328-11.945 4.328h-30.94c-6.058 0-11.627-2.874-15.137-7.745 4.214-14.391 10.77-29.084 19.63-43.921 13.869-23.23 28.938-39.216 33.231-43.567 7.951-8.084 10.395-20.114 6.226-30.645l-12.201-30.871c-4.359-11.008-14.824-18.12-26.659-18.12h-132.05c-15.809 0-28.67 12.856-28.67 28.66v53.631c0 15.809 12.861 28.67 28.67 28.67h30.95c1.676 0 3.341-.148 4.977-.438-10.984 25.256-17.62 50.739-19.776 75.969-12.987 2.788-22.62 14.349-22.62 28.029v30.94c0 15.809 12.861 28.67 28.67 28.67h54.829l-19.083 71.224c-2.162 8.064 2.642 16.385 10.707 18.547l65.642 17.587c1.308.351 2.622.519 3.916.519 6.686 0 12.819-4.468 14.631-11.226l6.09-22.73h65.138c15.809 0 28.67-12.861 28.67-28.67v-30.95c0-11.973-7.522-22.589-18.43-26.773.421-3.066.969-6.153 1.615-9.254 5.028 4.056 11.352 6.387 17.984 6.387h30.95c1.678 0 3.344-.148 4.98-.439-7.01 16.136-12.278 32.438-15.702 48.614-.572 2.701 1.154 5.355 3.856 5.927.349.074.697.109 1.04.109 2.312 0 4.389-1.613 4.887-3.966 4.122-19.478 11.045-39.173 20.574-58.537 1.043-2.119.461-4.679-1.396-6.139-1.854-1.459-4.481-1.421-6.294.093-3.352 2.797-7.594 4.338-11.945 4.338h-30.95c-6.008 0-11.635-2.938-15.13-7.771 4.214-14.382 10.768-29.067 19.623-43.895 10.878-18.216 22.611-32.099 29.187-39.294h98.37c7.708 0 14.522 4.632 17.359 11.798l12.201 30.871c2.712 6.859 1.12 14.692-4.054 19.954-4.495 4.566-20.284 21.342-34.688 45.463-14.754 24.695-23.485 49.163-25.951 72.724-.268 2.556 1.446 4.898 3.963 5.418 8.64 1.781 14.91 9.475 14.91 18.293v30.95c0 10.289-8.375 18.66-18.67 18.66h-74.92c-10.295 0-18.67-8.371-18.67-18.66v-30.95c0-9.887 7.725-18.074 17.585-18.638 2.757-.158 4.864-2.521 4.707-5.277-.158-2.758-2.564-4.834-5.277-4.707-15.148.867-27.015 13.439-27.015 28.622v30.95c0 15.804 12.861 28.66 28.67 28.66h74.92c15.809 0 28.67-12.856 28.67-28.66v-30.95c0-11.969-7.522-22.588-18.431-26.78 2.861-20.851 10.956-42.536 24.094-64.526 13.833-23.164 28.932-39.209 33.232-43.577 7.947-8.086 10.39-20.114 6.225-30.648zm-297.86-11.952h30.94c1.68 0 3.349-.148 4.987-.439-8.547 19.672-14.469 39.527-17.683 59.239l-19.424-5.204v-23.946c0-11.979-7.518-22.598-18.419-26.783.419-3.052.963-6.124 1.606-9.21 5.014 4.057 11.307 6.343 17.993 6.343zm-104.76 79.26c-10.295 0-18.67-8.375-18.67-18.67v-30.94c0-9.888 7.725-18.074 17.585-18.638 2.52-.145 4.536-2.143 4.704-4.661 1.947-29.332 10.28-59.125 24.767-88.553 1.043-2.119.461-4.679-1.396-6.139-1.855-1.458-4.479-1.42-6.295.092-3.352 2.798-7.595 4.339-11.945 4.339h-30.95c-10.295 0-18.67-8.375-18.67-18.67v-53.63c0-10.289 8.375-18.66 18.67-18.66h132.05c7.707 0 14.522 4.633 17.36 11.799l12.2 30.872c2.715 6.856 1.123 14.688-4.05 19.948-4.486 4.548-20.25 21.267-34.693 45.458-14.754 24.706-23.485 49.177-25.949 72.732-.268 2.558 1.448 4.901 3.967 5.418 8.631 1.772 14.896 9.466 14.896 18.293v21.266l-11.941-3.199c-3.906-1.049-7.987-.51-11.49 1.512s-6.009 5.288-7.057 9.195l-5.583 20.837h-57.51zm120.983 104.063c-.734 2.738-3.555 4.364-6.3 3.637 0-.001 0-.001 0-.001l-65.642-17.587c-2.739-.734-4.37-3.561-3.636-6.3l27.346-102.061c.615-2.295 2.698-3.812 4.97-3.812.439 0 .886.058 1.33.177l65.641 17.587c2.739.734 4.371 3.561 3.637 6.3zm227.835-227.611-18.885 7.248h-56.157c4.343-7.477 5.163-16.658 1.892-24.929l-12.21-30.869c-3.253-8.23-9.924-14.28-18.032-16.811l-4.56-11.883c-1.018-2.649.309-5.633 2.955-6.649l63.44-24.352c2.65-1.018 5.632.31 6.649 2.955l37.861 98.651c1.018 2.644-.308 5.622-2.953 6.639z" fill="#0000cb"/><path d="m188.215 336.559c-.219-.059-.438-.096-.657-.141.94-1.338 1.614-2.905 1.87-4.675.775-5.373-2.646-10.647-7.878-12.095-5.846-1.618-11.879 1.84-13.446 7.688-.34 1.27-.429 2.546-.319 3.784-.212-.071-.421-.148-.64-.207-6.196-1.66-12.576 2.363-13.604 8.874-.781 4.946 2.033 9.898 6.678 11.768 2.486 1.001 5.058 1.016 7.361.292l-1.758 4.459c-.556 1.41.24 2.991 1.705 3.383l5.969 1.599c1.464.392 2.944-.578 3.168-2.077l.707-4.741c1.633 1.779 3.868 3.051 6.521 3.428 4.957.703 9.871-2.178 11.667-6.852 2.365-6.152-1.148-12.826-7.344-14.487z" fill="#4d4dff"/></g></g><g><path d="m263.569 77.516c-2.762 0-5-2.238-5-5 0-3.032-2.468-5.5-5.5-5.5-2.762 0-5-2.238-5-5s2.238-5 5-5c3.032 0 5.5-2.468 5.5-5.5 0-2.762 2.238-5 5-5s5 2.238 5 5c0 3.032 2.468 5.5 5.5 5.5 2.762 0 5 2.238 5 5s-2.238 5-5 5c-3.032 0-5.5 2.468-5.5 5.5 0 2.761-2.238 5-5 5z" fill="#ff6c6c"/></g><g><path d="m274.069 463.478c-2.762 0-5-2.238-5-5 0-3.032-2.468-5.5-5.5-5.5-2.762 0-5-2.238-5-5s2.238-5 5-5c3.032 0 5.5-2.468 5.5-5.5 0-2.762 2.238-5 5-5s5 2.238 5 5c0 3.032 2.468 5.5 5.5 5.5 2.762 0 5 2.238 5 5s-2.238 5-5 5c-3.032 0-5.5 2.468-5.5 5.5 0 2.761-2.238 5-5 5z" fill="#6c6cff"/></g><g><path d="m74.718 365.796c-1.031 0-2.062-.318-2.939-.955l-3.858-2.804-3.86 2.804c-1.752 1.273-4.125 1.273-5.877 0-1.753-1.273-2.486-3.53-1.816-5.59l1.474-4.537-3.859-2.805c-1.752-1.273-2.485-3.53-1.815-5.59.669-2.061 2.589-3.455 4.755-3.455h4.771l1.475-4.537c.669-2.061 2.589-3.455 4.755-3.455s4.086 1.395 4.755 3.455l1.475 4.537h4.771c2.166 0 4.086 1.395 4.755 3.455.67 2.06-.063 4.316-1.816 5.59l-3.859 2.805 1.474 4.537c.67 2.061-.063 4.317-1.816 5.59-.883.637-1.914.955-2.945.955z" fill="#6c6cff"/></g><g><path d="m202.259 478.626c-1.031 0-2.062-.318-2.938-.955-1.753-1.272-2.486-3.529-1.816-5.59l1.474-4.537-3.859-2.803c-1.753-1.273-2.486-3.53-1.816-5.591.669-2.061 2.589-3.455 4.755-3.455h4.771l1.475-4.537c.669-2.061 2.589-3.455 4.755-3.455s4.086 1.395 4.755 3.455l1.475 4.537h4.771c2.166 0 4.086 1.395 4.755 3.455.67 2.061-.063 4.317-1.816 5.59l-3.858 2.804 1.474 4.537c.67 2.06-.063 4.316-1.816 5.59-1.752 1.273-4.125 1.273-5.877 0l-3.86-2.804-3.858 2.804c-.884.637-1.915.955-2.946.955z" fill="#ff6c6c"/></g><g><path d="m476.884 133.931c-1.031 0-2.062-.318-2.939-.955l-3.858-2.804-3.86 2.804c-1.752 1.273-4.125 1.273-5.877 0-1.753-1.273-2.486-3.53-1.816-5.59l1.474-4.537-3.859-2.805c-1.752-1.273-2.485-3.53-1.815-5.59.669-2.061 2.589-3.455 4.755-3.455h4.771l1.475-4.537c.669-2.061 2.589-3.455 4.755-3.455s4.086 1.395 4.755 3.455l1.475 4.537h4.771c2.166 0 4.086 1.395 4.755 3.455.67 2.06-.063 4.316-1.816 5.59l-3.859 2.805 1.474 4.537c.67 2.061-.063 4.317-1.816 5.59-.883.636-1.914.955-2.945.955z" fill="#ff9c33"/></g></g></g></svg>