<svg height="512pt" viewBox="-117 0 512 512" width="512pt" xmlns="http://www.w3.org/2000/svg"><path d="m91.921875 184.96875c2.023437 3.5 2.855469 7.558594 2.378906 11.574219l-16.8125 149.964843h122.496094l-16.8125-149.964843c-.476563-4.011719.359375-8.074219 2.378906-11.574219l12.707031-22.007812c13.484376-23.359376-3.371093-52.558594-30.34375-52.558594l-28.617187-39.65625-29.738281 39.65625c-26.972656 0-43.832032 29.199218-30.34375 52.558594zm0 0" fill="#f9cd45"/><path d="m185.550781 184.96875 12.707031-22.007812c13.484376-23.359376-3.371093-52.558594-30.34375-52.558594l-28.617187-39.65625-15.390625 20.519531 13.808594 19.136719c26.972656 0 43.832031 29.199218 30.34375 52.558594l-12.707032 22.007812c-2.019531 3.5-2.855468 7.558594-2.378906 11.574219l16.8125 149.964843h30.195313l-16.8125-149.964843c-.472657-4.015625.359375-8.074219 2.382812-11.574219zm0 0" fill="#f8b53c"/><path d="m175.839844 51.886719c0-24.484375-16.582032-44.335938-37.035156-44.335938-20.453126 0-37.035157 19.851563-37.035157 44.335938 0 24.488281 16.582031 44.339843 37.035157 44.339843 20.453124 0 37.035156-19.851562 37.035156-44.339843zm0 0" fill="#f9cd45"/><path d="m138.804688 7.550781c-5.378907 0-10.484376 1.382813-15.097657 3.851563 12.925781 6.921875 21.9375 22.4375 21.9375 40.484375s-9.011719 33.566406-21.9375 40.484375c4.613281 2.46875 9.71875 3.851562 15.097657 3.851562 20.457031 0 37.035156-19.847656 37.035156-44.335937s-16.578125-44.335938-37.035156-44.335938zm0 0" fill="#f8b53c"/><path d="m216.40625 463.023438h-155.339844c-8.304687 0-15.097656-6.792969-15.097656-15.097657v-96.71875c0-8.300781 6.792969-15.097656 15.097656-15.097656h155.339844c8.304688 0 15.097656 6.796875 15.097656 15.097656v96.71875c0 8.304688-6.792968 15.097657-15.097656 15.097657zm0 0" fill="#75737b"/><path d="m216.40625 336.109375h-30.195312c8.300781 0 15.097656 6.796875 15.097656 15.097656v96.71875c0 8.304688-6.796875 15.097657-15.097656 15.097657h30.195312c8.304688 0 15.097656-6.792969 15.097656-15.097657v-96.71875c0-8.300781-6.792968-15.097656-15.097656-15.097656zm0 0" fill="#504e54"/><path d="m254.824219 504.449219h-232.175781c-8.304688 0-15.097657-6.792969-15.097657-15.097657v-86.648437c0-8.304687 6.792969-15.097656 15.097657-15.097656h232.179687c8.300781 0 15.097656 6.792969 15.097656 15.097656v86.648437c-.003906 8.304688-6.796875 15.097657-15.101562 15.097657zm0 0" fill="#504e54"/><path d="m254.824219 387.601562h-30.195313c8.304688 0 15.097656 6.796876 15.097656 15.101563v86.648437c0 8.304688-6.792968 15.097657-15.097656 15.097657h30.195313c8.304687 0 15.097656-6.792969 15.097656-15.097657v-86.648437c0-8.304687-6.792969-15.101563-15.097656-15.101563zm0 0" fill="#3e3b41"/><path d="m206.492188 474.007812h-135.511719c-8.304688 0-15.097657-6.792968-15.097657-15.097656v-21.855468c0-8.304688 6.792969-15.097657 15.097657-15.097657h135.511719c8.304687 0 15.097656 6.792969 15.097656 15.097657v21.855468c0 8.304688-6.792969 15.097656-15.097656 15.097656zm0 0" fill="#f9cd45"/><path d="m206.492188 421.957031h-30.195313c8.304687 0 15.097656 6.792969 15.097656 15.097657v21.855468c0 8.304688-6.792969 15.097656-15.097656 15.097656h30.195313c8.304687 0 15.097656-6.792968 15.097656-15.097656v-21.855468c0-8.304688-6.792969-15.097657-15.097656-15.097657zm0 0" fill="#f8b53c"/><path d="m254.824219 380.054688h-15.769531v-28.847657c0-12.488281-10.160157-22.644531-22.648438-22.644531h-10.839844l-14.898437-132.910156c-.28125-2.378906.222656-4.832032 1.417969-6.910156l12.707031-22.007813c7.699219-13.332031 7.699219-29.253906 0-42.585937-7.023438-12.171876-19.121094-19.863282-32.886719-21.113282l-6.738281-9.335937c11.039062-9.453125 18.222656-24.671875 18.222656-41.8125 0-28.609375-20-51.886719-44.585937-51.886719-24.582032 0-44.585938 23.277344-44.585938 51.886719 0 17.207031 7.238281 32.472656 18.351562 41.917969l-6.914062 9.222656c-13.800781 1.222656-25.9375 8.925781-32.980469 21.121094-7.695312 13.332031-7.695312 29.253906 0 42.585937l12.707031 22.011719c1.199219 2.074218 1.703126 4.527344 1.417969 6.957031l-1.808593 16.125c-.464844 4.144531 2.515624 7.878906 6.660156 8.34375.285156.03125.570312.046875.851562.046875 3.792969 0 7.058594-2.851562 7.492188-6.707031l1.804687-16.082031c.660157-5.589844-.523437-11.359376-3.339843-16.234376l-12.707032-22.007812c-4.96875-8.605469-4.96875-18.882812 0-27.488281 4.96875-8.609375 13.867188-13.746094 23.804688-13.746094 2.378906 0 4.613281-1.121094 6.039062-3.019531l10.089844-13.453125c4.148438 1.488281 8.554688 2.296875 13.117188 2.296875 4.632812 0 9.105468-.832032 13.3125-2.363282l9.675781 13.40625c1.417969 1.96875 3.695312 3.132813 6.121093 3.132813 9.9375 0 18.835938 5.136719 23.804688 13.746094 4.96875 8.605469 4.96875 18.882812 0 27.488281l-12.707031 22.007812c-2.816407 4.878907-4.003907 10.644532-3.34375 16.1875l14.707031 131.179688h-44.089844v-55.722656c0-4.171875-3.378906-7.550782-7.546875-7.550782-4.171875 0-7.550781 3.378907-7.550781 7.550782v55.722656h-44.128906l9.195312-86.648438c.441406-4.144531-2.5625-7.863281-6.707031-8.304687-4.140625-.441406-7.863281 2.566406-8.304687 6.710937l-9.367188 88.242188h-10.808594c-12.488281 0-22.648437 10.15625-22.648437 22.644531v28.847657h-15.769531c-12.488282 0-22.648438 10.160156-22.648438 22.648437v86.648437c0 12.488282 10.160156 22.648438 22.648438 22.648438h232.179687c12.484375 0 22.644531-10.160156 22.644531-22.648438v-86.648437c0-12.488281-10.160156-22.648437-22.648437-22.648437zm-145.507813-328.167969c0-20.285157 13.230469-36.789063 29.488282-36.789063 16.257812 0 29.488281 16.503906 29.488281 36.789063 0 20.285156-13.230469 36.789062-29.488281 36.789062-16.257813 0-29.488282-16.503906-29.488282-36.789062zm153.058594 437.464843c0 4.164063-3.386719 7.550782-7.550781 7.550782h-232.175781c-4.164063 0-7.550782-3.386719-7.550782-7.550782v-86.648437c0-4.164063 3.386719-7.550781 7.550782-7.550781h75.257812c4.167969 0 7.546875-3.378906 7.546875-7.546875 0-4.171875-3.378906-7.550781-7.546875-7.550781h-44.390625v-28.847657c0-4.160156 3.386719-7.546875 7.550781-7.546875h155.339844c4.164062 0 7.550781 3.386719 7.550781 7.546875v28.847657h-95.855469c-4.167968 0-7.546874 3.378906-7.546874 7.550781 0 4.167969 3.378906 7.546875 7.546874 7.546875h126.726563c4.160156 0 7.546875 3.386718 7.546875 7.550781zm0 0"/><path d="m206.492188 414.410156h-135.511719c-12.488281 0-22.648438 10.15625-22.648438 22.644532v21.855468c0 12.488282 10.160157 22.648438 22.648438 22.648438h135.511719c12.488281 0 22.648437-10.160156 22.648437-22.648438v-21.855468c0-12.488282-10.160156-22.644532-22.648437-22.644532zm7.550781 44.5c0 4.164063-3.386719 7.546875-7.550781 7.546875h-135.511719c-4.164063 0-7.550781-3.382812-7.550781-7.546875v-21.855468c0-4.160157 3.386718-7.546876 7.550781-7.546876h135.511719c4.164062 0 7.550781 3.386719 7.550781 7.546876zm0 0"/></svg>