<svg id="Capa_1" enable-background="new 0 0 512 512" height="512" viewBox="0 0 512 512" width="512" xmlns="http://www.w3.org/2000/svg"><g><g><circle cx="267" cy="256" fill="#fedf30" r="245"/><g><path d="m267 40c-117.904 0-213.73 94.469-215.947 211.843 11.496-5.517 24.367-8.611 37.947-8.611 48.523 0 88 39.477 88 88 0 37.805-23.964 70.116-57.499 82.547 38.608 36.107 90.467 58.221 147.499 58.221 119.293 0 216-96.706 216-216s-96.707-216-216-216z" fill="#fd4755"/><g><g fill="#fe646f"><path d="m360.561 153.11 34.409-34.409c3.954-3.954 3.736-10.474-.541-14.078-30.376-25.597-68.561-42.217-110.474-45.774-5.581-.474-10.36 3.974-10.36 9.575v48.667c33.433 1.562 63.78 14.922 86.966 36.019z"/><path d="m164.117 162.445-34.416-34.416c-3.954-3.954-10.474-3.736-14.078.541-25.598 30.376-42.217 68.561-45.774 110.474-.186 2.195.397 4.261 1.505 5.966 5.703-1.165 11.605-1.778 17.647-1.778 11.427 0 22.352 2.191 32.379 6.172h6.713c1.56-33.431 14.927-63.772 36.024-86.959z"/><path d="m454.576 262.596h-48.667c-1.561 33.432-14.922 63.779-36.019 86.965l34.409 34.409c3.954 3.954 10.474 3.736 14.078-.541 25.598-30.376 42.217-68.561 45.774-110.474.474-5.58-3.974-10.359-9.575-10.359z"/></g><path d="m360.561 358.89c-23.187 21.097-53.534 34.457-86.965 36.019v48.667c0 5.601 4.779 10.049 10.36 9.575 41.912-3.557 80.097-20.177 110.473-45.774 4.277-3.604 4.495-10.124.541-14.078z" fill="#fd8087"/><path d="m173.445 153.116c23.187-21.097 53.527-34.465 86.959-36.026v-48.666c0-5.601-4.779-10.049-10.36-9.575-41.913 3.557-80.097 20.177-110.474 45.774-4.276 3.604-4.495 10.124-.541 14.078z" fill="#fd8087"/><path d="m464.151 239.044c-3.557-41.912-20.177-80.097-45.774-110.473-3.604-4.276-10.124-4.495-14.078-.541l-34.409 34.409c21.097 23.187 34.457 53.534 36.019 86.965h48.667c5.601 0 10.049-4.779 9.575-10.36z" fill="#fd8087"/><path d="m173.449 358.879-1.372 1.372c-6.422 18.332-18.749 33.91-34.69 44.445.543.991 1.264 1.906 2.183 2.681 30.376 25.598 68.561 42.217 110.474 45.774 5.581.474 10.36-3.974 10.36-9.575v-48.663c-33.431-1.562-63.768-14.937-86.955-36.034z" fill="#fe646f"/></g><g><g fill="#fb2b3a"><circle cx="201.342" cy="97.488" r="16.204"/><circle cx="332.658" cy="414.512" r="16.204"/></g><g><circle cx="425.512" cy="190.342" fill="#fb2b3a" r="16.204"/></g><g fill="#fb2b3a"><g><circle cx="108.488" cy="190.342" r="16.204"/><circle cx="425.512" cy="321.658" r="16.204"/></g><g><circle cx="201.342" cy="414.512" r="16.204"/><circle cx="332.658" cy="97.488" r="16.204"/></g></g></g><path d="m267 116.932c-75.585 0-137.086 60.301-139.021 135.42 29.022 14.4 49.021 44.346 49.021 78.88 0 9.422-1.495 18.501-4.249 27.019 24.78 22.853 57.882 36.818 94.249 36.818 76.805 0 139.068-62.263 139.068-139.068s-62.263-139.069-139.068-139.069z" fill="#fff"/><path d="m267 116.932c-7.127 0-14.128.539-20.966 1.573 66.858 10.11 118.103 67.817 118.103 137.496s-51.245 127.386-118.103 137.496c6.838 1.034 13.839 1.573 20.966 1.573 76.805 0 139.068-62.263 139.068-139.068s-62.263-139.07-139.068-139.07z" fill="#f9f7f8"/><path d="m267 109.731c-78.378 0-142.548 61.969-146.106 139.484 4.983 1.944 9.745 4.332 14.241 7.111 0-.109-.004-.217-.004-.326 0-72.713 59.156-131.869 131.868-131.869s131.87 59.156 131.87 131.869-59.156 131.869-131.869 131.869c-35.796 0-68.3-14.344-92.085-37.577-1.162 5.24-2.786 10.308-4.838 15.153 25.826 22.897 59.776 36.824 96.923 36.824 80.653 0 146.269-65.616 146.269-146.269s-65.616-146.269-146.269-146.269z" fill="#fb2b3a"/><g><g><g><path d="m276.911 301.12h-14.838c-1.591 0-2.88-1.289-2.88-2.88v-104.098c0-1.591 1.289-2.88 2.88-2.88h14.838c1.591 0 2.88 1.289 2.88 2.88v104.098c0 1.591-1.29 2.88-2.88 2.88z" fill="#fd4755"/></g></g><g><g><g><path d="m312.234 301.12h-14.838c-1.591 0-2.88-1.289-2.88-2.88v-96.679c0-5.688 4.611-10.299 10.299-10.299h36.743c12.882 0 23.362 10.714 23.362 23.883v17.463c0 13.169-10.48 23.883-23.362 23.883h-26.443v41.75c-.001 1.59-1.29 2.879-2.881 2.879zm2.88-65.228h26.443c1.524 0 2.764-1.473 2.764-3.284v-17.463c0-1.811-1.24-3.284-2.764-3.284h-26.443z" fill="#fd4755"/></g></g><path d="m226.034 193.342-17.455 60.389-17.456-60.389c-.356-1.232-1.484-2.08-2.767-2.08h-15.446c-1.917 0-3.299 1.838-2.767 3.68l28.541 98.739c1.274 4.406 5.308 7.439 9.894 7.439s8.62-3.033 9.894-7.439l28.54-98.739c.532-1.842-.85-3.68-2.767-3.68h-15.445c-1.282 0-2.41.848-2.766 2.08z" fill="#fd4755"/></g></g><path d="m290.139 141.76-18.908-35.301c-1.809-3.378-6.653-3.378-8.463 0l-18.908 35.301-25.799-13.291c-3.701-1.906-7.908 1.479-6.837 5.502l11.094 41.664c.56 2.102 2.463 3.565 4.638 3.565h80.086c2.175 0 4.079-1.463 4.638-3.565l11.094-41.664c1.071-4.023-3.136-7.409-6.837-5.502z" fill="#fed402"/><g><path d="m315.938 128.469-14.653 7.549-10.549 39.617c-.56 2.102-2.463 3.565-4.638 3.565h20.945c2.175 0 4.079-1.463 4.638-3.565l11.094-41.664c1.071-4.022-3.136-7.408-6.837-5.502z" fill="#fac600"/></g><g><g><path d="m212.483 311.007 4.599 9.319c.582 1.179 1.707 1.997 3.009 2.186l10.284 1.494c3.277.476 4.586 4.504 2.215 6.816l-7.441 7.253c-.942.918-1.372 2.241-1.149 3.537l1.757 10.242c.56 3.264-2.866 5.753-5.798 4.212l-9.198-4.836c-1.164-.612-2.555-.612-3.719 0l-9.198 4.836c-2.931 1.541-6.358-.948-5.798-4.212l1.757-10.242c.222-1.296-.207-2.619-1.149-3.537l-7.441-7.253c-2.372-2.312-1.063-6.339 2.215-6.816l10.284-1.494c1.301-.189 2.427-1.007 3.009-2.186l4.599-9.319c1.463-2.97 5.697-2.97 7.163 0z" fill="#fedf30"/><g><path d="m232.589 330.821c2.372-2.312 1.063-6.339-2.215-6.816l-10.284-1.494c-1.301-.189-2.427-1.007-3.009-2.186l-4.599-9.319c-1.466-2.97-5.701-2.97-7.166 0l-1.052 2.131 4.428 8.971c.582 1.179 1.707 1.997 3.009 2.186l10.284 1.494c3.278.476 4.586 4.504 2.215 6.816l-7.441 7.253c-.942.918-1.372 2.241-1.149 3.537l1.757 10.242c.064.374.074.738.04 1.087l2.552 1.342c2.932 1.541 6.358-.948 5.798-4.212l-1.757-10.242c-.222-1.296.207-2.619 1.149-3.537z" fill="#fed402"/></g></g><g><path d="m270.583 320.473 4.599 9.319c.582 1.179 1.707 1.997 3.009 2.186l10.284 1.494c3.277.476 4.586 4.504 2.215 6.816l-7.441 7.253c-.942.918-1.372 2.241-1.149 3.537l1.757 10.242c.56 3.264-2.866 5.753-5.798 4.212l-9.198-4.836c-1.164-.612-2.555-.612-3.719 0l-9.198 4.836c-2.931 1.541-6.358-.948-5.798-4.212l1.757-10.242c.222-1.296-.207-2.619-1.149-3.537l-7.441-7.253c-2.372-2.312-1.063-6.339 2.215-6.816l10.284-1.494c1.301-.189 2.427-1.007 3.009-2.186l4.599-9.319c1.463-2.97 5.697-2.97 7.163 0z" fill="#fedf30"/><g><path d="m290.689 340.287c2.372-2.312 1.063-6.339-2.215-6.816l-10.284-1.494c-1.301-.189-2.427-1.007-3.009-2.186l-4.599-9.319c-1.466-2.97-5.701-2.97-7.166 0l-1.052 2.131 4.428 8.971c.582 1.179 1.707 1.997 3.009 2.186l10.284 1.494c3.278.476 4.586 4.504 2.215 6.816l-7.441 7.253c-.942.918-1.372 2.241-1.149 3.537l1.757 10.242c.064.374.074.738.04 1.087l2.552 1.342c2.932 1.541 6.358-.948 5.798-4.212l-1.757-10.242c-.222-1.296.207-2.619 1.149-3.537z" fill="#fed402"/></g></g><g><path d="m328.683 311.007 4.599 9.319c.582 1.179 1.707 1.997 3.009 2.186l10.284 1.494c3.277.476 4.586 4.504 2.215 6.816l-7.441 7.253c-.942.918-1.372 2.241-1.149 3.537l1.757 10.242c.56 3.264-2.866 5.753-5.798 4.212l-9.198-4.836c-1.164-.612-2.555-.612-3.719 0l-9.198 4.836c-2.931 1.541-6.358-.948-5.798-4.212l1.757-10.242c.222-1.296-.207-2.619-1.149-3.537l-7.441-7.253c-2.372-2.312-1.063-6.339 2.215-6.816l10.284-1.494c1.301-.189 2.427-1.007 3.009-2.186l4.599-9.319c1.463-2.97 5.697-2.97 7.163 0z" fill="#fedf30"/><g><path d="m348.789 330.821c2.372-2.312 1.063-6.339-2.215-6.816l-10.284-1.494c-1.301-.189-2.427-1.007-3.009-2.186l-4.599-9.319c-1.466-2.97-5.701-2.97-7.166 0l-1.052 2.131 4.428 8.971c.582 1.179 1.707 1.997 3.009 2.186l10.284 1.494c3.278.476 4.586 4.504 2.215 6.816l-7.441 7.253c-.942.918-1.372 2.241-1.149 3.537l1.757 10.242c.064.374.074.738.04 1.087l2.552 1.342c2.932 1.541 6.358-.948 5.798-4.212l-1.757-10.242c-.222-1.296.207-2.619 1.149-3.537z" fill="#fed402"/></g></g></g></g></g><g><g><g><circle cx="89" cy="331.232" fill="#01c0fa" r="89"/><g fill="#01d0fb"><path d="m124.224 283.318 8.684-8.684c2.783-2.783 2.241-7.389-1.058-9.536-8.07-5.251-16.982-8.944-26.388-10.935-3.85-.815-7.49 2.059-7.49 5.995v12.252c9.719 1.476 18.668 5.317 26.252 10.908z"/><path d="m41.086 296.007-8.684-8.684c-2.783-2.783-7.389-2.241-9.536 1.058-5.251 8.07-8.944 16.982-10.935 26.388-.815 3.85 2.06 7.49 5.995 7.49h12.252c1.476-9.718 5.317-18.667 10.908-26.252z"/><path d="m160.074 340.204h-12.252c-1.476 9.718-5.317 18.667-10.908 26.252l8.684 8.684c2.783 2.783 7.389 2.241 9.536-1.058 5.251-8.071 8.944-16.983 10.936-26.387.815-3.851-2.06-7.491-5.996-7.491z"/><path d="m30.178 340.204h-12.252c-3.935 0-6.81 3.64-5.995 7.49 1.991 9.405 5.685 18.318 10.935 26.388 2.146 3.299 6.753 3.841 9.536 1.058l8.684-8.684c-5.591-7.585-9.432-16.534-10.908-26.252z"/><path d="m124.224 379.146c-7.585 5.591-16.534 9.432-26.252 10.908v12.252c0 3.936 3.64 6.811 7.49 5.995 9.405-1.992 18.318-5.685 26.388-10.936 3.299-2.146 3.841-6.753 1.058-9.536z"/><path d="m53.776 283.318c7.585-5.591 16.534-9.432 26.252-10.908v-12.252c0-3.935-3.64-6.81-7.49-5.995-9.405 1.991-18.318 5.685-26.388 10.935-3.299 2.146-3.841 6.753-1.058 9.536z"/><path d="m166.069 314.769c-1.992-9.405-5.685-18.317-10.936-26.388-2.146-3.299-6.753-3.84-9.536-1.058l-8.684 8.684c5.591 7.585 9.432 16.534 10.908 26.252h12.252c3.937 0 6.812-3.64 5.996-7.49z"/><path d="m53.776 379.146-8.684 8.684c-2.783 2.783-2.241 7.389 1.058 9.535 8.071 5.251 16.983 8.945 26.388 10.936 3.85.815 7.49-2.059 7.49-5.995v-12.252c-9.719-1.476-18.668-5.317-26.252-10.908z"/></g><circle cx="89" cy="331.232" fill="#fff" r="52.18"/><path d="m89 279.052c-3.564 0-7.045.361-10.41 1.045 23.801 4.838 41.77 25.926 41.77 51.134 0 25.209-17.969 46.297-41.77 51.135 3.365.684 6.846 1.045 10.41 1.045 28.772 0 52.18-23.408 52.18-52.18 0-28.771-23.408-52.179-52.18-52.179z" fill="#f9f7f8"/><g><path d="m89 391.5c-33.232 0-60.268-27.036-60.268-60.268s27.036-60.268 60.268-60.268 60.268 27.036 60.268 60.268-27.036 60.268-60.268 60.268zm0-111.68c-28.348 0-51.411 23.063-51.411 51.411s23.063 51.411 51.411 51.411 51.411-23.063 51.411-51.411c0-28.347-23.063-51.411-51.411-51.411z" fill="#08a9f1"/></g></g></g><path d="m85.996 367.757-29.453-33.916c-1.3-1.497-1.3-3.721 0-5.218l29.453-33.916c1.586-1.827 4.422-1.827 6.008 0l29.453 33.916c1.3 1.497 1.3 3.721 0 5.218l-29.453 33.916c-1.586 1.826-4.422 1.826-6.008 0z" fill="#fe646f"/><path d="m121.458 328.623-29.453-33.916c-1.586-1.827-4.422-1.827-6.009 0l-7.28 8.383 22.174 25.533c1.3 1.497 1.3 3.721 0 5.218l-22.174 25.533 7.28 8.383c1.586 1.827 4.422 1.827 6.009 0l29.453-33.916c1.299-1.497 1.299-3.722 0-5.218z" fill="#fd4755"/></g></g></svg>