<svg id="Layer_1" enable-background="new 0 0 68 68" height="512" viewBox="0 0 68 68" width="512" xmlns="http://www.w3.org/2000/svg"><g id="_x34_1"><g><path d="m62.1746025 10.084342v7.091567h-56.3392806v-12.4074707c0-1.3835363 1.1250997-2.5085099 2.5083203-2.5085099h10.1571474c1.3935528 0 2.518652 1.1249735 2.518652 2.5085099v1.7338305c0 .5886955.4748497 1.0735636 1.0632324 1.0735636h37.5732727c1.3935566 0 2.5186558 1.1254778 2.5186558 2.5085096z" fill="#ffd550"/></g><g><path d="m5.835 15.122h56.339v2.054h-56.339z" fill="#ffaf57"/></g><g><path d="m65.9732819 20.2312813-3.9741402 27.4469376c-.2993279 2.0644684-2.0748024 3.6027374-4.149601 3.6027374h-5.3366318c.3715897-1.4863548.5677147-3.0347061.5677147-4.6243858 0-10.5390663-8.5468636-19.0761662-19.0756607-19.0761662s-19.0756645 8.5370998-19.0756645 19.0761662c0 1.5896797.1961269 3.138031.5677166 4.6243858h-5.3262997c-2.0851326 0-3.850275-1.538269-4.1496-3.6027374l-3.9947393-27.4469376c-.2271241-1.6209297 1.0425665-3.0452919 2.652849-3.0452919h58.651535c1.6205568 0 2.8695803 1.4243622 2.6425219 3.0452919z" fill="#ffd550"/></g><g opacity=".15"><path d="m55.145092 46.6565704c0 1.5896797-.1754608 3.138031-.5161171 4.6243858h-2.116066c.3715897-1.4863548.5677147-3.0347061.5677147-4.6243858 0-10.5390663-8.5468636-19.0761662-19.0756607-19.0761662s-19.0756645 8.5370998-19.0756645 19.0761662c0 1.5896797.1961269 3.138031.5677166 4.6243858h-2.116066c-.3406553-1.4863548-.5161171-3.0347061-.5161171-4.6243858 0-11.6539612 9.4862328-21.1300507 21.140131-21.1300507s21.1401291 9.4760896 21.1401291 21.1300507z" fill="#efefef"/></g><g><path d="m53.079361 46.6566772c0 10.5473328-8.5364037 19.0833969-19.069664 19.0833969s-19.0835648-8.5360641-19.0835648-19.0833969c0-10.5335999 8.5503101-19.0696621 19.0835648-19.0696621s19.069664 8.5360623 19.069664 19.0696621z" fill="#f95353"/></g><g><path d="m37.937645 50.3777542c-1.0935364 0-2.0770073.4294243-2.8108597 1.1204376l-5.0407085-3.2514381c.1768475-.4551277.2835751-.9450378.2835751-1.4611549 0-.4752922-.0958271-.9238701-.2424965-1.3477516l5.0960884-3.5246124c.7235832.6370811 1.6660995 1.0372734 2.7144012 1.0372734 2.2393608 0 4.0681381-1.8290901 4.0681381-4.0689583 0-2.2761574-1.8287773-4.105751-4.0681381-4.105751-2.2766609 0-4.1054344 1.8295937-4.1054344 4.105751 0 .4636993.0948792.9027023.2394066 1.3185196l-5.0885258 3.5190697c-.7183552-.6401062-1.6511707-1.0392914-2.6815147-1.0392914-2.2766609 0-4.1054993 1.8295937-4.1054993 4.105751 0 2.2398682 1.8288383 4.0684547 4.1054993 4.0684547.9752159 0 1.8605919-.360878 2.5629444-.9374771l5.1740837 3.3371162c-.1222229.3901138-.2063942.7978668-.2063942 1.2298126 0 2.2388573 1.8287735 4.0679474 4.1054344 4.0679474 2.2393608 0 4.0681381-1.8290901 4.0681381-4.0679474 0-2.2771644-1.8287773-4.105751-4.0681381-4.105751z" fill="#fff"/></g></g></svg>