<?xml version="1.0" encoding="iso-8859-1"?>
<!-- Generator: Adobe Illustrator 21.0.0, SVG Export Plug-In . SVG Version: 6.00 Build 0)  -->
<svg xmlns="http://www.w3.org/2000/svg" xmlns:xlink="http://www.w3.org/1999/xlink" version="1.1" id="Capa_1" x="0px" y="0px" viewBox="0 0 512 512" style="enable-background:new 0 0 512 512;" xml:space="preserve" width="512" height="512">
<g>
	<path style="fill:#FF5B5B;" d="M436.706,256c0,99.388-83.728,180.706-180.706,180.706c-97.279,0-180.706-81.619-180.706-180.706   c0-99.088,83.426-180.706,180.706-180.706C355.086,75.294,436.706,158.719,436.706,256z"/>
	<path style="fill:#FF193D;" d="M436.706,256c0,99.388-83.728,180.706-180.706,180.706V75.294   C355.086,75.294,436.706,158.719,436.706,256z"/>
	<path style="fill:#FFDA2D;" d="M345.099,235.699c-1.8-5.4-6.599-9.6-12.299-10.199l-43.801-6.601l-19.499-39.6   c-2.701-5.099-8.101-7.5-13.5-7.5s-10.8,2.401-13.5,7.5l-19.499,39.6L179.2,225.5c-5.7,0.599-10.499,4.799-12.299,10.199   c-1.802,5.4-0.3,11.4,3.898,15.3l31.8,30.899l-7.5,43.5c-0.899,5.7,1.201,11.4,6,14.7c4.501,3.602,10.801,3.9,15.601,1.201   l39.3-20.7l39.3,20.7c5.142,2.936,11.832,2.096,15.601-1.201c4.799-3.3,6.899-9,6-14.7l-7.5-43.5l31.8-30.899   C345.399,247.099,346.901,241.099,345.099,235.699z"/>
	<path style="fill:#FDBF00;" d="M341.201,251l-31.8,30.899l7.5,43.5c0.899,5.7-1.201,11.4-6,14.7   c-3.751,3.282-10.441,4.148-15.601,1.201L256,320.6V171.799c5.4,0,10.8,2.401,13.5,7.5l19.499,39.6L332.8,225.5   c5.7,0.599,10.499,4.799,12.299,10.199C346.901,241.099,345.399,247.099,341.201,251z"/>
	<path style="fill:#FDBF00;" d="M476.763,384.903c-1.807,2.711-4.518,5.121-8.132,6.024l-61.138,16.564l-16.566,61.14   c-1.204,3.915-3.614,7.228-6.926,9.035l-44.574-52.404l-8.434-39.454c22.588-12.95,41.261-31.623,54.513-54.211l43.671,10.842   L476.763,384.903z"/>
	<path style="fill:#FDBF00;" d="M126.193,330.993l-25.901,31.02L34.335,384c-1.807-3.313-2.41-7.529-1.506-11.445l16.263-61.14   L4.518,266.54C1.506,263.831,0,259.915,0,256l60.235-15.059L105.412,256C105.412,283.406,113.243,308.706,126.193,330.993z"/>
	<path style="fill:#FFDA2D;" d="M126.193,181.007c-12.95,22.287-20.781,47.585-20.781,74.993H0c0-3.915,1.506-7.831,4.518-10.542   l44.574-44.875l-16.263-61.138c-0.904-3.915-0.301-8.132,1.506-11.445l60.537,16.866L126.193,181.007z"/>
	<path style="fill:#FFDA2D;" d="M181.007,385.807l-3.915,41.563L128,477.665c-3.313-1.807-6.024-5.119-6.926-9.035l-16.566-61.14   l-61.138-16.564c-3.915-1.204-7.228-3.614-9.035-6.926l91.858-53.007C139.445,353.882,158.118,372.555,181.007,385.807z"/>
	<path style="fill:#FDBF00;" d="M271.662,449.053L256,512c-3.915,0-7.831-1.506-10.54-4.518l-44.877-44.574l-61.138,16.263   c-4.217,1.206-8.132,0.301-11.445-1.506l53.007-91.858c22.287,12.95,47.586,20.781,74.993,20.781L271.662,449.053z"/>
	<path style="fill:#FF9100;" d="M384,477.665c-3.313,1.807-7.529,2.41-11.445,1.506l-61.138-16.263l-44.877,44.574   c-2.71,3.013-6.625,4.518-10.54,4.518V406.588c27.406,0,52.706-7.831,74.993-20.781L384,477.665z"/>
	<path style="fill:#FF9100;" d="M507.482,266.54l-44.574,44.875l16.263,61.14c1.206,4.517,0,8.733-2.408,12.347l-91.257-53.307   c12.95-22.289,21.083-47.888,21.083-75.596l48.79-12.048L512,256C512,259.915,510.494,263.831,507.482,266.54z"/>
	<path style="fill:#FDBF00;" d="M512,256H406.588c0-27.408-7.831-52.706-20.781-74.993l33.43-34.938L477.665,128   c1.807,3.313,2.41,7.529,1.506,11.445l-16.263,61.138l44.574,44.875C510.494,248.169,512,252.085,512,256z"/>
	<path style="fill:#FF9100;" d="M477.665,128l-91.858,53.007c-13.252-22.89-31.925-41.563-54.814-54.814l15.059-50.298L384,34.335   c3.313,1.807,5.722,5.119,6.926,9.035l16.566,61.138l61.138,16.564C472.546,122.278,475.858,124.688,477.665,128z"/>
	<path style="fill:#FDBF00;" d="M181.007,126.193c-22.89,13.252-41.563,31.925-54.814,54.814L34.335,128   c1.807-3.313,5.119-5.722,9.035-6.928l61.138-16.564l16.566-61.138c1.204-3.915,3.614-7.228,6.926-9.035l45.779,43.368   L181.007,126.193z"/>
	<path style="fill:#FFDA2D;" d="M271.662,62.945L256,105.412c-27.406,0-52.706,7.831-74.993,20.781L128,34.335   c3.313-1.809,7.529-2.41,11.445-1.507l61.138,16.265L245.46,4.517C248.471,1.506,252.085,0,256,0L271.662,62.945z"/>
	<path style="fill:#FDBF00;" d="M384,34.335l-53.007,91.858c-22.287-12.95-47.586-20.781-74.993-20.781V0   c3.915,0,7.831,1.506,10.54,4.517l44.877,44.575l61.138-16.265C376.471,31.925,380.688,32.526,384,34.335z"/>
</g>















</svg>
