<svg id="Layer_1" enable-background="new 0 0 512 512" height="512" viewBox="0 0 512 512" width="512" xmlns="http://www.w3.org/2000/svg"><g><path d="m223.87 204.821c-3.904 0-7.74-1.523-10.61-4.394l-64.267-64.267c-2.813-2.812-4.394-6.628-4.394-10.606v-110.554c0-8.284 6.716-15 15-15h64.267c8.284 0 15 6.716 15 15v174.821c0 6.067-3.655 11.536-9.26 13.858-1.855.769-3.804 1.142-5.736 1.142z" fill="#ff3c0a"/><path d="m288.13 204.821c-1.932 0-3.881-.373-5.737-1.142-5.605-2.322-9.26-7.791-9.26-13.858v-174.821c0-8.284 6.716-15 15-15h64.267c8.284 0 15 6.716 15 15v110.555c0 3.979-1.581 7.794-4.394 10.606l-64.267 64.267c-2.868 2.87-6.705 4.393-10.609 4.393z" fill="#bc3203"/><path d="m256 236.955c-3.979 0-7.793-1.58-10.606-4.394l-32.134-32.134c-2.813-2.812-4.393-6.628-4.393-10.606v-174.821c0-8.284 6.716-15 15-15h64.267c8.284 0 15 6.716 15 15v174.821c0 3.979-1.58 7.794-4.393 10.606l-32.134 32.134c-2.814 2.814-6.628 4.394-10.607 4.394z" fill="#ff7850"/><path d="m298.74 200.428c2.813-2.812 4.393-6.628 4.393-10.606v-174.822c0-8.284-6.716-15-15-15h-32.133v236.955c3.979 0 7.793-1.58 10.606-4.394z" fill="#ff3c0a"/><path d="m414.866 322.371c-1.479-4.551-5.041-8.124-9.588-9.616l-84.603-27.77-52.567-71.885c-2.825-3.862-7.322-6.146-12.108-6.146s-9.283 2.283-12.108 6.146l-52.567 71.885-84.603 27.77c-4.547 1.492-8.109 5.065-9.588 9.616-1.479 4.552-.697 9.535 2.104 13.416l52.125 72.204.267 89.054c.014 4.786 2.312 9.277 6.183 12.09 3.872 2.814 8.853 3.61 13.41 2.145l84.777-27.267 84.778 27.266c4.557 1.466 9.538.67 13.41-2.145 3.872-2.812 6.169-7.304 6.183-12.09l.267-89.054 52.125-72.204c2.8-3.88 3.582-8.863 2.103-13.415z" fill="#ffb203"/><path d="m340.778 511.279c4.557 1.466 9.538.67 13.41-2.145 3.872-2.812 6.169-7.304 6.183-12.09l.267-89.054 52.125-72.204c2.801-3.881 3.583-8.864 2.104-13.416-1.479-4.551-5.041-8.124-9.588-9.616l-84.603-27.77-52.568-71.884c-2.825-3.862-7.322-6.146-12.108-6.146v277.059z" fill="#ff8e1d"/><path d="m256 373.993 158.866-51.622c-1.479-4.551-5.041-8.124-9.588-9.616l-84.603-27.77-52.567-71.885c-2.825-3.862-7.322-6.146-12.108-6.146s-9.283 2.283-12.108 6.146l-52.567 71.885-84.603 27.77c-4.547 1.492-8.109 5.065-9.588 9.616z" fill="#ffe442"/><path d="m256 373.993-98.188 135.141c3.872 2.814 8.853 3.61 13.41 2.145l84.778-27.266 84.778 27.266c4.557 1.466 9.538.67 13.41-2.145z" fill="#ff8e1d"/><path d="m340.778 511.279c4.557 1.466 9.538.67 13.41-2.145l-98.188-135.141v110.02z" fill="#ff6514"/><path d="m414.866 322.371c-1.479-4.551-5.041-8.124-9.588-9.616l-84.603-27.77-52.567-71.885c-2.825-3.862-7.322-6.146-12.108-6.146v167.038z" fill="#ffb203"/></g></svg>