<svg id="Capa_1" enable-background="new 0 0 512 512" height="512" viewBox="0 0 512 512" width="512" xmlns="http://www.w3.org/2000/svg"><g><g><g><path d="m482 211h-45c-8.284 0-15-7.716-15-16v-45h-332v45c0 8.284-6.716 16-15 16h-45c-16.569 0-30-14.431-30-31v-135c0-24.853 20.147-45 45-45h91c36.211 0 66.533 25.811 73.506 60h257.494c24.853 0 45 20.147 45 45v75c0 16.569-13.431 31-30 31z" fill="#fb3"/></g></g><path d="m437 211h45c16.569 0 30-14.433 30-31v-75c0-24.853-20.147-45-45-45h-211v90h166v45c0 8.284 6.716 16 15 16z" fill="#f93"/><g><path d="m437 211h-362c-8.291 0-15-7.709-15-16v-60c0-8.291 6.709-15 15-15h362c8.291 0 15 6.709 15 15v60c0 8.291-6.709 16-15 16z" fill="#fff5f5"/></g><g id="Folder_64_"><g><path d="m467 512h-422c-24.853 0-45-20.147-45-45v-287h260l252 287c0 24.853-20.147 45-45 45z" fill="#ffe666"/></g></g><path d="m256 211h181c8.291 0 15-7.709 15-16v-60c0-8.291-6.709-15-15-15h-181z" fill="#efe2dd"/><path d="m512 180h-256v332h211c24.853 0 45-20.147 45-45z" fill="#fb3"/><g id="Folder_6_"><g><path d="m194.945 341.419c-3.076-7.69.645-16.421 8.35-19.497l94.277-37.705c7.646-3.12 16.406.659 19.482 8.364 3.076 7.69-.645 16.421-8.35 19.497l-94.277 37.705c-7.569 3.052-16.379-.589-19.482-8.364z" fill="#575f64"/></g><g><path d="m297.572 409.783-94.277-37.705c-7.705-3.076-11.426-11.807-8.35-19.497 3.076-7.705 11.836-11.47 19.482-8.364l94.277 37.705c7.705 3.076 11.426 11.807 8.35 19.497-3.099 7.768-11.907 11.418-19.482 8.364z" fill="#575f64"/></g></g><g><path d="m181 392c-24.814 0-45-20.186-45-45s20.186-45 45-45 45 20.186 45 45-20.186 45-45 45z" fill="#575f64"/></g><path d="m256 333.157 52.705-21.079c7.705-3.076 11.426-11.807 8.35-19.497-3.076-7.705-11.836-11.484-19.482-8.364l-41.573 16.626z" fill="#474f54"/><path d="m256 393.157 41.572 16.626c7.575 3.054 16.382-.597 19.482-8.364 3.076-7.69-.645-16.421-8.35-19.497l-52.704-21.079z" fill="#474f54"/><g><g><path d="m331 332c-24.814 0-45-20.186-45-45s20.186-45 45-45 45 20.186 45 45-20.186 45-45 45z" fill="#474f54"/></g></g><g><path d="m331 452c-24.814 0-45-20.186-45-45s20.186-45 45-45 45 20.186 45 45-20.186 45-45 45z" fill="#474f54"/></g></g></svg>