<svg id="Filled_Expand" height="512" viewBox="0 0 64 64" width="512" xmlns="http://www.w3.org/2000/svg" data-name="Filled Expand"><path d="m4 6v22a4 4 0 0 0 4 4h39l8 6v-6h1a4 4 0 0 0 4-4v-22a4 4 0 0 0 -4-4h-48a4 4 0 0 0 -4 4z" fill="#e9eff6"/><path d="m26.143 6.714a6.811 6.811 0 0 0 -5.143 2.365 6.831 6.831 0 0 0 -12 4.492c0 7.169 12 13.715 12 13.715s12-6.546 12-13.715a6.857 6.857 0 0 0 -6.857-6.857z" fill="#f0466e"/><path d="m55 14-7-6v3.5a11 11 0 0 0 -11 11v3.5l.146-.693a11.091 11.091 0 0 1 10.854-8.807v3.5z" fill="#506480"/><path d="m12 42v9a10 10 0 0 0 4 8v3h22v-3a10 10 0 0 0 4-8v-13h-24v4z" fill="#fac194"/><path d="m12 47v-7a4 4 0 0 1 4-4 2 2 0 0 1 2 2v9" fill="#fac194"/><path d="m16 38a2 2 0 0 0 -1.159-1.809 3.935 3.935 0 0 1 1.159-.191 2 2 0 0 1 2 2v8a1 1 0 0 1 -1 1 1 1 0 0 1 -1-1z" fill="#f5af85"/><g fill="#fac194"><path d="m24 40v-9a3 3 0 0 1 3-3 3 3 0 0 1 3 3v9"/><path d="m30 40v-8a3 3 0 0 1 3-3 3 3 0 0 1 3 3v8"/><path d="m36 40v-6a3 3 0 0 1 3-3 3 3 0 0 1 3 3v6"/></g><path d="m39 31a2.962 2.962 0 0 0 -1 .184 2.99 2.99 0 0 1 2 2.816v5a1 1 0 0 0 2 0v-5a3 3 0 0 0 -3-3z" fill="#f5af85"/><path d="m33 29a2.962 2.962 0 0 0 -1 .184 2.99 2.99 0 0 1 2 2.816v7a1 1 0 0 0 2 0v-7a3 3 0 0 0 -3-3z" fill="#f5af85"/><path d="m27 28a2.962 2.962 0 0 0 -1 .184 2.99 2.99 0 0 1 2 2.816v8a1 1 0 0 0 2 0v-8a3 3 0 0 0 -3-3z" fill="#f5af85"/><path d="m18 40v-19a3 3 0 0 1 3-3 3 3 0 0 1 3 3v19" fill="#fac194"/><path d="m21 18a2.962 2.962 0 0 0 -1 .184 2.99 2.99 0 0 1 2 2.816v18a1 1 0 0 0 2 0v-18a3 3 0 0 0 -3-3z" fill="#f5af85"/><path d="m48.772 7.345a1.073 1.073 0 0 0 -1.772.815v2.381a12.017 12.017 0 0 0 -11 11.959v2.792a1.073 1.073 0 0 0 2.124.221 10.145 10.145 0 0 1 8.876-7.963v2.29a1.073 1.073 0 0 0 1.772.815l6.813-5.84a1.073 1.073 0 0 0 0-1.63zm.228 10.481v-1.326a1 1 0 0 0 -1-1 12.146 12.146 0 0 0 -9.806 5.033 10.017 10.017 0 0 1 9.806-8.033 1 1 0 0 0 1-1v-1.326l4.464 3.826z"/><path d="m56 1h-48a5 5 0 0 0 -5 5v22a5 5 0 0 0 5 5h9v2.184a2.966 2.966 0 0 0 -1-.184 5.006 5.006 0 0 0 -5 5v11a11.058 11.058 0 0 0 4 8.485v2.515a1 1 0 0 0 1 1h22a1 1 0 0 0 1-1v-2.515a11.058 11.058 0 0 0 4-8.485v-17a3.939 3.939 0 0 0 -.142-1h3.809l7.733 5.8a1 1 0 0 0 1.6-.8v-5a5.006 5.006 0 0 0 5-5v-22a5 5 0 0 0 -5-5zm-15 50a9.043 9.043 0 0 1 -3.6 7.2 1 1 0 0 0 -.4.8v2h-20v-2a1 1 0 0 0 -.4-.8 9.043 9.043 0 0 1 -3.6-7.2v-11a3 3 0 0 1 3-3 1 1 0 0 1 1 1v9a1 1 0 0 0 2 0v-26a2 2 0 0 1 4 0v19a1 1 0 0 0 2 0v-9a2 2 0 0 1 4 0v9a1 1 0 0 0 2 0v-8a2 2 0 0 1 4 0v8a1 1 0 0 0 2 0v-6a2 2 0 0 1 4 0zm-20-34a4 4 0 0 0 -4 4v2.435c-3.128-2.386-7-6.1-7-9.864a5.831 5.831 0 0 1 10.247-3.834 1.034 1.034 0 0 0 1.506 0 5.831 5.831 0 0 1 10.247 3.834c0 3.766-3.872 7.478-7 9.864v-2.435a4 4 0 0 0 -4-4zm38 11a3 3 0 0 1 -3 3h-1a1 1 0 0 0 -1 1v4l-6.4-4.8a1 1 0 0 0 -.6-.2h-5.382a3.956 3.956 0 0 0 -4.857-.313 3.956 3.956 0 0 0 -6.336-1.722 3.937 3.937 0 0 0 -5.425-1.409v-1.64c4.208-2.974 9-7.435 9-12.345a7.827 7.827 0 0 0 -13-5.9 7.827 7.827 0 0 0 -13 5.9c0 4.91 4.792 9.371 9 12.345v5.084h-9a3 3 0 0 1 -3-3v-22a3 3 0 0 1 3-3h48a3 3 0 0 1 3 3z"/></svg>