<svg id="Capa_1" enable-background="new 0 0 509.977 509.977" viewBox="0 0 509.977 509.977" xmlns="http://www.w3.org/2000/svg"><g><g><g><g><g><path d="m117.172 406.711-12.684-13.766c-33.441-36.294-68.026-82.943-91.686-128.781-6.404-12.406-1.503-27.658 10.892-34.084 12.684-6.576 28.305-1.383 34.502 11.49 2.95 6.128 6.028 12.398 8.996 18.379 11.096 22.354 25.94 42.637 43.903 59.962 13.855 13.364 32.192 20.747 51.268 20.71 14.911-.029 33.26-.046 49.683-.056 23.714-.014 42.941 19.205 42.941 42.919v111.596h-138.515z" fill="#fd7da0"/></g></g><g><path d="m216.862 495.08c-27.183-32.953-43.512-75.193-43.512-121.247 0-11.337.995-22.441 2.892-33.234-4.83.007-9.505.014-13.878.022-19.075.037-37.412-7.346-51.268-20.71-17.963-17.325-32.807-37.608-43.903-59.962-2.969-5.981-6.046-12.251-8.996-18.379-6.197-12.874-21.818-18.066-34.502-11.49-12.395 6.426-17.296 21.678-10.892 34.084 23.659 45.838 58.245 92.487 91.686 128.781l12.684 13.766-.7 88.369z" fill="#db4b86"/></g><g><path d="m108.291 317.147c-16.705-16.706-30.586-36.02-41.097-57.198-2.969-5.981-6.046-12.251-8.996-18.379-6.198-12.874-21.819-18.066-34.503-11.49-12.395 6.426-17.296 21.678-10.892 34.084 15.178 29.406 34.855 59.141 55.84 86.267z" fill="#fde0be"/></g><g><path d="m182.38 241.36c-25.754 0-46.632 20.878-46.632 46.632v15.808c0 25.754 20.878 46.632 46.632 46.632 25.754 0 46.632-20.878 46.632-46.632v-15.808c0-25.755-20.878-46.632-46.632-46.632z" fill="#fde0be"/></g></g><g><g><g><path d="m392.805 406.711 12.684-13.766c33.441-36.294 68.026-82.943 91.686-128.781 6.404-12.406 1.503-27.658-10.892-34.084-12.684-6.576-28.305-1.383-34.502 11.49-2.95 6.128-6.028 12.398-8.996 18.379-11.096 22.354-25.94 42.637-43.903 59.962-13.855 13.364-32.192 20.747-51.268 20.71-14.911-.029-33.26-.046-49.683-.056-23.714-.014-42.941 19.205-42.941 42.919v111.596h138.516z" fill="#67ccd1"/></g></g><g><path d="m320.324 373.833c0-11.341.996-22.45 2.894-33.247-8.466-.009-17.116-.016-25.288-.021-23.714-.014-42.941 19.205-42.941 42.919v111.596h108.847c-27.183-32.953-43.512-75.193-43.512-121.247z" fill="#27a2cc"/></g><g><path d="m401.686 317.147c16.705-16.706 30.586-36.02 41.097-57.198 2.969-5.981 6.046-12.251 8.996-18.379 6.198-12.874 21.818-18.066 34.502-11.49 12.395 6.426 17.296 21.678 10.892 34.084-15.178 29.406-34.855 59.141-55.84 86.267z" fill="#d46b5c"/></g><g><path d="m327.598 241.36c25.754 0 46.632 20.878 46.632 46.632v15.808c0 25.754-20.878 46.632-46.632 46.632-25.754 0-46.632-20.878-46.632-46.632v-15.808c0-25.755 20.878-46.632 46.632-46.632z" fill="#d46b5c"/></g></g><g><path d="m273.251 16.596 16.249 32.923 36.333 5.279c16.704 2.427 23.374 22.955 11.287 34.737l-26.291 25.627 6.206 36.186c2.853 16.637-14.609 29.324-29.549 21.469l-32.497-17.085-32.497 17.085c-14.941 7.855-32.403-4.832-29.549-21.469l6.206-36.186-26.291-25.627c-12.087-11.782-5.417-32.31 11.287-34.737l36.333-5.279 16.248-32.923c7.471-15.137 29.055-15.137 36.525 0z" fill="#fdcb50"/></g></g><g><path d="m490.885 221.201c-8.562-4.439-18.315-5.204-27.465-2.152-9.14 3.048-16.473 9.505-20.65 18.182-2.7 5.607-5.709 11.754-8.943 18.271-10.622 21.399-24.715 40.647-41.888 57.21-3.198 3.084-6.657 5.793-10.329 8.113 1.699-5.377 2.62-11.096 2.62-17.027v-15.808c0-31.227-25.405-56.632-56.632-56.632-31.228 0-56.633 25.405-56.633 56.632v15.808c0 11.018 3.174 21.303 8.639 30.012-7.094 2.609-13.602 6.741-19.107 12.243-2.027 2.026-3.859 4.194-5.509 6.47-1.649-2.277-3.482-4.444-5.509-6.47-5.506-5.503-12.013-9.634-19.107-12.243 5.465-8.708 8.639-18.994 8.639-30.011v-15.808c0-31.227-25.405-56.632-56.632-56.632-31.227 0-56.632 25.405-56.632 56.632v15.808c0 5.931.921 11.65 2.62 17.026-3.671-2.32-7.131-5.028-10.328-8.112-17.174-16.563-31.267-35.812-41.888-57.211-3.25-6.546-6.258-12.693-8.943-18.271-4.177-8.677-11.511-15.134-20.65-18.182-9.149-3.05-18.902-2.287-27.465 2.152-17.278 8.958-24.086 30.289-15.177 47.549 22.226 43.061 56.203 90.797 93.218 130.971l10.007 10.861-.668 84.419c-.021 2.666 1.023 5.229 2.9 7.122 1.878 1.893 4.433 2.957 7.099 2.957h277.033c2.666 0 5.222-1.064 7.099-2.957 1.878-1.893 2.922-4.457 2.901-7.122l-.669-84.419 10.007-10.861c37.016-40.174 70.992-87.911 93.217-130.97 8.91-17.261 2.103-38.592-15.175-47.55zm-345.138 66.79c0-20.199 16.433-36.632 36.632-36.632s36.632 16.433 36.632 36.632v15.808c0 20.199-16.433 36.632-36.632 36.632s-36.632-16.433-36.632-36.632zm99.242 197.089h-118.437l.62-78.29c.021-2.538-.925-4.989-2.645-6.855l-12.684-13.766c-35.854-38.914-68.714-85.055-90.154-126.592-3.86-7.479-.896-16.729 6.609-20.62 3.719-1.929 7.957-2.261 11.932-.935 3.965 1.322 7.146 4.123 8.958 7.885 2.719 5.649 5.764 11.87 9.049 18.487 11.643 23.456 27.092 44.556 45.918 62.714 12.463 12.021 27.938 19.736 44.896 22.436 9.359 6.837 20.878 10.886 33.33 10.886 11.776 0 22.722-3.616 31.792-9.792 7.998.5 15.451 3.845 21.169 9.56 6.221 6.218 9.647 14.488 9.647 23.285zm45.976-197.089c0-20.199 16.434-36.632 36.633-36.632s36.632 16.433 36.632 36.632v15.808c0 20.199-16.433 36.632-36.632 36.632s-36.633-16.433-36.633-36.632zm197.323-28.414c-21.439 41.537-54.299 87.678-90.154 126.592l-12.684 13.766c-1.72 1.866-2.665 4.317-2.646 6.855l.621 78.29h-118.436v-101.596c0-8.797 3.426-17.066 9.647-23.285 5.718-5.716 13.171-9.06 21.169-9.56 9.07 6.176 20.016 9.792 31.793 9.792 12.452 0 23.971-4.049 33.329-10.886 16.958-2.7 32.433-10.415 44.896-22.436 18.826-18.158 34.274-39.258 45.917-62.714 3.271-6.588 6.315-12.809 9.049-18.487 1.812-3.762 4.993-6.563 8.958-7.885 3.975-1.326 8.212-.994 11.933.935 7.504 3.89 10.469 13.14 6.608 20.619z" fill="#052a75"/><g><g><g><path d="m80.059 100.223h-54.237c-5.523 0-10-4.477-10-10s4.477-10 10-10h54.237c5.523 0 10 4.477 10 10s-4.478 10-10 10z" fill="#fd7da0"/></g><g><path d="m95.011 47.52c-2.559 0-5.118-.976-7.071-2.929l-22.624-22.622c-3.905-3.905-3.906-10.237 0-14.142s10.237-3.906 14.142 0l22.624 22.623c3.905 3.905 3.906 10.237 0 14.142-1.953 1.952-4.512 2.928-7.071 2.928z" fill="#fd7da0"/></g><g><path d="m72.387 175.549c-2.559 0-5.118-.976-7.071-2.929-3.905-3.905-3.906-10.237 0-14.142l22.623-22.624c3.905-3.905 10.237-3.906 14.142 0s3.906 10.237 0 14.142l-22.623 22.624c-1.952 1.952-4.512 2.929-7.071 2.929z" fill="#fd7da0"/></g></g><g><g><path d="m484.156 100.223h-54.237c-5.522 0-10-4.477-10-10s4.478-10 10-10h54.237c5.522 0 10 4.477 10 10s-4.478 10-10 10z" fill="#fd7da0"/></g><g><path d="m414.967 47.52c-2.56 0-5.118-.976-7.071-2.929-3.905-3.905-3.905-10.237 0-14.143l22.623-22.623c3.906-3.905 10.236-3.905 14.143 0 3.905 3.905 3.905 10.237 0 14.143l-22.623 22.623c-1.954 1.953-4.512 2.929-7.072 2.929z" fill="#fd7da0"/></g><g><path d="m437.59 175.549c-2.56 0-5.118-.976-7.071-2.929l-22.623-22.624c-3.905-3.905-3.905-10.237 0-14.142 3.907-3.905 10.237-3.904 14.143 0l22.623 22.624c3.905 3.905 3.905 10.237 0 14.142-1.954 1.952-4.513 2.929-7.072 2.929z" fill="#fd7da0"/></g></g></g></g></g><g/><g/><g/><g/><g/><g/><g/><g/><g/><g/><g/><g/><g/><g/><g/></svg>