<svg id="Layer_1" enable-background="new 0 0 105 105" viewBox="0 0 105 105" xmlns="http://www.w3.org/2000/svg"><g><g><g><g><g><path d="m12.8795824 8.6881065c0 2.250267-1.8200598 4.0703268-4.0625162 4.0703268-2.2502675 0-4.0703273-1.8200598-4.0703273-4.0703268 0-2.2424574 1.8200598-4.0625172 4.0703273-4.0625172 2.2424564.0000001 4.0625162 1.8200598 4.0625162 4.0625172z" fill="#ffd9b0"/></g></g></g><g><g><g><path d="m12.8800945 8.6868258c0 2.2470665-1.8245411 4.0716076-4.0621328 4.0716076-1.7573209 0-3.2650957-1.1235332-3.8315358-2.688798.6145821.3745117 1.3443985.595377 2.1222291.595377 2.2470665 0 4.0717354-1.8246689 4.0717354-4.0717354 0-.4705396-.0768223-.9314761-.2305965-1.3540015 1.1524696.7106103 1.9303006 1.9877891 1.9303006 3.4475503z" fill="#edb57e"/></g></g></g><g><g><g><path d="m8.8171387 13.5085449c-2.6577148 0-4.8203125-2.1625977-4.8203125-4.8205566 0-2.6535645 2.1625977-4.8125 4.8203125-4.8125 2.6538086 0 4.8125 2.1589355 4.8125 4.8125 0 2.657959-2.1586914 4.8205566-4.8125 4.8205566zm0-8.1330566c-1.8310547 0-3.3203125 1.486084-3.3203125 3.3125 0 1.8310547 1.4892578 3.3205566 3.3203125 3.3205566 1.8266602 0 3.3125-1.489502 3.3125-3.3205566 0-1.826416-1.4858399-3.3125-3.3125-3.3125z" fill="#0f0f0f"/></g></g></g></g><g><g><g><g><path d="m77.4653778 14.3343754 9.9388657 67.5370407c.8897324 6.0459518-3.2891617 11.666748-9.334877 12.5564423l-39.590683 5.8262329c-6.0457191.8897018-11.666708-3.2889328-12.5564404-9.334877l-9.9388657-67.5370407c-.8897324-6.045948 3.289156-11.6667414 9.334877-12.5564404l39.590683-5.826231c6.0457211-.8897023 11.666708 3.2889252 12.5564404 9.3348732z" fill="#5b5476"/></g></g></g><g><g><g><path d="m87.5045013 84.1695099c-.3140411 5.1091919-4.1625595 9.4824295-9.4351349 10.2583466l-39.590683 5.8262329c-6.0457191.8897018-11.666708-3.2889328-12.5564404-9.334877l-9.9388657-67.5370407c-.8897324-6.045948 3.289156-11.6667414 9.334877-12.5564404l2.0680027-.3043308c-4.9145889 9.869133-6.9743576 21.9353771-5.1277542 34.48349 4.2017269 28.5517731 25.1694984 49.1262054 49.1194954 45.6016846 5.9246141-.8718797 11.3613435-3.1185914 16.1265031-6.4370652z" fill="#3f3b5b"/></g></g></g><g><g><g><path d="m12.2648926 26.3430176c-.3657227 0-.6860352-.2680664-.7412109-.6408691l-.2397461-1.6286621c-.0600586-.409668.2231445-.7907715.6328125-.8510742.40625-.0620117.7905273.2226563.8515625.6328125l.2397461 1.6286621c.0600586.409668-.2231445.7907715-.6328125.8510742-.0371094.0056152-.0742188.0080566-.1103516.0080566z" fill="#0f0f0f"/></g></g></g><g><g><g><path d="m15.2687988 46.7561035c-.3657227 0-.6860352-.2680664-.7412109-.6408691l-2.456543-16.6923828c-.0600586-.409668.2231445-.7907715.6328125-.8510742.4111328-.0634766.7910156.2231445.8515625.6328125l2.456543 16.6923828c.0600586.409668-.2231445.7907715-.6328125.8510742-.0371094.0056152-.0742188.0080566-.1103516.0080566z" fill="#0f0f0f"/></g></g></g><g><g><g><path d="m90.9460449 79.2185059c-.3657227 0-.6860352-.2680664-.7412109-.6408691l-.3154297-2.144043c-.0600586-.409668.2231445-.7907715.6328125-.8510742.4116211-.0625.7905273.2231445.8515625.6328125l.3154297 2.144043c.0600586.409668-.2231445.7907715-.6328125.8510742-.0371094.0056152-.0742188.0080566-.1103516.0080566z" fill="#0f0f0f"/></g></g></g><g><g><g><path d="m90.067627 73.2507324c-.3657227 0-.6860352-.2680664-.7412109-.6408691l-2.1035156-14.2946777c-.0600586-.409668.2231445-.7907715.6328125-.8510742.4116211-.0627441.7905273.2231445.8515625.6328125l2.1035156 14.2946777c.0600586.409668-.2231445.7907715-.6328125.8510742-.0371095.0056152-.0742188.0080566-.1103516.0080566z" fill="#0f0f0f"/></g></g></g><g><g><g><path d="m36.8425293 101.1245117c-2.5200195 0-4.9638672-.8041992-7.0229492-2.3352051-2.5322266-1.8823242-4.1801758-4.6386719-4.6396484-7.7609863l-9.9389648-67.5371094c-.9482422-6.4445801 3.5234375-12.4592285 9.9677734-13.4074707l39.5908203-5.8261719c6.4477539-.9504395 12.4589844 3.5229492 13.4082031 9.9677734l9.9384766 67.5368652c.4594727 3.1220703-.3242188 6.2363281-2.206543 8.7685547-1.8828125 2.5319824-4.6386719 4.1796875-7.7607422 4.6391602l-39.5908203 5.8261719c-.5834961.0859376-1.1665039.128418-1.7456055.128418zm29.6835937-95.4936523c-.4980469 0-1.0009766.0361328-1.5078125.1105957l-39.5908203 5.8261719c-5.6264648.828125-9.5302734 6.0788574-8.7021484 11.7053223l9.9389648 67.5371094c.4008789 2.7258301 1.8393555 5.1320801 4.0498047 6.7756348 2.2109375 1.6435547 4.9291992 2.3273926 7.6552734 1.9265137l39.5908203-5.8261719c2.7260742-.4013672 5.1323242-1.8395996 6.7753906-4.050293 1.6435547-2.2106934 2.3276367-4.9291992 1.9262695-7.6552734l-9.9384766-67.5368652c-.7534178-5.1193849-5.1694334-8.8127443-10.1972655-8.8127443z" fill="#0f0f0f"/></g></g></g><g><g><g><g><path d="m77.8832779 17.1630325 8.4213257 57.2249985c.5894547 4.0054626-2.1845703 7.7256622-6.1809311 8.3137741l-46.9870987 6.9146957c-4.0056915.5894852-7.724514-2.175209-8.3139648-6.1806717l-8.4213276-57.2249985c-.5894508-4.0054646 2.1738415-7.733839 6.1795311-8.3233223l46.9870987-6.9147015c3.9963664-.5881137 7.7259197 2.1847631 8.3153667 6.1902257z" fill="#fff"/></g></g></g></g><g><g><g><g><path d="m85.3957291 68.211998.9088745 6.176033c.5894547 4.0054626-2.1845703 7.7256622-6.1809311 8.3137741l-46.9870987 6.9146957c-4.0056915.5894852-7.724514-2.175209-8.3139648-6.1806717l-8.4213276-57.2249985c-.5894508-4.0054646 2.1738415-7.733839 6.1795311-8.3233223l8.2069702-1.2077522c-5.1113701 7.7567234-7.505558 17.5505047-6.0099754 27.7133541 3.107769 21.1180611 21.8163509 35.8480721 41.7980652 32.9075279 7.2753162-1.07065 13.7225055-4.3415622 18.8198566-9.0886401z" fill="#ddd"/></g></g></g></g><g><g><g><g><path d="m32.0510254 90.4462891c-1.7231445 0-3.3930664-.5493164-4.7998047-1.5949707-1.7304688-1.286377-2.8564453-3.1708984-3.1708984-5.3063965l-8.4213867-57.2248535c-.6489258-4.4104004 2.4072266-8.526123 6.8125-9.1745605l46.9873047-6.9145508c2.1323242-.3134766 4.2597656.2233887 5.9921875 1.5126953 1.7329102 1.2895508 2.8598633 3.175293 3.1743164 5.3103027l8.4213867 57.2248535c.3139648 2.1345215-.2226563 4.2636719-1.5112305 5.9953613-1.2875977 1.7302246-3.1704102 2.855957-5.3022461 3.1696777l-46.9873047 6.9145508c-.3994141.0588379-.7988281.0878907-1.1948242.0878907zm38.5932617-78.8024903c-.3208008 0-.644043.0234375-.9667969.0710449l-46.9873047 6.9145508c-3.5874023.5280762-6.0756836 3.880127-5.546875 7.4724121l8.4213867 57.2248535c.2558594 1.7390137 1.1723633 3.2734375 2.5810547 4.3208008 1.4091797 1.0471191 3.1425781 1.4829102 4.8813477 1.2270508l46.9873047-6.9145508c1.7358398-.2556152 3.269043-1.1721191 4.3178711-2.5812988 1.0493164-1.4099121 1.4858398-3.1435547 1.2299805-4.8813477l-8.4213867-57.2250977c-.2558594-1.7387695-1.1738281-3.2746582-2.5854492-4.3251953-1.1479493-.854248-2.5092774-1.3032226-3.9111329-1.3032226z" fill="#0f0f0f"/></g></g></g></g><g><g><g><path d="m64.498558 90.2030029c.1206207.8196487-.4513321 1.5892639-1.2709846 1.7098846l-11.9331512 1.7561035c-.819767.120636-1.5799713-.4529343-1.7005959-1.272583-.1206207-.8196487.4435272-1.5783539 1.2632942-1.6989975l11.9331512-1.7561035c.8196488-.1206207 1.587658.4420472 1.7082863 1.2616959z" fill="#fff"/></g></g></g><g><g><g><path d="m51.072998 94.4353027c-.480957 0-.9477539-.1550293-1.3408203-.4501953-.4804688-.3601074-.7929688-.885498-.8803711-1.4794922-.1801758-1.2258301.6704102-2.369873 1.8959961-2.5500488l11.9331055-1.7561035c1.2348633-.1804199 2.3793945.668457 2.5600586 1.8942871.1811523 1.230957-.6733398 2.3798828-1.9038086 2.5610352l-11.9335938 1.7561035c-.1103515.0163574-.2207031.024414-.3305664.024414zm11.9384766-4.7600097c-.0371094 0-.0742188.0026855-.1118164.0080566l-11.9331055 1.7561035c-.4077148.0600586-.6904297.4404297-.6303711.8479004.0292969.1999512.1342773.376709.2958984.4980469.1606445.1201172.3588867.1711426.5527344.1416016l11.9335938-1.7561035c.4125977-.060791.6992188-.4460449.6381836-.8588867-.0541992-.3701173-.3769531-.6367188-.7451172-.6367188z" fill="#0f0f0f"/></g></g></g><g><g><g><g><path d="m43.2199707 12.5100098c-.3657227 0-.6860352-.2680664-.7412109-.6408691-.0600586-.409668.2231445-.7907715.6328125-.8510742l9.7426758-1.4335938c.4082031-.0637207.7905273.2231445.8515625.6328125.0600586.409668-.2231445.7907715-.6328125.8510742l-9.7426758 1.4335938c-.0371094.0056152-.0742188.0080566-.1103516.0080566z" fill="#0f0f0f"/></g></g></g><g><g><g><path d="m38.0578613 13.2697754c-.3657227 0-.6860352-.2680664-.7412109-.6408691-.0600586-.409668.2231445-.7907715.6328125-.8510742l2.1347656-.314209c.4111328-.0639648.7910156.2229004.8515625.6328125.0600586.409668-.2231445.7907715-.6328125.8510742l-2.1347656.314209c-.0371094.0056152-.0737305.0080566-.1103516.0080566z" fill="#0f0f0f"/></g></g></g></g><g><g><g><g><path d="m68.0596771 22.1806393 3.5336456 24.0120029c.4120941 2.8002892-1.5192261 5.398262-4.319725 5.8103867l-30.6845856 4.5155945c-2.7918472.4108543-5.3897305-1.5205917-5.8018265-4.3208809l-3.5336475-24.0120029c-.4120941-2.8002892 1.5192318-5.398262 4.311079-5.8091145l30.6845818-4.5155945c2.800499-.4121266 5.3983841 1.5193195 5.8104782 4.3196087z" fill="#c3c9fb"/></g></g></g><g><g><g><path d="m70.6060333 39.4837341.9871597 6.7080345c.4120331 2.7998657-1.5193939 5.3978539-4.3198929 5.8099785l-30.6845856 4.5155983c-2.7831955.4095764-5.3811836-1.5218544-5.7932167-4.3217201l-3.5336475-24.0120029c-.4121571-2.8007107 1.5192757-5.3986988 4.3024712-5.808279l11.478651-1.6892166c-6.8089066 3.2976551-10.9603577 7.9712448-10.291317 12.5175476 1.0353622 7.0355415 13.3016968 11.0592079 27.4253235 8.980751 3.7859841-.5571518 7.3031998-1.4990426 10.4290543-2.7006913z" fill="#8693e2"/></g></g></g><g><g><g><circle cx="52.824" cy="28.38" fill="#fff" r="3.692"/></g></g></g><g><g><g><path d="m56.4759789 27.8392181c.2974663 2.0213814-1.1021576 3.8928623-3.1143265 4.1889763-1.2575645.1850662-2.4594078-.2854061-3.2540207-1.1582947.331871.0557194.6739922.0532379 1.0187759.0024986 2.0213776-.2974701 3.4210052-2.1689491 3.1235352-4.1903305-.1110497-.7546062-.4481583-1.428545-.935009-1.9563713 1.5906906.2036648 2.9169883 1.4551163 3.1610451 3.1135216z" fill="#ddd"/></g></g></g><g><g><g><path d="m35.833252 57.3242188c-1.2504883 0-2.4633789-.3996582-3.4853516-1.1601563-1.2563477-.9353027-2.0742188-2.3051758-2.3027344-3.8571777l-3.5336914-24.0119629c-.4711914-3.2019043 1.746582-6.1896973 4.9438477-6.6601563l30.6845703-4.515625c3.2084961-.4729004 6.1904297 1.7507324 6.6621094 4.9523926l3.5336914 24.0119629c.4711914 3.2019043-1.7504883 6.1901855-4.9526367 6.661377l-30.6845703 4.515625c-.2895509.0427246-.5781251.0637207-.8652344.0637207zm27.1723632-38.7687989c-.2148438 0-.4306641.0158691-.6469727.0476074l-30.6845703 4.515625c-2.3793945.3500977-4.0292969 2.5742188-3.6782227 4.9580078l3.5336915 24.0119629c.1699219 1.1557617.7788086 2.1757813 1.7138672 2.8720703.9350586.6960449 2.0878906.984375 3.2363281.815918l30.6845703-4.515625c2.3837891-.3508301 4.0380859-2.5754395 3.6870117-4.9592285l-3.5336913-24.0119629c-.1699219-1.1560059-.7792969-2.1760254-1.7148438-2.871582-.7607422-.5656738-1.6645508-.862793-2.597168-.862793z" fill="#0f0f0f"/></g></g></g><g><g><g><path d="m52.8151855 32.822998c-.9477539 0-1.8662109-.3024902-2.640625-.8779297-.9521484-.7080078-1.5717773-1.7441406-1.7446289-2.9179688-.1723633-1.173584.1220703-2.3444824.8300781-3.2966309.7075195-.9521484 1.7436523-1.5717773 2.9174805-1.7443848 1.1738281-.1723633 2.3442383.1218262 3.296875.829834.9521484.7077637 1.5717773 1.7441406 1.7446289 2.9179688.1723633 1.173584-.1220703 2.3444824-.8300781 3.2966309-.7075195.9519043-1.7436523 1.5715332-2.9174805 1.7441406-.2192382.0322267-.4384765.0483399-.65625.0483399zm.015625-7.3850097c-.1445313 0-.2895508.0107422-.4345703.0319824-.7773438.114502-1.4638672.5249023-1.9326172 1.1552734-.46875.6306152-.6640625 1.40625-.5493164 2.1835938.1142578.7773438.5244141 1.463623 1.1552734 1.932373.6308594.4689941 1.4082031.6633301 2.1831055.5495605.7773438-.114502 1.4638672-.5246582 1.9326172-1.1552734s.6640625-1.4060059.5493164-2.1833496c-.1142578-.7773438-.5244141-1.463623-1.1552734-1.9326172-.5126953-.3811035-1.1210937-.5815429-1.7485352-.5815429z" fill="#0f0f0f"/></g></g></g><g><g><g><path d="m71.5879822 46.1563148.0052109.0354538c.4120331 2.7998657-1.5193939 5.3978539-4.3198929 5.8099785l-20.9865532 3.0884171 2.0676918-3.1121826 3.4052162-4.104126 8.0865097-9.7378998c1.2291336-1.4882431 3.4877701-1.5024109 4.7441597-.0453377z" fill="#dabcbc"/></g></g></g><g><g><g><path d="m71.5879822 46.1563148.0052109.0354538c.4120331 2.7998657-1.5193939 5.3978539-4.3198929 5.8099785l-20.9865532 3.0884171 2.0676918-3.1121826 3.4052162-4.104126 1.725956-2.0736084c2.6328239.2489853 5.8497009.1464043 9.2727203-.3573341 2.506546-.368866 4.8294907-.9056129 6.8530502-1.5561142z" fill="#bc9595"/></g></g></g><g><g><g><path d="m46.2868652 55.8400879c-.2543945 0-.4946289-.1293945-.6333008-.3483887-.1586914-.25-.1552734-.5700684.0087891-.8166504l2.0673828-3.1120605 11.5390625-13.90625c.7236328-.8757324 1.7900391-1.3859863 2.9248047-1.3979492 1.1494141.0021973 2.2182617.4772949 2.9643555 1.342041l6.996582 8.0639648c.0952148.1098633.1567383.244873.1767578.388916l.0048828.0354004c.2275391 1.5458984-.1616211 3.0932617-1.0961914 4.3505859-.9350586 1.2573242-2.3046875 2.0754395-3.8574219 2.3039551l-20.9863281 3.0883789c-.0366211.0053711-.0732422.0080567-.109375.0080567zm15.9477539-18.0812988c-.0083008 0-.0166016 0-.0253906 0-.6914063.0073242-1.3422852.3188477-1.7851563.8549805l-11.4926757 13.8432617-1.0908203 1.6462402 19.3232422-2.8435059c1.1567383-.170166 2.1762695-.7792969 2.8720703-1.7150879.6606445-.8881836.9545898-1.9714355.8374023-3.0678711l-6.8496094-7.8947754c-.4526367-.5246582-1.1030273-.8232421-1.7890625-.8232421z" fill="#0f0f0f"/></g></g></g><g><g><g><path d="m55.3105583 53.762207-18.7218437 2.7551384c-2.7831955.4095764-5.3811836-1.5218544-5.7932167-4.3217201l-.1426029-.9690208 10.4825573-12.8984032c1.362011-1.6664772 3.9502525-1.4816475 5.0699234.3663673l5.5542793 9.179287z" fill="#dabcbc"/></g></g></g><g><g><g><path d="m55.3105583 53.762207-18.7218437 2.7551384c-2.7831955.4095764-5.3811836-1.5218544-5.7932167-4.3217201l-.1426029-.9690208.9270401-1.1428185c2.4101086.1756859 5.0807972.0827675 7.8642025-.3268433 4.4255981-.6512756 8.3809814-1.9750023 11.2651863-3.6188469l1.0503311 1.7357597z" fill="#bc9595"/></g></g></g><g><g><g><path d="m35.8366699 57.3227539c-1.2490234 0-2.4604492-.4001465-3.4819336-1.161377-1.2553711-.935791-2.0727539-2.3054199-2.3012695-3.8566895l-.1425781-.9689941c-.0302734-.2077637.027832-.4189453.1601563-.5820313l10.4824219-12.8984375c.8056641-.9858398 1.9956055-1.4995117 3.2553711-1.4104004 1.2680664.0891113 2.3754883.7675781 3.0380859 1.861084l9.105957 15.0688477c.1298828.2150879.1430664.4807129.0361328.7075195-.1069336.2270508-.3208008.385498-.5688477.421875l-18.722168 2.755127c-.2880859.0424805-.5756835.0634766-.8613281.0634766zm-4.3935547-5.8791504.0947266.6428223c.1699219 1.1555176.7783203 2.1755371 1.7133789 2.8723145.934082.6958008 2.0834961.9855957 3.2280273.8166504l17.6069336-2.5910645-8.5224609-14.1015625c-.4067383-.6708984-1.0844727-1.0871582-1.8603516-1.1416016-.7724609-.0563965-1.4951172.2597656-1.9873047.8615723z" fill="#0f0f0f"/></g></g></g></g><g><g><g><path d="m39.2497559 63.9194336c-.3657227 0-.6860352-.2680664-.7412109-.6408691-.0600586-.409668.2231445-.7907715.6328125-.8510742l33.7275391-4.9633789c.4101563-.0627441.7910156.2231445.8515625.6328125.0600586.409668-.2231445.7907715-.6328125.8510742l-33.7275392 4.9633789c-.0371094.0056152-.0742187.0080566-.1103515.0080566z" fill="#0f0f0f"/></g></g></g><g><g><g><path d="m62.0168457 66.2468262c-.3657227 0-.6860352-.2680664-.7412109-.6408691-.0600586-.409668.2231445-.7907715.6328125-.8510742l5.2163086-.7678223c.4091797-.0637207.7910156.2229004.8515625.6328125.0600586.409668-.2231445.7907715-.6328125.8510742l-5.2163086.7678223c-.0371094.0056152-.0742188.0080566-.1103516.0080566z" fill="#0f0f0f"/></g></g></g><g><g><g><path d="m40.067627 69.4768066c-.3657227 0-.6860352-.2680664-.7412109-.6408691-.0600586-.409668.2231445-.7907715.6328125-.8510742l18.296875-2.692627c.409668-.0629883.7910156.2231445.8515625.6328125.0600586.409668-.2231445.7907715-.6328125.8510742l-18.296875 2.692627c-.0371095.0056152-.0742188.0080566-.1103516.0080566z" fill="#0f0f0f"/></g></g></g><g><g><g><path d="m65.7470932 74.7746277c.1713562 1.1644363-.1475067 2.2959824-.8068542 3.1830139-.651474.8765793-1.6434555 1.5077209-2.8172112 1.6804504l-12.6318092 1.8589172c-2.3475151.3454666-4.5275688-1.2752609-4.871624-3.6132202-.1727676-1.1739883.1460304-2.3059921.8054924-3.1930389.6513176-.876091 1.6435242-1.5072632 2.8172798-1.6799927l12.6318092-1.8589172c2.3475151-.3454666 4.5274506 1.2752762 4.8729172 3.6227875z" fill="#abecef"/></g></g></g><g><g><g><path d="m65.7434006 74.775177c.1713562 1.1644287-.1475067 2.2959747-.8068542 3.1830139-.6514816.8765793-1.6434593 1.5077133-2.817215 1.6804428l-12.6318093 1.8589173c-2.3195381.3413467-4.4741173-1.2357254-4.8593063-3.5295258 2.5490952.0533295 5.4630356-.1282654 8.5278549-.5792923 4.9930725-.734787 9.3806152-2.0278015 12.3625984-3.4941025.1077042.2787781.1794815.5730591.2247315.8805466z" fill="#75c5c9"/></g></g></g><g><g><g><path d="m48.8615723 82.293457c-2.4580078 0-4.6162109-1.802002-4.984375-4.300293-.1958008-1.3339844.1401367-2.6655273.9458008-3.7497559.8007813-1.0771484 1.9765625-1.7783203 3.3100586-1.9746094l12.6318359-1.8588867c2.7475586-.4077148 5.3193359 1.5036621 5.7246094 4.2553711v.0004883c.1948242 1.3271484-.1416016 2.6550293-.9472656 3.7392578-.8007813 1.0773926-1.9760742 1.7788086-3.3100586 1.9750977l-12.6313477 1.8588867c-.2485352.0366212-.4951172.0544434-.7392578.0544434zm12.6401367-10.4377441c-.1713867 0-.3442383.0124512-.5180664.0380859l-12.6318359 1.8588867c-.9375.1381836-1.7631836.630127-2.324707 1.385498-.5668945.7626953-.8032227 1.6992188-.6655273 2.6367188.2836914 1.9274902 2.0932617 3.2641602 4.0205078 2.9802246l12.6313477-1.8588867c.9375-.1381836 1.7631836-.6303711 2.324707-1.3857422.5668945-.7629395.8037109-1.6955566.6669922-2.6264648-.2587892-1.7590332-1.7758791-3.0283203-3.5034181-3.0283203z" fill="#0f0f0f"/></g></g></g></g><g><g><g><g><g><g><path d="m62.0177155 13.7598982v13.0014486c0 1.9623489 1.5909157 3.5532627 3.5532608 3.5532627h2.6647949v3.3552094c0 1.1177673 1.2793808 1.752697 2.1695786 1.0767365l5.8366699-4.4319458h10.7402039c1.9624329 0 3.5531769-1.5908279 3.5531769-3.5531769v-13.0015345c0-1.9622622-1.5906601-3.5529156-3.5529175-3.5529156h-21.4117661c-1.9622612 0-3.5530014 1.5906534-3.5530014 3.5529156z" fill="#ff84a0"/></g></g></g><g><g><g><path d="m62.018322 13.7626686v13.0014477c0 1.9556847 1.5903091 3.5459042 3.5566368 3.5459042h.1181564c-.0107346-.1183281-.0214615-.2471333-.0214615-.3654613v-13.0014478c0-1.9661579 1.5902176-3.5563793 3.5565491-3.5563793h21.2857285c-.1826477-1.7835989-1.6976471-3.1807013-3.5350876-3.1807013h-21.4038849c-1.9663277 0-3.5566368 1.5904799-3.5566368 3.5566378z" fill="#f76189"/></g></g></g><g><g><g><path d="m69.5905762 35.7739258c-.3183594 0-.6386719-.072998-.9375-.2211914-.7202148-.3574219-1.1674805-1.0788574-1.1674805-1.8828125v-2.6052246h-1.9145508c-2.3730469 0-4.3032227-1.9304199-4.3032227-4.3034668v-13.0012207c0-2.3725586 1.9301758-4.3029785 4.3027344-4.3029785h21.4121094c2.3725586 0 4.3027344 1.9304199 4.3027344 4.3029785v13.0014648c0 2.3728027-1.9301758 4.3032227-4.3032227 4.3032227h-10.487793l-5.6352539 4.2792969c-.3745117.2844238-.8198242.4299316-1.2685546.4299316zm-4.0200196-24.8168945c-1.5454102 0-2.8027344 1.2573242-2.8027344 2.8029785v13.0012207c0 1.5458984 1.2573242 2.8034668 2.8032227 2.8034668h2.6645508c.4140625 0 .75.3356934.75.75v3.3552246c0 .3366699.2338867.4892578.3344727.5390625.1015625.050293.3647461.1435547.6318359-.0595703l5.8364258-4.4321289c.1303711-.098877.2900391-.1525879.4536133-.1525879h10.7402344c1.5458984 0 2.8032227-1.2575684 2.8032227-2.8032227v-13.0014648c0-1.5456543-1.2573242-2.8029785-2.8027344-2.8029785z" fill="#0f0f0f"/></g></g></g></g></g></g><g><g><g><path d="m82.0261383 20.9652519-4.2201843 4.2201347c-.5464783.5464783-1.4325027.5464783-1.9789886 0l-4.2201767-4.2201347c-1.3377609-1.3378677-1.3377609-3.5054893 0-4.838829 1.3332825-1.3378668 3.5010681-1.3378668 4.838829 0 .1412582.1412029.2648849.286932.370842.4458122.0956573-.1434383.2057266-.2761593.330162-.4045086 1.0452652-1.078124 2.6300888-1.3934326 3.9646072-.7049656 2.1991501 1.1345215 2.5041123 3.9078884.9149094 5.502491z" fill="#fff"/></g></g></g><g><g><g><path d="m82.0232468 20.9683514-4.2199707 4.2197266c-.5400391.5400391-1.4299316.5400391-1.9799805 0l-4.2199707-4.2197266c-.4899902-.4902344-.8000488-1.1000977-.9301758-1.7402344 1.2202148.2402344 2.5600586.3701172 3.9702148.3701172 3.3999023 0 6.4099121-.7597656 8.2700195-1.9301758.2998048 1.1401367.0000001 2.3999023-.8901366 3.300293z" fill="#ddd"/></g></g></g><g><g><g><path d="m76.8166504 26.3452148c-.574707 0-1.1142578-.2236328-1.5200195-.6296387l-4.2202148-4.2199707c-.7895508-.7895508-1.2241211-1.8391113-1.2231445-2.9550781.0009766-1.1137695.4355469-2.159668 1.2241211-2.9453125.7836914-.7866211 1.8300781-1.2211914 2.9438477-1.222168h.003418c1.0410156 0 2.0239258.3789063 2.7915039 1.0715332 1.2885742-1.166748 3.1171875-1.4331055 4.6386719-.6484375 1.234375.6367188 2.0620117 1.7661133 2.2709961 3.0983887.2055664 1.3139648-.230957 2.659668-1.168457 3.6003418-.0004883.0002441-.0004883.0004883-.0009766.0007324l-4.2202148 4.2199707c-.405762.4060059-.9453128.6296387-1.5195315.6296387zm-2.7919922-10.4721679c-.0009766 0-.0014648 0-.0024414 0-.7124023.0004883-1.3818359.2785645-1.8842773.782959-.5058594.5041504-.7841797 1.1733398-.784668 1.8857422-.0004883.7148438.277832 1.387207.7836914 1.8933105l4.2202148 4.2199707c.2446289.2453613.6733398.2458496.918457 0l4.2192383-4.2192383c.6010742-.6027832.8808594-1.4660645.7490234-2.309082-.1342773-.8544922-.6723633-1.5825195-1.4765625-1.9975586-1.0126953-.5219727-2.2519531-.296875-3.0820313.5605469-.0922852.0949707-.1738281.192627-.2446289.298584-.2783203.4174805-.9697266.4174805-1.2480469 0-.0791016-.1184082-.1723633-.2263184-.2773438-.331543-.5053709-.5053711-1.1767576-.7836914-1.8906248-.7836914zm8.0014648 5.0922851h.0097656z" fill="#0f0f0f"/></g></g></g><g><g><g><g><g><g><path d="m35.3391037 61.5656891 1.8317413 12.8717651c.2764702 1.9427795-1.0744362 3.7419586-3.0172119 4.0184326l-2.6382141.3754349.4727058 3.3217468c.1574783 1.1066132-1.0196838 1.9154587-1.9962368 1.3716583l-6.4028568-3.5654221-10.6330757 1.5131531c-1.9428616.2764816-3.7418623-1.0743561-4.0183325-3.0171356l-1.8317528-12.871849c-.2764583-1.9426918 1.0742264-3.7415848 3.0169163-4.0180397l21.1981926-3.0166512c1.942689-.2764549 3.7416659 1.074215 4.0181246 3.0169068z" fill="#aff2b6"/></g></g></g><g><g><g><path d="m35.3388939 61.5685158 1.8317413 12.871769c.2755318 1.9361725-1.0748711 3.7345886-3.0215912 4.0116196l-.1169777.0166473c-.0060425-.11866-.0135651-.2476959-.0302353-.3648453l-1.8317413-12.8717651c-.2770061-1.9465446-2.075407-3.2968597-4.0221252-3.0198288l-21.0734158 2.9988937c-.0704637-1.7915459 1.2325897-3.3881569 3.0517035-3.6470299l21.1903954-3.0155373c1.9467153-.2770309 3.7452382 1.0735321 4.0222463 3.0200768z" fill="#7fd685"/></g></g></g><g><g><g><path d="m30.651123 84.4477539c-.3510742 0-.7026367-.0888672-1.0239258-.2678223l-6.1826172-3.442627-10.3833008 1.4775391c-1.1367188.1621094-2.2709961-.1286621-3.1899414-.8188477s-1.5141602-1.6970215-1.6762695-2.8349609l-1.8320312-12.8718261c-.1616211-1.1379395.1293945-2.270752.8193359-3.1899414s1.6967773-1.5144043 2.8349609-1.6762695l21.1982422-3.0166016c1.1367188-.1625977 2.2705078.1286621 3.1894531.8188477.9194336.6901855 1.5146484 1.6970215 1.6767578 2.8347168l1.831543 12.8718262c.1621094 1.1376953-.1289063 2.270752-.8188477 3.1899414-.6904297.9194336-1.6972656 1.5146484-2.8354492 1.6765137l-1.8955078.2700195.3671875 2.5791016c.1132813.7958984-.2280273 1.5732422-.890625 2.0285645-.3593749.2470701-.7734374.371826-1.1889648.371826zm-7.0620117-5.2385254c.1269531 0 .2529297.0322266.3647461.0947266l6.402832 3.5654297c.293457.1638184.5415039.0336914.6337891-.0297852.0927734-.0634766.3027344-.2473145.2548828-.5808105l-.4726563-3.3217773c-.0581055-.4101563.2270508-.7897949.637207-.8481445l2.6381836-.3754883c.7412109-.1054688 1.3969727-.4934082 1.8466797-1.0922852.449707-.5986328.6391602-1.3366699.5332031-2.0778809l-1.831543-12.8718262c-.1054688-.7412109-.4931641-1.3969727-1.0917969-1.8466797-.5991211-.4499512-1.3393555-.638916-2.0776367-.5334473l-21.1987305 3.0166016c-.7412109.1054688-1.3969727.4934082-1.8466797 1.092041-.4492188.5986328-.6386719 1.3366699-.5332031 2.0778809l1.8320313 12.8718262c.1054688.7414551.4931641 1.3972168 1.0917969 1.8469238s1.3378906.6391602 2.078125.5334473l10.6333008-1.5131836c.0351563-.005127.0703126-.0075684.1054688-.0075684z" fill="#0f0f0f"/></g></g></g></g></g><g><g><g><g><path d="m25.5646973 75.5515137c-.1049805 0-.2119141-.0222168-.3139648-.0693359l-8.2885742-3.8244629c-.234375-.1079102-.3964844-.3288574-.4296875-.5844727-.0332031-.2558594.0673828-.5107422.2661133-.6748047l7.3271484-6.0466309c.3203125-.2641602.7924805-.2182617 1.0561523.1010742s.2182617.7919922-.1010742 1.0556641l-6.4067383 5.2871094 7.2050781 3.324707c.3764648.1733398.5405273.6188965.3671875.9951172-.1269531.2744141-.3979492.4360352-.6816406.4360352z" fill="#0f0f0f"/></g></g></g><g><g><g><g><circle cx="24.603" cy="64.93" fill="#fff" r="2.3"/></g></g><g><g><path d="m24.5964355 67.980957c-.6557617 0-1.2910156-.2106934-1.824707-.6115723-.6518555-.4892578-1.0737305-1.203125-1.1884766-2.0097656-.1147461-.8061523.0913086-1.609375.5805664-2.2609863s1.203125-1.0734863 2.0097656-1.1882324c1.6611328-.2380371 3.2124023.9245605 3.449707 2.5898438v.0002441c.2363281 1.6647949-.9257813 3.2124023-2.590332 3.4494629-.145996.0207519-.2915038.0310058-.4365234.0310058zm.0078125-4.6010742c-.0727539 0-.1459961.0048828-.2197266.0153809-.409668.0583496-.7724609.2729492-1.0209961.6040039s-.3535156.7392578-.2949219 1.1491699c.0581055.4101563.2724609.7727051.6035156 1.0214844.3310547.248291.7368164.3525391 1.1494141.295166.8457031-.1206055 1.4365234-.9072266 1.3164063-1.753418-.1098632-.7724609-.7749023-1.3317871-1.5336914-1.3317871z" fill="#0f0f0f"/></g></g></g><g><g><g><circle cx="25.565" cy="74.801" fill="#fff" r="2.3"/></g></g><g><g><path d="m25.5637207 77.8518066c-1.4931641 0-2.8017578-1.1008301-3.0185547-2.6208496-.2363281-1.6652832.925293-3.2126465 2.590332-3.4494629.8061523-.1157227 1.6098633.0913086 2.2612305.5805664.6518555.4892578 1.0737305 1.2028809 1.1884766 2.0095215s-.0913086 1.6096191-.5805664 2.2609863c-.4892578.6516113-1.2026367 1.0737305-2.0092773 1.1884766-.1450196.020752-.2895509.0307617-.4316407.0307617zm.0043945-4.6010742c-.0732422 0-.1474609.005127-.2216797.015625-.8457031.1206055-1.4365234.9069824-1.315918 1.753418.1206055.8466797.9135742 1.4377441 1.753418 1.3164063.409668-.0585938.7724609-.2729492 1.0209961-.604248.2485352-.3310547.3535156-.7392578.2949219-1.1491699 0 0 0 0 0-.0002441-.0581055-.409668-.2724609-.7722168-.6035156-1.0209961-.2714844-.2036134-.5947266-.3107912-.9282227-.3107912z" fill="#0f0f0f"/></g></g></g></g><g><g><g><circle cx="17.276" cy="70.977" fill="#fff" r="2.3"/></g></g><g><g><path d="m17.2741699 74.0273438c-1.4926758 0-2.8012695-1.1008301-3.0180664-2.6208496-.2363281-1.6652832.9257813-3.2126465 2.5908203-3.4494629.8022461-.1147461 1.6088867.0910645 2.2607422.5805664.6518555.4892578 1.0737305 1.2028809 1.1884766 2.0095215s-.0913086 1.6096191-.5805664 2.2612305c-.4892578.6513672-1.203125 1.0734863-2.0097656 1.1882324-.1450196.0207519-.2890626.0307617-.4316407.0307617zm.0053711-4.6010743c-.0732422 0-.1474609.005127-.2216797.015625-.8461914.1206055-1.4370117.9069824-1.3164063 1.753418.1206055.8466797.9150391 1.4365234 1.753418 1.3164063.409668-.0583496.7724609-.2729492 1.0209961-.6040039.2485352-.3312988.3535156-.7392578.2949219-1.1494141 0 0 0 0 0-.0002441-.0581055-.409668-.2724609-.7722168-.6035156-1.0209961-.2714844-.2036133-.5942383-.3107911-.9277344-.3107911z" fill="#0f0f0f"/></g></g></g></g></g><g><g><g><g><path d="m100.1105957 93.2345047c-3.19384.6577301-5.7061386 3.1779709-6.3638687 6.3718185-.0395813.1900864-.29319.1900864-.3328934 0-.3248367-1.6009598-1.1173096-3.0274658-2.2348633-4.1369553-1.1015472-1.1094894-2.5280533-1.9099045-4.128891-2.2348633-.1902084-.0395813-.1902084-.29319 0-.3328934 1.6008377-.3248291 3.0273438-1.1252518 4.1368332-2.2348633 1.1096115-1.1094894 1.9020844-2.5359955 2.2269211-4.1368256.0397034-.1902084.2933121-.1902084.3328934 0 .3249588 1.6008301 1.1174316 3.0273361 2.2269211 4.1368256 1.1094894 1.1096115 2.5359955 1.9100342 4.1369476 2.2348633.1900864.0397035.1900864.2933122 0 .3328935z" fill="#ff84a0"/></g></g></g><g><g><g><path d="m100.1137772 93.2303543c-3.2005692.6573639-5.7112732 3.1789398-6.3686371 6.3793869-.0431213.1831207-.2908707.1831207-.3341217 0-.3124924-1.53022-1.0343552-2.8986969-2.0689621-3.9763031 2.4784546-.4526215 4.364296-2.5647049 4.4720459-5.1509094.0431213.064621.1077499.1292496.1616211.1831207 1.1099777 1.1099777 2.5324554 1.907341 4.1380539 2.2307129.1831207.0429993.1831207.3016205 0 .333992z" fill="#f76189"/></g></g></g><g><g><g><path d="m93.5803223 100.4987793c-.4399414 0-.8100586-.3041992-.9008789-.7399902-.2900391-1.4291992-.9912109-2.7270508-2.0288086-3.7570801-1.0351563-1.0427246-2.3305664-1.7441406-3.75-2.0319824-.4394531-.0922852-.7431641-.4624023-.7431641-.9016113s.3037109-.8093262.7387695-.9006348c1.4208984-.2883301 2.7197266-.9904785 3.7602539-2.0310059 1.0341797-1.0341797 1.7338867-2.3327637 2.0224609-3.7556152.0913086-.439209.4614258-.7436523.9013672-.7436523s.8100586.3044434.9008789.7402344c.2890625 1.4262695.9887695 2.7248535 2.0229492 3.7587891 1.0405273 1.0407715 2.3393555 1.7429199 3.7558594 2.0302734.4394531.0922852.7431641.4624023.7431641.9016113s-.3037109.8093262-.7387695.9006348c-.0009766 0-.0014648.0002441-.0024414.0004883-2.9111328.5993652-5.1796875 2.8713379-5.7807617 5.7883301-.0908203.4370116-.4609375.7412108-.9008789.7412108zm-4.5893555-7.4309082c1.0068359.4433594 1.9282227 1.0756836 2.7202148 1.873291.7949219.7890625 1.4267578 1.7116699 1.8701172 2.7224121.8989258-2.0534668 2.5390625-3.6953125 4.5898438-4.5947266-1.0063477-.4428711-1.9306641-1.074707-2.7275391-1.8718262-.7924805-.7919922-1.4213867-1.713623-1.8632813-2.7211914-.4418945 1.0070801-1.0708008 1.9291992-1.8632813 2.7214355-.7963866.7961427-1.7197264 1.4277345-2.7260741 1.8706056zm11.1196289.166748h.0097656z" fill="#0f0f0f"/></g></g></g></g></g></svg>