<svg id="Layer_1" viewBox="0 0 24 24" xmlns="http://www.w3.org/2000/svg" xmlns:xlink="http://www.w3.org/1999/xlink" data-name="Layer 1"><linearGradient id="linear-gradient" gradientUnits="userSpaceOnUse" x1="-.443" x2="23.991" y1="-.441" y2="23.993"><stop offset="0" stop-color="#0acffe"/><stop offset=".422" stop-color="#23a0fe"/><stop offset="1" stop-color="#495aff"/></linearGradient><linearGradient id="linear-gradient-2" gradientUnits="userSpaceOnUse" x1="4.631" x2="22.934" y1="5.201" y2="23.504"><stop offset="0" stop-color="#3a49e6" stop-opacity="0"/><stop offset=".166" stop-color="#3b4ae2" stop-opacity=".138"/><stop offset=".525" stop-color="#3f4cd9" stop-opacity=".492"/><stop offset="1" stop-color="#4551cc"/></linearGradient><linearGradient id="linear-gradient-3" x1="6.155" x2="29.214" xlink:href="#linear-gradient-2" y1="-2.73" y2="20.329"/><path d="m23.05 12c0 1.03-.02 2.1-.06 3.14-.02.74-.05 1.46-.1 2.17-.01.39-.04.78-.06 1.17-.02.28-.07.56-.14.82-.13.51-.35.98-.62 1.4-.56.85-1.39 1.5-2.35 1.86-.35.13-.72.21-1.11.25-.05 0-.09.01-.14.01-1.27.09-2.55.16-3.83.2-.98.03-1.97.04-2.96.04-2.11-.01-4.16-.09-6.16-.24-2.31-.17-4.17-2.03-4.34-4.34-.16-2.09-.23-4.26-.23-6.48 0-2.18.07-4.31.22-6.36.17-2.4 2.06-4.3 4.47-4.47 2.06-.15 4.19-.23 6.37-.23 2.21 0 4.38.08 6.46.24 2.32.17 4.17 2.03 4.36 4.34.1 1.51.17 3.07.2 4.65.01.61.02 1.22.02 1.83z" fill="url(#linear-gradient)"/><path d="m22.69 19.3c-.13.51-.35.98-.62 1.4-.56.85-1.39 1.5-2.35 1.86-.35.13-.72.21-1.11.25l-4.52-4.19 3.63-3.92z" fill="url(#linear-gradient-2)"/><path d="m23.05 12c0 1.03-.02 2.1-.06 3.14-.02.74-.05 1.46-.1 2.17l-8.93-8.26 3.63-3.92 5.44 5.04c.01.61.02 1.22.02 1.83z" fill="url(#linear-gradient-3)"/><path d="m18.69 16.756c0 1.461-1.199 2.66-2.66 2.66-1.469 0-2.66-1.199-2.66-2.66 0-.262.034-.515.11-.751l-3.647-2.136c-.481.507-1.165.819-1.908.819-1.469 0-2.66-1.199-2.66-2.66 0-1.469 1.19-2.66 2.66-2.66.743 0 1.427.312 1.908.811l3.647-2.128c-.076-.236-.11-.49-.11-.751 0-1.469 1.19-2.66 2.66-2.66 1.461 0 2.66 1.191 2.66 2.66 0 1.461-1.199 2.66-2.66 2.66-.751 0-1.427-.312-1.917-.819l-3.639 2.136c.068.236.11.49.11.751s-.042.515-.11.751l3.647 2.128c.481-.498 1.157-.811 1.908-.811 1.461 0 2.66 1.191 2.66 2.66z" fill="#fff"/></svg>