<svg id="Capa_1" enable-background="new 0 0 511.951 511.951" height="512" viewBox="0 0 511.951 511.951" width="512" xmlns="http://www.w3.org/2000/svg"><g><g><path d="m315.976 511.951c-.527 0-1.055-.029-1.582-.088-6.035-.63-11.074-4.849-12.803-10.664l-37.207-128.006c-2.051-6.987 1.201-14.443 7.734-17.681 2.666-1.333 5.01-2.842 7.324-4.746 3.838-3.164 8.965-4.189 13.74-2.813 9.492 2.798 17.959 2.666 25.078-.352 7.617-3.076 13.857-9.17 18.691-18.164 2.344-4.336 6.65-7.251 11.514-7.808 10.488-1.172 18.604-4.57 24.111-10.093 1.201-1.187 2.461-2.651 3.486-4.102 3.34-4.644 8.965-6.973 14.707-6.079 5.654.952 10.254 5.039 11.895 10.532l42.891 144.902c1.729 5.83-.234 12.114-4.951 15.938-4.717 3.794-11.338 4.409-16.611 1.494l-61.523-33.601-33.311 63.48c-2.637 4.877-7.734 7.851-13.183 7.851z" fill="#e63950"/></g><g><path d="m196.561 511.951c-5.449 0-10.547-2.974-13.184-7.852l-33.311-63.479-61.523 33.604c-5.273 2.915-11.924 2.3-16.611-1.509-4.717-3.823-6.68-10.107-4.951-15.938l42.92-144.302c1.641-5.493 6.27-9.58 11.924-10.518 5.566-.981 11.338 1.406 14.678 6.079.967 1.377 1.934 2.578 2.93 3.56 5.156 5.347 12.803 8.599 23.496 10.093 4.629.63 8.701 3.398 10.986 7.456 5.068 8.921 11.191 14.927 18.223 17.856 7.441 3.311 16.084 3.369 25.898.396 4.834-1.465 10.078-.396 13.945 2.827 2.373 1.978 5.186 3.823 8.877 5.815 6.27 3.369 9.316 10.664 7.295 17.476l-37.207 127.698c-1.729 5.815-6.797 10.02-12.832 10.649-.527.06-1.025.089-1.553.089z" fill="#ff6c6c"/></g><g><path d="m255.976 389.951c-13.45 0-25.429-4.441-36.797-11.924-14.004 2.959-27.158 1.758-38.906-3.472-11.104-4.629-20.771-12.847-28.594-24.39-14.121-3.003-25.195-8.789-33.691-17.578-9.136-9.279-14.702-21.389-17.314-34.146-11.836-7.793-20.273-17.783-25.107-29.78-4.717-11.265-5.801-24.155-3.193-37.529-7.559-11.484-11.396-23.628-11.396-36.182 0-12.598 4.014-24.932 11.924-36.768-2.9-14.077-1.758-27.129 3.457-38.892 4.629-11.133 12.861-20.801 24.404-28.638 2.988-14.121 8.789-25.195 17.578-33.691 8.73-8.716 20.244-14.575 34.189-17.344 7.793-11.807 17.754-20.215 29.736-25.063 11.279-4.688 24.17-5.83 37.529-3.208 22.939-15.161 49.336-15.278 72.949.542 13.975-2.886 27.275-1.699 38.906 3.442 11.133 4.644 20.801 12.861 28.623 24.404 14.121 3.003 25.195 8.789 33.691 17.578 8.73 8.76 14.561 20.259 17.344 34.16 11.807 7.793 20.244 17.783 25.078 29.766 4.717 11.265 5.801 24.155 3.193 37.529 7.559 11.484 11.396 23.628 11.396 36.182 0 12.598-4.014 24.932-11.924 36.768 2.9 14.077 1.758 27.129-3.457 38.892-4.629 11.147-12.891 20.83-24.463 28.667-3.302 15.163-8.875 24.873-17.285 33.442-8.936 8.906-20.479 14.795-34.424 17.563-7.793 11.792-17.754 20.215-29.736 25.063-11.25 4.731-24.082 5.845-37.5 3.208-10.938 7.024-23.058 11.399-36.21 11.399z" fill="#fabe2c"/></g><path d="m255.976 389.951c13.154 0 25.275-4.377 36.211-11.396 13.418 2.637 26.25 1.523 37.5-3.208 11.982-4.849 21.943-13.271 29.736-25.063 13.945-2.769 25.488-8.657 34.424-17.563 8.37-8.529 13.965-18.196 17.285-33.442 11.572-7.837 19.834-17.52 24.463-28.667 5.215-11.763 6.357-24.814 3.457-38.892 7.91-11.836 11.924-24.17 11.924-36.768 0-12.554-3.838-24.697-11.396-36.182 2.607-13.374 1.523-26.265-3.193-37.529-4.834-11.982-13.271-21.973-25.078-29.766-2.783-13.901-8.613-25.4-17.344-34.16-8.496-8.789-19.57-14.575-33.691-17.578-7.822-11.543-17.49-19.761-28.623-24.404-11.631-5.142-24.932-6.328-38.906-3.442-11.821-7.917-24.335-11.838-36.768-11.884v389.944z" fill="#ff9100"/><g><path d="m255.976 329.951c-74.443 0-135-60.557-135-135s60.557-135 135-135 135 60.557 135 135-60.557 135-135 135z" fill="#fed843"/></g><path d="m255.976 329.951c74.443 0 135-60.557 135-135s-60.557-135-135-135z" fill="#fabe2c"/><g id="Rewards_1_"><g><path d="m279.911 250.747-23.936-12.437-23.936 12.437c-5.01 2.593-11.133 2.139-15.732-1.172-4.6-3.34-6.914-8.994-5.977-14.59l4.395-26.646-19.189-18.94c-4.177-4.072-5.454-10.109-3.75-15.322 1.758-5.391 6.416-9.346 12.041-10.195l26.66-4.014 12.07-24.126c5.098-10.166 21.738-10.166 26.836 0l12.07 24.126 26.66 4.014c5.625.85 10.283 4.805 12.041 10.195 1.758 5.405.322 11.338-3.75 15.322l-19.189 18.94 4.395 26.646c.938 5.596-1.377 11.25-5.977 14.59-4.568 3.311-10.681 3.8-15.732 1.172z" fill="#fabe2c"/></g></g><path d="m255.976 238.312 23.936 12.435c5.062 2.634 11.172 2.133 15.732-1.172 4.6-3.34 6.914-8.994 5.977-14.59l-4.395-26.646 19.189-18.94c4.072-3.984 5.508-9.917 3.75-15.322-1.758-5.391-6.416-9.346-12.041-10.195l-26.66-4.014-12.07-24.126c-2.549-5.083-7.983-7.625-13.418-7.625z" fill="#ff9100"/></g></svg>