<?xml version="1.0" encoding="iso-8859-1"?>
<!-- Generator: Adobe Illustrator 19.0.0, SVG Export Plug-In . SVG Version: 6.00 Build 0)  -->
<svg version="1.1" id="Capa_1" xmlns="http://www.w3.org/2000/svg" xmlns:xlink="http://www.w3.org/1999/xlink" x="0px" y="0px"
	 viewBox="0 0 511.989 511.989" style="enable-background:new 0 0 511.989 511.989;" xml:space="preserve">
<linearGradient id="SVGID_1_" gradientUnits="userSpaceOnUse" x1="235.4599" y1="202.3231" x2="248.1599" y2="168.213" gradientTransform="matrix(1.0667 0 0 -1.0667 3.2667 557.5223)">
	<stop  offset="0" style="stop-color:#C2CECE"/>
	<stop  offset="1" style="stop-color:#97AAAA"/>
</linearGradient>
<path style="fill:url(#SVGID_1_);" d="M96.193,429.268c-7.545,0-14.684-4.512-17.673-11.94c-3.923-9.758,0.804-20.848,10.561-24.772
	L375.85,277.217L144.395,117.438c-8.654-5.975-10.828-17.834-4.853-26.489c5.975-8.654,17.833-10.828,26.489-4.853l260.602,179.9
	c5.769,3.983,8.882,10.813,8.108,17.778c-0.777,6.965-5.317,12.943-11.819,15.559L103.293,427.889
	C100.963,428.825,98.559,429.268,96.193,429.268z"/>
<linearGradient id="SVGID_2_" gradientUnits="userSpaceOnUse" x1="269.9383" y1="337.6229" x2="188.2482" y2="419.3129" gradientTransform="matrix(1.0667 0 0 -1.0667 3.2667 557.5223)">
	<stop  offset="0" style="stop-color:#363F3E;stop-opacity:0"/>
	<stop  offset="1" style="stop-color:#303033"/>
</linearGradient>
<path style="fill:url(#SVGID_2_);" d="M368.225,225.663c-9.737,8.276-17.29,19.054-21.657,31.33l-143.749-99.231
	c9.737-8.276,17.277-19.054,21.657-31.33L368.225,225.663z"/>
<linearGradient id="SVGID_3_" gradientUnits="userSpaceOnUse" x1="155.1086" y1="119.6533" x2="113.6286" y2="161.1333" gradientTransform="matrix(1.0667 0 0 -1.0667 3.2667 557.5223)">
	<stop  offset="0" style="stop-color:#363F3E;stop-opacity:0"/>
	<stop  offset="1" style="stop-color:#303033"/>
</linearGradient>
<path style="fill:url(#SVGID_3_);" d="M176.153,357.535l-87.071,35.021c-9.756,3.925-14.484,15.014-10.561,24.772
	c2.989,7.428,10.128,11.94,17.673,11.94c2.365,0,4.77-0.444,7.1-1.38l102.134-41.079L176.153,357.535z"/>
<linearGradient id="SVGID_4_" gradientUnits="userSpaceOnUse" x1="43.9752" y1="181.2199" x2="139.2652" y2="85.9399" gradientTransform="matrix(1.0667 0 0 -1.0667 3.2667 557.5223)">
	<stop  offset="0" style="stop-color:#FFC200"/>
	<stop  offset="0.268" style="stop-color:#FFBB00"/>
	<stop  offset="0.659" style="stop-color:#FFA801"/>
	<stop  offset="1" style="stop-color:#FF9102"/>
</linearGradient>
<circle style="fill:url(#SVGID_4_);" cx="96.181" cy="410.224" r="96.181"/>
<linearGradient id="SVGID_5_" gradientUnits="userSpaceOnUse" x1="118.0175" y1="107.1822" x2="75.2075" y2="149.9922" gradientTransform="matrix(1.0667 0 0 -1.0667 3.2667 557.5223)">
	<stop  offset="0" style="stop-color:#FFC200"/>
	<stop  offset="0.268" style="stop-color:#FFBB00"/>
	<stop  offset="0.659" style="stop-color:#FFA801"/>
	<stop  offset="1" style="stop-color:#FF9102"/>
</linearGradient>
<circle style="fill:url(#SVGID_5_);" cx="96.181" cy="410.224" r="43.215"/>
<linearGradient id="SVGID_6_" gradientUnits="userSpaceOnUse" x1="343.6225" y1="301.7472" x2="438.9125" y2="206.4572" gradientTransform="matrix(1.0667 0 0 -1.0667 3.2667 557.5223)">
	<stop  offset="0" style="stop-color:#00A6F9"/>
	<stop  offset="1" style="stop-color:#0071E2"/>
</linearGradient>
<circle style="fill:url(#SVGID_6_);" cx="415.808" cy="281.669" r="96.181"/>
<linearGradient id="SVGID_7_" gradientUnits="userSpaceOnUse" x1="417.6675" y1="227.7021" x2="374.8575" y2="270.5121" gradientTransform="matrix(1.0667 0 0 -1.0667 3.2667 557.5223)">
	<stop  offset="0" style="stop-color:#00A6F9"/>
	<stop  offset="1" style="stop-color:#0071E2"/>
</linearGradient>
<circle style="fill:url(#SVGID_7_);" cx="415.808" cy="281.669" r="43.215"/>
<linearGradient id="SVGID_8_" gradientUnits="userSpaceOnUse" x1="99.3175" y1="470.4022" x2="194.6075" y2="375.1122" gradientTransform="matrix(1.0667 0 0 -1.0667 3.2667 557.5223)">
	<stop  offset="0" style="stop-color:#D63305"/>
	<stop  offset="0.366" style="stop-color:#CF3004"/>
	<stop  offset="0.899" style="stop-color:#BC2602"/>
	<stop  offset="1" style="stop-color:#B72401"/>
</linearGradient>
<circle style="fill:url(#SVGID_8_);" cx="155.211" cy="101.765" r="96.181"/>
<linearGradient id="SVGID_9_" gradientUnits="userSpaceOnUse" x1="173.3575" y1="396.3622" x2="130.5475" y2="439.1721" gradientTransform="matrix(1.0667 0 0 -1.0667 3.2667 557.5223)">
	<stop  offset="0" style="stop-color:#D63305"/>
	<stop  offset="0.366" style="stop-color:#CF3004"/>
	<stop  offset="0.899" style="stop-color:#BC2602"/>
	<stop  offset="1" style="stop-color:#B72401"/>
</linearGradient>
<circle style="fill:url(#SVGID_9_);" cx="155.211" cy="101.765" r="43.215"/>
<g>
</g>
<g>
</g>
<g>
</g>
<g>
</g>
<g>
</g>
<g>
</g>
<g>
</g>
<g>
</g>
<g>
</g>
<g>
</g>
<g>
</g>
<g>
</g>
<g>
</g>
<g>
</g>
<g>
</g>
</svg>
