<svg id="Layer_2" height="512" viewBox="0 0 512 512" width="512" xmlns="http://www.w3.org/2000/svg" data-name="Layer 2"><g id="Social_Icon" data-name="Social Icon"><g id="Retweet"><rect id="Background" fill="#1e88e5" height="512" rx="150" width="512"/><g id="Retweet-2" fill="#fff" data-name="Retweet"><path d="m425.18 274.75h-23.01v-102.46c0-20.49-16.61-37.11-37.11-37.11h-73.24c-16.29 0-29.5 13.21-29.5 29.5 0 16.29 13.21 29.5 29.5 29.5h36.5c8.2 0 14.84 6.65 14.84 14.84v65.73h-24.47c-11.5 0-20.82 9.32-20.82 20.82 0 4.49 1.45 8.85 4.13 12.45l40.19 53.88c14.84 19.9 44.65 19.9 59.49 0l40.18-53.88c2.68-3.6 4.13-7.96 4.13-12.45 0-11.5-9.32-20.82-20.82-20.82z"/><path d="m220.18 317.82h-36.5c-8.2 0-14.84-6.65-14.84-14.84v-65.73h24.47c11.5 0 20.82-9.32 20.82-20.82 0-4.49-1.45-8.85-4.13-12.45l-40.19-53.88c-14.84-19.9-44.65-19.9-59.49 0l-40.18 53.88c-2.68 3.6-4.13 7.96-4.13 12.45 0 11.5 9.32 20.82 20.82 20.82h23.01v102.46c0 20.5 16.61 37.11 37.11 37.11h73.24c16.29 0 29.5-13.21 29.5-29.5 0-16.29-13.21-29.5-29.5-29.5z"/></g></g></g></svg>