<svg id="Layer_2_00000024715369692111643120000001441683056149983390_" enable-background="new 0 0 512 512" viewBox="0 0 512 512" xmlns="http://www.w3.org/2000/svg" xmlns:xlink="http://www.w3.org/1999/xlink"><linearGradient id="SVGID_1_" gradientTransform="matrix(1 0 0 -1 0 513.16)" gradientUnits="userSpaceOnUse" x1="256" x2="256" y1="81.74" y2="136.74"><stop offset="0" stop-color="#3d5969"/><stop offset="1" stop-color="#698999"/></linearGradient><linearGradient id="SVGID_00000067926526196303917700000002396145737608031678_" gradientTransform="matrix(1 0 0 -1 0 513.16)" gradientUnits="userSpaceOnUse" x1="256" x2="256" y1="26.74" y2="81.74"><stop offset="0" stop-color="#f90"/><stop offset="1" stop-color="#fcd34f"/></linearGradient><linearGradient id="lg1"><stop offset=".5" stop-color="#f27a00"/><stop offset="1" stop-color="#fcd34f"/></linearGradient><linearGradient id="SVGID_00000042018278403886566390000003743730314104107395_" gradientTransform="matrix(-.587 -.587 -.707 .707 2603.006 -380.662)" gradientUnits="userSpaceOnUse" x1="1431.486" x2="1431.486" xlink:href="#lg1" y1="2012.157" y2="1844.852"/><linearGradient id="SVGID_00000129905764427606192280000015212914359519178628_" gradientTransform="matrix(-.414 -.72 -.867 .498 2543.277 132.03)" gradientUnits="userSpaceOnUse" x1="1184.593" x2="1234.464" xlink:href="#lg1" y1="1956.752" y2="1803.817"/><linearGradient id="SVGID_00000052791984023089984750000005047983603044386481_" gradientTransform="matrix(-.129 -.82 -.988 .155 2285.976 795.403)" gradientUnits="userSpaceOnUse" x1="980.862" x2="1036.252" xlink:href="#lg1" y1="1834.286" y2="1674.916"/><linearGradient id="SVGID_00000093157134597593611340000004288069011614720658_" gradientTransform="matrix(.277 -.783 -.943 -.334 1687.602 1337.947)" gradientUnits="userSpaceOnUse" x1="683.691" x2="647.781" xlink:href="#lg1" y1="1678.057" y2="1517.906"/><linearGradient id="SVGID_00000093156908371541661270000003066552148982497160_" gradientTransform="matrix(.587 -.587 .707 .707 -2129.006 -380.662)" gradientUnits="userSpaceOnUse" x1="1463.859" x2="1463.859" xlink:href="#lg1" y1="2039.027" y2="1871.722"/><linearGradient id="SVGID_00000109712396855611661890000003659538110368934292_" gradientTransform="matrix(.414 -.72 .867 .498 -2069.277 132.03)" gradientUnits="userSpaceOnUse" x1="1207.401" x2="1257.273" xlink:href="#lg1" y1="1989.7" y2="1836.765"/><linearGradient id="SVGID_00000013882235937391082280000003008415808691686790_" gradientTransform="matrix(.129 -.82 .988 .155 -1811.976 795.403)" gradientUnits="userSpaceOnUse" x1="987.969" x2="1043.359" xlink:href="#lg1" y1="1871.825" y2="1712.455"/><linearGradient id="SVGID_00000047018078574252714870000015391257607587610245_" gradientTransform="matrix(-.277 -.783 .943 -.334 -1213.602 1337.947)" gradientUnits="userSpaceOnUse" x1="668.423" x2="632.513" xlink:href="#lg1" y1="1713.882" y2="1553.731"/><linearGradient id="SVGID_00000058557527856629182370000007761744774007879870_" gradientTransform="matrix(1 0 0 -1 0 513.16)" gradientUnits="userSpaceOnUse" x1="255.99" x2="255.99" y1="124.735" y2="487.585"><stop offset="0" stop-color="#ffbf00"/><stop offset="1" stop-color="#ffdf3d"/></linearGradient><linearGradient id="SVGID_00000109749954124869410860000018079918290999960206_" gradientTransform="matrix(1 0 0 -1 0 513.16)" gradientUnits="userSpaceOnUse" x1="256" x2="256" y1="149.74" y2="462.58"><stop offset="0" stop-color="#ff8c00"/><stop offset="1" stop-color="#fcc000"/></linearGradient><linearGradient id="SVGID_00000101074274764903133250000017304455253277393287_" gradientTransform="matrix(1 0 0 -1 0 513.16)" gradientUnits="userSpaceOnUse" x1="256" x2="256" y1="211.16" y2="401.16"><stop offset="0" stop-color="#ffe187"/><stop offset="1" stop-color="#fff8e0"/></linearGradient><linearGradient id="SVGID_00000021091814371465177590000010665020915849151163_" gradientTransform="matrix(1 0 0 -1 0 513.16)" gradientUnits="userSpaceOnUse" x1="256.005" x2="256.005" y1="243.45" y2="368.89"><stop offset="0" stop-color="#fd7600"/><stop offset=".71" stop-color="#fdbf30"/></linearGradient><g id="Icon"><g id="_95"><g><path d="m196 376.4h120c11 0 20 9 20 20v35h-160v-35c0-11 9-20 20-20z" fill="url(#SVGID_1_)"/><path d="m163.5 431.4h185c15.2 0 27.5 12.3 27.5 27.5 0 15.2-12.3 27.5-27.5 27.5h-185c-15.2 0-27.5-12.3-27.5-27.5 0-15.2 12.3-27.5 27.5-27.5z" fill="url(#SVGID_00000067926526196303917700000002396145737608031678_)"/></g><g><g><path d="m365.2 108.9c24.5-24.5 62.8-28.7 83.1-29 8.1-.1 14 5.8 13.9 13.9-.4 20.2-4.5 58.5-29 83.1s-62.8 28.7-83.1 29c-8.1.1-14-5.8-13.9-13.9.4-20.2 4.5-58.6 29-83.1z" fill="url(#SVGID_00000042018278403886566390000003743730314104107395_)"/><path d="m388.4 157.1c30.1-17.3 68.1-11.3 87.8-6.4 7.9 2 12 9.2 9.8 17-5.6 19.4-19.6 55.3-49.7 72.6s-68.1 11.3-87.8 6.4c-7.9-2-12-9.2-9.8-17 5.6-19.4 19.7-55.3 49.7-72.6z" fill="url(#SVGID_00000129905764427606192280000015212914359519178628_)"/><path d="m401.8 199.7c34.3-5.4 67.7 13.8 84.2 25.4 6.7 4.7 8 12.9 3 19.4-12.2 16.1-38.1 44.6-72.4 50s-67.7-13.8-84.2-25.4c-6.7-4.7-8-12.9-3-19.4 12.2-16.1 38.1-44.6 72.4-50z" fill="url(#SVGID_00000052791984023089984750000005047983603044386481_)"/><path d="m381.6 239c32.7 11.6 53 44.3 62 62.4 3.6 7.3.9 15.1-6.5 18.5-18.4 8.4-54.8 21.2-87.5 9.6s-53-44.4-62-62.4c-3.6-7.3-.9-15.2 6.5-18.5 18.4-8.5 54.8-21.2 87.5-9.6z" fill="url(#SVGID_00000093157134597593611340000004288069011614720658_)"/></g><g><path d="m146.8 108.9c-24.5-24.5-62.8-28.7-83.1-29-8.1-.1-14 5.8-13.9 13.9.4 20.2 4.5 58.5 29 83.1s62.8 28.7 83.1 29c8.1.1 14-5.8 13.9-13.9-.4-20.2-4.5-58.6-29-83.1z" fill="url(#SVGID_00000093156908371541661270000003066552148982497160_)"/><path d="m123.6 157.1c-30.1-17.3-68.2-11.3-87.8-6.4-7.9 2-12 9.2-9.8 17 5.6 19.4 19.6 55.3 49.7 72.6s68.2 11.3 87.8 6.4c7.9-2 12.1-9.2 9.8-17-5.7-19.4-19.7-55.3-49.7-72.6z" fill="url(#SVGID_00000109712396855611661890000003659538110368934292_)"/><path d="m110.2 199.7c-34.2-5.4-67.6 13.8-84.2 25.4-6.7 4.7-8 12.9-3 19.4 12.2 16.1 38.1 44.6 72.4 50s67.7-13.8 84.2-25.4c6.7-4.7 7.9-12.9 3.1-19.4-12.3-16.1-38.2-44.6-72.5-50z" fill="url(#SVGID_00000013882235937391082280000003008415808691686790_)"/><path d="m130.4 239c-32.7 11.6-53 44.3-62 62.4-3.6 7.3-.8 15.1 6.6 18.5 18.4 8.4 54.8 21.2 87.5 9.6s53-44.4 62-62.4c3.6-7.3.9-15.2-6.6-18.5-18.4-8.5-54.8-21.2-87.5-9.6z" fill="url(#SVGID_00000047018078574252714870000015391257607587610245_)"/></g></g><g><path d="m237 29.3-92.2 37.8c-18.8 7.7-31 26-31 46.3v121.2c0 109 95.1 143.4 129.8 152.3 8.2 2.1 16.7 2.1 24.9 0 34.7-8.9 129.8-43.3 129.8-152.3v-121.2c0-20.3-12.3-38.6-31-46.3l-92.3-37.8c-12.2-5-25.8-5-38 0z" fill="url(#SVGID_00000058557527856629182370000007761744774007879870_)"/><path d="m256 363.4c-2.1 0-4.2-.3-6.2-.8-14.9-3.8-43.7-13.3-68.2-33.6-28.4-23.6-42.9-55.4-42.9-94.4v-121.2c0-10.2 6.1-19.3 15.5-23.1l92.2-37.8c3-1.2 6.2-1.9 9.5-1.9s6.5.6 9.5 1.9l92.2 37.8c9.4 3.9 15.5 12.9 15.5 23.1v121.2c0 39.1-14.4 70.8-42.9 94.4-24.5 20.3-53.2 29.8-68.2 33.6-1.8.5-3.9.8-6 .8z" fill="url(#SVGID_00000109749954124869410860000018079918290999960206_)"/></g><g><circle cx="256" cy="207" fill="url(#SVGID_00000101074274764903133250000017304455253277393287_)" r="95"/><path d="m218.7 269.7v-17.7l22.3-2.8v-79.2l-22.5-.3v-16.7l52.6-8.8v105l22.3 2.8v17.7z" fill="url(#SVGID_00000021091814371465177590000010665020915849151163_)"/></g></g></g></svg>