<svg id="Layer_2" height="512" viewBox="0 0 512 512" width="512" xmlns="http://www.w3.org/2000/svg" xmlns:xlink="http://www.w3.org/1999/xlink" data-name="Layer 2"><linearGradient id="linear-gradient" gradientUnits="userSpaceOnUse" x1="151.49" x2="468.06" y1="151.49" y2="468.07"><stop offset="0" stop-opacity=".35"/><stop offset="1" stop-opacity="0"/></linearGradient><g id="Social_Icon" data-name="Social Icon"><g id="Retweet"><rect fill="#1e88e5" height="512" rx="150" width="512"/><path d="m512 245.01v116.99c0 82.84-67.16 150-150 150h-116.99l-135.18-135.18 14.59-81.43-58.42-58.42 148.13-27.73 93.19 93.2 46.18-17.07-91.18-91.19 139.85-59z" fill="url(#linear-gradient)"/><g id="Retweet-2" fill="#fff" data-name="Retweet"><path d="m168.83 317.82v-80.85h45.3v-27.73l-74.07-74.06-74.06 74.06v27.73h43.83v139.85h139.85v-59z"/><path d="m402.17 275.03v-139.85h-139.85v59h80.85v80.85h-45.3v27.73l74.07 74.06 74.06-74.06v-27.73z"/></g></g></g></svg>