<svg id="Layer_1" height="512" viewBox="0 0 64 64" width="512" xmlns="http://www.w3.org/2000/svg"><g><path d="m60.6 27.9-28.6 23.4-28.6-23.4 25.7-25.7c1.6-1.6 4.2-1.6 5.8 0z" fill="#f9b826"/><path d="" fill="#fff"/><path d="" style="fill:none;stroke:#2a3c65;stroke-linecap:round;stroke-linejoin:round;stroke-miterlimit:10;stroke-width:2"/><path d="" fill="#fff"/><path d="" style="fill:none;stroke:#2a3c65;stroke-linecap:round;stroke-linejoin:round;stroke-miterlimit:10;stroke-width:2"/><path d="m27.6 3.7 1.5-1.5c1.6-1.6 4.2-1.6 5.8 0" style="fill:none;stroke:#2a3c65;stroke-linecap:round;stroke-linejoin:round;stroke-miterlimit:10;stroke-width:2"/><path d="m7.3 24-3.9 3.9 5.6 4.6 23 18.8 23.9-19.5 4.7-3.9-7-7" style="fill:none;stroke:#2a3c65;stroke-linecap:round;stroke-linejoin:round;stroke-miterlimit:10;stroke-width:2"/><path d="m46.6 7.3 9 43.3c.4 1.8-.8 3.5-2.5 3.9l-30.6 6.4c-1.8.4-3.5-.8-3.9-2.5l-9-43.4c-.4-1.8.8-3.5 2.5-3.9l30.6-6.4c1.8-.3 3.5.8 3.9 2.6" fill="#02beff"/><path d="m12.7 30.2-3.1-15.2c-.4-1.8.8-3.5 2.5-3.9l30.6-6.4c1.8-.4 3.5.8 3.9 2.5l4.8 22.9" style="fill:none;stroke:#2a3c65;stroke-linecap:round;stroke-linejoin:round;stroke-miterlimit:10;stroke-width:2"/><path d="m11.6 18.2h42v29.1h-42z" fill="#e3ecff" transform="matrix(-.204 -.979 .979 -.204 7.161 71.41)"/><g style="fill:none;stroke:#2a3c65;stroke-linecap:round;stroke-linejoin:round;stroke-miterlimit:10;stroke-width:2"><path d="m18.1 34.6-4-19.4 28.4-5.9 5 24"/><path d="m21 20.1 17.2-3.6"/><path d="m22.2 25.9 17.2-3.6"/><path d="m23.4 31.7 17.2-3.6"/><path d="m41.8 33.9-3.7.8"/></g><path d="m60.6 27.9v31c0 1.1-.5 2.2-1.2 2.9s-1.8 1.2-2.9 1.2h-49c-1.1 0-2.2-.5-2.9-1.2-.8-.8-1.2-1.8-1.2-2.9v-31l16.1 13.2 12.5 10.2 12.5-10.2z" fill="#fecb4d"/><path d="m32 51.3 28.6-23.4v31c0 1.1-.5 2.2-1.2 2.9s-1.8 1.2-2.9 1.2h-49c-1.1 0-2.2-.5-2.9-1.2-.8-.8-1.2-1.8-1.2-2.9v-31z" style="fill:none;stroke:#2a3c65;stroke-linecap:round;stroke-linejoin:round;stroke-miterlimit:10;stroke-width:2"/><path d="m59.4 61.8c-.7.7-1.8 1.2-2.9 1.2h-49c-1.1 0-2.2-.5-2.9-1.2l24.5-24.5c1.6-1.6 4.2-1.6 5.8 0z" fill="#ffd880"/><path d="m59.4 61.8c-.7.7-1.8 1.2-2.9 1.2h-3.2l-12.5-11.6c-6.4-5.9-16.3-6.1-22.9-.5l-13 11.1c-.1-.1-.2-.2-.3-.3l24.5-24.5c1.6-1.6 4.2-1.6 5.8 0z" fill="#fecb4d"/><path d="m59.4 61.8c-.7.7-1.8 1.2-2.9 1.2h-49c-1.1 0-2.2-.5-2.9-1.2l24.5-24.5c1.6-1.6 4.2-1.6 5.8 0z" style="fill:none;stroke:#2a3c65;stroke-linecap:round;stroke-linejoin:round;stroke-miterlimit:10;stroke-width:2"/></g></svg>