<svg id="Capa_1" enable-background="new 0 0 512 512" height="512" viewBox="0 0 512 512" width="512" xmlns="http://www.w3.org/2000/svg" xmlns:xlink="http://www.w3.org/1999/xlink"><linearGradient id="lg1"><stop offset="0" stop-color="#fef0ae"/><stop offset="1" stop-color="#fac600"/></linearGradient><linearGradient id="SVGID_1_" gradientUnits="userSpaceOnUse" x1="256" x2="256" xlink:href="#lg1" y1="91.646" y2="500.645"/><linearGradient id="lg2"><stop offset="0" stop-color="#fea613" stop-opacity="0"/><stop offset=".2032" stop-color="#fda215" stop-opacity=".203"/><stop offset=".4052" stop-color="#fb961b" stop-opacity=".405"/><stop offset=".6066" stop-color="#f68225" stop-opacity=".607"/><stop offset=".8066" stop-color="#f06633" stop-opacity=".807"/><stop offset="1" stop-color="#e94444"/></linearGradient><linearGradient id="SVGID_00000132807785507079801640000017335296900110632582_" gradientUnits="userSpaceOnUse" x1="252.801" x2="257.079" xlink:href="#lg2" y1="110.371" y2="218.727"/><linearGradient id="SVGID_00000120538139128422519480000003436195304960952986_" gradientUnits="userSpaceOnUse" x1="157.615" x2="196.11" xlink:href="#lg2" y1="71.222" y2="142.509"/><linearGradient id="SVGID_00000037660282519259941500000000364846922148328860_" gradientUnits="userSpaceOnUse" x1="131.539" x2="158.628" y1="114.811" y2="163.286"><stop offset="0" stop-color="#eaf9fa"/><stop offset="1" stop-color="#b4d2e2"/></linearGradient><linearGradient id="SVGID_00000176007997068954812010000006413663165216444563_" gradientTransform="matrix(.906 -.423 .423 .906 -1880.362 397.821)" gradientUnits="userSpaceOnUse" x1="1985.278" x2="2054.413" y1="659.737" y2="904.014"><stop offset="0" stop-color="#537983"/><stop offset="1" stop-color="#384949"/></linearGradient><linearGradient id="lg3"><stop offset="0" stop-color="#1a1a1a" stop-opacity="0"/><stop offset="1" stop-color="#1a1a1a"/></linearGradient><linearGradient id="SVGID_00000056420694362803724400000014124364769531355009_" gradientTransform="matrix(.906 -.423 .423 .906 -1880.362 397.821)" gradientUnits="userSpaceOnUse" x1="2010.826" x2="2010.826" xlink:href="#lg3" y1="840.601" y2="890.65"/><linearGradient id="SVGID_00000055702925068481261870000004889754308254512535_" gradientTransform="matrix(.906 -.423 .423 .906 -1880.362 397.821)" gradientUnits="userSpaceOnUse" x1="2153.335" x2="2217.428" xlink:href="#lg3" y1="750.007" y2="750.007"/><linearGradient id="SVGID_00000163761404647574661040000013595597420688171951_" gradientTransform="matrix(.906 -.423 .423 .906 -37.384 112.757)" gradientUnits="userSpaceOnUse" x1="157.159" x2="159.8" xlink:href="#lg1" y1="242.246" y2="318.842"/><linearGradient id="SVGID_00000010290494841985987740000002155327861700473764_" gradientTransform="matrix(.906 -.423 .423 .906 -37.384 112.757)" gradientUnits="userSpaceOnUse" x1="221.224" x2="223.865" xlink:href="#lg1" y1="240.037" y2="316.633"/><linearGradient id="SVGID_00000134955599233589367700000011598750197575199646_" gradientTransform="matrix(.906 -.423 .423 .906 -37.384 112.757)" gradientUnits="userSpaceOnUse" x1="287.957" x2="290.598" xlink:href="#lg1" y1="237.735" y2="314.331"/><linearGradient id="SVGID_00000103263119801738537020000012911662561707099293_" gradientTransform="matrix(.906 -.423 .423 .906 -37.384 112.757)" gradientUnits="userSpaceOnUse" x1="213.839" x2="227.511" xlink:href="#lg1" y1="162.34" y2="193.226"/><linearGradient id="SVGID_00000106140679424888947040000016438885662149784492_" gradientTransform="matrix(.906 -.423 .423 .906 -37.384 112.757)" gradientUnits="userSpaceOnUse" x1="260.713" x2="276.69" xlink:href="#lg2" y1="159.628" y2="155.353"/><linearGradient id="SVGID_00000061468202810494259950000009219076889155083396_" gradientTransform="matrix(.906 -.423 .423 .906 -37.384 112.757)" gradientUnits="userSpaceOnUse" x1="220.047" x2="220.047" xlink:href="#lg2" y1="163.047" y2="176.562"/><linearGradient id="SVGID_00000101821765503235345410000018318502173563396011_" gradientTransform="matrix(.906 -.423 .423 .906 -37.384 112.757)" gradientUnits="userSpaceOnUse" x1="168.295" x2="181.493" xlink:href="#lg1" y1="133.841" y2="147.038"/><linearGradient id="SVGID_00000147914547779854108230000005453661241343114648_" gradientTransform="matrix(.906 -.423 .423 .906 -37.384 112.757)" gradientUnits="userSpaceOnUse" x1="173.946" x2="181.089" xlink:href="#lg2" y1="139.463" y2="146.179"/><linearGradient id="SVGID_00000169535926538583017860000006245584520547180203_" gradientTransform="matrix(.906 -.423 .423 .906 -37.384 112.757)" gradientUnits="userSpaceOnUse" x1="173.465" x2="173.465" xlink:href="#lg2" y1="143.048" y2="149.539"/><linearGradient id="SVGID_00000111889473074437465780000013965840608441819806_" gradientTransform="matrix(.906 -.423 .423 .906 -37.384 112.757)" gradientUnits="userSpaceOnUse" x1="214.878" x2="228.075" xlink:href="#lg1" y1="133.841" y2="147.038"/><linearGradient id="SVGID_00000178896523842451384970000010809375849650783886_" gradientTransform="matrix(.906 -.423 .423 .906 -37.384 112.757)" gradientUnits="userSpaceOnUse" x1="220.529" x2="227.672" xlink:href="#lg2" y1="139.463" y2="146.179"/><linearGradient id="SVGID_00000059309801518038303720000006628917193861373097_" gradientTransform="matrix(.906 -.423 .423 .906 -37.384 112.757)" gradientUnits="userSpaceOnUse" x1="220.047" x2="220.047" xlink:href="#lg2" y1="143.048" y2="149.539"/><linearGradient id="SVGID_00000075161910756294866460000005860198371736096155_" gradientTransform="matrix(.906 -.423 .423 .906 -37.384 112.757)" gradientUnits="userSpaceOnUse" x1="261.461" x2="274.658" xlink:href="#lg1" y1="133.841" y2="147.038"/><linearGradient id="SVGID_00000163037266308302604720000007521660345120745355_" gradientTransform="matrix(.906 -.423 .423 .906 -37.384 112.757)" gradientUnits="userSpaceOnUse" x1="267.111" x2="274.255" xlink:href="#lg2" y1="139.463" y2="146.179"/><linearGradient id="SVGID_00000036946682625121519400000015264230675423961734_" gradientTransform="matrix(.906 -.423 .423 .906 -37.384 112.757)" gradientUnits="userSpaceOnUse" x1="266.63" x2="266.63" xlink:href="#lg2" y1="143.048" y2="149.539"/><linearGradient id="SVGID_00000074407301005949914730000016705822589397060028_" gradientTransform="matrix(.906 -.423 .423 .906 -37.384 112.757)" gradientUnits="userSpaceOnUse" x1="220.047" x2="220.047" xlink:href="#lg1" y1="177.857" y2="189.354"/><linearGradient id="SVGID_00000150797782862814834530000018329579832810737848_" gradientUnits="userSpaceOnUse" x1="14.784" x2="126.339" xlink:href="#lg1" y1="256.375" y2="433.409"/><linearGradient id="SVGID_00000004542139280441879600000003891582510528824729_" gradientUnits="userSpaceOnUse" x1="352.689" x2="446.056" xlink:href="#lg1" y1="309.917" y2="450.574"/><linearGradient id="SVGID_00000013893582303762285610000003703148490286531500_" gradientUnits="userSpaceOnUse" x1="442.656" x2="525.297" xlink:href="#lg2" y1="351.641" y2="351.641"/><linearGradient id="SVGID_00000039121923256437601220000001876631528076130490_" gradientUnits="userSpaceOnUse" x1="427.614" x2="377.899" xlink:href="#lg2" y1="345.885" y2="448.953"/><linearGradient id="SVGID_00000091016139839450222440000003023687160535287211_" gradientUnits="userSpaceOnUse" x1="156.512" x2="224.42" xlink:href="#lg1" y1="356.756" y2="454.373"/><linearGradient id="SVGID_00000075878313915580953670000003393893342232270522_" gradientUnits="userSpaceOnUse" x1="256" x2="256" xlink:href="#lg2" y1="459.489" y2="515.386"/><g><path d="m478.731 186.115-198.849-177.025c-13.615-12.12-34.15-12.12-47.764 0l-198.849 177.025c-3.511 3.125-7.247 5.976-10.974 8.84-6.871 5.28-11.3 13.581-11.3 22.916v265.243c0 15.953 12.933 28.886 28.886 28.886h432.237c15.953 0 28.886-12.933 28.886-28.886v-265.243c0-9.335-4.429-17.636-11.3-22.916-3.726-2.864-7.463-5.715-10.973-8.84z" fill="url(#SVGID_1_)"/><g><path d="m483.42 191.28-179.15 153.94h-96.54l-179.15-153.94c-2.49 1.06 1.18-2.04 4.69-5.17l198.85-177.02c13.61-12.12 34.15-12.12 47.76 0l198.85 177.02c3.51 3.13 7.18 6.23 4.69 5.17z" fill="url(#SVGID_00000132807785507079801640000017335296900110632582_)"/></g><path d="m279.88 9.09c-13.61-12.12-34.15-12.12-47.76 0l-198.85 177.02c-3.51 3.13-7.18 6.23-4.69 5.17l27.846 23.928 298.457-139.349z" fill="url(#SVGID_00000120538139128422519480000003436195304960952986_)"/><path d="m448.176 195.702-171.57-152.74c-11.747-10.458-29.465-10.458-41.212 0l-171.57 152.74c-3.029 2.697-6.253 5.156-9.469 7.628-5.928 4.556-9.75 11.718-9.75 19.772v228.856c0 13.765 11.158 24.923 24.923 24.923h372.942c13.765 0 24.923-11.158 24.923-24.923v-228.856c0-8.055-3.821-15.216-9.75-19.772-3.214-2.472-6.438-4.932-9.467-7.628z" fill="url(#SVGID_00000037660282519259941500000000364846922148328860_)"/><g><g><path d="m465.221 273.487-303.685 141.61c-16.649 7.763-36.439.56-44.202-16.088l-80.58-172.802c-7.763-16.649-.56-36.439 16.088-44.202l303.686-141.611c16.649-7.763 36.439-.56 44.202 16.088l80.579 172.802c7.763 16.649.56 36.439-16.088 44.203z" fill="url(#SVGID_00000176007997068954812010000006413663165216444563_)"/><path d="m93.839 348.625 23.494 50.384c7.763 16.649 27.554 23.852 44.202 16.089l303.685-141.611c16.649-7.763 23.852-27.553 16.088-44.202l-23.494-50.385z" fill="url(#SVGID_00000056420694362803724400000014124364769531355009_)"/><path d="m356.528 40.394-134.08 62.523 108.692 233.093 134.08-62.523c16.649-7.763 23.852-27.553 16.088-44.202l-80.578-172.803c-7.764-16.649-27.554-23.852-44.202-16.088z" fill="url(#SVGID_00000055702925068481261870000004889754308254512535_)"/></g><g><g><path d="m160.739 272.268c-.535-.656-.866-1.126-.997-1.406-.607-1.303-.72-2.696-.334-4.18.386-1.482 1.093-2.947 2.12-4.391 1.028-1.441 2.248-2.776 3.66-4.002 1.412-1.225 2.863-2.187 4.354-2.882 1.768-.824 3.425-1.226 4.965-1.208 1.539.02 2.888.667 4.049 1.937l52.979 62.548-14.001-80.724c-.23-1.704.144-3.155 1.118-4.347.976-1.191 2.346-2.201 4.117-3.027 1.488-.694 3.158-1.188 5.006-1.483 1.846-.293 3.653-.369 5.419-.231 1.767.141 3.342.541 4.727 1.198 1.383.659 2.38 1.64 2.988 2.943.131.28.275.837.436 1.667l13.754 97.336c.383 2.771-.516 5.402-2.698 7.891-2.185 2.491-4.904 4.499-8.163 6.018-3.261 1.521-6.549 2.314-9.859 2.385-3.313.073-5.906-.93-7.78-3.006z" fill="url(#SVGID_00000163761404647574661040000013595597420688171951_)"/><path d="m247.904 226.86c-1.085-2.326-.726-4.534 1.077-6.625 1.805-2.087 4.056-3.762 6.758-5.022 2.7-1.259 5.431-1.907 8.19-1.948 2.761-.037 4.684 1.106 5.769 3.433l41.433 88.853c1.042 2.235.682 4.443-1.078 6.626-1.761 2.181-3.992 3.902-6.692 5.161-2.703 1.26-5.453 1.863-8.256 1.81-2.804-.055-4.725-1.199-5.767-3.433z" fill="url(#SVGID_00000010290494841985987740000002155327861700473764_)"/><path d="m284.784 209.662c-.824-1.768-.797-3.651.086-5.653.88-1.996 2.532-3.562 4.954-4.692l28.919-13.485c4.562-2.128 9.144-3.554 13.738-4.28 4.595-.723 8.945-.513 13.051.633 4.107 1.146 7.975 3.369 11.611 6.662 3.633 3.296 6.818 7.876 9.554 13.744l.325.698c2.736 5.868 4.174 11.264 4.317 16.186.141 4.926-.716 9.406-2.573 13.446-1.858 4.043-4.611 7.622-8.259 10.74-3.648 3.121-7.896 5.808-12.737 8.065l-13.831 6.45 14.072 30.177c1.042 2.235.682 4.443-1.078 6.626-1.761 2.181-3.992 3.902-6.692 5.161-2.703 1.26-5.453 1.863-8.256 1.81-2.804-.055-4.725-1.199-5.767-3.433zm27.592 2.271 13.745 29.477 13.831-6.45c3.911-1.824 6.454-4.396 7.624-7.721 1.171-3.323.65-7.361-1.565-12.112l-.717-1.537c-2.215-4.749-4.972-7.742-8.271-8.983-3.299-1.24-6.906-.948-10.816.876z" fill="url(#SVGID_00000134955599233589367700000011598750197575199646_)"/></g><g><path d="m296.762 163.738-32.492-40.251-11.248 27.841c-2.211 5.473-8.812 7.645-13.841 4.554l-19.147-11.768-3.293 22.232c-.865 5.839-6.772 9.5-12.386 7.676l-28.557-9.28 9.949 50.763z" fill="url(#SVGID_00000103263119801738537020000012911662561707099293_)"/><path d="m239.181 155.883-19.147-11.768-.338 2.282 20.407 43.762 56.659-26.421-32.492-40.251-11.248 27.841c-2.211 5.474-8.812 7.646-13.841 4.555z" fill="url(#SVGID_00000106140679424888947040000016438885662149784492_)"/><path d="m253.022 151.329c-2.202 5.45-8.755 7.625-13.776 4.592l-22.518 10.5c-.904 5.796-6.783 9.418-12.373 7.602l-2.316-.753-22.513 10.498 6.22 31.738 111.015-51.767-20.314-25.165-22.513 10.498z" fill="url(#SVGID_00000061468202810494259950000009219076889155083396_)"/><g><g><path d="m174.19 156.026c-5.195 2.423-7.443 8.599-5.021 13.794s8.599 7.443 13.794 5.021 7.443-8.599 5.021-13.794c-2.423-5.196-8.599-7.444-13.794-5.021z" fill="url(#SVGID_00000101821765503235345410000018318502173563396011_)"/><path d="m179.986 155.149-6.941 19.069c2.884 1.812 6.601 2.17 9.918.623 5.195-2.423 7.443-8.599 5.021-13.794-1.547-3.317-4.623-5.433-7.998-5.898z" fill="url(#SVGID_00000147914547779854108230000005453661241343114648_)"/><path d="m169.169 169.82c2.423 5.195 8.599 7.443 13.794 5.021s7.443-8.599 5.021-13.794c-.263-.564-.57-1.093-.915-1.585l-18.525 8.638c.155.581.362 1.156.625 1.72z" fill="url(#SVGID_00000169535926538583017860000006245584520547180203_)"/></g><g><path d="m216.408 136.339c-5.195 2.423-7.443 8.599-5.021 13.794s8.599 7.443 13.794 5.021 7.443-8.599 5.021-13.794-8.598-7.443-13.794-5.021z" fill="url(#SVGID_00000111889473074437465780000013965840608441819806_)"/><path d="m222.204 135.462-6.941 19.069c2.884 1.812 6.601 2.17 9.918.623 5.195-2.423 7.443-8.599 5.021-13.794-1.546-3.317-4.623-5.432-7.998-5.898z" fill="url(#SVGID_00000178896523842451384970000010809375849650783886_)"/><path d="m211.388 150.133c2.423 5.195 8.599 7.443 13.794 5.021s7.443-8.599 5.021-13.794c-.263-.564-.57-1.093-.915-1.585l-18.525 8.638c.154.581.362 1.157.625 1.72z" fill="url(#SVGID_00000059309801518038303720000006628917193861373097_)"/></g><g><path d="m258.626 116.653c-5.195 2.423-7.443 8.599-5.021 13.794s8.599 7.443 13.794 5.021 7.443-8.599 5.021-13.794-8.598-7.444-13.794-5.021z" fill="url(#SVGID_00000075161910756294866460000005860198371736096155_)"/><path d="m264.423 115.775-6.941 19.069c2.884 1.812 6.601 2.17 9.918.623 5.195-2.423 7.443-8.599 5.021-13.794-1.547-3.317-4.624-5.432-7.998-5.898z" fill="url(#SVGID_00000163037266308302604720000007521660345120745355_)"/><path d="m253.606 130.447c2.423 5.195 8.599 7.443 13.794 5.021s7.443-8.599 5.021-13.794c-.263-.564-.57-1.093-.915-1.585l-18.525 8.638c.154.581.362 1.156.625 1.72z" fill="url(#SVGID_00000036946682625121519400000015264230675423961734_)"/></g></g><path d="m292.765 170.693-99.121 46.221c-4.731 2.206-10.354.159-12.56-4.572-2.206-4.731-.159-10.354 4.572-12.56l99.121-46.221c4.731-2.206 10.354-.159 12.56 4.572 2.205 4.73.158 10.353-4.572 12.56z" fill="url(#SVGID_00000074407301005949914730000016705822589397060028_)"/></g></g></g><path d="m28.581 191.283 211.791 181.992v138.725h-200.491c-15.953 0-28.886-12.933-28.886-28.886v-265.243c.001-11.942 7.249-22.189 17.586-26.588z" fill="url(#SVGID_00000150797782862814834530000018329579832810737848_)"/><path d="m483.419 191.283-211.791 181.992v138.725h200.491c15.953 0 28.886-12.933 28.886-28.886v-265.243c-.001-11.942-7.249-22.189-17.586-26.588z" fill="url(#SVGID_00000004542139280441879600000003891582510528824729_)"/><path d="m483.419 191.283-211.791 181.992v138.725h200.491c15.953 0 28.886-12.933 28.886-28.886v-265.243c-.001-11.942-7.249-22.189-17.586-26.588z" fill="url(#SVGID_00000013893582303762285610000003703148490286531500_)"/><path d="m483.419 191.283-211.791 181.992v138.725h200.491c15.953 0 28.886-12.933 28.886-28.886v-265.243c-.001-11.942-7.249-22.189-17.586-26.588z" fill="url(#SVGID_00000039121923256437601220000001876631528076130490_)"/><path d="m495.693 499.77-215.811-192.125c-13.615-12.12-34.15-12.12-47.764 0l-215.811 192.125c5.232 7.391 13.83 12.23 23.575 12.23h432.237c9.744 0 18.343-4.839 23.574-12.23z" fill="url(#SVGID_00000091016139839450222440000003023687160535287211_)"/><path d="m10.996 401.716v81.398c0 15.953 12.933 28.886 28.886 28.886h432.237c15.953 0 28.886-12.933 28.886-28.886v-81.398z" fill="url(#SVGID_00000075878313915580953670000003393893342232270522_)"/></g></svg>