<svg id="Capa_1" enable-background="new 0 0 510 510" height="512" viewBox="0 0 510 510" width="512" xmlns="http://www.w3.org/2000/svg" xmlns:xlink="http://www.w3.org/1999/xlink"><linearGradient id="lg1"><stop offset="0" stop-color="#9b62cd"/><stop offset=".3003" stop-color="#985dcb"/><stop offset=".6716" stop-color="#8f4ec7"/><stop offset="1" stop-color="#833ac1"/></linearGradient><linearGradient id="SVGID_1_" gradientUnits="userSpaceOnUse" x1="255" x2="255" xlink:href="#lg1" y1="74.934" y2="252.083"/><linearGradient id="SVGID_2_" gradientUnits="userSpaceOnUse" x1="255" x2="255" y1="71.528" y2="223.132"><stop offset="0" stop-color="#f8f6fb"/><stop offset="1" stop-color="#efdcfb"/></linearGradient><linearGradient id="lg2"><stop offset="0" stop-color="#ff7044"/><stop offset="1" stop-color="#f82814"/></linearGradient><linearGradient id="SVGID_3_" gradientUnits="userSpaceOnUse" x1="218.299" x2="318.098" xlink:href="#lg2" y1="156.277" y2="331.705"/><linearGradient id="SVGID_4_" gradientUnits="userSpaceOnUse" x1="241.621" x2="277.622" xlink:href="#lg2" y1="302.66" y2="388.51"/><linearGradient id="lg3"><stop offset="0" stop-color="#f82814" stop-opacity="0"/><stop offset="1" stop-color="#c0272d"/></linearGradient><linearGradient id="SVGID_5_" gradientUnits="userSpaceOnUse" x1="256.599" x2="256.599" xlink:href="#lg3" y1="273.671" y2="238.551"/><linearGradient id="SVGID_6_" gradientUnits="userSpaceOnUse" x1="319.8" x2="274.118" xlink:href="#lg3" y1="246.051" y2="246.051"/><linearGradient id="lg4"><stop offset="0" stop-color="#ffd945"/><stop offset=".3043" stop-color="#ffcd3e"/><stop offset=".8558" stop-color="#ffad2b"/><stop offset="1" stop-color="#ffa325"/></linearGradient><linearGradient id="SVGID_7_" gradientUnits="userSpaceOnUse" x1="217.829" x2="309.187" xlink:href="#lg4" y1="240.432" y2="254.242"/><linearGradient id="SVGID_8_" gradientUnits="userSpaceOnUse" x1="248.901" x2="269.395" xlink:href="#lg4" y1="182.379" y2="272.706"/><linearGradient id="SVGID_9_" gradientUnits="userSpaceOnUse" x1="246.357" x2="275.039" xlink:href="#lg4" y1="336.054" y2="370.048"/><linearGradient id="lg5"><stop offset="0" stop-color="#f35227" stop-opacity="0"/><stop offset="1" stop-color="#f35227"/></linearGradient><linearGradient id="SVGID_10_" gradientUnits="userSpaceOnUse" x1="259.63" x2="193.413" xlink:href="#lg5" y1="213.914" y2="133.179"/><linearGradient id="SVGID_11_" gradientUnits="userSpaceOnUse" x1="318.229" x2="244.222" xlink:href="#lg3" y1="285.164" y2="205.492"/><linearGradient id="SVGID_12_" gradientUnits="userSpaceOnUse" x1="304.905" x2="292.158" xlink:href="#lg4" y1="234.072" y2="279.751"/><linearGradient id="SVGID_13_" gradientUnits="userSpaceOnUse" x1="197.18" x2="227.986" xlink:href="#lg4" y1="236.806" y2="275.756"/><linearGradient id="SVGID_14_" gradientUnits="userSpaceOnUse" x1="282.243" x2="281.181" xlink:href="#lg5" y1="246.342" y2="206.506"/><linearGradient id="SVGID_15_" gradientUnits="userSpaceOnUse" x1="312.715" x2="342.459" xlink:href="#lg4" y1="137.871" y2="207.982"/><linearGradient id="SVGID_16_" gradientTransform="matrix(1 .004 -.004 1 1698.153 311.933)" gradientUnits="userSpaceOnUse" x1="-1366.527" x2="-1428.846" xlink:href="#lg5" y1="-108.635" y2="-138.64"/><linearGradient id="SVGID_17_" gradientUnits="userSpaceOnUse" x1="184.536" x2="179.225" xlink:href="#lg4" y1="136.473" y2="212.428"/><linearGradient id="SVGID_18_" gradientTransform="matrix(-1 .004 .004 1 -1063.473 311.933)" gradientUnits="userSpaceOnUse" x1="-1241.85" x2="-1304.168" xlink:href="#lg5" y1="-109.146" y2="-139.151"/><linearGradient id="SVGID_19_" gradientTransform="matrix(.844 -.537 .537 .844 1369.374 -250.15)" gradientUnits="userSpaceOnUse" x1="-1188.017" x2="-1185.476" xlink:href="#lg4" y1="-227.735" y2="-179.636"/><linearGradient id="SVGID_20_" gradientTransform="matrix(.844 -.537 .537 .844 1369.374 -250.15)" gradientUnits="userSpaceOnUse" x1="-1187.105" x2="-1187.105" y1="-203.895" y2="-258.315"><stop offset="0" stop-color="#ffd945" stop-opacity="0"/><stop offset="1" stop-color="#fbed21"/></linearGradient><linearGradient id="SVGID_21_" gradientTransform="matrix(1 -.014 .014 1 2381.055 -395.275)" gradientUnits="userSpaceOnUse" x1="-2133.45" x2="-2092.385" xlink:href="#lg5" y1="586.159" y2="509.785"/><linearGradient id="SVGID_22_" gradientUnits="userSpaceOnUse" x1="137.341" x2="137.341" xlink:href="#lg1" y1="314.475" y2="497.253"/><linearGradient id="SVGID_23_" gradientTransform="matrix(-1 0 0 1 302.719 0)" gradientUnits="userSpaceOnUse" x1="-69.94" x2="-69.94" xlink:href="#lg1" y1="314.475" y2="497.253"/><linearGradient id="SVGID_24_" gradientUnits="userSpaceOnUse" x1="237.776" x2="265.023" xlink:href="#lg1" y1="375.682" y2="559.595"/><g><path d="m471.658 185.965-187.928-178.391c-17.822-10.099-39.638-10.099-57.46 0l-187.942 178.399c-.042.024-.084.048-.126.072-3.904 2.218-6.299 6.375-6.299 10.865v289.396c0 13.086 10.608 23.695 23.695 23.695h398.804c13.086 0 23.695-10.608 23.695-23.695v-289.396c0-4.49-2.395-8.646-6.298-10.865-.047-.027-.094-.053-.141-.08z" fill="url(#SVGID_1_)"/><path d="m413.591 501.845h-317.182c-17.887 0-32.387-14.5-32.387-32.387v-374.507c0-17.887 14.5-32.387 32.387-32.387h317.183c17.887 0 32.387 14.5 32.387 32.387v374.507c0 17.887-14.5 32.387-32.388 32.387z" fill="url(#SVGID_2_)"/><g><g><path d="m374.508 316.555h-235.817v-180.648c0-10.961 8.886-19.847 19.847-19.847h196.123c10.961 0 19.847 8.886 19.847 19.847z" fill="url(#SVGID_3_)"/><path d="m374.508 316.555h-235.817v39.639c0 10.961 8.886 19.847 19.847 19.847h196.123c10.961 0 19.847-8.886 19.847-19.847z" fill="url(#SVGID_4_)"/></g><path d="m138.691 230.826h235.817v85.73h-235.817z" fill="url(#SVGID_5_)"/><path d="m354.661 116.06h-91.694v259.982h91.694c10.961 0 19.847-8.886 19.847-19.847v-39.639-180.649c0-10.961-8.886-19.847-19.847-19.847z" fill="url(#SVGID_6_)"/><g><path d="m226.849 116.06h56.302v259.982h-56.302z" fill="url(#SVGID_7_)"/></g><path d="m138.69 188.157h235.817v56.302h-235.817z" fill="url(#SVGID_8_)"/><path d="m226.849 316.555h56.302v59.486h-56.302z" fill="url(#SVGID_9_)"/><path d="m374.508 244.459v-56.302h-91.357v-38.66c-2.145 2.853-4.082 5.896-5.771 9.121l-12.156 23.211c-2.139-.779-4.39-1.319-6.721-1.593l-31.653-31.617v39.539h-91.625c2.142 2.708 4.46 5.255 6.973 7.581l46.129 46.163c-1.287.875-2.599 1.722-3.925 2.558h42.449v95.31l36.273 36.273h20.029v-131.584z" fill="url(#SVGID_10_)"/><path d="m374.508 188.157v168.033c0 10.963-8.881 19.854-19.844 19.854h-91.538l-77.824-77.824c-1.763-.138-3.293-1.54-3.368-3.463l-.467-11.197-20.385-20.205c-3.261-1.03-3.431-5.556-.266-6.852 8.573-3.527 16.37-7.489 23.594-12.047h98.74v-56.302h91.358z" fill="url(#SVGID_11_)"/><g><g><path d="m349.185 256.502c-29.581-12.142-50.082-29.588-68.289-57.68l-31.091 39.534c19.22 29.654 40.994 47.446 73.308 59.657 2.33.88 4.849-.768 4.953-3.257l.782-18.775c.16-3.855 2.722-7.194 6.403-8.348l13.661-4.281c3.264-1.023 3.436-5.552.273-6.85z" fill="url(#SVGID_12_)"/><path d="m160.815 256.502c29.581-12.142 50.082-29.588 68.289-57.68l31.091 39.534c-19.22 29.654-40.994 47.446-73.308 59.657-2.33.88-4.849-.768-4.953-3.257l-.782-18.775c-.16-3.855-2.722-7.194-6.403-8.348l-13.661-4.281c-3.264-1.023-3.436-5.552-.273-6.85z" fill="url(#SVGID_13_)"/></g><path d="m349.185 256.502c-29.581-12.142-50.082-29.588-68.289-57.68l-25.896 32.929-25.897-32.929c-5.226 8.063-10.643 15.246-16.408 21.681v.001l34.988 34.988c2.494-3.015 4.931-6.174 7.316-9.508 17.982 25.141 38.673 40.903 68.114 52.029 2.33.88 4.849-.768 4.953-3.257l.782-18.775c.16-3.855 2.722-7.194 6.403-8.348l13.661-4.281c3.264-1.023 3.436-5.552.273-6.85z" fill="url(#SVGID_14_)"/><g><g><g><path d="m257.229 197.094 20.15-38.477c11.536-22.028 34.386-35.792 59.251-35.69l45.396.185c15.201.062 24.319 16.912 16.054 29.67l-19.63 30.305c-9.561 14.76-24.573 25.138-41.759 28.868l-58.472 12.691c-15.851 3.441-28.515-13.182-20.99-27.552z" fill="url(#SVGID_15_)"/><path d="m357.083 163.69c-40.213-.164-76.488 16.778-101.988 43.964.975 10.706 11.128 19.597 23.125 16.993l58.473-12.691c17.186-3.73 32.198-14.108 41.758-28.868l10.13-15.639c-10.12-2.391-20.654-3.715-31.498-3.759z" fill="url(#SVGID_16_)"/></g><g><g><path d="m252.771 197.094-20.15-38.477c-11.536-22.028-34.386-35.792-59.251-35.69l-45.396.185c-15.201.062-24.319 16.912-16.054 29.67l19.63 30.305c9.561 14.76 24.573 25.138 41.759 28.868l58.472 12.691c15.851 3.441 28.515-13.182 20.99-27.552z" fill="url(#SVGID_17_)"/><path d="m152.917 163.69c40.213-.164 76.488 16.778 101.988 43.964-.975 10.706-11.128 19.597-23.125 16.993l-58.472-12.691c-17.186-3.73-32.198-14.108-41.758-28.868l-10.13-15.639c10.119-2.391 20.653-3.715 31.497-3.759z" fill="url(#SVGID_18_)"/></g></g></g><g><path d="m284.876 209.474c.235 16.497-12.95 30.061-29.45 30.297-16.5.235-30.067-12.947-30.302-29.445-.235-16.497 12.95-30.061 29.45-30.297 16.5-.235 30.067 12.948 30.302 29.445z" fill="url(#SVGID_19_)"/><path d="m279.934 209.545c.196 13.768-10.808 25.089-24.579 25.285s-25.094-10.806-25.29-24.574 10.808-25.089 24.579-25.285c13.771-.197 25.094 10.806 25.29 24.574z" fill="url(#SVGID_20_)"/><path d="m267.983 182.989c2.072 3.992 3.273 8.514 3.341 13.317.235 16.497-12.95 30.061-29.45 30.297-4.804.069-9.359-1.002-13.409-2.96 5.045 9.718 15.265 16.294 26.961 16.127 16.5-.235 29.685-13.8 29.45-30.297-.166-11.692-7.033-21.719-16.893-26.484z" fill="url(#SVGID_21_)"/></g></g></g></g><path d="m55.598 510c-13.086 0-23.695-10.608-23.695-23.695v-280.086c0-.467.014-.932.04-1.392.976-16.84 22.154-23.917 33.637-11.561l171.691 184.734c9.046 9.733 6.631 25.361-4.932 31.908z" fill="url(#SVGID_22_)"/><path d="m454.402 510c13.086 0 23.695-10.608 23.695-23.695v-280.086c0-.467-.014-.932-.04-1.392-.976-16.84-22.154-23.917-33.637-11.561l-171.691 184.734c-9.046 9.733-6.631 25.361 4.932 31.908z" fill="url(#SVGID_23_)"/><path d="m454.402 510h-398.804c-9.82 0-18.245-5.974-21.839-14.486-2.014-4.77.064-10.297 4.569-12.849l187.942-106.499c17.822-10.099 39.638-10.099 57.46 0l187.928 106.491c4.698 2.662 6.572 8.469 4.349 13.391-3.715 8.227-11.992 13.952-21.605 13.952z" fill="url(#SVGID_24_)"/></g></svg>