<svg viewBox="0 0 512 512" xmlns="http://www.w3.org/2000/svg"><g id="Layer_2" data-name="Layer 2"><g id="Layer_1-2" data-name="Layer 1"><g id="_105" data-name="105"><g id="user"><path d="m382.79 512h-359.79a23 23 0 0 1 -22.23-28.82l6.13-23.37a107.4 107.4 0 0 1 103.88-80.11h184.22a107.4 107.4 0 0 1 103.88 80.11l6.12 23.37a23 23 0 0 1 -22.21 28.82z" fill="#0593fc"/><path d="m35 483.17a23 23 0 0 0 22.26 28.83h-34.26a23 23 0 0 1 -22.23-28.83l6.13-23.36a107.39 107.39 0 0 1 103.88-80.11h34.22a107.38 107.38 0 0 0 -103.83 80.11z" fill="#0584e3"/><path d="m93.84 464.25v47.75h-26.52v-47.75a13.26 13.26 0 1 1 26.52 0z" fill="#056bb8"/><path d="m338.47 464.25v47.75h-26.47v-47.75a13.26 13.26 0 0 1 26.52 0z" fill="#056bb8"/><path d="m239.08 319v35c0 16.9 17 25.74 17 25.74-35.87 33-71.32 33.81-106.34 0 0 0 17-8.84 17-25.74v-35z" fill="#f6a76e"/><path d="m350.64 128.63c0 71-71.53 128.52-159.76 128.52s-138.63-60.07-145.7-122c-8.06-70.5 39.24-138.15 127.42-135.05 116.14 4.13 178.04 57.55 178.04 128.53z" fill="#883f2e"/><path d="m218.5 255.24a198.7 198.7 0 0 1 -27.62 1.91c-88.24 0-138.63-60.07-145.71-122-8.05-70.5 39.25-138.15 127.43-135.04q12.87.45 24.85 1.71c-69.22 11-105.25 71.09-98.13 133.36 6.32 55.4 47.36 109.35 119.18 120.06z" fill="#6b3125"/><path d="m343.75 219.86a32.66 32.66 0 0 1 -32.68 32.68h-223.43a32.69 32.69 0 1 1 0-65.37h223.43a32.68 32.68 0 0 1 32.68 32.69z" fill="#ffbc85"/><path d="m199.35 187.17v65.37h-111.71a32.69 32.69 0 1 1 0-65.37z" fill="#f1a96e"/><path d="m311.83 167.73v55.74a112.48 112.48 0 0 1 -112.47 112.53 112.48 112.48 0 0 1 -112.48-112.53v-64.57a18.76 18.76 0 0 1 5.35-13.12c5.1-5.21 13-10.36 25-13.7 0 0 18.1-6 29.62-33.07a3.6 3.6 0 0 1 5.53-1.43c13.81 10.84 64.93 46.73 138.6 48.81a21.38 21.38 0 0 1 20.85 21.34z" fill="#fed2a5"/><path d="m209.17 335.51c-3.23.29-6.51.44-9.82.44a112.48 112.48 0 0 1 -112.47-112.48v-64.57a18.78 18.78 0 0 1 5.35-13.12c5.1-5.21 13-10.36 25-13.7 0 0 18.11-6 29.62-33.06a3.6 3.6 0 0 1 5.53-1.44 210.58 210.58 0 0 0 27 17.73c-10.7 16.23-22.79 20.25-22.79 20.25-12.06 3.34-19.91 8.48-25 13.7a18.75 18.75 0 0 0 -5.36 13.12v64.62a112.56 112.56 0 0 0 83 108.56z" fill="#ffbc85"/></g><circle cx="394" cy="394" fill="#b9e600" r="118"/><path d="m512 394a118 118 0 0 1 -118 118v-236a118 118 0 0 1 118 118z" fill="#7c0"/><path d="m464 394a18 18 0 0 1 -18 18h-34v34a18 18 0 0 1 -36 0v-34h-34a18 18 0 0 1 0-36h34v-34a18 18 0 0 1 36 0v34h34a18 18 0 0 1 18 18z" fill="#fff5f5"/><path d="m464 394a18 18 0 0 1 -18 18h-34v34a18 18 0 0 1 -18 18v-140a18 18 0 0 1 18 18v34h34a18 18 0 0 1 18 18z" fill="#d8e6eb"/></g></g></g></svg>