<svg id="Layer_1" height="512" viewBox="0 0 48 48" width="512" xmlns="http://www.w3.org/2000/svg" xmlns:xlink="http://www.w3.org/1999/xlink" data-name="Layer 1"><linearGradient id="linear-gradient" gradientUnits="userSpaceOnUse" x1="24" x2="24" y1="4.274" y2="30.545"><stop offset="0" stop-color="#fd9b02"/><stop offset="1" stop-color="#ff7302"/></linearGradient><linearGradient id="linear-gradient-2" gradientUnits="userSpaceOnUse" x1="24" x2="24" y1="6.108" y2="30.882"><stop offset="0" stop-color="#edf1f2"/><stop offset=".336" stop-color="#e9edee"/><stop offset=".636" stop-color="#dee2e3"/><stop offset=".921" stop-color="#ccd1d2"/><stop offset="1" stop-color="#c6cbcc"/></linearGradient><linearGradient id="linear-gradient-3" gradientUnits="userSpaceOnUse" x1="2.442" x2="42.569" y1="19.018" y2="41.374"><stop offset="0" stop-color="#fed200"/><stop offset="1" stop-color="#f59815"/></linearGradient><linearGradient id="linear-gradient-4" x1="15.463" x2="35.412" xlink:href="#linear-gradient-3" y1="28.773" y2="62.365"/><linearGradient id="linear-gradient-5" gradientUnits="userSpaceOnUse" x1="18.706" x2="29.276" y1="9.409" y2="19.979"><stop offset="0" stop-color="#e85155"/><stop offset=".273" stop-color="#e1484d"/><stop offset=".717" stop-color="#cf2f3a"/><stop offset="1" stop-color="#c21d2c"/></linearGradient><path d="m40 46h-32c-2.757 0-5-2.243-5-5v-21.2c0-1.527.684-2.95 1.876-3.904l16-12.8c1.839-1.472 4.408-1.472 6.247 0l16 12.8c1.192.954 1.876 2.376 1.876 3.904v21.2c0 2.757-2.243 5-5 5z" fill="url(#linear-gradient)"/><path d="m39 38h-30c-.552 0-1-.448-1-1v-28c0-1.654 1.346-3 3-3h26c1.654 0 3 1.346 3 3v28c0 .552-.448 1-1 1z" fill="url(#linear-gradient-2)"/><path d="m27.125 31.912c-1.812 1.451-4.44 1.451-6.25 0l-17.499-14.001c-.241.592-.376 1.229-.376 1.889v21.2c0 2.757 2.243 5 5 5h32c2.757 0 5-2.243 5-5v-21.2c0-.66-.135-1.297-.376-1.889z" fill="url(#linear-gradient-3)"/><path d="m27.125 29.22c-1.812-1.451-4.44-1.451-6.25 0l-17.382 13.907c.802 1.692 2.514 2.873 4.507 2.873h32c1.993 0 3.705-1.181 4.507-2.873z" fill="url(#linear-gradient-4)"/><path d="m27.313 21.339 3.313-3.321c1.831-1.836 1.831-4.807 0-6.643-1.829-1.833-4.798-1.833-6.627 0s0 0 0 0c-1.829-1.833-4.798-1.833-6.627 0-1.831 1.836-1.831 4.807 0 6.643s3.313 3.321 3.313 3.321l1.897 1.902c.781.783 2.05.783 2.832 0l1.897-1.902z" fill="url(#linear-gradient-5)"/></svg>