<svg id="Layer_1" enable-background="new 0 0 512 512" height="512" viewBox="0 0 512 512" width="512" xmlns="http://www.w3.org/2000/svg"><g id="Layer_2_00000128468171064287329210000000658526331907998595_"><g id="user_add"><path d="m452.7 46.4h-393.4c-32.8 0-59.3 26.6-59.3 59.3v244.6c0 32.7 26.5 59.2 59.3 59.2h127.9l47 47c12.1 12.1 31.7 12.1 43.8 0l47-47h127.8c32.7 0 59.3-26.5 59.3-59.2v-244.6c-.1-32.7-26.6-59.3-59.4-59.3z" fill="#ff2147"/><g fill="#fff"><circle cx="216.5" cy="179.7" r="40.9"/><path d="m176.5 236.9h79.9c19.6 0 35.5 15.9 35.6 35.5v.1 27.3c0 9.5-7.7 17.2-17.2 17.2h-116.6c-9.5 0-17.2-7.7-17.2-17.2v-27.3c0-19.7 15.9-35.6 35.5-35.6z"/><path d="m355.4 183.2h-10.9v-11c0-8.6-7-15.6-15.6-15.6-8.6 0-15.6 7-15.6 15.6v11h-11c-8.6 0-15.6 7-15.6 15.6 0 8.6 7 15.6 15.6 15.6h11v10.9c0 8.6 7 15.6 15.6 15.6 8.6 0 15.6-7 15.6-15.6v-10.9h11c8.6 0 15.6-7 15.6-15.6-.1-8.6-7.1-15.6-15.7-15.6z"/></g></g></g></svg>