<svg height="512" viewBox="0 0 64 64" width="512" xmlns="http://www.w3.org/2000/svg"><g id="_05_Add_friend" data-name="05 Add friend"><path d="m29.0011 2c-35.9983.6313-36.004 53.3635-.0011 54 35.9971-.6313 36.0028-53.3635.0011-54z" fill="#26a6fe"/><path d="m29.0007 7c-29.3307.758-29.3371 43.2377-.0007 44 29.33-.758 29.3364-43.2377.0007-44z" fill="#eee"/><path d="m50.0007 38c-15.689.0808-15.6907 23.917-.0007 24 15.6884-.0809 15.69-23.917.0007-24z" fill="#ff3c38"/><path d="m42.6182 35.5166c.0763-7.5834-7.9161-8.304-13.6182-9.0718-5.5136.6475-13.8994 1.7155-13.6182 9.0718-.2651 2.5162.3517 5.5662 3.2491 6.1094a38.22 38.22 0 0 0 20.7382 0c2.8966-.543 3.5146-3.5926 3.2491-6.1094z" fill="#ffc107"/><path d="m56 49h-5v-5a1 1 0 0 0 -2 0v5h-5a1 1 0 0 0 0 2h5v5a1 1 0 0 0 2 0v-5h5a1 1 0 0 0 0-2z" fill="#eee"/><path d="m29.0005 14.8213c-10 .05-10.0009 14.9484 0 15 9.9995-.0502 10-14.9484 0-15z" fill="#ffa000"/></g></svg>