<svg viewBox="0 0 512 512" xmlns="http://www.w3.org/2000/svg" xmlns:xlink="http://www.w3.org/1999/xlink"><linearGradient id="linear-gradient" gradientUnits="userSpaceOnUse" x1="107.75" x2="411.52" y1="158.74" y2="462.51"><stop offset="0" stop-color="#cc0e0e"/><stop offset="1" stop-color="#cc0e0e" stop-opacity="0"/></linearGradient><g id="Layer_2" data-name="Layer 2"><g id="Layer_1_copy_9" data-name="Layer 1 copy 9"><g id="_105" data-name="105"><circle id="background" cx="256" cy="256" fill="#ff4c4c" r="256"/><path d="m504.66 317.08c-27.39 111.92-128.33 194.92-248.66 194.92a258.62 258.62 0 0 1 -36.08-2.52l-107.36-107.36-4.3-9.63 2.74-12.32 3.66-14 8.46-15.44 15.95-15.5 18.85-9.07 16.36-2.77 27.3-.07 4.36-2 2.42-3.72 4.29-6.43v-6.17l-32.45-32.47-7.8-10.65-24.82-24.82-5.1-11.36 1.26-9.68 6-8.32-4.44-7.6-9.42-33.74 6.49-37.67 26.17-30.69 39.3-11.86 48.16 5.18 40.52 17.62z" fill="url(#linear-gradient)"/><g fill="#fff"><path d="m158.36 367.87a8.29 8.29 0 0 0 -8.28 8.29v29.84h16.57v-29.84a8.3 8.3 0 0 0 -8.29-8.29z"/><path d="m303 406h16.57v-4.2a77.43 77.43 0 0 1 -16.57-11.16z"/><path d="m277 323.31h-3l-3.2 2.94c-12.11 11.1-24.33 16.75-36.39 16.75s-24.08-5.65-35.61-16.78l-3-2.88h-18.57a67.13 67.13 0 0 0 -64.92 50.07l-3.83 14.59a14.37 14.37 0 0 0 13.89 18h23.71v-29.84a12.29 12.29 0 1 1 24.57 0v29.84h128.35v-19.14a77.47 77.47 0 0 1 -22.47-54.61 75.57 75.57 0 0 1 .47-8.94z"/><path d="m323.54 403.67v2.33h6.08q-3.1-1-6.08-2.33z"/><path d="m232.6 300a73.87 73.87 0 0 1 -20.4-2.85v10.1c0 10.57-10.62 16.09-10.62 16.09 21.88 21.13 44 20.63 66.46 0 0 0-10.62-5.52-10.62-16.09v-11.54a74 74 0 0 1 -24.82 4.29z"/><path d="m147.59 204.27a24.29 24.29 0 0 1 10.71-4.88v-14.08a15.59 15.59 0 0 1 4.49-11c4.24-4.34 10.06-7.57 17.28-9.59.87-.32 9.92-4 16-18.41a6.24 6.24 0 0 1 9.6-2.48c8.46 6.64 39.54 28.39 84.28 29.66a17.27 17.27 0 0 1 16.9 17.33v8.57a24.17 24.17 0 0 1 9.19 3.79 67.71 67.71 0 0 0 11.07-36.8c0-44.36-38.69-77.75-111.27-80.32-55.12-2-84.68 40.34-79.65 84.41a85.62 85.62 0 0 0 11.4 33.8z"/><path d="m148.33 209a20.43 20.43 0 0 0 12.19 34.75 74 74 0 0 1 -2.22-18v-22.27a20.4 20.4 0 0 0 -9.97 5.52z"/><path d="m306.89 203.48v22.19a74 74 0 0 1 -2.22 18 20.43 20.43 0 0 0 2.22-40.23z"/><path d="m289.87 177.49c-46-1.3-78-23.73-86.63-30.5a2.25 2.25 0 0 0 -3.45.89c-7.2 16.91-18.51 20.67-18.51 20.67-7.54 2.09-12.45 5.3-15.63 8.56a11.73 11.73 0 0 0 -3.35 8.2v40.36a70.3 70.3 0 0 0 70.3 70.33 70.3 70.3 0 0 0 70.29-70.3v-34.87a13.37 13.37 0 0 0 -13.02-13.34z"/><path d="m354.25 258.5a73.75 73.75 0 1 0 73.75 73.75 73.75 73.75 0 0 0 -73.75-73.75zm32.5 85h-21.25v21.25a11.25 11.25 0 0 1 -22.5 0v-21.25h-21.25a11.25 11.25 0 0 1 0-22.5h21.25v-21.25a11.25 11.25 0 0 1 22.5 0v21.25h21.25a11.25 11.25 0 0 1 0 22.5z"/></g></g></g></g></svg>