<svg height="512pt" viewBox="0 0 512 512" width="512pt" xmlns="http://www.w3.org/2000/svg"><path d="m512 256c0 95.890625-52.726562 179.472656-130.769531 223.324219-37.019531 20.804687-79.734375 32.675781-125.230469 32.675781-41.546875 0-80.78125-9.894531-115.472656-27.460938-16.875-8.535156-32.671875-18.890624-47.144532-30.8125-57.019531-46.949218-93.382812-118.09375-93.382812-197.726562 0-141.386719 114.613281-256 256-256s256 114.613281 256 256zm0 0" fill="#fecf32"/><path d="m381.230469 479.324219c-37.019531 20.804687-79.734375 32.675781-125.230469 32.675781-41.546875 0-80.78125-9.894531-115.472656-27.460938-16.875-8.535156-32.671875-18.890624-47.144532-30.8125 15.371094-27.09375 41.347657-47.375 72.285157-55.214843 6.175781-1.574219 12.550781-2.640625 19.082031-3.164063 3.121094-.25 6.277344-.386718 9.476562-.386718h75.449219c8.839844 0 17.441407.980468 25.695313 2.851562.085937.011719.167968.042969.25.054688 41.296875 9.445312 74.1875 40.957031 85.609375 81.457031zm0 0" fill="#35a2da"/><path d="m381.230469 479.324219c-37.019531 20.804687-79.734375 32.675781-125.230469 32.675781-41.546875 0-80.78125-9.894531-115.472656-27.460938 3.304687-14.273437 9.269531-27.53125 17.316406-39.246093.332031-.5.6875-.992188 1.03125-1.484375 6.429688-9.046875 14.109375-17.125 22.8125-23.980469 19.726562-15.578125 44.648438-24.867187 71.730469-24.867187h16.257812c5.226563 0 10.367188.34375 15.402344 1.023437 9.082031 1.191406 17.828125 3.460937 26.113281 6.65625 33.875 12.976563 60.101563 41.421875 70.039063 76.683594zm0 0" fill="#46b8fc"/><path d="m273.296875 350.328125v50.734375c0 18.574219-12.246094 34.273438-29.117187 39.488281-3.863282 1.199219-7.976563 1.847657-12.234376 1.847657-22.828124 0-41.332031-18.503907-41.332031-41.335938v-50.734375zm0 0" fill="#a54d2f"/><path d="m273.296875 397.851562v3.210938c0 18.574219-12.246094 34.273438-29.117187 39.488281-15.21875-4.679687-26.664063-17.910156-28.777344-34.105469 2.761718.171876 5.539062.253907 8.328125.253907 7.820312 0 15.488281-.617188 22.957031-1.84375 9.203125-1.480469 18.097656-3.847657 26.609375-7.003907zm0 0" fill="#bc6a46"/><path d="m118.550781 267.183594c0 19.136718-13.980469 35.003906-32.289062 37.949218-2 .324219-4.054688.496094-6.15625.496094-21.238281 0-38.445313-17.207031-38.445313-38.445312 0-21.238282 17.207032-38.445313 38.445313-38.445313 2.101562 0 4.15625.167969 6.15625.492188 18.308593 2.945312 32.289062 18.8125 32.289062 37.953125zm0 0" fill="#bc6a46"/><path d="m118.550781 267.183594c0 19.136718-13.980469 35.003906-32.289062 37.949218-3.324219-12.089843-5.097657-24.816406-5.097657-37.949218 0-13.136719 1.773438-25.859375 5.097657-37.953125 18.308593 2.945312 32.289062 18.8125 32.289062 37.953125zm0 0" fill="#a54d2f"/><path d="m93.84375 267.183594c0 7.585937-6.148438 13.738281-13.738281 13.738281-7.589844 0-13.742188-6.152344-13.742188-13.738281 0-7.589844 6.152344-13.742188 13.742188-13.742188 7.589843 0 13.738281 6.152344 13.738281 13.742188zm0 0" fill="#a54d2f"/><path d="m345.355469 267.183594c0 19.136718 13.980469 35.003906 32.285156 37.949218 2 .324219 4.058594.496094 6.160156.496094 21.234375 0 38.445313-17.207031 38.445313-38.445312 0-21.238282-17.210938-38.445313-38.445313-38.445313-2.101562 0-4.160156.167969-6.160156.492188-18.304687 2.945312-32.285156 18.8125-32.285156 37.953125zm0 0" fill="#bc6a46"/><g fill="#a54d2f"><path d="m345.355469 267.183594c0 19.136718 13.980469 35.003906 32.285156 37.949218 3.324219-12.089843 5.101563-24.816406 5.101563-37.949218 0-13.136719-1.777344-25.859375-5.101563-37.953125-18.304687 2.945312-32.285156 18.8125-32.285156 37.953125zm0 0"/><path d="m374.992188 192.285156v54.46875c0 71.179688-52 130.230469-120.085938 141.1875-.226562.039063-.46875.074219-.699219.113282-7.242187 1.160156-14.671875 1.730468-22.257812 1.730468-78.992188 0-143.03125-64.039062-143.03125-143.03125v-54.46875c0-16.632812 2.835937-32.617187 8.078125-47.46875 19.5625-55.667968 72.605468-95.578125 134.953125-95.578125h.011719c7.574218 0 15.015624.585938 22.269531 1.730469 68.417969 10.691406 120.761719 69.894531 120.761719 141.316406zm0 0"/><path d="m397.539062 267.183594c0 7.585937-6.152343 13.738281-13.738281 13.738281-7.589843 0-13.742187-6.152344-13.742187-13.738281 0-7.589844 6.152344-13.742188 13.742187-13.742188 7.585938 0 13.738281 6.152344 13.738281 13.742188zm0 0"/></g><path d="m374.992188 192.285156v54.46875c0 71.179688-52 130.230469-120.085938 141.1875-.226562.039063-.46875.074219-.699219.113282-68.417969-10.691407-120.75-69.894532-120.75-141.300782v-54.46875c0-71.421875 52.34375-130.625 120.773438-141.316406 68.417969 10.691406 120.761719 69.894531 120.761719 141.316406zm0 0" fill="#bc6a46"/><path d="m231.949219 317.199219c-11.976563 0-23.953125-3-34.871094-9.003907-3.082031-1.691406-4.203125-5.558593-2.511719-8.640624 1.695313-3.078126 5.5625-4.203126 8.640625-2.511719 17.996094 9.894531 39.488281 9.894531 57.484375 0 3.078125-1.691407 6.949219-.566407 8.640625 2.511719 1.695313 3.082031.570313 6.949218-2.511719 8.640624-10.914062 6.003907-22.894531 9.003907-34.871093 9.003907zm0 0" fill="#a54d2f"/><path d="m248.175781 279.277344h-32.453125c-3.867187 0-7-3.132813-7-6.996094 0-3.867188 3.132813-7 7-7h32.453125c3.867188 0 7 3.132812 7 7 0 3.863281-3.132812 6.996094-7 6.996094zm0 0" fill="#a54d2f"/><path d="m201.492188 238.421875c0 8.960937-7.265626 16.226563-16.226563 16.226563s-16.226563-7.265626-16.226563-16.226563 7.265626-16.226563 16.226563-16.226563 16.226563 7.265626 16.226563 16.226563zm0 0" fill="#2f373b"/><path d="m294.871094 238.421875c0 8.960937-7.265625 16.226563-16.226563 16.226563-8.964843 0-16.226562-7.265626-16.226562-16.226563s7.261719-16.226563 16.226562-16.226563c8.960938 0 16.226563 7.265626 16.226563 16.226563zm0 0" fill="#2f373b"/><path d="m198.183594 235.558594c0 3.839844-3.113282 6.953125-6.953125 6.953125-3.839844 0-6.953125-3.113281-6.953125-6.953125s3.113281-6.953125 6.953125-6.953125c3.839843 0 6.953125 3.113281 6.953125 6.953125zm0 0" fill="#fff"/><path d="m292.359375 235.558594c0 3.839844-3.113281 6.953125-6.953125 6.953125s-6.953125-3.113281-6.953125-6.953125 3.113281-6.953125 6.953125-6.953125 6.953125 3.113281 6.953125 6.953125zm0 0" fill="#fff"/><g fill="#2f373b"><path d="m377.652344 29.144531v200.085938c-7.765625-3.476563-14.417969-8.746094-19.523438-15.246094-5.101562-6.492187-8.652344-14.203125-10.191406-22.566406l-6.820312-37.058594c-3.324219-17.996094-20.910157-29.652344-38.777344-25.683594l-44.964844 9.992188c-16.734375 3.730469-34.09375 3.730469-50.828125 0l-40.761719-9.0625-4.199218-.929688c-17.871094-3.96875-35.457032 7.6875-38.777344 25.683594l-6.824219 37.058594c-3.078125 16.722656-14.199219 30.863281-29.714844 37.8125v-200.085938h58.273438 174.835937zm0 0"/><path d="m144.542969 29.144531c0 16.097657-13.042969 29.144531-29.144531 29.144531-16.085938 0-29.128907-13.046874-29.128907-29.144531 0-16.097656 13.042969-29.144531 29.128907-29.144531 16.101562 0 29.144531 13.046875 29.144531 29.144531zm0 0"/><path d="m202.816406 29.144531c0 16.097657-13.042968 29.144531-29.128906 29.144531-2.738281 0-5.398438-.382812-7.902344-1.09375-12.257812-3.4375-21.242187-14.6875-21.242187-28.050781s8.984375-24.613281 21.242187-28.050781c2.503906-.710938 5.164063-1.09375 7.902344-1.09375 16.085938 0 29.128906 13.046875 29.128906 29.144531zm0 0"/><path d="m261.097656 29.144531c0 16.09375-13.042968 29.140625-29.136718 29.140625s-29.140626-13.046875-29.140626-29.140625 13.046876-29.14062475 29.140626-29.14062475 29.136718 13.04687475 29.136718 29.14062475zm0 0"/><path d="m319.378906 29.144531c0 16.09375-13.046875 29.140625-29.140625 29.140625s-29.136719-13.046875-29.136719-29.140625 13.042969-29.14062475 29.136719-29.14062475 29.140625 13.04687475 29.140625 29.14062475zm0 0"/><path d="m377.65625 29.144531c0 16.09375-13.046875 29.140625-29.140625 29.140625-16.089844 0-29.136719-13.046875-29.136719-29.140625s13.046875-29.14062475 29.136719-29.14062475c16.09375 0 29.140625 13.04687475 29.140625 29.14062475zm0 0"/></g><path d="m144.542969 29.144531v100.359375c-10.855469 3.550782-19.507813 12.777344-21.738281 24.855469l-6.820313 37.058594c-3.078125 16.722656-14.203125 30.863281-29.714844 37.8125v-200.085938c0-16.097656 13.042969-29.144531 29.128907-29.144531 16.101562 0 29.144531 13.046875 29.144531 29.144531zm0 0" fill="#151a1c"/><path d="m509.460938 106.21875c0 58.660156-47.554688 106.214844-106.21875 106.214844-58.660157 0-106.214844-47.554688-106.214844-106.214844 0-58.664062 47.554687-106.21875 106.214844-106.21875 58.664062 0 106.21875 47.554688 106.21875 106.21875zm0 0" fill="#fb3a4a"/><path d="m403.242188 71.464844c0-28.398438 73.835937-38.8125 68.15625 27.453125-4.492188 52.382812-68.15625 75.726562-68.15625 75.726562s-63.660157-23.34375-68.152344-75.726562c-5.679688-66.265625 68.152344-55.855469 68.152344-27.453125zm0 0" fill="#f2efea"/><path d="m373.4375 188.039062s-2.433594 21.222657-9.941406 35.316407c-2.445313 4.59375 1.746094 9.917969 6.746094 8.46875 12.058593-3.496094 27.050781-11.257813 33.4375-28.484375" fill="#fb3a4a"/></svg>