<svg height="512pt" viewBox="0 0 512 512" width="512pt" xmlns="http://www.w3.org/2000/svg"><path d="m512 256c0 49.976562-14.316406 96.609375-39.089844 136.011719-24.636718 39.214843-59.609375 71.273437-101.101562 92.347656-19.132813 9.726563-39.65625 17.117187-61.191406 21.785156-8.460938 1.839844-17.09375 3.261719-25.859376 4.242188-7.859374.890625-15.808593 1.410156-23.867187 1.558593-1.628906.042969-3.257813.050782-4.890625.050782-16.164062 0-31.972656-1.492188-47.300781-4.367188-30.386719-5.671875-58.878907-16.71875-84.457031-32.109375-19.394532-11.648437-37.105469-25.808593-52.695313-42.015625-13.355469-13.863281-25.160156-29.246094-35.128906-45.847656-2.726563-4.546875-5.328125-9.175781-7.765625-13.898438-18.316406-35.246093-28.64843775-75.296874-28.64843775-117.757812 0-43.394531 10.79296875-84.28125 29.86328175-120.089844 23.613281-44.386718 59.914062-80.992187 104.058593-104.980468 36.28125-19.726563 77.867188-30.929688 122.074219-30.929688 141.386719 0 256 114.613281 256 256zm0 0" fill="#3fc37c"/><path d="m472.910156 392.011719c-44.46875 70.792969-122.636718 118.261719-212.019531 119.933593-1.628906.042969-3.257813.050782-4.890625.050782-16.164062 0-31.972656-1.492188-47.300781-4.367188v-79.066406c0-53.613281 41.292969-97.59375 93.832031-101.835938 2.769531-.238281 5.546875-.324218 8.359375-.324218h66.539063c7.878906 0 15.535156.859375 22.882812 2.539062 33.382812 7.640625 60.539062 31.628906 72.597656 63.070313zm0 0" fill="#9fc2cc"/><path d="m472.910156 392.011719c-44.46875 70.792969-122.636718 118.261719-212.019531 119.933593v-83.382812c0-56.425781 45.765625-102.160156 102.203125-102.160156h14.355469c43.570312 0 80.757812 27.242187 95.460937 65.609375zm0 0" fill="#fcf8f2"/><path d="m244.152344 213.6875c0 16.878906-12.328125 30.875-28.476563 33.472656-1.761719.285156-3.578125.433594-5.429687.433594-18.730469 0-33.90625-15.175781-33.90625-33.90625s15.175781-33.90625 33.90625-33.90625c1.851562 0 3.667968.148438 5.429687.433594 16.148438 2.601562 28.476563 16.597656 28.476563 33.472656zm0 0" fill="#bc6a46"/><path d="m244.152344 213.6875c0 16.878906-12.328125 30.875-28.476563 33.472656-2.933593-10.664062-4.496093-21.886718-4.496093-33.472656 0-11.582031 1.5625-22.808594 4.496093-33.472656 16.148438 2.601562 28.476563 16.597656 28.476563 33.472656zm0 0" fill="#a54d2f"/><path d="m222.363281 213.6875c0 6.695312-5.425781 12.121094-12.117187 12.121094s-12.117188-5.425782-12.117188-12.121094c0-6.691406 5.425782-12.117188 12.117188-12.117188s12.117187 5.425782 12.117187 12.117188zm0 0" fill="#a54d2f"/><path d="m344.164062 368.222656-46.007812 25.566406-13.996094-65.097656 28.585938-16.839844" fill="#e5e1dc"/><path d="m344.164062 368.222656 46.007813 25.566406 13.996094-65.097656-28.589844-16.839844" fill="#e5e1dc"/><path d="m444.183594 213.6875c0 16.878906 12.328125 30.875 28.476562 33.472656 1.761719.285156 3.578125.433594 5.429688.433594 18.730468 0 33.90625-15.175781 33.90625-33.90625s-15.175782-33.90625-33.90625-33.90625c-1.851563 0-3.667969.148438-5.429688.433594-16.148437 2.601562-28.476562 16.597656-28.476562 33.472656zm0 0" fill="#bc6a46"/><g fill="#a54d2f"><path d="m444.183594 213.6875c0 16.878906 12.328125 30.875 28.476562 33.472656 2.933594-10.664062 4.496094-21.886718 4.496094-33.472656 0-11.582031-1.5625-22.808594-4.496094-33.472656-16.148437 2.601562-28.476562 16.597656-28.476562 33.472656zm0 0"/><path d="m490.207031 213.6875c0 6.695312-5.425781 12.121094-12.117187 12.121094s-12.117188-5.425782-12.117188-12.121094c0-6.691406 5.425782-12.117188 12.117188-12.117188s12.117187 5.425782 12.117187 12.117188zm0 0"/><path d="m470.324219 195.667969c0 62.777343-45.863281 114.855469-105.90625 124.527343-6.585938 1.082032-13.347657 1.628907-20.246094 1.628907-69.679687 0-126.15625-56.480469-126.15625-126.15625 0-32.96875 11.449219-82.457031 32.152344-104.929688 23.054687-25.027343 57.292969-21.226562 94.003906-21.226562 6.898437 0 13.660156.546875 20.246094 1.625 60.042969 9.671875 105.90625 61.75 105.90625 124.53125zm0 0"/><path d="m380.632812 287.019531v44.746094c0 16.382813-10.804687 30.230469-25.679687 34.828125-3.40625 1.054688-7.035156 1.628906-10.789063 1.628906-20.136718 0-36.453124-16.320312-36.453124-36.457031v-44.746094zm0 0"/></g><path d="m380.632812 328.933594v2.832031c0 16.382813-10.804687 30.226563-25.679687 34.828125-13.425781-4.128906-23.515625-15.800781-25.378906-30.082031 2.433593.152343 4.882812.226562 7.34375.226562 6.898437 0 13.660156-.546875 20.246093-1.628906 8.117188-1.304687 15.960938-3.394531 23.46875-6.175781zm0 0" fill="#bc6a46"/><path d="m470.324219 195.667969c0 62.777343-45.863281 114.855469-105.90625 124.527343-60.046875-9.671874-105.910157-61.75-105.910157-124.527343 0-38.65625 17.386719-73.257813 44.78125-96.402344 17.078126-14.441406 38.058594-24.410156 61.128907-28.125 55.980469 9.011719 99.640625 54.898437 105.285156 111.949219.410156 4.136718.621094 8.339844.621094 12.578125zm0 0" fill="#bc6a46"/><path d="m344.167969 257.800781c-10.5625 0-21.125-2.648437-30.753907-7.941406-2.714843-1.492187-3.707031-4.90625-2.214843-7.621094 1.492187-2.714843 4.90625-3.707031 7.621093-2.214843 15.875 8.726562 34.828126 8.726562 50.699219 0 2.714844-1.492188 6.128907-.5 7.621094 2.214843 1.492187 2.714844.5 6.128907-2.214844 7.621094-9.628906 5.292969-20.191406 7.941406-30.757812 7.941406zm0 0" fill="#a54d2f"/><path d="m317.304688 188.324219c0 7.90625-6.410157 14.3125-14.3125 14.3125-7.902344 0-14.3125-6.40625-14.3125-14.3125 0-7.902344 6.410156-14.308594 14.3125-14.308594 7.902343 0 14.3125 6.40625 14.3125 14.308594zm0 0" fill="#2f373b"/><path d="m399.660156 188.324219c0 7.90625-6.410156 14.3125-14.3125 14.3125s-14.3125-6.40625-14.3125-14.3125c0-7.902344 6.410156-14.308594 14.3125-14.308594s14.3125 6.40625 14.3125 14.308594zm0 0" fill="#2f373b"/><path d="m314.386719 185.800781c0 3.386719-2.746094 6.132813-6.132813 6.132813-3.386718 0-6.132812-2.746094-6.132812-6.132813s2.746094-6.132812 6.132812-6.132812c3.386719 0 6.132813 2.746093 6.132813 6.132812zm0 0" fill="#fff"/><path d="m397.441406 185.800781c0 3.386719-2.742187 6.132813-6.128906 6.132813s-6.132812-2.746094-6.132812-6.132813 2.746093-6.132812 6.132812-6.132812 6.128906 2.746093 6.128906 6.132812zm0 0" fill="#fff"/><path d="m358.480469 224.355469h-28.621094c-3.410156 0-6.175781-2.761719-6.175781-6.171875s2.765625-6.171875 6.175781-6.171875h28.621094c3.410156 0 6.171875 2.761719 6.171875 6.171875s-2.761719 6.171875-6.171875 6.171875zm0 0" fill="#a54d2f"/><path d="m336.789062 33.472656c38.214844 2.730469 68.898438 33.601563 70.84375 72.464844l.363282 7.292969h21.980468l11.84375 78.738281 28.675782-8.878906-3.851563-77.152344c-2.03125-40.820312-35.796875-72.8125-76.652343-72.664062zm0 0" fill="#1f3f72"/><path d="m354.011719 113.226562h-95.640625l-11.847656 78.742188-28.675782-8.875 3.847656-77.160156c2.03125-40.8125 35.796876-72.816406 76.660157-72.660156l138.128906.519531 18.257813 32.867187" fill="#304e87"/><path d="m351.550781 33.472656c-38.214843 2.730469-68.898437 33.601563-70.84375 72.464844l-.363281 7.292969h-21.980469l-11.84375 78.738281-28.679687-8.878906 3.855468-77.152344c2.03125-40.820312 35.792969-72.8125 76.652344-72.664062zm0 0" fill="#1f3f72"/><path d="m28.660156 291.992188v-138.761719c0-14.101563 2.351563-27.914063 6.992188-41.058594 17.367187-49.417969 64.261718-82.632813 116.691406-82.632813 6.496094 0 12.976562.503907 19.269531 1.496094 28.804688 4.5 55.230469 19.207032 74.394531 41.402344 19.363282 22.429688 30.027344 51.121094 30.027344 80.792969v268.015625" fill="#fb3a4a"/><path d="m131.398438 302.851562c6.40625 60.519532-2.78125 128.761719-7.15625 172.667969-19.394532-11.648437-37.105469-25.808593-52.695313-42.015625-13.355469-13.863281-25.160156-29.246094-35.128906-45.847656-2.726563-4.546875-5.328125-9.175781-7.765625-13.898438v-220.523437c0-5.832031.398437-11.621094 1.214844-17.324219 1.128906-8.089844 3.070312-16.03125 5.789062-23.742187 15.285156-43.539063 53.527344-74.5 98.269531-81.238281 5.746094-.867188 11.589844-1.339844 17.511719-1.378907-38.023438.949219-71.898438 61.960938-71.898438 129.09375 0 21.035157 44.585938 75.515625 51.859376 144.207031zm0 0" fill="#dd104f"/><path d="m284.757812 421.246094v89.140625c-7.859374.886719-15.808593 1.410156-23.867187 1.558593-1.628906.039063-3.257813.050782-4.890625.050782-16.164062 0-31.972656-1.496094-47.300781-4.367188-53.40625-9.96875-100.96875-36.53125-137.152344-74.125-13.355469-13.867187-25.160156-29.246094-35.128906-45.851562 10.761719-28.816406 34.992187-51.0625 65.023437-59.085938 1.503906-.410156 3.019532-.785156 4.546875-1.097656 4.0625-.898438 8.222657-1.503906 12.484375-1.851562 2.582032-.195313 5.195313-.3125 7.835938-.3125h62.496094c6.988281 0 13.792968.730468 20.34375 2.164062.386718.0625.753906.15625 1.128906.25 1.097656.230469 2.203125.511719 3.292968.804688.039063.019531.0625.019531.09375.03125 10.8125 2.882812 20.832032 7.617187 29.789063 13.835937 24.972656 17.3125 41.304687 46.160156 41.304687 78.855469zm0 0" fill="#35a2da"/><path d="m284.757812 421.246094v89.140625c-7.859374.886719-15.808593 1.410156-23.867187 1.558593-1.628906.039063-3.257813.050782-4.890625.050782-16.164062 0-31.972656-1.496094-47.300781-4.367188-53.40625-9.96875-100.96875-36.53125-137.152344-74.125v-12.257812c0-44.398438 30.144531-81.75 71.074219-92.679688 1.503906-.410156 3.019531-.785156 4.542968-1.097656 4.066407-.898438 8.234376-1.503906 12.488282-1.851562 2.589844-.195313 5.203125-.3125 7.835937-.3125h21.316407c6.988281 0 13.792968.730468 20.34375 2.164062.386718.0625.753906.15625 1.128906.25 1.097656.230469 2.203125.511719 3.292968.804688.039063.019531.0625.019531.09375.03125 10.8125 2.882812 20.832032 7.617187 29.789063 13.835937 24.972656 17.3125 41.304687 46.160156 41.304687 78.855469zm0 0" fill="#46b8fc"/><path d="m213.898438 327.464844-.234376 1.085937-28.699218 133.503907c-2.757813 12.828124-14.042969 22.128906-27.164063 22.140624-.074219 0-.152343 0-.230469 0-.082031 0-.167968 0-.25 0-13.121093-.011718-24.402343-9.3125-27.160156-22.140624l-28.703125-133.496094-.230469-1.09375zm0 0" fill="#f2efea"/><path d="m157.558594 364.582031-43.191406 24.003907-13.140626-61.121094 26.839844-15.808594" fill="#d8d4ce"/><path d="m157.558594 364.582031 43.195312 24.003907 13.140625-61.121094-26.839843-15.808594" fill="#d8d4ce"/><path d="m191.804688 288.34375v42.007812c0 15.382813-10.140626 28.382813-24.109376 32.699219-3.195312.992188-6.601562 1.527344-10.128906 1.527344-18.902344 0-34.226562-15.320313-34.226562-34.226563v-42.007812zm0 0" fill="#eaa27f"/><path d="m191.804688 327.691406v2.660156c0 15.382813-10.140626 28.382813-24.109376 32.699219-12.601562-3.875-22.078124-14.832031-23.828124-28.242187 2.289062.140625 4.585937.210937 6.898437.210937 6.476563 0 12.824219-.511719 19.007813-1.527343 7.621093-1.226563 14.984374-3.183594 22.03125-5.800782zm0 0" fill="#f6ba97"/><path d="m63.667969 219.492188c0 15.847656-11.574219 28.988281-26.734375 31.425781-1.65625.269531-3.359375.410156-5.097656.410156-17.585938 0-31.835938-14.25-31.835938-31.835937 0-17.585938 14.25-31.832032 31.835938-31.832032 1.738281 0 3.441406.136719 5.097656.40625 15.160156 2.4375 26.734375 15.578125 26.734375 31.425782zm0 0" fill="#f6ba97"/><g fill="#eaa27f"><path d="m63.667969 219.492188c0 15.847656-11.574219 28.988281-26.734375 31.425781-2.753906-10.011719-4.222656-20.546875-4.222656-31.425781 0-10.875 1.46875-21.414063 4.222656-31.425782 15.160156 2.4375 26.734375 15.578125 26.734375 31.425782zm0 0"/><path d="m43.210938 219.492188c0 6.285156-5.09375 11.378906-11.375 11.378906-6.285157 0-11.378907-5.09375-11.378907-11.378906 0-6.28125 5.09375-11.378907 11.378907-11.378907 6.28125 0 11.375 5.097657 11.375 11.378907zm0 0"/><path d="m239.3125 178.84375v109.429688c-16.914062 16.144531-38.601562 27.324218-62.734375 31.210937-.191406.03125-.390625.066406-.578125.097656-6 .957031-12.152344 1.433594-18.433594 1.433594-65.410156 0-118.4375-53.027344-118.4375-118.4375v-45.105469c0-5.773437.410156-11.453125 1.214844-17.007812 28.175781 20.265625 68.578125 18.261718 94.324219-6.070313 8.527343-8.050781 14.449219-17.640625 17.800781-27.808593 1.863281 17.808593 10.011719 35.144531 24.445312 48.789062 17.1875 16.230469 39.898438 24.058594 62.398438 23.46875zm0 0"/></g><path d="m239.3125 178.84375v109.429688c-16.914062 16.144531-38.601562 27.324218-62.734375 31.210937-.191406.03125-.390625.066406-.578125.097656-56.65625-8.851562-99.988281-57.875-99.988281-117.003906v-45.105469c0-1.199218.023437-2.390625.066406-3.582031 20.882813 2.140625 42.574219-4.351563 58.589844-19.496094 8.527343-8.050781 14.449219-17.640625 17.800781-27.808593 1.863281 17.808593 10.011719 35.144531 24.445312 48.789062 17.1875 16.230469 39.898438 24.058594 62.398438 23.46875zm0 0" fill="#f6ba97"/><path d="m221.179688 192.574219c0-10.863281-8.808594-19.671875-19.671876-19.671875-10.863281 0-19.671874 8.808594-19.671874 19.671875" fill="#eaa27f"/><path d="m133.316406 192.574219c0-10.863281-8.804687-19.671875-19.667968-19.671875-10.867188 0-19.671876 8.808594-19.671876 19.671875" fill="#eaa27f"/><path d="m127.082031 200.949219c0 7.417969-6.015625 13.433593-13.433593 13.433593-7.421876 0-13.4375-6.015624-13.4375-13.433593 0-7.421875 6.015624-13.4375 13.4375-13.4375 7.417968 0 13.433593 6.015625 13.433593 13.4375zm0 0" fill="#2f373b"/><path d="m214.945312 200.949219c0 7.417969-6.015624 13.433593-13.4375 13.433593-7.421874 0-13.4375-6.015624-13.4375-13.433593 0-7.421875 6.015626-13.4375 13.4375-13.4375 7.421876 0 13.4375 6.015625 13.4375 13.4375zm0 0" fill="#2f373b"/><path d="m171.011719 234.777344h-26.871094c-3.199219 0-5.796875-2.59375-5.796875-5.796875 0-3.199219 2.59375-5.792969 5.796875-5.792969h26.871094c3.203125 0 5.796875 2.59375 5.796875 5.792969 0 3.203125-2.59375 5.796875-5.796875 5.796875zm0 0" fill="#eaa27f"/><path d="m157.578125 271.445312c-9.917969 0-19.835937-2.484374-28.875-7.453124-2.550781-1.402344-3.480469-4.605469-2.078125-7.15625 1.398438-2.550782 4.605469-3.480469 7.152344-2.078126 14.90625 8.191407 32.699218 8.191407 47.601562 0 2.546875-1.402343 5.753906-.472656 7.15625 2.078126 1.402344 2.550781.46875 5.753906-2.082031 7.15625-9.039063 4.96875-18.957031 7.453124-28.875 7.453124zm0 0" fill="#eaa27f"/><path d="m124.34375 198.578125c0 3.179687-2.578125 5.757813-5.757812 5.757813-3.179688 0-5.757813-2.578126-5.757813-5.757813s2.578125-5.757813 5.757813-5.757813c3.179687 0 5.757812 2.578126 5.757812 5.757813zm0 0" fill="#fff"/><path d="m212.863281 198.578125c0 3.179687-2.578125 5.757813-5.757812 5.757813-3.179688 0-5.757813-2.578126-5.757813-5.757813s2.578125-5.757813 5.757813-5.757813c3.179687 0 5.757812 2.578126 5.757812 5.757813zm0 0" fill="#fff"/><path d="m238.1875 233.675781c0 8.144531-6.605469 14.75-14.753906 14.75-8.144532 0-14.75-6.605469-14.75-14.75 0-8.148437 6.605468-14.753906 14.75-14.753906 8.148437 0 14.753906 6.605469 14.753906 14.753906zm0 0" fill="#eaa27f"/><path d="m106.460938 233.675781c0 8.144531-6.605469 14.75-14.75 14.75-8.148438 0-14.753907-6.605469-14.753907-14.75 0-8.148437 6.605469-14.753906 14.753907-14.753906 8.144531 0 14.75 6.605469 14.75 14.753906zm0 0" fill="#eaa27f"/><path d="m511.996094 85.125c0 47.015625-38.113282 85.128906-85.125 85.128906-47.015625 0-85.125-38.113281-85.125-85.128906 0-47.011719 38.109375-85.125 85.125-85.125 47.011718 0 85.125 38.113281 85.125 85.125zm0 0" fill="#fb3a4a"/><path d="m427.007812 35.261719c15.828126 0 30.5625 10.367187 30.5625 27.695312 0 29.46875-43.25 39.019531-43.25 53.207031v3.273438h37.925782c3.003906 0 5.59375 3.546875 5.59375 7.640625s-2.589844 7.914063-5.59375 7.914063h-48.566406c-3.136719 0-7.777344-2.183594-7.777344-5.59375v-13.234376c0-21.828124 43.929687-33.425781 43.929687-52.660156 0-5.597656-3.683593-12.144531-12.6875-12.144531-6.683593 0-12.140625 3.546875-12.140625 12.007813 0 3.273437-3.410156 6.546874-9.277344 6.546874-4.636718 0-8.050781-2.183593-8.050781-9.550781 0-15.550781 14.1875-25.101562 29.332031-25.101562zm0 0" fill="#fcf8f2"/></svg>