<svg height="511pt" viewBox="0 0 511 511.99959" width="511pt" xmlns="http://www.w3.org/2000/svg"><path d="m512.496094 256c0 54.867188-17.261719 105.722656-46.664063 147.394531-22.320312 31.648438-51.640625 58.011719-85.710937 76.828125-17.074219 9.4375-35.351563 16.980469-54.535156 22.339844-.867188.242188-1.734376.480469-2.601563.703125-21.191406 5.703125-43.488281 8.734375-66.484375 8.734375-32.371094 0-63.332031-6.007812-91.835938-16.96875-8.226562-3.15625-16.25-6.730469-24.035156-10.691406-15.640625-7.960938-30.351562-17.46875-43.9375-28.355469-3.855468-3.082031-7.625-6.28125-11.292968-9.582031-16.929688-15.214844-31.816407-32.652344-44.199219-51.859375-25.757813-39.925781-40.699219-87.488281-40.699219-138.542969 0-68.824219 27.15625-131.320312 71.355469-177.316406l.011719-.011719c43.402343-45.179687 103.234374-74.46875 169.886718-78.242187.042969 0 .074219 0 .117188-.007813 4.835937-.285156 9.714844-.41796875 14.628906-.41796875 141.382812 0 255.996094 114.61328175 255.996094 255.99609375zm0 0" fill="#fecf32"/><path d="m356.265625 250.476562c18.003906 18.003907 37.738281 69.164063-5.269531 99.882813-43.007813 30.722656 9.832031 104.449219 9.832031 104.449219l-109.363281 44.238281-138.851563-78.644531 24.082031-208.292969" fill="#512375"/><path d="m380.121094 467.089844v13.132812c-17.074219 9.4375-35.351563 16.980469-54.535156 22.339844-.867188.242188-1.734376.480469-2.601563.703125-21.191406 5.703125-43.488281 8.734375-66.484375 8.734375-41.703125 0-81.074219-9.96875-115.871094-27.660156-20.082031-10.21875-38.640625-22.996094-55.230468-37.9375 6.101562-32.664063 26.394531-60.332032 54.25-76.339844 9.101562-5.246094 19.007812-9.25 29.488281-11.746094 5.535156-1.347656 11.242187-2.265625 17.082031-2.738281 3.019531-.238281 6.070312-.363281 9.152344-.363281h72.851562c8.621094 0 17 .960937 25.046875 2.800781.40625.101563.8125.1875 1.199219.28125 10.480469 2.515625 20.386719 6.519531 29.5 11.765625 33.550781 19.320312 56.152344 55.535156 56.152344 97.027344zm0 0" fill="#eaa27f"/><path d="m380.121094 467.089844v13.132812c-17.074219 9.4375-35.351563 16.980469-54.535156 22.339844-.867188.242188-1.734376.480469-2.601563.703125-21.191406 5.703125-43.488281 8.734375-66.484375 8.734375-41.703125 0-81.074219-9.96875-115.871094-27.660156v-17.25c0-61.785156 50.09375-111.875 111.886719-111.875h15.707031c61.816406 0 111.898438 50.089844 111.898438 111.875zm0 0" fill="#f6ba97"/><path d="m271.714844 312.117188v48.988281c0 17.933593-11.824219 33.089843-28.113282 38.125-3.730468 1.15625-7.703124 1.78125-11.8125 1.78125-22.042968 0-39.910156-17.863281-39.910156-39.90625v-48.988281zm0 0" fill="#eaa27f"/><path d="m271.714844 358v3.105469c0 17.933593-11.824219 33.089843-28.113282 38.125-14.695312-4.515625-25.746093-17.292969-27.785156-32.929688 2.664063.164063 5.347656.246094 8.039063.246094 7.554687 0 14.957031-.601563 22.167969-1.785156 8.886718-1.425781 17.472656-3.710938 25.691406-6.761719zm0 0" fill="#f6ba97"/><path d="m322.984375 449.078125v54.1875c-21.191406 5.703125-43.488281 8.734375-66.484375 8.734375-41.703125 0-81.074219-9.96875-115.871094-27.660156v-35.261719zm0 0" fill="#3fc37c"/><path d="m271.714844 312.117188v48.988281c0 17.933593-11.824219 33.089843-28.113282 38.125-3.730468 1.15625-7.703124 1.78125-11.8125 1.78125-22.042968 0-39.910156-17.863281-39.910156-39.90625v-48.988281zm0 0" fill="#eaa27f"/><path d="m271.714844 358v3.105469c0 17.933593-11.824219 33.089843-28.113282 38.125-14.695312-4.515625-25.746093-17.292969-27.785156-32.929688 2.664063.164063 5.347656.246094 8.039063.246094 7.554687 0 14.957031-.601563 22.167969-1.785156 8.886718-1.425781 17.472656-3.710938 25.691406-6.761719zm0 0" fill="#f6ba97"/><path d="m120.5 231.835938c0 18.476562-13.5 33.800781-31.175781 36.644531-1.933594.3125-3.917969.476562-5.945313.476562-20.507812 0-37.121094-16.617187-37.121094-37.121093 0-20.507813 16.613282-37.121094 37.121094-37.121094 2.027344 0 4.011719.164062 5.945313.476562 17.675781 2.84375 31.175781 18.164063 31.175781 36.644532zm0 0" fill="#f6ba97"/><path d="m120.5 231.835938c0 18.476562-13.5 33.800781-31.175781 36.644531-3.210938-11.675781-4.925781-23.964844-4.925781-36.644531 0-12.683594 1.714843-24.972657 4.925781-36.644532 17.675781 2.84375 31.175781 18.164063 31.175781 36.644532zm0 0" fill="#eaa27f"/><path d="m96.644531 231.835938c0 7.324218-5.9375 13.265624-13.265625 13.265624s-13.265625-5.941406-13.265625-13.265624c0-7.328126 5.9375-13.269532 13.265625-13.269532s13.265625 5.941406 13.265625 13.269532zm0 0" fill="#eaa27f"/><path d="m343.097656 231.835938c0 18.476562 13.496094 33.800781 31.171875 36.644531 1.933594.3125 3.921875.476562 5.949219.476562 20.503906 0 37.121094-16.617187 37.121094-37.121093 0-20.507813-16.617188-37.121094-37.121094-37.121094-2.027344 0-4.015625.164062-5.949219.476562-17.675781 2.84375-31.171875 18.164063-31.171875 36.644532zm0 0" fill="#f6ba97"/><g fill="#eaa27f"><path d="m343.097656 231.835938c0 18.476562 13.496094 33.800781 31.171875 36.644531 3.210938-11.675781 4.925781-23.964844 4.925781-36.644531 0-12.683594-1.714843-24.972657-4.925781-36.644532-17.675781 2.84375-31.171875 18.164063-31.171875 36.644532zm0 0"/><path d="m393.484375 231.835938c0 7.324218-5.941406 13.265624-13.265625 13.265624-7.328125 0-13.269531-5.941406-13.269531-13.265624 0-7.328126 5.941406-13.269532 13.269531-13.269532 7.324219 0 13.265625 5.941406 13.265625 13.269532zm0 0"/><path d="m369.910156 159.515625v52.59375c0 68.726563-50.210937 125.742187-115.949218 136.324219-.222657.035156-.457032.074218-.679688.109375-6.988281 1.117187-14.164062 1.671875-21.488281 1.671875-76.273438 0-138.105469-61.832032-138.105469-138.105469v-52.59375c0-16.058594 2.742188-31.492187 7.804688-45.832031 18.886718-53.75 70.101562-92.285156 130.300781-92.285156h.011719c7.3125 0 14.5.566406 21.503906 1.671874 66.058594 10.324219 116.601562 67.488282 116.601562 136.445313zm0 0"/></g><path d="m369.910156 159.515625v52.59375c0 68.726563-50.210937 125.742187-115.949218 136.324219-.222657.035156-.457032.074218-.679688.109375-66.058594-10.320313-116.585938-67.484375-116.585938-136.433594v-52.59375c0-68.957031 50.539063-126.121094 116.613282-136.445313 66.058594 10.324219 116.601562 67.488282 116.601562 136.445313zm0 0" fill="#f6ba97"/><g fill="#eaa27f"><path d="m325.800781 248.371094c0 9.5-7.703125 17.203125-17.203125 17.203125s-17.203125-7.703125-17.203125-17.203125 7.703125-17.203125 17.203125-17.203125 17.203125 7.703125 17.203125 17.203125zm0 0"/><path d="m172.199219 248.371094c0 9.5-7.699219 17.203125-17.203125 17.203125-9.5 0-17.203125-7.703125-17.203125-17.203125s7.703125-17.203125 17.203125-17.203125c9.503906 0 17.203125 7.703125 17.203125 17.203125zm0 0"/><path d="m305.964844 200.445312c0-12.667968-10.269532-22.9375-22.9375-22.9375-12.667969 0-22.9375 10.269532-22.9375 22.9375"/><path d="m203.515625 200.445312c0-12.667968-10.269531-22.9375-22.9375-22.9375s-22.9375 10.269532-22.9375 22.9375"/></g><path d="m196.246094 210.210938c0 8.652343-7.015625 15.667968-15.667969 15.667968s-15.667969-7.015625-15.667969-15.667968c0-8.652344 7.015625-15.667969 15.667969-15.667969s15.667969 7.015625 15.667969 15.667969zm0 0" fill="#2f373b"/><path d="m298.695312 210.210938c0 8.652343-7.015624 15.667968-15.667968 15.667968s-15.667969-7.015625-15.667969-15.667968c0-8.652344 7.015625-15.667969 15.667969-15.667969s15.667968 7.015625 15.667968 15.667969zm0 0" fill="#2f373b"/><path d="m247.46875 249.660156h-31.332031c-3.734375 0-6.757813-3.027344-6.757813-6.761718 0-3.730469 3.023438-6.757813 6.757813-6.757813h31.332031c3.734375 0 6.761719 3.027344 6.761719 6.757813 0 3.734374-3.027344 6.761718-6.761719 6.761718zm0 0" fill="#eaa27f"/><path d="m231.800781 272.195312c11.566407 0 23.132813 2.898438 33.671875 8.691407 2.976563 1.636719 4.0625 5.371093 2.425782 8.34375-1.636719 2.976562-5.371094 4.058593-8.34375 2.425781-17.378907-9.554688-38.128907-9.550781-55.503907 0-2.972656 1.632812-6.707031.550781-8.34375-2.425781-1.636719-2.972657-.550781-6.707031 2.425781-8.34375 10.539063-5.792969 22.105469-8.691407 33.667969-8.691407zm0 0" fill="#eaa27f"/><path d="m193.050781 207.445312c0 3.707032-3.003906 6.714844-6.710937 6.714844-3.710938 0-6.714844-3.007812-6.714844-6.714844 0-3.707031 3.003906-6.710937 6.714844-6.710937 3.707031 0 6.710937 3.003906 6.710937 6.710937zm0 0" fill="#fff"/><path d="m296.269531 207.445312c0 3.707032-3.003906 6.714844-6.710937 6.714844-3.707032 0-6.714844-3.007812-6.714844-6.714844 0-3.707031 3.007812-6.710937 6.714844-6.710937 3.707031 0 6.710937 3.003906 6.710937 6.710937zm0 0" fill="#fff"/><path d="m374.269531 195.1875c-59.058593 0-72.109375-103.246094-72.109375-103.246094 0 39.320313-83.257812 74.710938-119.503906 38.464844 0 0 35.628906 56.527344-43.007812 99.535156 0 0 49.152343 22.078125 24.574218 81.09375-24.574218 59.027344-4.921875 125.34375-4.921875 125.34375s10.992188 28.578125 5.363281 58.652344c-8.226562-3.15625-16.25-6.730469-24.035156-10.691406-20.082031-10.21875-38.640625-22.996094-55.230468-37.9375-16.929688-15.214844-31.816407-32.652344-44.199219-51.859375 8.316406-40.6875 14.929687-92.304688 5.054687-162.710938-9.632812-68.710937 2.300782-118.082031 25.601563-153.148437 33.132812-49.875 89.277343-70.800782 139.054687-77.300782 11.453125-1.496093 21.691406-1.714843 30.84375-.953124 58.589844 4.753906 72.378906 48.882812 72.378906 48.882812 71.273438-17.210938 86.015626 145.875 60.136719 145.875zm0 0" fill="#663a91"/><path d="m115.070312 231.832031c15.621094 111.367188-10.007812 175.71875-18.378906 224.152344-3.855468-3.082031-7.625-6.28125-11.292968-9.582031-16.929688-15.214844-31.816407-32.652344-44.199219-51.859375 8.316406-40.6875 14.929687-92.304688 5.054687-162.710938-9.632812-68.710937 2.300782-118.082031 25.601563-153.148437l.011719-.011719c33.132812-49.863281 89.265624-70.789063 139.042968-77.289063 11.503906-1.496093 21.785156-1.714843 30.960938-.960937 7.667968.636719 14.5625 1.941406 20.761718 3.738281-80.84375 15.808594-169.367187 72.277344-147.5625 227.671875zm0 0" fill="#512375"/><path d="m405.164062 266.148438c0 5.828124-4.726562 10.554687-10.554687 10.554687-5.832031 0-10.554687-4.726563-10.554687-10.554687 0-5.828126 4.722656-10.554688 10.554687-10.554688 5.828125 0 10.554687 4.726562 10.554687 10.554688zm0 0" fill="#f71c55"/><path d="m465.832031 403.394531c-33.511719 47.511719-82.796875 83.109375-140.246093 99.167969-27.5625-16.382812-46.039063-46.464844-46.039063-80.863281 0-51.929688 42.109375-94.039063 94.042969-94.039063 45.671875 0 83.726562 32.558594 92.242187 75.734375zm0 0" fill="#fb3a4a"/><path d="m326.570312 407.59375h94.035157v28.210938h-94.035157zm0 0" fill="#fff"/></svg>