<svg id="svg8" height="512" viewBox="0 0 135.46666 135.46667" width="512" xmlns="http://www.w3.org/2000/svg" xmlns:svg="http://www.w3.org/2000/svg"><g id="layer1" transform="translate(0 -161.533)"><path id="path23715" d="m110.54312 229.3328 15.66829 58.88478c2.46403 9.26041-5.66527 7.47135-9.42319 6.01927-3.13629-1.21189-15.66365-6.08335-15.66365-6.08335s-8.439897 4.57846-10.72079 5.79034c-4.970653 2.64102-10.03813 1.98307-12.219924-4.32945-.05728-.16574-5.412822-18.32741-10.450526-35.41644v-24.86515z" fill="#0060ff" paint-order="markers fill stroke"/><g transform="matrix(.265 0 0 .265 0 161.533)"><path id="rect23394" d="m94.199219 256.25-59.21875 222.55664c-9.312865 34.99998 21.412042 28.23821 35.615234 22.75 11.853691-4.58037 59.201177-22.99219 59.201177-22.99219s31.89883 17.30443 40.51953 21.88477c18.78672 9.98181 37.93939 7.49506 46.18554-16.36328.2165-.62641 20.45791-69.26894 39.49805-133.85742v-93.97852z" fill="#0060ff" paint-order="markers fill stroke"/><path id="path15252" d="m256 256.25v93.97852c14.57149 49.42977 23.7641 80.56681 30.22852 102.4414 18.17957-3.58516 35.33892-34.73877 52.7246-40.47265 18.42991-6.07828 53.65702 10.96612 69.30665-.50977 15.64958-11.47593 9.98293-50.19703 21.32031-65.94727 2.29353-3.18623 5.71109-6.00658 9.73437-8.63867l-21.51367-80.85156z" fill="#0043e0" paint-order="markers fill stroke"/><path id="path15257" d="m96.064453 256.25c-1.255643 2.92104-2.714492 5.91207-4.242187 8.93164l-11.587891 43.55274c8.428562 16.66527 44.156485 23.34168 55.128905 38.30468 11.47592 15.64959 6.15015 54.41849 21.90039 65.75586 15.75025 11.33753 50.82578-6.01694 69.3086-.10156 3.15071 1.00839 6.30184 2.86027 9.45703 5.2168 7.49756-25.41417 10.34355-35.02417 19.9707-67.68164v-93.97852z" fill="#0043e0" paint-order="markers fill stroke"/></g><path id="path23391" d="m101.13965 265.1675c-4.140627 3.03633-13.46112-1.47345-18.337367.13476s-9.685185 10.77793-14.819735 10.80058c-5.13455.0226-10.024204-9.10428-14.914452-10.66941-4.890246-1.56511-14.170584 3.02672-18.337836.027-4.167252-2.99968-2.75839-13.25759-5.794728-17.39821-3.036338-4.14063-13.243302-5.88061-14.851508-10.75685-1.608206-4.87625 5.561036-12.34696 5.538385-17.48151-.02265-5.13455-7.257529-12.54172-5.692408-17.43197 1.56512-4.89025 11.756335-6.72021 14.756023-10.88746 2.999687-4.16725 1.500374-14.41234 5.640998-17.44868 4.140624-3.03633 13.461115 1.47345 18.337362-.13476s9.685185-10.77793 14.819735-10.80057c5.13455-.0227 10.024204 9.10427 14.914452 10.6694 4.89025 1.56511 14.170584-3.02672 18.337839-.027 4.16725 2.99968 2.75839 13.25759 5.79473 17.39822 3.03633 4.14063 13.2433 5.8806 14.8515 10.75684 1.60821 4.87625-5.56104 12.34697-5.53838 17.48152.0226 5.13455 7.25753 12.54172 5.6924 17.43197-1.56511 4.89024-11.75633 6.7202-14.75602 10.88745-2.99968 4.16725-1.50037 14.41234-5.64099 17.44868z" fill="#52c7ff" paint-order="markers fill stroke"/><path id="rect4225-8-0" d="m12.733103 282.00188v1.0584h2.1171v-1.0584zm5.2911 0v1.0584h2.1167v-1.0584zm5.2906 0v1.0584h2.1172v-1.0584zm5.2933 0v1.0584h2.1171v-1.0584zm5.2906 0v1.0584h2.1172v-1.0584zm5.2911 0v1.0584h2.1172v-1.0584zm5.2933 0v1.0584h2.1171v-1.0584zm5.2906 0v1.0584h2.1172v-1.0584zm5.2911 0v1.0584h2.1172v-1.0584z" fill="#e7edfb" fill-rule="evenodd" stroke-width=".265"/><path id="path14890" d="m100.94156 219.61163a33.208237 33.208237 0 0 1 -33.208223 33.20823 33.208237 33.208237 0 0 1 -33.208238-33.20823 33.208237 33.208237 0 0 1 33.208238-33.20824 33.208237 33.208237 0 0 1 33.208223 33.20824z" fill="#009fff" stroke-linecap="round" stroke-linejoin="round" stroke-width="2.004" paint-order="markers fill stroke"/><path id="path15260" d="m330.76758 203.12109c-5.56625 10.73236-20.3371 22.33844-23.47461 32.19727-4.21837 13.2551 6.91288 39.24805-4.29102 47.49219-11.2039 8.24413-32.61938-10.71113-46.52929-10.62696-9.93685.0602-24.60475 9.88974-36.29493 12.54688-.53388 8.84052-.0395 18.86154 5.17969 22.60547 11.30283 8.10799 34.48852-11.12861 48.39844-11.21289 13.90992-.0842 37.3254 18.87108 48.5293 10.62695 11.20389-8.24413.0726-36.23708 4.29101-49.49219 4.21837-13.25514 29.48-29.66799 25.10156-42.87109-2.08254-6.27989-11.98855-9.1257-20.91015-11.26563z" fill="#0082ff" transform="matrix(.265 0 0 .265 0 161.533)" paint-order="markers fill stroke"/><path id="path27653" d="m67.007812 178.62891.0098 1.05859 2.09961.0137.02344-1.05664zm-3.21875.17968-2.11914.25782.144531 1.04882 2.083985-.2539zm8.56836.0723-.125 1.05078 2.082031.2832.154297-1.04687zm-13.863281.78125-2.0625.53711.285156 1.01953 2.033203-.53128zm19.138671.16211-.265624 1.02344 2.023437.56054.298828-1.01562zm-24.263671 1.38476-1.978516.79688.410156.97656 1.947266-.78515zm29.373047.24219-.404297.97656 1.93164.82618.431641-.96485zm-34.257813 1.96094-1.855469 1.05273.53711.91211 1.826172-1.03515zm39.095703.32617-.519531.92188 1.8125 1.0625.546875-.90625zm-43.65039 2.4961-1.701172 1.2871.652343.83204 1.675782-1.26563zm48.15625.40234-.636719.8457 1.658203 1.29102.662109-.82617zm-52.304688 2.98828-1.519531 1.49805.755859.74023 1.496094-1.47266zm56.394531.4707-.740234.75586 1.474609 1.49414.765625-.73047zm-60.068359 3.42969-1.310547 1.68164.845703.63672 1.291016-1.65625zm63.677734.53125-.833984.65234 1.267578 1.67383.85352-.625zm-66.810547 3.8125-1.083984 1.83594.917969.52539 1.070312-1.80859zm69.873051.58203-.91211.53711 1.03711 1.82617.92968-.50781zm-72.41016 4.13281-.839844 1.96094.978516.4043.826172-1.93164zm74.87695.62696-.97656.4082.78711 1.94922.98828-.38086zm-76.781247 4.38281-.572265 2.05664 1.02539.26563.560547-2.02149zm78.593747.6543-1.01953.28515.5332 2.03125 1.02735-.2539zm-79.820309 4.55859-.302735 2.10938 1.048828.13867.298828-2.08008zm80.964839.67774-1.04882.14453.2539 2.08398 1.05274-.10937zm-81.505855 4.65624-.01563 2.13282 1.056641-.01.01758-2.09961zm81.953125.6836-1.05859.006-.0254 2.35156 1.05664.0332zm-80.742188 4.55859-1.052734.10938.25586 2.11914 1.048828-.14453zm79.419918.91211-.30273 2.07813 1.04492.16992.30664-2.11133zm-78.593746 4.24219-1.029296.24414.523437 2.06641 1.023437-.27344zm77.646486.89258-.56641 2.02343 1.01563.29883.57422-2.05468zm-76.152345 4.10742-.988281.37695.794922 1.98047.976562-.41015zm74.544925.85547-.83008 1.92969.96484.43359.84375-1.96094zm-72.410159 3.9043-.929688.50781 1.050781 1.85547.91211-.53516zm70.164059.80664-1.07617 1.80273.89844.55664 1.0957-1.83008zm-67.423825 3.63476-.853516.625 1.285157 1.70313.833984-.65235zm64.583984.74219-1.304687 1.64648.818359.66993 1.324219-1.66993zm-61.289062 3.30469-.763672.73242 1.494141 1.51953.742187-.75391zm57.898437.66601-1.505859 1.46485.726563.76953 1.527343-1.48633zm-54.103515 2.91992-.664063.82227 1.675782 1.31641.642578-.8418zm50.224609.57618-1.677734 1.26562.626953.85156 1.701172-1.2832zm-45.99414 2.48437-.556641.90039 1.832031 1.0918.529297-.91602zm41.699218.48047-1.828125 1.0332.50586.92774 1.857421-1.04883zm-37.109375 2.00391-.433593.96484 1.960937.8418.400391-.97852zm32.464844.375-1.947266.78125.376953.98828 1.980469-.79493zm-27.59375 1.48828-.298828 1.01562 2.054687.57227.267578-1.02539zm22.681641.26172-2.03711.51367.242188 1.03125 2.068359-.52149zm-17.601563.9414-.167969 1.04492 2.111328.30469.136719-1.04883zm12.492188.14258-2.083985.25.109375 1.05273 2.119141-.2539zm-7.304688.39453-.02148 1.05859 2.130859.0195-.0078-1.0586z" fill="#e7edfb" font-variant-ligatures="normal" font-variant-position="normal" font-variant-caps="normal" font-variant-numeric="normal" font-variant-alternates="normal" font-variant-east-asian="normal" font-feature-settings="normal" font-variation-settings="normal" text-indent="0" text-align="start" text-decoration-line="none" text-decoration-style="solid" text-decoration-color="#000000" text-transform="none" text-orientation="mixed" white-space="normal" shape-padding="0" shape-margin="0" inline-size="0" isolation="auto" mix-blend-mode="normal" solid-color="#000000" solid-opacity="1" vector-effect="none" paint-order="markers fill stroke"/><path id="path14943" d="m78.217476 282.00188v1.0584h2.1171v-1.0584zm5.2911 0v1.0584h2.1167v-1.0584zm5.2906 0v1.0584h2.1172v-1.0584zm5.2933 0v1.0584h2.1171v-1.0584zm5.2906 0v1.0584h2.117204v-1.0584zm5.291104 0v1.0584h2.1172v-1.0584zm5.2933 0v1.0584h2.1171v-1.0584zm5.2906 0v1.0584h2.1172v-1.0584zm5.2911 0v1.0584h2.1172v-1.0584z" fill="#e7edfb" fill-rule="evenodd" stroke-width=".265"/><path id="path23807" d="m80.698439 236.88956c-2.964365 2.18126-9.159713-2.83394-12.840045-2.81167-3.680334.0223-9.814547 5.11206-12.805087 2.96682-2.990539-2.14523-.135273-9.58713-1.293734-13.08046-1.158462-3.49333-7.894713-7.75447-6.778605-11.26157 1.116109-3.50708 9.076109-3.09124 12.040474-5.27249 2.964364-2.18126 4.935345-9.90459 8.615678-9.92686 3.680333-.0223 5.744617 7.67665 8.735156 9.82188 2.99054 2.14524 10.944925 1.63312 12.103387 5.12644 1.158461 3.49332-5.52574 7.83567-6.641849 11.34276-1.11611 3.50708 1.828989 10.91389-1.135375 13.09515z" fill="#e7edfb" paint-order="markers fill stroke"/></g></svg>