<svg id="Layer_1" viewBox="0 0 512 512" xmlns="http://www.w3.org/2000/svg" data-name="Layer 1"><g fill-rule="evenodd"><path d="m229.454 305.493h-17.8c-86.4 0-102.813 83-110.438 151.71h256.477c-7.625-68.712-24.038-151.71-110.466-151.71z" fill="#69a7ff"/><path d="m229.454 305.493h-17.8c-15.817 0-29.31 2.806-40.819 7.767l58.621 122.711 58.62-122.711c-11.509-4.961-25-7.767-40.847-7.767z" fill="#5f96e6"/><path d="m216.868 332.564-8.306 59.669 20.892 43.738 20.891-43.738-8.334-59.669 13.38-26.816q-3.956-.255-8.164-.255h-35.575c-2.778 0-5.5.085-8.135.255z" fill="#ff3d50"/><path d="m242.011 332.564 13.38-26.816q-3.956-.255-8.164-.255h-35.575c-2.778 0-5.5.085-8.135.255l13.351 26.816z" fill="#e82e41"/><path d="m229.454 140.035a65.582 65.582 0 0 1 65.395 65.4v15.647a65.582 65.582 0 0 1 -65.395 65.395 65.582 65.582 0 0 1 -65.4-65.395v-15.652a65.582 65.582 0 0 1 65.4-65.4z" fill="#fbbd80"/><path d="m396.754 181.137-36.454-26.589-36.454 26.589 14.032-42.888-36.538-26.419 45.1.085 13.86-42.945 13.861 42.945 45.1-.085-36.538 26.419zm-130.875-61.965-36.425-26.589-36.454 26.589 14.031-42.889-36.538-26.447 45.1.085 13.861-42.916 13.861 42.916 45.1-.085-36.539 26.447zm-130.848 61.965-36.425-26.589-36.453 26.589 14.031-42.888-36.538-26.419 45.1.085 13.86-42.945 13.862 42.945 45.1-.085-36.539 26.419z" fill="#ffd23b"/><path d="m361.463 390.674 44.872-25.909 66.019 114.322-34.752-7.37-10.148 33.278z" fill="#ff3d50"/><path d="m406.307 390.674-44.901-25.909-65.99 114.322 34.752-7.37 10.149 33.278z" fill="#ff3d50"/><path d="m411.409 304.7a17.927 17.927 0 0 1 23.84 13.777 12.359 12.359 0 0 0 10.034 10.034 17.977 17.977 0 0 1 13.805 23.868 12.436 12.436 0 0 0 3.657 13.719 17.99 17.99 0 0 1 .028 27.553 12.458 12.458 0 0 0 -3.685 13.748 17.964 17.964 0 0 1 -13.805 23.84 12.391 12.391 0 0 0 -10.034 10.034 17.92 17.92 0 0 1 -23.84 13.805 12.446 12.446 0 0 0 -13.748 3.685 17.963 17.963 0 0 1 -27.552 0 12.458 12.458 0 0 0 -13.748-3.685 17.92 17.92 0 0 1 -23.84-13.805 12.39 12.39 0 0 0 -10.034-10.034 17.964 17.964 0 0 1 -13.805-23.84 12.458 12.458 0 0 0 -3.682-13.749 17.964 17.964 0 0 1 0-27.553 12.413 12.413 0 0 0 3.685-13.719 17.977 17.977 0 0 1 13.805-23.868 12.357 12.357 0 0 0 10.034-10.034 17.951 17.951 0 0 1 8.7-12.473 17.76 17.76 0 0 1 15.137-1.3 12.491 12.491 0 0 0 13.748-3.685 17.963 17.963 0 0 1 27.552 0 12.552 12.552 0 0 0 13.748 3.685z" fill="#ffd23b"/><path d="m383.885 433.364a53.49 53.49 0 1 0 -53.49-53.49 53.587 53.587 0 0 0 53.49 53.49z" fill="#ffab02"/><path d="m88.373 138.249-36.51-26.419h-12.217l36.538 26.419-14.031 42.888 16.015-11.707z" fill="#e8bd31"/><path d="m98.606 68.97-13.861 42.916 12.189.029 7.767-24.038z" fill="#e8bd31"/><path d="m131.205 169.43-20.41-14.882-6.094 4.45 30.33 22.139z" fill="#e8bd31"/><path d="m207.031 76.283-14.031 42.889 16.044-11.707 10.176-31.182-36.51-26.418-12.217-.029z" fill="#e8bd31"/><path d="m215.592 49.921h12.189l7.767-24.009-6.094-18.907z" fill="#e8bd31"/><path d="m262.08 107.465-20.437-14.882-6.095 4.45 30.331 22.139z" fill="#e8bd31"/><path d="m337.879 138.249-14.032 42.888 16.044-11.707 10.177-31.181-36.511-26.419h-12.217z" fill="#e8bd31"/><path d="m346.439 111.886 12.218.029 7.738-24.038-6.094-18.907z" fill="#e8bd31"/><path d="m392.928 169.43-20.438-14.882-6.095 4.45 30.359 22.139z" fill="#e8bd31"/><path d="m177.211 205.43a65.647 65.647 0 0 1 58.819-65.084 63.282 63.282 0 0 0 -6.576-.311 65.582 65.582 0 0 0 -65.4 65.4v15.647a65.582 65.582 0 0 0 65.4 65.395 62.979 62.979 0 0 0 6.576-.34 65.6 65.6 0 0 1 -58.819-65.055z" fill="#f5ad65"/><path d="m121.425 457.2c5.669-49.691 16.243-106.1 54.567-133.115l-5.159-10.828.028-.029c-51.335 22.172-63.439 87.849-69.647 143.972z" fill="#5f96e6"/><path d="m306.669 379.874a17.947 17.947 0 0 1 6.431-13.774 12.413 12.413 0 0 0 3.685-13.719 18.026 18.026 0 0 1 1.3-15.165c.227-.369.453-.737.709-1.106a17.976 17.976 0 0 1 11.763-7.6 12.424 12.424 0 0 0 10.063-10.034 18.038 18.038 0 0 1 13.607-14.429 17.957 17.957 0 0 0 -21.714 14.429 12.357 12.357 0 0 1 -10.034 10.034 17.977 17.977 0 0 0 -13.805 23.868 12.413 12.413 0 0 1 -3.674 13.722 17.964 17.964 0 0 0 0 27.553 12.458 12.458 0 0 1 3.685 13.748 17.964 17.964 0 0 0 13.805 23.84 3.218 3.218 0 0 1 .51.113 12.394 12.394 0 0 1 9.524 9.921 17.9 17.9 0 0 0 21.711 14.425 17.876 17.876 0 0 1 -13.607-14.429 12.457 12.457 0 0 0 -10.063-10.034 17.93 17.93 0 0 1 -6.179-2.3 18.172 18.172 0 0 1 -6.293-6.407 17.963 17.963 0 0 1 -1.3-15.137 12.507 12.507 0 0 0 -3.693-13.743 17.9 17.9 0 0 1 -6.435-13.776z" fill="#e8bd31"/><path d="m364.638 304.756a12.492 12.492 0 0 0 13.578-3.742 17.807 17.807 0 0 1 9.723-5.981 17.419 17.419 0 0 0 -4.054-.454 17.9 17.9 0 0 0 -13.776 6.435 12.255 12.255 0 0 1 -5.471 3.742z" fill="#e8bd31"/><path d="m378.216 458.762a12.45 12.45 0 0 0 -8.674-4.394 12.1 12.1 0 0 0 -4.9.652 12.88 12.88 0 0 1 3.486 1.843 12.554 12.554 0 0 1 1.985 1.9 17.991 17.991 0 0 0 13.776 6.435 19.069 19.069 0 0 0 4.054-.454 17.969 17.969 0 0 1 -9.723-5.981z" fill="#e8bd31"/><path d="m380.937 326.469a53.487 53.487 0 0 1 4.847 106.331c-1.332.2-2.693.34-4.025.453-.283 0-.539.029-.822.029.255.028.51.028.765.056.709.029 1.446.029 2.183.029s1.446 0 2.183-.029a53.5 53.5 0 0 0 -2.183-106.951c-.992 0-1.956.029-2.948.085z" fill="#ed9e00"/><path d="m318.065 457.2 12.217-21.146a12.344 12.344 0 0 0 -7.282-4.703l-14.942 25.849-12.642 21.884 11.423-2.41z" fill="#e82e41"/><path d="m341.564 469.279-11.396 2.438 10.149 33.278 7.937-13.748z" fill="#e82e41"/><path d="m406.392 454.368a12.525 12.525 0 0 0 -6.746 2.5l27.808 48.132 2.834-9.269z" fill="#e82e41"/><path d="m440.436 462.419-2.834 9.298 34.752 7.37-6.519-11.254z" fill="#e82e41"/></g><path d="m130.9 186.791a7 7 0 0 0 10.784-7.828l-12.419-38.037 32.4-23.454a7 7 0 0 0 -4.1-12.674h-.018l-40.014.1-12.264-38.076a7 7 0 0 0 -6.662-4.856 7 7 0 0 0 -6.664 4.852l-12.293 38.082-39.989-.1h-.018a7 7 0 0 0 -4.105 12.674l32.4 23.452-12.438 38.033a7 7 0 0 0 10.781 7.833l32.319-23.578zm-55.349-24.091 7.286-22.272a7 7 0 0 0 -2.549-7.848l-18.955-13.72 23.393.059a7.048 7.048 0 0 0 6.68-4.851l7.194-22.285 7.175 22.277a7 7 0 0 0 6.665 4.855h.017l23.421-.059-18.955 13.72a7 7 0 0 0 -2.55 7.845l7.273 22.275-18.911-13.805a7 7 0 0 0 -8.254 0zm221.684-45.224 32.4 23.452-12.443 38.035a7 7 0 0 0 10.78 7.833l32.328-23.582 32.3 23.577a7 7 0 0 0 10.783-7.828l-12.418-38.037 32.4-23.454a7 7 0 0 0 -4.105-12.674h-.018l-39.989.1-12.288-38.08a7 7 0 0 0 -13.326 0l-12.292 38.082-39.989-.1h-.017a7 7 0 0 0 -4.106 12.674zm49.188 1.443a7.008 7.008 0 0 0 6.681-4.851l7.2-22.3 7.2 22.3a7 7 0 0 0 6.663 4.851h.017l23.393-.059-18.955 13.72a7 7 0 0 0 -2.55 7.845l7.273 22.275-18.915-13.809a7 7 0 0 0 -8.254 0l-18.928 13.809 7.286-22.272a7 7 0 0 0 -2.549-7.848l-18.954-13.72zm-180.036-63.414 32.4 23.453-12.443 38.036a7 7 0 0 0 10.78 7.833l32.327-23.579 32.3 23.578a7 7 0 0 0 10.784-7.826l-12.419-38.04 32.4-23.455a7 7 0 0 0 -4.1-12.673h-.016l-39.994.076-12.29-38.058a7 7 0 0 0 -13.325 0l-12.291 38.058-39.993-.076h-.013a7 7 0 0 0 -4.1 12.673zm49.192 1.417h.013a7 7 0 0 0 6.662-4.85l7.2-22.289 7.2 22.289a7 7 0 0 0 6.663 4.85h.013l23.415-.045-18.975 13.732a7 7 0 0 0 -2.55 7.845l7.273 22.277-18.912-13.8a7 7 0 0 0 -8.254 0l-18.927 13.8 7.286-22.273a7 7 0 0 0 -2.548-7.849l-18.974-13.732zm199.876 309.848-36.114 36.113a7 7 0 0 1 -4.951 2.051 7 7 0 0 1 -4.953-2.055l-17.121-17.15a7 7 0 0 1 9.91-9.893l12.17 12.19 31.159-31.159a7 7 0 1 1 9.9 9.9zm28.924 13.105a60.492 60.492 0 1 0 -60.492 60.493 60.561 60.561 0 0 0 60.492-60.493zm-60.492 46.489a46.488 46.488 0 1 1 46.488-46.489 46.541 46.541 0 0 1 -46.488 46.489zm-154.434-293.364a72.494 72.494 0 0 0 -72.4 72.426v15.648a72.4 72.4 0 1 0 144.795 0v-15.645a72.494 72.494 0 0 0 -72.395-72.429zm58.4 88.074a58.395 58.395 0 0 1 -116.789 0v-15.645a58.395 58.395 0 1 1 116.789 0zm190.566 254.512-23.447-40.58a24.986 24.986 0 0 0 10.689-30.027 5.45 5.45 0 0 1 1.573-5.951 24.967 24.967 0 0 0 .022-38.286 5.518 5.518 0 0 1 -1.633-5.946 24.928 24.928 0 0 0 -19.149-33.185 5.379 5.379 0 0 1 -4.324-4.33 24.965 24.965 0 0 0 -33.138-19.187h-.009a5.486 5.486 0 0 1 -5.983-1.591 24.965 24.965 0 0 0 -38.282.019 5.451 5.451 0 0 1 -5.977 1.569 24.964 24.964 0 0 0 -33.139 19.194 5.38 5.38 0 0 1 -4.328 4.324 25.134 25.134 0 0 0 -5.331 1.544 89.389 89.389 0 0 0 -24.437-15.978c-.142-.081-.283-.163-.433-.235a6.98 6.98 0 0 0 -1.071-.4 104.861 104.861 0 0 0 -33.5-7.706 6.952 6.952 0 0 0 -1.379-.086c-2.6-.154-5.225-.259-7.911-.259h-35.58c-2.815 0-5.575.093-8.291.263-.231 0-.461.021-.692.049a104.562 104.562 0 0 0 -33.772 7.735 6.991 6.991 0 0 0 -1.083.4c-.188.09-.367.19-.544.294-19.434 8.648-35.011 23.686-46.542 45.016-16.536 30.589-22.677 69.828-26.5 104.177a7 7 0 0 0 6.958 7.777h194.736l-6.57 11.382a7 7 0 0 0 7.517 10.35l28.475-6.039 8.276 27.14a7 7 0 0 0 5.9 4.914 7.144 7.144 0 0 0 .8.046 7 7 0 0 0 6.06-3.5l23.469-40.622a24.91 24.91 0 0 0 28.068-.013l23.476 40.642a7 7 0 0 0 6.061 3.5 7.126 7.126 0 0 0 .8-.046 7 7 0 0 0 5.9-4.914l8.276-27.14 28.475 6.039a7 7 0 0 0 7.515-10.353zm-218.892-162.444a91.812 91.812 0 0 1 18.966 3.933l-24.433 51.145-4.814-34.473zm-15.327-.642-6.519 13.066h-16.481l-6.5-13.066zm-1.079 78.625-13.668 28.605-13.667-28.61 7.176-51.554h12.958zm-43.747-77.985 10.261 20.609-4.8 34.457-24.4-51.084a91.7 91.7 0 0 1 18.938-3.986zm-90.331 137.06c3.741-31.021 9.807-65.03 24-91.291 8.949-16.556 20.38-28.6 34.509-36.266l55.579 116.345a7 7 0 0 0 12.636 0l55.591-116.358a75.31 75.31 0 0 1 13.6 9.483c-.35.517-.69 1.042-1 1.588a24.9 24.9 0 0 0 -1.845 21.1 5.43 5.43 0 0 1 -1.643 5.959 24.965 24.965 0 0 0 .038 38.266 5.444 5.444 0 0 1 1.6 5.977 24.98 24.98 0 0 0 10.679 29.993l-8.782 15.204zm233.272 37.342-5.448-17.868a7 7 0 0 0 -8.15-4.807l-19.381 4.11 4.681-8.11c.087-.141.172-.283.249-.431l11.014-19.082a5.128 5.128 0 0 1 .343 1.113 24.95 24.95 0 0 0 31.315 19.763zm50.008-33.308a10.964 10.964 0 0 1 -16.84.039 19.291 19.291 0 0 0 -3.192-3.035c-.043-.032-.086-.063-.13-.093a19.457 19.457 0 0 0 -11.57-3.827 19.146 19.146 0 0 0 -6.628 1.181 10.962 10.962 0 0 1 -14.542-8.423 19.356 19.356 0 0 0 -15.739-15.737 10.963 10.963 0 0 1 -8.429-14.521 19.392 19.392 0 0 0 -5.75-21.528 10.966 10.966 0 0 1 -.016-16.822 19.367 19.367 0 0 0 5.773-21.491 10.974 10.974 0 0 1 8.416-14.568 19.337 19.337 0 0 0 15.745-15.74 10.961 10.961 0 0 1 14.532-8.426 19.419 19.419 0 0 0 21.533-5.745 10.965 10.965 0 0 1 16.821.023 19.458 19.458 0 0 0 21.5 5.725 10.962 10.962 0 0 1 14.54 8.416 19.338 19.338 0 0 0 15.741 15.746 10.925 10.925 0 0 1 8.383 14.566 19.523 19.523 0 0 0 5.764 21.478 10.963 10.963 0 0 1 0 16.84 19.43 19.43 0 0 0 -5.727 21.5 10.963 10.963 0 0 1 -8.408 14.548c-.268.046-.529.112-.793.168l-.116.025a19.342 19.342 0 0 0 -14.838 15.546 10.961 10.961 0 0 1 -14.532 8.426 19.405 19.405 0 0 0 -21.498 5.732zm46.733 10.633a7 7 0 0 0 -8.15 4.807l-5.448 17.868-14.62-25.307a24.956 24.956 0 0 0 31.312-19.765 5.085 5.085 0 0 1 .333-1.089l15.946 27.6z"/></svg>