<svg id="Capa_1" enable-background="new 0 0 512 512" viewBox="0 0 512 512" xmlns="http://www.w3.org/2000/svg"><g><path d="m256 512-149.92-256 149.92-256c141.386 0 256 114.614 256 256s-114.614 256-256 256z" fill="#fab757"/><path d="m256 0c-141.386 0-256 114.614-256 256 0 48.977 13.762 94.736 37.618 133.637l-31.018 115.763 115.762-31.019c38.901 23.856 84.66 37.619 133.638 37.619z" fill="#fdd35e"/><path d="m256 448.266-112.596-192.266 112.596-192.265c106.186 0 192.266 86.08 192.266 192.266s-86.08 192.265-192.266 192.265z" fill="#f2f2f2"/><path d="m63.735 256c0-106.186 86.08-192.266 192.266-192.266v384.531c-106.187.001-192.266-86.079-192.266-192.265z" fill="#fff"/><path d="m378.241 216.281-84.467-12.273-37.774-76.539-30 96.398 30 96.399 75.549 39.718-14.429-84.125z" fill="#f89a4f"/><path d="m218.226 204.008-84.467 12.273 61.121 59.578-14.429 84.125 75.549-39.718v-192.797z" fill="#fab757"/></g><g/><g/><g/><g/><g/><g/><g/><g/><g/><g/><g/><g/><g/><g/><g/></svg>