<svg height="512" viewBox="0 0 60 60" width="512" xmlns="http://www.w3.org/2000/svg"><g id="Icons"><path d="m43.74 52.54a12.475 12.475 0 0 1 -3.13 1.92l-10.61 4.54-10.61-4.54a12.224 12.224 0 0 1 -3.13-1.93 14.083 14.083 0 0 1 -4.92-11.71 16.625 16.625 0 0 1 .21-1.71l2.41-13.13c7.98-.14 12.98-2.53 16.04-4.98 3.06 2.45 8.06 4.84 16.04 4.98l2.41 13.14a16.625 16.625 0 0 1 .21 1.71 14.107 14.107 0 0 1 -4.92 11.71z" fill="#3f51b5"/><path d="m48.66 40.83a16.625 16.625 0 0 0 -.21-1.71l-2.41-13.14c-7.98-.14-12.98-2.53-16.04-4.98-.454.364-.957.725-1.5 1.079 3.116 2.03 7.744 3.782 14.54 3.9l2.41 13.14a16.625 16.625 0 0 1 .21 1.71 14.107 14.107 0 0 1 -4.92 11.71 12.475 12.475 0 0 1 -3.13 1.92l-9.11 3.9 1.5.641 10.61-4.54a12.475 12.475 0 0 0 3.13-1.92 14.107 14.107 0 0 0 4.92-11.71z" fill="#283593"/><path d="m20.963 50.78a9.887 9.887 0 0 1 -5.484-10.943l1.846-10.037a29.565 29.565 0 0 0 12.675-3.929 29.57 29.57 0 0 0 12.675 3.929l1.846 10.042a9.884 9.884 0 0 1 -5.483 10.94l-9.038 3.866z" fill="#02a9f4"/><path d="m44.521 39.839-1.846-10.039a29.57 29.57 0 0 1 -12.675-3.929c-.486.3-.988.57-1.5.833a30.6 30.6 0 0 0 11.175 3.096l1.846 10.042a9.884 9.884 0 0 1 -5.483 10.94l-7.538 3.224 1.5.642 9.038-3.869a9.884 9.884 0 0 0 5.483-10.94z" fill="#0377bc"/><path d="m16.26 52.53-6.9 6.21a1 1 0 0 1 -1.64-.48l-1.22-4.42a1.012 1.012 0 0 0 -.59-.67l-4.28-1.68a1 1 0 0 1 -.3-1.67l10.01-9a14.083 14.083 0 0 0 4.92 11.71z" fill="#f44335"/><path d="m58.37 51.49-4.28 1.68a1.012 1.012 0 0 0 -.59.67l-1.22 4.42a1 1 0 0 1 -1.64.48l-6.9-6.2a14.107 14.107 0 0 0 4.92-11.71l10.01 8.99a1 1 0 0 1 -.3 1.67z" fill="#f44335"/><path d="m58.67 49.82-10.01-8.99a14.448 14.448 0 0 1 -.094 2.61l7.1 6.38a1 1 0 0 1 -.3 1.67l-4.28 1.68a1.012 1.012 0 0 0 -.59.67l-1.056 3.825 1.2 1.075a1 1 0 0 0 1.64-.48l1.22-4.42a1.012 1.012 0 0 1 .59-.67l4.28-1.68a1 1 0 0 0 .3-1.67z" fill="#c81e1e"/><g fill="#ffdf00"><path d="m33.965 18.244-3.538-1.664a1 1 0 0 0 -.852 0l-3.536 1.667a1 1 0 0 1 -1.421-1.006l.426-4.184a1 1 0 0 0 -.237-.754l-2.72-3.157a1 1 0 0 1 .541-1.629l3.889-.861a1 1 0 0 0 .661-.5l1.939-3.553a1 1 0 0 1 1.755 0l1.942 3.551a1 1 0 0 0 .662.5l3.889.857a1 1 0 0 1 .543 1.629l-2.716 3.16a1 1 0 0 0 -.237.755l.43 4.183a1 1 0 0 1 -1.42 1.006z"/><path d="m50.409 22.6-2.537-1.995a1 1 0 0 0 -.83-.192l-3.154.683a1 1 0 0 1 -1.158-1.3l1.127-3.3a1 1 0 0 0 -.057-.796l-1.615-3.07a1 1 0 0 1 .9-1.465l3.3.031a1 1 0 0 0 .756-.335l2.223-2.5a1 1 0 0 1 1.71.394l.9 3.22a1 1 0 0 0 .533.632l2.983 1.42a1 1 0 0 1 .163 1.709l-2.8 2.052a1 1 0 0 0 -.4.682l-.435 3.464a1 1 0 0 1 -1.609.666z"/><path d="m9.591 22.6 2.537-1.995a1 1 0 0 1 .83-.192l3.154.683a1 1 0 0 0 1.158-1.3l-1.127-3.3a1 1 0 0 1 .057-.796l1.615-3.07a1 1 0 0 0 -.895-1.465l-3.3.031a1 1 0 0 1 -.756-.335l-2.223-2.5a1 1 0 0 0 -1.71.394l-.9 3.22a1 1 0 0 1 -.533.632l-2.983 1.42a1 1 0 0 0 -.163 1.709l2.8 2.052a1 1 0 0 1 .4.682l.435 3.464a1 1 0 0 0 1.604.666z"/></g></g><g id="Icons_copy" data-name="Icons copy"><path d="m20.569 51.7 9.037 3.868a1 1 0 0 0 .788 0l9.037-3.868a10.887 10.887 0 0 0 6.069-12.042l-1.842-10.042a1 1 0 0 0 -.888-.814 28.658 28.658 0 0 1 -12.252-3.786 1 1 0 0 0 -1.038 0 28.654 28.654 0 0 1 -12.25 3.784 1 1 0 0 0 -.888.814l-1.842 10.042a10.892 10.892 0 0 0 6.069 12.044zm-4.106-11.682 1.71-9.3a30.574 30.574 0 0 0 11.827-3.686 30.573 30.573 0 0 0 11.828 3.682l1.71 9.306a8.877 8.877 0 0 1 -4.892 9.84l-8.646 3.701-8.644-3.7a8.882 8.882 0 0 1 -4.893-9.843z"/><path d="m21.485 45.857a1 1 0 0 0 1.372-.342l2.143-3.571 2.143 3.571a1 1 0 1 0 1.714-1.03l-2.691-4.485 2.691-4.485a1 1 0 1 0 -1.714-1.03l-2.143 3.571-2.143-3.571a1 1 0 1 0 -1.714 1.03l2.691 4.485-2.691 4.485a1 1 0 0 0 .342 1.372z"/><path d="m32 46a1 1 0 0 0 1-1v-3h2a4 4 0 0 0 0-8h-3a1 1 0 0 0 -1 1v10a1 1 0 0 0 1 1zm1-10h2a2 2 0 0 1 0 4h-2z"/><path d="m.032 50.927a1.982 1.982 0 0 0 1.233 1.494l4.271 1.685 1.22 4.42a2 2 0 0 0 3.272.958l6.288-5.652a13.577 13.577 0 0 0 2.684 1.544l10.61 4.543a1 1 0 0 0 .788 0l10.602-4.543a13.577 13.577 0 0 0 2.68-1.544l6.29 5.654a2 2 0 0 0 3.27-.96l1.215-4.426 4.28-1.68a2 2 0 0 0 .6-3.345l-9.712-8.73c-.042-.47-.1-.94-.188-1.411l-2.412-13.134a1 1 0 0 0 -.965-.82c-6.451-.115-11.643-1.716-15.433-4.758a1 1 0 0 0 -1.251 0c-3.791 3.043-8.983 4.644-15.432 4.759a1 1 0 0 0 -.965.82l-2.415 13.133c-.087.471-.146.942-.188 1.412l-9.716 8.734a2 2 0 0 0 -.626 1.847zm53.675 1.319a2.016 2.016 0 0 0 -1.171 1.327l-1.227 4.427-6.081-5.467a15.106 15.106 0 0 0 4.4-9.491l8.375 7.522zm-41.178-12.946 2.271-12.343c6.191-.23 11.3-1.808 15.2-4.694 3.9 2.886 9.01 4.464 15.2 4.694l2.271 12.343a12.9 12.9 0 0 1 -7.253 14.242l-10.218 4.37-10.218-4.374a12.9 12.9 0 0 1 -7.253-14.238zm-2.159 3.739a15.114 15.114 0 0 0 4.4 9.49l-6.086 5.465-1.218-4.412a2.027 2.027 0 0 0 -1.191-1.343l-4.275-1.675z"/><path d="m39.047 7.855a1.987 1.987 0 0 0 -1.467-1.321l-3.889-.856-1.941-3.551a2 2 0 0 0 -1.75-1.041 2.048 2.048 0 0 0 -1.756 1.042l-1.944 3.553-3.887.861a2 2 0 0 0 -1.084 3.258l2.72 3.157-.425 4.184a2 2 0 0 0 2.842 2.011l3.534-1.667 3.538 1.664a1.975 1.975 0 0 0 2.007-.178 2 2 0 0 0 .834-1.836l-.43-4.184 2.717-3.159a1.986 1.986 0 0 0 .381-1.937zm-4.613 3.792a2 2 0 0 0 -.473 1.509l.435 4.185h-.005l-3.538-1.664a2 2 0 0 0 -1.705 0l-3.535 1.668.426-4.184a2.01 2.01 0 0 0 -.475-1.508l-2.719-3.158 3.888-.861a2 2 0 0 0 1.323-.994l1.944-3.554 1.942 3.551a2 2 0 0 0 1.324.994l3.889.857z"/><path d="m42.184 21.45a2 2 0 0 0 1.916.624l3.154-.682 2.536 2a2 2 0 0 0 2 .277 1.976 1.976 0 0 0 1.223-1.6l.435-3.462 2.8-2.053a2 2 0 0 0 -.324-3.419l-2.989-1.425-.9-3.218a2 2 0 0 0 -3.42-.79l-2.222 2.5-3.3-.031a2.036 2.036 0 0 0 -1.727.958 1.983 1.983 0 0 0 -.066 1.971l1.615 3.069-1.127 3.306a2 2 0 0 0 .396 1.975zm4.186-9.25a1.882 1.882 0 0 0 1.513-.67l2.222-2.5.9 3.219a2 2 0 0 0 1.066 1.266l2.984 1.419-2.795 2.05a2.017 2.017 0 0 0 -.8 1.366l-.43 3.466-2.536-2a2 2 0 0 0 -1.66-.383l-3.155.683 1.121-3.302a2.008 2.008 0 0 0 -.123-1.576l-1.614-3.069z"/><path d="m11.389 7.7a2 2 0 0 0 -3.42.789l-.9 3.219-2.987 1.421a2 2 0 0 0 -.324 3.42l2.8 2.051.435 3.463a2 2 0 0 0 1.983 1.752 2 2 0 0 0 1.237-.427l2.536-2 3.154.682a2 2 0 0 0 2.316-2.6l-1.127-3.3 1.608-3.07a2 2 0 0 0 -1.767-2.931h-.021l-3.3.031zm5.544 4.466-1.614 3.07a2.01 2.01 0 0 0 -.123 1.577l1.127 3.3-3.153-.682a2 2 0 0 0 -1.661.382l-2.535 2-.435-3.463a2.015 2.015 0 0 0 -.8-1.363l-2.8-2.051 2.984-1.419a2 2 0 0 0 1.066-1.266l.9-3.219 2.222 2.5a1.98 1.98 0 0 0 1.512.671z"/></g></svg>