<svg id="Capa_1" enable-background="new 0 0 512 512" height="512" viewBox="0 0 512 512" width="512" xmlns="http://www.w3.org/2000/svg"><g><path d="m270.601 478.905h-29.201v27.906l1 4.717c4.502.248 9.036.377 13.601.377 4.564 0 9.098-.129 13.601-.377l1-4.717v-27.906z" fill="#fe9901"/><g><path d="m256 22.095c-135.31 0-245 109.69-245 245 0 71.556 30.682 135.94 79.601 180.733l1 .311v-21.673l-57.99-124.36 32.177-15.004 47.125 101.059c.98 2.104 3.115 3.464 5.438 3.464h94.05c15.991 0 29 13.009 29 29v59.471h29.201v-59.471c0-15.991 13.009-29 29-29h93.675l52.937-113.522 32.177 15.004-57.99 124.36v30.673l1-.311c48.917-44.794 79.599-109.178 79.599-180.734 0-135.309-109.69-245-245-245z" fill="#b6c4cf"/><g><path d="m404.417 334.095.258 1.209c.21.985.317 1.982.317 2.963v7.888c0 7.784-6.333 14.116-14.117 14.116h-4.637l-.125.856c-1.823 12.511-11.815 22.64-24.3 24.632l-.842.134v5.73h32.305l26.826-57.529h-15.685z" fill="#bb5d4c"/></g><g><path d="m224.981 51.03 2.349.008 24.802-11.565 3.363-7.211-5.923-16.272c-.19-.522-.266-1.053-.287-1.581l-2.93-6.283c-3.245-6.958-11.516-9.969-18.474-6.724l-8.791 4.099c-6.958 3.245-9.969 11.516-6.724 18.474z" fill="#ea9b58"/></g><g><path d="m228.618 27.032c-3.245-6.958-.234-15.23 6.724-18.474l8.602-4.011c-3.994-4.307-10.454-5.762-16.064-3.146l-8.791 4.099c-6.958 3.245-9.969 11.516-6.724 18.474l12.616 27.055 2.349.008 10.253-4.781z" fill="#d88a55"/></g><path d="m503.97 5.501-8.791-4.099c-6.958-3.245-15.23-.234-18.474 6.724l-3.761 8.066-1.505-4.136c-1.181-3.244-4.768-4.916-8.011-3.736-3.244 1.181-4.917 4.768-3.736 8.011l5.781 15.883-1.383 2.966.771 1.463 31.05 14.479 2.169-.092 12.616-27.055c3.243-6.958.232-15.23-6.726-18.474z" fill="#ea9b58"/><path d="m45.587 37.367 2.324-2.187-1.383-2.966 5.781-15.883c1.181-3.244-.492-6.831-3.736-8.011-3.244-1.181-6.831.492-8.011 3.736l-1.505 4.136-3.761-8.066c-3.245-6.958-11.516-9.969-18.474-6.724l-8.792 4.099c-6.958 3.244-9.969 11.516-6.724 18.474l12.616 27.055 2.348.009z" fill="#ffbd86"/><path d="m18.306 23.975c-3.245-6.958-.234-15.23 6.724-18.474l5.856-2.731c-3.957-2.88-9.315-3.583-14.065-1.369l-8.791 4.1c-6.958 3.244-9.969 11.516-6.724 18.474l12.616 27.055 2.348.009 12.039-5.614z" fill="#f6a96c"/><path d="m485.61 247.093-8.791-4.099c-6.958-3.245-15.23-.234-18.474 6.724l-3.761 8.066-1.505-4.136c-1.181-3.244-4.768-4.916-8.011-3.736-3.244 1.181-4.916 4.768-3.736 8.011l5.781 15.883-1.383 2.966.732 1.445 30.98 14.447 2.277-.042 12.616-27.055c3.244-6.958.233-15.229-6.725-18.474z" fill="#fed2a4"/><path d="m447.112 273.806-1.383 2.966 8.874 4.138 1.22-3.186c.862-2.249.883-4.734.059-6.998l-4.503-12.373c-.775-2.131-.314-4.405 1.009-6.052-1.651-2.461-4.901-3.508-7.777-2.204-3.013 1.365-4.324 4.956-3.193 8.064z" fill="#ffbd86"/><path d="m65.539 287.218.732-1.445-1.383-2.966 5.781-15.883c1.181-3.244-.492-6.831-3.736-8.011-3.244-1.181-6.831.492-8.011 3.736l-1.505 4.136-3.761-8.066c-3.245-6.958-11.516-9.969-18.474-6.724l-8.791 4.099c-6.958 3.245-9.969 11.516-6.724 18.474l12.616 27.055 2.277.042z" fill="#ea9b58"/><path d="m36.618 274.567c-3.245-6.958-.234-15.23 6.724-18.474l5.884-2.744c-3.955-2.868-9.304-3.567-14.045-1.356l-8.791 4.099c-6.958 3.245-9.969 11.516-6.724 18.474l12.616 27.055 2.277.042 12.07-5.629z" fill="#d88a55"/><g><path d="m107.325 335.304.258-1.209h-19.882l18.544 39.767.856-2.153c1.713-4.308 4.466-8.208 7.961-11.277l1.119-.983-1.333-.664c-4.836-2.409-7.841-7.248-7.841-12.63v-7.888c.001-.981.108-1.978.318-2.963z" fill="#bb5d4c"/></g><g><g><g><g fill="#97d729"><path d="m252.789 38.063-27.808 12.967 10.881 23.334z"/><path d="m464.089 35.18-51.439 110.312c-.866 7.643-7.363 13.603-15.234 13.603h-71.773c-7.871 0-14.368-5.961-15.234-13.604l-34.271-73.494-20.69 44.37 20.763 44.526c3.051-2.724 6.97-4.265 11.13-4.265 9.257 0 16.789 7.531 16.789 16.789 0 .629-.044 1.285-.141 2.063l-.109.89.873.206c7.613 1.793 12.931 8.506 12.931 16.325 0 4.691-2.001 9.208-5.49 12.391l-.81.739.81.739c3.489 3.184 5.49 7.7 5.49 12.391 0 4.293-1.651 8.392-4.649 11.541l-.564.593.469.67c1.67 2.384 2.553 5.179 2.553 8.081v7.888c0 7.784-6.333 14.117-14.117 14.117h-4.637l-.125.856c-.68 4.666-2.476 8.952-5.084 12.613v17.883h3.867l.191-.755c4.835-19.166 22.033-32.551 41.823-32.551h16.18c23.785 0 43.136 19.351 43.136 43.136v22.186l.546.278c3.793 1.933 6.435 5.385 7.356 9.4h15.008l11.894-25.506v-115.847l66.547-142.714z"/></g><g fill="#8bc727"><path d="m464.089 35.18-50.334 107.941v.635c0 2.763-.692 5.363-1.903 7.645h8.778c1.943 0 3.71-1.126 4.532-2.887l50.362-108.002z"/><g><path d="m252.789 38.063-27.808 12.967 10.881 23.334z"/><g><path d="m287.342 155.629c.11 0 .216.014.325.016l-25.28-54.158-6.939 14.881 20.315 43.566c3.111-2.679 7.151-4.305 11.579-4.305z"/><path d="m294.618 292.402c1.886-7.474 5.682-14.183 10.834-19.592v-10.332c-1.298.363-2.661.572-4.076.572h-3.773c-.773 5.303-2.923 10.156-6.073 14.194v15.159h3.088z"/></g></g></g><path d="m292.911 5.501-8.791-4.099c-6.958-3.245-15.23-.234-18.474 6.724l-3.761 8.066-1.505-4.136c-1.181-3.244-4.768-4.916-8.011-3.736-3.244 1.181-4.917 4.768-3.736 8.011l5.781 15.883-1.383 2.966 1.849 1.965 29.791 13.892 2.349-.008 12.616-27.055c3.244-6.957.233-15.229-6.725-18.473z" fill="#ffbd86"/><g><path d="m266.264 34.103c.573-1.208.638-2.596.181-3.852l-5.066-13.919c-.304-.836-.416-1.693-.363-2.527l-.547-1.502c-1.171-3.216-4.67-5.119-7.919-4.045-3.363 1.111-5.12 4.771-3.917 8.074l5.781 15.883-1.383 2.966 1.849 1.965 8.142 3.797z" fill="#f6a96c"/></g><g><path d="m361.53 17.095c-28.843 0-52.226 23.382-52.226 52.225v74.436c0 9.024 7.315 16.339 16.339 16.339h71.773c9.024 0 16.339-7.315 16.339-16.339v-74.435c0-28.843-23.382-52.226-52.225-52.226z" fill="#596c76"/></g><g fill="#465a61"><path d="m316.154 83.928h4.451v-1.833c0-4.962 4.038-9 9-9h4.945v-3.775c0-24.49 16.86-45.034 39.603-50.68-4.043-1.004-8.269-1.545-12.622-1.545-28.843 0-52.225 23.382-52.225 52.225v16.261c2.056-1.049 4.379-1.653 6.848-1.653z"/><path d="m334.549 143.757v-7.04c-4.693-4.125-8.432-9.308-10.854-15.167.068.166.129.335.2.5h-7.741c-2.469 0-4.792-.604-6.85-1.653v23.36c0 9.024 7.315 16.339 16.339 16.339h25.245c-9.024-.001-16.339-7.316-16.339-16.339z"/></g><g><path d="m361.53 146.908c-5.858 0-11.427-1.246-16.471-3.473v16.724c0 7.024 5.694 12.718 12.718 12.718h7.506c7.024 0 12.718-5.694 12.718-12.718v-16.724c-5.044 2.227-10.613 3.473-16.471 3.473z" fill="#d88a55"/><path d="m358.91 160.159v-12.341c-4.891-.302-9.556-1.436-13.852-3.273v15.614c0 7.024 5.694 12.718 12.718 12.718h7.506c1.098 0 2.157-.154 3.173-.415-5.485-1.412-9.545-6.377-9.545-12.303z" fill="#c57a44"/><g><g fill="#d88a55"><path d="m320.604 105.983v-22.055h-4.451c-8.349 0-15.117 6.768-15.117 15.117v7.888c0 8.349 6.768 15.117 15.117 15.117h7.741c-2.115-4.936-3.29-10.366-3.29-16.067z"/><path d="m406.905 83.928h-4.451v22.055c0 5.701-1.175 11.131-3.29 16.066h7.741c8.349 0 15.117-6.768 15.117-15.117v-7.888c0-8.348-6.768-15.116-15.117-15.116z"/></g><g><path d="m377.987 60.125c2.357-1.765 5.378-2.418 8.245-1.746 9.872 2.317 17.222 11.179 17.222 21.757v25.847c0 23.155-18.77 41.925-41.925 41.925-23.155 0-41.925-18.77-41.925-41.925v-23.888c0-5.523 4.477-10 10-10h29.067c2.161 0 4.264-.7 5.994-1.995z" fill="#ea9b58"/></g><g><path d="m336.15 105.983v-23.888c0-5.523 4.477-10 10-10h-16.545c-5.523 0-10 4.477-10 10v23.887c0 23.155 18.77 41.925 41.925 41.925 2.832 0 5.598-.285 8.273-.82-19.193-3.841-33.653-20.782-33.653-41.104z" fill="#d88a55"/></g></g><g><g><path d="m361.531 135.033c-5.435 0-10.7-1.891-14.897-5.363-3.191-2.641-3.638-7.368-.998-10.56 2.641-3.191 7.367-3.639 10.56-.998 1.568 1.297 3.543 1.979 5.588 1.917 1.875-.057 3.632-.719 5.08-1.917 3.193-2.64 7.919-2.193 10.56.998 2.64 3.192 2.193 7.919-.998 10.56-3.985 3.296-9.025 5.197-14.192 5.353-.234.007-.469.01-.703.01z" fill="#bb5d4c"/></g><g><g><path d="m338.333 100.552c-4.142 0-7.5-3.358-7.5-7.5v-6.506c0-4.142 3.358-7.5 7.5-7.5s7.5 3.358 7.5 7.5v6.506c0 4.143-3.358 7.5-7.5 7.5z" fill="#bb5d4c"/></g><g><path d="m384.727 100.552c-4.142 0-7.5-3.358-7.5-7.5v-6.506c0-4.142 3.358-7.5 7.5-7.5s7.5 3.358 7.5 7.5v6.506c0 4.143-3.358 7.5-7.5 7.5z" fill="#bb5d4c"/></g></g><g><path d="m361.526 113.851c-1.706 0-3.42-.578-4.827-1.763l-6.084-5.124c-3.04-2.56-3.555-7.047-1.174-10.23l6.084-8.132c2.481-3.315 7.181-3.994 10.499-1.512 3.316 2.481 3.994 7.182 1.512 10.499l-1.843 2.463.668.563c3.168 2.668 3.574 7.399.906 10.568-1.484 1.761-3.605 2.668-5.741 2.668z" fill="#bb5d4c"/></g></g></g></g></g><g><path d="m105.095 84.928h4.451v-4.792c0-11.771 9.577-21.348 21.348-21.348h39.155c11.771 0 21.348 9.577 21.348 21.348v4.792h4.451c2.485 0 4.819.651 6.85 1.783v-34.269c0-15.375-12.464-27.838-27.838-27.838h-48.775c-15.375 0-27.838 12.464-27.838 27.838v34.269c2.029-1.132 4.362-1.783 6.848-1.783z" fill="#fe9901"/><g><path d="m128.549 52.442c0-15.375 12.464-27.838 27.838-27.838h-30.304c-15.375 0-27.838 12.464-27.838 27.838v34.269c2.031-1.132 4.364-1.783 6.85-1.783h4.451v-4.792c0-10.978 8.332-20.04 19.004-21.212v-6.482z" fill="#fb8801"/></g><g><g><path d="m80.47 318.589 7.697 16.506h19.19l.208-.724c.981-3.422 3.212-6.328 6.28-8.181l1.203-.727-1.081-.898c-4.11-3.417-6.468-8.436-6.468-13.77 0-5.504 2.49-10.626 6.833-14.052l.674-.532-.424-.747c-1.394-2.456-2.131-5.239-2.131-8.05 0-9.013 7.333-16.345 16.345-16.345h4.375l.286-.26c9.057-8.233 20.791-12.768 33.042-12.768s23.985 4.535 33.042 12.768l.286.26h4.375c8.494 0 15.489 6.514 16.267 14.808v-10.358c-2.608-3.661-4.404-7.947-5.084-12.613l-.125-.856h-4.637c-7.784 0-14.117-6.333-14.117-14.117v-7.888c0-2.902.883-5.697 2.553-8.082l.469-.67-.564-.593c-2.998-3.149-4.649-7.247-4.649-11.541 0-4.691 2.001-9.208 5.491-12.391l.81-.739-.81-.739c-3.489-3.184-5.491-7.7-5.491-12.391 0-7.818 5.317-14.531 12.931-16.325l.873-.206-.109-.89c-.096-.778-.141-1.434-.141-2.063 0-9.257 7.532-16.789 16.789-16.789 4.161 0 8.079 1.542 11.13 4.265l51.23-109.864-33.988-15.847-52.849 113.334c-.821 1.761-2.588 2.887-4.532 2.887h-90.358c-1.943 0-3.71-1.126-4.532-2.887l-52.848-113.334-33.989 15.85 66.548 142.714z" fill="#fe76a8"/></g><g fill="#fe5694"><path d="m253.03 35.18-52.849 113.334c-.791 1.696-2.46 2.791-4.317 2.871l-.006.015h10.61c3.886 0 7.421-2.252 9.063-5.774l48.89-105.136z"/><path d="m80.47 318.589 7.697 16.506h9.284v-139.157c0-1.445-.313-2.874-.918-4.186l-60.449-131.136c-1.152-2.5-.067-5.461 2.428-6.625l14.926-6.96-5.527-11.851-33.989 15.85 66.548 142.714z"/></g><g><path d="m162.138 146.908h-23.334c-1.636 0-3.24-.142-4.803-.401v13.652c0 7.024 5.694 12.718 12.718 12.718h7.506c7.024 0 12.718-5.694 12.718-12.718v-13.652c-1.566.259-3.169.401-4.805.401z" fill="#ffbd86"/><g><path d="m147.851 160.159v-13.251h-9.048c-1.636 0-3.24-.142-4.803-.401v13.652c0 7.024 5.694 12.718 12.718 12.718h7.506c1.098 0 2.157-.154 3.173-.415-5.486-1.412-9.546-6.377-9.546-12.303z" fill="#f6a96c"/><path d="m398.44 146.501-8.791-4.099c-6.958-3.245-15.23-.234-18.474 6.724l-3.761 8.066-1.505-4.136c-1.181-3.244-4.768-4.916-8.011-3.736-3.244 1.181-4.916 4.768-3.736 8.011l5.781 15.883-1.383 2.966 2.191 2.125 29.719 13.858 2.08-.134 12.616-27.055c3.243-6.957.233-15.229-6.726-18.473z" fill="#f6a96c"/><g><path d="m371.632 175.071c.539-1.19.59-2.544.143-3.772l-5.084-13.968c-.361-.993-.453-2.017-.316-2.995l-.376-1.034c-1.17-3.216-4.67-5.119-7.919-4.045-3.363 1.111-5.12 4.771-3.917 8.074l5.781 15.883-1.383 2.966 2.191 2.125 7.776 3.626z" fill="#ea9b58"/></g></g><g><g><path d="m109.545 117.65v-33.722h-4.451c-8.349 0-15.116 6.768-15.116 15.117v7.888c0 8.349 6.768 15.117 15.116 15.117h4.782c-.217-1.436-.331-2.905-.331-4.4z" fill="#f6a96c"/><path d="m195.846 83.928h-4.451v33.722c0 1.495-.114 2.964-.331 4.399h4.782c8.349 0 15.117-6.768 15.117-15.117v-7.888c0-8.348-6.768-15.116-15.117-15.116z" fill="#ffbd86"/></g><g><path d="m162.138 147.908h-23.335c-16.711 0-30.258-13.547-30.258-30.258v-37.514c0-12.342 10.005-22.348 22.348-22.348h39.155c12.342 0 22.348 10.005 22.348 22.348v37.514c0 16.711-13.547 30.258-30.258 30.258z" fill="#fed2a4"/></g><g><path d="m128.137 117.65v-37.514c0-12.342 10.005-22.348 22.348-22.348h-19.591c-12.342 0-22.348 10.005-22.348 22.348v37.514c0 16.711 13.547 30.258 30.258 30.258h19.591c-16.712 0-30.258-13.547-30.258-30.258z" fill="#ffbd86"/></g><path d="m151.486 178.196 1.955-2.015-1.383-2.966 5.781-15.883c1.181-3.244-.492-6.831-3.736-8.011-3.244-1.181-6.831.492-8.011 3.736l-1.505 4.136-3.761-8.066c-3.245-6.958-11.516-9.969-18.474-6.724l-8.791 4.099c-6.958 3.245-9.969 11.516-6.724 18.474l12.616 27.055 2.349.008z" fill="#f6a96c"/><path d="m123.618 164.975c-3.245-6.958-.234-15.23 6.724-18.474l5.984-2.79c-3.948-2.827-9.261-3.508-13.976-1.309l-8.791 4.099c-6.958 3.245-9.969 11.516-6.724 18.474l12.616 27.055 2.349.008 11.859-5.53z" fill="#ea9b58"/></g><g><g><path d="m150.472 135.033c-5.435 0-10.7-1.891-14.897-5.363-3.191-2.641-3.638-7.368-.998-10.56 2.641-3.191 7.367-3.639 10.56-.998 1.568 1.297 3.545 1.979 5.588 1.917 1.875-.057 3.632-.719 5.08-1.917 3.192-2.64 7.919-2.193 10.56.998 2.64 3.192 2.193 7.919-.998 10.56-3.985 3.296-9.025 5.197-14.192 5.353-.235.007-.469.01-.703.01z" fill="#d88a55"/></g><g><g><path d="m127.273 100.552c-4.142 0-7.5-3.358-7.5-7.5v-6.506c0-4.142 3.358-7.5 7.5-7.5s7.5 3.358 7.5 7.5v6.506c0 4.143-3.358 7.5-7.5 7.5z" fill="#d88a55"/></g><g><path d="m173.667 100.552c-4.142 0-7.5-3.358-7.5-7.5v-6.506c0-4.142 3.358-7.5 7.5-7.5s7.5 3.358 7.5 7.5v6.506c0 4.143-3.357 7.5-7.5 7.5z" fill="#d88a55"/></g></g><g><path d="m150.466 113.851c-1.706 0-3.42-.579-4.827-1.763l-6.084-5.124c-2.698-2.272-3.448-6.118-1.802-9.237l6.084-11.528c1.932-3.663 6.471-5.065 10.133-3.132 3.663 1.933 5.066 6.47 3.132 10.133l-3.263 6.184 1.461 1.231c3.168 2.668 3.574 7.399.906 10.568-1.482 1.761-3.604 2.668-5.74 2.668z" fill="#d88a55"/></g></g></g></g></g></g><g><path d="m318.684 192.9c0-8.415-5.85-15.449-13.701-17.298.088-.717.148-1.443.148-2.185 0-9.824-7.964-17.789-17.789-17.789-5.628 0-10.637 2.621-13.896 6.7-1.613-8.165-8.807-14.324-17.446-14.324-8.638 0-15.833 6.159-17.446 14.324-3.26-4.08-8.268-6.7-13.896-6.7-9.824 0-17.789 7.964-17.789 17.789 0 .741.06 1.467.148 2.185-7.851 1.849-13.701 8.883-13.701 17.298 0 5.207 2.251 9.877 5.817 13.13-3.566 3.253-5.817 7.923-5.817 13.13 0 5.118 2.173 9.717 5.633 12.962 2.542-3.735 6.827-6.194 11.676-6.194h4.451v-4.792c0-11.771 9.577-21.348 21.348-21.348h39.154c11.771 0 21.348 9.577 21.348 21.348v4.792h4.45c4.849 0 9.133 2.459 11.676 6.194 3.459-3.245 5.633-7.845 5.633-12.962 0-5.207-2.251-9.877-5.817-13.13 3.565-3.253 5.816-7.923 5.816-13.13z" fill="#bb5d4c"/><path d="m198.227 231.409c2.732-3.914 7.262-6.481 12.397-6.481h3.451v-3.792c0-7.02 3.239-13.28 8.301-17.377-2.334-3.004-3.744-6.759-3.744-10.859 0-7.692 4.888-14.229 11.724-16.709 1.139-.413 1.832-1.54 1.83-2.752 0-.007 0-.015 0-.022 0-4.867 1.959-9.274 5.126-12.485-3.224-3.27-7.698-5.303-12.653-5.303-9.824 0-17.789 7.964-17.789 17.789 0 .741.06 1.467.148 2.185-7.851 1.849-13.701 8.883-13.701 17.298 0 5.207 2.251 9.877 5.817 13.13-3.566 3.253-5.817 7.923-5.817 13.13-.001 4.751 1.874 9.057 4.91 12.248z" fill="#a44f3e"/><g><path d="m337.41 260.095h16.18c2.368 0 4.689.2 6.954.568l32.005-68.634-33.989-15.85-41.52 89.04c6.07-3.265 13.007-5.124 20.37-5.124z" fill="#26a6fe"/><path d="m371.542 195.209 16.037 7.478 4.969-10.657-33.989-15.85-41.52 89.04c5.609-3.018 11.963-4.814 18.704-5.073l29.154-62.521c1.168-2.502 4.142-3.584 6.645-2.417z" fill="#0593fc"/><g><path d="m166.5 258.04c10.844 0 21.279 3.559 29.816 10.086l-42.875-91.945-33.989 15.85 31.898 68.405c4.847-1.571 9.951-2.396 15.15-2.396z" fill="#26a6fe"/><g><path d="m141.667 195.887 17.219-8.029-5.445-11.677-33.989 15.85 31.898 68.405c4.426-1.433 9.066-2.237 13.797-2.368l-25.897-55.536c-1.168-2.504-.085-5.478 2.417-6.645z" fill="#0593fc"/></g><path d="m329.187 385.76c-12.485-1.992-22.478-12.121-24.3-24.632l-.125-.856h-4.637c-7.784 0-14.117-6.333-14.117-14.116v-7.888c0-5.327 2.958-10.145 7.721-12.572l.546-.278v-22.186c0-3.739.48-7.368 1.378-10.829h-75.895c-.341 1.06-.786 2.087-1.34 3.062l-.424.747.674.532c4.342 3.426 6.833 8.548 6.833 14.052 0 5.334-2.357 10.353-6.468 13.77l-1.081.898 1.203.727c4.282 2.587 6.838 7.102 6.838 12.078v7.888c0 7.784-6.333 14.116-14.117 14.116h-4.637l-.125.856c-1.823 12.511-11.815 22.64-24.3 24.632l-.842.134v5.73h30.429c15.991 0 29 13.009 29 29v59.471h29.201v-59.471c0-15.991 13.009-29 29-29h30.429v-5.73z" fill="#26a6fe"/></g></g><path d="m300.125 417.905s95.57-1.132 97.601 0v-114.674c0-24.375-19.76-44.136-44.136-44.136h-16.18c-24.375 0-44.136 19.76-44.136 44.136v22.703c0 21.971 4.365 91.971 6.851 91.971z" fill="#fed402"/><g><path d="m359.363 259.483c-1.891-.247-3.815-.388-5.773-.388h-16.18c-24.375 0-44.136 19.76-44.136 44.136v117.457c2.031-1.132 4.365-1.783 6.85-1.783h4.451v-99.545c0-10.164 7.147-18.678 16.675-20.816 2.141-20.267 17.997-36.431 38.113-39.061z" fill="#fac600"/></g><g><g><path d="m479.718 292.622-33.989-15.85-53.09 113.852h-93.038c-16.569 0-30 13.431-30 30v91.089c58.391-3.196 111.334-26.834 151.799-63.886v-30.141z" fill="#7a8c98"/></g></g><g fill="#596c76"><path d="m459.62 283.251-13.892-6.478-53.09 113.852h10.542c3.886 0 7.421-2.252 9.063-5.774z"/><path d="m294.882 420.624c0-16.569 13.431-30 30-30h-25.282c-16.569 0-30 13.431-30 30v91.089c8.553-.468 16.985-1.387 25.282-2.71z"/></g><path d="m112.912 388.16c.98 2.104 3.115 3.464 5.438 3.464h32.68v-5.73l-.842-.134c-12.485-1.992-22.478-12.121-24.3-24.632l-.125-.856h-4.637c-2.108 0-4.103-.477-5.901-1.31-4.342 3.546-7.682 8.265-9.551 13.672z" fill="#465a61"/><path d="m212.399 390.624h-94.05c-1.943 0-3.71-1.126-4.532-2.887l-47.546-101.964-33.989 15.85 58.319 125.065v21.141c40.464 37.052 93.407 60.69 151.799 63.886v-91.089c-.001-16.57-13.432-30.002-30.001-30.002z" fill="#fed402"/><g fill="#fac600"><path d="m237.45 511.388c1.646.123 3.295.235 4.95.326v-.384c-1.655.008-3.306.027-4.95.058z"/><path d="m107.319 461.816v-32.927c0-1.45-.315-2.883-.924-4.199l-53.302-115.221c-1.157-2.501-.072-5.466 2.425-6.631l15.369-7.167-4.616-9.899-33.989 15.85 58.319 125.065v21.141c5.357 4.906 10.939 9.569 16.718 13.988z"/></g><g><path d="m267.667 287.908h-23.335c-1.636 0-3.239-.141-4.803-.401v13.652c0 7.024 5.694 12.718 12.718 12.718h7.506c7.024 0 12.718-5.694 12.718-12.718v-13.652c-1.564.259-3.167.401-4.804.401z" fill="#f6a96c"/><path d="m253.381 301.159v-13.251h-9.048c-1.636 0-3.239-.141-4.803-.401v13.652c0 7.024 5.694 12.718 12.718 12.718h7.506c1.098 0 2.157-.154 3.173-.415-5.487-1.412-9.546-6.377-9.546-12.303z" fill="#ea9b58"/><g><g fill="#f6a96c"><path d="m215.075 258.65v-33.722h-4.451c-8.349 0-15.117 6.768-15.117 15.117v7.888c0 8.349 6.768 15.117 15.117 15.117h4.782c-.217-1.436-.331-2.905-.331-4.4z"/><path d="m301.376 224.928h-4.45v33.722c0 1.495-.114 2.964-.331 4.399h4.782c8.349 0 15.116-6.768 15.116-15.117v-7.888c-.001-8.348-6.769-15.116-15.117-15.116z"/></g><g><path d="m267.667 288.908h-23.335c-16.711 0-30.258-13.547-30.258-30.258v-37.514c0-12.342 10.005-22.348 22.348-22.348h39.155c12.342 0 22.348 10.005 22.348 22.348v37.514c0 16.711-13.547 30.258-30.258 30.258z" fill="#ffbd86"/></g><g><path d="m233.666 258.65v-37.514c0-12.342 10.005-22.348 22.348-22.348h-19.591c-12.342 0-22.348 10.005-22.348 22.348v37.514c0 16.711 13.547 30.258 30.258 30.258h19.591c-16.711 0-30.258-13.547-30.258-30.258z" fill="#f6a96c"/></g></g><g><g><path d="m256.001 276.033c-5.434 0-10.699-1.891-14.897-5.363-3.192-2.64-3.639-7.368-.999-10.56 2.64-3.191 7.367-3.638 10.56-.999 1.568 1.298 3.545 1.98 5.589 1.917 1.876-.057 3.633-.719 5.081-1.917 3.193-2.64 7.919-2.193 10.56.998 2.64 3.192 2.193 7.919-.998 10.56-3.985 3.296-9.025 5.197-14.192 5.353-.235.008-.47.011-.704.011z" fill="#d88a55"/></g><g><g><path d="m232.803 241.552c-4.142 0-7.5-3.358-7.5-7.5v-6.506c0-4.142 3.358-7.5 7.5-7.5s7.5 3.358 7.5 7.5v6.506c0 4.143-3.358 7.5-7.5 7.5z" fill="#d88a55"/></g><g><path d="m279.197 241.552c-4.142 0-7.5-3.358-7.5-7.5v-6.506c0-4.142 3.358-7.5 7.5-7.5s7.5 3.358 7.5 7.5v6.506c0 4.143-3.358 7.5-7.5 7.5z" fill="#d88a55"/></g></g><g><path d="m256 254.853c-.804 0-1.622-.13-2.425-.405-5.589-1.909-9.657-6.715-10.616-12.543s1.354-11.684 6.038-15.283l2.432-1.869c3.284-2.524 7.994-1.908 10.517 1.376 2.524 3.284 1.908 7.993-1.376 10.517l-2.432 1.869c-.13.1-.474.364-.377.955.097.59.508.731.663.784 3.92 1.339 6.012 5.602 4.673 9.521-1.064 3.117-3.977 5.078-7.097 5.078z" fill="#d88a55"/></g></g></g></g><g><g><path d="m106.5 310.795c0 6.233 3.019 11.758 7.672 15.202 2.055-1.169 4.424-1.846 6.953-1.846h4.451v-4.792c0-11.771 9.577-21.348 21.348-21.348h39.154c11.771 0 21.348 9.577 21.348 21.348v4.792h4.45c2.528 0 4.898.677 6.953 1.846 4.653-3.444 7.672-8.969 7.672-15.202 0-6.022-2.826-11.375-7.213-14.837 1.433-2.524 2.261-5.435 2.261-8.544 0-9.58-7.766-17.345-17.345-17.345h-3.989c-8.904-8.095-20.733-13.028-33.715-13.028-12.981 0-24.81 4.934-33.715 13.028h-3.989c-9.58 0-17.345 7.766-17.345 17.345 0 3.109.829 6.02 2.261 8.544-4.386 3.462-7.212 8.815-7.212 14.837z" fill="#596c76"/><path d="m106.5 310.795c0 5.848 2.657 11.072 6.827 14.54 2.279-1.377 4.94-2.184 7.797-2.184h3.451v-3.792c0-11.659 8.929-21.227 20.321-22.252.423-.401.859-.788 1.317-1.149-1.663-2.929-2.512-6.38-2.196-10.056.776-9.046 8.664-15.833 17.743-15.833h1.647c1.157 0 2.29-.387 3.173-1.136 4.72-4.005 10.19-7.152 16.171-9.2-5.096-1.745-10.562-2.693-16.25-2.693-12.981 0-24.81 4.934-33.715 13.028h-3.526c-9.079 0-16.967 6.787-17.743 15.833-.315 3.677.534 7.127 2.196 10.056-4.387 3.463-7.213 8.816-7.213 14.838z" fill="#465a61"/><g><path d="m178.167 386.131h-23.335c-1.636 0-3.239-.141-4.803-.401v13.652c0 7.024 5.694 12.718 12.718 12.718h7.506c7.024 0 12.718-5.694 12.718-12.718v-13.652c-1.564.259-3.167.401-4.804.401z" fill="#d88a55"/><path d="m163.881 399.382v-13.251h-9.048c-1.636 0-3.239-.141-4.803-.401v13.652c0 7.024 5.694 12.718 12.718 12.718h7.506c1.098 0 2.157-.154 3.173-.415-5.487-1.412-9.546-6.377-9.546-12.303z" fill="#c57a44"/><g><g><path d="m211.876 323.151h-4.45v33.722c0 1.495-.114 2.964-.331 4.399h4.782c8.349 0 15.116-6.768 15.116-15.117v-7.888c-.001-8.348-6.769-15.116-15.117-15.116z" fill="#d88a55"/><path d="m125.575 356.873v-33.722h-4.451c-8.349 0-15.117 6.768-15.117 15.116v7.888c0 8.349 6.768 15.117 15.117 15.117h4.782c-.217-1.435-.331-2.904-.331-4.399z" fill="#c57a44"/></g><g><path d="m178.167 387.131h-23.335c-16.711 0-30.258-13.547-30.258-30.258v-37.514c0-12.342 10.005-22.348 22.348-22.348h39.155c12.342 0 22.348 10.005 22.348 22.348v37.514c0 16.711-13.547 30.258-30.258 30.258z" fill="#ea9b58"/></g><g><path d="m144.166 356.873v-37.514c0-12.342 10.005-22.348 22.348-22.348h-19.591c-12.342 0-22.348 10.005-22.348 22.348v37.514c0 16.711 13.547 30.258 30.258 30.258h19.591c-16.711 0-30.258-13.547-30.258-30.258z" fill="#d88a55"/></g></g><g><g><path d="m166.499 374.256c-5.432 0-10.697-1.891-14.895-5.363-3.192-2.64-3.639-7.368-.999-10.56s7.367-3.639 10.56-.999c1.569 1.298 3.551 1.986 5.588 1.917 1.877-.057 3.634-.719 5.081-1.917 3.193-2.641 7.919-2.194 10.56.997s2.194 7.919-.997 10.56c-3.984 3.297-9.024 5.198-14.193 5.353-.235.009-.471.012-.705.012z" fill="#bb5d4c"/></g><g><g><path d="m143.303 339.776c-4.142 0-7.5-3.358-7.5-7.5v-6.507c0-4.142 3.358-7.5 7.5-7.5s7.5 3.358 7.5 7.5v6.507c0 4.142-3.358 7.5-7.5 7.5z" fill="#bb5d4c"/></g><g><path d="m189.697 339.776c-4.142 0-7.5-3.358-7.5-7.5v-6.507c0-4.142 3.358-7.5 7.5-7.5s7.5 3.358 7.5 7.5v6.507c0 4.142-3.358 7.5-7.5 7.5z" fill="#bb5d4c"/></g></g><g><path d="m166.496 353.074c-1.705 0-3.419-.578-4.825-1.762l-.416-.35c-5.965-5.023-7.652-13.672-4.013-20.566l2.625-4.975c1.934-3.663 6.471-5.066 10.134-3.132s5.065 6.471 3.132 10.134l-2.625 4.974c-.37.701-.198 1.58.408 2.09l.414.349c3.169 2.667 3.576 7.398.909 10.567-1.484 1.763-3.606 2.671-5.743 2.671z" fill="#bb5d4c"/></g></g></g></g><g><g><path d="m357.167 386.131h-23.335c-1.636 0-3.239-.141-4.803-.401v13.652c0 7.024 5.694 12.718 12.718 12.718h7.506c7.024 0 12.718-5.694 12.718-12.718v-13.652c-1.564.259-3.167.401-4.804.401z" fill="#ffbd86"/><path d="m342.881 399.382v-13.251h-9.048c-1.636 0-3.239-.141-4.803-.401v13.652c0 7.024 5.694 12.718 12.718 12.718h7.506c1.098 0 2.157-.154 3.173-.415-5.487-1.412-9.546-6.377-9.546-12.303z" fill="#f6a96c"/><g><g><path d="m304.575 356.873v-33.722h-4.451c-8.349 0-15.117 6.768-15.117 15.116v7.888c0 8.349 6.768 15.117 15.117 15.117h4.782c-.217-1.435-.331-2.904-.331-4.399z" fill="#f6a96c"/><path d="m390.876 323.151h-4.45v33.722c0 1.495-.114 2.964-.331 4.399h4.782c8.349 0 15.116-6.768 15.116-15.117v-7.888c-.001-8.348-6.769-15.116-15.117-15.116z" fill="#ffbd86"/></g><g><path d="m357.167 387.131h-23.335c-16.711 0-30.258-13.547-30.258-30.258v-37.514c0-12.342 10.005-22.348 22.348-22.348h39.155c12.342 0 22.348 10.005 22.348 22.348v37.514c0 16.711-13.547 30.258-30.258 30.258z" fill="#fed2a4"/></g><g><path d="m323.166 356.873v-37.514c0-12.342 10.005-22.348 22.348-22.348h-19.591c-12.342 0-22.348 10.005-22.348 22.348v37.514c0 16.711 13.547 30.258 30.258 30.258h19.591c-16.711 0-30.258-13.547-30.258-30.258z" fill="#ffbd86"/></g></g><g><g><path d="m345.499 374.256c-5.432 0-10.697-1.891-14.895-5.363-3.192-2.64-3.639-7.368-.999-10.56s7.367-3.639 10.56-.999c1.569 1.298 3.55 1.986 5.588 1.917 1.877-.057 3.634-.719 5.081-1.917 3.192-2.641 7.918-2.194 10.56.997 2.641 3.191 2.194 7.919-.997 10.56-3.984 3.297-9.024 5.198-14.193 5.353-.235.009-.471.012-.705.012z" fill="#d88a55"/></g><g><g><path d="m322.303 339.776c-4.142 0-7.5-3.358-7.5-7.5v-6.507c0-4.142 3.358-7.5 7.5-7.5s7.5 3.358 7.5 7.5v6.507c0 4.142-3.358 7.5-7.5 7.5z" fill="#d88a55"/></g><g><path d="m368.697 339.776c-4.142 0-7.5-3.358-7.5-7.5v-6.507c0-4.142 3.358-7.5 7.5-7.5s7.5 3.358 7.5 7.5v6.507c0 4.142-3.358 7.5-7.5 7.5z" fill="#d88a55"/></g></g><g><path d="m345.496 353.074c-1.706 0-3.42-.579-4.827-1.763l-6.084-5.124c-2.698-2.272-3.448-6.118-1.802-9.237l6.084-11.529c1.934-3.663 6.472-5.066 10.133-3.132 3.664 1.934 5.066 6.47 3.132 10.133l-3.264 6.184 1.462 1.231c3.168 2.668 3.574 7.399.906 10.568-1.483 1.761-3.604 2.669-5.74 2.669z" fill="#d88a55"/></g></g></g></g></g></g></g></svg>