<svg clip-rule="evenodd" fill-rule="evenodd" height="512" image-rendering="optimizeQuality" shape-rendering="geometricPrecision" text-rendering="geometricPrecision" viewBox="0 0 2.54 2.54" width="512" xmlns="http://www.w3.org/2000/svg"><g id="图层_x0020_1"><g id="_220336848"><circle id="_220337520" fill="#00ba00" r="2.17" transform="matrix(0 .585 .585 0 1.27 1.27)"/><g fill="#fff"><g><path id="_220336944" d="m1.28914.29658-.78825.78825c-.06586.06586-.06586.17361 0 .23947.06586.06586.17361.06586.23947 0l.78825-.78825z"/><path id="_220337160" d="m1.28915.29659.78825.78825c.06586.06586.06586.17361 0 .23947-.06586.06586-.17361.06586-.23947 0l-.78825-.78825z"/></g><path id="_220337568" d="m1.11982.63679v1.44175c0 .09314.07619.16933.16933.16933.09314 0 .16933-.07619.16933-.16933v-1.44175z"/></g></g></g></svg>