<svg clip-rule="evenodd" fill-rule="evenodd" height="512" image-rendering="optimizeQuality" shape-rendering="geometricPrecision" text-rendering="geometricPrecision" viewBox="0 0 254000 254000" width="512" xmlns="http://www.w3.org/2000/svg"><g id="图层_x0020_1"><path d="m127000 254000c-70129 0-127000-56871-127000-127000s56871-127000 127000-127000 127000 56871 127000 127000-56871 127000-127000 127000zm42056-128068-29172 29172v-94964c0-3692-3081-6773-6773-6773h-12222c-3692 0-6773 3043-6773 6773v94964l-29171-29172c-2638-2637-6941-2637-9579 0l-8642 8642c-2637 2638-2606 6973 0 9579l54525 54525c1543 1543 3704 2172 5751 1887 2047 285 4209-344 5752-1887l54525-54525c2606-2606 2637-6941 0-9579l-8642-8642c-2638-2637-6941-2637-9579 0z" fill="#ff4141"/></g></svg>