<svg id="Layer_1" height="512" viewBox="0 0 512 512" width="512" xmlns="http://www.w3.org/2000/svg" data-name="Layer 1"><g fill-rule="evenodd"><path d="m512.5 256c0 141.161-114.842 256-256 256s-256-114.84-256-256 114.839-256 256-256 256 114.84 256 256z" fill="#f4a423"/><g fill="#fff"><path d="m388.681 187.6a149.145 149.145 0 0 1 16.229 79.7 16 16 0 0 1 -15.93 14.8c-.407 0-.82-.02-1.22-.05a16.006 16.006 0 0 1 -14.76-17.16 117.51 117.51 0 0 0 -58.09-110.04 116.96 116.96 0 0 0 -148.54 26.77l17.1-4a16.005 16.005 0 0 1 7.279 31.172l-53.549 12.487a15.994 15.994 0 0 1 -19.47-13.289l-7.608-52.57a16 16 0 1 1 31.668-4.59l1.289 8.91a148.8 148.8 0 0 1 245.6 27.859z"/><path d="m393.253 306.759a15.993 15.993 0 0 0 -19.164-13.349l-51.739 10.99a16 16 0 0 0 6.65 31.3l15.963-3.39a116.844 116.844 0 0 1 -205.174-81.87 16 16 0 1 0 -31.959-1.5 148.872 148.872 0 0 0 260.04 105.83l1.33 9.16a16 16 0 0 0 15.81 13.71 16.713 16.713 0 0 0 2.32-.17 16 16 0 0 0 13.54-18.13z"/></g></g></svg>