<svg id="Layer_1" height="512" viewBox="0 0 48 48" width="512" xmlns="http://www.w3.org/2000/svg" xmlns:xlink="http://www.w3.org/1999/xlink" data-name="Layer 1"><linearGradient id="linear-gradient" gradientUnits="userSpaceOnUse" x1="12.134" x2="42.027" y1="20.336" y2="41.389"><stop offset="0" stop-color="#fed200"/><stop offset="1" stop-color="#f59815"/></linearGradient><linearGradient id="linear-gradient-2" gradientUnits="userSpaceOnUse" x1="20.318" x2="27.55" y1="15.588" y2="26.115"><stop offset="0" stop-color="#3e4154"/><stop offset="1" stop-color="#1b2129"/></linearGradient><linearGradient id="linear-gradient-3" x1="21.779" x2="26.076" xlink:href="#linear-gradient-2" y1="32.279" y2="36.576"/><path d="m44.5 34.5-16.17-28a5 5 0 0 0 -8.66 0l-16.17 28a5 5 0 0 0 4.334 7.5h32.332a5 5 0 0 0 4.33-7.5z" fill="url(#linear-gradient)"/><path d="m24 30a2.1 2.1 0 0 0 2.1-1.9l1.18-11.8a3 3 0 0 0 -2.99-3.3h-.58a3 3 0 0 0 -2.985 3.3l1.18 11.8a2.1 2.1 0 0 0 2.095 1.9z" fill="url(#linear-gradient-2)"/><circle cx="24" cy="34.5" fill="url(#linear-gradient-3)" r="3.5"/></svg>