<svg id="Layer_1" enable-background="new 0 0 512 512" viewBox="0 0 512 512" xmlns="http://www.w3.org/2000/svg"><g clip-rule="evenodd" fill-rule="evenodd"><path d="m27.12 147.95h386.93c14.91 0 27.1 12.19 27.1 27.1v251.06c0 14.91-12.19 27.13-27.1 27.13h-386.93c-14.91 0-27.13-12.22-27.13-27.13v-251.06c0-14.91 12.22-27.1 27.13-27.1z" fill="#ffd400"/><path d="m27.12 147.95h386.93c13.78 0 25.23 10.4 26.9 23.75l-154.57 156.96c-17.72 17.97-40.65 26.73-65.79 26.73-25.17 0-48.08-8.76-65.79-26.73l-154.58-156.96c1.67-13.35 13.12-23.75 26.9-23.75z" fill="#cfac00"/><path d="m432.79 444.74c-5.53 5.22-13.35 8.5-22 8.5h-380.41c-8.65 0-16.47-3.29-22.03-8.5l158.2-160.61c14.15-14.37 32.6-21.83 54.03-21.83s39.88 7.46 54.03 21.83z" fill="#fea832"/><path d="m138.75 312.36 27.81-28.23c14.15-14.37 32.6-21.83 54.03-21.83s39.88 7.46 54.03 21.83l27.81 28.23-16.04 16.3c-17.72 17.97-40.65 26.73-65.79 26.73-25.17 0-48.08-8.76-65.79-26.73z" fill="#ce8829"/><path d="m30.38 147.95h380.41c8.65 0 16.47 3.26 22 8.48l-158.18 160.63c-14.15 14.37-32.6 21.8-54.03 21.8s-39.88-7.43-54.03-21.8l-158.2-160.64c5.56-5.21 13.38-8.47 22.03-8.47z" fill="#fea832"/><path d="m428.16 62.65c60.32 16.16 96.12 78.18 79.97 138.5-16.16 60.32-78.18 96.12-138.5 79.97-60.32-16.19-96.12-78.18-79.97-138.5s78.18-96.12 138.5-79.97z" fill="#ff4646"/><path d="m383.97 111.81 3.49 70.64c.31 5.95 5.22 10.63 11.2 10.63h.48c5.98 0 10.89-4.68 11.17-10.63l3.51-70.64c.2-4.17-1.13-7.8-4-10.83-2.86-3-6.43-4.54-10.6-4.54h-.65c-4.17 0-7.74 1.53-10.6 4.54-2.86 3.03-4.22 6.66-4 10.83z" fill="#fff"/><path d="m398.88 247.3c7.31 0 13.27-5.95 13.27-13.24 0-7.28-5.95-13.24-13.27-13.24-7.29 0-13.24 5.95-13.24 13.24.01 7.29 5.96 13.24 13.24 13.24z" fill="#fff"/><path d="m336.21 254.5c-28.2-26.45-41.95-66.56-33.25-106.55.37-1.79.79-3.57 1.28-5.33 12.86-48.08 54.84-80.56 101.87-83.62-52.72-3.43-102.25 30.64-116.45 83.62-.48 1.76-.91 3.54-1.3 5.33-9.47 43.57 7.71 87.31 41.19 113.3 4.42 3.43 9.1 6.55 14.03 9.3 8.05 4.51 16.75 8.08 26.05 10.57 12.27 3.29 24.6 4.42 36.62 3.63-7.31-.48-14.71-1.67-22.05-3.63-12.9-3.46-24.69-9.01-35.06-16.21-4.6-3.15-8.91-6.64-12.93-10.41z" fill="#e63f3f"/></g></svg>