<svg id="Layer_1" enable-background="new 0 0 66 66" viewBox="0 0 66 66" xmlns="http://www.w3.org/2000/svg"><g><g><g><path d="m36.3 55.66c0 4.07-3.29 7.37-7.36 7.37-4.08 0-7.37-3.3-7.37-7.37 0-4.06 3.29-7.35 7.37-7.35 4.07 0 7.36 3.29 7.36 7.35z" fill="#42def4"/></g><g><g><path d="m36.3 55.66c-.11 0-.16-.44-.42-1.26-.25-.8-.72-2.03-1.9-3.22-1.14-1.16-3.12-2.26-5.6-1.99-1.21.13-2.5.62-3.58 1.55-1.08.92-1.93 2.3-2.19 3.92-.25 1.62.11 3.24.91 4.48.79 1.25 1.94 2.17 3.18 2.63 1.22.5 2.51.54 3.64.36 1.13-.21 2.11-.68 2.88-1.25 1.56-1.16 2.25-2.64 2.59-3.63.33-1.01.37-1.6.49-1.59.07 0 .24.59.1 1.73-.16 1.12-.69 2.89-2.4 4.44-.85.75-1.98 1.41-3.35 1.76-1.36.32-2.96.35-4.54-.22-1.58-.52-3.1-1.65-4.14-3.24-1.06-1.58-1.56-3.68-1.23-5.77.33-2.11 1.46-3.88 2.88-5.04s3.1-1.74 4.63-1.83c1.54-.09 2.95.23 4.06.81 1.13.56 1.98 1.32 2.59 2.08 1.23 1.54 1.52 3.01 1.58 3.92.05.92-.12 1.36-.18 1.36z"/></g></g></g><g><g><path d="m33.79 10.54c0 2.36-2.04 4.26-4.56 4.26-3.33 0-5.86-3.75-3.75-6.66 2.37-3.25 8.31-1.85 8.31 2.4z" fill="#42def4"/></g><g><g><path d="m33.79 10.54c-.09 0-.22-.26-.37-.73-.22-.44-.52-1.11-1.25-1.68-.7-.57-1.87-1.05-3.25-.9-.68.07-1.4.3-1.99.77-.59.46-1.08 1.19-1.23 2.01-.27 1.69 1.02 3.25 2.35 3.73 1.35.54 2.77.21 3.67-.36.93-.58 1.41-1.37 1.65-1.92.25-.57.32-.92.42-.92.07 0 .22.35.16 1.06-.07.69-.41 1.81-1.51 2.75-1.05.92-2.9 1.63-4.97.99-1-.32-2-.96-2.71-1.94-.73-.96-1.16-2.3-.95-3.71.26-1.39 1.05-2.48 2-3.18.96-.7 2.04-.97 2.99-1 1.93-.05 3.41.8 4.21 1.73.83.94.97 1.9.99 2.45-.03.6-.12.85-.21.85z"/></g></g></g><g><g><path d="m8.59 47.26c1.62-2.97 2.47-6.3 2.49-9.68 0-.02 0-.03 0-.05.01-3.35-.22-6.81.42-10.12.93-4.84 3.71-9.24 7.84-11.99 3.06-2.03 6.7-3.04 10.36-3.04 5.18 0 10.46 2.15 14.06 5.99 3.28 3.51 4.49 8.22 4.76 12.91.08 1.49.1 3.86.08 6.06-.03 3.58.89 7.1 2.66 10.21l.78 1.36h-44.36z" fill="#f4cd42"/></g><g><g><path d="m8.59 47.26c.05.03-.18.6-.73 1.75l-.18-.3c4.81-.28 19.24-.59 44.36-.71l-.79 1.36c-.75-1.29-1.61-2.73-2.19-4.31-.6-1.57-1.04-3.26-1.25-5.02-.11-.88-.16-1.78-.16-2.69-.01-.86-.03-1.73-.04-2.61-.04-1.76.02-3.58-.22-5.36-.32-2.74-1.05-5.34-2.3-7.57-1.23-2.23-3.06-4.01-5.08-5.38-4.08-2.73-8.93-3.62-13.19-2.97-2.14.31-4.14.99-5.91 1.95-1.76.96-3.27 2.2-4.52 3.58-2.49 2.78-3.86 6.05-4.39 9.07-.52 3.05-.42 5.88-.47 8.33.03 2.47-.32 4.6-.8 6.22-.47 1.63-1.03 2.81-1.44 3.57-.4.75-.67 1.11-.7 1.09-.12-.05.82-1.59 1.57-4.81.36-1.62.59-3.63.46-6.06-.05-2.44-.27-5.29.18-8.54.47-3.24 1.85-6.79 4.48-9.86 1.32-1.52 2.94-2.91 4.86-4 1.92-1.08 4.09-1.86 6.43-2.23 4.65-.77 9.97.14 14.47 3.11 2.23 1.47 4.3 3.47 5.71 5.99 1.41 2.5 2.19 5.36 2.54 8.27.26 1.92.19 3.75.23 5.55.01.9.02 1.79.03 2.66-.01.83.04 1.65.13 2.45.19 1.61.58 3.15 1.12 4.58.53 1.45 1.27 2.72 2.03 4.07.25.43.1.99-.34 1.23-.14.08-.3.12-.45.12-25.11-.11-39.55-.43-44.36-.71h-.02c-.11-.01-.19-.1-.18-.2 0-.03.01-.06.03-.09.67-1.06 1.03-1.56 1.08-1.53z"/></g></g></g><g><g><path d="m56.8 51.78c0 2.7-2.55 3.1-4.69 3.1-15.36-.01-30.73-.01-46.09-.01-1.7 0-3.09-1.39-3.09-3.09s1.39-3.09 3.09-3.09h1.04c14.33 0 28.68-.25 43.02-.38 2.42-.02 6.72.17 6.72 3.47z" fill="#fc9231"/></g><g><g><path d="m56.8 51.78c-.06 0-.08-.28-.25-.76-.16-.48-.58-1.17-1.52-1.6-.92-.45-2.27-.64-3.89-.64-1.62.03-3.6.12-5.83.18-4.48.14-10.12.27-16.97.39-3.43.05-7.16.11-11.2.17-2.02.02-4.12.05-6.29.07-1.09.01-2.19.02-3.32.03-.54 0-1.09.01-1.65.01-.4.02-.78.16-1.11.4-.67.47-1.01 1.32-.87 2.1.12.78.72 1.45 1.45 1.69.18.05.37.1.56.1.19.01.53 0 .78.01h1.63c1.08 0 2.14.01 3.19.01 4.2.03 8.15.05 11.85.07 7.4.06 13.77.15 18.97.25 2.6.06 4.91.11 6.92.15 2.01.02 3.71.21 4.98-.05 1.31-.21 2.04-.97 2.26-1.6.25-.6.24-.98.31-.98.02 0 .04.09.05.27.02.18.01.46-.08.82-.08.36-.29.8-.7 1.2-.4.4-1 .7-1.69.89-.69.2-1.49.28-2.35.3-.85.02-1.77.05-2.77.08-2 .04-4.31.09-6.92.15-5.2.09-11.57.18-18.97.24-3.7.02-7.66.04-11.85.07-1.05 0-2.11.01-3.19.01-.54 0-1.08 0-1.63 0-.29 0-.51.01-.87-.01-.36-.01-.72-.08-1.06-.19-1.39-.43-2.5-1.68-2.74-3.16-.28-1.47.38-3.08 1.63-3.96.62-.44 1.36-.71 2.11-.75.2-.01.35-.01.49-.01h.43.85c1.13-.01 2.23-.02 3.32-.02 2.17-.01 4.27-.02 6.29-.04 4.04-.01 7.77-.02 11.19-.03 6.85 0 12.5.04 16.97.09 2.25.04 4.17.04 5.87.12 1.69.11 3.13.41 4.14 1.03 1.04.59 1.45 1.51 1.52 2.06.07.57-.01.85-.04.84z"/></g></g></g><g><g><path d="m63.53 13.88v9.51c0 1.09-.43 2.15-1.21 2.92l-6.72 6.72c-.77.77-1.82 1.21-2.92 1.21h-9.51c-1.09 0-2.15-.43-2.92-1.21l-6.72-6.72c-.77-.77-1.21-1.82-1.21-2.92v-9.51c0-1.09.43-2.15 1.21-2.92l6.72-6.72c.77-.77 1.82-1.21 2.92-1.21h9.51c1.09 0 2.15.43 2.92 1.21l6.72 6.72c.78.77 1.21 1.82 1.21 2.92z" fill="#ff5757"/></g><g><g><path d="m63.53 13.88c-.05 0-.08-.24-.21-.69-.13-.44-.38-1.12-1-1.78-1.4-1.29-3.6-3.3-6.47-6.05-.36-.33-.74-.74-1.07-.98-.36-.26-.79-.46-1.24-.56-.45-.12-.92-.09-1.56-.08-.6.01-1.21.02-1.84.03-1.26.02-2.58.04-3.97.06-.69.01-1.41.02-2.13.03-.34.01-.78 0-1.06.02-.3.02-.59.08-.88.18-.28.1-.56.24-.81.42-.25.17-.45.39-.75.7-.56.57-1.13 1.15-1.71 1.74-1.17 1.18-2.38 2.41-3.64 3.68-.32.32-.63.64-.96.97-.27.27-.47.55-.64.87-.16.32-.27.67-.31 1.04-.04.32-.02.84-.02 1.32 0 1.93 0 3.93.01 6.01v1.54c.01.49-.02 1.08.02 1.41.1.79.44 1.46 1.07 2.05 1.39 1.4 2.74 2.76 4.06 4.08.66.66 1.3 1.32 1.94 1.96l.48.48c.15.15.26.25.4.36.28.21.59.38.91.49.33.11.67.17 1.01.17.43 0 .86.01 1.28.01.85.01 1.69.01 2.51.02 1.64.02 3.23.03 4.76.05.37 0 .74.01 1.1.01.3-.01.6-.06.89-.14.59-.18 1.06-.48 1.51-.94 2.03-1.96 3.88-3.74 5.54-5.35.41-.4.82-.78 1.21-1.16.34-.33.6-.72.77-1.13.18-.41.28-.84.3-1.26.01-.48.03-.93.04-1.37.06-1.78.12-3.29.16-4.5.11-2.44.21-3.71.3-3.71s.2 1.28.3 3.71c.04 1.22.1 2.72.16 4.5.01.45.02.91.04 1.4 0 .54-.09 1.1-.3 1.64-.2.54-.52 1.07-.94 1.52-.38.4-.77.81-1.17 1.23-1.61 1.66-3.39 3.51-5.35 5.54-.51.56-1.27 1.1-2.09 1.36-.41.14-.85.22-1.3.24-.39.01-.77.01-1.17.02-1.53.02-3.11.03-4.76.05-.82.01-1.66.01-2.51.02-.43 0-.86.01-1.29.01-.52 0-1.05-.08-1.56-.25-.51-.16-.99-.42-1.43-.74-.21-.16-.43-.36-.6-.52l-.48-.48c-.64-.64-1.3-1.28-1.96-1.94-1.32-1.31-2.68-2.67-4.08-4.06-.82-.74-1.5-1.94-1.62-3.16-.07-.67-.03-1.11-.04-1.64 0-.51 0-1.03 0-1.54 0-2.07 0-4.07.01-6.01.01-.49-.03-.93.05-1.55.07-.58.25-1.14.51-1.65.25-.51.61-.98.99-1.35.32-.32.65-.64.97-.96 1.28-1.26 2.5-2.47 3.68-3.64.59-.58 1.17-1.15 1.74-1.71.26-.25.6-.61 1-.88.39-.27.81-.47 1.24-.62.44-.15.89-.23 1.33-.25.47-.01.77 0 1.15 0 .73.01 1.44.02 2.13.03 1.39.02 2.71.04 3.97.06.63.01 1.24.02 1.84.03.31.01.61.01.91.02.34.02.67.08.98.16.63.17 1.21.47 1.69.85.5.41.8.79 1.16 1.14 2.75 2.89 4.75 5.01 6.06 6.52.64.84.79 1.63.83 2.12.02.54-.05.78-.09.78z"/></g></g></g><g><g><path d="m51.53 8.7-.89 10.71c-.06.87-.78 1.55-1.66 1.55h-2.1c-.87 0-1.61-.68-1.67-1.55l-.89-10.71c-.06-.97.7-1.78 1.68-1.78h3.87c.97 0 1.74.81 1.66 1.78z" fill="#fff"/></g><g><g><path d="m51.53 8.7c-.11 0-.11-.4-.52-.86-.2-.22-.53-.43-.94-.44-.16-.01-.5.04-.82.06s-.67.05-1.04.07-.76.05-1.18.07c-.21.01-.42.02-.65.03l-.34.02c-.11.01-.15.01-.22.03-.25.06-.48.23-.6.48-.06.12-.09.25-.09.39.03.24.05.48.08.73.25 2.25.51 4.91.76 7.98.06.74.12 1.45.18 2.16.04.31.33.58.64.61.66.01 1.3.02 1.92.04h.24.13c.08 0 .15-.02.22-.05.14-.05.26-.15.35-.27.09-.13.14-.24.16-.43.03-.29.07-.58.1-.86.07-.57.13-1.11.19-1.63.14-1.04.26-1.99.37-2.85.49-3.42.88-5.3 1.06-5.28.18.01.26 1.93.17 5.37-.03.86-.07 1.82-.1 2.87-.02.52-.05 1.07-.08 1.64-.02.28-.03.57-.05.87-.01.39-.14.88-.4 1.26-.25.39-.61.72-1.05.92-.22.1-.46.18-.7.21-.12.02-.26.02-.36.03h-.24c-.33.01-.66.01-1 .02l-.51.01c-.17 0-.31.01-.62-.01-1.08-.1-2.08-.96-2.28-2.12-.05-.32-.05-.44-.07-.64l-.05-.56c-.03-.37-.06-.75-.1-1.14-.26-3.07-.44-5.74-.57-8l-.02-.44-.01-.21v-.3c.03-.4.15-.79.35-1.12.39-.66 1.08-1.07 1.74-1.16.16-.03.36-.02.47-.02l.34.02c.22.01.44.02.65.03.42.02.81.05 1.18.07.37.03.72.05 1.04.07.33.03.59.03.97.11.69.17 1.1.63 1.29 1.01.35.83.06 1.23.01 1.21z"/></g></g></g><g><g><circle cx="47.87" cy="26.74" fill="#fff" r="2.59"/></g><g><g><path d="m50.47 26.74c-.21.02-.32-.68-1.11-1.31-.39-.3-.97-.54-1.63-.42-.64.1-1.34.63-1.47 1.47-.15.85.38 1.61 1.02 1.89.65.31 1.37.19 1.86-.1 1.01-.61 1.12-1.57 1.33-1.53.08 0 .21.21.22.66 0 .43-.14 1.16-.79 1.82-.62.65-1.86 1.19-3.22.75-.67-.21-1.32-.67-1.77-1.34-.46-.67-.68-1.56-.53-2.45.14-.9.63-1.65 1.24-2.14s1.32-.72 1.97-.74c1.32-.04 2.26.67 2.68 1.31.45.66.49 1.26.45 1.61-.04.37-.17.52-.25.52z"/></g></g></g></g></svg>