<svg id="Layer_1" viewBox="0 0 512 512" xmlns="http://www.w3.org/2000/svg" data-name="Layer 1"><g fill-rule="evenodd"><path d="m256 104.668c82.863 0 150.659 67.797 150.659 150.659 0 82.863-67.797 150.659-150.659 150.659-82.863 0-150.659-67.797-150.659-150.659 0-82.863 67.797-150.659 150.659-150.659z" fill="#fe646f"/><path d="m256 104.668c82.862 0 150.659 67.797 150.659 150.659 0 82.863-67.797 150.659-150.659 150.659z" fill="#fd4755"/><path d="m310.836 118.306 96.498 167.14c11.479 19.882 11.479 43.438 0 63.319-11.479 19.882-31.878 31.66-54.836 31.66h-96.498v-293.78c22.958 0 43.357 11.778 54.836 31.66z" fill="#ffd56b"/><path d="m284.745 133.369c-6.097-10.561-16.551-16.596-28.745-16.596v233.525h96.498c12.195 0 22.648-6.036 28.745-16.597 6.097-10.56 6.097-22.631 0-33.192z" fill="#ffc55a"/><path d="m256 268.798c4.706.818 9.82-2.483 10.63-9.378l8.075-68.751c2.123-18.068-8.291-27.29-18.705-27.447z" fill="#766a76"/><path d="m256 291.85c8.227 0 14.897 6.669 14.897 14.897s-6.67 14.897-14.897 14.897z" fill="#766a76"/><path d="m256 104.668c24.305 0 47.309 5.84 67.691 16.175l82.705 143.249c-3.208 55.227-36.52 102.712-83.662 126.198h-133.468c-47.145-23.486-80.453-70.972-83.662-126.199l82.704-143.248c20.382-10.335 43.387-16.175 67.691-16.175z" fill="#fe4951"/><path d="m256 104.668c24.305 0 47.309 5.84 67.691 16.175l82.705 143.249c-3.208 55.227-36.52 102.712-83.662 126.198h-66.734z" fill="#fd343e"/><path d="m310.836 118.306 96.498 167.14c11.479 19.882 11.479 43.438 0 63.319-11.479 19.882-31.878 31.66-54.836 31.66h-96.498v-293.78c22.958 0 43.357 11.778 54.836 31.66z" fill="#ff9c4d"/><path d="m284.745 133.369c-6.097-10.561-16.551-16.596-28.745-16.596v233.525h96.498c12.195 0 22.648-6.036 28.745-16.597 6.097-10.56 6.097-22.631 0-33.192z" fill="#ff8f42"/><path d="m256 268.798c4.706.818 9.82-2.483 10.63-9.378l8.075-68.751c2.123-18.068-8.291-27.29-18.705-27.447z" fill="#9b4d56"/><path d="m256 291.85c8.227 0 14.897 6.669 14.897 14.897s-6.67 14.897-14.897 14.897z" fill="#9b4d56"/><path d="m310.836 118.306 96.498 167.14c11.479 19.882 11.479 43.437 0 63.319s-31.878 31.66-54.836 31.66h-192.997c-22.958 0-43.357-11.777-54.836-31.66-11.479-19.882-11.479-43.437 0-63.32l96.498-167.14c11.479-19.882 31.878-31.66 54.836-31.66s43.357 11.777 54.836 31.66z" fill="#ffe177"/><path d="m284.745 133.369c-6.097-10.561-16.551-16.596-28.745-16.596s-22.648 6.036-28.745 16.596l-96.498 167.14c-6.097 10.561-6.097 22.632 0 33.192 6.097 10.561 16.55 16.596 28.745 16.596h192.997c12.195 0 22.648-6.036 28.745-16.597 6.097-10.56 6.097-22.631 0-33.192l-96.498-167.14z" fill="#ffd064"/><path d="m237.532 191.948 10.429 67.105c2.104 13.533 17.225 12.658 18.669.367l8.075-68.751c4.312-36.703-43.112-36.934-37.173 1.279z" fill="#837683"/><path d="m256 291.85c8.227 0 14.897 6.669 14.897 14.897s-6.67 14.897-14.897 14.897-14.897-6.67-14.897-14.897 6.67-14.897 14.897-14.897z" fill="#837683"/><g><path d="m102.614 288.19c-3.255 0-6.137-2.342-6.7-5.657-1.525-8.945-2.295-18.103-2.295-27.222 0-67.483 42.662-128.683 106.167-152.299 3.51-1.312 7.438.486 8.749 4.006 1.305 3.528-.486 7.447-4.015 8.75-58.196 21.64-97.291 77.719-97.291 139.543.004 8.351.7 16.742 2.1 24.938.634 3.704-1.857 7.214-5.561 7.845-.385.068-.778.097-1.155.097zm306.775 0c-.381 0-.77-.029-1.159-.097-3.702-.632-6.194-4.141-5.561-7.845 1.4-8.196 2.1-16.586 2.1-24.938.004-61.824-39.093-117.902-97.291-139.543-3.527-1.303-5.318-5.221-4.015-8.75 1.315-3.52 5.231-5.318 8.751-4.006 63.509 23.615 106.167 84.817 106.167 152.299.003 9.119-.768 18.278-2.295 27.222-.563 3.315-3.442 5.658-6.697 5.657zm-153.388 129.5c-32.23 0-63.429-9.527-90.233-27.552-3.121-2.101-3.948-6.329-1.848-9.45 2.1-3.111 6.329-3.938 9.44-1.847 24.549 16.508 53.122 25.239 82.64 25.239 29.52 0 58.09-8.731 82.629-25.239 3.123-2.091 7.35-1.264 9.45 1.847 2.103 3.12 1.274 7.35-1.847 9.45-26.801 18.024-58.002 27.553-90.23 27.552z"/><path d="m256.001 87.922c-21.175 0-40.145 10.948-50.732 29.294l-99.65 172.598c-10.587 18.336-10.591 40.241-.003 58.577 10.591 18.346 29.556 29.293 50.73 29.293h199.309c21.175 0 40.14-10.947 50.728-29.293 10.588-18.336 10.588-40.24 0-58.576l-99.649-172.599c-10.587-18.346-29.559-29.292-50.733-29.293zm99.654 303.372h-199.308c-26.092 0-49.467-13.494-62.514-36.098-13.055-22.595-13.057-49.584 0-72.188l99.645-172.599c13.055-22.605 36.426-36.098 62.522-36.098 26.098 0 49.467 13.494 62.524 36.099l99.646 172.598c13.055 22.604 13.054 49.584-.003 72.189-13.048 22.603-36.42 36.099-62.511 36.098z"/><path d="m256.001 119.034c-10.229 0-18.678 4.88-23.791 13.737l-99.649 172.598c-5.115 8.857-5.118 18.609-.004 27.465 5.114 8.857 13.562 13.738 23.79 13.738h199.309c10.229 0 18.674-4.88 23.788-13.738 5.118-8.858 5.114-18.608 0-27.465l-99.65-172.6c-5.114-8.856-13.565-13.736-23.791-13.736zm99.654 241.15h-199.308c-15.067 0-28.039-7.487-35.574-20.543-7.532-13.048-7.534-28.019 0-41.076l99.655-172.599c7.534-13.057 20.502-20.542 35.572-20.542 15.069 0 28.039 7.486 35.573 20.543l99.655 172.599c7.534 13.056 7.532 28.03-.002 41.077-7.531 13.057-20.504 20.543-35.571 20.543z"/><path d="m243.655 188.81 10.771 69.3c.42 2.722 1.631 4.414 3.07 4.434 1.051-.02 2.392-1.031 2.723-3.801l8.343-71.002c1.041-8.847-1.382-15.768-6.641-18.997-3.898-2.382-8.808-2.324-12.532.146-5.081 3.393-7.174 10.655-5.736 19.921h.003zm13.817 87.344c-7.022 0-14.781-4.9-16.503-15.954l-10.763-69.301c-2.292-14.73 1.954-26.882 11.647-33.337 8.119-5.406 18.784-5.571 27.184-.418 9.968 6.115 14.719 17.85 13.037 32.19l-8.342 70.992c-1.068 9.158-7.652 15.663-15.984 15.818-.094.01-.185.01-.278.01z"/><path d="m256.001 299.827c-4.734 0-8.577 3.851-8.577 8.576.002 4.734 3.84 8.585 8.575 8.585s8.575-3.85 8.575-8.585c.002-4.726-3.84-8.575-8.574-8.576zm0 30.772c-12.241 0-22.187-9.956-22.187-22.196.002-12.231 9.946-22.186 22.186-22.186 12.234 0 22.186 9.956 22.186 22.186.001 12.239-9.956 22.196-22.185 22.196z"/><path d="m375.106 469.092c-2.35 0-4.637-1.225-5.9-3.402l-14.369-24.89c-1.876-3.257-.77-7.417 2.487-9.303 3.261-1.877 7.419-.758 9.295 2.498l14.372 24.889c1.886 3.256.766 7.418-2.491 9.294-1.066.621-2.237.914-3.394.914z"/><path d="m462.278 381.902c-1.155 0-2.326-.291-3.395-.913l-24.889-14.37c-3.255-1.877-4.375-6.037-2.499-9.294 1.886-3.258 6.048-4.365 9.305-2.489l24.891 14.369c3.246 1.877 4.363 6.038 2.487 9.295-1.261 2.187-3.548 3.403-5.899 3.402z"/><path d="m494.194 262.805h-28.735c-3.762 0-6.809-3.042-6.809-6.805.002-3.763 3.044-6.805 6.806-6.805h28.739c3.762 0 6.806 3.043 6.806 6.805s-3.044 6.806-6.806 6.805z"/><path d="m437.397 158.077c-2.354 0-4.638-1.215-5.902-3.402-1.876-3.258-.757-7.418 2.499-9.294l24.889-14.37c3.26-1.877 7.408-.768 9.294 2.489 1.879 3.257.758 7.418-2.488 9.294l-24.888 14.369c-1.08.622-2.246.914-3.404.913z"/><path d="m360.721 81.418c-1.15 0-2.327-.3-3.397-.913-3.253-1.887-4.375-6.047-2.489-9.304l14.374-24.881c1.872-3.256 6.034-4.374 9.291-2.498 3.261 1.885 4.365 6.048 2.489 9.304l-14.366 24.879c-1.256 2.187-3.553 3.413-5.905 3.413z"/><path d="m256.001 53.35c-3.762 0-6.807-3.042-6.807-6.805v-28.74c0-3.753 3.043-6.805 6.806-6.805 3.764 0 6.805 3.053 6.805 6.806l.005 28.738c0 3.763-3.047 6.806-6.808 6.805z"/><path d="m151.281 81.418c-2.349 0-4.647-1.224-5.901-3.402l-14.368-24.889c-1.886-3.257-.769-7.418 2.488-9.304 3.256-1.877 7.418-.758 9.294 2.499l14.371 24.888c1.886 3.247.766 7.409-2.491 9.295-1.065.612-2.246.914-3.394.913z"/><path d="m74.605 158.077c-1.16 0-2.327-.291-3.405-.913l-24.888-14.37c-3.246-1.877-4.367-6.037-2.49-9.294 1.886-3.248 6.048-4.365 9.294-2.489l24.893 14.369c3.255 1.877 4.371 6.038 2.495 9.295-1.261 2.187-3.548 3.403-5.899 3.402z"/><path d="m46.544 262.805h-28.735c-3.763 0-6.809-3.042-6.809-6.805 0-3.753 3.043-6.805 6.805-6.805h28.739c3.762 0 6.805 3.053 6.805 6.805.002 3.762-3.043 6.806-6.805 6.805z"/><path d="m49.725 381.902c-2.354 0-4.639-1.215-5.903-3.402-1.876-3.258-.758-7.418 2.489-9.294l24.89-14.37c3.255-1.877 7.417-.768 9.303 2.489 1.88 3.257.759 7.418-2.498 9.294l-24.887 14.369c-1.072.621-2.239.914-3.395.913z"/><path d="m136.896 469.092c-1.151 0-2.327-.291-3.396-.914-3.254-1.877-4.365-6.038-2.489-9.294l14.373-24.89c1.877-3.257 6.034-4.365 9.291-2.488 3.261 1.876 4.375 6.038 2.489 9.294l-14.369 24.889c-1.251 2.178-3.549 3.403-5.898 3.403z"/><path d="m256.001 501c-3.762 0-6.807-3.042-6.807-6.805v-28.74c0-3.753 3.043-6.805 6.806-6.805 3.764 0 6.805 3.053 6.805 6.806l.005 28.738c0 3.763-3.047 6.806-6.808 6.806z"/></g></g></svg>