<svg id="_02_Exclamation_Mark" enable-background="new 0 0 512 512" viewBox="0 0 512 512" xmlns="http://www.w3.org/2000/svg" xmlns:xlink="http://www.w3.org/1999/xlink"><linearGradient id="SVGID_1_" gradientTransform="matrix(1 0 0 -1 0 514)" gradientUnits="userSpaceOnUse" x1="99.733" x2="447.874" y1="258" y2="258"><stop offset="0" stop-color="#ff4565"/><stop offset=".2702" stop-color="#fa4362"/><stop offset=".5502" stop-color="#ee3d5a"/><stop offset=".8337" stop-color="#d9344d"/><stop offset="1" stop-color="#ca2e43"/></linearGradient><linearGradient id="lg1"><stop offset="0" stop-color="#6d3326" stop-opacity="0"/><stop offset=".2414" stop-color="#6a3124" stop-opacity=".063"/><stop offset=".4916" stop-color="#622e1f" stop-opacity=".252"/><stop offset=".7457" stop-color="#542816" stop-opacity=".565"/><stop offset="1" stop-color="#42210b"/></linearGradient><linearGradient id="SVGID_00000103258631865138302800000004619382368009987996_" gradientTransform="matrix(1 0 0 -1 0 514)" gradientUnits="userSpaceOnUse" x1="363.5" x2="416.253" xlink:href="#lg1" y1="256.549" y2="285.064"/><linearGradient id="SVGID_00000054987611407799375680000003868129332448736186_" gradientTransform="matrix(1 0 0 -1 0 514)" gradientUnits="userSpaceOnUse" x1="256" x2="256" xlink:href="#lg1" y1="71.158" y2="31.238"/><linearGradient id="SVGID_00000144330035086697698550000011232839959737490577_" gradientTransform="matrix(1 0 0 -1 0 514)" gradientUnits="userSpaceOnUse" x1="39.238" x2="442.954" xlink:href="#lg1" y1="378.214" y2="-48.534"/><linearGradient id="SVGID_00000149367557602739162010000007584146803287037087_" gradientTransform="matrix(1 0 0 -1 0 514)" gradientUnits="userSpaceOnUse" x1="211.795" x2="114.488" xlink:href="#lg1" y1="218.909" y2="278.79"/><linearGradient id="SVGID_00000059999304518944108130000013719056929525501315_" gradientTransform="matrix(1 0 0 -1 0 514)" gradientUnits="userSpaceOnUse" x1="303.998" x2="403.443" xlink:href="#lg1" y1="213.019" y2="291.079"/><linearGradient id="SVGID_00000167357479777616478030000002807014777403016120_" gradientTransform="matrix(1 0 0 -1 0 514)" gradientUnits="userSpaceOnUse" x1="336.77" x2="238.394" xlink:href="#lg1" y1="198.091" y2="234.448"/><linearGradient id="SVGID_00000048472470188293828820000004584757541493931684_" gradientTransform="matrix(1 0 0 -1 0 514)" gradientUnits="userSpaceOnUse" x1="301.537" x2="254.487" xlink:href="#lg1" y1="72.13" y2="136.289"/><linearGradient id="lg2"><stop offset="0" stop-color="#fef48b"/><stop offset=".1646" stop-color="#fdf286"/><stop offset=".3352" stop-color="#fdee7a"/><stop offset=".5086" stop-color="#fce765"/><stop offset=".6839" stop-color="#fcde48"/><stop offset=".8589" stop-color="#fbd123"/><stop offset="1" stop-color="#fac600"/></linearGradient><linearGradient id="SVGID_00000170246663964669030500000009879807241937665682_" gradientTransform="matrix(1 0 0 -1 0 514)" gradientUnits="userSpaceOnUse" x1="235.459" x2="275.748" xlink:href="#lg2" y1="136.733" y2="96.444"/><linearGradient id="lg3"><stop offset="0" stop-color="#fe9738" stop-opacity="0"/><stop offset=".1207" stop-color="#fe9738" stop-opacity=".016"/><stop offset=".2459" stop-color="#fe9738" stop-opacity=".065"/><stop offset=".3731" stop-color="#fe9738" stop-opacity=".147"/><stop offset=".5018" stop-color="#fe9738" stop-opacity=".262"/><stop offset=".6317" stop-color="#fe9738" stop-opacity=".41"/><stop offset=".7625" stop-color="#fe9738" stop-opacity=".59"/><stop offset=".8916" stop-color="#fe9738" stop-opacity=".8"/><stop offset="1" stop-color="#fe9738"/></linearGradient><linearGradient id="SVGID_00000173866117289815368880000012465855559992795540_" gradientTransform="matrix(1 0 0 -1 0 514)" gradientUnits="userSpaceOnUse" x1="255.256" x2="252.948" xlink:href="#lg3" y1="108.591" y2="85.978"/><linearGradient id="SVGID_00000154402571286789761340000008839651987556106162_" gradientTransform="matrix(1 0 0 -1 0 514)" gradientUnits="userSpaceOnUse" x1="258.597" x2="285.979" xlink:href="#lg3" y1="116.565" y2="120.564"/><linearGradient id="SVGID_00000137124395743768394870000007736244674662320033_" gradientTransform="matrix(1 0 0 -1 0 514)" gradientUnits="userSpaceOnUse" x1="262.743" x2="283.602" y1="109.449" y2="88.59"><stop offset="0" stop-color="#fef48b" stop-opacity="0"/><stop offset=".1207" stop-color="#fef38b" stop-opacity=".016"/><stop offset=".2459" stop-color="#fef38d" stop-opacity=".065"/><stop offset=".3731" stop-color="#fef390" stop-opacity=".147"/><stop offset=".5018" stop-color="#fef294" stop-opacity=".262"/><stop offset=".6317" stop-color="#fef299" stop-opacity=".41"/><stop offset=".7625" stop-color="#fef19f" stop-opacity=".59"/><stop offset=".8916" stop-color="#fef0a7" stop-opacity=".8"/><stop offset="1" stop-color="#fef0ae"/></linearGradient><linearGradient id="SVGID_00000182495149408923017970000013477437723330147748_" gradientTransform="matrix(1 0 0 -1 0 514)" gradientUnits="userSpaceOnUse" x1="220.556" x2="280.16" xlink:href="#lg2" y1="266.225" y2="266.225"/><linearGradient id="SVGID_00000168803177791293892070000014723973015066068153_" gradientTransform="matrix(1 0 0 -1 0 514)" gradientUnits="userSpaceOnUse" x1="266.108" x2="286.403" xlink:href="#lg3" y1="266.029" y2="263.731"/><linearGradient id="SVGID_00000000195496466484590430000009945122813109249164_" gradientTransform="matrix(1 0 0 -1 0 514)" gradientUnits="userSpaceOnUse" x1="256" x2="256" xlink:href="#lg3" y1="195.55" y2="159.887"/><g><path d="m225.5 55-220.3 365.2c-14.3 23.7 2.8 54 30.5 54h440.7c27.7 0 44.8-30.3 30.5-54l-220.4-365.2c-13.9-22.9-47.1-22.9-61 0z" fill="url(#SVGID_1_)"/><path d="m286.5 55c-13.8-22.9-47.1-22.9-61 0l-78.4 129.9v289.3h329.2c27.7 0 44.8-30.3 30.5-54z" fill="url(#SVGID_00000103258631865138302800000004619382368009987996_)"/><path d="m5.2 420.2c-14.3 23.7 2.8 54 30.5 54h440.7c27.7 0 44.8-30.3 30.5-54l-75.9-125.7h-350z" fill="url(#SVGID_00000054987611407799375680000003868129332448736186_)"/><path d="m47.6 421.9v2c0 8.5 6.9 15.4 15.4 15.4h386c8.5 0 15.4-6.9 15.4-15.4v-2c0-2.8-.8-5.5-2.2-7.9l-193-320c-2.8-4.6-7.8-7.4-13.2-7.4-5.4 0-10.4 2.8-13.2 7.4l-193 319.9c-1.4 2.4-2.2 5.2-2.2 8z" fill="url(#SVGID_00000144330035086697698550000011232839959737490577_)"/><path d="m47.6 421.9v2c0 8.5 6.9 15.4 15.4 15.4h386c8.5 0 15.4-6.9 15.4-15.4v-2c0-2.8-.8-5.5-2.2-7.9l-193-320c-2.8-4.6-7.8-7.4-13.2-7.4-5.4 0-10.4 2.8-13.2 7.4l-193 319.9c-1.4 2.4-2.2 5.2-2.2 8z" fill="url(#SVGID_00000149367557602739162010000007584146803287037087_)"/><path d="m47.6 421.9v2c0 8.5 6.9 15.4 15.4 15.4h386c8.5 0 15.4-6.9 15.4-15.4v-2c0-2.8-.8-5.5-2.2-7.9l-193-320c-2.8-4.6-7.8-7.4-13.2-7.4-5.4 0-10.4 2.8-13.2 7.4l-193 319.9c-1.4 2.4-2.2 5.2-2.2 8z" fill="url(#SVGID_00000059999304518944108130000013719056929525501315_)"/><path d="m506.8 420.2-79.1-131.1-136.5-136.5-52.1 191.9 129.7 129.7h107.6c27.7 0 44.7-30.3 30.4-54z" fill="url(#SVGID_00000167357479777616478030000002807014777403016120_)"/><path d="m278 376.4-42.7 44 53.7 53.8h86.8z" fill="url(#SVGID_00000048472470188293828820000004584757541493931684_)"/><g><g><path d="m251.8 368.9h8.5c13.6 0 24.7 11.1 24.7 24.7v8.5c0 13.6-11.1 24.7-24.7 24.7h-8.5c-13.6 0-24.7-11.1-24.7-24.7v-8.5c-.1-13.7 11-24.7 24.7-24.7z" fill="url(#SVGID_00000170246663964669030500000009879807241937665682_)"/><path d="m227 393.6v8.5c0 13.6 11.1 24.7 24.7 24.7h8.5c13.6 0 24.7-11.1 24.7-24.7v-8.5c0-.3 0-.5 0-.8h-57.9c.1.2 0 .5 0 .8z" fill="url(#SVGID_00000173866117289815368880000012465855559992795540_)"/><path d="m260.2 368.9h-8.5c-1 0-1.9.1-2.9.2v57.6c.9.1 1.9.2 2.9.2h8.5c13.6 0 24.7-11.1 24.7-24.7v-8.5c.1-13.8-11-24.8-24.7-24.8z" fill="url(#SVGID_00000154402571286789761340000008839651987556106162_)"/><path d="m270.2 370.9-41.1 41.1c3.8 8.7 12.5 14.8 22.6 14.8h8.5c13.6 0 24.7-11.1 24.7-24.7v-8.5c.1-10.1-6-18.8-14.7-22.7z" fill="url(#SVGID_00000137124395743768394870000007736244674662320033_)"/></g><g><path d="m262.7 348.3h-13.4c-8 0-14.8-6.1-15.6-14.1l-16.7-169.8c-.9-9.2 6.3-17.2 15.6-17.2h46.9c9.2 0 16.5 8 15.6 17.2l-16.8 169.8c-.8 8-7.6 14.1-15.6 14.1z" fill="url(#SVGID_00000182495149408923017970000013477437723330147748_)"/><path d="m262.7 348.3h-13.4c-8 0-14.8-6.1-15.6-14.1l-16.7-169.8c-.9-9.2 6.3-17.2 15.6-17.2h46.9c9.2 0 16.5 8 15.6 17.2l-16.8 169.8c-.8 8-7.6 14.1-15.6 14.1z" fill="url(#SVGID_00000168803177791293892070000014723973015066068153_)"/><path d="m227.6 271.7 6.2 62.5c.8 8 7.5 14.1 15.6 14.1h13.4c8 0 14.8-6.1 15.6-14.1l6.2-62.5z" fill="url(#SVGID_00000000195496466484590430000009945122813109249164_)"/></g></g></g></svg>