<svg viewBox="0 0 512 512" xmlns="http://www.w3.org/2000/svg" xmlns:xlink="http://www.w3.org/1999/xlink"><linearGradient id="linear-gradient" gradientUnits="userSpaceOnUse" x1="376.27" x2="135.74" y1="376.27" y2="135.74"><stop offset="0" stop-color="#ef3739"/><stop offset=".54" stop-color="#ef3739"/><stop offset="1" stop-color="#ff8c8b"/></linearGradient><linearGradient id="linear-gradient-2" gradientUnits="userSpaceOnUse" x1="326.21" x2="185.8" y1="326.2" y2="185.8"><stop offset="0" stop-color="#ffd2d2"/><stop offset=".57" stop-color="#fff"/><stop offset="1" stop-color="#fff"/></linearGradient><g id="Layer_14" data-name="Layer 14"><path d="m496.53 129.86c-13.44-49.47-64.89-100.93-114.37-114.37-30.34-7.56-70.98-15.35-126.16-15.49-55.16.14-95.8 7.93-126.14 15.49-49.47 13.44-100.93 64.89-114.37 114.37-7.56 30.33-15.35 70.98-15.49 126.14.14 55.17 7.93 95.81 15.49 126.15 13.44 49.48 64.9 100.93 114.37 114.37 30.34 7.56 71 15.35 126.15 15.48 55.16-.13 95.81-7.92 126.15-15.48 49.48-13.44 100.93-64.89 114.37-114.37 7.56-30.34 15.35-71 15.48-126.15-.13-55.16-7.92-95.8-15.48-126.14z" fill="#ffe5e5"/><path d="m256 85.93a170.08 170.08 0 1 0 170.08 170.07 170.08 170.08 0 0 0 -170.08-170.07z" fill="url(#linear-gradient)"/><path d="m282.65 256 43.56-43.55a18.86 18.86 0 0 0 0-26.65 18.86 18.86 0 0 0 -26.65 0l-43.56 43.56-43.55-43.56a18.84 18.84 0 0 0 -26.65 26.65l43.56 43.55-43.56 43.56a18.85 18.85 0 0 0 0 26.64 18.84 18.84 0 0 0 26.65 0l43.55-43.55 43.55 43.55a18.84 18.84 0 1 0 26.65-26.64z" fill="url(#linear-gradient-2)"/></g></svg>