<?xml version="1.0" encoding="iso-8859-1"?>
<!-- Generator: Adobe Illustrator 19.0.0, SVG Export Plug-In . SVG Version: 6.00 Build 0)  -->
<svg xmlns="http://www.w3.org/2000/svg" xmlns:xlink="http://www.w3.org/1999/xlink" version="1.1" id="Layer_1" x="0px" y="0px" viewBox="0 0 489.998 489.998" style="enable-background:new 0 0 489.998 489.998;" xml:space="preserve" width="512" height="512">
<g>
	<path style="fill:#199AFF;" d="M420.359,215.478v28.81c0,58.17-28.03,110.25-71.39,142.65c-2.52,1.89-4.01,4.85-4.01,8v80.06   c0,8.28-6.71,15-15,15h-171.72c-8.29,0-15-6.72-15-15v-80.94c0-3.13-1.47-6.07-3.96-7.96c-42.3-32.01-69.64-82.77-69.64-139.92   v-30.7c0-17.59,14.27-31.86,31.85-31.86s31.86,14.25,31.86,31.86v31.28c0,61.35,49.53,111.18,110.8,111.64   c0.28,0.01,0.57,0.01,0.86,0.01c61.65,0,111.64-50,111.64-111.65v-31.28c0-17.59,14.27-31.86,31.85-31.86h0.01   C406.089,183.619,420.359,197.889,420.359,215.478z"/>
	<path style="fill:#2275FF;" d="M420.359,215.478v28.81c0,58.17-28.03,110.25-71.39,142.65c-2.52,1.89-4.01,4.85-4.01,8v80.06   c0,8.28-6.71,15-15,15h-85.81v-131.6c0.28,0.01,0.57,0.01,0.86,0.01c61.65,0,111.64-50,111.64-111.65v-31.28   c0-17.59,14.27-31.86,31.85-31.86h0.01C406.089,183.619,420.359,197.889,420.359,215.478z"/>
	<path style="fill:#199AFF;" d="M308.729,248.199c0,35.66-28.92,64.58-64.58,64.58c-35.67,0-64.58-28.92-64.58-64.58   c0-35.67,28.91-64.58,64.58-64.58C279.809,183.619,308.729,212.528,308.729,248.199z"/>
	<path style="fill:#2275FF;" d="M244.149,312.778v-129.16c35.66,0,64.58,28.91,64.58,64.58   C308.729,283.858,279.809,312.778,244.149,312.778z"/>
	<path style="fill:#FFC43B;" d="M327.379,73.838l-23.71,28.8c-2.07,2.51-3.12,5.71-2.95,8.95l1.98,38.33   c0.49,9.48-8.99,16.28-17.81,12.77l-35.08-13.94c-1.81-0.72-3.75-1.02-5.66-0.89c-1.35,0.09-2.68,0.39-3.96,0.89l-35.08,13.94   c-8.82,3.51-18.3-3.29-17.81-12.77l1.98-38.33c0.17-3.24-0.88-6.44-2.95-8.95l-23.71-28.8c-5.97-7.26-2.52-18.26,6.53-20.8   l36.9-10.37c3.02-0.85,5.63-2.75,7.35-5.37l20.73-31.45c2.39-3.63,6.16-5.58,10.02-5.82c4.42-0.29,8.97,1.65,11.72,5.82   l20.73,31.45c1.72,2.62,4.33,4.52,7.35,5.37l36.9,10.37C329.899,55.578,333.349,66.578,327.379,73.838z"/>
	<path style="fill:#FFA433;" d="M244.149,147.858V0.028c4.42-0.29,8.97,1.65,11.72,5.82l20.73,31.45c1.72,2.62,4.33,4.52,7.35,5.37   l36.9,10.37c9.05,2.54,12.5,13.54,6.53,20.8l-23.71,28.8c-2.07,2.51-3.12,5.71-2.95,8.95l1.98,38.33   c0.49,9.48-8.99,16.28-17.81,12.77l-35.08-13.94C247.999,148.028,246.059,147.728,244.149,147.858z"/>
	<path style="fill:#FFEBBE;" d="M98.983,61.848c-5.857-5.857-15.355-5.857-21.213,0c-5.858,5.857-5.858,15.355,0,21.213   l54.832,54.832c5.858,5.858,15.355,5.858,21.213,0c5.858-5.857,5.858-15.355,0-21.213L98.983,61.848z"/>
	<path style="fill:#FFD87C;" d="M415.655,61.848c-5.857-5.857-15.355-5.857-21.213,0l-54.832,54.832   c-5.858,5.857-5.858,15.355,0,21.213c5.858,5.858,15.355,5.858,21.213,0l54.832-54.832   C421.514,77.203,421.514,67.705,415.655,61.848z"/>
</g>















</svg>
