<svg id="USER_INTERFACE" viewBox="0 0 512 512" xmlns="http://www.w3.org/2000/svg" xmlns:xlink="http://www.w3.org/1999/xlink" data-name="USER INTERFACE"><linearGradient id="linear-gradient" gradientUnits="userSpaceOnUse" x1=".32" x2="512.9" y1="256" y2="256"><stop offset="0" stop-color="#0080de"/><stop offset=".6" stop-color="#49bcff"/><stop offset="1" stop-color="#61caff"/></linearGradient><path d="m490.72 205.16q-15.95-15.43-32-31.09-.43-21.67-1.12-43.36c-.61-19.35-9-37.81-23.32-52.15s-32.81-22.65-52.18-23.26q-21.72-.67-43.44-1.12-15.66-15.93-31.11-31.83c-13.83-14.23-31.82-22.18-50.95-22.17s-37.12 8-50.93 22.16q-15.46 15.93-31.15 31.91-21.71.44-43.42 1.12c-39.88 1.36-74.19 35.63-75.55 75.4q-.69 21.69-1.13 43.36-16 15.65-31.95 31.08c-14.18 13.79-22.16 31.79-22.15 50.79s7.92 37 22.16 50.84q15.94 15.42 31.94 31.05.45 21.69 1.13 43.39c.6 19.38 9 37.79 23.3 52.15s32.85 22.65 52.25 23.25q21.72.69 43.44 1.13 15.66 15.93 31.1 31.82c13.83 14.22 31.84 22.17 51 22.16s37.12-7.93 51-22.15q15.45-15.92 31.12-31.88 21.71-.45 43.42-1.13c39.87-1.35 74.19-35.62 75.56-75.4q.68-21.67 1.12-43.34 16-15.65 31.95-31.09c14.19-13.78 22.16-31.76 22.16-50.83s-8.04-36.97-22.25-50.81zm-106.81 18.41c-43.18 44.87-87.05 90.74-130.19 136.24a37.57 37.57 0 0 1 -27.28 11.78h-.17a38.28 38.28 0 0 1 -27.27-11.72q-34.59-35.72-69.41-71.2a37.35 37.35 0 0 1 .76-53.43 38.36 38.36 0 0 1 54 .68q20.68 21.2 41.43 42.53c34.25-35.89 68.67-72 102.55-107.54 14.38-15.13 38.37-15.38 53.79-.78s16.28 38.39 1.79 53.44z" fill="url(#linear-gradient)"/></svg>