<svg viewBox="0 0 512 512" xmlns="http://www.w3.org/2000/svg" xmlns:xlink="http://www.w3.org/1999/xlink"><linearGradient id="linear-gradient" gradientUnits="userSpaceOnUse" x1="373.76" x2="138.23" y1="373.77" y2="138.25"><stop offset="0" stop-color="#1eb4eb"/><stop offset=".54" stop-color="#1eb4eb"/><stop offset="1" stop-color="#92f4fe"/></linearGradient><linearGradient id="linear-gradient-2" gradientUnits="userSpaceOnUse" x1="297.84" x2="215.59" y1="281.21" y2="198.96"><stop offset="0" stop-color="#bce4ed"/><stop offset=".57" stop-color="#fff"/><stop offset="1" stop-color="#fff"/></linearGradient><g id="USER_INTERFACE" data-name="USER INTERFACE"><path d="m496.52 129.85c-13.44-49.47-64.89-100.93-114.37-114.37-30.34-7.56-70.98-15.35-126.15-15.48-55.17.13-95.81 7.92-126.15 15.48-49.47 13.44-100.93 64.89-114.37 114.37-7.56 30.34-15.35 70.98-15.48 126.15.13 55.17 7.92 95.81 15.48 126.15 13.44 49.48 64.9 100.93 114.37 114.37 30.34 7.56 71 15.35 126.15 15.48 55.16-.13 95.81-7.92 126.15-15.48 49.48-13.44 100.93-64.89 114.37-114.37 7.56-30.34 15.35-71 15.48-126.15-.13-55.17-7.92-95.81-15.48-126.15z" fill="#dff8ff"/><g id="VERIFIED"><path d="m411.29 222.28q-10.57-10.28-21.19-20.63-.3-14.37-.75-28.76c-.4-12.83-5.94-25.07-15.46-34.59a51.52 51.52 0 0 0 -34.65-15.42q-14.42-.45-28.82-.75-10.42-10.56-20.63-21.13a46.15 46.15 0 0 0 -67.57 0q-10.22 10.58-20.67 21.18-14.4.28-28.8.74c-26.45.9-49.21 23.61-50.11 50q-.45 14.37-.75 28.76-10.61 10.37-21.19 20.61c-9.41 9.15-14.7 21.07-14.7 33.71a46.73 46.73 0 0 0 14.7 33.72q10.58 10.23 21.19 20.59.3 14.4.75 28.79c.4 12.85 5.94 25.06 15.45 34.59a51.56 51.56 0 0 0 34.66 15.42q14.42.45 28.82.75 10.43 10.58 20.63 21.14a46.2 46.2 0 0 0 67.6 0q10.26-10.55 20.65-21.15 14.4-.29 28.8-.74c26.44-.9 49.21-23.63 50.11-50q.45-14.37.75-28.75 10.61-10.36 21.19-20.65a46.81 46.81 0 0 0 14.7-33.71c0-12.66-5.29-24.58-14.71-33.72z" fill="url(#linear-gradient)"/><path d="m340.53 234.49c-28.64 29.76-57.74 60.19-86.35 90.37a24.94 24.94 0 0 1 -18.09 7.81h-.09a25.39 25.39 0 0 1 -18.11-7.78c-15.29-15.79-30.69-31.57-46-47.22a24.77 24.77 0 0 1 .51-35.44 25.44 25.44 0 0 1 35.83.45q13.71 14.06 27.48 28.21c22.72-23.8 45.54-47.73 68-71.33 9.54-10 25.45-10.2 35.68-.52s10.75 25.47 1.14 35.45z" fill="url(#linear-gradient-2)"/></g></g></svg>