<svg id="USER_INTERFACE" viewBox="0 0 512 512" xmlns="http://www.w3.org/2000/svg" xmlns:xlink="http://www.w3.org/1999/xlink" data-name="USER INTERFACE"><linearGradient id="linear-gradient" gradientUnits="userSpaceOnUse" x1=".61" x2="512.61" y1="256" y2="256"><stop offset="0" stop-color="#0caa0c"/><stop offset=".6" stop-color="#4bd14b"/><stop offset="1" stop-color="#60e260"/></linearGradient><path d="m256.61 0c-141.39 0-256 114.62-256 256s114.61 256 256 256 256-114.61 256-256-114.61-256-256-256zm146 213.62-153.88 161.59a45.12 45.12 0 0 1 -32.47 14h-.21a45.12 45.12 0 0 1 -32.39-13.7l-81.66-84.12a45.14 45.14 0 1 1 64.78-62.87l48.94 50.42 121.5-127.58a45.14 45.14 0 1 1 65.39 62.26z" fill="url(#linear-gradient)"/></svg>