<svg height="512pt" viewBox="-72 0 512 512" width="512pt" xmlns="http://www.w3.org/2000/svg"><path d="m212.011719 356.109375 18.003906 74.191406-18.003906 74.1875h-55.339844l-18-74.1875 18-74.191406zm0 0" fill="#ebebeb"/><path d="m67.296875 445.734375c-9.878906 15.492187-23.179687 33.78125-44.230469 22.671875-19.472656-10.261719-15.082031-31.640625-6.011718-49.324219l33.78125-2.429687zm0 0" fill="#ffd3bc"/><path d="m301.386719 445.734375c9.882812 15.492187 23.183593 33.78125 44.234375 22.671875 19.46875-10.261719 15.078125-31.640625 6.007812-49.324219l-33.78125-2.429687zm0 0" fill="#ffd3bc"/><path d="m98.636719 356.109375-5.800781 89.625h-25.539063l-50.242187-26.652344c3.710937-7.25 8.210937-13.878906 12.179687-18.878906 17.261719-21.722656 42.414063-37.671875 69.402344-44.09375zm0 0" fill="#f9496e"/><path d="m270.046875 356.109375 5.800781 89.625h25.539063l50.242187-26.652344c-3.707031-7.25-8.210937-13.878906-12.179687-18.878906-17.261719-21.722656-42.414063-37.671875-69.402344-44.09375zm0 0" fill="#f9496e"/><path d="m303.535156 369.488281c-10.492187-6.035156-21.816406-10.601562-33.488281-13.378906l2.140625 33.085937c8.464844-4.265624 16.660156-9.164062 24.527344-14.6875 2.316406-1.625 4.585937-3.304687 6.820312-5.019531zm0 0" fill="#e3254c"/><path d="m270.046875 356.109375h-22.03125l-18 74.191406 18 74.1875h46.898437c6.152344 0 11.121094-5.078125 10.945313-11.230469-2.585937-90.621093-35.8125-137.148437-35.8125-137.148437zm0 0" fill="#ff889e"/><path d="m96.496094 389.195312 2.140625-33.085937c-11.671875 2.777344-22.992188 7.34375-33.488281 13.378906 2.234374 1.714844 4.507812 3.390625 6.820312 5.019531 7.867188 5.523438 16.0625 10.421876 24.527344 14.6875zm0 0" fill="#e3254c"/><path d="m120.667969 356.109375h-22.03125s-33.222657 46.527344-35.8125 137.148437c-.175781 6.152344 4.792969 11.230469 10.945312 11.230469h46.898438l18.003906-74.1875zm0 0" fill="#ff889e"/><path d="m120.667969 356.109375h-22.03125s-6.40625 8.972656-13.808594 26.707031c14.867187 8.808594 30.714844 15.550782 47.203125 20.117188zm0 0" fill="#f9496e"/><path d="m144.574219 405.957031c12.976562 2.679688 26.28125 4.054688 39.769531 4.054688 13.484375 0 26.789062-1.371094 39.765625-4.050781l-12.09375-49.851563h-55.34375zm0 0" fill="#d5d4da"/><path d="m120.667969 356.109375h36.003906v148.378906h-36.003906zm0 0" fill="#f5e277"/><path d="m236.652344 402.933594c16.488281-4.566406 32.335937-11.308594 47.203125-20.117188-7.40625-17.734375-13.808594-26.707031-13.808594-26.707031h-22.03125zm0 0" fill="#f9496e"/><path d="m212.011719 356.109375h36.003906v148.378906h-36.003906zm0 0" fill="#f5e277"/><path d="m361.183594 203.503906c0 17.628906-14.289063 31.917969-31.917969 31.917969-17.625 0-31.917969-14.289063-31.917969-31.917969 0-17.625 14.292969-31.914062 31.917969-31.914062 17.628906 0 31.917969 14.289062 31.917969 31.914062zm0 0" fill="#ffbe9c"/><path d="m71.335938 203.503906c0 17.628906-14.289063 31.917969-31.917969 31.917969-17.628907 0-31.917969-14.289063-31.917969-31.917969 0-17.625 14.289062-31.914062 31.917969-31.914062 17.628906 0 31.917969 14.289062 31.917969 31.914062zm0 0" fill="#ffbe9c"/><path d="m318.066406 17.496094-14.367187 10.660156c-3.761719 2.792969-8.910157 2.792969-12.671875 0l-25-18.550781c-3.765625-2.789063-8.910156-2.789063-12.675782 0l-25 18.550781c-3.761718 2.792969-8.910156 2.792969-12.671874 0l-25-18.550781c-3.765626-2.789063-8.910157-2.789063-12.671876 0l-25.003906 18.550781c-3.761718 2.792969-8.910156 2.792969-12.671875 0l-25-18.550781c-3.765625-2.789063-8.910156-2.789063-12.675781 0l-25 18.550781c-3.761719 2.792969-8.910156 2.792969-12.671875 0l-14.367187-10.660156c-7.019532-5.207032-16.972657-.199219-16.972657 8.539062v91.410156l150.695313 17.113282 150.695312-17.113282v-91.410156c0-8.734375-9.949218-13.746094-16.96875-8.539062zm0 0" fill="#f5e277"/><g fill="#f0bc63"><path d="m63.644531 117.445312v-90.28125l-13.027343-9.667968c-7.015626-5.207032-16.972657-.195313-16.972657 8.539062v91.410156l150.695313 17.113282 15-1.703125zm0 0"/><path d="m212.011719 408.0625c12.292969-1.742188 24.335937-4.640625 36.003906-8.660156v-43.292969h-36.003906zm0 0"/><path d="m156.671875 408.0625v-51.953125h-36.003906v43.292969c11.671875 4.019531 23.710937 6.917968 36.003906 8.660156zm0 0"/></g><path d="m337.386719 263.695312-8.53125-8.535156c-3.152344-3.148437-4.519531-7.664062-3.625-12.027344 1.917969-9.371093 2.925781-19.074218 2.925781-29.011718 0-22.378906-5.113281-43.5625-14.230469-62.449219l-129.585937-17.113281-129.582032 17.113281c-9.117187 18.886719-14.230468 40.070313-14.230468 62.449219 0 9.9375 1.007812 19.636718 2.929687 29.007812.894531 4.363282-.476562 8.878906-3.625 12.027344l-8.535156 8.535156c-2.453125 2.453125-3.265625 6.121094-2.03125 9.363282 23.816406 62.46875 84.347656 106.960937 155.078125 106.960937 70.726562 0 131.257812-44.492187 155.074219-106.957031 1.238281-3.242188.421875-6.910156-2.03125-9.363282zm0 0" fill="#e3986d"/><path d="m321.773438 171.671875c-2.128907-6.902344-4.75-13.585937-7.847657-20l-129.585937-17.113281-129.582032 17.113281c-3.09375 6.414063-5.71875 13.097656-7.847656 20zm0 0" fill="#d97c40"/><path d="m282.269531 151.671875c6.835938 5.050781 10.917969 12.007813 13.296875 19.183594 5.484375 16.519531 1.847656 34.730469-9.0625 48.292969-37.257812 46.3125-42.148437-6.628907-102.160156-6.628907-60.015625 0-64.902344 52.941407-102.160156 6.628907-10.910156-13.5625-14.550782-31.773438-9.066406-48.292969 2.382812-7.175781 6.464843-14.132813 13.296874-19.183594l97.929688-17.113281zm0 0" fill="#ffd3bc"/><path d="m184.34375 134.558594-97.929688 17.113281c-6.835937 5.050781-10.914062 12.007813-13.296874 19.183594-.089844.273437-.15625.542969-.242188.816406h222.933594c-.085938-.273437-.152344-.546875-.242188-.816406-2.378906-7.175781-6.460937-14.132813-13.296875-19.183594zm0 0" fill="#ffbe9c"/><path d="m335.035156 117.445312h-301.390625c-9.449219 0-17.113281 7.660157-17.113281 17.113282 0 9.449218 7.664062 17.113281 17.113281 17.113281h301.390625c9.453125 0 17.117188-7.660156 17.117188-17.113281 0-9.449219-7.664063-17.113282-17.117188-17.113282zm0 0" fill="#f0bc63"/><path d="m46.53125 134.558594c0-9.449219 7.660156-17.113282 17.113281-17.113282h-29.996093c-9.453126 0-17.117188 7.664063-17.117188 17.113282 0 9.453125 7.664062 17.113281 17.117188 17.113281h29.996093c-9.453125 0-17.113281-7.660156-17.113281-17.113281zm0 0" fill="#f59e18"/><path d="m184.339844 49.933594c-8.097656 0-14.664063 6.566406-14.664063 14.667968v10.871094c0 8.097656 6.566407 14.664063 14.664063 14.664063 8.101562 0 14.667968-6.566407 14.667968-14.664063v-10.871094c.003907-8.101562-6.566406-14.667968-14.667968-14.667968zm0 0" fill="#f9496e"/><path d="m98.253906 49.933594c-8.101562 0-14.667968 6.566406-14.667968 14.667968v10.871094c0 8.097656 6.566406 14.664063 14.667968 14.664063 8.097656 0 14.664063-6.566407 14.664063-14.664063v-10.871094c0-8.101562-6.566407-14.667968-14.664063-14.667968zm0 0" fill="#ff889e"/><path d="m270.433594 49.933594c8.097656 0 14.664062 6.566406 14.664062 14.667968v10.871094c0 8.097656-6.566406 14.664063-14.664062 14.664063-8.101563 0-14.667969-6.566407-14.667969-14.664063v-10.871094c0-8.101562 6.566406-14.667968 14.667969-14.667968zm0 0" fill="#ff889e"/><path d="m252.164062 210.820312c4.140626 0 7.5-3.359374 7.5-7.5v-14.191406c0-4.140625-3.359374-7.5-7.5-7.5-4.144531 0-7.5 3.359375-7.5 7.5v14.191406c0 4.140626 3.355469 7.5 7.5 7.5zm0 0"/><path d="m116.519531 210.820312c4.144531 0 7.5-3.359374 7.5-7.5v-14.191406c0-4.140625-3.355469-7.5-7.5-7.5-4.140625 0-7.5 3.359375-7.5 7.5v14.191406c0 4.140626 3.359375 7.5 7.5 7.5zm0 0"/><path d="m200.769531 233.34375c-3.117187-2.726562-7.855469-2.40625-10.582031.710938-1.398438 1.601562-3.53125 2.519531-5.847656 2.519531-2.3125 0-4.445313-.917969-5.84375-2.519531-2.726563-3.117188-7.464844-3.4375-10.582032-.710938-3.121093 2.726562-3.4375 7.464844-.710937 10.582031 4.246094 4.863281 10.496094 7.648438 17.136719 7.648438 6.644531 0 12.890625-2.785157 17.140625-7.648438 2.726562-3.117187 2.40625-7.855469-.710938-10.582031zm0 0"/><path d="m184.339844 42.445312c-12.222656 0-22.164063 9.945313-22.164063 22.167969v10.871094c0 12.222656 9.945313 22.167969 22.164063 22.167969 12.222656 0 22.167968-9.945313 22.167968-22.167969v-10.871094c0-12.222656-9.945312-22.167969-22.167968-22.167969zm7.167968 33.039063c0 3.953125-3.214843 7.167969-7.167968 7.167969-3.949219 0-7.164063-3.214844-7.164063-7.167969v-10.871094c0-3.953125 3.214844-7.167969 7.164063-7.167969 3.953125 0 7.167968 3.214844 7.167968 7.167969zm0 0"/><path d="m98.253906 42.445312c-12.226562 0-22.167968 9.945313-22.167968 22.167969v10.871094c0 12.222656 9.941406 22.167969 22.167968 22.167969 12.222656 0 22.164063-9.945313 22.164063-22.167969v-10.871094c0-12.222656-9.941407-22.167969-22.164063-22.167969zm7.164063 33.039063c0 3.953125-3.214844 7.167969-7.164063 7.167969-3.953125 0-7.167968-3.214844-7.167968-7.167969v-10.871094c0-3.953125 3.214843-7.167969 7.167968-7.167969 3.949219 0 7.164063 3.214844 7.164063 7.167969zm0 0"/><path d="m270.433594 97.652344c12.222656 0 22.164062-9.945313 22.164062-22.167969v-10.871094c0-12.222656-9.941406-22.167969-22.164062-22.167969-12.226563 0-22.167969 9.945313-22.167969 22.167969v10.871094c0 12.222656 9.941406 22.167969 22.167969 22.167969zm-7.167969-33.039063c0-3.953125 3.214844-7.167969 7.167969-7.167969 3.949218 0 7.167968 3.214844 7.167968 7.167969v10.871094c0 3.953125-3.21875 7.167969-7.167968 7.167969-3.953125 0-7.167969-3.214844-7.167969-7.167969zm0 0"/><path d="m294.910156 512c10.242188 0 18.734375-8.707031 18.445313-18.941406-.222657-7.707032-.660157-15.09375-1.273438-22.175782 5.792969 4.878907 12.773438 8.445313 21.042969 8.445313 5.238281 0 10.617188-1.4375 15.992188-4.273437 19.832031-10.453126 23.179687-32.09375 9.183593-59.386719-3.503906-6.84375-8.113281-13.988281-12.980469-20.117188-14.863281-18.707031-35.46875-33.488281-58.0625-41.980469 26.867188-19.859374 47.289063-46.671874 59.167969-77.828124 2.28125-5.980469.8125-12.785157-3.738281-17.339844 0 0-8.519531-8.519532-8.53125-8.53125-2.050781-2.050782-1.710938-4.535156-1.21875-7.113282 20.019531-1.859374 35.742188-18.746093 35.742188-39.238281 0-21.734375-17.679688-39.417969-39.414063-39.417969-.683594 0-1.367187.023438-2.046875.058594-.585938-1.667968-1.210938-3.324218-1.855469-4.976562h9.671875c13.570313 0 24.613282-11.042969 24.613282-24.613282 0-10.957031-7.199219-20.261718-17.113282-23.441406 0 0 0-84.984375 0-85.082031 0-14.59375-17.203125-23.273437-28.9375-14.5625l-14.367187 10.660156c-1.117188.832031-2.621094.832031-3.734375 0l-25-18.546875c-6.464844-4.796875-15.148438-4.796875-21.609375 0l-25.003907 18.550782c-1.117187.828124-2.617187.828124-3.734374 0l-25.003907-18.550782c-6.460937-4.796875-15.144531-4.796875-21.605469 0l-25.003906 18.550782c-1.117187.828124-2.617187.828124-3.734375 0l-25-18.550782c-6.464843-4.796875-15.148437-4.796875-21.613281 0l-25 18.550782c-1.117188.828124-2.617188.828124-3.734375 0 0 0-14.351563-10.648438-14.367187-10.660157-11.769532-8.734375-28.9375-.015625-28.9375 14.558594v85.082031c-9.917969 3.179688-17.117188 12.484375-17.117188 23.441406 0 13.570313 11.042969 24.613282 24.613281 24.613282h9.675781c-.644531 1.652344-1.269531 3.308594-1.855468 4.976562-.683594-.035156-1.367188-.058594-2.046875-.058594-21.734375 0-39.417969 17.679688-39.417969 39.414063 0 20.496094 15.726562 37.382813 35.746094 39.242187.5 2.601563.851562 5.039063-1.21875 7.109376l-8.53125 8.53125c-4.554688 4.550781-6.019532 11.355468-3.738282 17.339843 11.878907 31.15625 32.300782 57.96875 59.167969 77.828125-22.59375 8.492188-43.199219 23.277344-58.0625 41.984375-4.867187 6.125-9.476562 13.269531-12.988281 20.128907-13.988281 27.28125-10.640625 48.921874 9.1875 59.371093 5.378906 2.835938 10.757812 4.273438 15.996094 4.273438 8.269531 0 15.25-3.5625 21.042968-8.441407-.613281 7.078126-1.050781 14.464844-1.269531 22.171876-.292969 10.230468 8.230469 18.941406 18.441407 18.941406-.003907.003906 221.03125.003906 221.136718.003906zm58.773438-308.480469c0 11.457031-7.933594 21.097657-18.59375 23.714844.019531-.203125.03125-.40625.046875-.609375.339843-4.152344.519531-8.320312.519531-12.488281 0-11.914063-1.359375-23.582031-4.042969-34.921875 12.367188 1.183594 22.070313 11.632812 22.070313 24.304687zm-320.039063-59.332031c-5.300781 0-9.613281-4.316406-9.613281-9.617188 0-5.300781 4.3125-9.613281 9.613281-9.613281h186.226563c4.140625 0 7.5-3.355469 7.5-7.5 0-4.140625-3.359375-7.5-7.5-7.5h-178.726563v-83.910156c0-2.554687 2.964844-4.027344 5.003907-2.515625l14.367187 10.660156c6.460937 4.796875 15.148437 4.796875 21.609375 0l25-18.550781c1.117188-.828125 2.617188-.828125 3.734375 0l25 18.550781c6.464844 4.796875 15.148437 4.796875 21.613281 0l25-18.550781c1.117188-.828125 2.617188-.828125 3.734375 0l25 18.550781c6.464844 4.792969 15.148438 4.792969 21.609375 0l25.003906-18.550781c1.117188-.832031 2.617188-.832031 3.734376 0l25 18.550781c6.460937 4.792969 15.148437 4.792969 21.609374 0l14.367188-10.660156c2.050781-1.523438 5.003906-.007812 5.003906 2.515625v83.910156h-77.707031c-4.144531 0-7.5 3.355469-7.5 7.5 0 4.140625 3.355469 7.5 7.5 7.5h85.207031c5.300782 0 9.613282 4.3125 9.613282 9.613281 0 5.300782-4.3125 9.613282-9.613282 9.613282h-301.390625zm254.804688 29.042969c4.640625 13.984375 1.730469 29.398437-7.789063 41.230469-11.679687 14.515624-17.945312 16.195312-21.640625 16.195312h-.003906c-4.964844 0-10.632813-3.425781-17.808594-7.765625-12.460937-7.535156-29.527343-17.855469-56.863281-17.855469s-44.40625 10.320313-56.867188 17.855469c-7.171874 4.339844-12.839843 7.765625-17.808593 7.765625-3.699219 0-9.964844-1.679688-21.644531-16.195312-9.519532-11.832032-12.429688-27.246094-7.789063-41.230469 1.941406-5.855469 4.90625-10.570313 8.824219-14.042969h190.566406c3.917969 3.472656 6.878906 8.1875 8.824219 14.042969zm-254.855469 54.003906c-10.660156-2.617187-18.59375-12.257813-18.59375-23.714844 0-12.671875 9.703125-23.121093 22.070312-24.304687-2.679687 11.339844-4.042968 23.007812-4.042968 34.921875 0 4.167969.179687 8.339843.523437 12.492187.015625.203125.027344.40625.042969.605469zm1.511719 177.648437c12.320312-15.503906 29.082031-27.972656 47.582031-35.691406-6.636719 13.699219-15.1875 35.425782-20.984375 65.097656l-34.363281-18.226562c2.363281-3.886719 5.015625-7.71875 7.765625-11.179688zm.453125 59.445313c-2.773438 0-5.796875-.855469-8.996094-2.542969-10.542969-5.554687-12.5625-16.421875-6.039062-32.355468l35.941406 19.0625c-5.980469 8.496093-12.863282 15.835937-20.90625 15.835937zm35.730468 31.621094c-.378906-.386719-1.003906-1.21875-.964843-2.464844 1.976562-69.320313 22.503906-112.402344 30.882812-127.21875 3.917969 2.15625 7.910157 4.148437 11.960938 5.984375v124.75h-39.398438c-1.269531 0-2.101562-.660156-2.480469-1.050781zm85.382813-31.976563c-4.144531 0-7.5 3.355469-7.5 7.5v25.527344h-21.003906v-118.800781c6.867187 2.355469 13.878906 4.273437 21.003906 5.746093v57.550782c0 4.140625 3.355469 7.5 7.5 7.5 4.140625 0 7.496094-3.359375 7.496094-7.5v-55.136719c4.933593.574219 9.90625.929687 14.914062 1.078125 3.503907.105469 7.015625.105469 10.519531 0 5.003907-.148438 9.980469-.503906 14.910157-1.078125v110.640625h-40.34375v-25.527344c0-4.144531-3.355469-7.5-7.496094-7.5zm62.839844-80.027344c7.125-1.472656 14.136719-3.390624 21.003906-5.746093v118.800781h-21.003906zm77.871093 111.992188c-.632812.652344-1.515624 1.0625-2.472656 1.0625h-39.394531v-124.75c4.054687-1.835938 8.042969-3.832031 11.964844-5.984375 5.003906 8.824219 14.3125 27.648437 21.421875 56.007813 5.832031 23.273437 8.773437 47.246093 9.457031 71.210937.027344.945313-.351563 1.816406-.976563 2.453125zm44.734376-34.152344c-13.023438 6.875-22.757813-3.152344-29.898438-13.292968l35.507812-18.835938.429688-.226562c6.527344 15.933593 4.507812 26.800781-6.039062 32.355468zm-8.542969-56.90625c2.75 3.464844 5.40625 7.296875 7.769531 11.1875l-34.363281 18.226563c-5.796875-29.671875-14.347657-51.402344-20.984375-65.101563 18.5 7.71875 35.261718 20.1875 47.578125 35.6875zm-1.164063-134.480468c-11.320312 29.6875-31.117187 55.078124-57.25 73.4375-19.167968 13.464843-41.082031 22.507812-64.179687 26.4375-17.554688 2.988281-35.722657 2.988281-53.289063 0-22.796875-3.878907-45.085937-13.039063-64.167968-26.441407-26.136719-18.355469-45.933594-43.75-57.25-73.4375-.179688-.464843-.050782-1.011719.328124-1.390625 7.757813-7.757812 16.703126-15.148437 14.199219-27.371094-4.546875-22.207031-3.5-45.65625 3.136719-67.339843 1.566406-5.121094 3.429688-10.164063 5.617188-15.109375h10.566406c-1.621094 2.863281-3.007813 5.964844-4.125 9.324218-6.253906 18.839844-2.386719 39.535157 10.339844 55.355469 12.125 15.070313 22.40625 21.792969 33.332031 21.792969 9.148437 0 17.125-4.824219 25.570312-9.933594 12.164063-7.351562 25.949219-15.691406 49.101563-15.691406 23.15625 0 36.941406 8.339844 49.105468 15.691406 8.445313 5.109375 16.421876 9.933594 25.570313 9.933594 10.921875 0 21.203125-6.722656 33.328125-21.792969 12.730469-15.824219 16.59375-36.515625 10.339844-55.355469-1.113282-3.359374-2.5-6.460937-4.121094-9.324218h10.570312c7.613282 17.242187 11.523438 36.109375 11.523438 54.949218 0 9.226563-.921875 18.46875-2.773438 27.503907-1.402343 6.84375.71875 13.886719 5.667969 18.839843l8.53125 8.53125c.378907.378907.507813.925782.328125 1.390626zm0 0"/></svg>