<svg id="Layer_1" viewBox="0 0 850.3937 850.3937" xmlns="http://www.w3.org/2000/svg"><path d="m424.8984 824.8042c-79.1987 0-154.0371-25.3667-216.4258-73.3569-12.1777-9.3413-23.9961-19.7139-35.1108-30.8169-11.543-11.5308-22.4028-23.9771-32.2783-36.9927-35.0615-46.2012-58.4053-100.8994-67.5059-158.1807-2.9346-18.5122-4.4219-37.4878-4.4219-56.4058 0-3.2085.0537-6.5693.1641-10.2515-.5049-7.8232-.7612-15.6802-.7612-23.3652 0-95.0117 36.998-184.3477 104.1777-251.551 67.2144-67.1904 156.5537-104.1921 251.5654-104.1921 18.875 0 37.8413 1.4905 56.3726 4.4299 57.2412 9.0691 111.9482 32.4133 158.2041 67.5085 12.9194 9.7896 25.3574 20.6343 36.9619 32.2275 11.1616 11.1743 21.5625 23.0295 30.9233 35.2466 47.9355 62.333 73.2808 137.146 73.2808 216.3306 0 3.2456-.0547 6.6299-.166 10.3257.5063 7.8286.7632 15.6606.7632 23.291 0 95.0229-36.999 184.3599-104.1812 251.5542-67.2065 67.1943-156.5454 104.1987-251.562 104.1987z" fill="#632303"/><path d="m724.2469 469.0513c0 79.8801-31.1 154.98-87.58 211.47-56.49 56.48-131.58 87.5901-211.47 87.5901-66.62 0-129.91-21.6399-181.86-61.6001-10.35-7.9399-20.23-16.6199-29.61-25.99-9.85-9.8398-18.91-20.25-27.18-31.1499-29.65-39.0701-49-84.47-56.68-132.8101-2.47-15.5801-3.72-31.45-3.72-47.51 0-79.8699 31.1-154.97 87.58-211.47 56.49-56.47 131.59-87.5801 211.47-87.5801 16.06 0 31.92 1.26 47.49 3.73 48.35 7.6602 93.74 27.03 132.82 56.6802 10.9 8.26 21.31 17.3298 31.16 27.1699 9.38 9.3901 18.06 19.27 25.99 29.6201 39.95 51.95 61.59 115.2397 61.59 181.8499z" fill="#a84605"/><path d="m605.5098 196.7896-418.9623 418.9623c-29.6501-39.0692-49.0028-84.4722-56.6786-132.8102l342.8181-342.8307c48.3506 7.6633 93.741 27.0286 132.8228 56.6786z" fill="#ee8b09"/><path d="m724.2476 435.4315c0 79.8818-31.1049 154.985-87.5828 211.4755-56.4903 56.4779-131.581 87.5827-211.4628 87.5827-66.6246 0-129.9129-21.6354-181.8631-61.5951l419.3135-419.3136c39.9598 51.9501 61.5953 115.2385 61.5953 181.8505z" fill="#ee8b09"/><path d="m472.687 140.111-342.8182 342.8307c-2.4708-15.5775-3.725-31.4435-3.725-47.5102 0-79.8692 31.1048-154.9724 87.5827-211.4628 56.4905-56.4779 131.5937-87.5828 211.4754-87.5828 16.0542 0 31.9202 1.2542 47.4851 3.7251z" fill="#f5c32c"/><path d="m662.6523 253.581-419.3135 419.3136c-10.3474-7.9393-20.2307-16.6185-29.6123-25.9876-9.8457-9.8457-18.9137-20.2558-27.179-31.1551l418.9623-418.9623c10.8993 8.2653 21.3093 17.3334 31.155 27.1791 9.3816 9.3816 18.0609 19.2649 25.9876 29.6123z" fill="#f5c32c"/><path d="m425.1969 638.5017c-111.9693 0-203.0631-91.0944-203.0631-203.0637s91.0938-203.0625 203.0631-203.0625 203.0631 91.0932 203.0631 203.0625-91.0938 203.0637-203.0631 203.0637z" fill="#a84605"/><path d="m242.6545 265.4665v-1.5096c.6876-2.0852 2.0883-3.3005 4.1666-4.1265 22.7288-9.0338 38.6278-24.9603 47.7054-47.6623.7543-1.8865 1.7298-3.3643 3.6812-4.0663h2.4154c1.8529.7278 2.8722 2.1129 3.6036 3.9586 8.9438 22.5695 24.7097 38.4266 47.1841 47.5606 2.3363.9495 4.1414 2.096 4.7654 4.6379v.6038c-.4752 2.7605-2.369 3.9325-4.8286 4.9335-22.3513 9.0962-38.0557 24.8812-47.0312 47.2898-.7724 1.9284-1.7769 3.419-3.6934 4.2357h-2.4154c-1.8754-.7741-2.919-2.1744-3.6771-4.0753-8.9914-22.5451-24.7644-38.405-47.2603-47.5136-2.1763-.8812-3.8913-1.9592-4.6157-4.2662z" fill="#fff"/><path d="m527.4394 385.3099-44.3394 37.9787c-4.5788 3.9233-11.65 2.2158-13.9304-3.3648l-13.8983-33.9536-19.4926-47.6165c-2.9955-7.321-13.3625-7.321-16.358 0l-33.3908 81.5701c-2.28 5.5806-9.3515 7.2881-13.9304 3.3648l-44.3394-37.9787c-5.7326-4.9109-14.5856-.8349-14.5856 6.7116v114.0786c0 4.8843 3.9558 8.8397 8.8346 8.8397h211.1769c4.8835 0 8.8393-3.9554 8.8393-8.8397v-114.0786c0-7.5466-8.8534-11.6225-14.586-6.7116z" fill="#f5c32c"/></svg>