<svg id="Layer_1" height="512" viewBox="0 0 512 512" width="512" xmlns="http://www.w3.org/2000/svg" data-name="Layer 1"><circle cx="256" cy="256" fill="#ff3f5b" r="256"/><path d="m298.76 225.68a11.991 11.991 0 0 0 -8.6 2.99 53.056 53.056 0 0 1 -68.32 0 12.024 12.024 0 0 0 -8.6-2.99c-43.051 2.33-76.777 34.88-76.777 74.09v55.81c0 10.16 8.607 18.42 19.185 18.42h200.7c10.58 0 19.18-8.26 19.18-18.42v-55.81c0-39.21-33.72-71.76-76.77-74.09zm52.77 124.32h-191.063v-50.23c0-25.15 21.453-46.29 49.611-49.73a77.417 77.417 0 0 0 91.842 0c28.16 3.44 49.61 24.58 49.61 49.73zm-95.53-120.6a64.7 64.7 0 1 1 64.7-64.7 64.771 64.771 0 0 1 -64.7 64.7zm0-105.4a40.7 40.7 0 1 0 40.7 40.7 40.749 40.749 0 0 0 -40.7-40.7z" fill="#fff" fill-rule="evenodd"/></svg>