<svg id="Capa_1" enable-background="new 0 0 511.981 511.981" height="512" viewBox="0 0 511.981 511.981" width="512" xmlns="http://www.w3.org/2000/svg"><g><g><g><path d="m274.894 380.659c-.134 7.327 1.278 14.788 4.424 21.87 4.614 10.379 12.169 18.487 21.239 23.802 13.739 8.06 24.591 20.253 31.366 34.678l11.467 24.433c5.521 11.751 17.185 18.644 29.362 18.644 4.614 0 9.298-.986 13.747-3.076 16.199-7.611 23.171-26.91 15.561-43.109l-26.823-57.14c.098-.154.128-.201.225-.355h68.784c6.759 0 12.871-2.729 17.288-7.153 4.44-4.432 7.169-10.537 7.169-17.296 0-13.518-10.955-24.465-24.457-24.465h8.234c13.723 0 25.269-11.223 24.993-24.946-.26-13.281-11.105-23.968-24.441-23.968h-8.786c6.759 0 12.871-2.729 17.288-7.153 4.44-4.432 7.169-10.537 7.169-17.296 0-13.518-10.955-24.457-24.457-24.457h-8.778c6.751 0 12.871-2.737 17.296-7.161 4.424-4.424 7.153-10.545 7.153-17.296 0-13.51-10.947-24.457-24.449-24.457h-129.863c-16.779 0-30.39 13.584-30.423 30.363z" fill="#ffddce"/><g fill="#ffcbbe"><path d="m396.524 493.685c-1.104.118-2.208.173-3.312.173-12.177 0-23.842-6.893-29.362-18.644l-11.467-24.433c-6.775-14.425-17.627-26.618-31.366-34.678-9.07-5.316-41.697-13.573-42.904-75.382-.095-4.827-1.838-9.283-3.115-13.731l-.103 53.669c-.134 7.327 1.278 14.788 4.425 21.87 4.614 10.379 12.169 18.487 21.239 23.802 13.739 8.06 24.591 20.253 31.366 34.678l11.467 24.433c5.521 11.751 17.185 18.644 29.362 18.644 4.614 0 9.299-.986 13.747-3.076 3.903-1.828 7.27-4.344 10.023-7.325z"/><path d="m459.918 229.218c0-13.51-10.947-24.457-24.449-24.457h-133.255c-14.102 0-27.178 6.814-35.27 18.013h168.524c10.324 0 19.149 6.396 22.738 15.45.008-.008.008-.024.024-.032 0 0-.008-.008 0-.008 1.088-2.775 1.688-5.804 1.688-8.966z"/><path d="m466.978 287.139c1.104-2.789 1.718-5.827 1.718-9.006 0-13.516-10.946-24.462-24.451-24.462h-9.371c-4.974 0-9.007 4.032-9.007 9.007 0 4.974 4.033 9.007 9.007 9.007h9.371c10.325 0 19.147 6.401 22.733 15.454z"/><path d="m475.763 336.052c1.104-2.789 1.718-5.827 1.718-9.006 0-13.516-10.946-24.462-24.451-24.462h-9.371c-4.974 0-9.007 4.033-9.007 9.007 0 4.974 4.033 9.007 9.007 9.007h9.371c10.325 0 19.148 6.401 22.733 15.454z"/><path d="m466.988 384.964c1.104-2.789 1.718-5.827 1.718-9.006 0-13.516-10.946-24.462-24.451-24.462h-9.371c-4.974 0-9.007 4.032-9.007 9.007 0 4.974 4.032 9.007 9.007 9.007h9.371c10.325.001 19.147 6.402 22.733 15.454z"/></g><path d="m198.829 380.66v-152.511c0-10.577 8.575-19.152 19.152-19.152h37.763c10.577 0 19.152 8.575 19.152 19.152v152.511c0 10.577-8.575 19.152-19.152 19.152h-37.763c-10.577 0-19.152-8.575-19.152-19.152z" fill="#ee596b"/><path d="m198.824 276.187v-48.043c0-10.577 8.581-19.147 19.158-19.147h37.762c10.577 0 19.147 8.57 19.147 19.147v48.043c0-10.577-8.57-19.158-19.147-19.158h-37.762c-10.577 0-19.158 8.581-19.158 19.158z" fill="#ed3a4f"/></g><g fill="#ee596b"><path d="m121.06 365.846.562 2.099c1.983 7.402-2.103 15.075-9.352 17.56l-22.296 7.644c-7.986 2.738-16.621-1.86-18.806-10.015l-1.397-5.215c-2.185-8.155 2.994-16.455 11.279-18.076l23.131-4.528c7.52-1.473 14.896 3.129 16.879 10.531z"/><path d="m156.678 415.546 1.536 1.536c5.418 5.418 5.716 14.107.681 19.883l-15.487 17.768c-5.547 6.364-15.324 6.699-21.294.729l-3.817-3.817c-5.97-5.97-5.635-15.747.729-21.294l17.768-15.487c5.777-5.034 14.465-4.736 19.884.682z"/><path d="m205.816 452.138 2.099.562c7.402 1.983 12.004 9.359 10.532 16.879l-4.528 23.131c-1.622 8.285-9.922 13.464-18.076 11.279l-5.215-1.397c-8.155-2.185-12.753-10.82-10.015-18.806l7.644-22.296c2.484-7.249 10.157-11.335 17.559-9.352z"/></g><g fill="#78d0b1"><path d="m403.777 145.707-.561-2.092c-1.977-7.379 2.097-15.028 9.323-17.506l22.227-7.621c7.962-2.73 16.57 1.855 18.748 9.984l1.393 5.199c2.178 8.13-2.984 16.404-11.244 18.021l-23.06 4.514c-7.496 1.467-14.849-3.121-16.826-10.499z"/><path d="m368.27 96.159-1.532-1.532c-5.402-5.402-5.698-14.063-.679-19.822l15.439-17.713c5.53-6.345 15.277-6.679 21.228-.727l3.806 3.806c5.951 5.951 5.617 15.698-.727 21.228l-17.713 15.439c-5.759 5.02-14.421 4.723-19.822-.679z"/><path d="m319.283 59.681-2.092-.561c-7.379-1.977-11.967-9.33-10.499-16.827l4.514-23.06c1.617-8.26 9.891-13.422 18.021-11.244l5.199 1.393c8.13 2.178 12.714 10.786 9.984 18.748l-7.621 22.227c-2.478 7.227-10.127 11.301-17.506 9.324z"/></g><g><path d="m110.851 277.101c.033 16.779 13.644 30.363 30.423 30.363h129.864c13.502 0 24.449-10.947 24.449-24.457 0-6.751-2.729-12.871-7.153-17.296-4.424-4.424-10.545-7.161-17.296-7.161h8.778c13.502 0 24.457-10.939 24.457-24.457 0-6.759-2.729-12.863-7.169-17.296-4.417-4.424-10.529-7.153-17.288-7.153h8.786c13.337 0 24.181-10.687 24.441-23.968.276-13.723-11.27-24.946-24.993-24.946h-8.234c13.502 0 24.457-10.947 24.457-24.465 0-6.759-2.729-12.863-7.169-17.296-4.417-4.424-10.529-7.153-17.288-7.153h-68.784c-.098-.154-.128-.201-.225-.355l26.823-57.14c7.611-16.199.639-35.498-15.561-43.109-4.448-2.09-9.133-3.076-13.747-3.076-12.177 0-23.842 6.893-29.362 18.644l-11.467 24.433c-6.775 14.425-17.627 26.618-31.366 34.678-9.07 5.316-16.625 13.423-21.239 23.802-3.147 7.082-4.559 14.543-4.424 21.87z" fill="#ffddce"/><g fill="#ffcbbe"><path d="m232.194 18.54c-1.104-.118-2.208-.173-3.312-.173-12.177 0-23.842 6.893-29.362 18.644l-11.467 24.433c-6.775 14.425-17.627 26.618-31.366 34.678-9.07 5.316-41.697 13.573-42.904 75.382-.095 4.827-1.838 9.283-3.115 13.731l-.103-53.669c-.134-7.327 1.278-14.788 4.425-21.87 4.614-10.379 12.169-18.487 21.239-23.802 13.739-8.06 24.591-20.253 31.366-34.678l11.467-24.433c5.521-11.751 17.185-18.644 29.362-18.644 4.614 0 9.299.986 13.747 3.076 3.902 1.828 7.27 4.344 10.023 7.325z"/><path d="m295.588 283.007c0 13.51-10.947 24.457-24.449 24.457h-133.255c-14.102 0-27.178-6.814-35.27-18.013h168.524c10.324 0 19.149-6.396 22.738-15.45.008.008.008.024.024.032 0 0-.008.008 0 .008 1.088 2.775 1.688 5.804 1.688 8.966z"/><path d="m302.647 225.086c1.104 2.789 1.718 5.827 1.718 9.006 0 13.516-10.946 24.462-24.451 24.462h-9.371c-4.974 0-9.007-4.032-9.007-9.007 0-4.974 4.033-9.007 9.007-9.007h9.371c10.325 0 19.148-6.401 22.733-15.454z"/><path d="m311.433 176.173c1.104 2.789 1.718 5.827 1.718 9.006 0 13.516-10.946 24.462-24.451 24.462h-9.371c-4.974 0-9.007-4.032-9.007-9.007 0-4.974 4.033-9.007 9.007-9.007h9.371c10.325 0 19.147-6.401 22.733-15.454z"/><path d="m302.658 127.261c1.104 2.789 1.718 5.827 1.718 9.006 0 13.516-10.946 24.462-24.451 24.462h-9.371c-4.974 0-9.007-4.032-9.007-9.007 0-4.974 4.033-9.007 9.007-9.007h9.371c10.325-.001 19.147-6.402 22.733-15.454z"/></g><path d="m34.499 131.565v152.511c0 10.577 8.575 19.152 19.152 19.152h37.763c10.577 0 19.152-8.575 19.152-19.152v-152.511c0-10.577-8.575-19.152-19.152-19.152h-37.763c-10.577 0-19.152 8.574-19.152 19.152z" fill="#78d0b1"/><path d="m34.494 236.038v48.043c0 10.577 8.581 19.147 19.158 19.147h37.762c10.577 0 19.147-8.57 19.147-19.147v-48.043c0 10.577-8.57 19.158-19.147 19.158h-37.763c-10.576 0-19.157-8.581-19.157-19.158z" fill="#66b49d"/></g></g><g><path d="m475.871 349.13c6.046-6.175 9.276-14.249 9.098-22.723-.229-11.726-6.906-21.969-16.572-27.337 5.053-5.811 7.811-13.163 7.811-20.938 0-12.046-6.699-22.557-16.567-28.003 2.361-2.722 4.229-5.797 5.566-9.168.038-.096.074-.193.108-.29 1.399-3.684 2.109-7.535 2.109-11.449 0-17.623-14.333-31.96-31.95-31.96h-117.236c1.466-3.546 2.325-7.398 2.404-11.434.171-8.495-3.068-16.574-9.119-22.749-2.245-2.29-4.809-4.223-7.585-5.753 4.938-5.628 7.936-13 7.936-21.06 0-8.544-3.328-16.572-9.36-22.594-6.021-6.033-14.047-9.355-22.597-9.355h-57.37l21.972-46.805c4.533-9.648 5.035-20.484 1.415-30.511-3.62-10.025-10.926-18.042-20.575-22.575-5.349-2.513-11.047-3.788-16.936-3.788-15.41 0-29.6 9.01-36.152 22.958l-11.466 24.432c-6.257 13.322-16.068 24.179-28.37 31.396-10.791 6.325-19.194 15.74-24.301 27.228-.469 1.056-.901 2.122-1.305 3.195-4.354-3.1-9.67-4.93-15.409-4.93h-37.77c-14.692 0-26.645 11.957-26.645 26.654v21.553c0 4.142 3.358 7.5 7.5 7.5s7.5-3.358 7.5-7.5v-21.554c0-6.426 5.224-11.654 11.645-11.654h37.77c6.421 0 11.645 5.228 11.645 11.654v152.508c0 6.426-5.224 11.655-11.645 11.655h-37.77c-6.421 0-11.645-5.229-11.645-11.655v-100.979c0-4.142-3.358-7.5-7.5-7.5s-7.5 3.358-7.5 7.5v100.979c0 14.697 11.953 26.655 26.645 26.655h37.77c6.147 0 11.811-2.099 16.324-5.611 8.694 6.389 19.157 9.842 30.141 9.842h53.448v65.697c0 14.694 11.955 26.649 26.649 26.649h37.762c5.742 0 11.059-1.834 15.415-4.935.405 1.076.837 2.146 1.307 3.205 5.101 11.47 13.503 20.883 24.302 27.223 12.309 7.22 22.119 18.075 28.37 31.387l11.464 24.448c6.557 13.944 20.748 22.954 36.153 22.954 5.848 0 11.54-1.272 16.939-3.79 9.646-4.535 16.952-12.553 20.571-22.579 3.621-10.03 3.118-20.864-1.415-30.502l-21.98-46.816h42.39c4.143 0 7.5-3.358 7.5-7.5s-3.357-7.5-7.5-7.5h-53.787c-2.549 0-4.921 1.294-6.301 3.431-.082.118-.168.245-.285.431-1.362 2.163-1.529 4.871-.443 7.185l26.831 57.148c2.828 6.013 3.142 12.771.883 19.029-2.26 6.26-6.821 11.266-12.823 14.087-3.379 1.576-6.938 2.375-10.579 2.375-9.621 0-18.484-5.627-22.576-14.329l-11.462-24.444c-7.546-16.07-19.427-29.194-34.357-37.953-8.078-4.742-14.367-11.79-18.185-20.375-2.625-5.917-3.897-12.208-3.782-18.698 0-.012-.003-.022-.003-.033 0-.033.003-.065.003-.099v-67.75c12.08-4.563 20.696-16.243 20.696-29.904 0-3.958-.715-7.824-2.124-11.493-.029-.082-.06-.163-.091-.243-1.337-3.376-3.204-6.454-5.565-9.177 9.867-5.446 16.565-15.956 16.565-28 0-7.782-2.761-15.135-7.811-20.935.51-.283 1.007-.587 1.5-.897h129.911c9.347 0 16.95 7.608 16.95 16.96 0 2.13-.396 4.232-1.18 6.247-.017.044-.033.088-.05.133-.862 2.107-2.119 3.995-3.737 5.613-3.197 3.197-7.453 4.958-11.983 4.958-4.143 0-7.5 3.358-7.5 7.5s3.357 7.5 7.5 7.5h8.772c9.353 0 16.961 7.608 16.961 16.96 0 4.53-1.765 8.79-4.961 11.987-3.209 3.201-7.47 4.964-12 4.964-4.143 0-7.5 3.358-7.5 7.5s3.357 7.5 7.5 7.5h8.793c9.157 0 16.753 7.455 16.933 16.629.093 4.42-1.618 8.655-4.818 11.924-3.334 3.405-7.953 5.357-12.674 5.357h-8.233c-4.143 0-7.5 3.358-7.5 7.5s3.357 7.5 7.5 7.5c9.353 0 16.961 7.613 16.961 16.97 0 4.53-1.765 8.79-4.966 11.992-.654.653-1.342 1.236-2.044 1.73-3.387 2.384-4.199 7.063-1.815 10.45 1.461 2.074 3.781 3.183 6.14 3.183 1.491 0 2.998-.444 4.311-1.368 1.403-.988 2.753-2.127 4.015-3.388 6.036-6.038 9.36-14.063 9.36-22.599 0-8.061-2.998-15.436-7.938-21.065 2.78-1.533 5.35-3.471 7.599-5.768zm-220.128 43.18h-37.762c-6.423 0-11.649-5.226-11.649-11.649v-65.697h61.06v65.697c0 6.423-5.226 11.649-11.649 11.649zm24.173-141.26h-8.777c-4.143 0-7.5 3.358-7.5 7.5s3.357 7.5 7.5 7.5c4.532 0 8.791 1.763 11.991 4.963 1.617 1.618 2.873 3.509 3.734 5.625.017.047.035.094.053.141.777 1.98 1.171 4.076 1.171 6.229 0 9.35-7.604 16.957-16.949 16.957h-133.255c-7.783 0-15.197-2.456-21.349-6.999.986-2.781 1.529-5.772 1.529-8.887v-152.509c0-.047-.003-.094-.004-.142h.002c-.119-6.488 1.153-12.775 3.779-18.687 3.824-8.603 10.11-15.649 18.181-20.38 14.928-8.758 26.81-21.883 34.36-37.96l11.466-24.431c4.091-8.707 12.952-14.333 22.574-14.333 3.667 0 7.219.795 10.558 2.364 12.434 5.842 17.8 20.705 11.96 33.134l-26.823 57.139c-1.061 2.259-.928 4.898.354 7.04.148.248.229.37.375.59 1.384 2.128 3.75 3.412 6.288 3.412h68.78c4.538 0 8.793 1.759 11.989 4.961 3.204 3.198 4.968 7.455 4.968 11.988 0 9.354-7.606 16.965-16.957 16.965-4.143 0-7.5 3.358-7.5 7.5s3.357 7.5 7.5 7.5h8.234c4.714 0 9.328 1.949 12.659 5.348 3.207 3.272 4.925 7.515 4.835 11.951-.18 9.161-7.78 16.615-16.942 16.615h-8.786c-4.143 0-7.5 3.358-7.5 7.5s3.357 7.5 7.5 7.5c4.538 0 8.793 1.758 11.99 4.961 3.203 3.197 4.967 7.455 4.967 11.987.002 9.351-7.604 16.958-16.955 16.958z"/><path d="m128.867 366.003-.562-2.099v.001c-2.991-11.165-14.218-18.173-25.564-15.951l-23.131 4.528c-5.981 1.171-11.262 4.808-14.488 9.979-3.226 5.17-4.172 11.512-2.595 17.399l1.397 5.215c1.578 5.887 5.567 10.906 10.947 13.771 3.218 1.714 6.798 2.585 10.39 2.585 2.412 0 4.83-.393 7.146-1.187l22.296-7.644c10.934-3.75 17.156-15.432 14.164-26.597zm-19.029 12.407-22.296 7.644c-1.875.643-3.871.484-5.621-.448s-2.996-2.5-3.508-4.414l-1.397-5.215c-.513-1.915-.218-3.896.832-5.577s2.698-2.817 4.644-3.198l23.131-4.528c.453-.089.905-.131 1.353-.131 3.139 0 6.002 2.111 6.841 5.244v.001l.562 2.098c.958 3.578-1.036 7.322-4.541 8.524z"/><path d="m161.982 410.244c-8.174-8.174-21.402-8.627-30.116-1.033l-17.768 15.487c-4.594 4.004-7.349 9.794-7.558 15.885s2.143 12.056 6.453 16.366l3.817 3.817c4.133 4.133 9.789 6.466 15.618 6.466.249 0 .498-.004.747-.013 6.091-.209 11.881-2.963 15.886-7.558l15.487-17.768c7.595-8.714 7.142-21.942-1.031-30.114zm-8.741 21.794-15.487 17.768c-1.302 1.495-3.111 2.355-5.092 2.423-1.971.059-3.843-.667-5.245-2.068l-3.817-3.817c-1.401-1.402-2.136-3.265-2.068-5.246s.928-3.789 2.423-5.091l17.768-15.487c1.331-1.16 2.99-1.734 4.646-1.734 1.819 0 3.635.693 5.006 2.064l1.536 1.537c2.619 2.619 2.765 6.859.33 9.651z"/><path d="m209.857 445.456-2.099-.562h-.001c-11.165-2.991-22.848 3.23-26.596 14.164l-7.645 22.296c-1.977 5.765-1.467 12.157 1.398 17.536s7.884 9.369 13.771 10.946l5.215 1.398c1.869.5 3.783.747 5.691.747 4.104 0 8.179-1.14 11.708-3.342 5.17-3.226 8.808-8.507 9.979-14.488l4.528-23.131c2.221-11.343-4.785-22.572-15.949-25.564zm1.229 22.682-4.528 23.131c-.381 1.945-1.517 3.594-3.198 4.644-1.682 1.049-3.662 1.343-5.577.832l-5.215-1.398c-1.915-.513-3.482-1.759-4.414-3.508-.932-1.75-1.091-3.746-.448-5.621l7.645-22.296c.998-2.911 3.75-4.78 6.705-4.78.602 0 1.213.078 1.818.24l2.099.562c3.579.959 5.824 4.558 5.113 8.194z"/><path d="m395.973 145.556.561 2.092v-.001c2.612 9.755 11.524 16.329 21.3 16.328 1.391 0 2.801-.133 4.211-.409l23.061-4.514c5.969-1.169 11.239-4.799 14.459-9.959 3.219-5.16 4.162-11.489 2.588-17.363l-1.393-5.199c-1.574-5.875-5.557-10.885-10.925-13.744-5.367-2.858-11.746-3.367-17.5-1.394l-22.228 7.62c-10.913 3.742-17.121 15.401-14.134 26.543zm18.999-12.353 22.228-7.62c.752-.258 1.524-.386 2.292-.386 1.133 0 2.256.279 3.292.831 1.739.926 2.978 2.483 3.487 4.386l1.393 5.199c.51 1.902.216 3.87-.826 5.541-1.043 1.671-2.682 2.8-4.614 3.179l-23.061 4.514c-3.611.71-7.188-1.523-8.141-5.079 0 0 0 0 0-.001l-.561-2.092c-.953-3.557 1.028-7.278 4.511-8.472z"/><path d="m362.966 101.462s0 .001 0 0c4.271 4.271 9.923 6.43 15.588 6.43 5.156 0 10.323-1.788 14.466-5.399l17.713-15.439c4.585-3.997 7.334-9.774 7.543-15.853.208-6.079-2.139-12.031-6.439-16.333l-3.806-3.806c-4.301-4.301-10.261-6.658-16.332-6.439-6.079.208-11.857 2.957-15.854 7.542l-15.439 17.713c-7.58 8.696-7.128 21.897 1.029 30.052zm8.746-21.728 15.439-17.713c1.295-1.485 3.092-2.34 5.061-2.407 1.958-.071 3.819.662 5.211 2.055l3.806 3.806c1.393 1.393 2.123 3.244 2.056 5.212s-.923 3.765-2.407 5.059l-17.713 15.439c-2.775 2.419-6.988 2.275-9.591-.328l-1.532-1.532c-2.604-2.604-2.749-6.816-.33-9.591z"/><path d="m315.25 66.365 2.092.561c1.888.505 3.789.748 5.665.747 9.199 0 17.77-5.819 20.877-14.883l7.62-22.227c1.973-5.753 1.464-12.132-1.396-17.501-2.858-5.368-7.868-9.35-13.742-10.923l-5.198-1.394c-5.874-1.573-12.204-.63-17.365 2.59-5.16 3.22-8.789 8.49-9.957 14.458l-4.515 23.06c-2.216 11.319 4.776 22.526 15.919 25.512zm-1.198-22.631 4.515-23.06c.378-1.933 1.507-3.571 3.177-4.614 1.136-.708 2.407-1.071 3.703-1.071.611 0 1.229.081 1.839.244l5.198 1.394c1.902.51 3.46 1.748 4.386 3.486s1.084 3.722.445 5.585l-7.62 22.227c-1.193 3.483-4.917 5.465-8.47 4.511-.001 0-.001 0-.001 0l-2.092-.56c-3.556-.953-5.787-4.529-5.08-8.142z"/></g></g></svg>