<?xml version="1.0" encoding="UTF-8"?>
<svg xmlns="http://www.w3.org/2000/svg" xmlns:xlink="http://www.w3.org/1999/xlink" version="1.1" id="Capa_1" x="0px" y="0px" viewBox="0 0 512 512" style="enable-background:new 0 0 512 512;" xml:space="preserve" width="512" height="512">
<g>
	<circle style="fill:#EFEDEF;" cx="237.833" cy="256" r="208.717"/>
	<circle style="fill:#F9F7F8;" cx="237.833" cy="256" r="158.515"/>
	<path style="fill:#685E68;" d="M312.778,449.342H170.709v-91.623c0-30.126,24.422-54.548,54.548-54.548h32.973&#10;&#9;&#9;c30.126,0,54.548,24.422,54.548,54.548V449.342z"/>
	<path style="fill:#554E56;" d="M258.23,303.171h-17.677c30.126,0,54.548,24.422,54.548,54.548v91.623h17.677v-91.623&#10;&#9;&#9;C312.778,327.593,288.356,303.171,258.23,303.171z"/>
	<path style="fill:none;stroke:#000000;stroke-width:15;stroke-linecap:round;stroke-linejoin:round;stroke-miterlimit:10;" d="&#10;&#9;&#9;M294.014,316.568c-9.58-8.337-22.087-13.397-35.784-13.397h-32.972c-30.126,0-54.548,24.422-54.548,54.548&#10;&#9;&#9;c0,30.34,0,62.642,0,91.623h142.069v-91.623c0-5.933-0.96-11.639-2.712-16.987"/>
	<path style="fill:#FFB09E;" d="M241.743,328.546L241.743,328.546c-8.357,0-15.131-6.775-15.131-15.131v-31.259v-18.1h30.263v18.66&#10;&#9;&#9;v30.699C256.875,321.771,250.1,328.546,241.743,328.546z"/>
	<path style="fill:none;stroke:#000000;stroke-width:15;stroke-linecap:round;stroke-linejoin:round;stroke-miterlimit:10;" d="&#10;&#9;&#9;M241.743,328.546L241.743,328.546c-8.357,0-15.131-6.775-15.131-15.131v-31.259v-18.1h30.263v18.66v30.699&#10;&#9;&#9;C256.875,321.771,250.1,328.546,241.743,328.546z"/>
	<path style="fill:#FFDFCF;" d="M199.292,205.555v35.908c0,23.445,19.006,42.452,42.452,42.452h0&#10;&#9;&#9;c23.445,0,42.452-19.006,42.452-42.452v-35.908c0-23.445-19.006-42.452-42.452-42.452h0&#10;&#9;&#9;C218.298,163.103,199.292,182.109,199.292,205.555z"/>
	<path style="fill:#FFCEBF;" d="M241.743,163.103L241.743,163.103c-3.606,0-7.106,0.453-10.45,1.3&#10;&#9;&#9;c18.392,4.656,32.002,21.313,32.002,41.152v35.908c0,19.839-13.61,36.496-32.002,41.152c3.343,0.846,6.843,1.3,10.45,1.3h0&#10;&#9;&#9;c23.445,0,42.452-19.006,42.452-42.452v-35.908C284.195,182.109,265.189,163.103,241.743,163.103z"/>
	<path style="fill:none;stroke:#000000;stroke-width:15;stroke-linecap:round;stroke-linejoin:round;stroke-miterlimit:10;" d="&#10;&#9;&#9;M199.292,205.555v35.908c0,23.445,19.006,42.452,42.452,42.452h0c23.445,0,42.452-19.006,42.452-42.452v-35.908&#10;&#9;&#9;c0-23.445-19.006-42.452-42.452-42.452h0C218.298,163.103,199.292,182.109,199.292,205.555z"/>
	<path style="fill:#9BE69D;" d="M237.833,25.667C110.623,25.667,7.5,128.791,7.5,256c0,127.209,103.124,230.333,230.333,230.333&#10;&#9;&#9;c127.209,0,230.333-103.123,230.333-230.333C468.165,128.791,365.042,25.667,237.833,25.667z M237.833,436.53&#10;&#9;&#9;c-99.704,0-180.53-80.826-180.53-180.53c0-99.704,80.826-180.53,180.53-180.53c99.704,0,180.53,80.826,180.53,180.53&#10;&#9;&#9;C418.363,355.704,337.536,436.53,237.833,436.53z"/>
	<path style="fill:#6FD7A3;" d="M237.833,25.667C110.624,25.667,7.5,128.791,7.5,256c0,127.209,103.124,230.333,230.333,230.333&#10;&#9;&#9;S468.165,383.209,468.165,256C468.165,128.791,365.042,25.667,237.833,25.667z M237.833,467.603&#10;&#9;&#9;c-116.865,0-211.603-94.738-211.603-211.603c0-116.865,94.738-211.603,211.603-211.603S449.436,139.135,449.436,256&#10;&#9;&#9;C449.436,372.865,354.698,467.603,237.833,467.603z"/>
	<path style="fill:none;stroke:#000000;stroke-width:15;stroke-linecap:round;stroke-linejoin:round;stroke-miterlimit:10;" d="&#10;&#9;&#9;M66.988,101.522C30.02,142.382,7.5,196.56,7.5,256c0,127.209,103.124,230.333,230.333,230.333S468.165,383.209,468.165,256&#10;&#9;&#9;c0-127.209-103.124-230.333-230.333-230.333c-57.332,0-109.765,20.953-150.077,55.61 M237.833,436.53&#10;&#9;&#9;c-99.704,0-180.53-80.826-180.53-180.53c0-99.704,80.826-180.53,180.53-180.53s180.53,80.826,180.53,180.53&#10;&#9;&#9;C418.363,355.704,337.537,436.53,237.833,436.53z"/>
	<circle style="fill:#FFE177;" cx="424.141" cy="391.202" r="80.359"/>
	<path style="fill:#FFD15B;" d="M424.141,310.843c-3.672,0-7.28,0.269-10.822,0.746c39.26,5.288,69.537,38.904,69.537,79.613&#10;&#9;&#9;c0,40.709-30.277,74.325-69.537,79.613c3.542,0.477,7.15,0.746,10.822,0.746c44.381,0,80.359-35.978,80.359-80.359&#10;&#9;&#9;C504.5,346.821,468.522,310.843,424.141,310.843z"/>
	<path style="fill:#9BE69D;" d="M463.234,374.225h-13.706c-4.645,0-8.41-3.765-8.41-8.41v-13.706c0-4.645-3.766-8.41-8.41-8.41&#10;&#9;&#9;h-17.132c-4.645,0-8.41,3.765-8.41,8.41v13.706c0,4.645-3.765,8.41-8.41,8.41h-13.706c-4.645,0-8.41,3.766-8.41,8.41v17.132&#10;&#9;&#9;c0,4.645,3.765,8.41,8.41,8.41h13.706c4.645,0,8.41,3.766,8.41,8.41v13.706c0,4.645,3.766,8.41,8.41,8.41h17.132&#10;&#9;&#9;c4.645,0,8.41-3.766,8.41-8.41v-13.706c0-4.645,3.766-8.41,8.41-8.41h13.706c4.645,0,8.41-3.766,8.41-8.41v-17.132&#10;&#9;&#9;C471.644,377.991,467.879,374.225,463.234,374.225z"/>
	<path style="fill:none;stroke:#000000;stroke-width:15;stroke-linecap:round;stroke-linejoin:round;stroke-miterlimit:10;" d="&#10;&#9;&#9;M463.234,374.225h-13.706c-4.645,0-8.41-3.765-8.41-8.41v-13.706c0-4.645-3.766-8.41-8.41-8.41h-17.132&#10;&#9;&#9;c-4.645,0-8.41,3.765-8.41,8.41v13.706c0,4.645-3.765,8.41-8.41,8.41h-13.706c-4.645,0-8.41,3.766-8.41,8.41v17.132&#10;&#9;&#9;c0,4.645,3.765,8.41,8.41,8.41h13.706c4.645,0,8.41,3.766,8.41,8.41v13.706c0,4.645,3.766,8.41,8.41,8.41h17.132&#10;&#9;&#9;c4.645,0,8.41-3.766,8.41-8.41v-13.706c0-4.645,3.766-8.41,8.41-8.41h13.706c4.645,0,8.41-3.766,8.41-8.41v-17.132&#10;&#9;&#9;C471.644,377.991,467.879,374.225,463.234,374.225z"/>
	<path style="fill:none;stroke:#000000;stroke-width:15;stroke-linecap:round;stroke-linejoin:round;stroke-miterlimit:10;" d="&#10;&#9;&#9;M490.028,437.183c9.11-13.03,14.472-28.875,14.472-45.981c0-44.381-35.978-80.359-80.359-80.359&#10;&#9;&#9;c-44.381,0-80.359,35.978-80.359,80.359c0,44.381,35.978,80.359,80.359,80.359c16.743,0,32.287-5.125,45.158-13.886"/>
</g>















</svg>
