<?xml version="1.0" encoding="UTF-8" standalone="no"?>
<!-- Created with Inkscape (http://www.inkscape.org/) -->

<svg
   version="1.1"
   id="svg6696"
   xml:space="preserve"
   width="682.66669"
   height="682.66669"
   viewBox="0 0 682.66669 682.66669"
   xmlns="http://www.w3.org/2000/svg"
   xmlns:svg="http://www.w3.org/2000/svg"><defs
     id="defs6700"><clipPath
       clipPathUnits="userSpaceOnUse"
       id="clipPath6710"><path
         d="M 0,512 H 512 V 0 H 0 Z"
         id="path6708" /></clipPath></defs><g
     id="g6702"
     transform="matrix(1.3333333,0,0,-1.3333333,0,682.66667)"><g
       id="g6704"><g
         id="g6706"
         clip-path="url(#clipPath6710)"><g
           id="g6712"
           transform="translate(464.6816,192.8682)"><path
             d="m 0,0 h -86.036 c -21.988,0 -39.814,-17.826 -39.814,-39.814 V -174.745 H 39.813 V -39.814 C 39.813,-17.826 21.988,0 0,0"
             style="fill:#fe646f;fill-opacity:1;fill-rule:nonzero;stroke:none"
             id="path6714" /></g><g
           id="g6716"
           transform="translate(418.1719,192.8643)"><path
             d="m 0,0 c -21.99,0 -39.811,-17.82 -39.811,-39.81 v -134.93 h -94.179 l 54.65,134.93 c 0,21.99 17.819,39.81 39.81,39.81 z"
             style="fill:#fd4755;fill-opacity:1;fill-rule:nonzero;stroke:none"
             id="path6718" /></g><g
           id="g6720"
           transform="translate(464.6816,192.8682)"><path
             d="m 0,0 h -86.036 c -21.988,0 -39.814,-17.826 -39.814,-39.814 V -174.745 H 39.813 V -39.814 C 39.813,-17.826 21.988,0 0,0 Z"
             style="fill:none;stroke:#000000;stroke-width:15;stroke-linecap:round;stroke-linejoin:round;stroke-miterlimit:10;stroke-dasharray:none;stroke-opacity:1"
             id="path6722" /></g><g
           id="g6724"
           transform="translate(400.3916,143.8945)"><path
             d="m 0,0 c 1.933,9.842 10.607,17.267 21.016,17.267 11.829,0 21.419,-9.59 21.419,-21.418 0,-11.829 -9.59,-21.419 -21.419,-21.419 11.829,0 21.419,-9.589 21.419,-21.418 0,-11.829 -9.59,-21.419 -21.419,-21.419 -10.816,0 -19.758,8.016 -21.211,18.431 -0.137,0.976 -0.207,1.974 -0.207,2.988"
             style="fill:none;stroke:#000000;stroke-width:15;stroke-linecap:round;stroke-linejoin:round;stroke-miterlimit:10;stroke-dasharray:none;stroke-opacity:1"
             id="path6726" /></g><g
           id="g6728"
           transform="translate(133.3545,234.7202)"><path
             d="m 0,0 h -86.036 c -21.988,0 -39.814,-17.825 -39.814,-39.814 V -216.597 H 65.045 L 39.813,-39.814 C 39.813,-17.825 21.988,0 0,0"
             style="fill:#deecf1;fill-opacity:1;fill-rule:nonzero;stroke:none"
             id="path6730" /></g><g
           id="g6732"
           transform="translate(86.8447,234.7236)"><path
             d="M 0,0 C -21.99,0 -39.81,-17.83 -39.81,-39.82 V -216.6 h -39.53 v 176.78 c 0,21.99 17.83,39.82 39.81,39.82 z"
             style="fill:#cbe5e8;fill-opacity:1;fill-rule:nonzero;stroke:none"
             id="path6734" /></g><g
           id="g6736"
           transform="translate(81.1904,18.1201)"><path
             d="m 0,0 h 91.979 v 176.79 c 0,21.98 -17.83,39.81 -39.82,39.81 H -33.87 c -21.99,0 -39.82,-17.83 -39.82,-39.81 V 0 H -30"
             style="fill:none;stroke:#000000;stroke-width:15;stroke-linecap:round;stroke-linejoin:round;stroke-miterlimit:10;stroke-dasharray:none;stroke-opacity:1"
             id="path6738" /></g><g
           id="g6740"
           transform="translate(299.0176,296.6807)"><path
             d="m 0,0 h -86.035 c -21.989,0 -39.815,-17.825 -39.815,-39.814 V -278.557 H 39.814 V -39.814 C 39.814,-17.825 21.989,0 0,0"
             style="fill:#ffe177;fill-opacity:1;fill-rule:nonzero;stroke:none"
             id="path6742" /></g><g
           id="g6744"
           transform="translate(252.5186,296.687)"><path
             d="m 0,0 c -21.99,0 -39.82,-17.83 -39.82,-39.82 v -238.74 h -39.531 v 238.74 c 0,21.99 17.83,39.82 39.821,39.82 z"
             style="fill:#fec165;fill-opacity:1;fill-rule:nonzero;stroke:none"
             id="path6746" /></g><g
           id="g6748"
           transform="translate(299.0176,296.6807)"><path
             d="m 0,0 h -86.035 c -21.989,0 -39.815,-17.825 -39.815,-39.814 V -278.557 H 39.814 V -39.814 C 39.814,-17.825 21.989,0 0,0 Z"
             style="fill:none;stroke:#000000;stroke-width:15;stroke-linecap:round;stroke-linejoin:round;stroke-miterlimit:10;stroke-dasharray:none;stroke-opacity:1"
             id="path6750" /></g><g
           id="g6752"
           transform="translate(247.0547,256.6655)"><path
             d="M 0,0 H 17.891 V -83.705"
             style="fill:none;stroke:#000000;stroke-width:15;stroke-linecap:round;stroke-linejoin:round;stroke-miterlimit:10;stroke-dasharray:none;stroke-opacity:1"
             id="path6754" /></g><g
           id="g6756"
           transform="translate(113.3281,114.9238)"><path
             d="m 0,0 c 0,0 -40.726,-0.512 -42.655,0.131 -1.929,0.643 3.093,4.04 29.794,42.19 4.987,7.125 7.731,13.136 8.899,18.172 l 0.414,3.238 c 0,11.829 -9.59,21.418 -21.419,21.418 -10.408,0 -19.083,-7.424 -21.015,-17.267"
             style="fill:none;stroke:#000000;stroke-width:15;stroke-linecap:round;stroke-linejoin:round;stroke-miterlimit:10;stroke-dasharray:none;stroke-opacity:1"
             id="path6758" /></g><g
           id="g6760"
           transform="translate(270.7236,467.9785)"><path
             d="m 0,0 9.073,-18.384 c 2.392,-4.846 7.014,-8.204 12.363,-8.982 l 20.288,-2.947 c 13.466,-1.958 18.843,-18.507 9.098,-28.006 l -14.679,-14.31 c -3.871,-3.772 -5.636,-9.207 -4.723,-14.533 l 3.466,-20.206 c 2.301,-13.413 -11.778,-23.641 -23.823,-17.308 l -18.146,9.54 c -4.783,2.514 -10.498,2.514 -15.281,0 l -18.146,-9.54 c -12.046,-6.333 -26.124,3.895 -23.823,17.308 l 3.466,20.206 c 0.913,5.326 -0.853,10.761 -4.723,14.533 l -14.68,14.31 c -9.745,9.499 -4.368,26.048 9.099,28.006 l 20.288,2.947 c 5.349,0.778 9.971,4.136 12.362,8.982 L -29.447,0 C -23.425,12.204 -6.022,12.204 0,0"
             style="fill:#ffe177;fill-opacity:1;fill-rule:nonzero;stroke:none"
             id="path6762" /></g><g
           id="g6764"
           transform="translate(268.334,471.5698)"><path
             d="m 0,0 c -1.12,-1.22 -2.11,-2.64 -2.91,-4.26 l -9.74,-19.73 c -2.571,-5.21 -7.531,-8.81 -13.27,-9.65 L -47.7,-36.8 c -14.46,-2.1 -20.231,-19.87 -9.771,-30.06 l 15.761,-15.36 c 4.159,-4.05 6.05,-9.89 5.069,-15.6 l -3.719,-21.7 c -0.58,-3.37 -0.191,-6.55 0.91,-9.36 -11.731,-4.97 -24.72,5 -22.49,17.92 l 3.46,20.21 c 0.91,5.33 -0.85,10.76 -4.72,14.53 l -14.68,14.31 c -9.75,9.5 -4.37,26.05 9.1,28.01 l 20.29,2.95 c 5.34,0.77 9.969,4.13 12.36,8.98 l 9.069,18.38 C -21.7,7.27 -7.33,8.47 0,0"
             style="fill:#fec165;fill-opacity:1;fill-rule:nonzero;stroke:none"
             id="path6766" /></g><g
           id="g6768"
           transform="translate(307,438.4502)"><path
             d="m 0,0 5.45,-0.79 c 13.46,-1.95 18.84,-18.5 9.1,-28 L -0.13,-43.1 C -4,-46.87 -5.77,-52.31 -4.86,-57.63 l 3.47,-20.21 c 2.3,-13.41 -11.78,-23.64 -23.82,-17.31 l -18.15,9.54 c -4.78,2.52 -10.5,2.52 -15.28,0 l -18.15,-9.54 c -12.04,-6.33 -26.12,3.9 -23.82,17.31 l 3.47,20.21 c 0.91,5.32 -0.86,10.76 -4.73,14.53 l -14.68,14.31 c -9.74,9.5 -4.36,26.05 9.1,28 l 20.29,2.95 c 5.35,0.78 9.97,4.14 12.36,8.98 l 9.08,18.39 c 6.02,12.2 23.42,12.2 29.44,0 l 9.08,-18.39 c 0.05,-0.09 0.09,-0.18 0.15,-0.27"
             style="fill:none;stroke:#000000;stroke-width:15;stroke-linecap:round;stroke-linejoin:round;stroke-miterlimit:10;stroke-dasharray:none;stroke-opacity:1"
             id="path6770" /></g><g
           id="g6772"
           transform="translate(369.541,453.7236)"><path
             d="m 0,0 1.245,-2.158 c 4.393,-7.61 13.928,-10.52 21.82,-6.658 l 24.28,11.877 c 8.695,4.254 11.969,14.984 7.131,23.369 l -3.095,5.362 c -4.84,8.384 -15.769,10.916 -23.802,5.515 L 5.149,22.225 C -2.143,17.322 -4.393,7.61 0,0"
             style="fill:#ffe177;fill-opacity:1;fill-rule:nonzero;stroke:none"
             id="path6774" /></g><g
           id="g6776"
           transform="translate(385.418,392.6035)"><path
             d="m 0,0 -0.001,-2.491 c -0.001,-8.787 6.802,-16.074 15.568,-16.677 l 26.964,-1.853 c 9.659,-0.664 17.86,6.991 17.861,16.672 l 10e-4,6.191 C 60.394,11.523 52.195,19.18 42.537,18.519 L 15.572,16.673 C 6.806,16.073 0.001,8.787 0,0"
             style="fill:#ffe177;fill-opacity:1;fill-rule:nonzero;stroke:none"
             id="path6778" /></g><g
           id="g6780"
           transform="translate(370.8838,331.1157)"><path
             d="m 0,0 -1.246,-2.157 c -4.394,-7.61 -2.147,-17.322 5.144,-22.227 l 22.425,-15.087 c 8.033,-5.404 18.962,-2.875 23.804,5.509 l 3.096,5.361 c 4.841,8.383 1.57,19.114 -7.125,23.371 L 21.822,6.653 C 13.931,10.516 4.395,7.609 0,0"
             style="fill:#ffe177;fill-opacity:1;fill-rule:nonzero;stroke:none"
             id="path6782" /></g><g
           id="g6784"
           transform="translate(369.541,453.7236)"><path
             d="m 0,0 1.245,-2.158 c 4.393,-7.61 13.928,-10.52 21.82,-6.658 l 24.28,11.877 c 8.695,4.254 11.969,14.984 7.131,23.369 l -3.095,5.362 c -4.84,8.384 -15.769,10.916 -23.802,5.515 L 5.149,22.225 C -2.143,17.322 -4.393,7.61 0,0 Z"
             style="fill:none;stroke:#000000;stroke-width:15;stroke-linecap:round;stroke-linejoin:round;stroke-miterlimit:10;stroke-dasharray:none;stroke-opacity:1"
             id="path6786" /></g><g
           id="g6788"
           transform="translate(385.418,392.6035)"><path
             d="m 0,0 -0.001,-2.491 c -0.001,-8.787 6.802,-16.074 15.568,-16.677 l 26.964,-1.853 c 9.659,-0.664 17.86,6.991 17.861,16.672 l 10e-4,6.191 C 60.394,11.523 52.195,19.18 42.537,18.519 L 15.572,16.673 C 6.806,16.073 0.001,8.787 0,0 Z"
             style="fill:none;stroke:#000000;stroke-width:15;stroke-linecap:round;stroke-linejoin:round;stroke-miterlimit:10;stroke-dasharray:none;stroke-opacity:1"
             id="path6790" /></g><g
           id="g6792"
           transform="translate(370.8838,331.1157)"><path
             d="m 0,0 -1.246,-2.157 c -4.394,-7.61 -2.147,-17.322 5.144,-22.227 l 22.425,-15.087 c 8.033,-5.404 18.962,-2.875 23.804,5.509 l 3.096,5.361 c 4.841,8.383 1.57,19.114 -7.125,23.371 L 21.822,6.653 C 13.931,10.516 4.395,7.609 0,0 Z"
             style="fill:none;stroke:#000000;stroke-width:15;stroke-linecap:round;stroke-linejoin:round;stroke-miterlimit:10;stroke-dasharray:none;stroke-opacity:1"
             id="path6794" /></g><g
           id="g6796"
           transform="translate(142.459,453.7236)"><path
             d="m 0,0 -1.245,-2.158 c -4.393,-7.61 -13.928,-10.52 -21.82,-6.658 l -24.28,11.877 c -8.695,4.254 -11.969,14.984 -7.131,23.369 l 3.095,5.362 c 4.84,8.384 15.769,10.916 23.802,5.515 L -5.149,22.225 C 2.143,17.322 4.393,7.61 0,0"
             style="fill:#ffe177;fill-opacity:1;fill-rule:nonzero;stroke:none"
             id="path6798" /></g><g
           id="g6800"
           transform="translate(126.582,392.6035)"><path
             d="m 0,0 0.001,-2.491 c 0.001,-8.787 -6.802,-16.074 -15.568,-16.677 l -26.964,-1.853 c -9.659,-0.664 -17.86,6.991 -17.861,16.672 l -10e-4,6.191 c -10e-4,9.681 8.198,17.338 17.856,16.677 l 26.965,-1.846 C -6.806,16.073 -0.001,8.787 0,0"
             style="fill:#ffe177;fill-opacity:1;fill-rule:nonzero;stroke:none"
             id="path6802" /></g><g
           id="g6804"
           transform="translate(141.1162,331.1157)"><path
             d="m 0,0 1.246,-2.157 c 4.394,-7.61 2.147,-17.322 -5.144,-22.227 l -22.425,-15.087 c -8.033,-5.404 -18.962,-2.875 -23.804,5.509 l -3.096,5.361 c -4.841,8.383 -1.57,19.114 7.125,23.371 L -21.822,6.653 C -13.931,10.516 -4.395,7.609 0,0"
             style="fill:#ffe177;fill-opacity:1;fill-rule:nonzero;stroke:none"
             id="path6806" /></g><g
           id="g6808"
           transform="translate(142.459,453.7236)"><path
             d="m 0,0 -1.245,-2.158 c -4.393,-7.61 -13.928,-10.52 -21.82,-6.658 l -24.28,11.877 c -8.695,4.254 -11.969,14.984 -7.131,23.369 l 3.095,5.362 c 4.84,8.384 15.769,10.916 23.802,5.515 L -5.149,22.225 C 2.143,17.322 4.393,7.61 0,0 Z"
             style="fill:none;stroke:#000000;stroke-width:15;stroke-linecap:round;stroke-linejoin:round;stroke-miterlimit:10;stroke-dasharray:none;stroke-opacity:1"
             id="path6810" /></g><g
           id="g6812"
           transform="translate(126.582,392.6035)"><path
             d="m 0,0 0.001,-2.491 c 0.001,-8.787 -6.802,-16.074 -15.568,-16.677 l -26.964,-1.853 c -9.659,-0.664 -17.86,6.991 -17.861,16.672 l -10e-4,6.191 c -10e-4,9.681 8.198,17.338 17.856,16.677 l 26.965,-1.846 C -6.806,16.073 -0.001,8.787 0,0 Z"
             style="fill:none;stroke:#000000;stroke-width:15;stroke-linecap:round;stroke-linejoin:round;stroke-miterlimit:10;stroke-dasharray:none;stroke-opacity:1"
             id="path6814" /></g><g
           id="g6816"
           transform="translate(141.1162,331.1157)"><path
             d="m 0,0 1.246,-2.157 c 4.394,-7.61 2.147,-17.322 -5.144,-22.227 l -22.425,-15.087 c -8.033,-5.404 -18.962,-2.875 -23.804,5.509 l -3.096,5.361 c -4.841,8.383 -1.57,19.114 7.125,23.371 L -21.822,6.653 C -13.931,10.516 -4.395,7.609 0,0 Z"
             style="fill:none;stroke:#000000;stroke-width:15;stroke-linecap:round;stroke-linejoin:round;stroke-miterlimit:10;stroke-dasharray:none;stroke-opacity:1"
             id="path6818" /></g></g></g></g></svg>
