<svg width="1080" height="1350" viewBox="0 0 1080 1350" fill="none" xmlns="http://www.w3.org/2000/svg">
  <defs>
    <radialGradient id="g1" cx="35%" cy="18%" r="70%">
      <stop offset="0%" stop-color="#7CFFB2"/>
      <stop offset="42%" stop-color="#22C55E"/>
      <stop offset="100%" stop-color="#0F172A"/>
    </radialGradient>
    <radialGradient id="g2" cx="80%" cy="10%" r="55%">
      <stop offset="0%" stop-color="#60A5FA" stop-opacity="0.9"/>
      <stop offset="100%" stop-color="#60A5FA" stop-opacity="0"/>
    </radialGradient>
    <radialGradient id="g3" cx="20%" cy="88%" r="60%">
      <stop offset="0%" stop-color="#FACC15" stop-opacity="0.85"/>
      <stop offset="100%" stop-color="#FACC15" stop-opacity="0"/>
    </radialGradient>
    <filter id="shadow" x="-20%" y="-20%" width="140%" height="140%">
      <feDropShadow dx="0" dy="24" stdDeviation="22" flood-color="#000000" flood-opacity="0.24"/>
    </filter>
  </defs>

  <rect width="1080" height="1350" rx="72" fill="url(#g1)"/>
  <rect width="1080" height="1350" rx="72" fill="url(#g2)"/>
  <rect width="1080" height="1350" rx="72" fill="url(#g3)"/>

  <circle cx="166" cy="182" r="88" fill="white" fill-opacity="0.12"/>
  <circle cx="922" cy="258" r="132" fill="white" fill-opacity="0.10"/>
  <circle cx="840" cy="1110" r="210" fill="white" fill-opacity="0.08"/>

  <g filter="url(#shadow)">
    <rect x="160" y="342" width="760" height="640" rx="64" fill="white" fill-opacity="0.18"/>
    <rect x="194" y="376" width="692" height="572" rx="48" fill="white" fill-opacity="0.16"/>
  </g>

  <g filter="url(#shadow)">
    <circle cx="540" cy="595" r="142" fill="white" fill-opacity="0.95"/>
    <path d="M535 468L422 645H536L508 766L661 564H545L535 468Z" fill="#16A34A"/>
  </g>

  <text x="540" y="860" text-anchor="middle" font-family="Inter, Arial, sans-serif" font-size="72" font-weight="900" fill="white">
    MISSÃO ATIVA
  </text>
  <text x="540" y="932" text-anchor="middle" font-family="Inter, Arial, sans-serif" font-size="38" font-weight="700" fill="white" opacity="0.86">
    toque para participar e pontuar
  </text>

  <rect x="260" y="1038" width="560" height="92" rx="46" fill="white" fill-opacity="0.18"/>
  <text x="540" y="1098" text-anchor="middle" font-family="Inter, Arial, sans-serif" font-size="36" font-weight="900" fill="white">
    CHEGAR COM TUDO
  </text>
</svg>
