<svg id="Gradient" viewBox="0 0 48 48" xmlns="http://www.w3.org/2000/svg" xmlns:xlink="http://www.w3.org/1999/xlink"><linearGradient id="linear-gradient" gradientUnits="userSpaceOnUse" x1="24" x2="24" y1="34" y2="14"><stop offset="0" stop-color="#e62344"/><stop offset="1" stop-color="#fa6a85"/></linearGradient><rect fill="url(#linear-gradient)" height="20" rx="2.97" width="40" x="4" y="14"/><g fill="#fff"><path d="m16 28h-4v-9c0-.5527-.4478-1-1-1s-1 .4473-1 1v10c0 .5527.4478 1 1 1h5c.5522 0 1-.4473 1-1s-.4478-1-1-1z"/><path d="m20 18c-.5522 0-1 .4473-1 1v10c0 .5527.4478 1 1 1s1-.4473 1-1v-10c0-.5527-.4478-1-1-1z"/><path d="m30.2871 18.042c-.5322-.1582-1.0869.1416-1.2451.6709l-2.042 6.8066-2.042-6.8066c-.1592-.5293-.7163-.8252-1.2451-.6709-.5293.1592-.8296.7168-.6709 1.2451l3 10c.127.4229.5166.7129.958.7129s.8311-.29.958-.7129l3-10c.1582-.5283-.1416-1.0859-.6709-1.2451z"/><path d="m39 28h-4v-3h3c.5527 0 1-.4473 1-1s-.4473-1-1-1h-3v-3h4c.5527 0 1-.4473 1-1s-.4473-1-1-1h-5c-.5527 0-1 .4473-1 1v10c0 .5527.4473 1 1 1h5c.5527 0 1-.4473 1-1s-.4473-1-1-1z"/></g></svg>