<svg id="Gradient" viewBox="0 0 48 48" xmlns="http://www.w3.org/2000/svg" xmlns:xlink="http://www.w3.org/1999/xlink"><linearGradient id="linear-gradient" gradientUnits="userSpaceOnUse" x1="24" x2="24" y1="42" y2="6"><stop offset="0" stop-color="#0064e1"/><stop offset=".9944" stop-color="#26b7ff"/></linearGradient><circle cx="24" cy="24" fill="url(#linear-gradient)" r="18"/><g fill="#fff"><rect height="11.647" rx="1.839" width="5.781" x="13.219" y="22.315"/><path d="m35 24.5557c0-.7483-.3319-1.4111-.8432-1.8613.3852-.3881.6241-.9216.6241-1.5103 0-1.1829-.9626-2.1455-2.1455-2.1455h-3.678v-2.452c0-1.138-.3167-2.0851-.9411-2.8145-.6082-.71-1.5726-.9572-2.461-.6289-.9123.3373-1.502 1.1787-1.502 2.1431v3.1393c0 1.6945-2.4107 3.2764-3.3398 3.743-.3023.1518-.49.8587-.3382 1.1611v6.1301l1.9136 2.1674c.5789.5789 1.3484.8977 2.1671.8977h6.9535c1.1829 0 2.1455-.9626 2.1455-2.1455 0-.1668-.0254-.3289-.0624-.4878.757-.3318 1.2885-1.0863 1.2885-1.9643 0-.5886-.2389-1.1222-.6241-1.5103.5113-.4501.8432-1.1129.8432-1.8613z"/></g></svg>